<svg width="20" height="20" viewBox="0 0 20 20" fill="none" xmlns="http://www.w3.org/2000/svg">
<path d="M7.21013 12.5342C7.42198 12.7132 7.5813 12.9057 7.73219 13.138C8.14135 13.764 8.70867 14.2049 9.44572 14.3637C10.1567 14.5026 10.8431 14.3604 11.4608 13.9831C11.8436 13.7173 12.1167 13.3763 12.3657 12.9849C12.6613 12.5371 13.1317 12.2366 13.653 12.1176C14.2207 12.0186 14.8218 12.0942 15.3077 12.4135C15.6202 12.6474 15.8474 12.9142 16.0636 13.2363C16.4834 13.8577 17.0697 14.225 17.8002 14.3834C17.8998 14.4055 17.9995 14.4277 18.1021 14.4505C18.1021 14.7826 18.1021 15.1147 18.1021 15.4569C17.8696 15.4901 17.8696 15.4901 17.6325 15.524C17.5175 15.675 17.5175 15.675 17.5486 15.7986C17.5903 15.895 17.5903 15.895 17.666 15.937C17.8089 15.9697 17.9563 15.979 18.1021 15.9936C18.1021 16.3257 18.1021 16.6578 18.1021 17C12.7884 17 7.47472 17 2 17C2 16.6679 2 16.3358 2 15.9936C2.23247 15.9604 2.23247 15.9604 2.46965 15.9265C2.58462 15.7755 2.58462 15.7755 2.55351 15.6519C2.5118 15.5555 2.5118 15.5555 2.4361 15.5135C2.29322 15.4807 2.14586 15.4715 2 15.4569C2 15.1137 2 14.7705 2 14.4169C2.15498 14.3837 2.30997 14.3505 2.46965 14.3163C3.15631 14.0811 3.65101 13.6883 4.04212 13.0751C4.35729 12.5961 4.79531 12.2648 5.3533 12.1231C6.01581 12.0031 6.67318 12.1207 7.21013 12.5342ZM3.81149 15.5575C3.76384 15.6528 3.76739 15.7204 3.77794 15.8259C3.85282 15.9214 3.89703 15.955 4.01277 15.9936C4.11188 16.0011 4.21112 15.9998 4.31049 15.9999C4.33743 16.0003 4.36437 16.0007 4.39212 16.0011C4.56968 16.0016 4.71142 15.9946 4.84722 15.8678C4.89997 15.7623 4.88461 15.7025 4.85142 15.5911C4.78407 15.4981 4.7264 15.4792 4.61659 15.4569C4.51744 15.4489 4.41831 15.4491 4.31887 15.4485C4.29237 15.4478 4.26586 15.4471 4.23855 15.4464C4.07117 15.4453 3.95626 15.464 3.81149 15.5575ZM6.09682 15.5827C6.04407 15.6882 6.05943 15.748 6.09262 15.8594C6.15997 15.9524 6.21764 15.9713 6.32745 15.9936C6.42729 16.0015 6.52713 16.0013 6.62726 16.002C6.65405 16.0027 6.68084 16.0034 6.70844 16.0041C6.86748 16.0051 6.96904 15.9946 7.09901 15.893C7.17551 15.8301 7.17551 15.8301 7.17868 15.7294C7.175 15.6221 7.175 15.6221 7.1053 15.547C6.95871 15.4339 6.80986 15.4507 6.63355 15.4506C6.60661 15.4502 6.57967 15.4498 6.55192 15.4493C6.37436 15.4489 6.23262 15.4559 6.09682 15.5827ZM8.37585 15.5994C8.33016 15.6926 8.33016 15.6926 8.36327 15.7986C8.40172 15.895 8.40172 15.895 8.47439 15.9601C8.61588 16.0064 8.75891 16.001 8.9063 16.002C8.93281 16.0027 8.95932 16.0034 8.98663 16.0041C9.154 16.0052 9.26892 15.9865 9.41369 15.893C9.46133 15.7977 9.45778 15.7301 9.44723 15.6246C9.37235 15.5291 9.32815 15.4954 9.21241 15.4569C9.1133 15.4493 9.01405 15.4507 8.91469 15.4506C8.88775 15.4502 8.86081 15.4498 8.83305 15.4493C8.64902 15.4489 8.50308 15.4517 8.37585 15.5994ZM10.6884 15.5575C10.6408 15.6528 10.6443 15.7204 10.6549 15.8259C10.7298 15.9214 10.774 15.955 10.8897 15.9936C10.9888 16.0011 11.0881 15.9998 11.1874 15.9999C11.2144 16.0003 11.2413 16.0007 11.2691 16.0011C11.4138 16.0015 11.5313 15.9981 11.6613 15.9265C11.731 15.854 11.731 15.854 11.7619 15.7588C11.7364 15.6403 11.7136 15.5763 11.6277 15.4904C11.4862 15.444 11.3432 15.4494 11.1958 15.4485C11.1693 15.4478 11.1428 15.4471 11.1155 15.4464C10.9481 15.4453 10.8332 15.464 10.6884 15.5575ZM13.0031 15.524C12.925 15.6411 12.9192 15.6881 12.936 15.8259C13.0109 15.9214 13.0551 15.955 13.1708 15.9936C13.27 16.0011 13.3692 15.9998 13.4686 15.9999C13.4955 16.0003 13.5224 16.0007 13.5502 16.0011C13.7278 16.0016 13.8695 15.9946 14.0053 15.8678C14.0581 15.7623 14.0427 15.7025 14.0095 15.5911C13.9422 15.4981 13.8845 15.4791 13.7747 15.4569C13.6748 15.4497 13.575 15.4507 13.4749 15.4506C13.4481 15.4502 13.4213 15.4498 13.3937 15.4493C13.2502 15.449 13.1311 15.4509 13.0031 15.524ZM15.2549 15.5827C15.2022 15.6882 15.2175 15.748 15.2507 15.8594C15.318 15.9524 15.3757 15.9714 15.4855 15.9936C15.5854 16.0008 15.6853 15.9998 15.7853 15.9999C15.8255 16.0005 15.8255 16.0005 15.8665 16.0011C16.01 16.0015 16.1292 15.9996 16.2571 15.9265C16.3352 15.8094 16.3411 15.7624 16.3242 15.6246C16.2493 15.5291 16.2051 15.4954 16.0894 15.4569C15.9902 15.4493 15.891 15.4507 15.7916 15.4506C15.7647 15.4502 15.7378 15.4498 15.71 15.4493C15.5324 15.4489 15.3907 15.4559 15.2549 15.5827Z" fill="#484848"/>
<path d="M11.1137 9.29844C11.2966 9.43097 11.4472 9.60453 11.6037 9.76623C12.0384 10.2098 12.6049 10.4872 13.233 10.5014C13.3238 10.5022 13.4146 10.5026 13.5055 10.5028C13.5557 10.5031 13.606 10.5034 13.6563 10.5038C13.792 10.5047 13.9277 10.5052 14.0634 10.5057C14.2055 10.5062 14.3476 10.5071 14.4897 10.5079C14.7584 10.5095 15.0271 10.5107 15.2959 10.5119C15.6593 10.5134 16.0227 10.5154 16.386 10.5174C16.9581 10.5206 17.5301 10.5231 18.1021 10.5256C18.1021 11.6548 18.1021 12.784 18.1021 13.9473C17.4562 13.848 16.9445 13.6209 16.5255 13.1087C16.4501 13.005 16.3809 12.8975 16.3115 12.7897C15.9464 12.2253 15.3925 11.8508 14.7475 11.6683C14.2463 11.5693 13.7182 11.5952 13.2379 11.7668C13.2079 11.7765 13.1779 11.7862 13.147 11.7962C12.615 11.9841 12.207 12.3837 11.8961 12.8403C11.4873 13.431 11.0345 13.7946 10.3194 13.9333C9.75359 14.0121 9.18024 13.879 8.72167 13.5391C8.69542 13.5189 8.66917 13.4986 8.64213 13.4777C8.60742 13.4519 8.60742 13.4519 8.57202 13.4257C8.39211 13.2821 8.27096 13.1049 8.14483 12.9153C8.03573 12.7531 7.92212 12.586 7.78015 12.4506C7.73638 12.4042 7.73638 12.4042 7.73638 12.3371C7.71684 12.3282 7.69729 12.3193 7.67715 12.3101C7.59998 12.2688 7.54265 12.2222 7.4764 12.1652C6.89376 11.7077 6.21471 11.5739 5.48879 11.6326C4.78565 11.7173 4.17762 12.1256 3.7444 12.6726C3.67591 12.7726 3.61007 12.8741 3.54417 12.9758C3.24251 13.4155 2.80366 13.7556 2.28305 13.8949C2.16773 13.9138 2.16773 13.9138 2 13.9138C2 12.7957 2 11.6776 2 10.5256C2.36225 10.5248 2.72449 10.5239 3.09772 10.523C3.3278 10.5222 3.55788 10.5213 3.78797 10.5203C4.15282 10.5186 4.51766 10.5171 4.88251 10.5165C5.1483 10.5161 5.41408 10.5152 5.67986 10.5137C5.8204 10.513 5.96094 10.5124 6.10149 10.5125C6.23418 10.5125 6.36686 10.5119 6.49955 10.5108C6.54786 10.5105 6.59617 10.5105 6.64448 10.5107C7.07653 10.5121 7.4896 10.4388 7.87685 10.2384C7.899 10.2271 7.92115 10.2158 7.94396 10.2042C8.21425 10.0589 8.41712 9.85178 8.62666 9.63063C9.28524 8.94278 10.293 8.7955 11.1137 9.29844ZM9.49234 9.78029C9.32996 9.98812 9.20182 10.2082 9.07613 10.4397C9.03665 10.5116 8.99712 10.5836 8.95754 10.6555C8.93856 10.69 8.91958 10.7246 8.90002 10.7602C8.83094 10.8833 8.75818 11.0038 8.68391 11.1239C8.48175 11.4756 8.47176 11.8852 8.5749 12.27C8.6984 12.6391 8.9455 12.9442 9.28723 13.1327C9.71912 13.3331 10.1041 13.3688 10.5543 13.2093C10.6726 13.1506 10.7812 13.0832 10.8897 13.008C10.9202 12.9873 10.9506 12.9665 10.982 12.9451C11.2444 12.6973 11.443 12.3496 11.468 11.9859C11.469 11.9409 11.4698 11.8958 11.4705 11.8507C11.4717 11.8068 11.473 11.7628 11.4743 11.7176C11.456 11.352 11.2658 11.0354 11.0826 10.729C11.0598 10.6905 11.0371 10.6519 11.0144 10.6133C10.9703 10.5387 10.926 10.4641 10.8815 10.3897C10.833 10.3083 10.7854 10.2266 10.7382 10.1444C10.6021 9.91209 10.4739 9.74525 10.2419 9.6073C9.96446 9.54279 9.6942 9.56302 9.49234 9.78029Z" fill="#484848"/>
<path d="M9.9798 10.0769C10.1106 10.0926 10.134 10.1256 10.2188 10.2237C10.2571 10.284 10.2932 10.3458 10.3276 10.4084C10.3474 10.4443 10.3673 10.4802 10.3877 10.5172C10.4081 10.5546 10.4285 10.5919 10.4494 10.6304C10.4898 10.7039 10.5303 10.7774 10.5708 10.8508C10.5904 10.8865 10.61 10.9222 10.6303 10.959C10.6847 11.0556 10.7416 11.1501 10.7998 11.2445C10.9618 11.5127 10.9941 11.7578 10.9568 12.0687C10.876 12.3166 10.7508 12.5397 10.5207 12.6725C10.2402 12.8079 9.99269 12.8555 9.69257 12.7648C9.41303 12.66 9.22842 12.486 9.08454 12.228C8.98005 11.8981 9.00367 11.6302 9.14931 11.3171C9.19174 11.236 9.23611 11.1564 9.28163 11.077C9.30572 11.0341 9.30572 11.0341 9.3303 10.9904C9.38003 10.9023 9.43032 10.8145 9.48081 10.7269C9.49694 10.6987 9.51306 10.6706 9.52968 10.6417C9.57535 10.5623 9.62128 10.4831 9.66741 10.404C9.68839 10.3679 9.68839 10.3679 9.7098 10.3312C9.84996 10.0938 9.84996 10.0938 9.9798 10.0769Z" fill="#484848"/>
</svg>
