<svg width="20" height="20" viewBox="0 0 20 20" fill="none" xmlns="http://www.w3.org/2000/svg">
<path d="M7.64446 11.379C7.69248 11.4205 7.73991 11.4627 7.78669 11.5056C7.80952 11.5256 7.83234 11.5456 7.85586 11.5661C8.00857 11.7078 8.12502 11.8636 8.24066 12.0356C8.58788 12.5508 8.97833 12.8661 9.5928 13.0097C10.1169 13.1013 10.6153 12.9712 11.0599 12.6902C11.1735 12.6046 11.2738 12.5127 11.3716 12.4096C11.3972 12.3834 11.3972 12.3834 11.4233 12.3565C11.5206 12.2499 11.5973 12.1334 11.6756 12.0122C12.0526 11.4413 12.5926 11.0681 13.2581 10.9038C13.9584 10.7767 14.6422 10.9179 15.2297 11.3143C15.2967 11.3656 15.3605 11.4191 15.4242 11.4744C15.4421 11.4876 15.46 11.5007 15.4785 11.5143C15.6634 11.6544 15.7829 11.8517 15.9138 12.04C16.2459 12.5168 16.6446 12.88 17.2322 13.0019C17.2739 13.0071 17.3156 13.0117 17.3573 13.0159C17.3794 13.0182 17.4015 13.0205 17.4243 13.0229C17.468 13.027 17.5119 13.0305 17.5558 13.0332C17.6733 13.0437 17.7296 13.0632 17.8228 13.1375C17.8869 13.2202 17.8869 13.2202 17.9044 13.3312C17.8844 13.4534 17.859 13.489 17.7622 13.5631C17.5071 13.6906 17.0728 13.5471 16.8114 13.4675C16.201 13.2452 15.7472 12.8513 15.4105 12.2986C15.1322 11.8531 14.7017 11.5913 14.2003 11.4553C13.6635 11.3795 13.1361 11.4467 12.6809 11.755C12.4166 11.9602 12.2085 12.207 12.0282 12.4876C11.6313 13.0941 11.0337 13.4299 10.338 13.5773C10.2769 13.587 10.2177 13.5915 10.1559 13.5942C10.1247 13.5958 10.0935 13.5974 10.0614 13.5991C9.38356 13.6174 8.72645 13.3951 8.22683 12.9282C8.04768 12.754 7.90618 12.5694 7.77168 12.3595C7.47177 11.8923 7.0728 11.5993 6.53415 11.4564C5.93874 11.3674 5.42548 11.4785 4.92617 11.8126C4.72457 11.9629 4.59074 12.1402 4.45114 12.3473C3.99119 13.0011 3.47628 13.4254 2.66987 13.5755C2.4839 13.6026 2.2869 13.631 2.11313 13.5514C2.05078 13.5007 2.05078 13.5007 2.01961 13.4384C2.00174 13.2168 2.00174 13.2168 2.06308 13.1214C2.1856 13.0352 2.30949 13.0339 2.45604 13.0195C2.98677 12.9549 3.4503 12.7348 3.7965 12.3161C3.86312 12.2218 3.92511 12.1244 3.98763 12.0273C4.34568 11.4788 4.87901 11.0731 5.52147 10.9159C6.26481 10.7636 7.04199 10.9125 7.64446 11.379Z" fill="#484848"/>
<path d="M11.3405 8.42263C11.4855 8.53667 11.6112 8.65817 11.7321 8.79744C11.9975 9.1015 12.3729 9.32123 12.7744 9.38584C12.9376 9.39498 13.1005 9.39427 13.2639 9.3938C13.3134 9.39388 13.3629 9.394 13.4125 9.39414C13.5187 9.39439 13.625 9.39446 13.7313 9.39439C13.8994 9.3943 14.0674 9.39475 14.2355 9.39529C14.7133 9.39676 15.1911 9.39751 15.6688 9.39771C15.933 9.39783 16.1972 9.39839 16.4614 9.39943C16.6284 9.40006 16.7955 9.40013 16.9626 9.39979C17.0664 9.39971 17.1703 9.40015 17.2741 9.40073C17.3223 9.40089 17.3704 9.40085 17.4186 9.40057C17.4843 9.40023 17.55 9.40064 17.6157 9.40125C17.6525 9.40128 17.6893 9.40132 17.7272 9.40135C17.8446 9.42024 17.8968 9.45862 17.9804 9.5417C18 9.61087 18 9.61087 17.9979 9.68198C17.998 9.70545 17.998 9.72892 17.9981 9.7531C17.9733 9.84995 17.9336 9.88489 17.8557 9.94696C17.7619 9.96265 17.7619 9.96265 17.65 9.96279C17.6293 9.96299 17.6087 9.96318 17.5875 9.96338C17.5183 9.96388 17.4493 9.96348 17.3802 9.96309C17.3306 9.96326 17.281 9.96348 17.2314 9.96375C17.0967 9.96432 16.9619 9.9641 16.8271 9.96371C16.6857 9.96339 16.5444 9.96368 16.403 9.96388C16.1651 9.96411 15.9273 9.96381 15.6894 9.96321C15.4155 9.96254 15.1416 9.96275 14.8677 9.96344C14.632 9.96401 14.3963 9.96409 14.1605 9.96376C14.02 9.96357 13.8795 9.96354 13.739 9.96395C13.6064 9.96432 13.4739 9.96406 13.3414 9.96334C13.2931 9.96318 13.2449 9.96322 13.1966 9.9635C12.5598 9.96683 11.9723 9.79853 11.4963 9.35466C11.4443 9.30152 11.3929 9.2478 11.3414 9.19409C10.9817 8.8206 10.5981 8.58374 10.0646 8.5645C9.55904 8.55771 9.16649 8.7164 8.79824 9.06095C8.7475 9.11112 8.69756 9.16211 8.64846 9.21389C8.2506 9.63187 7.73269 9.92097 7.14707 9.95295C7.01602 9.95549 6.88509 9.95611 6.75402 9.95601C6.70381 9.9562 6.6536 9.95641 6.60339 9.95665C6.46789 9.9572 6.33239 9.95735 6.19689 9.95739C6.11218 9.95743 6.02746 9.95756 5.94275 9.95773C5.6471 9.9583 5.35145 9.95856 5.0558 9.95851C4.7803 9.95847 4.5048 9.95913 4.2293 9.96012C3.99246 9.96093 3.75561 9.96126 3.51877 9.96123C3.37743 9.96121 3.2361 9.96139 3.09476 9.96205C2.96206 9.96265 2.82937 9.96266 2.69667 9.9622C2.64796 9.96214 2.59925 9.96228 2.55054 9.96266C2.48411 9.96314 2.41772 9.96285 2.35128 9.96237C2.3141 9.96241 2.27692 9.96244 2.23861 9.96247C2.12525 9.94382 2.08877 9.91223 2.01961 9.82226C2.00195 9.7531 2.00195 9.7531 2.00207 9.68198C2.00139 9.65852 2.0007 9.63505 2 9.61087C2.02954 9.50667 2.08623 9.4757 2.17547 9.41701C2.27239 9.40153 2.27239 9.40153 2.38321 9.40167C2.40368 9.40152 2.42415 9.40138 2.44524 9.40123C2.51361 9.40089 2.58195 9.40143 2.65032 9.40197C2.69944 9.4019 2.74856 9.40178 2.79768 9.4016C2.9034 9.40133 3.0091 9.40145 3.11482 9.40186C3.2823 9.4025 3.44977 9.40219 3.61725 9.40173C4.00331 9.40083 4.38937 9.40116 4.77544 9.4015C5.12867 9.40181 5.4819 9.40184 5.83513 9.40088C6.00127 9.40047 6.1674 9.40065 6.33354 9.4013C6.43744 9.40158 6.54134 9.40135 6.64524 9.40098C6.69303 9.40091 6.74082 9.40105 6.7886 9.40143C7.30969 9.40535 7.7766 9.27249 8.16637 8.91349C8.22347 8.85553 8.27595 8.79538 8.32833 8.73314C9.07796 7.86054 10.4224 7.77954 11.3405 8.42263Z" fill="#484848"/>
<path d="M2.43861 15.8854C2.46517 15.8852 2.49172 15.8851 2.51908 15.8849C2.60849 15.8844 2.69786 15.8848 2.78727 15.8853C2.85184 15.8851 2.91641 15.8849 2.98098 15.8847C3.15876 15.8842 3.33652 15.8844 3.5143 15.8848C3.70589 15.8851 3.89748 15.8847 4.08907 15.8843C4.44281 15.8838 4.79655 15.8838 5.15029 15.8842C5.47706 15.8845 5.80383 15.8846 6.1306 15.8844C6.15226 15.8844 6.17392 15.8844 6.19624 15.8844C6.28417 15.8844 6.3721 15.8843 6.46003 15.8843C7.28514 15.8839 8.11025 15.8842 8.93536 15.8849C9.66868 15.8855 10.402 15.8854 11.1353 15.8849C11.9589 15.8842 12.7825 15.8839 13.6061 15.8843C13.6939 15.8843 13.7816 15.8844 13.8694 15.8844C13.891 15.8844 13.9126 15.8844 13.9349 15.8845C14.2615 15.8846 14.5881 15.8844 14.9147 15.8841C15.286 15.8838 15.6573 15.8839 16.0285 15.8845C16.2181 15.8849 16.4076 15.885 16.5972 15.8846C16.7706 15.8842 16.9439 15.8844 17.1173 15.8851C17.1801 15.8852 17.243 15.8851 17.3059 15.8848C17.3911 15.8845 17.4762 15.8848 17.5614 15.8854C17.586 15.8851 17.6107 15.8848 17.6361 15.8845C17.7522 15.8861 17.8186 15.8974 17.9177 15.9601C17.9804 16.0258 17.9804 16.0258 18 16.095C17.9993 16.1184 17.9986 16.1419 17.9979 16.1661C17.998 16.1896 17.998 16.213 17.9981 16.2372C17.9728 16.3361 17.9371 16.3691 17.8557 16.4311C17.765 16.4433 17.6861 16.4478 17.5953 16.4467C17.5687 16.4469 17.5421 16.4471 17.5146 16.4473C17.4248 16.4478 17.3349 16.4473 17.2451 16.4469C17.1803 16.447 17.1154 16.4472 17.0506 16.4475C16.872 16.448 16.6934 16.4477 16.5148 16.4474C16.3223 16.4471 16.1299 16.4475 15.9374 16.4479C15.5821 16.4484 15.2267 16.4483 14.8714 16.448C14.5431 16.4477 14.2149 16.4476 13.8866 16.4477C13.8648 16.4478 13.8431 16.4478 13.8207 16.4478C13.7324 16.4478 13.6441 16.4479 13.5558 16.4479C12.727 16.4483 11.8982 16.4479 11.0695 16.4473C10.3328 16.4467 9.59616 16.4467 8.85949 16.4473C8.03228 16.448 7.20506 16.4482 6.37784 16.4479C6.2897 16.4478 6.20155 16.4478 6.11341 16.4477C6.0917 16.4477 6.07 16.4477 6.04764 16.4477C5.71954 16.4476 5.39145 16.4477 5.06336 16.4481C4.69039 16.4484 4.31742 16.4483 3.94445 16.4476C3.75402 16.4473 3.56359 16.4472 3.37316 16.4476C3.19903 16.448 3.0249 16.4478 2.85077 16.4471C2.78759 16.447 2.7244 16.447 2.66122 16.4473C2.57569 16.4477 2.49019 16.4473 2.40466 16.4467C2.3674 16.4472 2.3674 16.4472 2.32938 16.4476C2.21833 16.4461 2.15641 16.4403 2.06678 16.3721C2.01288 16.297 2.00191 16.2578 2.00207 16.1661C2.00139 16.1426 2.0007 16.1191 2 16.095C2.05875 15.8877 2.25581 15.8833 2.43861 15.8854Z" fill="#484848"/>
<path d="M10.2591 9.06052C10.5178 9.21839 10.6491 9.49414 10.793 9.75024C10.8326 9.81985 10.8721 9.88947 10.9117 9.95907C10.931 9.99319 10.9503 10.0273 10.9701 10.0625C11.0458 10.1951 11.1235 10.3266 11.2016 10.4578C11.3801 10.7787 11.3992 11.1971 11.3054 11.5505C11.1722 11.9144 10.937 12.2111 10.5923 12.3922C10.2036 12.5696 9.81238 12.5865 9.40772 12.4409C9.00375 12.2557 8.75914 11.98 8.59721 11.568C8.47094 11.163 8.54385 10.7888 8.72191 10.4146C8.78996 10.2854 8.86134 10.1585 8.93478 10.0323C8.96736 9.97631 8.99961 9.92013 9.03181 9.86391C9.13125 9.69093 9.23281 9.51919 9.33734 9.34924C9.35377 9.32247 9.3702 9.29569 9.38713 9.26811C9.58335 9.00562 9.96386 8.92713 10.2591 9.06052ZM9.87532 9.54176C9.69916 9.77393 9.56046 10.0214 9.42136 10.2768C9.35756 10.3937 9.28995 10.5074 9.22068 10.6211C9.0802 10.8624 9.03279 11.0736 9.09599 11.3498C9.178 11.5926 9.31869 11.7697 9.53242 11.9109C9.78044 12.0234 10.0163 12.0366 10.2722 11.9433C10.5146 11.8323 10.6736 11.6585 10.7891 11.4219C10.8842 10.9636 10.7014 10.6433 10.4715 10.2588C10.4528 10.2271 10.4341 10.1954 10.4149 10.1628C10.3779 10.1002 10.3406 10.0377 10.303 9.97539C10.2675 9.91533 10.2333 9.85451 10.2004 9.79298C10.1157 9.62434 10.1157 9.62434 9.95715 9.53787C9.91665 9.5398 9.91665 9.5398 9.87532 9.54176Z" fill="#484848"/>
<path d="M17.4466 14.4885C17.4839 14.4876 17.5212 14.4867 17.5597 14.4858C17.5956 14.4855 17.6315 14.4853 17.6684 14.485C17.7013 14.4845 17.7342 14.4841 17.7681 14.4836C17.877 14.5018 17.9129 14.5375 17.9804 14.623C17.997 14.6853 17.997 14.6853 17.996 14.7477C17.9963 14.7682 17.9966 14.7888 17.997 14.81C17.9727 14.9015 17.9285 14.9377 17.8557 14.997C17.7691 15.0127 17.7691 15.0127 17.6706 15.0125C17.6172 15.0125 17.6172 15.0125 17.5627 15.0126C17.5257 15.0119 17.4886 15.0113 17.4505 15.0107C17.4134 15.0109 17.3764 15.0111 17.3382 15.0114C17.0263 15.0091 17.0263 15.0091 16.9205 14.9035C16.8861 14.7797 16.8764 14.7137 16.9302 14.5957C17.0529 14.4413 17.2653 14.49 17.4466 14.4885Z" fill="#484848"/>
<path d="M14.9837 14.4786C15.0344 14.4787 15.0344 14.4787 15.0861 14.4787C15.1417 14.4786 15.1417 14.4786 15.1983 14.4785C15.2368 14.4793 15.2754 14.48 15.3151 14.4808C15.3536 14.4804 15.3921 14.4801 15.4318 14.4797C15.7159 14.482 15.7159 14.482 15.8092 14.5579C15.8651 14.6287 15.8776 14.6588 15.8762 14.7477C15.8765 14.7683 15.8768 14.7888 15.8772 14.81C15.8528 14.9017 15.809 14.9377 15.7359 14.9971C15.5969 15.0229 15.4562 15.0159 15.3151 15.0146C15.2765 15.0154 15.238 15.0161 15.1983 15.0169C15.1613 15.0168 15.1243 15.0167 15.0861 15.0167C15.0523 15.0167 15.0185 15.0167 14.9837 15.0168C14.8942 14.9971 14.8942 14.9971 14.8209 14.9238C14.7577 14.8221 14.7499 14.7719 14.7695 14.6542C14.8328 14.5524 14.8646 14.5048 14.9837 14.4786Z" fill="#484848"/>
<path d="M13.1953 14.4808C13.2338 14.48 13.2723 14.4793 13.3121 14.4785C13.3491 14.4786 13.3861 14.4786 13.4242 14.4787C13.458 14.4787 13.4918 14.4787 13.5267 14.4786C13.6161 14.4983 13.6161 14.4983 13.6895 14.5716C13.7527 14.6733 13.7604 14.7235 13.7408 14.8412C13.6895 14.9238 13.6895 14.9238 13.6161 14.9971C13.5267 15.0167 13.5267 15.0167 13.4242 15.0167C13.3687 15.0168 13.3687 15.0168 13.3121 15.0169C13.2735 15.0161 13.235 15.0154 13.1953 15.0146C13.1567 15.015 13.1182 15.0153 13.0785 15.0156C12.7944 15.0133 12.7944 15.0133 12.7011 14.9375C12.6452 14.8666 12.6328 14.8366 12.6342 14.7477C12.6337 14.7168 12.6337 14.7168 12.6332 14.6853C12.7023 14.425 12.9835 14.4789 13.1953 14.4808Z" fill="#484848"/>
<path d="M10.8397 14.4828C10.8931 14.4828 10.8931 14.4828 10.9476 14.4827C10.9847 14.4833 11.0217 14.484 11.0599 14.4846C11.0969 14.4844 11.134 14.4842 11.1722 14.4839C11.4841 14.4862 11.4841 14.4862 11.5898 14.5918C11.6242 14.7156 11.634 14.7816 11.5801 14.8996C11.5275 14.9659 11.5275 14.9659 11.4651 14.997C11.3315 15.0063 11.1977 15.0057 11.0638 15.0068C11.0265 15.0077 10.9891 15.0086 10.9507 15.0095C10.8968 15.0099 10.8968 15.0099 10.8419 15.0103C10.809 15.0108 10.7761 15.0112 10.7422 15.0117C10.6333 14.9935 10.5974 14.9578 10.5299 14.8723C10.5134 14.81 10.5134 14.81 10.5144 14.7476C10.5139 14.7168 10.5139 14.7168 10.5134 14.6853C10.5585 14.5155 10.6802 14.4825 10.8397 14.4828Z" fill="#484848"/>
<path d="M8.93621 14.4885C8.97354 14.4876 9.01087 14.4867 9.04934 14.4858C9.08522 14.4855 9.12111 14.4853 9.15808 14.485C9.19098 14.4845 9.22389 14.4841 9.25779 14.4836C9.36665 14.5018 9.40256 14.5375 9.47006 14.623C9.48662 14.6853 9.48662 14.6853 9.48564 14.7477C9.48596 14.7682 9.48628 14.7888 9.48662 14.81C9.46232 14.9015 9.41818 14.9377 9.34536 14.997C9.25878 15.0127 9.25878 15.0127 9.16027 15.0125C9.10686 15.0125 9.10686 15.0125 9.05238 15.0126C9.01533 15.0119 8.97828 15.0113 8.94011 15.0107C8.90306 15.0109 8.86601 15.0111 8.82783 15.0114C8.51593 15.0091 8.51593 15.0091 8.41016 14.9035C8.37575 14.7797 8.36603 14.7137 8.4199 14.5957C8.54251 14.4413 8.75497 14.49 8.93621 14.4885Z" fill="#484848"/>
<path d="M6.47332 14.4786C6.52405 14.4787 6.52405 14.4787 6.57579 14.4787C6.63131 14.4786 6.63131 14.4786 6.68794 14.4785C6.72648 14.4793 6.76502 14.48 6.80472 14.4808C6.84326 14.4804 6.8818 14.4801 6.9215 14.4797C7.20555 14.482 7.20555 14.482 7.29887 14.5579C7.3548 14.6287 7.36723 14.6588 7.36584 14.7477C7.36617 14.7683 7.36649 14.7888 7.36682 14.81C7.34247 14.9017 7.29869 14.9377 7.22556 14.9971C7.08653 15.0229 6.9459 15.0159 6.80472 15.0146C6.76619 15.0154 6.72765 15.0161 6.68794 15.0169C6.65093 15.0168 6.61392 15.0167 6.57579 15.0167C6.54198 15.0167 6.50816 15.0167 6.47332 15.0168C6.38388 14.9971 6.38388 14.9971 6.31051 14.9238C6.24731 14.8221 6.23956 14.7719 6.25919 14.6542C6.32243 14.5524 6.35426 14.5048 6.47332 14.4786Z" fill="#484848"/>
<path d="M4.68493 14.4808C4.72347 14.48 4.762 14.4793 4.80171 14.4785C4.83872 14.4786 4.87573 14.4786 4.91386 14.4787C4.94767 14.4787 4.98149 14.4787 5.01633 14.4786C5.10577 14.4983 5.10577 14.4983 5.17914 14.5716C5.24234 14.6733 5.25009 14.7235 5.23046 14.8412C5.17914 14.9238 5.17914 14.9238 5.10577 14.9971C5.01633 15.0167 5.01633 15.0167 4.91386 15.0167C4.85834 15.0168 4.85834 15.0168 4.80171 15.0169C4.76317 15.0161 4.72463 15.0154 4.68493 15.0146C4.64639 15.015 4.60786 15.0153 4.56815 15.0156C4.2841 15.0133 4.2841 15.0133 4.19078 14.9375C4.13486 14.8666 4.12242 14.8366 4.12381 14.7477C4.12333 14.7168 4.12333 14.7168 4.12283 14.6853C4.192 14.425 4.47319 14.4789 4.68493 14.4808Z" fill="#484848"/>
<path d="M2.3294 14.4817C2.3828 14.4815 2.3828 14.4815 2.43729 14.4813C2.47434 14.4817 2.51139 14.4822 2.54956 14.4827C2.58661 14.4822 2.62366 14.4818 2.66183 14.4813C2.69744 14.4814 2.73304 14.4816 2.76972 14.4817C2.80223 14.4819 2.83474 14.482 2.86824 14.4822C2.97621 14.5023 3.01248 14.5376 3.07951 14.623C3.11617 14.7379 3.12112 14.7877 3.06977 14.8977C3.01716 14.9659 3.01716 14.9659 2.95482 14.9971C2.82121 15.0064 2.68734 15.0058 2.55346 15.0068C2.51613 15.0077 2.47879 15.0086 2.44033 15.0096C2.3865 15.01 2.3865 15.01 2.33159 15.0104C2.29868 15.0108 2.26578 15.0113 2.23187 15.0117C2.12302 14.9935 2.08711 14.9578 2.01961 14.8724C2.00305 14.81 2.00305 14.81 2.00403 14.7477C2.00354 14.7168 2.00354 14.7168 2.00305 14.6854C2.04806 14.5159 2.17007 14.4824 2.3294 14.4817Z" fill="#484848"/>
</svg>
