<svg width="20" height="20" viewBox="0 0 20 20" fill="none" xmlns="http://www.w3.org/2000/svg">
<path d="M9.90499 5.0011C10.9371 4.97643 11.9159 5.36955 12.6617 6.05502C13.2223 6.58676 13.5183 7.24682 13.7405 7.96616C13.7793 8.08645 13.7793 8.08645 13.8694 8.16901C13.8885 8.17668 13.9077 8.18436 13.9274 8.19226C13.9443 8.20157 13.9611 8.21089 13.9785 8.22048C14.1196 8.28111 14.2731 8.27572 14.4247 8.2753C14.4466 8.27535 14.4685 8.2754 14.4911 8.27545C14.5385 8.27556 14.5859 8.27561 14.6334 8.27562C14.7345 8.27571 14.8356 8.27628 14.9367 8.27682C15.1247 8.27783 15.3127 8.27867 15.5007 8.27861C15.6317 8.27859 15.7628 8.27921 15.8938 8.28025C15.9435 8.28053 15.9932 8.28057 16.043 8.28037C16.5643 8.27844 16.5643 8.27844 16.7638 8.43135C16.9342 8.60868 16.9902 8.76502 16.9895 9.00771C16.9896 9.03096 16.9897 9.05421 16.9899 9.07817C16.9903 9.15607 16.9903 9.23396 16.9903 9.31186C16.9906 9.36772 16.9908 9.42358 16.991 9.47944C16.9916 9.63121 16.9919 9.78297 16.992 9.93474C16.9921 10.0296 16.9923 10.1245 16.9925 10.2193C16.9931 10.5503 16.9935 10.8813 16.9936 11.2124C16.9937 11.5207 16.9945 11.8291 16.9956 12.1375C16.9966 12.4023 16.997 12.6672 16.997 12.9321C16.9971 13.0902 16.9973 13.2483 16.9981 13.4065C16.9988 13.5553 16.9988 13.7041 16.9984 13.8529C16.9984 13.9074 16.9985 13.9619 16.999 14.0164C17.0032 14.5855 17.0032 14.5855 16.8063 14.7959C16.6071 14.9718 16.3946 14.9971 16.1367 14.9964C16.1151 14.9965 16.0935 14.9965 16.0713 14.9965C15.9989 14.9967 15.9264 14.9966 15.854 14.9965C15.8016 14.9966 15.7492 14.9967 15.6968 14.9967C15.5526 14.9969 15.4085 14.9969 15.2644 14.9969C15.109 14.9968 14.9536 14.997 14.7983 14.9971C14.4938 14.9973 14.1893 14.9974 13.8849 14.9974C13.6374 14.9974 13.39 14.9975 13.1426 14.9976C12.5555 14.9978 11.9684 14.9979 11.3813 14.9979C11.3625 14.9979 11.3437 14.9979 11.3244 14.9979C11.2292 14.9979 11.1341 14.9979 11.0389 14.9979C11.02 14.9979 11.0011 14.9979 10.9816 14.9979C10.9434 14.9979 10.9052 14.9979 10.867 14.9979C10.2723 14.9979 9.67755 14.9981 9.08284 14.9985C8.41471 14.9989 7.74658 14.9991 7.07845 14.9991C6.72468 14.9991 6.3709 14.9991 6.01713 14.9994C5.71596 14.9997 5.41479 14.9997 5.11362 14.9995C4.95993 14.9994 4.80623 14.9994 4.65254 14.9997C4.51187 14.9999 4.37119 14.9999 4.23052 14.9996C4.17961 14.9996 4.1287 14.9996 4.07779 14.9998C4.00859 15 3.93941 14.9998 3.87022 14.9996C3.85045 14.9997 3.83068 14.9999 3.81031 15C3.60581 14.9986 3.39974 14.9608 3.23624 14.8336C3.06785 14.6537 3.00984 14.5008 3.01058 14.2572C3.01044 14.234 3.01029 14.2107 3.01015 14.1868C3.00974 14.1089 3.00972 14.031 3.0097 13.9531C3.00949 13.8972 3.00926 13.8414 3.00901 13.7855C3.00841 13.6337 3.00817 13.482 3.00803 13.3302C3.00793 13.2353 3.00776 13.1405 3.00757 13.0456C3.0069 12.7146 3.00655 12.3836 3.00645 12.0526C3.00635 11.7442 3.00554 11.4359 3.00439 11.1275C3.00345 10.8626 3.00303 10.5978 3.00301 10.3329C3.00298 10.1747 3.00275 10.0166 3.00197 9.85848C3.00126 9.70966 3.0012 9.56085 3.00163 9.41203C3.00168 9.35752 3.0015 9.30302 3.00107 9.24851C2.99695 8.69954 2.99695 8.69954 3.15442 8.51104C3.33142 8.3502 3.48881 8.29059 3.7313 8.29089C3.76432 8.29062 3.76432 8.29062 3.79801 8.29034C3.84567 8.28998 3.89333 8.28974 3.941 8.28961C4.01657 8.28939 4.09214 8.28884 4.16771 8.28821C4.32825 8.28693 4.48879 8.28606 4.64934 8.28524C4.83516 8.28429 5.02098 8.28317 5.2068 8.28163C5.28101 8.2811 5.35521 8.28087 5.42942 8.28066C5.47529 8.28032 5.52115 8.27996 5.56702 8.27958C5.59766 8.27962 5.59766 8.27962 5.62891 8.27966C5.81181 8.27759 5.98306 8.25794 6.12721 8.13913C6.14521 8.13913 6.16321 8.13913 6.18176 8.13913C6.23092 8.05098 6.26131 7.96162 6.2917 7.8659C6.45946 7.34903 6.64444 6.86524 6.99996 6.43895C7.01095 6.42548 7.02194 6.41201 7.03326 6.39814C7.67274 5.61714 8.57963 5.14036 9.59817 5.0205C9.70039 5.01093 9.80245 5.00606 9.90499 5.0011ZM7.80399 6.78647C7.45595 7.15867 7.25187 7.60765 7.11097 8.08673C6.99549 8.47659 6.80252 8.74518 6.43499 8.9501C6.14235 9.07788 5.87241 9.08143 5.55682 9.08251C5.50706 9.08296 5.45731 9.08344 5.40756 9.08395C5.27745 9.08521 5.14734 9.08601 5.01722 9.0867C4.86066 9.08764 4.7041 9.08915 4.54754 9.09056C4.31045 9.09264 4.07336 9.09399 3.83625 9.09548C3.83625 9.63024 3.83625 10.165 3.83625 10.716C4.01626 10.751 4.19626 10.7861 4.38172 10.8222C4.51411 10.8691 4.63546 10.9188 4.76058 10.9805C5.2245 11.2088 5.66419 11.3164 6.18176 11.1941C6.32858 11.1449 6.46754 11.0809 6.60716 11.015C7.21371 10.7294 7.95437 10.6143 8.60908 10.8222C8.75812 10.8767 8.90191 10.9414 9.04545 11.0082C9.49474 11.2146 9.91444 11.3224 10.4091 11.1941C10.5899 11.1301 10.7639 11.0478 10.9358 10.9643C11.4974 10.6956 12.1902 10.6402 12.7928 10.8153C12.9497 10.8688 13.0969 10.9359 13.2455 11.0082C13.5062 11.1312 13.7433 11.2268 14.0365 11.2473C14.0579 11.2488 14.0794 11.2504 14.1015 11.2519C14.4422 11.2632 14.7326 11.1575 15.0346 11.015C15.4085 10.8388 15.7403 10.7675 16.1638 10.716C16.1638 10.1812 16.1638 9.64645 16.1638 9.09548C16.0061 9.0948 15.8485 9.09411 15.6861 9.0934C15.5856 9.09274 15.4852 9.09204 15.3848 9.09123C15.2257 9.08995 15.0666 9.08877 14.9076 9.08828C14.7792 9.08788 14.6508 9.08696 14.5224 9.0857C14.4737 9.0853 14.4249 9.08509 14.3762 9.08507C13.9392 9.08467 13.5752 9.01823 13.2386 8.72273C13.032 8.51197 12.9281 8.26944 12.8552 7.99136C12.6711 7.29621 12.2158 6.65631 11.5819 6.27955C11.5508 6.25942 11.5508 6.25942 11.519 6.23888C10.3203 5.48853 8.75053 5.81535 7.80399 6.78647ZM3.83625 11.5395C3.83625 12.4074 3.83625 13.2753 3.83625 14.1695C7.90434 14.1695 11.9724 14.1695 16.1638 14.1695C16.1638 13.3016 16.1638 12.4337 16.1638 11.5395C15.8348 11.5395 15.5989 11.6394 15.3098 11.7786C14.7055 12.0664 14.0185 12.132 13.37 11.9363C13.2073 11.8793 13.0533 11.8087 12.8978 11.7354C12.4788 11.5392 12.0282 11.452 11.5665 11.576C11.409 11.6319 11.2602 11.7069 11.1097 11.7786C10.4833 12.0766 9.77566 12.1295 9.10728 11.9217C8.91961 11.858 8.74146 11.7721 8.56425 11.685C8.19508 11.5053 7.73839 11.4672 7.33746 11.576C7.15481 11.6414 6.98191 11.7312 6.80723 11.8143C6.23332 12.0824 5.55145 12.12 4.94253 11.9363C4.7576 11.8714 4.58103 11.7904 4.40548 11.7045C4.22409 11.6168 4.04107 11.5395 3.83625 11.5395Z" fill="#484848"/>
<path d="M11.091 7.02341C11.4585 7.28095 11.6987 7.69594 11.7872 8.1239C11.854 8.61582 11.7701 9.09519 11.4626 9.50239C11.1251 9.92549 10.675 10.1413 10.1364 10.2113C9.65951 10.2606 9.19862 10.0842 8.82727 9.80281C8.47421 9.50119 8.24083 9.09578 8.19378 8.63644C8.15815 8.10632 8.30756 7.63461 8.67024 7.23126C9.31774 6.58539 10.3372 6.51598 11.091 7.02341ZM9.30967 7.7855C9.10144 8.00187 9.03422 8.23627 9.03821 8.5258C9.06013 8.80273 9.19249 8.99102 9.40001 9.1752C9.62589 9.34257 9.86496 9.4058 10.1491 9.38212C10.4113 9.33454 10.6262 9.19093 10.791 8.98925C10.9447 8.74205 10.992 8.51387 10.942 8.22611C10.8741 7.97489 10.7077 7.78218 10.4909 7.63441C10.0895 7.42595 9.64517 7.48201 9.30967 7.7855Z" fill="#484848"/>
<path d="M13.9734 12.564C13.9958 12.5639 14.0182 12.5637 14.0412 12.5636C14.0884 12.5634 14.1355 12.5635 14.1826 12.5637C14.2544 12.5639 14.3262 12.5632 14.3981 12.5623C14.444 12.5623 14.49 12.5623 14.5359 12.5624C14.5679 12.5619 14.5679 12.5619 14.6005 12.5615C14.7431 12.5632 14.8228 12.5911 14.9365 12.6818C15.0434 12.7969 15.0629 12.8909 15.0561 13.0413C15.0349 13.1731 14.9794 13.2615 14.8683 13.3426C14.6934 13.4193 14.5102 13.405 14.3219 13.4055C14.2621 13.4057 14.2022 13.4065 14.1424 13.4074C13.6964 13.4107 13.6964 13.4107 13.5353 13.2579C13.453 13.1253 13.4231 13.019 13.4491 12.8666C13.482 12.7497 13.5395 12.6757 13.6438 12.6117C13.7581 12.5671 13.8516 12.5636 13.9734 12.564Z" fill="#484848"/>
<path d="M5.46316 12.5614C5.49664 12.5613 5.49664 12.5613 5.53079 12.5611C5.57781 12.5611 5.62482 12.5613 5.67183 12.5617C5.74337 12.5623 5.81484 12.5617 5.88638 12.561C5.93224 12.5611 5.9781 12.5612 6.02397 12.5614C6.05572 12.5611 6.05572 12.5611 6.08812 12.5608C6.24003 12.5633 6.32894 12.5978 6.45448 12.6818C6.54106 12.783 6.56752 12.8968 6.56357 13.0272C6.53978 13.1412 6.50224 13.2192 6.41868 13.3028C6.22453 13.4171 6.02633 13.4081 5.80701 13.4075C5.74734 13.4074 5.6877 13.408 5.62802 13.4087C5.58962 13.4087 5.55121 13.4088 5.51281 13.4087C5.47828 13.4088 5.44376 13.4089 5.40819 13.409C5.22621 13.3908 5.10168 13.324 4.98172 13.1866C4.93097 13.0383 4.92886 12.893 4.99877 12.7516C5.14211 12.5972 5.25787 12.5594 5.46316 12.5614Z" fill="#484848"/>
<path d="M11.129 12.5692C11.1515 12.569 11.174 12.5688 11.1972 12.5685C11.2448 12.5682 11.2924 12.5679 11.34 12.5677C11.4126 12.5672 11.4851 12.5661 11.5577 12.5649C11.604 12.5646 11.6503 12.5644 11.6966 12.5642C11.7182 12.5637 11.7398 12.5633 11.762 12.5628C11.9304 12.5634 12.0214 12.6157 12.1495 12.7233C12.231 12.8193 12.2181 12.943 12.2168 13.0609C12.206 13.163 12.1711 13.218 12.1001 13.2928C11.9122 13.4255 11.7081 13.4049 11.4855 13.4054C11.4256 13.4057 11.3658 13.4065 11.306 13.4074C10.8706 13.4106 10.8706 13.4106 10.7135 13.2765C10.6229 13.1399 10.5848 13.0315 10.6154 12.8677C10.6509 12.7445 10.7185 12.6834 10.8182 12.6021C10.9221 12.5684 11.0207 12.5702 11.129 12.5692Z" fill="#484848"/>
<path d="M8.30151 12.5624C8.32396 12.5623 8.34641 12.5623 8.36954 12.5623C8.41678 12.5623 8.46403 12.5626 8.51126 12.5632C8.5834 12.5639 8.65547 12.5637 8.72761 12.5634C8.77365 12.5635 8.81969 12.5638 8.86573 12.564C8.88718 12.564 8.90864 12.5639 8.93074 12.5638C9.10656 12.5667 9.18926 12.6094 9.31137 12.7283C9.3813 12.8267 9.39787 12.8816 9.40001 13.0006C9.37418 13.1333 9.33767 13.2259 9.23637 13.3194C9.0443 13.4156 8.851 13.4113 8.63933 13.4095C8.58014 13.409 8.52099 13.4095 8.4618 13.41C8.42364 13.4099 8.38548 13.4098 8.34732 13.4097C8.29606 13.4095 8.29606 13.4095 8.24376 13.4094C8.06124 13.3903 7.94005 13.3227 7.81816 13.1866C7.76428 13.0816 7.77909 12.9556 7.79089 12.8412C7.89861 12.6192 8.06576 12.5591 8.30151 12.5624Z" fill="#484848"/>
</svg>
