<svg width="20" height="20" viewBox="0 0 20 20" fill="none" xmlns="http://www.w3.org/2000/svg">
<path opacity="0.982" fill-rule="evenodd" clip-rule="evenodd" d="M17 9.03561C17 9.61894 17 10.2023 17 10.7856C16.7592 10.7881 16.5222 10.82 16.2891 10.8813C15.9486 11.0196 15.6114 11.1654 15.2773 11.3188C14.9149 11.3986 14.5503 11.4077 14.1836 11.3462C13.7885 11.1668 13.3875 11.0028 12.9805 10.854C12.1591 10.6783 11.3935 10.8151 10.6836 11.2641C10.1825 11.4282 9.6812 11.4282 9.17969 11.2641C8.44083 10.7979 7.64786 10.6703 6.80078 10.8813C6.42368 11.0289 6.04998 11.1838 5.67969 11.3462C5.2832 11.414 4.89127 11.3958 4.50391 11.2915C4.20044 11.1397 3.89054 11.003 3.57422 10.8813C3.38538 10.8329 3.19397 10.801 3 10.7856C3 10.2023 3 9.61894 3 9.03561C3.07682 8.89649 3.19531 8.80989 3.35547 8.77585C4.07552 8.76674 4.79557 8.75761 5.51562 8.7485C5.96136 8.65122 6.30315 8.40969 6.54102 8.0239C6.67011 7.61705 6.81593 7.216 6.97852 6.82077C7.8175 5.39197 9.06164 4.80408 10.7109 5.0571C11.747 5.29914 12.5172 5.88704 13.0215 6.82077C13.1841 7.216 13.3299 7.61705 13.459 8.0239C13.6968 8.40969 14.0386 8.65122 14.4844 8.7485C15.2044 8.75761 15.9245 8.76674 16.6445 8.77585C16.8047 8.80989 16.9232 8.89649 17 9.03561ZM9.75391 6.13718C10.9156 6.10983 11.6402 6.65671 11.9277 7.7778C12.0106 8.72879 11.6323 9.42605 10.793 9.8696C9.74136 10.2361 8.90737 9.95808 8.29102 9.03561C7.86577 8.12695 8.00705 7.32031 8.71484 6.61569C9.02041 6.36364 9.36675 6.20414 9.75391 6.13718Z" fill="#484848"/>
<path opacity="0.973" fill-rule="evenodd" clip-rule="evenodd" d="M9.80864 6.93017C10.4853 6.89195 10.9273 7.19273 11.1348 7.83252C11.2163 8.67591 10.8381 9.14986 10 9.25439C9.16201 9.14986 8.78374 8.67591 8.86528 7.83252C9.00746 7.34848 9.32192 7.0477 9.80864 6.93017Z" fill="#484848"/>
<path opacity="0.981" fill-rule="evenodd" clip-rule="evenodd" d="M3 11.5786C3.18789 11.5937 3.37018 11.6347 3.54688 11.7017C4.30364 12.1757 5.11484 12.3033 5.98047 12.0845C6.3209 11.9462 6.65813 11.8004 6.99219 11.647C7.375 11.5559 7.75781 11.5559 8.14062 11.647C8.40239 11.7505 8.65761 11.869 8.90625 12.0025C9.58998 12.2394 10.2736 12.2394 10.957 12.0025C11.2048 11.8695 11.46 11.751 11.7227 11.647C12.0762 11.5686 12.4316 11.5594 12.7891 11.6197C13.1906 11.7847 13.5917 11.9488 13.9922 12.1118C14.5771 12.2316 15.1513 12.1951 15.7148 12.0025C15.9635 11.869 16.2187 11.7505 16.4805 11.647C16.6506 11.6004 16.8238 11.5776 17 11.5786C17 12.5539 17 13.5292 17 14.5044C16.9388 14.6339 16.8385 14.7205 16.6992 14.7642C12.2331 14.7824 7.76692 14.7824 3.30078 14.7642C3.16149 14.7205 3.06123 14.6339 3 14.5044C3 13.5292 3 12.5539 3 11.5786ZM4.64062 12.9458C5.01443 12.9413 5.38813 12.9458 5.76172 12.9595C5.99841 13.068 6.07587 13.2458 5.99414 13.4927C5.92772 13.623 5.82289 13.7005 5.67969 13.7251C5.33177 13.7503 4.98542 13.7412 4.64062 13.6978C4.40011 13.5764 4.33175 13.3895 4.43555 13.1372C4.49064 13.0576 4.559 12.9938 4.64062 12.9458ZM7.83984 12.9458C8.21366 12.9413 8.58734 12.9458 8.96094 12.9595C9.19661 13.0681 9.27408 13.2459 9.19336 13.4927C9.12623 13.6198 9.02142 13.6973 8.87891 13.7251C8.53098 13.7503 8.18465 13.7412 7.83984 13.6978C7.57527 13.5513 7.51601 13.3462 7.66211 13.0826C7.71584 13.0265 7.77509 12.9809 7.83984 12.9458ZM11.0391 12.9458C11.4129 12.9413 11.7866 12.9458 12.1602 12.9595C12.4215 13.107 12.4807 13.3121 12.3379 13.5747C12.2906 13.6326 12.2313 13.6736 12.1602 13.6978C11.8154 13.7412 11.469 13.7503 11.1211 13.7251C10.7819 13.6097 10.6954 13.3955 10.8613 13.0826C10.9151 13.0265 10.9743 12.9809 11.0391 12.9458ZM14.2383 12.9458C14.6121 12.9413 14.9858 12.9458 15.3594 12.9595C15.5728 13.0629 15.6503 13.2315 15.5918 13.4654C15.5315 13.621 15.4175 13.7076 15.25 13.7251C14.9021 13.7503 14.5557 13.7412 14.2109 13.6978C13.9749 13.5548 13.9157 13.3588 14.0332 13.1099C14.091 13.0382 14.1594 12.9835 14.2383 12.9458Z" fill="#484848"/>
</svg>
