<svg width="20" height="20" viewBox="0 0 20 20" fill="none" xmlns="http://www.w3.org/2000/svg">
<path d="M9.74168 2.68338H10.4C11.6399 2.68338 12.829 3.17593 13.7057 4.05266C14.5825 4.92939 15.075 6.11849 15.075 7.35838V15.1834C15.075 15.4044 14.9872 15.6164 14.8309 15.7726C14.6747 15.9289 14.4627 16.0167 14.2417 16.0167H5.90835C5.68733 16.0167 5.47537 15.9289 5.31909 15.7726C5.16281 15.6164 5.07501 15.4044 5.07501 15.1834V7.35005C5.07501 6.11016 5.56756 4.92106 6.44429 4.04432C7.32102 3.16759 8.51012 2.67505 9.75001 2.67505L9.74168 2.68338Z" stroke="#484848" stroke-linecap="round" stroke-linejoin="round"/>
<path d="M5.06671 7.34998H15.0667" stroke="#484848" stroke-linecap="round" stroke-linejoin="round"/>
<path d="M13.0917 3.48333L14.7 1.875" stroke="#484848" stroke-linecap="round" stroke-linejoin="round"/>
<path d="M7.03335 3.41668L5.43335 1.80835" stroke="#484848" stroke-linecap="round" stroke-linejoin="round"/>
<path d="M17.0834 8.19165V13.1917" stroke="#484848" stroke-linecap="round" stroke-linejoin="round"/>
<path d="M2.91669 8.19165V13.1917" stroke="#484848" stroke-linecap="round" stroke-linejoin="round"/>
<path d="M12.9167 16.525V18.1917" stroke="#484848" stroke-linecap="round" stroke-linejoin="round"/>
<path d="M7.08337 16.525V18.1917" stroke="#484848" stroke-linecap="round" stroke-linejoin="round"/>
</svg>
