<svg width="20" height="20" viewBox="0 0 20 20" fill="none" xmlns="http://www.w3.org/2000/svg">
<path d="M16.9862 3.09307C17.0741 3.22644 17.0834 3.28427 17.0541 3.44159C17.0066 3.50982 17.0066 3.50982 16.9489 3.57969C16.8696 3.67678 16.8271 3.74022 16.8218 3.86684C16.8473 4.02503 16.8746 4.09581 16.984 4.21317C17.148 4.31547 17.3229 4.36038 17.51 4.40168C17.8126 4.47366 18.0273 4.62046 18.2039 4.8768C18.2916 5.02682 18.3461 5.17109 18.3627 5.34424C18.3778 5.44892 18.3778 5.44892 18.4767 5.50426C18.4954 5.51515 18.5141 5.52605 18.5334 5.53727C18.7206 5.6654 18.9017 5.87044 18.969 6.08993C19.0326 6.48367 19.0121 6.85057 18.7767 7.18209C18.4863 7.53659 18.0811 7.64207 17.6546 7.77214C17.608 7.78653 17.5614 7.80094 17.5149 7.81537C17.4169 7.84571 17.3189 7.87591 17.2209 7.90602C17.0682 7.95297 16.9159 8.00077 16.7636 8.04868C15.9204 8.31335 15.9204 8.31335 15.4997 8.42371C14.8525 8.59586 14.8525 8.59586 14.4018 9.0772C14.3441 9.18392 14.2928 9.29093 14.2484 9.4038C14.2699 9.43812 14.2699 9.43812 14.2919 9.47313C14.5168 9.83794 14.5895 10.1622 14.511 10.5884C14.419 10.8653 14.2039 11.0609 14.0029 11.2626C13.9639 11.3024 13.925 11.3422 13.8861 11.3821C13.7042 11.5672 13.5206 11.7487 13.322 11.9161C13.3036 11.9319 13.2853 11.9477 13.2664 11.964C13.2485 11.9788 13.2306 11.9936 13.2122 12.0088C13.146 12.0872 13.1415 12.1419 13.1303 12.2434C13.1262 12.2772 13.1221 12.3111 13.1179 12.3459C13.1141 12.3812 13.1103 12.4165 13.1063 12.4529C13.0985 12.5226 13.0904 12.5924 13.0821 12.6621C13.0787 12.693 13.0753 12.7239 13.0719 12.7558C13.0551 12.8453 13.0363 12.9052 12.9858 12.9811C12.9202 13.0254 12.9202 13.0254 12.8381 13.0637C12.8064 13.0786 12.7746 13.0935 12.742 13.1089C12.5607 13.1896 12.379 13.2689 12.1963 13.3464C12.1192 13.3791 12.0422 13.4119 11.9652 13.4448C11.8471 13.4952 11.7289 13.5456 11.6108 13.5959C11.2979 13.7293 10.9852 13.8633 10.6726 13.9973C10.5009 14.0709 10.3291 14.1444 10.1573 14.2177C9.80243 14.3694 9.44778 14.5211 9.09596 14.6796C9.04695 14.7016 8.99794 14.7235 8.94893 14.7454C8.86439 14.7832 8.78037 14.8218 8.69642 14.8609C8.66022 14.8771 8.62402 14.8934 8.58673 14.9101C8.55699 14.9238 8.52724 14.9376 8.4966 14.9517C8.16808 15.0407 7.821 14.9516 7.49253 14.8958C7.40083 14.8802 7.30908 14.865 7.21731 14.8498C7.02262 14.8176 6.828 14.785 6.63339 14.7523C6.40744 14.7144 6.18146 14.6766 5.95543 14.6393C5.86541 14.6243 5.77544 14.6091 5.68548 14.5938C5.6299 14.5846 5.57433 14.5754 5.51875 14.5661C5.49407 14.5619 5.4694 14.5576 5.44397 14.5532C5.10878 14.4975 5.10878 14.4975 4.79692 14.6016C4.75597 14.6268 4.75597 14.6268 4.71419 14.6525C4.68566 14.671 4.65712 14.6894 4.62772 14.7084C4.59717 14.7275 4.56663 14.7465 4.53515 14.7661C4.44067 14.8252 4.34675 14.8851 4.25289 14.9452C4.19775 14.98 4.14259 15.0148 4.0874 15.0495C4.00625 15.1007 3.92515 15.1519 3.84421 15.2034C3.59575 15.3612 3.34435 15.514 3.0926 15.6665C2.84089 15.8192 2.59091 15.9746 2.34148 16.131C2.27143 16.1748 2.20138 16.2185 2.13132 16.2623C2.01245 16.3365 1.89391 16.4112 1.77567 16.4864C1.72901 16.5156 1.68234 16.5447 1.63566 16.5738C1.57747 16.6106 1.57747 16.6106 1.51811 16.6482C1.40082 16.7041 1.32992 16.7132 1.20164 16.6987C1.10081 16.6483 1.10081 16.6483 1.02628 16.5585C0.99867 16.4472 0.990326 16.3522 1.02628 16.2428C1.20757 16.0594 1.44047 15.9371 1.65977 15.8044C1.70083 15.7794 1.74189 15.7543 1.78293 15.7293C1.86578 15.6787 1.94868 15.6282 2.0316 15.5777C2.19384 15.4787 2.35538 15.3786 2.51684 15.2783C2.75039 15.1335 2.9843 14.9893 3.21845 14.8454C3.60346 14.6089 3.98751 14.371 4.37034 14.1309C4.40306 14.1104 4.43578 14.0899 4.46949 14.0688C4.5123 14.0419 4.5123 14.0419 4.55598 14.0145C4.58327 13.9975 4.61056 13.9806 4.63868 13.9631C4.67852 13.9354 4.67852 13.9354 4.71917 13.907C5.01062 13.7561 5.51935 13.9288 5.83786 13.9822C5.93058 13.9977 6.02335 14.013 6.11614 14.0282C6.37957 14.0713 6.64292 14.1149 6.90623 14.1587C7.06817 14.1856 7.23016 14.2122 7.39218 14.2386C7.4536 14.2487 7.515 14.2589 7.57637 14.2693C7.66199 14.2837 7.74766 14.2977 7.83336 14.3116C7.85845 14.316 7.88354 14.3203 7.90939 14.3248C8.12813 14.3595 8.29442 14.3324 8.49591 14.2454C8.52928 14.2311 8.56265 14.2169 8.59703 14.2022C8.63301 14.1865 8.66899 14.1708 8.70606 14.1547C8.74435 14.1382 8.78264 14.1217 8.82209 14.1048C8.92651 14.0598 9.03083 14.0147 9.13511 13.9694C9.2443 13.9221 9.35361 13.8751 9.4629 13.828C9.71423 13.7196 9.96538 13.6108 10.2165 13.5019C10.3296 13.4529 10.4427 13.4039 10.5558 13.355C10.9984 13.1633 11.4408 12.9713 11.883 12.7789C11.9433 12.7527 12.0035 12.7265 12.0639 12.7004C12.1151 12.6781 12.1663 12.6554 12.2172 12.6324C12.3168 12.5879 12.3843 12.5603 12.4948 12.5603C12.4933 12.5206 12.4918 12.4809 12.4903 12.44C12.4902 12.1464 12.5396 11.8535 12.5778 11.5628C12.5881 11.4839 12.5979 11.4049 12.6078 11.3259C12.611 11.3021 12.6143 11.2783 12.6176 11.2537C12.6369 11.0977 12.6336 10.9604 12.6 10.8067C12.5096 10.6973 12.4543 10.6412 12.3194 10.5962C12.0366 10.5813 11.751 10.6024 11.4685 10.6168C11.4253 10.619 11.3822 10.6211 11.3377 10.6234C11.2471 10.628 11.1565 10.6326 11.0658 10.6373C10.9276 10.6445 10.7893 10.6512 10.651 10.6579C10.5625 10.6624 10.4741 10.667 10.3857 10.6716C10.3446 10.6735 10.3035 10.6755 10.2612 10.6775C9.89175 10.6876 9.89175 10.6876 9.56847 10.8417C9.45514 10.9868 9.46253 11.1192 9.47859 11.2977C9.50914 11.4235 9.55262 11.5177 9.65512 11.6014C9.79927 11.6665 9.92815 11.6656 10.0847 11.6679C10.1488 11.6699 10.213 11.6719 10.2772 11.674C10.3778 11.6767 10.4785 11.6791 10.5792 11.6811C10.6767 11.6833 10.7741 11.6865 10.8716 11.6898C10.9016 11.6901 10.9316 11.6904 10.9625 11.6907C11.1153 11.6964 11.1794 11.7048 11.3039 11.8014C11.3725 11.8939 11.3725 11.8939 11.3922 11.9991C11.368 12.1283 11.3245 12.1874 11.2322 12.2797C11.1365 12.3116 11.0834 12.3188 10.9854 12.3178C10.9428 12.3174 10.9428 12.3174 10.8995 12.317C10.8689 12.3165 10.8383 12.316 10.8068 12.3155C10.7751 12.315 10.7434 12.3145 10.7107 12.314C10.6435 12.3128 10.5762 12.3115 10.509 12.3101C10.4071 12.3082 10.3052 12.3072 10.2033 12.3062C9.83492 12.3003 9.52308 12.2945 9.21254 12.0754C8.90235 11.7524 8.82615 11.4169 8.83497 10.9755C8.8552 10.7561 8.93153 10.5685 9.1013 10.4242C9.17451 10.3543 9.17451 10.3543 9.1561 10.2536C9.14534 10.2184 9.13458 10.1832 9.12349 10.1469C9.11269 10.1094 9.10188 10.0718 9.09075 10.0332C9.0668 9.95825 9.04177 9.88367 9.01608 9.80932C8.95206 9.52858 8.94942 9.24493 9.0802 8.98431C9.13329 8.90468 9.19412 8.84245 9.26159 8.7747C9.33582 8.69509 9.37086 8.65572 9.38256 8.5466C9.37332 8.45629 9.35747 8.37021 9.33831 8.28151C9.33123 8.2275 9.3246 8.17343 9.31858 8.1193C9.31352 8.08024 9.30845 8.04118 9.30324 8.00093C9.27349 8.01223 9.24374 8.02354 9.21309 8.03518C8.97448 8.10638 8.67821 8.12109 8.44617 8.01847C8.21395 7.87645 8.05767 7.67152 7.98571 7.41005C7.93346 7.1507 7.98546 6.92042 8.12258 6.69711C8.38447 6.35792 8.86019 6.27542 9.2543 6.16034C9.33785 6.13592 9.4213 6.11119 9.50473 6.08637C9.7416 6.01598 9.97863 5.94616 10.2157 5.87651C10.3616 5.83363 10.5074 5.7904 10.6531 5.74696C10.7083 5.73059 10.7635 5.71436 10.8188 5.69827C10.896 5.67579 10.9731 5.65288 11.0501 5.62987C11.0938 5.61701 11.1376 5.60414 11.1827 5.59089C11.3868 5.51416 11.529 5.40946 11.653 5.23026C11.7099 5.05957 11.7197 4.87509 11.6654 4.70171C11.5842 4.54152 11.4687 4.44681 11.3023 4.38853C11.1107 4.34871 10.9574 4.36401 10.7701 4.41097C10.7424 4.41753 10.7148 4.4241 10.6862 4.43086C10.5947 4.45268 10.5033 4.47513 10.412 4.49758C10.3473 4.51314 10.2826 4.52867 10.2179 4.54415C10.0455 4.58551 9.87334 4.62743 9.70117 4.66947C9.52417 4.71262 9.34706 4.75532 9.16997 4.79809C8.86086 4.87283 8.55186 4.94803 8.24292 5.0235C8.05559 5.06925 7.8682 5.11481 7.68074 5.16004C7.49542 5.20477 7.31018 5.24977 7.12504 5.29522C7.0642 5.31013 7.00333 5.32495 6.94244 5.33966C6.03584 5.55948 5.41283 6.02181 4.80776 6.72724C4.67711 6.87697 4.53888 7.01741 4.39756 7.15702C4.37202 7.18242 4.34649 7.20783 4.32018 7.234C4.21219 7.34142 4.10399 7.44863 3.99581 7.55585C3.9163 7.63473 3.8369 7.71371 3.7575 7.79269C3.73346 7.81645 3.70941 7.8402 3.68464 7.86468C3.5472 8.00142 3.41637 8.14184 3.28996 8.28885C3.01781 8.60448 2.73538 8.85234 2.37627 9.06377C2.18575 9.17608 2.00317 9.30004 1.81978 9.42353C1.75669 9.46599 1.69358 9.50841 1.63045 9.55081C1.59007 9.57804 1.59007 9.57804 1.54888 9.60582C1.42624 9.68582 1.34909 9.69884 1.20164 9.68438C1.10081 9.63396 1.10081 9.63396 1.02628 9.54409C0.995855 9.43117 0.986908 9.33905 1.02628 9.22845C1.18371 9.05505 1.39137 8.9369 1.58962 8.81635C1.70689 8.74489 1.8229 8.67182 1.93815 8.59715C1.97395 8.57421 2.00976 8.55128 2.04665 8.52764C2.43473 8.26996 2.7507 7.94188 3.07579 7.61076C3.13227 7.55387 3.18879 7.49702 3.24533 7.44019C3.29986 7.38519 3.35436 7.33016 3.40884 7.27511C3.43365 7.25004 3.45846 7.22497 3.48402 7.19914C3.61912 7.06147 3.74811 6.92036 3.87426 6.77448C4.07137 6.55165 4.28505 6.34325 4.49434 6.13197C4.55369 6.07186 4.61282 6.01154 4.67172 5.95099C5.2893 5.31637 5.84863 4.93766 6.72015 4.73231C6.78106 4.71756 6.78106 4.71756 6.8432 4.70251C6.97577 4.67049 7.10844 4.6389 7.24112 4.60732C7.33409 4.585 7.42703 4.56258 7.51997 4.54017C7.71401 4.49342 7.9081 4.4469 8.10223 4.40055C8.37518 4.33536 8.64804 4.2698 8.92089 4.20416C9.30744 4.11116 9.69405 4.01837 10.0807 3.92593C10.137 3.91245 10.137 3.91245 10.1944 3.89871C10.2948 3.87474 10.3952 3.85097 10.4957 3.82738C10.5256 3.82037 10.5555 3.81335 10.5862 3.80612C10.6278 3.7966 10.6278 3.7966 10.6701 3.78689C10.7059 3.77866 10.7059 3.77866 10.7423 3.77027C11.0747 3.70751 11.4681 3.71257 11.7583 3.89753C12.0406 4.102 12.2552 4.35315 12.3194 4.70418C12.3454 5.13274 12.3131 5.43812 12.0461 5.78305C11.828 6.00421 11.6048 6.11643 11.31 6.2072C11.2736 6.21887 11.2371 6.23055 11.1996 6.24257C11.0821 6.27995 10.9643 6.31638 10.8464 6.35256C10.8072 6.36464 10.7679 6.37673 10.7275 6.38919C10.4461 6.47561 10.1641 6.56006 9.88192 6.64409C9.75786 6.68108 9.6338 6.71812 9.50978 6.75527C9.43361 6.77808 9.35742 6.80081 9.28119 6.82342C8.93619 6.9106 8.93619 6.9106 8.63468 7.08249C8.58812 7.19111 8.6029 7.25804 8.63687 7.36964C8.79067 7.47217 8.92852 7.45584 9.10376 7.42594C9.26432 7.38391 9.35019 7.33587 9.44571 7.19866C9.45914 7.17561 9.47257 7.15255 9.4864 7.12879C9.67117 6.90707 9.93584 6.83767 10.2067 6.77561C10.2427 6.76693 10.2787 6.75825 10.3158 6.74931C10.4305 6.7218 10.5453 6.69499 10.6601 6.6682C10.7354 6.65026 10.8107 6.63226 10.8859 6.61422C11.0344 6.5787 11.183 6.54363 11.3317 6.50887C11.4736 6.4756 11.6151 6.44117 11.7564 6.40557C11.8059 6.39327 11.8059 6.39327 11.8564 6.38072C11.9177 6.36546 11.9788 6.34993 12.0399 6.33405C12.2959 6.27081 12.544 6.23943 12.7907 6.35036C12.8196 6.36298 12.8485 6.37559 12.8782 6.38859C12.926 6.41109 12.9736 6.43414 13.0209 6.45777C13.0946 6.44622 13.0946 6.44622 13.1774 6.42284C13.2084 6.41481 13.2393 6.40679 13.2712 6.39852C13.3036 6.38986 13.336 6.3812 13.3694 6.37228C13.4332 6.35541 13.4971 6.33865 13.561 6.322C13.5894 6.31443 13.6178 6.30686 13.6471 6.29907C13.7223 6.28241 13.7223 6.28241 13.8275 6.28241C13.8259 6.24932 13.8242 6.21622 13.8226 6.18213C13.8089 5.69599 13.9105 5.31812 14.2484 4.94968C14.4933 4.73181 14.7878 4.52882 15.1252 4.52882C15.1273 4.48542 15.1295 4.44202 15.1317 4.3973C15.1781 3.99812 15.3838 3.63306 15.6933 3.37803C16.015 3.15348 16.6137 2.84225 16.9862 3.09307ZM15.9669 3.96685C15.761 4.17515 15.7294 4.4237 15.6938 4.7045C15.6773 4.82086 15.6588 4.90397 15.5904 5.00065C15.4938 5.06661 15.4252 5.07795 15.3093 5.08997C14.9885 5.13558 14.7663 5.25378 14.564 5.51083C14.3977 5.75717 14.3863 6.02835 14.4237 6.31748C14.5076 6.59079 14.6773 6.80315 14.9145 6.95987C15.1596 7.08873 15.441 7.1011 15.7069 7.02961C15.9784 6.91931 16.1818 6.74234 16.3182 6.48257C16.3744 6.328 16.3868 6.16984 16.3999 6.00663C16.4266 5.87852 16.4598 5.83455 16.5631 5.75633C16.6919 5.73108 16.7719 5.73351 16.8848 5.80374C16.911 5.82281 16.9372 5.84189 16.9642 5.86155C17.1245 5.97656 17.2093 5.99882 17.4048 5.96676C17.573 5.88266 17.6714 5.78427 17.7555 5.61605C17.7856 5.46277 17.7685 5.36134 17.6986 5.22149C17.5418 5.03998 17.3818 4.96978 17.1506 4.91899C16.842 4.84331 16.5922 4.74287 16.4053 4.47621C16.2735 4.25347 16.2339 4.04689 16.2124 3.79231C16.1226 3.79231 16.0294 3.91038 15.9669 3.96685ZM18.1764 6.07198C18.1518 6.10308 18.1272 6.13419 18.1019 6.16624C17.9374 6.37091 17.7279 6.46972 17.475 6.52791C17.376 6.53541 17.2782 6.53466 17.1791 6.5323C17.1534 6.53198 17.1277 6.53167 17.1013 6.53134C17.0388 6.53052 16.9763 6.52926 16.9138 6.52791C16.8998 6.5597 16.8857 6.59148 16.8712 6.62422C16.6477 7.11118 16.3587 7.37839 15.8617 7.58007C15.4816 7.68505 15.0207 7.6468 14.6692 7.47485C14.4066 7.32392 14.2182 7.13948 14.0445 6.89398C13.972 6.83492 13.972 6.83492 13.889 6.85082C13.8085 6.86827 13.7306 6.88888 13.6521 6.9137C13.6994 7.05561 13.7943 7.10277 13.913 7.18332C13.9579 7.21472 14.0027 7.24618 14.0475 7.27771C14.0697 7.29327 14.0919 7.30883 14.1148 7.32486C14.395 7.52259 14.628 7.70178 14.7394 8.036C15.0356 7.95837 15.3273 7.86889 15.619 7.7757C15.6662 7.76071 15.7133 7.74572 15.7605 7.73074C15.884 7.69147 16.0075 7.6521 16.1309 7.61271C16.2783 7.56572 16.4258 7.51883 16.5732 7.47194C16.6927 7.43391 16.8123 7.39582 16.9318 7.35758C17.1445 7.28953 17.3574 7.22209 17.5711 7.15708C17.6067 7.14612 17.6424 7.13516 17.6791 7.12387C17.744 7.10398 17.8089 7.08438 17.874 7.06517C18.0775 7.00237 18.2205 6.93203 18.3452 6.7515C18.4069 6.57599 18.4318 6.38914 18.3577 6.21309C18.3187 6.14803 18.3187 6.14803 18.2466 6.07198C18.2234 6.07198 18.2003 6.07198 18.1764 6.07198ZM12.1303 6.92127C12.0875 6.93147 12.0447 6.94166 12.0005 6.95217C11.9544 6.96362 11.9083 6.9751 11.8622 6.98659C11.8144 6.99821 11.7665 7.0098 11.7186 7.02137C11.6185 7.04562 11.5185 7.07018 11.4185 7.09497C11.2908 7.12662 11.163 7.15765 11.0351 7.18848C10.9363 7.21235 10.8375 7.23648 10.7388 7.26069C10.6917 7.27222 10.6446 7.28369 10.5975 7.29509C10.5315 7.31111 10.4655 7.32751 10.3996 7.34392C10.3622 7.35313 10.3248 7.36235 10.2862 7.37185C10.1415 7.41663 10.0121 7.46794 9.90343 7.57527C9.79881 7.77606 9.9036 8.08001 9.94864 8.29274C9.96466 8.3593 9.96466 8.3593 10.0397 8.38672C10.1128 8.37136 10.1128 8.37136 10.1957 8.34241C10.2442 8.32661 10.2442 8.32661 10.2936 8.31049C10.3286 8.2988 10.3637 8.28711 10.3998 8.27507C10.4737 8.25098 10.5476 8.22689 10.6216 8.2028C10.7384 8.1644 10.8551 8.12589 10.9718 8.08734C11.0843 8.05029 11.1969 8.01361 11.3095 7.97696C11.3616 7.95953 11.3616 7.95953 11.4148 7.94175C11.7927 7.81892 11.7927 7.81892 11.9664 7.88739C11.9854 7.89972 12.0044 7.91206 12.024 7.92476C12.0452 7.93837 12.0664 7.95198 12.0882 7.966C12.1095 7.98042 12.1308 7.99484 12.1528 8.0097C12.1747 8.02358 12.1966 8.03746 12.2191 8.05176C12.4209 8.18439 12.4209 8.18439 12.4597 8.31658C12.4531 8.44371 12.4531 8.44371 12.4246 8.56208C12.2953 8.64827 12.189 8.66148 12.0388 8.63222C11.9771 8.59044 11.9771 8.59044 11.9183 8.54016C11.8324 8.4704 11.8324 8.4704 11.7256 8.45996C11.7013 8.46638 11.6769 8.4728 11.6518 8.47942C11.6239 8.48662 11.5961 8.49382 11.5674 8.50125C11.4084 8.5469 11.2502 8.59416 11.0924 8.64401C11.0389 8.66087 11.0389 8.66087 10.9842 8.67808C10.9092 8.70176 10.8342 8.72552 10.7592 8.74936C10.6447 8.78567 10.53 8.82143 10.4153 8.85718C10.3421 8.88034 10.269 8.90354 10.1959 8.92677C10.1618 8.93734 10.1276 8.9479 10.0924 8.95878C9.8955 9.02219 9.73376 9.08317 9.60792 9.25694C9.54557 9.45535 9.59379 9.6443 9.65176 9.83782C9.66438 9.88077 9.67699 9.92372 9.68998 9.96797C9.71402 10.0653 9.71402 10.0653 9.75917 10.1052C9.82446 10.1054 9.88976 10.103 9.95497 10.0996C9.99691 10.0975 10.0389 10.0953 10.0821 10.0932C10.1279 10.0907 10.1738 10.0882 10.221 10.0857C10.2685 10.0832 10.316 10.0808 10.3636 10.0784C10.4894 10.0721 10.6152 10.0655 10.741 10.0589C10.9406 10.0484 11.1403 10.038 11.34 10.0279C11.4092 10.0244 11.4783 10.0207 11.5474 10.017C12.5817 9.96405 12.5817 9.96405 12.9091 10.2346C13.1693 10.4844 13.2218 10.7358 13.2664 11.0873C13.7002 10.7627 13.7002 10.7627 13.9445 10.3105C13.9479 10.1174 13.9256 10.0091 13.7924 9.85974C13.6498 9.73149 13.4922 9.62433 13.3339 9.51655C13.3087 9.49941 13.2836 9.48226 13.2576 9.46459C13.207 9.4303 13.1563 9.39623 13.1053 9.36241C13.0818 9.34659 13.0583 9.33078 13.0341 9.31448C13.0024 9.29341 13.0024 9.29341 12.9701 9.27191C12.9156 9.22845 12.9156 9.22845 12.8455 9.12323C12.8331 9.00703 12.8334 8.93629 12.8871 8.8317C12.9703 8.75426 13.0121 8.74003 13.1261 8.73744C13.3357 8.80599 13.5075 8.92718 13.6872 9.05309C13.8239 8.92462 13.9296 8.79173 14.0314 8.63442C14.0456 8.61355 14.0599 8.59269 14.0746 8.57119C14.1364 8.47607 14.177 8.39254 14.2006 8.28137C14.1432 8.01142 13.8779 7.85316 13.6653 7.70282C13.6062 7.66036 13.5471 7.61784 13.488 7.57527C13.4423 7.54236 13.4423 7.54236 13.3956 7.50878C13.2992 7.43817 13.2047 7.36561 13.1104 7.29223C13.0793 7.26818 13.0482 7.24413 13.0161 7.21935C12.9562 7.1729 12.8965 7.1261 12.8372 7.07893C12.8097 7.05781 12.7823 7.0367 12.754 7.01495C12.7301 6.99622 12.7063 6.97748 12.6817 6.95819C12.5015 6.86005 12.3239 6.87422 12.1303 6.92127Z" fill="#484848"/>
<path d="M8.32115 9.54407C8.40745 9.67352 8.41916 9.77959 8.3913 9.92986C8.32335 10.0197 8.32335 10.0197 8.21594 10.1052C8.19419 10.1243 8.17245 10.1434 8.15004 10.163C7.60943 10.619 7.0004 10.6764 6.32206 10.6313C5.75353 10.5662 5.10072 10.4143 4.70876 9.96494C4.67037 9.83882 4.66247 9.77917 4.71752 9.65806C4.7789 9.57915 4.7789 9.57915 4.88411 9.509C5.05335 9.48992 5.13438 9.52148 5.26991 9.62079C5.81605 9.98736 6.5414 10.0936 7.18502 9.97713C7.46275 9.89342 7.67844 9.73394 7.90358 9.55627C8.05603 9.44849 8.15363 9.48316 8.32115 9.54407Z" fill="#484848"/>
</svg>
