<svg width="20" height="20" viewBox="0 0 20 20" fill="none" xmlns="http://www.w3.org/2000/svg">
<path d="M8.35252 1.00115C8.41031 1.00096 8.46809 1.00071 8.52587 1.00041C8.68146 0.999773 8.83704 1.00001 8.99263 1.00046C9.15623 1.00082 9.31982 1.00049 9.48342 1.00027C9.75799 1.00001 10.0326 1.00035 10.3071 1.00102C10.6237 1.00178 10.9402 1.00153 11.2567 1.00076C11.5295 1.00012 11.8023 1.00003 12.0751 1.0004C12.2376 1.00062 12.4001 1.00065 12.5626 1.00018C12.7154 0.999776 12.8682 1.00006 13.021 1.00087C13.0767 1.00105 13.1325 1.00101 13.1882 1.00069C13.7275 0.997957 14.2065 1.12252 14.6205 1.48966C15.0058 1.89911 15.2222 2.39601 15.2079 2.9602C15.1589 3.48199 14.9469 3.92442 14.562 4.28153C14.2849 4.50774 13.999 4.63344 13.6523 4.71366C13.408 4.77029 13.223 4.81482 13.0596 5.01782C13.0014 5.118 12.9792 5.19822 12.9694 5.31322C12.9123 5.87212 12.7661 6.38991 12.323 6.77156C12.1957 6.85119 12.1108 6.8468 11.9665 6.82294C11.9021 6.80663 11.9021 6.80663 11.8342 6.76717C11.775 6.66285 11.7659 6.57499 11.7618 6.45589C11.8021 6.36026 11.8587 6.29073 11.9239 6.21064C11.9449 6.1845 11.9659 6.15837 11.9876 6.13144C12.0078 6.10739 12.028 6.08334 12.0489 6.05856C12.2161 5.81259 12.2723 5.57767 12.3011 5.28527C12.3489 4.89559 12.4495 4.58572 12.768 4.33359C13.0019 4.18265 13.2481 4.10657 13.5199 4.05546C13.8775 3.98449 14.1528 3.81485 14.3573 3.50961C14.5215 3.20888 14.5795 2.86802 14.4904 2.53437C14.4089 2.30874 14.293 2.1249 14.1118 1.96632C14.0865 1.94245 14.0612 1.91858 14.0351 1.89398C13.7177 1.67536 13.3993 1.66558 13.0261 1.66813C12.9702 1.668 12.9143 1.6678 12.8585 1.66755C12.7077 1.66707 12.5569 1.66745 12.4061 1.66803C12.2478 1.66852 12.0895 1.66829 11.9311 1.66817C11.6654 1.66808 11.3997 1.66855 11.1339 1.66936C10.8273 1.67029 10.5206 1.67036 10.2139 1.66994C9.91815 1.66957 9.62237 1.66978 9.32659 1.67028C9.20105 1.67048 9.07551 1.67048 8.94998 1.67031C8.80202 1.67014 8.65408 1.6705 8.50613 1.67126C8.45202 1.67145 8.39791 1.67147 8.3438 1.67129C7.90207 1.67004 7.56556 1.71737 7.23718 2.03647C6.99953 2.3202 6.92545 2.60407 6.89082 2.96376C6.85703 3.30514 6.75118 3.58028 6.50061 3.82528C6.24614 4.0029 6.00788 4.09586 5.70266 4.14972C5.33479 4.22764 5.06959 4.39385 4.8521 4.70215C4.67561 4.99324 4.62125 5.31033 4.7007 5.64492C4.81928 5.99869 5.0132 6.25595 5.34753 6.42739C5.51532 6.50933 5.65907 6.53261 5.84447 6.53713C5.86923 6.53786 5.89399 6.53859 5.91951 6.53934C5.99848 6.54163 6.07746 6.5437 6.15644 6.54576C6.21003 6.54728 6.26363 6.54881 6.31722 6.55035C6.4485 6.55411 6.57977 6.55766 6.71106 6.56111C6.71238 6.51397 6.71238 6.51397 6.71372 6.46587C6.7171 6.34676 6.72058 6.22765 6.72412 6.10855C6.72562 6.05747 6.72708 6.00638 6.7285 5.9553C6.76447 4.66829 6.76447 4.66829 7.15278 4.25714C7.42743 3.99803 7.72652 3.94403 8.09251 3.94923C8.45467 3.96398 8.68566 4.08322 8.94871 4.33345C9.16799 4.58345 9.24054 4.84286 9.2416 5.16821C9.24173 5.19401 9.24186 5.21981 9.24199 5.2464C9.24238 5.33288 9.24251 5.41937 9.24265 5.50585C9.24287 5.56785 9.2431 5.62984 9.24334 5.69184C9.24408 5.89537 9.24445 6.0989 9.24479 6.30243C9.24494 6.37248 9.24508 6.44253 9.24523 6.51258C9.2459 6.84152 9.2464 7.17045 9.24669 7.49938C9.24703 7.87935 9.24796 8.2593 9.24937 8.63926C9.25043 8.93285 9.25095 9.22644 9.25106 9.52003C9.25115 9.69545 9.25146 9.87086 9.25234 10.0463C9.25316 10.2112 9.25331 10.3761 9.25295 10.541C9.25293 10.6016 9.25315 10.6621 9.25363 10.7227C9.25425 10.8053 9.25401 10.8878 9.25354 10.9704C9.25363 11.0167 9.25371 11.0629 9.2538 11.1106C9.2336 11.2449 9.20233 11.2849 9.09614 11.3663C8.99606 11.4164 8.92657 11.4123 8.81554 11.4014C8.72084 11.3383 8.65624 11.2933 8.60509 11.191C8.60157 11.1106 8.60041 11.0301 8.60025 10.9496C8.60015 10.9245 8.60005 10.8994 8.59995 10.8735C8.59966 10.7889 8.59961 10.7043 8.59956 10.6197C8.5994 10.5592 8.59922 10.4987 8.59902 10.4382C8.59862 10.3077 8.59833 10.1772 8.5981 10.0467C8.59773 9.84041 8.59702 9.63408 8.59624 9.42775C8.59407 8.84093 8.59218 8.25412 8.59101 7.6673C8.59037 7.34338 8.58936 7.01947 8.58793 6.69555C8.58719 6.52409 8.58665 6.35263 8.58657 6.18117C8.58649 6.01983 8.58593 5.85851 8.58501 5.69717C8.58476 5.63799 8.58468 5.5788 8.5848 5.51962C8.58494 5.43874 8.58443 5.35789 8.58377 5.27701C8.58359 5.20916 8.58359 5.20916 8.58341 5.13993C8.56373 4.96053 8.50858 4.84689 8.37491 4.72626C8.19302 4.60034 8.01491 4.61134 7.79837 4.632C7.65679 4.70155 7.56513 4.77812 7.4827 4.9126C7.44257 5.033 7.43694 5.14532 7.43086 5.27083C7.4295 5.29646 7.42815 5.32209 7.42676 5.34849C7.42232 5.43366 7.41811 5.51884 7.41391 5.60402C7.41085 5.66432 7.40778 5.72461 7.40471 5.7849C7.375 6.37541 7.35096 6.96614 7.32781 7.55694C7.32042 7.74511 7.31281 7.93327 7.30516 8.12143C7.30385 8.15363 7.30254 8.18582 7.3012 8.21899C7.29853 8.28459 7.29586 8.35018 7.2932 8.41577C7.27549 8.85141 7.25792 9.28705 7.24094 9.72271C7.22934 10.0203 7.21739 10.3179 7.20506 10.6154C7.19858 10.7718 7.19228 10.9282 7.18641 11.0847C7.18092 11.2307 7.17498 11.3768 7.1687 11.5228C7.16648 11.5762 7.16443 11.6296 7.16255 11.683C7.15997 11.756 7.15678 11.829 7.15346 11.9019C7.15183 11.9427 7.15021 11.9834 7.14854 12.0254C7.12689 12.1724 7.08288 12.3006 6.96754 12.3989C6.84228 12.4293 6.72935 12.4195 6.60583 12.3835C6.49175 12.2841 6.48477 12.1782 6.46553 12.0328C6.46483 11.9631 6.4662 11.8933 6.46931 11.8237C6.47103 11.7827 6.47275 11.7417 6.47453 11.6994C6.47662 11.6549 6.47871 11.6104 6.48087 11.5645C6.48296 11.5168 6.48503 11.4691 6.48708 11.4214C6.49268 11.2923 6.49855 11.1631 6.50447 11.034C6.51062 10.8989 6.51652 10.7638 6.52245 10.6287C6.5337 10.3731 6.54518 10.1175 6.55674 9.86182C6.56989 9.57071 6.58279 9.27959 6.59567 8.98847C6.62216 8.38979 6.64897 7.79112 6.67598 7.19245C6.64331 7.19319 6.61063 7.19392 6.57697 7.19468C6.45348 7.1971 6.33001 7.19884 6.20651 7.20016C6.15348 7.20086 6.10046 7.20181 6.04744 7.20304C5.45467 7.21642 4.96993 7.08959 4.52546 6.67291C4.14006 6.26307 3.99076 5.75297 4.00044 5.20073C4.02346 4.6942 4.28595 4.27369 4.64165 3.93051C4.94705 3.66881 5.29838 3.53688 5.68951 3.45919C5.88306 3.41753 6.03256 3.35961 6.14986 3.19394C6.21481 3.03643 6.23475 2.88195 6.2507 2.71385C6.30812 2.20647 6.51752 1.73386 6.92151 1.40513C7.36452 1.06966 7.81242 0.998127 8.35252 1.00115Z" fill="#484848"/>
<path d="M12.5137 8.43984C12.8364 8.56765 13.081 8.77311 13.235 9.08653C13.3797 9.45042 13.3654 9.85797 13.3753 10.244C13.3968 10.2332 13.4183 10.2224 13.4405 10.2113C13.7622 10.0553 14.1214 10.0497 14.4604 10.1585C14.7663 10.2885 14.966 10.4997 15.0939 10.8052C15.1492 10.9776 15.1785 11.1424 15.1913 11.3224C15.1934 11.3484 15.1955 11.3744 15.1976 11.4011C15.2043 11.4865 15.2106 11.572 15.2169 11.6574C15.2216 11.7176 15.2262 11.7778 15.2308 11.8379C15.2405 11.9641 15.2499 12.0903 15.2593 12.2165C15.2711 12.3763 15.2834 12.536 15.2958 12.6958C15.3055 12.8202 15.3149 12.9447 15.3242 13.0692C15.3286 13.128 15.3331 13.1867 15.3377 13.2455C15.3618 13.5569 15.3785 13.867 15.3796 14.1794C15.3797 14.2064 15.3799 14.2333 15.38 14.2611C15.3762 15.1702 14.8928 15.8569 14.2872 16.4873C13.6407 17.163 13.207 17.7633 13.12 18.7233C13.091 18.8537 13.0621 18.9001 12.9544 18.9776C12.8467 19.0034 12.7473 18.997 12.6387 18.9776C12.551 18.9228 12.551 18.9228 12.4984 18.8373C12.3772 18.2268 12.63 17.5239 12.9544 17.0134C13.1114 16.7935 13.2931 16.5946 13.475 16.3952C13.5431 16.3202 13.6095 16.2441 13.6756 16.1672C13.7562 16.0741 13.8403 15.9887 13.9299 15.9042C14.3604 15.4779 14.6841 14.9168 14.7136 14.3022C14.7128 13.9501 14.6925 13.6015 14.6658 13.2506C14.6613 13.1906 14.6568 13.1306 14.6524 13.0706C14.643 12.9459 14.6335 12.8213 14.624 12.6967C14.6117 12.5375 14.6001 12.3782 14.5886 12.219C14.5796 12.0955 14.5702 11.9721 14.5607 11.8487C14.5562 11.79 14.5519 11.7312 14.5477 11.6725C14.5419 11.5905 14.5355 11.5085 14.5289 11.4266C14.5273 11.4027 14.5257 11.3789 14.5241 11.3543C14.5079 11.1629 14.4664 10.9797 14.3223 10.8447C14.1628 10.755 14.0094 10.7531 13.8312 10.7701C13.6839 10.8247 13.5961 10.8799 13.5156 11.0156C13.461 11.1793 13.4837 11.3439 13.4895 11.515C13.4798 11.6564 13.4488 11.7376 13.3753 11.8574C13.2825 11.9336 13.2339 11.9275 13.1122 11.9232C12.9773 11.8895 12.9297 11.8638 12.8491 11.7522C12.8179 11.6278 12.8067 11.5056 12.7989 11.3779C12.7964 11.3387 12.7939 11.2996 12.7914 11.2593C12.7888 11.2174 12.7863 11.1755 12.7836 11.1322C12.7779 11.043 12.7721 10.9537 12.7662 10.8644C12.7572 10.7241 12.7483 10.5837 12.7397 10.4433C12.7314 10.3075 12.7225 10.1719 12.7135 10.0362C12.7111 9.99442 12.7087 9.95269 12.7062 9.90969C12.688 9.64314 12.6578 9.42374 12.5006 9.20052C12.391 9.12005 12.3093 9.09093 12.1805 9.05146C12.0506 9.0115 11.9798 8.9878 11.8758 8.898C11.8216 8.78423 11.8112 8.72007 11.832 8.59548C12.0105 8.32769 12.2294 8.3464 12.5137 8.43984Z" fill="#484848"/>
<path d="M5.44834 10.3141C5.57702 10.3856 5.61581 10.4298 5.66098 10.5706C5.65776 10.7605 5.57112 10.8709 5.46588 11.02C5.21384 11.3829 5.17105 11.7397 5.13267 12.1731C5.12945 12.2091 5.12623 12.2451 5.12292 12.2822C5.08404 12.732 5.05571 13.1815 5.05156 13.6331C5.05063 13.6856 5.05063 13.6856 5.04969 13.7393C5.05017 14.3128 5.31679 14.7278 5.70585 15.1291C5.77 15.1957 5.8331 15.2633 5.89609 15.331C6.09791 15.5481 6.30041 15.7635 6.51182 15.9713C6.59537 16.0564 6.67186 16.1471 6.74939 16.2376C6.82523 16.3219 6.90573 16.3997 6.98724 16.4785C7.5589 17.0484 7.92415 17.7816 7.9518 18.5961C7.95 18.7392 7.94515 18.7916 7.86849 18.9162C7.75404 18.983 7.68466 18.9982 7.55501 19.0009C7.43613 18.9626 7.38351 18.8997 7.3073 18.8022C7.28674 18.7031 7.27533 18.6191 7.27003 18.5194C7.20199 17.7363 6.76865 17.1996 6.22718 16.6687C6.11052 16.5543 6.00215 16.436 5.89636 16.3116C5.79231 16.1947 5.67938 16.0867 5.56809 15.9768C5.47327 15.8807 5.38538 15.7805 5.2979 15.6778C5.23422 15.6063 5.16674 15.5407 5.09759 15.4745C4.59442 14.9742 4.36355 14.3109 4.36102 13.6111C4.36919 13.333 4.38977 13.0555 4.41061 12.7781C4.42018 12.6492 4.42883 12.5203 4.43741 12.3914C4.48813 11.672 4.5642 10.9274 5.09759 10.3843C5.21883 10.3114 5.30654 10.2967 5.44834 10.3141Z" fill="#484848"/>
<path d="M10.6733 3.20366C10.9167 3.40972 11.0666 3.69673 11.1122 4.01143C11.123 4.14593 11.13 4.28032 11.1355 4.41512C11.138 4.46615 11.1406 4.51719 11.1432 4.56822C11.15 4.70277 11.156 4.83733 11.1619 4.97192C11.1678 5.10277 11.1743 5.23359 11.1808 5.36441C11.1955 5.66338 11.209 5.9624 11.2222 6.26143C11.2275 6.38016 11.2329 6.49888 11.2382 6.61761C11.2508 6.89782 11.2633 7.17804 11.2757 7.45826C11.2885 7.745 11.3014 8.03173 11.3144 8.31846C11.3256 8.56757 11.3368 8.81668 11.3479 9.0658C11.3544 9.21334 11.361 9.36089 11.3677 9.50842C11.3836 9.85878 11.3983 10.2091 11.4111 10.5596C11.4125 10.5961 11.414 10.6326 11.4155 10.6702C11.4188 10.7605 11.4212 10.8507 11.423 10.9409C11.4242 10.9864 11.4254 11.0319 11.4266 11.0788C11.4078 11.2144 11.3676 11.2713 11.2708 11.3663C11.1374 11.4127 11.0786 11.4084 10.9463 11.3576C10.8499 11.2962 10.8499 11.2962 10.7797 11.191C10.768 11.115 10.768 11.115 10.7638 11.025C10.762 10.9908 10.7603 10.9565 10.7585 10.9212C10.7569 10.8836 10.7553 10.846 10.7536 10.8072C10.7517 10.7674 10.7497 10.7276 10.7477 10.6866C10.7413 10.5533 10.7354 10.4199 10.7294 10.2866C10.725 10.192 10.7205 10.0974 10.716 10.0028C10.7029 9.72327 10.6903 9.44373 10.6779 9.16417C10.6745 9.08726 10.6711 9.01034 10.6677 8.93343C10.6426 8.36917 10.6182 7.80489 10.5939 7.24061C10.5928 7.21499 10.5917 7.18938 10.5905 7.16299C10.5781 6.87307 10.5657 6.58316 10.5535 6.29324C10.5435 6.05635 10.5333 5.81947 10.523 5.5826C10.5166 5.43543 10.5104 5.28825 10.5043 5.14105C10.4996 5.02884 10.4946 4.91664 10.4897 4.80443C10.4881 4.7651 10.4866 4.72577 10.485 4.68525C10.4819 4.16312 10.4819 4.16312 10.2536 3.72005C10.0171 3.58556 9.80305 3.59541 9.54334 3.63894C9.39767 3.65108 9.34791 3.63588 9.23644 3.54468C9.17551 3.42283 9.18075 3.2918 9.20136 3.15886C9.54993 2.74692 10.2955 2.9325 10.6733 3.20366Z" fill="#484848"/>
</svg>
