<svg width="20" height="20" viewBox="0 0 20 20" fill="none" xmlns="http://www.w3.org/2000/svg">
<path d="M11.6109 4.73159C11.6336 4.75365 11.6564 4.7757 11.6798 4.79842C11.7033 4.82028 11.7268 4.84214 11.751 4.86466C11.9025 5.04067 11.8992 5.19705 11.8943 5.42288C11.8779 5.61911 11.8049 5.73307 11.6652 5.86468C11.4887 6.0122 11.2935 6.06272 11.0752 6.12439C11.0053 6.14519 10.9354 6.16599 10.8656 6.18687C10.7842 6.2111 10.7028 6.23504 10.6213 6.25895C10.2603 6.36513 9.90032 6.4743 9.54041 6.58391C9.40983 6.62351 9.27908 6.66255 9.14832 6.70156C9.06628 6.72644 8.98424 6.75135 8.90221 6.77628C8.8647 6.78733 8.82719 6.79837 8.78855 6.80974C8.49434 6.90014 8.20528 7.01439 8.03803 7.28694C7.92554 7.5227 7.89437 7.74244 7.96332 7.99662C8.00685 8.08211 8.05435 8.15823 8.11054 8.2359C8.15008 8.29543 8.15008 8.29543 8.15008 8.37013C8.19948 8.39582 8.24943 8.42045 8.29948 8.44483C8.33569 8.46486 8.3719 8.48489 8.4092 8.50553C8.68383 8.62297 9.02218 8.56428 9.30797 8.51954C9.33626 8.63525 9.3631 8.75125 9.38967 8.86737C9.39774 8.90028 9.4058 8.93319 9.41411 8.96709C9.42122 8.99875 9.42832 9.03041 9.43563 9.06303C9.44248 9.09217 9.44933 9.12132 9.45638 9.15134C9.45737 9.22921 9.45737 9.22921 9.40737 9.29562C9.34532 9.34126 9.34532 9.34126 9.27062 9.34126C9.25988 9.36279 9.24914 9.38431 9.23808 9.40648C9.2113 9.45996 9.18437 9.51337 9.15725 9.56668C9.14459 9.59167 9.13192 9.61666 9.11888 9.64241C9.10612 9.66749 9.09336 9.69258 9.08021 9.71842C8.90452 10.0888 9.04363 10.473 9.15506 10.8411C9.19592 10.9847 9.19592 10.9847 9.19592 11.0968C9.16818 11.123 9.14045 11.1492 9.11187 11.1761C8.91713 11.3797 8.85069 11.5794 8.84341 11.8601C8.85493 12.1895 8.9312 12.5272 9.15856 12.7776C9.39074 12.9506 9.59104 13.0394 9.87933 13.0509C9.93727 13.0532 9.93727 13.0532 9.99639 13.0556C10.0578 13.0578 10.0578 13.0578 10.1204 13.06C10.1621 13.0616 10.2039 13.0632 10.2469 13.0648C10.8105 13.1106 10.8105 13.1106 11.3623 13.039C11.375 12.9697 11.375 12.9697 11.388 12.899C11.3951 12.86 11.3951 12.86 11.4024 12.8202C11.3986 12.7089 11.3675 12.6672 11.2876 12.5908C11.1956 12.5654 11.1956 12.5654 11.0845 12.5651C11.0158 12.5618 11.0158 12.5618 10.9457 12.5584C10.799 12.5539 10.6522 12.5513 10.5054 12.5485C10.4591 12.5474 10.4128 12.5463 10.365 12.5451C10.2714 12.5429 10.1777 12.5414 10.084 12.5406C9.66582 12.531 9.66582 12.531 9.49473 12.3667C9.3627 12.1766 9.34875 11.9173 9.38267 11.6944C9.44308 11.5736 9.49082 11.5002 9.59978 11.4213C9.86415 11.3382 10.1536 11.3439 10.4279 11.3301C10.4747 11.3276 10.5214 11.3252 10.5696 11.3227C10.6683 11.3176 10.767 11.3125 10.8657 11.3075C10.9662 11.3025 11.0666 11.2973 11.1671 11.292C11.3129 11.2843 11.4587 11.2768 11.6045 11.2694C11.6489 11.267 11.6934 11.2647 11.7392 11.2623C12.5899 11.2198 12.5899 11.2198 12.812 11.4189C12.9736 11.7421 12.8771 12.1828 12.8413 12.5271C12.8342 12.5993 12.828 12.6715 12.8226 12.7439C12.7782 13.3376 12.7782 13.3376 12.6231 13.5006C12.5039 13.5619 12.3873 13.5986 12.2587 13.6367C12.1813 13.6683 12.1051 13.7024 12.0288 13.7367C11.9422 13.7755 11.855 13.8129 11.7676 13.8499C11.7367 13.8631 11.7057 13.8762 11.6738 13.8897C11.6419 13.9033 11.61 13.9168 11.5771 13.9308C11.5098 13.9595 11.4425 13.9881 11.3753 14.0168C11.2665 14.0632 11.1578 14.1096 11.0491 14.1559C10.745 14.2854 10.4413 14.4155 10.1376 14.5458C10.0903 14.566 10.0431 14.5863 9.99589 14.6066C9.83227 14.6768 9.66866 14.747 9.50504 14.8172C9.35153 14.8831 9.198 14.9489 9.04447 15.0147C9.006 15.0312 8.96754 15.0477 8.92791 15.0647C8.85445 15.0962 8.78087 15.1275 8.70718 15.1584C8.63251 15.1906 8.55858 15.2246 8.48538 15.2601C8.21221 15.3877 8.03324 15.4087 7.73922 15.3548C7.68943 15.347 7.63962 15.3394 7.58979 15.3319C7.44273 15.3094 7.29598 15.2854 7.14924 15.2609C7.05142 15.2446 6.95357 15.2285 6.85572 15.2125C6.61302 15.1726 6.37037 15.1324 6.12773 15.0922C5.92182 15.058 5.71589 15.024 5.50993 14.9902C5.41378 14.9744 5.31767 14.9584 5.22155 14.9423C5.16248 14.9326 5.10341 14.9229 5.04434 14.9132C5.01785 14.9087 4.99136 14.9043 4.96406 14.8996C4.72753 14.8613 4.55189 14.8359 4.34478 14.9666C4.31078 14.9877 4.27678 15.0087 4.24175 15.0305C4.20569 15.0535 4.16964 15.0766 4.13249 15.1004C4.0946 15.124 4.05671 15.1477 4.01768 15.1721C3.93911 15.2212 3.86066 15.2705 3.78234 15.32C3.64456 15.4069 3.50599 15.4925 3.36731 15.5779C3.27044 15.6377 3.17371 15.6976 3.07702 15.7577C2.84963 15.8988 2.62205 16.0397 2.39445 16.1805C2.22445 16.2857 2.05452 16.391 1.8847 16.4965C1.84948 16.5184 1.81426 16.5402 1.77797 16.5627C1.71088 16.6044 1.64381 16.6461 1.57677 16.6878C1.54627 16.7067 1.51577 16.7256 1.48434 16.7451C1.45784 16.7616 1.43134 16.7781 1.40404 16.795C1.28829 16.8649 1.17078 16.9313 1.05334 16.9983C1.04374 16.1122 1.0365 15.2262 1.03205 14.3401C1.02994 13.9287 1.02705 13.5173 1.02235 13.1059C1.01825 12.7473 1.0156 12.3887 1.01469 12.03C1.01415 11.8401 1.01289 11.6503 1.0099 11.4605C1.00711 11.2816 1.00625 11.1029 1.00687 10.9241C1.00676 10.8585 1.00594 10.793 1.00437 10.7275C0.993051 10.2334 0.99305 10.2334 1.14154 10.06C1.24603 9.98263 1.34826 9.92255 1.46421 9.86418C1.52526 9.82621 1.58607 9.78782 1.64644 9.74877C1.70474 9.71329 1.76305 9.67784 1.82138 9.64241C2.08892 9.47582 2.32467 9.3042 2.54739 9.0798C2.596 9.03206 2.64463 8.98435 2.6933 8.93667C2.79651 8.83489 2.89958 8.73297 3.00188 8.63028C3.03382 8.59828 3.03382 8.59828 3.0664 8.56563C3.13521 8.4926 3.20078 8.41801 3.2663 8.34205C3.4045 8.18335 3.55096 8.03474 3.70061 7.8869C3.72781 7.85984 3.75501 7.83279 3.78303 7.80491C3.89804 7.69051 4.01326 7.57633 4.12847 7.46214C4.21315 7.37814 4.29771 7.29403 4.38227 7.20991C4.40788 7.18461 4.43349 7.15931 4.45988 7.13324C4.62721 6.96675 4.78395 6.79351 4.93787 6.61462C5.35492 6.15689 5.86886 5.86047 6.46869 5.71031C6.52946 5.69452 6.52946 5.69452 6.59147 5.67841C6.73728 5.64099 6.88334 5.60467 7.02954 5.56879C7.07301 5.55812 7.07301 5.55812 7.11736 5.54723C7.60171 5.42863 8.0868 5.31315 8.57201 5.19811C8.75579 5.1545 8.93952 5.11067 9.12325 5.06688C9.43313 4.99302 9.74315 4.91983 10.0533 4.84696C10.232 4.8048 10.4103 4.76118 10.5883 4.71602C10.6263 4.70664 10.6643 4.69726 10.7034 4.68759C10.7679 4.67161 10.8323 4.65507 10.8964 4.63775C11.1436 4.5777 11.3899 4.59961 11.6109 4.73159ZM7.58748 10.4221C7.10071 10.7722 6.55405 10.7833 5.9751 10.7043C5.55889 10.6292 5.16281 10.5041 4.82582 10.2428C4.73154 10.1892 4.67123 10.1879 4.56436 10.2003C4.478 10.2675 4.42754 10.3237 4.37994 10.4221C4.37623 10.5445 4.41315 10.5891 4.48966 10.6859C5.06795 11.2364 5.95225 11.338 6.71439 11.3288C7.30736 11.3124 7.7965 11.0503 8.22478 10.6486C8.27784 10.5424 8.27388 10.4672 8.26213 10.3497C8.19506 10.2611 8.14005 10.2136 8.04036 10.1653C7.86669 10.1601 7.71757 10.3199 7.58748 10.4221Z" fill="#484848"/>
<path d="M16.6662 4C16.6663 4.03669 16.6663 4.03669 16.6665 4.07412C16.6802 4.3968 16.7695 4.69331 16.9971 4.93188C17.2343 5.12023 17.5008 5.22111 17.7937 5.28628C17.9907 5.33244 18.0975 5.38308 18.235 5.5314C18.3364 5.6987 18.3338 5.86393 18.3097 6.05432C18.2226 6.23505 18.1169 6.34081 17.9361 6.42783C17.7443 6.45845 17.606 6.45151 17.4342 6.3578C17.3869 6.31851 17.3869 6.31851 17.3385 6.27843C17.2304 6.19023 17.2304 6.19023 17.0934 6.21073C16.9554 6.22794 16.9554 6.22794 16.8903 6.35313C16.8789 6.43457 16.8698 6.51636 16.8623 6.59825C16.8181 6.92773 16.7076 7.16896 16.4444 7.37795C16.3946 7.41097 16.344 7.44299 16.2927 7.47367C16.2542 7.49678 16.2157 7.51989 16.176 7.5437C15.9312 7.63821 15.5987 7.62528 15.3496 7.5507C15.1017 7.43692 14.8665 7.2241 14.7379 6.98343C14.6332 6.69926 14.6323 6.33811 14.7449 6.05665C14.8931 5.78114 15.0922 5.55258 15.3963 5.4567C15.5115 5.4349 15.6259 5.41746 15.7423 5.40403C15.8617 5.37827 15.9131 5.3624 15.9939 5.26994C16.024 5.16403 16.0352 5.057 16.0476 4.94779C16.1044 4.54807 16.2121 4.30957 16.5254 4.04538C16.5915 4 16.5915 4 16.6662 4Z" fill="#484848"/>
<path d="M12.1213 9.11888C12.1689 9.15223 12.2162 9.18591 12.2634 9.21984C12.3168 9.25741 12.3702 9.29495 12.4236 9.33248C12.4515 9.35225 12.4795 9.37201 12.5083 9.39238C12.6544 9.49512 12.8021 9.59546 12.9497 9.69607C13.0095 9.73697 13.0692 9.77787 13.1289 9.81878C13.2435 9.8972 13.3583 9.97528 13.4732 10.0531C13.4999 10.0713 13.5266 10.0894 13.5541 10.1081C13.6036 10.1417 13.6532 10.1753 13.7028 10.2086C14.1516 10.5145 14.1516 10.5145 14.2384 10.7232C14.2509 10.8198 14.2509 10.8198 14.2524 10.924C14.2534 10.9582 14.2545 10.9924 14.2556 11.0276C14.2102 11.3084 13.9559 11.5001 13.7621 11.6897C13.7177 11.7336 13.7177 11.7336 13.6724 11.7784C13.5998 11.8502 13.5269 11.9218 13.454 11.9932C13.4229 11.8761 13.411 11.7688 13.405 11.6477C13.3883 11.4463 13.3314 11.3061 13.2299 11.1341C13.219 11.1082 13.2082 11.0824 13.197 11.0557C13.1446 10.9667 13.1002 10.949 13.0058 10.91C12.9811 10.8972 12.9565 10.8845 12.9311 10.8713C12.9064 10.8587 12.8818 10.846 12.8564 10.833C12.8317 10.8202 12.8071 10.8074 12.7817 10.7943C12.424 10.6329 11.9475 10.7262 11.5667 10.7477C11.4977 10.7515 11.4977 10.7515 11.4272 10.7553C11.2818 10.7632 11.1365 10.7712 10.9911 10.7793C10.8448 10.7873 10.6985 10.7953 10.5522 10.8032C10.4617 10.8082 10.3711 10.8131 10.2805 10.8182C10.2395 10.8204 10.1984 10.8227 10.1561 10.825C10.1203 10.827 10.0844 10.829 10.0475 10.831C9.93782 10.8355 9.82858 10.836 9.71885 10.8353C9.44782 10.1331 9.44782 10.1331 9.58579 9.81513C9.80058 9.58986 10.146 9.5181 10.4361 9.42688C10.4944 9.40841 10.4944 9.40841 10.5539 9.38957C10.6355 9.36382 10.7171 9.33818 10.7988 9.31265C10.9237 9.27344 11.0485 9.23356 11.1732 9.19365C11.2528 9.16864 11.3323 9.14366 11.4119 9.11873C11.4491 9.10675 11.4863 9.09477 11.5246 9.08243C11.5594 9.07169 11.5942 9.06096 11.6301 9.04989C11.6605 9.04031 11.6909 9.03072 11.7223 9.02085C11.8856 8.99166 11.9819 9.03292 12.1213 9.11888Z" fill="#484848"/>
<path d="M12.9106 7.40795C12.9337 7.42729 12.9568 7.44662 12.9805 7.46654C13.0071 7.48811 13.0337 7.50967 13.0611 7.53189C13.0883 7.55505 13.1155 7.57822 13.1435 7.60209C13.2023 7.65008 13.2612 7.69798 13.3202 7.7458C13.3491 7.76945 13.3779 7.79309 13.4077 7.81746C13.5254 7.91189 13.6477 7.99903 13.7715 8.08532C14.4053 8.53161 14.4053 8.53161 14.4998 8.70628C14.5479 8.9974 14.42 9.16421 14.257 9.39728C14.2339 9.43156 14.2107 9.46584 14.1869 9.50116C14.1299 9.58525 14.0724 9.66886 14.0143 9.75212C13.8998 9.70917 13.8006 9.66532 13.7019 9.59308C13.6784 9.57616 13.655 9.55924 13.6308 9.54181C13.6056 9.52339 13.5804 9.50497 13.5544 9.48599C13.2431 9.26224 12.9254 9.04921 12.6057 8.8378C12.5693 8.8137 12.5329 8.78961 12.4954 8.76479C12.4607 8.74207 12.4261 8.71935 12.3903 8.69594C12.3087 8.64016 12.2338 8.58085 12.1575 8.51821C12.0028 8.42583 11.9043 8.4464 11.7358 8.48217C11.6064 8.51734 11.4796 8.55895 11.3524 8.60152C11.2792 8.62541 11.2059 8.64929 11.1327 8.67316C11.0182 8.71083 10.9038 8.74863 10.7894 8.78655C10.6784 8.82325 10.5672 8.85948 10.456 8.89566C10.4046 8.91294 10.4046 8.91294 10.3522 8.93055C10.3203 8.94091 10.2884 8.95126 10.2555 8.96192C10.2275 8.97118 10.1995 8.98044 10.1707 8.98998C10.0825 9.00701 10.0275 8.99576 9.94298 8.96774C9.92398 8.87987 9.90536 8.79194 9.88695 8.70395C9.8816 8.67942 9.87626 8.65488 9.87075 8.62961C9.78833 8.23121 9.78833 8.23121 9.88228 8.0433C9.97893 7.96045 10.0241 7.9396 10.1426 7.90589C10.1927 7.89161 10.1927 7.89161 10.2438 7.87705C10.5857 7.78432 10.9294 7.69883 11.2732 7.61328C11.3717 7.58874 11.4701 7.56387 11.5684 7.53873C11.7113 7.5022 11.8543 7.46661 11.9974 7.43109C12.0629 7.41417 12.0629 7.41417 12.1298 7.39691C12.4003 7.33083 12.6525 7.27744 12.9106 7.40795Z" fill="#484848"/>
<path d="M18.7205 6.42786C18.8271 6.46464 18.8688 6.501 18.9352 6.5936C19.013 6.8152 19.0314 7.06382 18.9306 7.28227C18.7161 7.57989 18.2442 7.66331 17.9135 7.76637C17.8608 7.78304 17.8081 7.79973 17.7554 7.81645C17.6173 7.86022 17.479 7.90362 17.3407 7.94694C17.2028 7.99019 17.0651 8.03384 16.9274 8.07744C16.6402 8.16824 16.3529 8.2583 16.0654 8.34784C15.9958 8.3695 15.9263 8.39119 15.8568 8.41288C15.7354 8.45067 15.6139 8.48822 15.4924 8.52565C15.4572 8.5366 15.422 8.54755 15.3858 8.55882C15.338 8.57343 15.338 8.57343 15.2892 8.58834C15.2618 8.59677 15.2345 8.60519 15.2063 8.61388C15.1347 8.63158 15.1347 8.63158 15.0227 8.63158C15.0127 8.60765 15.0027 8.58372 14.9923 8.55907C14.9777 8.52676 14.9631 8.49445 14.948 8.46116C14.9341 8.42953 14.9203 8.3979 14.906 8.36531C14.7078 8.06178 14.3583 7.86171 14.0684 7.65337C14.0226 7.62011 14.0226 7.62011 13.9758 7.58618C13.9482 7.56633 13.9206 7.54648 13.8921 7.52603C13.8275 7.47369 13.8275 7.47369 13.7901 7.39899C13.8553 7.37908 13.9207 7.35974 13.9862 7.34063C14.0226 7.32979 14.059 7.31896 14.0965 7.3078C14.2028 7.28656 14.2526 7.27926 14.3504 7.32429C14.4103 7.39228 14.4103 7.39228 14.4694 7.47836C14.7203 7.81416 15.0568 8.02925 15.4709 8.10866C15.9654 8.14229 16.3711 8.07688 16.7782 7.7725C17.0535 7.52996 17.2187 7.25736 17.3385 6.91342C17.3649 6.91934 17.3913 6.92527 17.4186 6.93137C17.7499 6.99166 18.0514 6.96808 18.347 6.80137C18.4951 6.69685 18.6207 6.5804 18.7205 6.42786Z" fill="#484848"/>
</svg>
