<svg width="20" height="20" viewBox="0 0 20 20" fill="none" xmlns="http://www.w3.org/2000/svg">
<path d="M10.5863 3.14257C10.8592 3.34287 11.0135 3.56507 11.0923 3.89396C11.138 4.22441 11.1423 4.56127 11.1566 4.89428C11.1593 4.95563 11.162 5.01698 11.1647 5.07833C11.1705 5.20979 11.1763 5.34126 11.182 5.47272C11.191 5.68111 11.2002 5.88948 11.2094 6.09786C11.2256 6.46537 11.2418 6.83288 11.2578 7.20039C11.282 7.75287 11.3063 8.30535 11.3306 8.85782C11.3397 9.06444 11.3488 9.27105 11.3578 9.47768C11.3634 9.60689 11.3691 9.73611 11.3748 9.86532C11.3774 9.92465 11.38 9.98397 11.3826 10.0433C11.3894 10.2015 11.3967 10.3596 11.4045 10.5177C11.4081 10.596 11.411 10.6744 11.4139 10.7528C11.4162 10.8036 11.4185 10.8544 11.4208 10.9052C11.4226 10.9499 11.4243 10.9946 11.4261 11.0407C11.4438 11.1598 11.4642 11.2107 11.5483 11.2951C11.631 11.3332 11.631 11.3332 11.7237 11.3301C11.8539 11.2687 11.8539 11.2687 11.9341 11.1548C11.9377 11.0645 11.9391 10.9755 11.9385 10.8852C11.9384 10.8574 11.9383 10.8296 11.9382 10.801C11.9355 10.4384 11.9168 10.0765 11.8991 9.71443C11.894 9.60934 11.889 9.50424 11.8841 9.39914C11.881 9.33448 11.8779 9.26983 11.8747 9.20518C11.8678 9.06063 11.8623 8.91612 11.8602 8.77143C11.8598 8.74651 11.8594 8.7216 11.859 8.69594C11.8666 8.59406 11.9055 8.53179 11.9692 8.45388C12.0945 8.37033 12.1755 8.36298 12.32 8.38373C12.6591 8.46928 12.9311 8.63328 13.1399 8.91645C13.3329 9.24016 13.3553 9.61537 13.3757 9.98367C13.3785 10.0276 13.3813 10.0716 13.3842 10.1169C13.3915 10.2326 13.3985 10.3482 13.4054 10.4638C13.415 10.6271 13.425 10.7904 13.4353 10.9536C13.4407 11.0402 13.4459 11.1268 13.4509 11.2134C13.4634 11.4134 13.4767 11.5977 13.5476 11.7861C13.6341 11.8602 13.6813 11.8564 13.7954 11.8541C13.9015 11.8303 13.9015 11.8303 13.9582 11.7504C14.0188 11.6109 14.0062 11.4909 13.9927 11.3433C13.9886 11.2839 13.9846 11.2245 13.9808 11.1652C13.9776 11.1194 13.9776 11.1194 13.9745 11.0727C13.9648 10.9203 13.9587 10.7681 13.9554 10.6155C13.9534 10.5739 13.9534 10.5739 13.9514 10.5315C13.9492 10.383 13.9558 10.3294 14.0501 10.2077C14.1439 10.1375 14.1439 10.1375 14.2558 10.1156C14.5481 10.1635 14.773 10.3036 14.9572 10.5353C15.1855 10.8699 15.1941 11.2828 15.2209 11.6734C15.2254 11.7333 15.2299 11.7932 15.2345 11.8531C15.2439 11.9783 15.2529 12.1034 15.2617 12.2286C15.2728 12.387 15.2845 12.5454 15.2966 12.7037C15.3059 12.8274 15.315 12.9512 15.324 13.0749C15.3283 13.1332 15.3326 13.1915 15.3369 13.2498C15.3599 13.5592 15.3754 13.8676 15.3765 14.1779C15.3767 14.2049 15.3768 14.2319 15.377 14.2598C15.3736 15.1689 14.8899 15.8559 14.2843 16.4863C13.6378 17.1621 13.204 17.7624 13.117 18.7225C13.0872 18.8563 13.0585 18.8935 12.9514 18.9768C12.8491 18.9945 12.8491 18.9945 12.7279 18.9948C12.6819 18.9953 12.636 18.9957 12.5886 18.9962C12.5377 18.996 12.4868 18.9957 12.4359 18.9955C12.3823 18.9957 12.3286 18.996 12.275 18.9964C12.1293 18.9972 11.9836 18.9971 11.838 18.9968C11.7164 18.9966 11.5948 18.9968 11.4732 18.9971C11.1863 18.9977 10.8994 18.9976 10.6126 18.997C10.3166 18.9964 10.0206 18.9969 9.72468 18.9981C9.47057 18.999 9.21648 18.9993 8.96237 18.999C8.8106 18.9988 8.65885 18.9989 8.50708 18.9996C8.36436 19.0002 8.22166 19 8.07894 18.9992C8.02658 18.999 7.97422 18.9991 7.92186 18.9996C7.85036 19.0001 7.77884 18.9995 7.70733 18.9988C7.66733 18.9988 7.62732 18.9988 7.5861 18.9987C7.44503 18.9697 7.39259 18.9128 7.30407 18.8014C7.28351 18.7023 7.2721 18.6183 7.2668 18.5186C7.19876 17.7354 6.7654 17.1988 6.2239 16.6678C6.10725 16.5534 5.99887 16.4351 5.89307 16.3107C5.78901 16.1938 5.67608 16.0858 5.56478 15.9758C5.46997 15.8798 5.38207 15.7795 5.29459 15.6769C5.2309 15.6053 5.16342 15.5398 5.09427 15.4735C4.59108 14.9732 4.36019 14.3098 4.35767 13.6101C4.36584 13.3319 4.38642 13.0544 4.40726 12.777C4.41682 12.6481 4.42547 12.5192 4.43405 12.3903C4.49813 11.4813 4.6626 10.7867 5.33788 10.1426C5.47163 10.0316 5.5895 10.0127 5.75674 10.0124C5.8619 10.0406 5.90283 10.0887 5.97117 10.1726C5.98766 10.2669 5.98766 10.2669 5.98611 10.3755C5.98583 10.4162 5.98555 10.4568 5.98526 10.4986C5.98423 10.5423 5.9832 10.5859 5.98214 10.6308C5.98167 10.6756 5.9812 10.7205 5.98072 10.7667C5.9776 10.9985 5.97001 11.2299 5.95912 11.4615C5.95716 11.5043 5.9552 11.5471 5.95318 11.5912C5.94917 11.6729 5.94459 11.7546 5.93936 11.8363C5.93743 11.8733 5.93549 11.9102 5.93349 11.9484C5.93147 11.9806 5.92945 12.0129 5.92737 12.0462C5.93832 12.1599 5.97211 12.222 6.04133 12.3123C6.16077 12.3561 6.16077 12.3561 6.28686 12.3473C6.40066 12.2665 6.43781 12.2007 6.46224 12.0667C6.46862 11.9782 6.47346 11.8902 6.47688 11.8015C6.47803 11.7746 6.47918 11.7478 6.48037 11.7201C6.48419 11.6301 6.48781 11.5401 6.49143 11.45C6.49413 11.3855 6.49684 11.321 6.49957 11.2564C6.50541 11.1173 6.51116 10.9783 6.51685 10.8392C6.52585 10.6189 6.53505 10.3986 6.54429 10.1783C6.55889 9.82949 6.57336 9.48063 6.58776 9.13177C6.61351 8.50829 6.63942 7.88482 6.66549 7.26135C6.67462 7.04278 6.68367 6.8242 6.69265 6.60562C6.69828 6.46897 6.70397 6.33232 6.70967 6.19568C6.71228 6.13276 6.71487 6.06984 6.71743 6.00692C6.77434 4.60963 6.77434 4.60963 7.20761 4.20088C7.45801 4.00294 7.69881 3.95176 8.01218 3.94877C8.03884 3.94842 8.06551 3.94806 8.09299 3.94769C8.27481 3.95051 8.40731 3.97996 8.56682 4.06935C8.65953 4.19617 8.64662 4.33852 8.64556 4.48901C8.64564 4.51736 8.64572 4.54572 8.6458 4.57494C8.64599 4.67007 8.64568 4.7652 8.64537 4.86034C8.64541 4.92849 8.64548 4.99665 8.64559 5.06481C8.64575 5.21165 8.64571 5.35849 8.64552 5.50533C8.64526 5.73745 8.64563 5.96958 8.64613 6.2017C8.64745 6.86179 8.64809 7.52187 8.64768 8.18196C8.64747 8.54648 8.64787 8.91098 8.64896 9.2755C8.64962 9.50631 8.6495 9.73711 8.64882 9.96792C8.64858 10.1115 8.64906 10.255 8.64976 10.3985C8.64994 10.4651 8.64982 10.5317 8.64937 10.5984C8.64881 10.6892 8.64932 10.7801 8.6501 10.8709C8.64946 10.9106 8.64946 10.9106 8.64882 10.951C8.65126 11.0902 8.66787 11.1495 8.7562 11.2596C8.83877 11.3359 8.83877 11.3359 8.92594 11.3396C8.94995 11.3343 8.97396 11.329 8.9987 11.3236C9.04138 11.3142 9.08406 11.3047 9.12804 11.2951C9.17458 11.1554 9.16814 11.0217 9.16796 10.8761C9.16806 10.8436 9.16815 10.8111 9.16826 10.7776C9.16855 10.6683 9.1686 10.5591 9.16865 10.4498C9.16881 10.3716 9.16899 10.2934 9.16919 10.2152C9.16958 10.0466 9.16988 9.87806 9.1701 9.70948C9.17048 9.44302 9.17119 9.17657 9.17197 8.91012C9.17304 8.53663 9.17406 8.16315 9.17497 7.78966C9.17502 7.76595 9.17508 7.74224 9.17514 7.71782C9.17606 7.3336 9.17672 6.94937 9.1773 6.56515C9.17791 6.17072 9.17893 5.77629 9.18028 5.38186C9.18102 5.16038 9.18156 4.93891 9.18164 4.71743C9.18172 4.50916 9.18227 4.3009 9.1832 4.09263C9.18345 4.01612 9.18352 3.93961 9.18341 3.86309C9.18327 3.75878 9.18377 3.65449 9.18444 3.55018C9.18425 3.51978 9.18405 3.48938 9.18385 3.45806C9.18567 3.29389 9.19715 3.18572 9.30342 3.05213C9.67503 2.81646 10.2346 2.92698 10.5863 3.14257Z" fill="#484848"/>
<path d="M8.32945 1.00757C8.38721 1.00736 8.44497 1.00712 8.50273 1.00685C8.65906 1.00623 8.81538 1.00607 8.97171 1.00602C9.06956 1.00597 9.16741 1.00582 9.26525 1.00564C9.60711 1.00499 9.94897 1.0047 10.2908 1.00476C10.6087 1.0048 10.9265 1.00406 11.2443 1.00295C11.5179 1.00203 11.7914 1.00166 12.065 1.0017C12.2281 1.00172 12.3912 1.00152 12.5543 1.00078C12.7078 1.00009 12.8613 1.0001 13.0148 1.0006C13.0708 1.00068 13.1269 1.00051 13.1829 1.00009C13.7234 0.996239 14.2026 1.1201 14.6177 1.48813C15.003 1.8976 15.2194 2.39452 15.205 2.95873C15.1561 3.48055 14.9441 3.923 14.5592 4.28012C14.282 4.50635 13.9961 4.63205 13.6494 4.71227C13.405 4.76891 13.22 4.81344 13.0566 5.01645C12.9985 5.11663 12.9762 5.19686 12.9665 5.31186C12.9104 5.85962 12.7676 6.40399 12.32 6.77027C12.1757 6.8402 12.09 6.85175 11.9342 6.80534C11.8356 6.72542 11.7992 6.68093 11.7588 6.55981C11.7531 6.48806 11.7492 6.41617 11.7463 6.34425C11.7444 6.29973 11.7425 6.2552 11.7406 6.20932C11.7392 6.17357 11.7392 6.17357 11.7378 6.1371C11.7348 6.06193 11.7316 5.98678 11.7284 5.91162C11.7193 5.6979 11.7105 5.48416 11.7019 5.27042C11.6966 5.13952 11.6911 5.00862 11.6854 4.87773C11.6833 4.82837 11.6813 4.779 11.6794 4.72963C11.6509 3.99035 11.594 3.35628 11.0354 2.81761C10.6152 2.46677 10.1131 2.38634 9.58408 2.42081C9.07957 2.49305 8.67102 2.75251 8.36079 3.15083C8.34135 3.1771 8.32191 3.20337 8.30187 3.23044C8.20191 3.36309 8.20191 3.36309 8.11367 3.38326C8.08666 3.38641 8.05965 3.38956 8.03181 3.3928C8.00181 3.39669 7.97181 3.40058 7.9409 3.40459C7.87835 3.41214 7.81578 3.41955 7.75319 3.42678C7.29083 3.48747 6.85598 3.7345 6.56752 4.10447C6.30542 4.54146 6.24184 4.94818 6.21858 5.44775C6.21452 5.53481 6.21009 5.62183 6.20558 5.70887C6.19292 5.95647 6.18135 6.20404 6.17318 6.45184C6.17196 6.48572 6.17075 6.51959 6.16949 6.5545C6.16746 6.61438 6.16584 6.67429 6.16475 6.7342C6.15796 6.93511 6.11241 7.04999 5.97122 7.19118C5.48847 7.25399 5.05369 7.09591 4.6734 6.80534C4.31256 6.50401 4.07978 6.07791 4.00695 5.61275C3.96803 5.03594 4.08863 4.54602 4.46952 4.10008C4.84046 3.70592 5.27632 3.53339 5.80022 3.42665C5.98384 3.38864 5.98384 3.38864 6.1181 3.27141C6.12751 3.24536 6.13691 3.21932 6.1466 3.19248C6.16396 3.14616 6.16396 3.14616 6.18168 3.0989C6.22032 2.97015 6.23316 2.85057 6.24525 2.71676C6.30616 2.16981 6.54806 1.71698 6.97131 1.36098C7.40394 1.0506 7.81446 1.00719 8.32945 1.00757Z" fill="#484848"/>
</svg>
