<svg width="20" height="20" viewBox="0 0 20 20" fill="none" xmlns="http://www.w3.org/2000/svg">
<path d="M10.3666 4.5417H10.425C10.7576 4.45954 11.0698 4.30989 11.3422 4.10202C11.6145 3.89416 11.8413 3.63253 12.0083 3.33337C12.1711 3.05813 12.2711 2.75039 12.3014 2.43207C12.3316 2.11375 12.2913 1.79267 12.1833 1.4917C12.1526 1.4292 12.0999 1.3802 12.0353 1.35407C11.9708 1.32794 11.8989 1.3265 11.8333 1.35004C11.1762 1.5609 10.6152 1.9979 10.25 2.58337C10.079 2.85033 9.97198 3.15317 9.93729 3.46829C9.9026 3.78341 9.94116 4.10228 10.05 4.40004C10.0796 4.4554 10.1268 4.49936 10.1841 4.525C10.2414 4.55064 10.3056 4.55652 10.3666 4.5417Z" stroke="#484848" stroke-linecap="round" stroke-linejoin="round"/>
<path d="M16.8 13.7834C16.778 13.7332 16.746 13.6881 16.7058 13.6508C16.6657 13.6136 16.6183 13.5849 16.5667 13.5667C15.8597 13.2837 15.2905 12.7367 14.9794 12.0415C14.6684 11.3464 14.6399 10.5575 14.9 9.84172C15.1311 9.20018 15.5871 8.66425 16.1833 8.33339C16.2338 8.30379 16.2776 8.26408 16.312 8.21676C16.3465 8.16944 16.3707 8.11553 16.3833 8.05839C16.3927 8.0014 16.3902 7.94308 16.3758 7.88713C16.3615 7.83118 16.3357 7.77883 16.3 7.73339C15.9245 7.23869 15.4446 6.83285 14.8943 6.54478C14.3441 6.25671 13.7372 6.09348 13.1167 6.06672C12.4833 6.07783 11.8581 6.21081 11.275 6.45839C10.9513 6.58823 10.607 6.65879 10.2583 6.66672C9.8595 6.64092 9.46788 6.54794 9.1 6.39172C8.55579 6.16198 7.97378 6.03484 7.38334 6.01672C6.67734 6.05097 5.99074 6.25905 5.38451 6.6225C4.77829 6.98594 4.27121 7.49349 3.90834 8.10006C3.57884 8.63504 3.35797 9.22969 3.25834 9.85006C2.98677 12.0368 3.52314 14.2475 4.76667 16.0667C5.49167 17.1667 6.43334 18.2917 7.675 18.3001C8.10544 18.294 8.52823 18.1855 8.90834 17.9834C9.32154 17.774 9.77846 17.6655 10.2417 17.6667C10.6935 17.6638 11.1393 17.7695 11.5417 17.9751C11.9157 18.1773 12.3332 18.2859 12.7583 18.2917C14.0833 18.3334 15 17.1334 15.8333 15.9751C16.2269 15.3841 16.5618 14.7561 16.8333 14.1001C16.8559 14.0503 16.8676 13.9963 16.8676 13.9417C16.8676 13.8871 16.8559 13.8331 16.8333 13.7834H16.8Z" stroke="#484848" stroke-linecap="round" stroke-linejoin="round"/>
</svg>
