<svg width="20" height="20" viewBox="0 0 20 20" fill="none" xmlns="http://www.w3.org/2000/svg">
<path d="M9.5 6.44445C7.81517 6.44445 6.44445 7.81517 6.44445 9.5C6.44445 11.1848 7.81517 12.5555 9.5 12.5555C10.375 12.5555 11.1647 12.1853 11.7222 11.5939C12.2798 12.1853 13.0694 12.5555 13.9445 12.5555C15.6293 12.5555 17 11.1848 17 9.5C17 5.36451 13.6355 2 9.5 2C5.36451 2 2 5.36451 2 9.5C2 13.6355 5.36451 17 9.5 17C11.5033 17 13.3867 16.2199 14.8033 14.8033L13.6248 13.6248C12.523 14.7266 11.0582 15.3333 9.5 15.3333C6.2835 15.3333 3.66667 12.7165 3.66667 9.5C3.66667 6.2835 6.2835 3.66667 9.5 3.66667C12.7165 3.66667 15.3333 6.2835 15.3333 9.5C15.3333 10.2658 14.7103 10.8889 13.9445 10.8889C13.1786 10.8889 12.5556 10.2658 12.5556 9.50003V9.5C12.5555 7.81517 11.1848 6.44445 9.5 6.44445ZM9.5 10.8889C8.73418 10.8889 8.11112 10.2658 8.11112 9.5C8.11112 8.73418 8.73418 8.11112 9.5 8.11112C10.2658 8.11112 10.8889 8.73418 10.8889 9.5C10.8889 10.2658 10.2658 10.8889 9.5 10.8889Z" fill="#484848"/>
</svg>
