<svg width="20" height="20" viewBox="0 0 20 20" fill="none" xmlns="http://www.w3.org/2000/svg">
<path d="M8.33333 7.08331V12.0833C8.33333 12.5253 8.50893 12.9493 8.82149 13.2618C9.13405 13.5744 9.55797 13.75 10 13.75C10.442 13.75 10.866 13.5744 11.1785 13.2618C11.4911 12.9493 11.6667 12.5253 11.6667 12.0833V5.41665C11.6667 4.53259 11.3155 3.68474 10.6904 3.05962C10.0652 2.4345 9.21739 2.08331 8.33333 2.08331C7.44928 2.08331 6.60143 2.4345 5.97631 3.05962C5.35119 3.68474 5 4.53259 5 5.41665V12.9166C5 14.2427 5.52678 15.5145 6.46447 16.4522C7.40215 17.3899 8.67392 17.9166 10 17.9166C11.3261 17.9166 12.5979 17.3899 13.5355 16.4522C14.4732 15.5145 15 14.2427 15 12.9166V5.41665" stroke="#484848" stroke-linecap="round" stroke-linejoin="round"/>
</svg>
