<svg width="20" height="20" viewBox="0 0 20 20" fill="none" xmlns="http://www.w3.org/2000/svg">
<path d="M3 10C3 7.79086 4.79086 6 7 6H16V14H7C4.79086 14 3 12.2091 3 10Z" fill="#484848"/>
<path d="M10.8638 9.05733L11.7454 8.19533C11.874 8.0739 12.0462 8.0067 12.225 8.00822C12.4037 8.00974 12.5747 8.07985 12.7011 8.20345C12.8276 8.32706 12.8993 8.49427 12.9008 8.66907C12.9024 8.84386 12.8336 9.01227 12.7095 9.138L11.8279 10L12.7095 10.862C12.8336 10.9877 12.9024 11.1561 12.9008 11.3309C12.8993 11.5057 12.8276 11.6729 12.7011 11.7965C12.5747 11.9202 12.4037 11.9903 12.225 11.9918C12.0462 11.9933 11.874 11.9261 11.7454 11.8047L10.8638 10.9427L9.98226 11.8047C9.85368 11.9261 9.68145 11.9933 9.50269 11.9918C9.32392 11.9903 9.15292 11.9202 9.02651 11.7965C8.9001 11.6729 8.82839 11.5057 8.82684 11.3309C8.82529 11.1561 8.89401 10.9877 9.0182 10.862L9.89977 10L9.0182 9.138C8.89401 9.01227 8.82529 8.84386 8.82684 8.66907C8.82839 8.49427 8.9001 8.32706 9.02651 8.20345C9.15292 8.07985 9.32392 8.00974 9.50269 8.00822C9.68145 8.0067 9.85368 8.0739 9.98226 8.19533L10.8638 9.05733ZM15.2941 15H7.33212C6.57464 15 5.6266 14.5947 5.11492 14.052L2.50738 11.2873C1.83104 10.5707 1.8307 9.43 2.50738 8.71267L5.11526 5.948C5.62558 5.40667 6.57669 5 7.33212 5H15.2938C15.518 4.99978 15.7401 5.04282 15.9472 5.12664C16.1544 5.21047 16.3426 5.33344 16.5011 5.48851C16.6596 5.64358 16.7853 5.8277 16.8709 6.03032C16.9565 6.23295 17.0004 6.4501 17 6.66933V13.3307C17.0002 13.5498 16.9562 13.7669 16.8705 13.9694C16.7849 14.1719 16.6593 14.356 16.5008 14.511C16.3424 14.666 16.1543 14.789 15.9473 14.8729C15.7402 14.9568 15.5183 15 15.2941 15ZM15.2941 13.6667C15.483 13.6667 15.6364 13.517 15.6364 13.3307V6.66933C15.6364 6.48267 15.4844 6.33333 15.2941 6.33333H7.33212C6.95713 6.33333 6.36976 6.58433 6.1175 6.852L3.50963 9.61633C3.31497 9.823 3.31531 10.177 3.50963 10.3837L6.1175 13.148C6.37079 13.4167 6.95543 13.6667 7.33212 13.6667H15.2941Z" fill="#F9F9FA"/>
</svg>
