<svg width="20" height="20" viewBox="0 0 20 20" fill="none" xmlns="http://www.w3.org/2000/svg">
<path d="M2.5 5.83337H17.5" stroke="#484848" stroke-linecap="round" stroke-linejoin="round"/>
<path d="M3.175 5.83337V7.50004C3.175 8.82612 3.70179 10.0979 4.63947 11.0356C5.57715 11.9733 6.84892 12.5 8.175 12.5H11.6667C12.9928 12.5 14.2645 11.9733 15.2022 11.0356C16.1399 10.0979 16.6667 8.82612 16.6667 7.50004V5.83337" fill="#484848"/>
<path d="M3.175 5.83337V7.50004C3.175 8.82612 3.70179 10.0979 4.63947 11.0356C5.57715 11.9733 6.84892 12.5 8.175 12.5H11.6667C12.9928 12.5 14.2645 11.9733 15.2022 11.0356C16.1399 10.0979 16.6667 8.82612 16.6667 7.50004V5.83337" stroke="#484848" stroke-linecap="round" stroke-linejoin="round"/>
<path d="M13.2083 12.2584L14.1667 14.1668" stroke="#484848" stroke-linecap="round" stroke-linejoin="round"/>
<path d="M6.76667 12.3L5.83334 14.1667" stroke="#484848" stroke-linecap="round" stroke-linejoin="round"/>
</svg>
