<svg width="20" height="20" viewBox="0 0 20 20" fill="none" xmlns="http://www.w3.org/2000/svg">
<path fill-rule="evenodd" clip-rule="evenodd" d="M13.3333 4.16667H12.5V3.33333C12.5 3.11232 12.4122 2.90036 12.2559 2.74408C12.0996 2.5878 11.8877 2.5 11.6667 2.5H8.33333C8.11232 2.5 7.90036 2.5878 7.74408 2.74408C7.5878 2.90036 7.5 3.11232 7.5 3.33333V4.16667H6.66667C6.22464 4.16667 5.80072 4.34226 5.48816 4.65482C5.17559 4.96738 5 5.39131 5 5.83333V15.8333C5 16.2754 5.17559 16.6993 5.48816 17.0118C5.80072 17.3244 6.22464 17.5 6.66667 17.5H13.3333C13.7754 17.5 14.1993 17.3244 14.5118 17.0118C14.8244 16.6993 15 16.2754 15 15.8333V5.83333C15 5.39131 14.8244 4.96738 14.5118 4.65482C14.1993 4.34226 13.7754 4.16667 13.3333 4.16667Z" stroke="#484848" stroke-linecap="round" stroke-linejoin="round"/>
<path d="M5.41669 8.75H14.5834" stroke="#484848" stroke-linecap="round" stroke-linejoin="round"/>
<path d="M7.5 17.5V8.75" stroke="#484848" stroke-linecap="round" stroke-linejoin="round"/>
<path d="M10 17.5V8.75" stroke="#484848" stroke-linecap="round" stroke-linejoin="round"/>
<path d="M12.5 17.5V8.75" stroke="#484848" stroke-linecap="round" stroke-linejoin="round"/>
</svg>
