<svg width="20" height="20" viewBox="0 0 20 20" fill="none" xmlns="http://www.w3.org/2000/svg">
<path fill-rule="evenodd" clip-rule="evenodd" d="M13.3333 4.16667H12.5V3.33333C12.5 3.11232 12.4122 2.90036 12.2559 2.74408C12.0996 2.5878 11.8877 2.5 11.6667 2.5H8.33333C8.11232 2.5 7.90036 2.5878 7.74408 2.74408C7.5878 2.90036 7.5 3.11232 7.5 3.33333V4.16667H6.66667C6.22464 4.16667 5.80072 4.34226 5.48816 4.65482C5.17559 4.96738 5 5.39131 5 5.83333V15.8333C5 16.2754 5.17559 16.6993 5.48816 17.0118C5.80072 17.3244 6.22464 17.5 6.66667 17.5H13.3333C13.7754 17.5 14.1993 17.3244 14.5118 17.0118C14.8244 16.6993 15 16.2754 15 15.8333V5.83333C15 5.39131 14.8244 4.96738 14.5118 4.65482C14.1993 4.34226 13.7754 4.16667 13.3333 4.16667Z" stroke="#484848" stroke-linecap="round" stroke-linejoin="round"/>
<path d="M11.1833 7.08337L8.84168 11C8.82716 11.0252 8.81946 11.0537 8.81934 11.0827C8.81922 11.1117 8.82669 11.1403 8.841 11.1656C8.85531 11.1908 8.87598 11.2119 8.90094 11.2267C8.92591 11.2415 8.95431 11.2496 8.98334 11.25H10.9167C10.9452 11.2498 10.9734 11.257 10.9984 11.2708C11.0234 11.2846 11.0444 11.3046 11.0594 11.3288C11.0745 11.3531 11.0831 11.3808 11.0843 11.4093C11.0856 11.4378 11.0795 11.4662 11.0667 11.4917L9.51668 14.5834" stroke="#484848" stroke-linecap="round" stroke-linejoin="round"/>
</svg>
