<svg width="20" height="20" viewBox="0 0 20 20" fill="none" xmlns="http://www.w3.org/2000/svg">
<g clip-path="url(#clip0_111_115)">
<path opacity="0.986" fill-rule="evenodd" clip-rule="evenodd" d="M8.04494 2.98633C8.57358 2.98633 9.10224 2.98633 9.63088 2.98633C10.3156 3.16516 10.7668 3.59355 10.9844 4.27148C11.0199 4.39773 10.988 4.50254 10.8887 4.58594C8.94313 5.23677 7.79015 6.57205 7.42971 8.5918C7.24812 10.6941 8.04565 12.3028 9.82229 13.418C10.8243 13.9769 11.8907 14.1637 13.0215 13.9785C13.1737 14.0076 13.2694 14.0988 13.3086 14.252C13.4302 14.5224 13.5441 14.7958 13.6504 15.0723C13.6395 15.1187 13.6258 15.1642 13.6094 15.209C13.0703 15.8109 12.4049 16.0479 11.6133 15.9199C11.5789 15.8649 11.5561 15.8057 11.5449 15.7422C11.712 15.352 11.8214 14.9465 11.8731 14.5254C11.8188 14.3342 11.7003 14.2749 11.5176 14.3477C11.4679 14.3969 11.436 14.4561 11.4219 14.5254C11.2191 15.8811 10.449 16.7014 9.11135 16.9863C8.85615 16.9863 8.60092 16.9863 8.34572 16.9863C6.96404 16.6845 6.18475 15.8277 6.00783 14.416C5.90765 14.2896 5.7937 14.2759 5.66604 14.375C5.62506 14.4411 5.60683 14.514 5.61135 14.5938C5.64578 14.9614 5.74148 15.3123 5.89846 15.6465C5.94385 15.8791 5.84815 15.9885 5.61135 15.9746C4.81572 15.9029 4.20961 15.5292 3.79299 14.8535C3.33146 14.0937 3.25855 13.3007 3.57424 12.4746C3.71746 12.1607 3.88153 11.8599 4.06643 11.5723C4.85086 10.5142 5.47977 9.36576 5.95315 8.12695C6.34886 6.94677 6.57672 5.73454 6.63674 4.49023C6.78344 3.68283 7.25285 3.18153 8.04494 2.98633Z" fill="#484848"/>
<path opacity="0.974" fill-rule="evenodd" clip-rule="evenodd" d="M11.791 4.84567C13.6751 4.75982 15.1016 5.51634 16.0703 7.1152C16.7885 8.542 16.7794 9.96388 16.043 11.3808C14.9905 13.0622 13.4729 13.7868 11.4902 13.5547C9.7389 13.1979 8.57679 12.1725 8.00392 10.4785C7.54637 8.62972 8.02489 7.07569 9.43946 5.81638C10.1323 5.27101 10.9162 4.94744 11.791 4.84567ZM11.8184 6.10349C13.1153 6.01153 14.1316 6.49461 14.8672 7.5527C15.552 8.78164 15.4974 9.97566 14.7031 11.1347C13.8161 12.1869 12.6995 12.5561 11.3535 12.2422C10.0669 11.8066 9.31499 10.918 9.09767 9.57614C9.02337 8.00574 9.7024 6.90745 11.1348 6.28122C11.3628 6.20829 11.5906 6.14907 11.8184 6.10349ZM11.709 7.71677C12.1775 7.779 12.3188 8.0251 12.1328 8.45505C11.9514 8.63139 11.7463 8.66327 11.5176 8.55075C11.2565 8.28729 11.2656 8.0321 11.5449 7.78513C11.6027 7.76202 11.6573 7.73924 11.709 7.71677ZM13.377 8.59177C13.8027 8.64172 13.9531 8.86958 13.8281 9.27536C13.6586 9.50272 13.4444 9.55285 13.1856 9.42575C12.9695 9.23049 12.9377 9.00717 13.0899 8.75583C13.1738 8.67527 13.2695 8.62059 13.377 8.59177ZM11.4082 10.041C11.7809 10.008 11.9222 10.1721 11.832 10.5332C11.6093 10.7634 11.4088 10.7452 11.2305 10.4785C11.1924 10.2907 11.2516 10.1448 11.4082 10.041Z" fill="#484848"/>
<path opacity="0.981" fill-rule="evenodd" clip-rule="evenodd" d="M11.8457 6.54104C13.2366 6.45453 14.2073 7.04699 14.7578 8.31839C15.0968 9.43705 14.8553 10.4078 14.0332 11.2305C13.1297 11.968 12.1362 12.1138 11.0527 11.668C9.79999 10.9623 9.32148 9.90039 9.61717 8.48245C9.98432 7.39956 10.7272 6.75241 11.8457 6.54104ZM11.709 7.71683C11.6573 7.7393 11.6026 7.76208 11.5449 7.78518C11.2656 8.03215 11.2565 8.28735 11.5176 8.55081C11.7463 8.66333 11.9513 8.63145 12.1328 8.45511C12.3188 8.02515 12.1775 7.77906 11.709 7.71683ZM13.3769 8.59182C13.2694 8.62065 13.1737 8.67533 13.0898 8.75589C12.9376 9.00723 12.9695 9.23055 13.1855 9.42581C13.4444 9.5529 13.6586 9.50278 13.8281 9.27542C13.9531 8.86964 13.8027 8.64178 13.3769 8.59182ZM11.4082 10.041C11.2516 10.1449 11.1924 10.2907 11.2305 10.4785C11.4088 10.7453 11.6093 10.7635 11.832 10.5332C11.9222 10.1722 11.7809 10.0081 11.4082 10.041Z" fill="#484848"/>
<path opacity="0.974" fill-rule="evenodd" clip-rule="evenodd" d="M15.0176 13.1855C15.117 13.193 15.1945 13.2385 15.25 13.3223C15.5872 13.9421 15.9245 14.5618 16.2617 15.1816C16.6008 15.7034 16.5506 16.1819 16.1113 16.6172C15.6889 16.8691 15.2788 16.8509 14.8809 16.5625C14.8275 16.5058 14.7774 16.4465 14.7305 16.3848C14.3687 15.591 14.0178 14.7935 13.6777 13.9922C13.6903 13.9148 13.7267 13.851 13.7871 13.8008C14.2162 13.6227 14.6263 13.4176 15.0176 13.1855Z" fill="#484848"/>
</g>
<defs>
<clipPath id="clip0_111_115">
<rect width="14" height="14" fill="white" transform="translate(3 3)"/>
</clipPath>
</defs>
</svg>
