<svg width="20" height="20" viewBox="0 0 20 20" fill="none" xmlns="http://www.w3.org/2000/svg">
<g clip-path="url(#clip0_111_114)">
<path opacity="0.933" fill-rule="evenodd" clip-rule="evenodd" d="M8.04495 2.98633C8.57359 2.98633 9.10225 2.98633 9.63089 2.98633C10.1081 3.09434 10.4864 3.34955 10.7657 3.75195C10.8568 3.97078 10.7884 4.1075 10.5606 4.16211C10.5142 4.1512 10.4686 4.13753 10.4239 4.12109C10.2168 3.79575 9.92508 3.58611 9.54886 3.49219C9.07491 3.47396 8.60093 3.47396 8.12698 3.49219C7.62684 3.6095 7.30325 3.91484 7.15628 4.4082C7.07977 5.82447 6.80633 7.20079 6.33596 8.53711C6.12845 9.06151 5.89146 9.57191 5.62503 10.0684C5.22734 10.7393 4.80807 11.3955 4.36721 12.0371C4.16755 12.3635 4.0126 12.7099 3.90237 13.0762C3.81861 13.864 4.06014 14.5339 4.62698 15.0859C4.86182 15.2708 5.12615 15.3984 5.41995 15.4688C5.53399 15.5741 5.55677 15.6972 5.48831 15.8379C5.42998 15.9022 5.35707 15.9296 5.26956 15.9199C4.64549 15.7856 4.16242 15.4483 3.82034 14.9082C3.22094 13.9331 3.22094 12.9578 3.82034 11.9824C4.28687 11.2697 4.7426 10.5496 5.18753 9.82227C6.08391 8.16015 6.56699 6.3828 6.63675 4.49023C6.78345 3.68283 7.25286 3.18153 8.04495 2.98633Z" fill="#484848"/>
<path opacity="0.934" fill-rule="evenodd" clip-rule="evenodd" d="M9.11133 16.9863C8.85613 16.9863 8.6009 16.9863 8.3457 16.9863C6.92875 16.6766 6.15402 15.797 6.02148 14.3477C6.06739 14.0497 6.21779 13.9813 6.47266 14.1426C6.49724 14.7341 6.68864 15.2627 7.04688 15.7285C7.79866 16.5096 8.67823 16.6965 9.68555 16.2891C10.5132 15.8429 10.937 15.1456 10.957 14.1973C11.0362 14.07 11.1502 14.029 11.2988 14.0742C11.3597 14.1078 11.4007 14.1579 11.4219 14.2246C11.4331 14.4543 11.4148 14.6822 11.3672 14.9082C11.3139 15.0815 11.2638 15.2547 11.2168 15.4277C12.4311 15.675 13.2606 15.2238 13.7051 14.0742C13.5768 13.8081 13.4538 13.5392 13.3359 13.2676C13.2951 13.1302 13.327 13.0162 13.4316 12.9258C15.1143 12.2724 16.0076 11.042 16.1113 9.23438C16.0273 7.50658 15.1979 6.29435 13.623 5.59766C11.9726 5.05214 10.537 5.39394 9.31641 6.62305C8.2879 7.86312 8.06004 9.23944 8.63281 10.752C9.37667 12.2798 10.6026 13.0773 12.3105 13.1445C12.3594 13.166 12.4004 13.1979 12.4336 13.2402C12.5029 13.5119 12.3981 13.6395 12.1191 13.6231C10.2744 13.501 8.95736 12.6078 8.16797 10.9434C7.55897 9.32973 7.76859 7.83496 8.79688 6.45899C9.87014 5.22599 11.2237 4.7019 12.8574 4.88672C14.2776 5.13362 15.3485 5.87646 16.0703 7.11524C16.7969 8.56487 16.7787 10.005 16.0156 11.4356C15.5092 12.2838 14.8028 12.9036 13.8965 13.2949C14.3005 14.1849 14.697 15.0782 15.0859 15.9746C15.2144 16.2599 15.4286 16.3556 15.7285 16.2617C15.8917 16.1679 15.9829 16.0266 16.002 15.8379C15.6912 15.189 15.3585 14.5509 15.0039 13.9238C14.9326 13.6698 15.0283 13.5467 15.291 13.5547C15.3342 13.574 15.3753 13.5968 15.4141 13.6231C15.7583 14.2476 16.0955 14.8765 16.4258 15.5098C16.5806 16.1345 16.3573 16.5583 15.7559 16.7813C15.3306 16.8578 14.9888 16.7256 14.7305 16.3848C14.4823 15.8247 14.2271 15.2687 13.9648 14.7168C13.4112 15.6795 12.5772 16.0942 11.4629 15.9609C11.2972 15.9378 11.1331 15.9058 10.9707 15.8652C10.6359 16.2774 10.2257 16.5919 9.74023 16.8086C9.53264 16.8886 9.323 16.9479 9.11133 16.9863Z" fill="#484848"/>
<path opacity="0.933" fill-rule="evenodd" clip-rule="evenodd" d="M12.0371 6.07618C13.3771 6.04577 14.3752 6.61088 15.0312 7.77149C15.5726 8.96059 15.4723 10.0908 14.7305 11.1621C13.8263 12.2261 12.6915 12.5952 11.3262 12.2695C10.0317 11.8275 9.27973 10.9297 9.0703 9.57618C8.98496 8.33554 9.43613 7.34659 10.4238 6.60938C10.5165 6.54482 10.6167 6.4947 10.7246 6.45899C10.9253 6.49558 11.0028 6.61408 10.957 6.81446C10.9356 6.86329 10.9037 6.90431 10.8613 6.9375C10.0217 7.46778 9.5842 8.23341 9.54882 9.23438C9.62784 10.5346 10.2841 11.3914 11.5176 11.8047C12.7894 12.0616 13.7874 11.6559 14.5117 10.5879C15.0642 9.52868 14.9913 8.51696 14.293 7.55274C13.6804 6.85927 12.9103 6.50837 11.9824 6.5C11.8641 6.33985 11.8823 6.19859 12.0371 6.07618Z" fill="#484848"/>
<path opacity="0.934" fill-rule="evenodd" clip-rule="evenodd" d="M11.709 7.68945C12.0965 7.70766 12.2742 7.9082 12.2422 8.29102C12.1433 8.58955 11.9382 8.7035 11.627 8.63281C11.4682 8.5834 11.3633 8.47859 11.3125 8.31836C11.2521 7.9831 11.3842 7.77345 11.709 7.68945Z" fill="#484848"/>
<path opacity="0.932" fill-rule="evenodd" clip-rule="evenodd" d="M13.3769 8.56445C13.8393 8.6143 13.9989 8.86039 13.8554 9.30273C13.7111 9.50584 13.5151 9.5742 13.2676 9.50781C12.9658 9.34082 12.8883 9.0993 13.0351 8.7832C13.0853 8.73308 13.1354 8.68293 13.1855 8.63281C13.254 8.61373 13.3178 8.59095 13.3769 8.56445Z" fill="#484848"/>
<path opacity="0.919" fill-rule="evenodd" clip-rule="evenodd" d="M11.4082 10.0136C11.7634 9.97239 11.9229 10.1273 11.8867 10.4785C11.7772 10.7126 11.5995 10.781 11.3535 10.6836C11.1739 10.5243 11.142 10.3375 11.2578 10.123C11.3074 10.0826 11.3575 10.0462 11.4082 10.0136Z" fill="#484848"/>
</g>
<defs>
<clipPath id="clip0_111_114">
<rect width="14" height="14" fill="white" transform="translate(3 3)"/>
</clipPath>
</defs>
</svg>
