<svg width="20" height="20" viewBox="0 0 20 20" fill="none" xmlns="http://www.w3.org/2000/svg">
<path d="M9.81942 3.82972C10.7564 4.30469 11.7359 4.67413 12.7997 4.70231C12.8198 4.70302 12.84 4.70373 12.8607 4.70445C14.1557 4.74598 15.3649 4.3232 16.3543 3.49042C16.4849 3.38422 16.6332 3.40088 16.7951 3.41612C16.9217 3.47606 16.9785 3.53945 17.0414 3.66242C17.0525 3.73241 17.0525 3.73241 17.0533 3.80737C17.0536 3.83551 17.0539 3.86365 17.0542 3.89264C17.0538 3.93784 17.0538 3.93784 17.0534 3.98396C17.0531 4.03121 17.0531 4.03121 17.0528 4.0794C17.0187 5.90242 16.0347 7.73128 14.8238 9.04941C14.7744 9.10342 14.7268 9.15852 14.6794 9.21425C14.4813 9.4414 14.2631 9.65464 14.0312 9.84708C14.017 9.85908 14.0028 9.87109 13.9881 9.88345C12.6776 10.9878 11.0765 11.6859 9.35164 11.7353C9.33337 11.7359 9.31509 11.7365 9.29626 11.7371C7.52412 11.788 5.73331 11.2969 4.42324 10.0695C4.22021 9.87487 4.04473 9.66313 3.87849 9.43659C3.86714 9.42143 3.8558 9.40626 3.84411 9.39063C3.49418 8.91795 3.25001 8.36471 3.11225 7.79465C3.1075 7.77667 3.10275 7.7587 3.09786 7.74018C2.95807 7.20207 2.97264 6.52441 3.11225 5.98851C3.11907 5.96083 3.11907 5.96083 3.12604 5.9326C3.28585 5.29217 3.59471 4.72082 4.04268 4.2371C4.05633 4.22225 4.06998 4.2074 4.08404 4.19211C5.69678 2.45723 7.92564 2.86906 9.81942 3.82972Z" fill="#484848"/>
<path d="M16.8858 8.74556C16.9804 8.82474 17.0342 8.88343 17.0492 9.00989C17.0526 9.09299 17.0528 9.1755 17.0517 9.25866C17.0513 9.30446 17.0513 9.30446 17.0508 9.35118C17.0322 10.3666 16.6917 11.3521 16.2478 12.2552C16.2366 12.2781 16.2255 12.301 16.2139 12.3245C15.6431 13.4814 14.7747 14.5517 13.7575 15.3476C13.7419 15.3598 13.7263 15.3721 13.7102 15.3847C13.4376 15.5978 13.1542 15.7887 12.8586 15.9685C12.808 15.9993 12.7578 16.0306 12.7076 16.0621C11.6238 16.7161 10.3526 17.0096 9.09679 16.9998C9.06751 16.9996 9.03822 16.9995 9.00805 16.9994C8.57063 16.9971 8.1411 16.986 7.70969 16.9074C7.66394 16.8992 7.66394 16.8992 7.61726 16.8909C6.13397 16.6184 4.71204 15.9133 3.83328 14.6513C3.53818 14.2172 3.303 13.7505 3.1567 13.2455C3.14691 13.2117 3.14691 13.2117 3.13691 13.1773C3.04599 12.8454 3.0189 12.516 3.01988 12.1731C3.01989 12.1534 3.01991 12.1337 3.01992 12.1134C3.02226 11.4374 3.19926 10.8594 3.49536 10.2575C3.60662 10.3004 3.67216 10.3803 3.74849 10.4679C3.86683 10.5999 3.98696 10.7202 4.12477 10.8322C4.13887 10.8439 4.15296 10.8556 4.16749 10.8676C5.48221 11.958 7.13748 12.458 8.83168 12.5015C8.85421 12.5021 8.87674 12.5027 8.89995 12.5033C10.7371 12.5444 12.5052 11.9518 13.9765 10.8596C13.9911 10.8487 14.0058 10.8379 14.021 10.8267C14.1264 10.7485 14.2299 10.6681 14.3322 10.5859C14.3469 10.5741 14.3615 10.5624 14.3766 10.5503C14.6323 10.3424 14.8657 10.1122 15.0984 9.87953C15.1133 9.8647 15.1281 9.84988 15.1434 9.83461C15.2775 9.70048 15.4111 9.56669 15.5346 9.42254C15.6514 9.2864 15.7922 9.19019 15.9382 9.08763C16.0808 8.98717 16.2172 8.88238 16.3496 8.76865C16.5281 8.64392 16.6993 8.64704 16.8858 8.74556Z" fill="#484848"/>
</svg>
