<svg width="20" height="20" viewBox="0 0 20 20" fill="none" xmlns="http://www.w3.org/2000/svg">
<path d="M9.81538 3.85592C10.7523 4.33018 11.7318 4.69907 12.7956 4.72721C12.8157 4.72791 12.8358 4.72862 12.8566 4.72934C14.1516 4.77081 15.3607 4.34866 16.3501 3.51713C16.4807 3.4111 16.629 3.42773 16.7909 3.44295C16.9173 3.50275 16.9745 3.566 17.0372 3.68887C17.0478 3.76049 17.0478 3.76049 17.0481 3.83745C17.0483 3.8661 17.0484 3.89476 17.0486 3.92428C17.0482 3.9548 17.0478 3.98532 17.0474 4.01677C17.047 4.06442 17.047 4.06442 17.0466 4.11304C17.0144 5.93515 16.0292 7.74284 14.8236 9.06288C14.7725 9.11916 14.7229 9.17633 14.6735 9.23408C14.4548 9.48442 14.2128 9.72141 13.9449 9.91891C14.7771 9.77206 15.5559 9.4404 16.2092 8.90053C16.233 8.88098 16.2567 8.86143 16.2812 8.84129C16.3018 8.82385 16.3223 8.80642 16.3434 8.78846C16.4714 8.69995 16.5871 8.67722 16.7373 8.70189C16.8526 8.7336 16.9315 8.79272 17 8.88909C17.0404 8.96887 17.0481 9.01759 17.0491 9.10632C17.0494 9.13427 17.0497 9.16223 17.05 9.19103C17.0496 9.23601 17.0496 9.23601 17.0492 9.2819C17.0488 9.32897 17.0488 9.32897 17.0485 9.37698C17.0135 11.2503 15.9832 13.0796 14.7385 14.4275C14.7162 14.4526 14.6939 14.4776 14.671 14.5035C14.3734 14.8355 14.0484 15.1347 13.6918 15.4025C13.6439 15.4385 13.5964 15.4749 13.5489 15.5114C13.2653 15.7264 12.9651 15.9135 12.6588 16.0943C12.6406 16.105 12.6224 16.1158 12.6037 16.1269C11.5505 16.7392 10.316 17.0158 9.10646 17.0063C9.07786 17.0061 9.04926 17.006 9.01979 17.0059C8.58631 17.0038 8.16081 16.9903 7.73308 16.914C7.7055 16.9092 7.67792 16.9044 7.64951 16.8994C6.16812 16.6318 4.79145 15.9464 3.87461 14.7281C3.85711 14.705 3.83961 14.6819 3.82159 14.6582C3.45704 14.1585 3.20783 13.5832 3.08102 12.9793C3.07595 12.9553 3.07087 12.9314 3.06564 12.9067C3.02103 12.6721 3.01535 12.44 3.01603 12.2022C3.01605 12.1818 3.01608 12.1614 3.0161 12.1403C3.0198 11.1817 3.3565 10.3589 3.9567 9.61834C3.91782 9.53245 3.86757 9.45736 3.81376 9.38013C3.17449 8.45773 2.86324 7.3326 3.05714 6.21325C3.0791 6.10819 3.10563 6.00518 3.13575 5.90217C3.14162 5.88137 3.14748 5.86057 3.15352 5.83914C3.44634 4.82195 4.14332 3.96284 5.06771 3.44876C6.67725 2.59674 8.29431 3.08546 9.81538 3.85592ZM4.80502 4.69988C4.78717 4.71545 4.76932 4.73102 4.75093 4.74706C4.25443 5.20523 3.91318 5.95054 3.86861 6.62088C3.85489 7.02954 3.85807 7.42349 3.98407 7.8149C3.99265 7.84225 3.99265 7.84225 4.0014 7.87014C4.33722 8.91206 5.12976 9.73363 6.08861 10.2368C6.94201 10.6672 7.90194 10.8768 8.85504 10.9026C8.88643 10.9035 8.88643 10.9035 8.91844 10.9044C10.4467 10.9416 11.8889 10.4366 13.0966 9.50904C13.1213 9.49026 13.1459 9.47149 13.1713 9.45215C13.3273 9.33057 13.4732 9.19888 13.6179 9.06437C13.691 8.99657 13.7657 8.93087 13.8406 8.8652C13.9773 8.74235 14.0983 8.60941 14.2186 8.4707C14.2439 8.44233 14.2692 8.41397 14.2945 8.38563C15.1634 7.40415 15.9281 6.0956 16.1068 4.78186C16.0116 4.81851 15.9209 4.85977 15.83 4.90589C14.2521 5.69408 12.4702 5.7709 10.798 5.21905C10.2726 5.03456 9.77154 4.79218 9.27599 4.53989C8.67893 4.23616 8.05149 3.92847 7.37733 3.85282C7.3287 3.84732 7.3287 3.84732 7.2791 3.84172C6.34842 3.76002 5.48908 4.07805 4.80502 4.69988ZM15.945 10.1126C15.1497 10.5532 14.2816 10.7967 13.3737 10.8377C13.3309 10.8397 13.3309 10.8397 13.2871 10.8417C13.1639 10.8466 13.0433 10.8502 12.9204 10.838C12.5908 10.8083 12.3604 10.939 12.0714 11.0871C11.2672 11.496 10.3015 11.7 9.40234 11.7223C9.38335 11.7229 9.36435 11.7235 9.34478 11.724C7.67332 11.7677 6.01195 11.3569 4.69556 10.3015C4.6775 10.2834 4.65944 10.2654 4.64083 10.2468C4.56167 10.2504 4.53493 10.2703 4.48049 10.3281C4.24207 10.6616 4.06723 10.999 3.9567 11.3944C3.94795 11.4238 3.93921 11.4532 3.93019 11.4835C3.80226 11.9933 3.82313 12.5886 3.98407 13.0886C3.98979 13.1068 3.99551 13.125 4.0014 13.1438C4.13989 13.5735 4.35348 13.9698 4.64083 14.3182C4.6535 14.3337 4.66617 14.3493 4.67923 14.3653C5.58418 15.4699 6.93932 15.9865 8.33211 16.1371C9.604 16.2554 10.8702 16.0676 12.0059 15.4652C12.0558 15.439 12.1062 15.4137 12.1567 15.3887C13.0423 14.9429 13.8965 14.2039 14.4922 13.4165C14.5132 13.3902 14.5342 13.3639 14.5558 13.3369C15.2213 12.501 16.1068 11.1663 16.1068 10.0555C16.0371 10.0555 16.0056 10.0783 15.945 10.1126Z" fill="#484848"/>
</svg>
