<svg width="20" height="20" viewBox="0 0 20 20" fill="none" xmlns="http://www.w3.org/2000/svg">
<path fill-rule="evenodd" clip-rule="evenodd" d="M14.333 15.9812L9.83686 12.7795C9.81669 12.7663 9.79299 12.7592 9.76873 12.7592C9.74448 12.7592 9.72078 12.7663 9.70061 12.7795L5.20445 15.9812C5.1834 15.9932 5.15947 15.9995 5.13515 15.9993C5.11083 15.9991 5.087 15.9925 5.06615 15.9801C5.04529 15.9678 5.02817 15.9502 5.01655 15.9292C5.00493 15.9081 4.99925 15.8844 5.00008 15.8604V5.34244C5.00008 4.9864 5.14363 4.64495 5.39914 4.39319C5.65465 4.14143 6.0012 4 6.36255 4H13.1749C13.5363 4 13.8828 4.14143 14.1383 4.39319C14.3938 4.64495 14.5374 4.9864 14.5374 5.34244V15.847C14.541 15.872 14.5373 15.8976 14.5268 15.9207C14.5163 15.9437 14.4994 15.9634 14.4781 15.9775C14.4567 15.9915 14.4318 15.9993 14.4061 16C14.3804 16.0006 14.3551 15.9941 14.333 15.9812Z" fill="#484848" stroke="#484848" stroke-width="1.5" stroke-linecap="round" stroke-linejoin="round"/>
</svg>
