<svg width="21" height="21" viewBox="0 0 21 21" fill="none" xmlns="http://www.w3.org/2000/svg">
<path d="M7.49874 7C6.85392 7.05363 6.25623 7.35928 5.83527 7.85067C5.41431 8.34206 5.20402 8.97959 5.24999 9.625V19.075C5.24751 19.1177 5.26159 19.1597 5.28929 19.1923C5.317 19.2249 5.3562 19.2456 5.39874 19.25H15.6012C15.6438 19.2456 15.683 19.2249 15.7107 19.1923C15.7384 19.1597 15.7525 19.1177 15.75 19.075V9.625C15.796 8.97959 15.5857 8.34206 15.1647 7.85067C14.7438 7.35928 14.1461 7.05363 13.5012 7V3.5C13.5303 3.06915 13.3888 2.64415 13.1072 2.31674C12.8256 1.98933 12.4266 1.78577 11.9962 1.75H9.00374C8.5734 1.78577 8.17437 1.98933 7.8928 2.31674C7.61123 2.64415 7.4697 3.06915 7.49874 3.5V7Z" stroke="#484848" stroke-width="1.5" stroke-linecap="round" stroke-linejoin="round"/>
<rect x="8" y="2" width="5" height="3" fill="#484848"/>
<path d="M7.49875 5.25H13.5012" stroke="#484848" stroke-width="1.5" stroke-linecap="round" stroke-linejoin="round"/>
</svg>
