<svg width="20" height="20" viewBox="0 0 20 20" fill="none" xmlns="http://www.w3.org/2000/svg">
<path d="M15.0999 3.89909C15.6737 4.34936 16.1178 4.85653 16.4615 5.49893C16.4767 5.52552 16.492 5.55211 16.5077 5.5795C17.0619 6.59073 17.1244 7.88012 16.814 8.97227C16.6161 9.63144 16.3009 10.2217 15.8488 10.7409C15.8306 10.7632 15.8124 10.7855 15.7937 10.8085C15.6675 10.9627 15.5253 11.0904 15.3722 11.2175C15.3466 11.2393 15.3211 11.261 15.2947 11.2834C14.3709 12.05 13.149 12.4381 11.9514 12.3334C11.5282 12.2882 11.0602 12.2271 10.6748 12.0344C10.7246 11.8836 10.7749 11.733 10.828 11.5833C10.9959 11.1047 11.0956 10.6374 11.1173 10.1282C11.1187 10.1013 11.1201 10.0744 11.1216 10.0467C11.1544 8.84226 10.6458 7.68006 9.83585 6.8071C9.34986 6.29824 8.7648 5.94696 8.12189 5.66912C8.25304 5.22405 8.56 4.84701 8.87075 4.51179C8.88796 4.4931 8.90517 4.4744 8.92289 4.45513C10.5014 2.75855 13.24 2.50912 15.0999 3.89909ZM12.3427 4.20544C12.3427 4.57613 12.3427 4.94681 12.3427 5.32873C12.4347 5.34207 12.5267 5.35541 12.6214 5.36915C13.2444 5.46906 13.7895 5.74486 14.1802 6.25058C14.4781 6.681 14.5931 7.1294 14.6574 7.64339C15.0281 7.64339 15.3988 7.64339 15.7807 7.64339C15.7807 7.40604 15.7738 7.20359 15.7275 6.97537C15.7186 6.93137 15.7186 6.93137 15.7095 6.88649C15.6463 6.59781 15.5411 6.33956 15.4063 6.07759C15.388 6.04166 15.3698 6.00572 15.3511 5.96869C14.94 5.21448 14.2139 4.61222 13.3936 4.35274C13.2376 4.30843 13.0803 4.27193 12.9214 4.23948C12.8902 4.23272 12.859 4.22597 12.8269 4.21901C12.6666 4.1992 12.5042 4.20544 12.3427 4.20544Z" fill="#484848"/>
<path d="M8.90905 7.41581C9.38066 7.85314 9.70474 8.39289 9.89193 9.00501C9.90351 9.04274 9.9151 9.08048 9.92703 9.11936C10.1475 10.0051 10.0063 11.0086 9.5429 11.7942C9.00953 12.6506 8.21893 13.2043 7.24114 13.4386C7.19445 13.4477 7.14765 13.4563 7.10073 13.4641C7.07888 13.4679 7.05702 13.4717 7.03451 13.4756C6.12867 13.603 5.19266 13.3886 4.45219 12.85C4.36874 12.7843 4.28793 12.7164 4.2074 12.6472C4.17364 12.6208 4.17364 12.6208 4.13919 12.5939C3.49444 12.0742 3.12458 11.2403 3.01604 10.4346C2.97871 9.92473 2.99973 9.42627 3.15219 8.93693C3.16413 8.89845 3.17606 8.85997 3.18836 8.82032C3.49686 7.94303 4.12562 7.24234 4.95626 6.82651C6.3133 6.21101 7.78921 6.45054 8.90905 7.41581Z" fill="#484848"/>
<path d="M11.9921 13.8399C12.3178 14.1154 12.5506 14.5013 12.6151 14.9278C12.6498 15.5062 12.5606 15.9642 12.1854 16.4252C11.8622 16.774 11.4306 16.9674 10.9584 16.9861C10.4335 16.9928 9.9763 16.8286 9.59023 16.4695C9.23076 16.0838 9.09275 15.6118 9.10185 15.0952C9.12642 14.6388 9.3182 14.2195 9.65366 13.9066C10.3465 13.345 11.2678 13.2927 11.9921 13.8399Z" fill="#484848"/>
<path d="M15.202 12.8854C15.4042 12.8854 15.6064 12.8854 15.8147 12.8854C15.833 12.9641 15.8512 13.0427 15.87 13.1237C15.9535 13.4512 16.115 13.6769 16.3934 13.8726C16.5801 13.9712 16.766 14.0061 16.9721 14.0428C16.9721 14.245 16.9721 14.4471 16.9721 14.6555C16.9054 14.6681 16.8387 14.6807 16.7699 14.6938C16.4378 14.7713 16.1712 14.9433 15.9849 15.2341C15.9042 15.4229 15.8549 15.6118 15.8147 15.8128C15.6125 15.8128 15.4103 15.8128 15.202 15.8128C15.1887 15.7454 15.1753 15.678 15.1616 15.6086C15.0833 15.2702 14.9257 15.04 14.6404 14.8384C14.4567 14.7265 14.2535 14.6968 14.0447 14.6555C14.0447 14.4533 14.0447 14.2511 14.0447 14.0428C14.1458 14.0228 14.1458 14.0228 14.2489 14.0023C14.5873 13.924 14.8175 13.7664 15.0191 13.4811C15.131 13.2975 15.1607 13.0943 15.202 12.8854Z" fill="#484848"/>
<path d="M4.9903 15.3362C5.19468 15.4836 5.3038 15.6723 5.36473 15.9149C5.40354 16.2064 5.334 16.4332 5.16901 16.6723C5.04065 16.8348 4.88908 16.9299 4.68395 16.9701C4.38562 16.9984 4.14848 16.9779 3.90105 16.7999C3.72307 16.6412 3.60896 16.4593 3.58393 16.2207C3.57326 15.9247 3.61889 15.7114 3.80745 15.4809C4.17495 15.1802 4.55745 15.0911 4.9903 15.3362Z" fill="#484848"/>
<path d="M7.27092 3.69486C7.48144 3.83751 7.62972 4.01869 7.67939 4.27352C7.70783 4.59571 7.65271 4.80993 7.48579 5.08195C7.2972 5.26544 7.06896 5.36531 6.80714 5.37341C6.55485 5.36969 6.34001 5.28992 6.15188 5.12024C5.96697 4.91522 5.88395 4.66802 5.89606 4.39332C5.93852 4.11947 6.05859 3.89062 6.27953 3.72251C6.57845 3.54914 6.96329 3.51812 7.27092 3.69486Z" fill="#484848"/>
<path d="M7.38155 14.6725C7.53182 14.7587 7.62018 14.8672 7.67939 15.0299C7.71319 15.2202 7.70471 15.385 7.60919 15.5554C7.51685 15.681 7.42135 15.7666 7.27092 15.8128C7.0686 15.8407 6.89704 15.831 6.7263 15.7107C6.57837 15.5634 6.49384 15.4576 6.47952 15.2426C6.483 15.0695 6.52403 14.9291 6.64639 14.8007C6.86413 14.6073 7.10663 14.5541 7.38155 14.6725Z" fill="#484848"/>
<path d="M3.87552 5.36702C4.03639 5.4767 4.15646 5.6154 4.2074 5.80527C4.22467 5.99172 4.19731 6.11855 4.10529 6.28182C3.96121 6.43338 3.83638 6.52353 3.62236 6.53073C3.45184 6.52851 3.32543 6.48157 3.18623 6.38393C3.02293 6.21226 3.00156 6.06439 3.0046 5.83452C3.02276 5.67998 3.07845 5.57607 3.18623 5.46488C3.39603 5.30388 3.62916 5.28174 3.87552 5.36702Z" fill="#484848"/>
</svg>
