<svg width="20" height="20" viewBox="0 0 20 20" fill="none" xmlns="http://www.w3.org/2000/svg">
<path d="M14.0737 2.87473C14.6475 3.325 15.0916 3.83217 15.4353 4.47457C15.4582 4.51445 15.4582 4.51445 15.4815 4.55515C16.0357 5.56637 16.0982 6.85577 15.7878 7.94791C15.5899 8.60708 15.2747 9.19739 14.8226 9.71659C14.8044 9.73888 14.7862 9.76117 14.7675 9.78413C14.6413 9.93832 14.4991 10.0661 14.346 10.1931C14.3204 10.2149 14.2948 10.2367 14.2685 10.2591C13.5111 10.8876 12.539 11.2721 11.5548 11.3164C11.4966 11.3191 11.4966 11.3191 11.4371 11.3219C10.5002 11.3437 9.53944 11.1132 8.76253 10.5761C8.69917 10.5274 8.69917 10.5274 8.62744 10.5335C8.61292 10.562 8.59839 10.5905 8.58343 10.6198C8.19628 11.3516 7.6099 11.8687 6.85741 12.2014C6.82626 12.2157 6.7951 12.23 6.763 12.2447C5.9413 12.5997 4.95845 12.5456 4.13575 12.2263C3.78096 12.0795 3.47196 11.8727 3.18119 11.6228C3.14743 11.5964 3.14743 11.5964 3.11298 11.5695C2.46822 11.0497 2.09836 10.2159 1.98982 9.41023C1.9525 8.90031 1.97351 8.40185 2.12598 7.91252C2.13791 7.87403 2.14985 7.83555 2.16214 7.7959C2.4797 6.89285 3.1346 6.18434 3.99542 5.77068C4.79698 5.40747 5.73268 5.34489 6.57233 5.62126C6.6292 5.64337 6.6292 5.64337 6.68721 5.66594C6.70617 5.60802 6.70617 5.60802 6.72551 5.54893C6.73503 5.5208 6.74455 5.49267 6.75436 5.4637C6.7801 5.38706 6.80508 5.31016 6.82962 5.23313C7.05601 4.54041 7.41132 3.94856 7.91262 3.41936C7.94268 3.38671 7.97273 3.35407 8.0037 3.32043C9.54834 1.679 12.296 1.54618 14.0737 2.87473ZM8.96783 4.0661C8.93668 4.09405 8.90553 4.122 8.87343 4.1508C8.31835 4.67555 7.93254 5.41462 7.84454 6.17652C7.83855 6.22668 7.83855 6.22668 7.83244 6.27784C7.84925 6.4208 7.91058 6.46832 8.01261 6.56797C8.53219 7.10091 8.94107 7.90142 8.93379 8.65792C8.92326 8.99139 8.92326 8.99139 9.02022 9.30253C9.1002 9.37592 9.17933 9.42546 9.27418 9.47831C9.3126 9.50351 9.35084 9.52896 9.38893 9.55463C9.90144 9.89111 10.4989 10.0925 11.1123 10.1251C11.1392 10.1269 11.1661 10.1287 11.1938 10.1305C12.0628 10.1612 12.9619 9.83049 13.5971 9.24004C13.6286 9.21134 13.66 9.18265 13.6924 9.15308C14.3128 8.56181 14.7345 7.72479 14.7614 6.85956C14.7742 5.96936 14.5633 5.13001 13.9716 4.44053C13.9485 4.41293 13.9254 4.38533 13.9016 4.35689C13.3242 3.68806 12.4802 3.23988 11.5944 3.17389C10.6046 3.12783 9.70939 3.39564 8.96783 4.0661ZM3.71145 7.46828C3.27088 7.98963 3.1442 8.60805 3.18119 9.27408C3.23814 9.7849 3.49448 10.2495 3.86197 10.6016C3.88782 10.6281 3.91366 10.6546 3.94029 10.6819C4.37244 11.1035 4.96075 11.2971 5.55874 11.2897C6.07406 11.2546 6.52021 11.0883 6.92549 10.7718C6.94888 10.7544 6.97226 10.737 6.99636 10.7191C7.41422 10.3862 7.70162 9.83205 7.77647 9.30812C7.83335 8.61741 7.68731 8.03136 7.25524 7.47639C6.84979 7.00609 6.28756 6.70856 5.66604 6.65307C4.88751 6.59987 4.24287 6.91941 3.71145 7.46828Z" fill="#484848"/>
<path d="M10.9659 12.8155C11.2916 13.0911 11.5243 13.477 11.5888 13.9034C11.6236 14.4819 11.5344 14.9398 11.1592 15.4009C10.836 15.7497 10.4044 15.943 9.93216 15.9618C9.40731 15.9685 8.95008 15.8043 8.56401 15.4452C8.20453 15.0594 8.06653 14.5875 8.07563 14.0708C8.1002 13.6145 8.29198 13.1952 8.62744 12.8823C9.32026 12.3206 10.2415 12.2683 10.9659 12.8155ZM9.34904 13.913C9.25998 14.0407 9.26183 14.1612 9.27418 14.3119C9.33195 14.5058 9.42985 14.6285 9.60752 14.7254C9.76641 14.7867 9.90582 14.7878 10.0641 14.7242C10.2269 14.6333 10.3395 14.5255 10.3975 14.3459C10.4294 14.1773 10.4121 14.0437 10.3294 13.8928C10.2309 13.7534 10.1175 13.6804 9.95496 13.6311C9.67507 13.5973 9.52098 13.7072 9.34904 13.913Z" fill="#484848"/>
<path d="M14.1758 11.8611C14.378 11.8611 14.5802 11.8611 14.7885 11.8611C14.8068 11.9397 14.825 12.0183 14.8438 12.0994C14.9273 12.4269 15.0887 12.6526 15.3672 12.8482C15.5538 12.9468 15.7398 12.9817 15.9458 13.0184C15.9458 13.2206 15.9458 13.4228 15.9458 13.6311C15.8791 13.6438 15.8124 13.6564 15.7437 13.6694C15.4116 13.747 15.145 13.919 14.9587 14.2098C14.878 14.3985 14.8287 14.5874 14.7885 14.7884C14.5863 14.7884 14.3841 14.7884 14.1758 14.7884C14.1625 14.721 14.1491 14.6536 14.1354 14.5842C14.0571 14.2459 13.8995 14.0157 13.6142 13.8141C13.4305 13.7021 13.2273 13.6724 13.0185 13.6311C13.0185 13.4289 13.0185 13.2267 13.0185 13.0184C13.1196 12.9984 13.1196 12.9984 13.2227 12.978C13.561 12.8997 13.7913 12.7421 13.9928 12.4568C14.1048 12.2731 14.1345 12.0699 14.1758 11.8611Z" fill="#484848"/>
<path d="M11.2825 4.30438C11.879 4.30438 12.4372 4.48121 12.872 4.90459C12.8978 4.93118 12.9237 4.95777 12.9504 4.98516C12.9903 5.024 12.9903 5.024 13.031 5.06361C13.4544 5.49839 13.6312 6.05658 13.6312 6.65308C13.238 6.65308 12.8449 6.65308 12.4398 6.65308C12.4061 6.51828 12.3724 6.38349 12.3377 6.24461C12.2105 5.93125 12.023 5.751 11.7222 5.59933C11.5804 5.54865 11.4301 5.52528 11.2825 5.49575C11.2825 5.1026 11.2825 4.70945 11.2825 4.30438Z" fill="#484848"/>
<path d="M3.971 14.3293C4.15681 14.4824 4.29031 14.6495 4.33852 14.8905C4.36762 15.2196 4.29352 15.4571 4.08934 15.7156C3.91165 15.902 3.69837 15.9507 3.44925 15.9585C3.19313 15.9559 3.00412 15.8909 2.81208 15.7196C2.59905 15.4883 2.54868 15.2761 2.55652 14.9663C2.58329 14.7206 2.68304 14.5369 2.87484 14.38C3.21684 14.1397 3.6074 14.0798 3.971 14.3293Z" fill="#484848"/>
<path d="M6.2447 2.6705C6.45522 2.81316 6.6035 2.99434 6.65317 3.24917C6.68161 3.57135 6.62649 3.78558 6.45957 4.0576C6.27098 4.24109 6.04274 4.34095 5.78091 4.34906C5.52862 4.34534 5.31379 4.26557 5.12566 4.09589C4.94075 3.89087 4.85773 3.64366 4.86984 3.36897C4.9123 3.09512 5.03237 2.86627 5.25331 2.69816C5.55222 2.52479 5.93707 2.49377 6.2447 2.6705Z" fill="#484848"/>
<path d="M6.35533 13.6481C6.50559 13.7344 6.59396 13.8428 6.65317 14.0055C6.68697 14.1959 6.67849 14.3606 6.58296 14.531C6.49063 14.6566 6.39512 14.7423 6.2447 14.7884C6.04237 14.8164 5.87082 14.8066 5.70008 14.6863C5.55215 14.5391 5.46762 14.4332 5.45329 14.2183C5.45678 14.0451 5.49781 13.9047 5.62016 13.7763C5.8379 13.583 6.08041 13.5297 6.35533 13.6481Z" fill="#484848"/>
<path d="M2.84932 4.34273C3.01019 4.45241 3.13026 4.5911 3.1812 4.78098C3.19846 4.96742 3.17111 5.09425 3.07908 5.25753C2.93501 5.40909 2.81017 5.49924 2.59615 5.50644C2.42564 5.50421 2.29923 5.45727 2.16003 5.35964C1.99673 5.18797 1.97535 5.04009 1.97839 4.81023C1.99655 4.65569 2.05224 4.55178 2.16003 4.44059C2.36982 4.27959 2.60295 4.25744 2.84932 4.34273Z" fill="#484848"/>
</svg>
