<svg width="20" height="20" viewBox="0 0 20 20" fill="none" xmlns="http://www.w3.org/2000/svg">
<path d="M5.84467 5.40877V4" stroke="#484848" stroke-linecap="round" stroke-linejoin="bevel"/>
<path d="M14.334 5.40877V4" stroke="#484848" stroke-linecap="round" stroke-linejoin="bevel"/>
<path d="M15.6 5.40881H4.4C3.6268 5.40881 3 6.0264 3 6.78823V15.0647C3 15.8265 3.6268 16.4441 4.4 16.4441H15.6C16.3732 16.4441 17 15.8265 17 15.0647V6.78823C17 6.0264 16.3732 5.40881 15.6 5.40881Z" fill="#484848" stroke="#484848" stroke-linecap="round" stroke-linejoin="bevel"/>
<path d="M16.9404 8.18225H3" stroke="#F9F9FA" stroke-linecap="round" stroke-linejoin="bevel"/>
<path d="M6.75317 10.244H5.35317C5.15987 10.244 5.00317 10.3984 5.00317 10.5889V11.9683C5.00317 12.1587 5.15987 12.3131 5.35317 12.3131H6.75317C6.94647 12.3131 7.10317 12.1587 7.10317 11.9683V10.5889C7.10317 10.3984 6.94647 10.244 6.75317 10.244Z" fill="#F9F9FA"/>
<path d="M10.7745 10.244H9.37448C9.18118 10.244 9.02448 10.3984 9.02448 10.5889V11.9683C9.02448 12.1587 9.18118 12.3131 9.37448 12.3131H10.7745C10.9678 12.3131 11.1245 12.1587 11.1245 11.9683V10.5889C11.1245 10.3984 10.9678 10.244 10.7745 10.244Z" fill="#F9F9FA"/>
</svg>
