<svg width="20" height="20" viewBox="0 0 20 20" fill="none" xmlns="http://www.w3.org/2000/svg">
<mask id="path-1-inside-1_35_2106" fill="white">
<path d="M12.2478 15.2851L12.2401 17.5751C12.2014 17.9803 11.9047 18.3447 11.51 18.3828C10.8445 18.4481 10.0706 18.3583 9.39218 18.41C8.66216 18.3638 7.87795 18.5269 7.80573 17.4989V15.2987C7.54003 15.1736 7.34655 14.9533 7.24595 14.6623C6.81258 10.5883 6.38178 6.50878 6 2.43201C6.04901 2.07845 6.31987 2.05398 6.60621 2.03766C8.64152 1.91799 10.78 2.13013 12.8256 2.03766C13.2564 2.15732 13.9581 1.82552 14.02 2.5136L12.836 14.5046C12.7792 14.8473 12.5677 15.1736 12.2504 15.2878L12.2478 15.2851ZM13.5067 2.57887H6.49013L7.72318 14.4828C7.78509 14.6378 7.90375 14.7956 8.07658 14.8173H11.9486C12.173 14.801 12.32 14.5862 12.3433 14.3659L13.5067 2.57887ZM11.7267 15.3613H8.32165C8.26748 16.5797 8.26748 17.4717 8.32165 17.6322C8.35776 17.7382 8.42483 17.7954 8.42483 17.7954C8.49964 17.8552 8.58477 17.8606 8.6183 17.8634C8.9098 17.8987 9.83072 17.8634 10.0861 17.8688C10.2899 17.8688 11.0741 17.8987 11.3811 17.8661C11.4223 17.8606 11.5152 17.8498 11.6003 17.779C11.6003 17.779 11.6829 17.7083 11.7267 17.5805C11.7938 17.3901 11.7964 16.5307 11.7267 15.364V15.3613Z"/>
</mask>
<path d="M12.2478 15.2851L13.3361 14.2528L10.7605 11.5377L10.7478 15.28L12.2478 15.2851ZM12.2401 17.5751L13.7333 17.7176L13.7398 17.649L13.7401 17.5801L12.2401 17.5751ZM11.51 18.3828L11.366 16.8897L11.3636 16.89L11.51 18.3828ZM9.39218 18.41L9.29738 19.907L9.40179 19.9136L9.5061 19.9057L9.39218 18.41ZM7.80573 17.4989H6.30573V17.5515L6.30941 17.604L7.80573 17.4989ZM7.80573 15.2987H9.30573V14.347L8.44471 13.9416L7.80573 15.2987ZM7.24595 14.6623L5.75437 14.821L5.77244 14.9909L5.82828 15.1524L7.24595 14.6623ZM6 2.43201L4.51421 2.22604L4.4903 2.39851L4.50653 2.57187L6 2.43201ZM6.60621 2.03766L6.69155 3.53523L6.69425 3.53507L6.60621 2.03766ZM12.8256 2.03766L13.2271 0.592381L12.9967 0.528391L12.7579 0.539188L12.8256 2.03766ZM14.02 2.5136L15.5127 2.661L15.5266 2.52014L15.514 2.37918L14.02 2.5136ZM12.836 14.5046L14.3158 14.7497L14.3239 14.701L14.3287 14.652L12.836 14.5046ZM12.2504 15.2878L11.1621 16.3202L11.8365 17.0311L12.7585 16.6992L12.2504 15.2878ZM13.5067 2.57887L14.9994 2.72621L15.162 1.07887H13.5067V2.57887ZM6.49013 2.57887V1.07887H4.82672L4.99811 2.73342L6.49013 2.57887ZM7.72318 14.4828L6.23116 14.6374L6.25268 14.8451L6.33016 15.0391L7.72318 14.4828ZM8.07658 14.8173L7.88923 16.3056L7.98254 16.3173H8.07658V14.8173ZM11.9486 14.8173V16.3173H12.003L12.0574 16.3134L11.9486 14.8173ZM12.3433 14.3659L13.835 14.5231L13.836 14.5132L12.3433 14.3659ZM11.7267 15.3613H13.2267V13.8613H11.7267V15.3613ZM8.32165 15.3613V13.8613H6.88686L6.82313 15.2946L8.32165 15.3613ZM8.32165 17.6322L6.90045 18.112L6.9017 18.1157L8.32165 17.6322ZM8.42483 17.7954L7.45234 18.9374L7.46991 18.9524L7.48793 18.9668L8.42483 17.7954ZM8.6183 17.8634L8.79891 16.3743L8.76929 16.3707L8.73955 16.3683L8.6183 17.8634ZM10.0861 17.8688L10.0542 19.3685L10.0701 19.3688H10.0861V17.8688ZM11.3811 17.8661L11.5396 19.3577L11.5584 19.3557L11.577 19.3532L11.3811 17.8661ZM11.6003 17.779L12.5588 18.9329L12.5675 18.9256L12.5762 18.9182L11.6003 17.779ZM11.7267 17.5805L10.3119 17.0821L10.3079 17.0937L11.7267 17.5805ZM11.7267 15.364H10.2267V15.4087L10.2294 15.4534L11.7267 15.364ZM12.2478 15.2851L10.7478 15.28L10.7401 17.57L12.2401 17.5751L13.7401 17.5801L13.7478 15.2902L12.2478 15.2851ZM12.2401 17.5751L10.7469 17.4325C10.7571 17.3249 10.7992 17.2207 10.8802 17.1283C10.9652 17.0312 11.1286 16.9126 11.366 16.8897L11.51 18.3828L11.6541 19.8759C12.9262 19.7531 13.6431 18.6622 13.7333 17.7176L12.2401 17.5751ZM11.51 18.3828L11.3636 16.89C11.1343 16.9125 10.8628 16.91 10.4884 16.9019C10.1499 16.8945 9.70598 16.8818 9.27827 16.9143L9.39218 18.41L9.5061 19.9057C9.75682 19.8866 10.039 19.8928 10.4235 19.9012C10.772 19.9087 11.2203 19.9184 11.6564 19.8756L11.51 18.3828ZM9.39218 18.41L9.48699 16.913C9.36249 16.9051 9.24397 16.9021 9.1497 16.9001C9.04597 16.8979 8.97752 16.8968 8.9079 16.894C8.84211 16.8913 8.80388 16.8879 8.78173 16.885C8.75971 16.8821 8.77124 16.8819 8.80358 16.8921C8.83782 16.9029 8.90193 16.9274 8.97773 16.9779C9.05677 17.0304 9.13144 17.1 9.19211 17.1829C9.31383 17.3493 9.30721 17.4674 9.30204 17.3938L7.80573 17.4989L6.30941 17.604C6.34036 18.0445 6.45885 18.5277 6.77073 18.954C7.0961 19.3989 7.52308 19.6339 7.90098 19.7531C8.24625 19.8621 8.57886 19.883 8.78505 19.8914C9.096 19.9042 9.10336 19.8947 9.29738 19.907L9.39218 18.41ZM7.80573 17.4989H9.30573V15.2987H7.80573H6.30573V17.4989H7.80573ZM7.80573 15.2987L8.44471 13.9416C8.49505 13.9653 8.54694 14.0028 8.59042 14.0523C8.63324 14.101 8.65454 14.1459 8.66362 14.1722L7.24595 14.6623L5.82828 15.1524C6.05341 15.8036 6.51475 16.3488 7.16674 16.6558L7.80573 15.2987ZM7.24595 14.6623L8.73753 14.5036C8.30411 10.4291 7.87426 6.35834 7.49347 2.29215L6 2.43201L4.50653 2.57187C4.88931 6.65921 5.32104 10.7474 5.75437 14.821L7.24595 14.6623ZM6 2.43201L7.48579 2.63798C7.47241 2.73451 7.42974 2.90491 7.30208 3.08642C7.17006 3.27415 7.0035 3.39366 6.86049 3.46195C6.73311 3.52278 6.63683 3.5373 6.62337 3.53935C6.61148 3.54116 6.61707 3.53947 6.69155 3.53523L6.60621 2.03766L6.52086 0.540087C6.43831 0.544792 5.99028 0.552999 5.56773 0.754784C5.31508 0.875432 5.05372 1.06837 4.84818 1.36064C4.64701 1.64668 4.5521 1.95273 4.51421 2.22604L6 2.43201ZM6.60621 2.03766L6.69425 3.53507C7.63967 3.47949 8.62239 3.50028 9.674 3.52698C10.7041 3.55312 11.8071 3.58523 12.8934 3.53613L12.8256 2.03766L12.7579 0.539188C11.7986 0.582552 10.8095 0.55483 9.75011 0.527942C8.71224 0.501599 7.60805 0.476164 6.51817 0.540243L6.60621 2.03766ZM12.8256 2.03766L12.4242 3.48293C12.6104 3.53468 12.7793 3.55362 12.906 3.56141C13.0328 3.56921 13.1476 3.56737 13.2268 3.56517C13.2671 3.56406 13.3069 3.56254 13.3362 3.56147C13.3685 3.56028 13.3915 3.55948 13.4122 3.55899C13.456 3.55795 13.461 3.55919 13.4474 3.55816C13.444 3.55789 13.18 3.5446 12.9089 3.31921C12.7672 3.20139 12.6663 3.06023 12.6034 2.92196C12.5442 2.79207 12.5298 2.69013 12.526 2.64802L14.02 2.5136L15.514 2.37918C15.4744 1.93944 15.3021 1.40751 14.8268 1.01235C14.3933 0.651907 13.9153 0.585072 13.6749 0.56679C13.4533 0.549946 13.1829 0.565238 13.1438 0.566322C13.02 0.569749 13.0969 0.556211 13.2271 0.592381L12.8256 2.03766ZM14.02 2.5136L12.5273 2.3662L11.3432 14.3572L12.836 14.5046L14.3287 14.652L15.5127 2.661L14.02 2.5136ZM12.836 14.5046L11.3561 14.2595C11.3629 14.2184 11.3793 14.1671 11.4226 14.1067C11.4674 14.0444 11.567 13.9396 11.7423 13.8765L12.2504 15.2878L12.7585 16.6992C13.7338 16.348 14.1991 15.4544 14.3158 14.7497L12.836 14.5046ZM12.2504 15.2878L13.3386 14.2555L13.3361 14.2528L12.2478 15.2851L11.1596 16.3174L11.1621 16.3202L12.2504 15.2878ZM13.5067 2.57887V1.07887H6.49013V2.57887V4.07887H13.5067V2.57887ZM6.49013 2.57887L4.99811 2.73342L6.23116 14.6374L7.72318 14.4828L9.21519 14.3283L7.98214 2.42432L6.49013 2.57887ZM7.72318 14.4828L6.33016 15.0391C6.45122 15.3423 6.8774 16.1782 7.88923 16.3056L8.07658 14.8173L8.26393 13.3291C8.60253 13.3717 8.82781 13.5439 8.94091 13.6618C9.0476 13.7731 9.09519 13.8739 9.11619 13.9265L7.72318 14.4828ZM8.07658 14.8173V16.3173H11.9486V14.8173V13.3173H8.07658V14.8173ZM11.9486 14.8173L12.0574 16.3134C13.2928 16.2236 13.7704 15.1359 13.835 14.5231L12.3433 14.3659L10.8515 14.2087C10.8674 14.0576 10.9247 13.8851 11.0575 13.7218C11.2009 13.5455 11.467 13.3484 11.8398 13.3213L11.9486 14.8173ZM12.3433 14.3659L13.836 14.5132L14.9994 2.72621L13.5067 2.57887L12.0139 2.43153L10.8505 14.2185L12.3433 14.3659ZM11.7267 15.3613V13.8613H8.32165V15.3613V16.8613H11.7267V15.3613ZM8.32165 15.3613L6.82313 15.2946C6.79545 15.9171 6.78102 16.4685 6.78102 16.8935C6.78102 17.1042 6.78454 17.2987 6.79336 17.462C6.79793 17.5464 6.80988 17.8437 6.90045 18.112L8.32165 17.6322L9.74284 17.1524C9.76989 17.2325 9.78195 17.2935 9.78594 17.3145C9.79094 17.341 9.79289 17.3573 9.79309 17.359C9.79339 17.3615 9.79138 17.3443 9.78899 17.3C9.78427 17.2128 9.78102 17.0781 9.78102 16.8935C9.78102 16.5277 9.79367 16.0238 9.82017 15.4279L8.32165 15.3613ZM8.32165 17.6322L6.9017 18.1157C6.98414 18.3578 7.10109 18.5429 7.19993 18.6708C7.25013 18.7358 7.29861 18.7898 7.34099 18.8332C7.36232 18.855 7.38249 18.8745 7.40108 18.8918C7.41039 18.9004 7.41934 18.9085 7.42788 18.9161C7.43216 18.9199 7.43634 18.9236 7.44041 18.9271C7.44245 18.9289 7.44446 18.9307 7.44645 18.9324C7.44745 18.9332 7.44843 18.9341 7.44941 18.9349C7.4499 18.9353 7.45039 18.9357 7.45088 18.9362C7.45112 18.9364 7.45149 18.9367 7.45161 18.9368C7.45197 18.9371 7.45234 18.9374 8.42483 17.7954C9.39733 16.6533 9.39769 16.6536 9.39805 16.6539C9.39817 16.654 9.39854 16.6544 9.39878 16.6546C9.39926 16.655 9.39974 16.6554 9.40022 16.6558C9.40119 16.6566 9.40215 16.6574 9.40311 16.6583C9.40504 16.6599 9.40695 16.6616 9.40886 16.6632C9.41268 16.6666 9.41648 16.6699 9.42025 16.6733C9.4278 16.68 9.43528 16.6867 9.44268 16.6936C9.45745 16.7073 9.47211 16.7216 9.48658 16.7364C9.51526 16.7657 9.54471 16.7989 9.57364 16.8363C9.62991 16.9091 9.69526 17.0126 9.74159 17.1487L8.32165 17.6322ZM8.42483 17.7954L7.48793 18.9668C7.7273 19.1582 7.97158 19.253 8.15474 19.3012C8.2467 19.3255 8.32705 19.339 8.38846 19.3471C8.44692 19.3548 8.49851 19.3586 8.49705 19.3584L8.6183 17.8634L8.73955 16.3683C8.70534 16.3655 9.04581 16.3713 9.36174 16.6239L8.42483 17.7954ZM8.6183 17.8634L8.43769 19.3524C8.70595 19.385 9.12613 19.3804 9.38453 19.3772C9.73045 19.3728 9.95967 19.3664 10.0542 19.3685L10.0861 17.8688L10.118 16.3691C9.95715 16.3657 9.59821 16.3743 9.34696 16.3774C9.20182 16.3792 9.06654 16.38 8.95461 16.3785C8.82477 16.3768 8.784 16.3725 8.79891 16.3743L8.6183 17.8634ZM10.0861 17.8688V19.3688C10.1856 19.3688 10.3581 19.3754 10.6753 19.3795C10.9148 19.3827 11.2808 19.3852 11.5396 19.3577L11.3811 17.8661L11.2225 16.3745C11.2253 16.3742 11.2124 16.3755 11.1782 16.3771C11.1462 16.3785 11.1053 16.3797 11.0555 16.3804C10.9556 16.3819 10.838 16.3814 10.7145 16.3798C10.5918 16.3782 10.4711 16.3756 10.3634 16.3733C10.2657 16.3712 10.1575 16.3688 10.0861 16.3688V17.8688ZM11.3811 17.8661L11.577 19.3532C11.6343 19.3457 12.1156 19.301 12.5588 18.9329L11.6003 17.779L10.6419 16.6252C10.9148 16.3985 11.2104 16.3756 11.1851 16.3789L11.3811 17.8661ZM11.6003 17.779C12.5762 18.9182 12.5765 18.9179 12.5769 18.9176C12.577 18.9175 12.5773 18.9172 12.5776 18.917C12.578 18.9166 12.5785 18.9162 12.579 18.9158C12.5799 18.915 12.5809 18.9142 12.5819 18.9133C12.5838 18.9116 12.5858 18.9099 12.5877 18.9082C12.5917 18.9047 12.5958 18.9011 12.6 18.8974C12.6084 18.8899 12.6173 18.8818 12.6266 18.8731C12.6451 18.8559 12.6654 18.8362 12.6871 18.814C12.7301 18.7699 12.78 18.7144 12.8321 18.6473C12.9342 18.5158 13.0582 18.322 13.1456 18.0673L11.7267 17.5805L10.3079 17.0937C10.3515 16.9668 10.4122 16.8724 10.4621 16.8081C10.488 16.7746 10.5146 16.7448 10.5407 16.718C10.554 16.7044 10.5675 16.6913 10.5813 16.6784C10.5883 16.6719 10.5953 16.6655 10.6025 16.6591C10.6061 16.6559 10.6097 16.6527 10.6134 16.6495C10.6152 16.6479 10.6171 16.6463 10.6189 16.6447C10.6198 16.6439 10.6208 16.6431 10.6217 16.6423C10.6222 16.6419 10.6226 16.6415 10.6231 16.6411C10.6233 16.6409 10.6237 16.6406 10.6238 16.6405C10.6241 16.6402 10.6245 16.6399 11.6003 17.779ZM11.7267 17.5805L13.1415 18.0789C13.2346 17.8145 13.2536 17.5333 13.2613 17.4202C13.2731 17.2484 13.2778 17.0499 13.278 16.8396C13.2784 16.4158 13.2601 15.8775 13.2241 15.2746L11.7267 15.364L10.2294 15.4534C10.2631 16.0172 10.2783 16.4919 10.278 16.8371C10.2779 17.0113 10.2737 17.1364 10.2683 17.2156C10.2656 17.2555 10.2635 17.2694 10.2642 17.2641C10.2647 17.2608 10.2671 17.2449 10.2725 17.2199C10.2773 17.1976 10.2889 17.1475 10.312 17.0821L11.7267 17.5805ZM11.7267 15.364H13.2267V15.3613H11.7267H10.2267V15.364H11.7267Z" fill="black" mask="url(#path-1-inside-1_35_2106)"/>
</svg>
