<svg width="20" height="20" viewBox="0 0 20 20" fill="none" xmlns="http://www.w3.org/2000/svg">
<path d="M6.20661 2.06888C6.27251 2.01616 6.33577 2.00562 6.41221 2.00562C8.28638 2.00562 11.4495 2.00035 13.3791 2.00035C13.5003 2.00825 13.6216 1.98189 13.7244 2.02934C13.8904 2.11106 13.9959 2.32193 14.0222 2.49327C13.9405 3.66364 12.9942 13.5379 12.8782 14.6635C12.8334 14.7795 12.7043 14.9535 12.5698 15.0035C12.4697 15.0457 12.3036 15.022 12.1692 15.0299C11.0199 15.0404 8.57107 15.0404 7.73283 15.0484C7.5694 15.051 7.42442 15.0378 7.30317 14.8955C7.1661 14.7531 7.10283 14.4895 7.08175 14.276C6.66263 10.417 6.40431 6.53684 6.00364 2.67252C5.98255 2.46428 6.05372 2.17959 6.20134 2.06625L6.20661 2.06888Z" fill="#484848"/>
<path d="M12.1692 15.6599C12.2008 15.7627 12.1823 16.0369 12.1876 16.1766C12.1876 16.5087 12.1876 16.9252 12.1876 17.2758C12.1876 17.4155 12.1876 17.5525 12.1876 17.6896C12.1929 17.9716 12.1902 18.1377 12.0005 18.3143C11.9214 18.3934 11.8186 18.4145 11.7105 18.4119C11.4311 18.4119 10.7879 18.4119 10.1263 18.4092C9.65972 18.4092 9.08508 18.4092 8.66332 18.4066C8.48935 18.396 8.25738 18.4356 8.11241 18.3723C7.98324 18.3011 7.89099 18.1773 7.8699 18.0112C7.85408 17.4313 7.8699 16.2846 7.86463 15.8286C7.8699 15.7205 7.84354 15.6151 7.99379 15.6309C8.88474 15.6309 10.9672 15.6309 12.0743 15.6309C12.1112 15.6309 12.1481 15.6309 12.1692 15.6599Z" fill="#484848"/>
</svg>
