<svg width="20" height="20" viewBox="0 0 20 20" fill="none" xmlns="http://www.w3.org/2000/svg">
<path d="M12.9308 6H3.82179C2.81564 6 2 6.81564 2 7.82179V13.2872C2 14.2933 2.81564 15.109 3.82179 15.109H12.9308C13.9369 15.109 14.7526 14.2933 14.7526 13.2872V7.82179C14.7526 6.81564 13.9369 6 12.9308 6Z" stroke="#484848" stroke-linecap="round" stroke-linejoin="round"/>
<path d="M14.7252 8.73267H18.132C18.1605 8.73278 18.1886 8.7396 18.2141 8.75257C18.2395 8.76554 18.2615 8.78431 18.2783 8.80736C18.2952 8.8304 18.3064 8.85708 18.311 8.88525C18.3157 8.91341 18.3136 8.94227 18.305 8.9695L17.1937 12.9046C17.1822 12.9414 17.1591 12.9737 17.128 12.9966C17.0969 13.0195 17.0593 13.0319 17.0207 13.0321H14.7252" stroke="#484848" stroke-linecap="round" stroke-linejoin="round"/>
</svg>
