<svg width="20" height="20" viewBox="0 0 20 20" fill="none" xmlns="http://www.w3.org/2000/svg">
<path d="M16.7681 5.40353H3.65192C2.73959 5.40353 2 6.14312 2 7.05545V15.3481C2 16.2604 2.73959 17 3.65192 17H16.7681C17.6805 17 18.4201 16.2604 18.4201 15.3481V7.05545C18.4201 6.14312 17.6805 5.40353 16.7681 5.40353Z" fill="#484848" stroke="#484848" stroke-linecap="round" stroke-linejoin="round"/>
<path d="M10.5322 13.5723C11.9736 13.5723 13.1422 12.4037 13.1422 10.9623C13.1422 9.52078 11.9736 8.35223 10.5322 8.35223C9.09068 8.35223 7.92213 9.52078 7.92213 10.9623C7.92213 12.4037 9.09068 13.5723 10.5322 13.5723Z" stroke="#F9F9FA" stroke-linecap="round" stroke-linejoin="round"/>
<path d="M15.5375 9.0295C15.8385 9.0295 16.0826 8.78544 16.0826 8.48437C16.0826 8.1833 15.8385 7.93924 15.5375 7.93924C15.2364 7.93924 14.9923 8.1833 14.9923 8.48437C14.9923 8.78544 15.2364 9.0295 15.5375 9.0295Z" stroke="#F9F9FA" stroke-width="0.4" stroke-linecap="round" stroke-linejoin="round"/>
<path d="M4.01534 3H7.2531" stroke="#484848" stroke-linecap="round" stroke-linejoin="round"/>
</svg>
