<svg width="20" height="20" viewBox="0 0 20 20" fill="none" xmlns="http://www.w3.org/2000/svg">
<path d="M16.4041 3H3.62025C3.19054 3 2.77842 3.1707 2.47456 3.47456C2.1707 3.77842 2 4.19054 2 4.62025V11.96C2 12.1728 2.04191 12.3835 2.12333 12.58C2.20476 12.7766 2.32411 12.9552 2.47456 13.1057C2.62502 13.2561 2.80363 13.3755 3.00021 13.4569C3.19679 13.5383 3.40748 13.5803 3.62025 13.5803H4.94886L6.82025 16.8208C6.88025 16.9269 6.96737 17.0153 7.0727 17.0767C7.17803 17.1382 7.2978 17.1706 7.41975 17.1706C7.5417 17.1706 7.66146 17.1382 7.76679 17.0767C7.87212 17.0153 7.95924 16.9269 8.01924 16.8208L9.89873 13.5803H16.3797C16.8095 13.5803 17.2216 13.4095 17.5254 13.1057C17.8293 12.8018 18 12.3897 18 11.96V4.62025C18 4.19471 17.8327 3.78624 17.5341 3.48307C17.2354 3.1799 16.8295 3.00638 16.4041 3Z" stroke="#484848" stroke-width="1.2" stroke-linecap="round" stroke-linejoin="round"/>
<path d="M4.34933 6.73468H9.21009" stroke="#484848" stroke-width="1.2" stroke-linecap="round" stroke-linejoin="round"/>
<path d="M4.34933 9.97516H14.881" stroke="#484848" stroke-width="1.2" stroke-linecap="round" stroke-linejoin="round"/>
</svg>
