<svg width="20" height="20" viewBox="0 0 20 20" fill="none" xmlns="http://www.w3.org/2000/svg">
<path d="M9.46667 6.31521V6.20001" stroke="#484848" stroke-width="1.4" stroke-linecap="round" stroke-linejoin="round"/>
<path d="M9.46667 8.5426L9.46667 12.6001" stroke="#484848" stroke-width="1.4" stroke-linecap="round" stroke-linejoin="round"/>
<path d="M4.28571 3H15.7143C16.3205 3 16.9019 3.24205 17.3305 3.6729C17.7592 4.10376 18 4.68812 18 5.29744V12.1897C18 12.7991 17.7592 13.3834 17.3305 13.8143C16.9019 14.2451 16.3205 14.4872 15.7143 14.4872H12.2857L8.85714 17.9333L5.42857 14.4872H4.28571C3.67951 14.4872 3.09812 14.2451 2.66947 13.8143C2.24082 13.3834 2 12.7991 2 12.1897V5.29744C2 4.68812 2.24082 4.10376 2.66947 3.6729C3.09812 3.24205 3.67951 3 4.28571 3Z" stroke="#484848" stroke-width="1.5" stroke-linecap="round" stroke-linejoin="round"/>
</svg>
