<svg width="20" height="20" viewBox="0 0 20 20" fill="none" xmlns="http://www.w3.org/2000/svg">
<path d="M13.2 7H16.4C16.8243 7 17.2313 7.16857 17.5314 7.46863C17.8314 7.76869 18 8.17565 18 8.6V13.4C18 13.8243 17.8314 14.2313 17.5314 14.5314C17.2313 14.8314 16.8243 15 16.4 15H14.8L13.2 17.4L10.8 15H8.39999C7.97564 15 7.56868 14.8314 7.26862 14.5314C6.96856 14.2313 6.79999 13.8243 6.79999 13.4" fill="#484848"/>
<path d="M13.2 7H16.4C16.8243 7 17.2313 7.16857 17.5314 7.46863C17.8314 7.76869 18 8.17565 18 8.6V13.4C18 13.8244 17.8314 14.2313 17.5314 14.5314C17.2313 14.8314 16.8243 15 16.4 15H14.8L13.2 17.4L10.8 15H8.39999C7.97564 15 7.56868 14.8314 7.26862 14.5314C6.96856 14.2313 6.79999 13.8244 6.79999 13.4" stroke="#484848" stroke-width="1.2" stroke-linecap="round" stroke-linejoin="round"/>
<path d="M3.6 3H11.6C12.0244 3 12.4313 3.16857 12.7314 3.46863C13.0314 3.76869 13.2 4.17565 13.2 4.6V9.4C13.2 9.82435 13.0314 10.2313 12.7314 10.5314C12.4313 10.8314 12.0244 11 11.6 11H9.2L6.8 13.4L4.4 11H3.6C3.17565 11 2.76869 10.8314 2.46863 10.5314C2.16857 10.2313 2 9.82435 2 9.4V4.6C2 4.17565 2.16857 3.76869 2.46863 3.46863C2.76869 3.16857 3.17565 3 3.6 3Z" fill="#484848" stroke="#F9F9FA" stroke-width="1.2" stroke-linecap="round" stroke-linejoin="round"/>
</svg>
