<svg width="20" height="20" viewBox="0 0 20 20" fill="none" xmlns="http://www.w3.org/2000/svg">
<path fill-rule="evenodd" clip-rule="evenodd" d="M8.79167 2.64585H7.94271C7.85938 2.64585 7.77604 2.6146 7.71875 2.5521C7.66146 2.49481 7.625 2.41148 7.625 2.32815C7.625 1.97919 7.76563 1.64585 8.01042 1.39585C8.25521 1.14585 8.59375 1.01044 8.9375 1.01044H13.1094C13.2135 1.01044 13.3438 1.02606 13.3438 1.24481C13.3438 1.6146 13.1979 1.97398 12.9323 2.2344C12.6719 2.49481 12.3125 2.64585 11.9427 2.64585H10.1354V3.34377H10.3385C10.6302 3.34377 10.8646 3.57815 10.8646 3.86981V5.34898C11.401 5.5469 11.8958 5.8646 12.3125 6.27606C13.0677 7.03127 13.4896 8.05731 13.4896 9.12502V17.8802C13.4896 18.4948 12.9948 18.9896 12.3802 18.9896H11.7969C11.6667 18.9896 11.5625 18.8854 11.5625 18.7552C11.5625 18.625 11.6667 18.5209 11.7969 18.5209H12.3802C12.7344 18.5209 13.0208 18.2344 13.0208 17.8802V15.4896H5.90625V17.8802C5.90625 18.2344 6.19271 18.5209 6.54687 18.5209H10.6302C10.7604 18.5209 10.8646 18.625 10.8646 18.7552C10.8646 18.8854 10.7604 18.9896 10.6302 18.9896H6.54687C5.93229 18.9896 5.4375 18.4948 5.4375 17.8802V9.12502C5.4375 7.39585 6.53125 5.91669 8.0625 5.34898V3.87502C8.0625 3.58335 8.29687 3.34898 8.58854 3.34898H8.79167V2.65106V2.64585ZM9.46354 5.56252H9.44792H9.44271C9.07813 5.56252 8.71875 5.62502 8.375 5.7344C8.36979 5.7344 8.35937 5.7344 8.35417 5.7396C6.93229 6.20835 5.91146 7.5469 5.91146 9.11981V9.1771H7.13542C7.26562 9.1771 7.36979 9.28127 7.36979 9.41148C7.36979 9.54169 7.26562 9.64585 7.13542 9.64585H5.91146V15.0156H13.0312V9.64585H8.30208C8.17187 9.64585 8.06771 9.54169 8.06771 9.41148C8.06771 9.28127 8.17187 9.1771 8.30208 9.1771H13.0312V9.11981C13.0312 8.1771 12.6562 7.27085 11.9896 6.60419C11.3281 5.94273 10.4323 5.56773 9.49479 5.56252H9.48438H9.47396H9.46354ZM9.46354 5.09898H9.47396H9.47917H9.48438H9.48958C9.79167 5.09898 10.0885 5.14065 10.375 5.20835V3.87502C10.375 3.84377 10.349 3.81773 10.3177 3.81773H8.56771C8.53646 3.81773 8.51042 3.84377 8.51042 3.87502V5.20835C8.79687 5.14065 9.09375 5.10419 9.40104 5.09898H9.40625H9.41146H9.42187C9.42187 5.09898 9.43229 5.09898 9.4375 5.09898H9.46354ZM9.67188 3.34898H9.26562V2.65106H9.67188V3.34898ZM8.10938 2.18231H11.9479C12.1979 2.18231 12.4323 2.08335 12.6094 1.91148C12.7292 1.79169 12.8125 1.64585 12.8542 1.4844H8.94792C8.72396 1.4844 8.50521 1.57294 8.34896 1.7344C8.22396 1.8594 8.14583 2.01565 8.11458 2.18752L8.10938 2.18231Z" fill="#484848"/>
</svg>
