<svg width="20" height="20" viewBox="0 0 20 20" fill="none" xmlns="http://www.w3.org/2000/svg">
<path d="M12.8698 9.18231H6.1094C5.95982 9.18231 5.83856 9.30357 5.83856 9.45315V18.5104C5.83856 18.66 5.95982 18.7813 6.1094 18.7813H12.8698C13.0194 18.7813 13.1406 18.66 13.1406 18.5104V9.45315C13.1406 9.30357 13.0194 9.18231 12.8698 9.18231Z" fill="#484848"/>
<path d="M11.9271 18.1406H10.5834V18.9844H11.9271V18.1406Z" fill="#484848"/>
<path fill-rule="evenodd" clip-rule="evenodd" d="M8.79167 2.64585H7.94271C7.85938 2.64585 7.77604 2.6146 7.71875 2.5521C7.66146 2.49481 7.625 2.41148 7.625 2.32815C7.625 1.97919 7.76563 1.64585 8.01042 1.39585C8.25521 1.14585 8.59375 1.01044 8.9375 1.01044H13.1094C13.2135 1.01044 13.3438 1.02606 13.3438 1.24481C13.3438 1.6146 13.1979 1.97398 12.9323 2.2344C12.6719 2.49481 12.3125 2.64585 11.9427 2.64585H10.1354V3.34377H10.3385C10.6302 3.34377 10.8646 3.57815 10.8646 3.86981V5.34898C11.401 5.5469 11.8958 5.8646 12.3125 6.27606C13.0677 7.03127 13.4896 8.05731 13.4896 9.12502V17.8802C13.4896 18.4948 12.9948 18.9896 12.3802 18.9896H11.7969C11.6667 18.9896 11.5625 18.8854 11.5625 18.7552C11.5625 18.625 11.6667 18.5209 11.7969 18.5209H12.3802C12.7344 18.5209 13.0208 18.2344 13.0208 17.8802V15.4896H5.90625V17.8802C5.90625 18.2344 6.19271 18.5209 6.54687 18.5209H10.6302C10.7604 18.5209 10.8646 18.625 10.8646 18.7552C10.8646 18.8854 10.7604 18.9896 10.6302 18.9896H6.54687C5.93229 18.9896 5.4375 18.4948 5.4375 17.8802V9.12502C5.4375 7.39585 6.53125 5.91669 8.0625 5.34898V3.87502C8.0625 3.58335 8.29687 3.34898 8.58854 3.34898H8.79167V2.65106V2.64585ZM9.46354 5.56252H9.44792H9.44271C9.07813 5.56252 8.71875 5.62502 8.375 5.7344C8.36979 5.7344 8.35937 5.7344 8.35417 5.7396C6.93229 6.20835 5.91146 7.5469 5.91146 9.11981V9.1771H7.13542C7.26562 9.1771 7.36979 9.28127 7.36979 9.41148C7.36979 9.54169 7.26562 9.64585 7.13542 9.64585H5.91146V15.0156H13.0312V9.64585H8.30208C8.17187 9.64585 8.06771 9.54169 8.06771 9.41148C8.06771 9.28127 8.17187 9.1771 8.30208 9.1771H13.0312V9.11981C13.0312 8.1771 12.6562 7.27085 11.9896 6.60419C11.3281 5.94273 10.4323 5.56773 9.49479 5.56252H9.48438H9.47396H9.46354Z" fill="#484848"/>
</svg>
