<svg width="20" height="20" viewBox="0 0 20 20" fill="none" xmlns="http://www.w3.org/2000/svg">
<path fill-rule="evenodd" clip-rule="evenodd" d="M14.525 6.79995C14.0827 5.99001 13.4273 5.31649 12.6297 4.85232C11.8321 4.38815 10.9227 4.15103 10 4.16662C9.07732 4.15103 8.16793 4.38815 7.37033 4.85232C6.57273 5.31649 5.9173 5.99001 5.47502 6.79995C4.42893 6.99832 3.48166 7.54722 2.78937 8.35615C2.09708 9.16509 1.70109 10.1858 1.66669 11.2499C1.7251 12.5197 2.28387 13.7146 3.22083 14.5735C4.15779 15.4323 5.3967 15.8853 6.66669 15.8333C7.3098 15.8325 7.9476 15.7167 8.55002 15.4916C9.0004 15.7161 9.49677 15.833 10 15.833C10.5033 15.833 10.9996 15.7161 11.45 15.4916C12.0524 15.7167 12.6902 15.8325 13.3334 15.8333C14.6033 15.8853 15.8423 15.4323 16.7792 14.5735C17.7162 13.7146 18.2749 12.5197 18.3334 11.2499C18.2989 10.1858 17.903 9.16509 17.2107 8.35615C16.5184 7.54722 15.5711 6.99832 14.525 6.79995Z" stroke="#484848" stroke-linecap="round" stroke-linejoin="round"/>
</svg>
