<svg width="20" height="20" viewBox="0 0 20 20" fill="none" xmlns="http://www.w3.org/2000/svg">
<path d="M6.91512 7.46745C6.50655 7.87603 6.44771 7.94793 6.44771 8.03945C6.44771 8.18 6.57192 8.30748 6.7092 8.30748C6.79091 8.30748 6.85628 8.26499 7.02298 8.10483L7.23217 7.90544V8.94158V9.97772L7.31388 10.0562C7.36291 10.1085 7.43155 10.1379 7.49365 10.1379C7.55576 10.1379 7.6244 10.1085 7.67343 10.0562L7.75514 9.97772V8.94158V7.90544L7.96433 8.10483C8.13103 8.26499 8.1964 8.30748 8.27811 8.30748C8.41539 8.30748 8.5396 8.18 8.5396 8.03945C8.5396 7.94793 8.48076 7.87603 8.07219 7.46745C7.65382 7.04908 7.59498 7.00005 7.49365 7.00005C7.39233 7.00005 7.33349 7.04908 6.91512 7.46745Z" fill="#484848"/>
<path d="M9.79146 7.46745C9.38289 7.87603 9.32406 7.94793 9.32406 8.03945C9.32406 8.18 9.44826 8.30748 9.58554 8.30748C9.66726 8.30748 9.73263 8.26499 9.89933 8.10483L10.1085 7.90544V8.94158V9.97772L10.1902 10.0562C10.2393 10.1085 10.3079 10.1379 10.37 10.1379C10.4321 10.1379 10.5007 10.1085 10.5498 10.0562L10.6315 9.97772V8.94158V7.90544L10.8407 8.10483C11.0074 8.26499 11.0727 8.30748 11.1545 8.30748C11.2917 8.30748 11.4159 8.18 11.4159 8.03945C11.4159 7.94793 11.3571 7.87603 10.9485 7.46745C10.5302 7.04908 10.4713 7.00005 10.37 7.00005C10.2687 7.00005 10.2098 7.04908 9.79146 7.46745Z" fill="#484848"/>
<path d="M12.6678 7.46745C12.2592 7.87603 12.2004 7.94793 12.2004 8.03945C12.2004 8.18 12.3246 8.30748 12.4619 8.30748C12.5436 8.30748 12.609 8.26499 12.7757 8.10483L12.9849 7.90544V8.94158V9.97772L13.0666 10.0562C13.1156 10.1085 13.1842 10.1379 13.2463 10.1379C13.3084 10.1379 13.3771 10.1085 13.4261 10.0562L13.5078 9.97772V8.94158V7.90544L13.717 8.10483C13.8837 8.26499 13.9491 8.30748 14.0308 8.30748C14.1681 8.30748 14.2923 8.18 14.2923 8.03945C14.2923 7.94793 14.2335 7.87603 13.8249 7.46745C13.4065 7.04908 13.3477 7.00005 13.2463 7.00005C13.145 7.00005 13.0862 7.04908 12.6678 7.46745Z" fill="#484848"/>
<path d="M2.52542 10.7033C2.36526 10.7556 2.0907 11.0367 2.04167 11.2034C1.98611 11.3962 1.98611 15.6781 2.04167 15.8709C2.09397 16.0507 2.36526 16.322 2.54503 16.3743C2.64963 16.4037 4.42773 16.4135 10.3765 16.4135C19.0513 16.4135 18.2603 16.4397 18.5186 16.152C18.597 16.067 18.6787 15.9363 18.6983 15.8644C18.7539 15.6781 18.7539 11.393 18.6983 11.2034C18.646 11.0236 18.3747 10.7523 18.195 10.7C18.0152 10.6477 15.4853 10.6445 15.2336 10.6968C15.1388 10.7164 14.9493 10.785 14.8185 10.8471C14.5668 10.9681 14.3969 11.1184 13.9524 11.6218C13.5274 12.1023 12.6809 12.4716 11.563 12.6612C10.9878 12.756 9.81761 12.7658 9.27503 12.6743C8.05585 12.4749 7.21583 12.1153 6.77457 11.6087C6.36273 11.1348 6.17315 10.9681 5.92147 10.8471C5.79073 10.785 5.60115 10.7164 5.50636 10.6968C5.27103 10.6477 2.68231 10.6543 2.52542 10.7033ZM5.64037 11.2884C5.88552 11.4028 5.98357 11.4878 6.22872 11.795C6.46405 12.0859 6.75169 12.3311 7.10143 12.5304C8.60497 13.3933 11.2362 13.5208 13.0339 12.8148C13.6843 12.5599 14.1583 12.233 14.5113 11.795C14.7564 11.4878 14.8545 11.4028 15.0996 11.2884L15.2892 11.2001L16.6685 11.1903L18.0511 11.1805L18.1329 11.2622C18.208 11.3374 18.2146 11.3668 18.2146 11.6545V11.9617L18.0446 11.9846C17.6949 12.0303 17.4203 12.1023 17.0346 12.2461C16.8156 12.3278 16.5149 12.416 16.3613 12.4422C15.8187 12.537 15.1748 12.4879 14.6911 12.3114C14.4067 12.2101 14.3413 12.2101 14.2433 12.3114C14.155 12.3964 14.1387 12.5174 14.1975 12.6252C14.2825 12.7854 14.9722 12.9782 15.5736 13.0044C16.2011 13.0338 16.6555 12.9586 17.234 12.7266C17.4922 12.6252 17.7995 12.5435 18.061 12.5076L18.2146 12.4879V14.1092V15.7304L18.1329 15.8088L18.0544 15.8905H10.37H2.68558L2.60714 15.8088L2.52542 15.7304V14.1092V12.4879L2.68231 12.5076C2.93399 12.5435 3.20856 12.6187 3.52234 12.7364C4.11722 12.9652 4.27411 12.9913 4.96051 12.9913C5.52271 12.9913 5.61096 12.9848 5.89205 12.9096C6.49347 12.7494 6.65036 12.6154 6.53596 12.3768C6.46079 12.2167 6.36273 12.2036 6.05875 12.3082C5.31352 12.5664 4.50945 12.5501 3.7446 12.2591C3.38833 12.1251 3.00264 12.0238 2.69866 11.9846L2.52542 11.9617V11.6545C2.52542 11.3668 2.53196 11.3374 2.60714 11.2622L2.68885 11.1805L4.07146 11.1903L5.4508 11.2001L5.64037 11.2884Z" fill="#484848"/>
<path d="M3.13011 13.8804C3.07781 13.9294 3.0484 13.998 3.0484 14.0601C3.0484 14.1222 3.07781 14.1909 3.13011 14.2399C3.29027 14.4033 3.57137 14.2889 3.57137 14.0601C3.57137 13.9261 3.44389 13.7987 3.30988 13.7987C3.24778 13.7987 3.17914 13.8281 3.13011 13.8804Z" fill="#484848"/>
<path d="M6.79091 13.8803C6.62749 14.0405 6.74189 14.3216 6.97069 14.3216C7.03279 14.3216 7.10143 14.2922 7.15046 14.2399C7.20275 14.1909 7.23217 14.1222 7.23217 14.0601C7.23217 13.998 7.20275 13.9294 7.15046 13.8803C7.10143 13.828 7.03279 13.7986 6.97069 13.7986C6.90858 13.7986 6.83994 13.828 6.79091 13.8803Z" fill="#484848"/>
<path d="M10.1902 13.8803C10.0268 14.0405 10.1412 14.3216 10.37 14.3216C10.504 14.3216 10.6315 14.1941 10.6315 14.0601C10.6315 13.9261 10.504 13.7986 10.37 13.7986C10.3079 13.7986 10.2393 13.828 10.1902 13.8803Z" fill="#484848"/>
<path d="M13.5895 13.8803C13.4261 14.0405 13.5405 14.3216 13.7693 14.3216C13.9033 14.3216 14.0308 14.1941 14.0308 14.0601C14.0308 13.9261 13.9033 13.7986 13.7693 13.7986C13.7072 13.7986 13.6386 13.828 13.5895 13.8803Z" fill="#484848"/>
<path d="M17.2503 13.8803C17.0869 14.0405 17.2013 14.3216 17.4301 14.3216C17.5641 14.3216 17.6916 14.1941 17.6916 14.0601C17.6916 13.9261 17.5641 13.7986 17.4301 13.7986C17.368 13.7986 17.2994 13.828 17.2503 13.8803Z" fill="#484848"/>
<path d="M4.96051 14.9263C4.90821 14.9753 4.8788 15.044 4.8788 15.1061C4.8788 15.1682 4.90821 15.2368 4.96051 15.2858C5.00954 15.3381 5.07818 15.3676 5.14028 15.3676C5.20238 15.3676 5.27102 15.3381 5.32005 15.2858C5.37235 15.2368 5.40177 15.1682 5.40177 15.1061C5.40177 15.044 5.37235 14.9753 5.32005 14.9263C5.27102 14.874 5.20238 14.8446 5.14028 14.8446C5.07818 14.8446 5.00954 14.874 4.96051 14.9263Z" fill="#484848"/>
<path d="M8.62132 14.9263C8.45789 15.0865 8.57229 15.3676 8.80109 15.3676C8.86319 15.3676 8.93183 15.3381 8.98086 15.2858C9.03316 15.2368 9.06257 15.1682 9.06257 15.1061C9.06257 15.044 9.03316 14.9753 8.98086 14.9263C8.93183 14.874 8.86319 14.8446 8.80109 14.8446C8.73898 14.8446 8.67034 14.874 8.62132 14.9263Z" fill="#484848"/>
<path d="M11.7591 14.9263C11.5957 15.0865 11.7101 15.3676 11.9389 15.3676C12.0729 15.3676 12.2004 15.2401 12.2004 15.1061C12.2004 14.9721 12.0729 14.8446 11.9389 14.8446C11.8768 14.8446 11.8082 14.874 11.7591 14.9263Z" fill="#484848"/>
<path d="M15.4199 14.9263C15.2565 15.0865 15.3709 15.3676 15.5997 15.3676C15.7337 15.3676 15.8612 15.2401 15.8612 15.1061C15.8612 14.9721 15.7337 14.8446 15.5997 14.8446C15.5376 14.8446 15.469 14.874 15.4199 14.9263Z" fill="#484848"/>
</svg>
