<svg width="20" height="20" viewBox="0 0 20 20" fill="none" xmlns="http://www.w3.org/2000/svg">
<path d="M6.80647 7.48233C6.38485 7.90395 6.32413 7.97815 6.32413 8.0726C6.32413 8.21763 6.45231 8.34918 6.59397 8.34918C6.6783 8.34918 6.74575 8.30533 6.91778 8.14006L7.13365 7.93431V9.00353V10.0728L7.21797 10.1537C7.26856 10.2077 7.3394 10.238 7.40348 10.238C7.46757 10.238 7.5384 10.2077 7.58899 10.1537L7.67332 10.0728V9.00353V7.93431L7.88919 8.14006C8.06121 8.30533 8.12867 8.34918 8.21299 8.34918C8.35466 8.34918 8.48283 8.21763 8.48283 8.0726C8.48283 7.97815 8.42212 7.90395 8.0005 7.48233C7.56876 7.05059 7.50804 7 7.40348 7C7.29892 7 7.23821 7.05059 6.80647 7.48233Z" fill="#484848"/>
<path d="M9.77467 7.48233C9.35305 7.90395 9.29234 7.97815 9.29234 8.0726C9.29234 8.21763 9.42051 8.34918 9.56218 8.34918C9.6465 8.34918 9.71396 8.30533 9.88598 8.14006L10.1018 7.93431V9.00353V10.0728L10.1862 10.1537C10.2368 10.2077 10.3076 10.238 10.3717 10.238C10.4358 10.238 10.5066 10.2077 10.5572 10.1537L10.6415 10.0728V9.00353V7.93431L10.8574 8.14006C11.0294 8.30533 11.0969 8.34918 11.1812 8.34918C11.3229 8.34918 11.451 8.21763 11.451 8.0726C11.451 7.97815 11.3903 7.90395 10.9687 7.48233C10.537 7.05059 10.4762 7 10.3717 7C10.2671 7 10.2064 7.05059 9.77467 7.48233Z" fill="#484848"/>
<path d="M12.7429 7.48233C12.3213 7.90395 12.2605 7.97815 12.2605 8.0726C12.2605 8.21763 12.3887 8.34918 12.5304 8.34918C12.6147 8.34918 12.6822 8.30533 12.8542 8.14006L13.0701 7.93431V9.00353V10.0728L13.1544 10.1537C13.205 10.2077 13.2758 10.238 13.3399 10.238C13.404 10.238 13.4748 10.2077 13.5254 10.1537L13.6097 10.0728V9.00353V7.93431L13.8256 8.14006C13.9976 8.30533 14.0651 8.34918 14.1494 8.34918C14.2911 8.34918 14.4192 8.21763 14.4192 8.0726C14.4192 7.97815 14.3585 7.90395 13.9369 7.48233C13.5052 7.05059 13.4445 7 13.3399 7C13.2353 7 13.1746 7.05059 12.7429 7.48233Z" fill="#484848"/>
<path d="M2.31706 10.8351C2.25634 10.8654 2.16528 10.943 2.11468 11.0071C2.03036 11.115 2.02361 11.1555 2.01349 11.4861L2 11.847L2.31706 11.8672C2.70495 11.8942 3.0726 11.9819 3.53807 12.1573C4.38806 12.4811 5.19757 12.4777 6.08803 12.1438C6.30727 12.0628 6.54338 11.9853 6.61084 11.9718L6.73901 11.9482L6.58722 11.8099C6.5029 11.7323 6.34774 11.5603 6.23981 11.4253C6.03743 11.1656 5.81144 10.9902 5.51125 10.8688C5.33586 10.798 5.28864 10.7946 3.87874 10.7845C2.58352 10.7777 2.41487 10.7845 2.31706 10.8351Z" fill="#484848"/>
<path d="M15.3738 10.8284C15.0028 10.9295 14.7127 11.1319 14.4766 11.449C14.4024 11.5535 14.2641 11.7087 14.1764 11.793L14.0179 11.9448L14.1899 11.992C14.2877 12.0156 14.5204 12.0932 14.7093 12.164C15.5525 12.4845 16.3587 12.4777 17.2491 12.1438C17.7247 11.965 18.0317 11.8942 18.4432 11.8672L18.7366 11.847V11.5299C18.7366 11.1555 18.6928 11.0274 18.514 10.8924L18.3892 10.7946L16.9692 10.7879C15.8258 10.7811 15.5154 10.7913 15.3738 10.8284Z" fill="#484848"/>
<path d="M2.01349 14.1069L2.02361 15.8271L2.12143 15.9519C2.30357 16.1947 1.60536 16.1745 10.4189 16.1677L18.396 16.1576L18.487 16.0868C18.5376 16.0497 18.6118 15.9755 18.6489 15.9249C18.7164 15.8338 18.7198 15.79 18.7299 14.1102L18.74 12.3866L18.4432 12.4069C18.0991 12.4339 17.8091 12.5047 17.3368 12.6801C16.8849 12.8521 16.6386 12.9027 16.1394 12.9263C15.4783 12.9567 15.1309 12.8926 14.2675 12.5856C14.0651 12.5148 13.7986 12.4507 13.6064 12.4271L13.2859 12.3833L12.807 12.5452C11.8929 12.8487 11.0834 12.96 10.085 12.9263C9.22151 12.8926 8.73243 12.8049 7.92966 12.5418L7.45745 12.3833L7.13702 12.4271C6.94476 12.4507 6.67829 12.5148 6.47592 12.5856C5.60569 12.896 5.2684 12.9567 4.58706 12.9263C4.1081 12.9027 3.8214 12.842 3.31883 12.6531C2.88709 12.4946 2.624 12.4305 2.29007 12.4069L2.00337 12.3866L2.01349 14.1069ZM3.27161 13.8303C3.44025 13.9955 3.3222 14.2856 3.08609 14.2856C2.9478 14.2856 2.81626 14.1541 2.81626 14.0158C2.81626 13.8775 2.9478 13.7459 3.08609 13.7459C3.15018 13.7459 3.22101 13.7763 3.27161 13.8303ZM7.04932 13.8303C7.21797 13.9955 7.09991 14.2856 6.86381 14.2856C6.79972 14.2856 6.72889 14.2553 6.67829 14.2013C6.62433 14.1507 6.59397 14.0799 6.59397 14.0158C6.59397 13.9517 6.62433 13.8809 6.67829 13.8303C6.72889 13.7763 6.79972 13.7459 6.86381 13.7459C6.92789 13.7459 6.99873 13.7763 7.04932 13.8303ZM10.5572 13.8303C10.7258 13.9955 10.6078 14.2856 10.3717 14.2856C10.3076 14.2856 10.2368 14.2553 10.1862 14.2013C10.1322 14.1507 10.1018 14.0799 10.1018 14.0158C10.1018 13.9517 10.1322 13.8809 10.1862 13.8303C10.2368 13.7763 10.3076 13.7459 10.3717 13.7459C10.4358 13.7459 10.5066 13.7763 10.5572 13.8303ZM14.0651 13.8303C14.2337 13.9955 14.1157 14.2856 13.8796 14.2856C13.7413 14.2856 13.6097 14.1541 13.6097 14.0158C13.6097 13.8775 13.7413 13.7459 13.8796 13.7459C13.9436 13.7459 14.0145 13.7763 14.0651 13.8303ZM17.8428 13.8303C18.0114 13.9955 17.8934 14.2856 17.6573 14.2856C17.519 14.2856 17.3874 14.1541 17.3874 14.0158C17.3874 13.8775 17.519 13.7459 17.6573 13.7459C17.7214 13.7459 17.7922 13.7763 17.8428 13.8303ZM5.16046 14.9096C5.21443 14.9602 5.24479 15.031 5.24479 15.0951C5.24479 15.1592 5.21443 15.23 5.16046 15.2806C5.10987 15.3346 5.03904 15.365 4.97495 15.365C4.91086 15.365 4.84003 15.3346 4.78944 15.2806C4.73547 15.23 4.70511 15.1592 4.70511 15.0951C4.70511 15.031 4.73547 14.9602 4.78944 14.9096C4.84003 14.8556 4.91086 14.8253 4.97495 14.8253C5.03904 14.8253 5.10987 14.8556 5.16046 14.9096ZM8.93818 14.9096C9.10682 15.0749 8.98877 15.365 8.75266 15.365C8.68858 15.365 8.61775 15.3346 8.56715 15.2806C8.51318 15.23 8.48283 15.1592 8.48283 15.0951C8.48283 15.031 8.51318 14.9602 8.56715 14.9096C8.61775 14.8556 8.68858 14.8253 8.75266 14.8253C8.81675 14.8253 8.88758 14.8556 8.93818 14.9096ZM12.1762 14.9096C12.3449 15.0749 12.2268 15.365 11.9907 15.365C11.8524 15.365 11.7209 15.2334 11.7209 15.0951C11.7209 14.9568 11.8524 14.8253 11.9907 14.8253C12.0548 14.8253 12.1256 14.8556 12.1762 14.9096ZM15.9539 14.9096C16.1226 15.0749 16.0045 15.365 15.7684 15.365C15.6301 15.365 15.4986 15.2334 15.4986 15.0951C15.4986 14.9568 15.6301 14.8253 15.7684 14.8253C15.8325 14.8253 15.9033 14.8556 15.9539 14.9096Z" fill="#484848"/>
</svg>
