<svg width="20" height="20" viewBox="0 0 20 20" fill="none" xmlns="http://www.w3.org/2000/svg">
<path fill-rule="evenodd" clip-rule="evenodd" d="M9.48598 3.93756L9.54237 3.79853C9.64165 3.55373 9.81428 3.34567 10.0365 3.20291C10.2588 3.06015 10.5198 2.9897 10.7837 3.00122C11.0477 3.01274 11.3015 3.10568 11.5105 3.26727C11.7195 3.42885 11.8733 3.65117 11.9509 3.90369L11.995 4.0471C12.0475 4.21822 12.1354 4.3764 12.2529 4.51141C12.3704 4.64643 12.515 4.75529 12.6772 4.83094C12.8395 4.90659 13.0158 4.94735 13.1947 4.9506C13.3737 4.95384 13.5514 4.91949 13.7162 4.84976L13.8544 4.79133C14.0977 4.68843 14.3669 4.66338 14.625 4.7196C14.8831 4.77582 15.1175 4.91056 15.296 5.10532C15.4745 5.30009 15.5883 5.54532 15.6218 5.80735C15.6553 6.06938 15.6069 6.33536 15.4832 6.56877L15.4129 6.70133C15.3291 6.85949 15.2794 7.03348 15.267 7.21204C15.2546 7.39061 15.2799 7.56979 15.3411 7.73799C15.4023 7.90619 15.4982 8.05968 15.6224 8.18852C15.7467 8.31737 15.8966 8.4187 16.0624 8.48598L16.2015 8.54237C16.4463 8.64165 16.6543 8.81428 16.7971 9.03655C16.9399 9.25882 17.0103 9.51983 16.9988 9.78374C16.9873 10.0477 16.8943 10.3015 16.7327 10.5105C16.5711 10.7195 16.3488 10.8733 16.0963 10.9509L15.9529 10.995C15.7818 11.0475 15.6236 11.1354 15.4886 11.2529C15.3536 11.3704 15.2447 11.515 15.1691 11.6772C15.0934 11.8395 15.0526 12.0158 15.0494 12.1947C15.0462 12.3737 15.0805 12.5514 15.1502 12.7162L15.2087 12.8544C15.3116 13.0977 15.3366 13.3669 15.2804 13.625C15.2242 13.8831 15.0894 14.1175 14.8947 14.296C14.6999 14.4745 14.4547 14.5883 14.1926 14.6218C13.9306 14.6553 13.6646 14.6069 13.4312 14.4832L13.2987 14.4129C13.1405 14.3291 12.9665 14.2794 12.788 14.267C12.6094 14.2546 12.4302 14.2799 12.262 14.3411C12.0938 14.4023 11.9403 14.4982 11.8115 14.6224C11.6826 14.7467 11.5813 14.8966 11.514 15.0624L11.4576 15.2015C11.3584 15.4463 11.1857 15.6543 10.9635 15.7971C10.7412 15.9399 10.4802 16.0103 10.2163 15.9988C9.95235 15.9873 9.69847 15.8943 9.48949 15.7327C9.28051 15.5711 9.12667 15.3488 9.0491 15.0963L9.00504 14.9529C8.95248 14.7818 8.8646 14.6236 8.74708 14.4886C8.62955 14.3536 8.485 14.2447 8.32277 14.1691C8.16054 14.0934 7.98424 14.0526 7.80526 14.0494C7.62629 14.0462 7.44863 14.0805 7.28376 14.1502L7.14557 14.2087C6.90227 14.3116 6.63308 14.3366 6.37497 14.2804C6.11685 14.2242 5.88247 14.0894 5.704 13.8947C5.52553 13.6999 5.41173 13.4547 5.37822 13.1926C5.34471 12.9306 5.39313 12.6646 5.51684 12.4312L5.5871 12.2987C5.67092 12.1405 5.72062 11.9665 5.73299 11.788C5.74536 11.6094 5.72011 11.4302 5.6589 11.262C5.59768 11.0938 5.50184 10.9403 5.37759 10.8115C5.25334 10.6826 5.10343 10.5813 4.93756 10.514L4.79853 10.4576C4.55373 10.3584 4.34567 10.1857 4.20291 9.96345C4.06015 9.74119 3.9897 9.48018 4.00122 9.21626C4.01274 8.95235 4.10568 8.69847 4.26727 8.48949C4.42885 8.28051 4.65117 8.12667 4.90369 8.0491L5.0471 8.00504C5.21822 7.95248 5.3764 7.8646 5.51141 7.74708C5.64643 7.62955 5.75529 7.485 5.83094 7.32277C5.90659 7.16054 5.94735 6.98424 5.9506 6.80526C5.95384 6.62629 5.91949 6.44863 5.84976 6.28376L5.79133 6.14557C5.68845 5.90228 5.6634 5.6331 5.71962 5.37499C5.77584 5.11689 5.91058 4.88251 6.10533 4.70405C6.30009 4.52559 6.54531 4.41178 6.80733 4.37826C7.06936 4.34475 7.33533 4.39316 7.56874 4.51685L7.70129 4.58711C7.85945 4.67094 8.03344 4.72065 8.21202 4.73302C8.39059 4.74538 8.56977 4.72014 8.73798 4.65892C8.90619 4.5977 9.05967 4.50187 9.18852 4.37761C9.31737 4.25335 9.4187 4.10344 9.48598 3.93756Z" stroke="#484848" stroke-width="1.1" stroke-linecap="round" stroke-linejoin="bevel"/>
<path d="M10.5 12.0246C11.8943 12.0246 13.0246 10.8943 13.0246 9.49998C13.0246 8.1057 11.8943 6.9754 10.5 6.9754C9.1057 6.9754 7.9754 8.1057 7.9754 9.49998C7.9754 10.8943 9.1057 12.0246 10.5 12.0246Z" stroke="#484848" stroke-width="1.1" stroke-linecap="round" stroke-linejoin="bevel"/>
</svg>
