<svg width="20" height="20" viewBox="0 0 20 20" fill="none" xmlns="http://www.w3.org/2000/svg">
<path d="M14.0741 4H6.51852C5.82305 4 5.25926 4.56379 5.25926 5.25926V15.3333C5.25926 16.0288 5.82305 16.5926 6.51852 16.5926H14.0741C14.7695 16.5926 15.3333 16.0288 15.3333 15.3333V5.25926C15.3333 4.56379 14.7695 4 14.0741 4Z" fill="#484848" stroke="#484848" stroke-width="0.8" stroke-linecap="round" stroke-linejoin="round"/>
<path d="M4 6.98438H6.51852" stroke="#484848" stroke-width="0.8" stroke-linecap="round" stroke-linejoin="round"/>
<path d="M4 13.4445H6.51852" stroke="#484848" stroke-width="0.8" stroke-linecap="round" stroke-linejoin="round"/>
<path d="M8.16185 13.0981L8.40741 12.2922C9.14407 9.63518 12.2733 9.63518 13.0037 12.2922L13.2241 13.0981" fill="#F9F9FA"/>
<path d="M10.6804 10.2899C11.4523 10.2899 12.0781 9.66413 12.0781 8.89216C12.0781 8.12019 11.4523 7.49438 10.6804 7.49438C9.9084 7.49438 9.28259 8.12019 9.28259 8.89216C9.28259 9.66413 9.9084 10.2899 10.6804 10.2899Z" fill="#F9F9FA"/>
</svg>
