<svg width="20" height="20" viewBox="0 0 20 20" fill="none" xmlns="http://www.w3.org/2000/svg">
<path d="M7.39978 6.75545C7.76175 7.11595 7.94423 7.52966 7.96184 8.03988C7.96196 8.06295 7.96208 8.08601 7.96221 8.10978C7.96527 8.33477 8.03183 8.52173 8.18457 8.69093C8.40407 8.88623 8.64184 8.93718 8.92999 8.92696C9.14803 8.89915 9.33244 8.78366 9.5209 8.67629C9.93053 8.44633 10.3539 8.29036 10.8071 8.1729C10.849 8.16154 10.8908 8.15018 10.934 8.13848C11.8014 7.94358 12.7775 8.03956 13.6071 8.33917C13.6277 8.34649 13.6482 8.35382 13.6694 8.36137C14.6966 8.73289 15.5472 9.45855 16.1385 10.3754C16.1698 10.4239 16.2017 10.4719 16.2339 10.5198C16.9185 11.5902 17.0366 12.9849 16.7857 14.2062C16.6108 14.9857 16.2281 15.715 15.7153 16.3201C15.7003 16.338 15.6852 16.3558 15.6697 16.3742C15.4639 16.6156 15.2428 16.8261 14.9906 17.0185C14.9735 17.0317 14.9564 17.045 14.9388 17.0587C14.0322 17.7592 12.9966 18.0595 11.8637 18.0605C11.8043 18.0607 11.745 18.061 11.6857 18.0612C11.5622 18.0616 11.4387 18.0617 11.3152 18.0617C11.1574 18.0617 10.9997 18.0626 10.842 18.0637C10.7198 18.0645 10.5976 18.0646 10.4754 18.0646C10.4173 18.0646 10.3591 18.0649 10.301 18.0654C10.2196 18.0661 10.1383 18.0659 10.057 18.0655C10.0334 18.0659 10.0097 18.0662 9.98539 18.0666C9.77886 18.0641 9.60274 17.9965 9.4546 17.8486C9.43961 17.8264 9.42462 17.8042 9.40917 17.7812C9.39359 17.7589 9.37801 17.7366 9.36195 17.7136C9.25573 17.5329 9.27494 17.321 9.29182 17.1182C9.34589 16.922 9.45398 16.7996 9.62123 16.6859C9.87126 16.5602 10.124 16.5715 10.397 16.5715C10.4466 16.5711 10.4962 16.5707 10.5458 16.5702C10.6757 16.569 10.8056 16.5683 10.9355 16.5678C11.1439 16.5669 11.3523 16.5656 11.5607 16.5637C11.6334 16.5632 11.7061 16.5631 11.7788 16.563C11.8232 16.5626 11.8676 16.5623 11.9121 16.5619C11.9509 16.5618 11.9896 16.5616 12.0296 16.5615C12.1312 16.56 12.1312 16.56 12.2236 16.4864C12.2355 16.413 12.2355 16.413 12.2297 16.3326C12.2288 16.3054 12.228 16.2782 12.227 16.2502C12.2253 16.219 12.2253 16.219 12.2236 16.1871C12.1093 16.1487 12.0187 16.1527 11.8983 16.1518C11.4703 16.1334 11.1679 15.8445 10.873 15.5553C10.8521 15.5362 10.8311 15.5171 10.8095 15.4975C10.4509 15.1612 10.2373 14.6966 10.2068 14.2069C10.1945 13.6766 10.338 13.1904 10.6836 12.7827C11.0665 12.385 11.4872 12.2014 12.0258 12.1326C12.1621 12.1164 12.1621 12.1164 12.281 12.0528C12.3345 11.9929 12.3345 11.9929 12.3183 11.8786C12.3008 11.7559 12.3008 11.7559 12.1906 11.6978C11.6122 11.6417 11.031 11.9139 10.5876 12.2664C10.1287 12.6631 9.8377 13.2286 9.77844 13.8365C9.73051 14.5755 9.96183 15.1979 10.4448 15.7548C10.5315 15.8485 10.6218 15.9381 10.7137 16.0266C10.7336 16.0466 10.7536 16.0667 10.7742 16.0874C10.7742 16.0983 10.7742 16.1093 10.7742 16.1206C10.7473 16.1209 10.7204 16.1212 10.6927 16.1216C10.5911 16.123 10.4894 16.1251 10.3877 16.1275C10.3229 16.1289 10.258 16.1296 10.1932 16.1304C9.78714 16.1408 9.41855 16.2155 9.12712 16.5197C8.92033 16.7838 8.81387 17.1011 8.83271 17.4383C8.85622 17.6223 8.92076 17.7814 8.99536 17.9496C9.00623 17.9825 9.0171 18.0154 9.0283 18.0493C8.54209 18.0525 8.05588 18.0548 7.56966 18.0562C7.34389 18.0569 7.11813 18.0579 6.89237 18.0594C6.67451 18.0608 6.45666 18.0616 6.2388 18.062C6.15566 18.0622 6.07253 18.0627 5.98939 18.0634C5.87299 18.0644 5.7566 18.0645 5.64019 18.0644C5.60579 18.0649 5.57139 18.0654 5.53594 18.0659C5.33877 18.0648 5.22556 18.0491 5.07539 17.9163C4.93536 17.7319 4.88521 17.5347 4.89679 17.3048C4.93592 17.0604 5.06836 16.8879 5.26467 16.7433C5.41243 16.6443 5.56368 16.5784 5.73086 16.5194C5.81091 16.4886 5.81091 16.4886 5.86597 16.3866C5.85691 16.2235 5.79828 16.1126 5.71774 15.973C5.08039 14.8152 4.89195 13.4722 4.85893 12.1664C4.85693 11.9551 4.85693 11.9551 4.77892 11.7643C4.59882 11.6636 4.38546 11.6947 4.18599 11.6999C3.52629 11.7077 2.9739 11.5619 2.47319 11.1059C2.1115 10.7261 1.99702 10.241 2.00006 9.73143C2.01455 9.06051 2.28084 8.42192 2.70365 7.90687C2.71786 7.88893 2.73208 7.871 2.74672 7.85252C3.40738 7.01966 4.39253 6.38491 5.45653 6.25235C6.16422 6.20109 6.84036 6.27286 7.39978 6.75545ZM4.15819 8.07833C4.02837 8.28731 4.03175 8.49826 4.05422 8.73822C4.11101 8.95918 4.26398 9.1141 4.44951 9.23703C4.65311 9.33928 4.83454 9.35224 5.05519 9.3012C5.2883 9.21748 5.47186 9.04166 5.57774 8.8172C5.63688 8.54851 5.6259 8.32366 5.49127 8.0808C5.3688 7.9111 5.20485 7.80733 5.00951 7.7406C4.66157 7.68934 4.37887 7.80375 4.15819 8.07833Z" fill="#484848"/>
<path d="M17.4919 3.62609C17.7449 3.83995 17.8993 4.09595 17.9882 4.41522C18.0175 4.75755 17.9987 5.06273 17.8564 5.37959C17.8432 5.40908 17.83 5.43858 17.8164 5.46896C17.4632 6.18011 16.8308 6.69278 16.2115 7.1566C16.1705 7.18733 16.1705 7.18733 16.1286 7.21868C16.0897 7.24756 16.0897 7.24756 16.05 7.27702C16.0267 7.29427 16.0035 7.31152 15.9796 7.32929C15.8296 7.43176 15.7001 7.47524 15.5176 7.44134C15.4137 7.39332 15.324 7.32988 15.2315 7.2626C15.2057 7.2445 15.1799 7.22639 15.1533 7.20774C15.0765 7.15339 15.0005 7.09809 14.9247 7.04229C14.8932 7.01917 14.8932 7.01917 14.8611 6.99558C14.6427 6.83382 14.4362 6.66067 14.2373 6.47502C14.1638 6.4058 14.1638 6.4058 14.0662 6.33149C13.6641 5.96876 13.2756 5.40536 13.238 4.84818C13.2318 4.41748 13.3372 4.07741 13.6311 3.75391C13.8829 3.52299 14.2096 3.39781 14.5512 3.40942C14.9358 3.45026 15.2733 3.57692 15.6165 3.75014C15.6906 3.71634 15.7611 3.68081 15.8326 3.64207C16.3688 3.36162 16.968 3.24289 17.4919 3.62609Z" fill="#484848"/>
<path d="M11.9271 2.5199C12.0239 2.60512 12.0535 2.66416 12.0842 2.78957C12.0938 2.95324 12.0568 3.07018 12.0012 3.22239C11.991 3.25107 11.9807 3.27975 11.9702 3.3093C11.7896 3.79522 11.5393 4.2628 11.2353 4.68141C11.21 4.71639 11.1847 4.75137 11.1586 4.78741C10.7338 5.36408 10.2176 5.90537 9.65417 6.34411C9.60858 6.38066 9.56304 6.41725 9.51752 6.45388C9.12272 6.76989 8.72002 7.0749 8.27065 7.30848C8.25706 7.27873 8.24348 7.24898 8.22948 7.21833C8.07795 6.895 7.89947 6.62935 7.64478 6.37737C8.02319 5.35741 8.94949 4.23329 9.78593 3.55078C9.8221 3.52013 9.85826 3.48948 9.89441 3.45881C10.1721 3.22597 10.4579 3.02788 10.7742 2.85244C10.8077 2.83367 10.8412 2.81489 10.8757 2.79555C11.6024 2.40859 11.6024 2.40859 11.9271 2.5199Z" fill="#484848"/>
<path d="M9.48947 1.02335C9.59758 1.10747 9.64404 1.15894 9.68712 1.28938C9.73091 1.88153 9.60461 2.48291 9.45653 3.05184C9.44854 3.08971 9.44854 3.08971 9.44038 3.12834C9.37872 3.37266 9.21869 3.51141 9.04065 3.67951C8.98049 3.73824 8.92044 3.79708 8.86051 3.85605C8.83214 3.88386 8.80378 3.91168 8.77455 3.94033C8.63735 4.07792 8.51903 4.22633 8.40242 4.382C8.37869 4.41167 8.35495 4.44133 8.33049 4.47189C7.936 4.97149 7.58108 5.51465 7.28243 6.07796C7.13952 6.0535 7.00529 6.00906 6.86861 5.96157C6.74388 5.91849 6.62014 5.87627 6.49185 5.84518C6.51113 5.59035 6.56964 5.35658 6.64009 5.11151C6.65181 5.07061 6.66354 5.0297 6.67562 4.98756C7.09841 3.54299 7.79123 1.92021 9.09753 1.07271C9.23212 1.00313 9.34323 0.976854 9.48947 1.02335Z" fill="#484848"/>
<path d="M17.1647 14.4913C17.2833 14.5785 17.3551 14.6504 17.4179 14.7843C17.431 14.8113 17.444 14.8382 17.4574 14.866C17.5935 15.2029 17.6235 15.6031 17.5085 15.9524C17.3436 16.3353 17.0796 16.6384 16.6932 16.8003C16.5132 16.8673 16.3478 16.8907 16.1559 16.8918C16.1188 16.8923 16.0817 16.8927 16.0434 16.8932C15.9459 16.8856 15.9459 16.8856 15.8471 16.8191C15.8667 16.7988 15.8862 16.7786 15.9064 16.7577C16.5075 16.116 16.9061 15.3305 17.1647 14.4913Z" fill="#484848"/>
<path d="M5.0321 8.2631C5.14391 8.34527 5.16565 8.39368 5.18903 8.52028C5.16359 8.66304 5.12281 8.71899 4.99771 8.81175C4.88849 8.83626 4.7976 8.83473 4.68816 8.81175C4.58349 8.75117 4.52923 8.71054 4.50114 8.60029C4.49313 8.48325 4.50822 8.42656 4.58067 8.32597C4.72058 8.20563 4.85049 8.22193 5.0321 8.2631Z" fill="#484848"/>
</svg>
