<svg width="20" height="20" viewBox="0 0 20 20" fill="none" xmlns="http://www.w3.org/2000/svg">
<path d="M9.78192 1.0374C9.98563 1.12709 10.146 1.30023 10.239 1.50049C10.2785 1.66682 10.2761 1.82794 10.2746 1.99829C10.2745 2.03381 10.2744 2.06934 10.2743 2.10594C10.2717 2.33856 10.2558 2.56083 10.2143 2.78995C10.2002 2.8772 10.1972 2.95819 10.1998 3.04639C10.2296 3.02747 10.2595 3.00856 10.2902 2.98907C10.784 2.6815 11.3619 2.34279 11.9632 2.4142C12.1887 2.4722 12.3346 2.58781 12.4623 2.7802C12.594 3.00409 12.606 3.23515 12.5442 3.48487C12.252 4.49161 11.6519 5.35953 10.9318 6.1075C10.9135 6.12656 10.8951 6.14562 10.8762 6.16526C10.6305 6.41926 10.3792 6.6554 10.1 6.87278C10.0645 6.90124 10.029 6.92975 9.99364 6.9583C9.56216 7.30453 9.11224 7.62261 8.63595 7.90424C8.63884 7.97428 8.64244 8.04429 8.64634 8.11428C8.64924 8.17276 8.64924 8.17276 8.65219 8.23243C8.66087 8.33514 8.66087 8.33514 8.71432 8.39853C8.83857 8.48501 8.95556 8.48487 9.10177 8.46989C9.2227 8.4181 9.33497 8.35214 9.44906 8.28688C10.5378 7.69419 11.8789 7.47086 13.0945 7.77115C13.1185 7.77669 13.1425 7.78222 13.1672 7.78792C14.0728 7.99948 14.8844 8.46468 15.5567 9.10207C15.5886 9.1318 15.6205 9.16152 15.6533 9.19214C16.5276 10.0241 17.1204 11.2856 17.1569 12.4974C17.1583 12.6113 17.1584 12.7251 17.158 12.839C17.1581 12.8772 17.1583 12.9153 17.1584 12.9547C17.1582 13.144 17.1504 13.3245 17.1245 13.5122C17.1128 13.608 17.1128 13.608 17.1206 13.6937C17.2054 13.7937 17.2054 13.7937 17.3202 13.8601C17.7196 14.3474 17.831 14.8376 17.786 15.4572C17.7031 15.9249 17.4326 16.3518 17.0489 16.6318C16.5909 16.9241 16.0904 17.0426 15.5484 16.9233C15.4731 16.902 15.3981 16.8794 15.3238 16.8547C15.2465 16.9055 15.1758 16.9576 15.1034 17.0148C14.1221 17.7581 13.0288 18.0629 11.8091 18.0622C11.741 18.0624 11.6729 18.0626 11.6048 18.0629C11.4212 18.0634 11.2376 18.0636 11.054 18.0636C10.9391 18.0637 10.8243 18.0638 10.7094 18.064C10.3082 18.0646 9.90702 18.0649 9.50583 18.0648C9.13243 18.0648 8.75903 18.0655 8.38563 18.0666C8.06431 18.0674 7.74299 18.0678 7.42166 18.0677C7.23005 18.0677 7.03845 18.0679 6.84684 18.0686C6.66684 18.0693 6.48684 18.0693 6.30683 18.0688C6.2409 18.0687 6.17498 18.0689 6.10906 18.0693C6.01884 18.0698 5.92866 18.0695 5.83844 18.069C5.81257 18.0693 5.7867 18.0696 5.76005 18.07C5.51088 18.0669 5.27631 17.9749 5.08938 17.8067C4.83269 17.5131 4.75588 17.2007 4.76627 16.8206C4.79236 16.4757 4.95917 16.2542 5.20883 16.0229C5.46494 15.8232 5.46494 15.8232 5.57483 15.8232C5.56614 15.8046 5.55746 15.7859 5.54851 15.7667C5.00541 14.589 4.70599 13.3317 4.74301 12.0301C4.71006 12.0411 4.67712 12.0521 4.64319 12.0634C4.02216 12.1178 3.2907 11.9487 2.80875 11.5461C2.37561 11.1684 2.05892 10.6942 2.00637 10.108C1.94861 9.10387 2.28559 8.23378 2.94651 7.48246C3.02195 7.39911 3.09992 7.3185 3.17917 7.23878C3.19469 7.22313 3.21021 7.20749 3.22619 7.19136C3.97179 6.45012 5.05098 5.94175 6.10928 5.93906C6.16404 5.93958 6.2188 5.94022 6.27356 5.94114C6.28008 5.90794 6.2866 5.87474 6.29332 5.84054C6.6431 4.13244 7.42376 2.17526 8.93982 1.17309C9.2155 1.00971 9.46291 0.956242 9.78192 1.0374ZM8.66922 2.08147C8.64915 2.09978 8.62907 2.1181 8.60839 2.13697C8.27358 2.45379 8.02847 2.84727 7.80412 3.24602C7.78458 3.28007 7.78458 3.28007 7.76464 3.3148C7.35545 4.03213 7.0824 4.812 6.87248 5.60841C6.86562 5.63369 6.85876 5.65898 6.8517 5.68503C6.82196 5.79773 6.80593 5.89013 6.80593 6.00768C6.84003 6.01892 6.87413 6.03016 6.90926 6.04174C6.95453 6.05672 6.99981 6.07171 7.04508 6.08671C7.06749 6.09408 7.0899 6.10146 7.11299 6.10906C7.23419 6.14927 7.35311 6.19257 7.47139 6.24059C7.48376 6.21985 7.49613 6.19911 7.50887 6.17774C7.74839 5.77716 7.98882 5.3823 8.26994 5.00949C8.29606 4.97428 8.32219 4.93907 8.3491 4.90279C8.49694 4.70536 8.6522 4.51465 8.81271 4.3274C8.83076 4.30624 8.84881 4.28508 8.86741 4.26328C8.95727 4.15999 9.04807 4.06397 9.15194 3.97465C9.48877 3.68175 9.58605 3.37968 9.66741 2.94657C9.67314 2.91647 9.67886 2.88638 9.68476 2.85538C9.82417 2.21942 9.82417 2.21942 9.70393 1.61981C9.62102 1.53582 9.59162 1.51821 9.47453 1.5066C9.17044 1.53293 8.88265 1.88018 8.66922 2.08147ZM10.1665 3.71185C10.0695 3.79538 9.97501 3.88071 9.88174 3.96841C9.81266 4.03317 9.74217 4.0942 9.66949 4.15479C9.32669 4.45421 9.04281 4.81436 8.76904 5.17586C8.75434 5.19496 8.73965 5.21406 8.72451 5.23375C8.5238 5.49498 8.34193 5.76529 8.16805 6.04512C8.14007 6.09009 8.14007 6.09009 8.11152 6.13597C8.03035 6.26848 7.95886 6.39422 7.90394 6.54005C7.92286 6.55944 7.94177 6.57882 7.96126 6.5988C8.15744 6.80709 8.29895 7.02207 8.43631 7.27206C8.45827 7.305 8.48023 7.33794 8.50285 7.37188C8.89045 7.11825 9.27327 6.86411 9.63414 6.57332C9.66459 6.54926 9.69504 6.5252 9.72642 6.50041C10.7026 5.71862 11.8091 4.56235 12.0631 3.2793C12.052 3.16225 12.0432 3.09805 11.9736 3.00272C11.513 2.6666 10.5279 3.42031 10.1665 3.71185ZM3.30693 7.84986C2.81205 8.4206 2.47879 9.15381 2.50306 9.91726C2.54678 10.3951 2.73174 10.7691 3.07935 11.0985C3.5531 11.49 4.092 11.5396 4.68094 11.5498C4.7212 11.5508 4.76145 11.5518 4.80292 11.5528C4.83935 11.5535 4.87578 11.5541 4.91331 11.5547C5.0085 11.5642 5.06334 11.5779 5.14228 11.6308C5.27376 11.8436 5.25649 12.0692 5.25874 12.3129C5.28795 13.5666 5.58395 14.7226 6.17833 15.827C6.20702 15.8898 6.20702 15.8898 6.21326 15.9896C6.17374 16.0894 6.17374 16.0894 6.1163 16.1248C6.06492 16.1465 6.01315 16.1674 5.96111 16.1875C5.67437 16.303 5.44891 16.4654 5.29617 16.7361C5.23684 16.9794 5.28139 17.129 5.39235 17.3471C5.46924 17.4611 5.54515 17.5102 5.67465 17.5534C5.72237 17.5564 5.77021 17.5575 5.81802 17.5574C5.84728 17.5575 5.87653 17.5575 5.90667 17.5576C5.93867 17.5574 5.97067 17.5573 6.00363 17.5572C6.0374 17.5572 6.07117 17.5572 6.10596 17.5572C6.21776 17.5572 6.32956 17.5569 6.44136 17.5567C6.5188 17.5566 6.59624 17.5566 6.67368 17.5565C6.87766 17.5564 7.08163 17.5561 7.28561 17.5557C7.49369 17.5554 7.70177 17.5552 7.90985 17.555C8.31825 17.5547 8.72665 17.5541 9.13504 17.5534C9.12572 17.5329 9.11639 17.5123 9.10679 17.4911C9.09466 17.4641 9.08252 17.4372 9.07002 17.4094C9.05795 17.3826 9.04589 17.3559 9.03345 17.3284C8.91955 17.0593 8.94124 16.7411 9.03405 16.4692C9.15533 16.1864 9.33334 15.9849 9.61238 15.8528C9.86177 15.7547 10.0893 15.735 10.3557 15.7317C10.4152 15.7302 10.4152 15.7302 10.4758 15.7287C10.5723 15.7264 10.6688 15.7246 10.7654 15.7234C10.6519 15.5894 10.5364 15.4584 10.4161 15.3304C9.96873 14.8305 9.83574 14.2319 9.86123 13.5745C9.90057 13.0306 10.1819 12.5079 10.5658 12.1299C11.0305 11.7351 11.556 11.5571 12.1578 11.5478C12.2627 11.5643 12.2627 11.5643 12.3273 11.6242C12.3807 11.7352 12.3595 11.8136 12.3293 11.9303C12.2109 12.0092 12.1372 12.0118 11.9965 12.0259C11.4654 12.0885 11.0445 12.3199 10.6989 12.7288C10.4395 13.0779 10.2764 13.5545 10.3329 13.9932C10.4044 14.436 10.5703 14.7566 10.8652 15.0912C10.8875 15.1166 10.9097 15.142 10.9326 15.1682C11.2482 15.5061 11.5927 15.7227 12.0536 15.7408C12.1629 15.7567 12.1629 15.7567 12.2267 15.8006C12.288 15.8958 12.2744 15.9801 12.2627 16.0894C12.2247 16.1458 12.2247 16.1458 12.1629 16.1892C12.0718 16.2018 12.0718 16.2018 11.9603 16.202C11.9185 16.2024 11.8768 16.2027 11.8337 16.203C11.8114 16.203 11.7891 16.2029 11.7661 16.2029C11.696 16.2027 11.6259 16.2032 11.5558 16.2038C11.4067 16.2051 11.2576 16.2055 11.1085 16.2059C10.9363 16.2063 10.764 16.207 10.5918 16.2085C10.5231 16.209 10.4544 16.2088 10.3857 16.2087C10.0536 16.2113 9.80906 16.2472 9.56759 16.4887C9.46425 16.6526 9.41893 16.8077 9.44555 17.0018C9.4989 17.229 9.60512 17.3609 9.8005 17.4869C9.93467 17.5517 10.0437 17.562 10.1921 17.5626C10.2141 17.5627 10.236 17.5629 10.2587 17.5631C10.3313 17.5635 10.4039 17.5635 10.4765 17.5634C10.5276 17.5636 10.5788 17.5637 10.6299 17.5639C10.7373 17.5641 10.8447 17.5641 10.9522 17.5639C11.0611 17.5638 11.17 17.564 11.2789 17.5646C12.7321 17.5727 14.0223 17.3437 15.1242 16.3223C15.1413 16.3064 15.1585 16.2906 15.1762 16.2742C16.0973 15.411 16.5911 14.2419 16.6642 12.9889C16.6956 11.6573 16.1511 10.4671 15.2478 9.51395C14.4315 8.67671 13.2332 8.17864 12.0659 8.16239C11.1533 8.15977 10.3172 8.37728 9.5234 8.8329C9.24044 8.99291 8.96126 9.02892 8.64336 8.94442C8.42745 8.85712 8.27213 8.71331 8.17013 8.50316C8.15178 8.39763 8.14575 8.2918 8.13893 8.18499C8.09794 7.69753 7.96339 7.27992 7.6024 6.93101C7.20225 6.59903 6.7185 6.45381 6.20494 6.45895C6.15044 6.4594 6.15044 6.4594 6.09483 6.45986C5.00624 6.48286 4.02594 7.05479 3.30693 7.84986ZM16.9542 14.2927C16.9479 14.3105 16.9416 14.3284 16.935 14.3468C16.7247 14.9348 16.4829 15.499 16.0891 15.9896C16.0649 16.0201 16.0407 16.0506 16.0158 16.082C15.9702 16.1391 15.9244 16.196 15.8783 16.2526C15.8187 16.3256 15.8187 16.3256 15.7564 16.4221C16.0036 16.5045 16.3082 16.4394 16.5413 16.334C16.8908 16.138 17.117 15.8645 17.2537 15.4905C17.3387 15.1293 17.2969 14.7713 17.1091 14.4488C17.0615 14.3778 17.0615 14.3778 16.9875 14.2927C16.9765 14.2927 16.9655 14.2927 16.9542 14.2927Z" fill="#484848"/>
<path d="M17.1538 3.87818C17.4496 4.08795 17.6364 4.35662 17.7195 4.71001C17.7715 5.29277 17.5918 5.75585 17.2217 6.20764C17.1455 6.29797 17.0671 6.38614 16.9875 6.47348C16.951 6.51356 16.951 6.51356 16.9138 6.55445C16.6269 6.85414 16.2844 7.09475 15.9519 7.34065C15.931 7.35613 15.9101 7.37161 15.8886 7.38756C15.834 7.4275 15.7786 7.46628 15.7231 7.50494C15.7019 7.52 15.6807 7.53505 15.6589 7.55056C15.5117 7.59527 15.3813 7.56818 15.2485 7.49895C15.1675 7.44732 15.0896 7.39289 15.0119 7.3365C14.984 7.3168 14.9561 7.2971 14.9274 7.27681C14.2506 6.79501 13.3773 6.14781 13.2025 5.27955C13.1526 4.84963 13.2359 4.49434 13.4938 4.14437C13.68 3.94072 13.9407 3.78796 14.2183 3.77044C14.6032 3.76117 14.9285 3.80411 15.2739 3.9884C15.404 4.05111 15.4243 4.05032 15.5567 4.01127C15.6643 3.96405 15.7691 3.9124 15.8745 3.86064C16.2602 3.69599 16.7864 3.64753 17.1538 3.87818ZM15.59 4.61019C15.3759 4.62836 15.2538 4.59095 15.0722 4.48126C14.7967 4.3193 14.5486 4.24621 14.2258 4.27746C14.0081 4.35405 13.8605 4.50896 13.7531 4.71196C13.6682 4.91977 13.6837 5.11292 13.7556 5.32218C13.8883 5.62694 14.0976 5.86986 14.3256 6.10747C14.3464 6.12999 14.3672 6.15251 14.3887 6.17571C14.5641 6.36005 14.7621 6.51312 14.9665 6.66355C15.0057 6.69256 15.0447 6.72186 15.0835 6.75144C15.141 6.79528 15.199 6.83826 15.2573 6.88107C15.3088 6.91942 15.3087 6.91942 15.3613 6.95854C15.4522 7.01555 15.4522 7.01555 15.5402 6.98947C16.2203 6.57867 17.0195 5.90215 17.2204 5.10928C17.2632 4.86723 17.1886 4.67857 17.054 4.4771C16.9337 4.34227 16.7969 4.25705 16.6165 4.23574C16.2824 4.2194 15.8307 4.36949 15.59 4.61019Z" fill="#484848"/>
<path d="M5.54664 7.86752C5.71151 7.96617 5.8601 8.1155 5.92629 8.29877C5.97524 8.53872 5.98079 8.79743 5.85181 9.01193C5.69175 9.21874 5.4951 9.3414 5.23574 9.37884C5.00763 9.39114 4.81636 9.32675 4.64268 9.17764C4.47908 9.00545 4.3826 8.82582 4.37402 8.58601C4.38725 8.3645 4.44055 8.16747 4.6055 8.01218C4.8851 7.79378 5.21061 7.72055 5.54664 7.86752ZM4.99672 8.37012C4.89999 8.46326 4.89999 8.46326 4.88859 8.58848C4.9123 8.7189 4.93615 8.75916 5.04247 8.83595C5.10378 8.87207 5.10378 8.87207 5.17556 8.86922C5.30531 8.81732 5.36339 8.78713 5.44175 8.66958C5.43575 8.55753 5.42974 8.47024 5.36896 8.37428C5.22558 8.28529 5.14196 8.28406 4.99672 8.37012Z" fill="#484848"/>
</svg>
