<svg width="20" height="20" viewBox="0 0 20 20" fill="none" xmlns="http://www.w3.org/2000/svg">
<path d="M12.9379 9.80264C13.027 9.85479 13.027 9.85479 13.077 9.94171C13.1049 10.089 13.1074 10.1683 13.0308 10.2981C12.9888 10.3556 12.9463 10.4127 12.9034 10.4695C12.4646 11.0858 12.3412 11.8438 12.4337 12.5828C12.5574 13.2044 12.8383 13.7345 13.2856 14.1833C13.3086 14.2071 13.3317 14.2309 13.3554 14.2555C13.9233 14.804 14.6946 15.0034 15.4646 14.9927C16.0656 14.971 16.5903 14.7356 17.0752 14.3919C17.2037 14.3062 17.3085 14.2992 17.4576 14.3223C17.5445 14.3723 17.5445 14.3723 17.5967 14.4614C17.6822 14.9747 17.2876 15.5872 17.0014 15.9909C16.9251 16.0875 16.8457 16.1787 16.7623 16.2693C16.7456 16.2874 16.7289 16.3056 16.7117 16.3243C16.189 16.8868 15.5553 17.2794 14.8153 17.4861C14.7783 17.4972 14.7414 17.5083 14.7033 17.5198C13.6905 17.7757 12.6225 17.566 11.7254 17.0658C11.5396 16.9522 11.3686 16.8236 11.1996 16.6865C11.1551 16.6506 11.1551 16.6506 11.1097 16.6141C10.392 16.004 9.92626 15.0769 9.8089 14.1485C9.77835 13.5854 9.77315 13.0204 9.94797 12.4797C9.95886 12.4447 9.95886 12.4447 9.96998 12.409C10.2419 11.556 10.8117 10.7596 11.582 10.2894C11.6184 10.2666 11.6547 10.2438 11.6921 10.2204C12.0476 10.0037 12.5106 9.73143 12.9379 9.80264Z" fill="#484848"/>
<path d="M11.0196 5.89335C11.2203 6.06305 11.3997 6.24504 11.5646 6.44976C11.5894 6.4802 11.5894 6.4802 11.6147 6.51124C11.7217 6.65124 11.7217 6.65124 11.7194 6.73693C11.6694 6.85129 11.5844 6.92917 11.497 7.0157C11.477 7.03587 11.4571 7.05603 11.4365 7.0768C11.3694 7.14444 11.302 7.21171 11.2346 7.27898C11.1865 7.32733 11.1384 7.37571 11.0903 7.4241C10.9596 7.55558 10.8286 7.68671 10.6975 7.81777C10.5882 7.92707 10.479 8.03653 10.3699 8.14597C10.1125 8.40405 9.85477 8.66184 9.59691 8.91946C9.33053 9.18561 9.06467 9.45227 8.79905 9.71918C8.57124 9.94805 8.3431 10.1766 8.11469 10.4049C7.97815 10.5413 7.84176 10.6779 7.70568 10.8148C7.57779 10.9435 7.4495 11.0717 7.32087 11.1996C7.27363 11.2468 7.22654 11.294 7.1796 11.3415C7.11572 11.406 7.05133 11.4699 6.98678 11.5338C6.96813 11.5529 6.94949 11.5719 6.93028 11.5916C6.87776 11.6429 6.87776 11.6429 6.78419 11.7148C6.605 11.7077 6.46444 11.5453 6.33222 11.4366C6.30954 11.4191 6.28686 11.4016 6.2635 11.3835C5.58222 10.8326 5.1792 9.93848 5.08739 9.08062C4.99952 8.07316 5.28117 7.10627 5.9324 6.32808C7.22243 4.84424 9.49619 4.65344 11.0196 5.89335Z" fill="#484848"/>
<path d="M17.4576 2.01486C17.5445 2.06701 17.5445 2.06701 17.5967 2.15393C17.6178 2.26927 17.6263 2.32308 17.5967 2.43206C17.5503 2.49798 17.5503 2.49798 17.4898 2.56374C17.4677 2.58795 17.4455 2.61216 17.4227 2.63709C17.3139 2.7517 17.2037 2.86461 17.0917 2.97617C17.0664 3.00155 17.041 3.02692 17.015 3.05307C16.9304 3.13779 16.8456 3.2224 16.7609 3.307C16.6995 3.36844 16.6381 3.42989 16.5767 3.49135C16.4434 3.62481 16.31 3.75821 16.1765 3.89156C15.9781 4.08985 15.7798 4.28824 15.5815 4.48665C15.2274 4.84098 14.8731 5.19521 14.5188 5.5494C14.2089 5.85923 13.899 6.16909 13.5892 6.47898C13.5686 6.49954 13.5481 6.5201 13.5269 6.54128C13.4434 6.62472 13.36 6.70817 13.2766 6.79161C12.4942 7.57413 11.7117 8.35655 10.9291 9.13892C10.2334 9.83441 9.53788 10.53 8.84239 11.2256C8.06114 12.0071 7.27982 12.7885 6.49842 13.5698C6.41519 13.653 6.33196 13.7362 6.24873 13.8194C6.22824 13.8399 6.20775 13.8604 6.18663 13.8815C5.87675 14.1913 5.56691 14.5012 5.25709 14.8111C4.90508 15.1632 4.55302 15.5153 4.20086 15.8673C4.00362 16.0644 3.80642 16.2616 3.60929 16.4589C3.46246 16.6058 3.31554 16.7526 3.16858 16.8994C3.10887 16.9591 3.04919 17.0188 2.98955 17.0785C2.90897 17.1592 2.82829 17.2397 2.74759 17.3203C2.72402 17.3439 2.70045 17.3676 2.67618 17.3919C2.64412 17.4239 2.64412 17.4239 2.61141 17.4564C2.58372 17.4841 2.58372 17.4841 2.55547 17.5124C2.45628 17.6025 2.3601 17.6024 2.22891 17.5998C2.16019 17.5904 2.16019 17.5904 2.07328 17.5383C2.01447 17.4402 1.99513 17.3618 2.001 17.2472C2.02588 17.1557 2.06398 17.1111 2.12795 17.0415C2.1501 17.0173 2.17225 16.9931 2.19507 16.9682C2.3039 16.8536 2.41414 16.7407 2.52609 16.6291C2.55142 16.6037 2.57674 16.5783 2.60283 16.5522C2.68744 16.4675 2.77216 16.3829 2.85688 16.2983C2.91828 16.2368 2.97968 16.1754 3.04107 16.1139C3.17441 15.9805 3.3078 15.8471 3.44124 15.7137C3.63966 15.5154 3.83799 15.317 4.03629 15.1186C4.39044 14.7643 4.74469 14.41 5.09898 14.0559C5.40889 13.746 5.71878 13.4362 6.02863 13.1263C6.04918 13.1057 6.06974 13.0852 6.09091 13.064C6.17435 12.9805 6.25778 12.8971 6.34121 12.8137C7.12363 12.0311 7.90614 11.2487 8.6887 10.4663C9.38435 9.77086 10.0799 9.07528 10.7754 8.37963C11.5567 7.59818 12.338 6.8168 13.1194 6.0355C13.2026 5.95228 13.2858 5.86907 13.3691 5.78585C13.3896 5.76536 13.41 5.74487 13.4312 5.72376C13.741 5.41391 14.0509 5.10403 14.3607 4.79412C14.7127 4.44201 15.0648 4.08997 15.4169 3.73801C15.6142 3.54086 15.8114 3.34367 16.0085 3.14641C16.1553 2.99949 16.3023 2.85266 16.4492 2.70587C16.5089 2.6462 16.5686 2.5865 16.6282 2.52677C16.7088 2.4461 16.7895 2.36552 16.8702 2.28498C16.8938 2.26133 16.9173 2.23768 16.9416 2.21332C16.963 2.19203 16.9844 2.17075 17.0064 2.14882C17.0248 2.13036 17.0433 2.1119 17.0623 2.09289C17.1763 1.9893 17.3118 1.99498 17.4576 2.01486Z" fill="#484848"/>
<path d="M5.70641 11.541C5.79333 11.5932 5.79333 11.5932 5.84548 11.6801C5.86662 11.7954 5.87505 11.8493 5.84548 11.9582C5.7998 12.0233 5.7998 12.0233 5.73989 12.0884C5.71777 12.1125 5.69566 12.1367 5.67287 12.1616C5.64952 12.1863 5.62617 12.211 5.60211 12.2364C5.56884 12.2715 5.56884 12.2715 5.53489 12.3074C5.38416 12.4645 5.2306 12.6189 5.07723 12.7734C5.02135 12.8299 4.96566 12.8865 4.91016 12.9434C4.82941 13.026 4.74811 13.1081 4.66667 13.19C4.64207 13.2154 4.61747 13.2408 4.59213 13.2669C4.44826 13.4102 4.34526 13.493 4.14191 13.5227C4.02674 13.4902 4.02674 13.4902 3.93331 13.4184C3.87308 13.2908 3.84892 13.2182 3.89548 13.083C4.00115 12.9134 4.13818 12.7829 4.28002 12.6431C4.32586 12.5974 4.32586 12.5974 4.37261 12.5507C4.4535 12.4701 4.53462 12.3898 4.61584 12.3095C4.6986 12.2276 4.78096 12.1453 4.86339 12.063C4.92604 12.0007 4.98871 11.9384 5.05141 11.8761C5.08115 11.8465 5.11088 11.8169 5.14151 11.7864C5.16901 11.7593 5.19651 11.7321 5.22485 11.7041C5.24908 11.6801 5.27332 11.6561 5.29829 11.6314C5.41914 11.5203 5.54901 11.5196 5.70641 11.541Z" fill="#484848"/>
<path d="M4.38528 3.92708C4.50586 4.02348 4.61201 4.13277 4.71964 4.24324C4.75085 4.27462 4.78206 4.30599 4.81422 4.33832C4.89672 4.42143 4.97881 4.50491 5.06074 4.58858C5.12786 4.65694 5.19538 4.7249 5.26291 4.79285C5.40229 4.93311 5.54136 5.07367 5.67978 5.21488C5.7043 5.23984 5.72881 5.2648 5.75406 5.29051C5.85229 5.39802 5.85776 5.48656 5.85486 5.63147C5.84549 5.70019 5.84549 5.70019 5.79334 5.78711C5.69528 5.84594 5.61685 5.86529 5.50215 5.8593C5.41122 5.83463 5.36731 5.79733 5.29816 5.73367C5.27399 5.71155 5.24982 5.68943 5.22491 5.66664C5.1879 5.63162 5.1879 5.63162 5.15015 5.59589C5.12671 5.5737 5.10326 5.55152 5.07911 5.52866C4.922 5.37793 4.76763 5.22437 4.6131 5.07101C4.55664 5.01513 4.49999 4.95944 4.44317 4.90393C4.36052 4.82319 4.27846 4.74189 4.19651 4.66044C4.17112 4.63585 4.14574 4.61125 4.11958 4.58591C3.97643 4.44216 3.89303 4.33904 3.86378 4.13568C3.90412 4.00991 3.9361 3.9484 4.0463 3.87493C4.17626 3.8513 4.26877 3.86917 4.38528 3.92708Z" fill="#484848"/>
<path d="M13.4594 3.96177C13.5159 4.07693 13.5159 4.07693 13.529 4.20513C13.4519 4.42803 13.2767 4.57547 13.1127 4.73709C13.0821 4.76758 13.0516 4.79807 13.0201 4.82949C12.9392 4.91008 12.8581 4.99044 12.7769 5.0707C12.6941 5.15262 12.6118 5.23494 12.5293 5.3172C12.4667 5.37953 12.404 5.44185 12.3413 5.50414C12.3116 5.53372 12.2818 5.56331 12.2512 5.59379C12.2237 5.62096 12.1962 5.64812 12.1679 5.67611C12.1436 5.70011 12.1194 5.72411 12.0944 5.74884C11.988 5.84667 11.8986 5.85142 11.755 5.84855C11.6863 5.83918 11.6863 5.83918 11.5994 5.78703C11.5406 5.68897 11.5212 5.61054 11.5272 5.49584C11.5519 5.40493 11.5891 5.361 11.6528 5.29185C11.6749 5.26768 11.697 5.24351 11.7198 5.2186C11.8364 5.0955 11.9539 4.97347 12.0732 4.85294C12.0994 4.82649 12.1256 4.80004 12.1525 4.77279C12.2074 4.7174 12.2624 4.66207 12.3174 4.60679C12.3735 4.5503 12.4294 4.49365 12.4852 4.43686C12.5663 4.35429 12.6478 4.2722 12.7295 4.1902C12.7542 4.16481 12.779 4.13943 12.8045 4.11327C13.014 3.90473 13.1793 3.78398 13.4594 3.96177Z" fill="#484848"/>
<path d="M8.76929 2.00126C8.87255 2.02246 8.91548 2.06892 8.9745 2.15391C9.01133 2.26592 9.01386 2.37051 9.01431 2.48792C9.01454 2.52702 9.01476 2.56613 9.01499 2.60641C9.01503 2.6485 9.01506 2.69058 9.0151 2.73394C9.01522 2.77732 9.01534 2.8207 9.01545 2.86539C9.01563 2.95713 9.01573 3.04886 9.01571 3.14059C9.0157 3.25789 9.01618 3.37517 9.01678 3.49246C9.01726 3.60468 9.01724 3.71689 9.01728 3.8291C9.01753 3.87111 9.01778 3.91313 9.01803 3.95641C9.01793 3.99563 9.01782 4.03484 9.01771 4.07524C9.01776 4.10964 9.01781 4.14404 9.01786 4.17948C9.00568 4.3144 8.9735 4.41354 8.87889 4.51153C8.77358 4.56711 8.70978 4.56964 8.59206 4.55282C8.49986 4.49615 8.49986 4.49615 8.41823 4.41375C8.39639 4.31217 8.39639 4.31217 8.39629 4.19272C8.39585 4.14794 8.39542 4.10316 8.39497 4.05701C8.39539 4.00825 8.39586 3.95948 8.39636 3.91072C8.39633 3.86058 8.39625 3.81045 8.39611 3.76032C8.39601 3.65533 8.39652 3.55037 8.39747 3.44539C8.39866 3.31093 8.39845 3.17652 8.3978 3.04207C8.39743 2.93857 8.39774 2.83508 8.39826 2.73158C8.39844 2.68201 8.39843 2.63244 8.39821 2.58287C8.39802 2.51356 8.39883 2.44424 8.39968 2.37494C8.3999 2.33552 8.40011 2.2961 8.40033 2.25549C8.43819 2.0406 8.57249 1.991 8.76929 2.00126Z" fill="#484848"/>
<path d="M2.38122 8.39343C2.426 8.39288 2.47079 8.39233 2.51693 8.39176C2.56569 8.39189 2.61446 8.39207 2.66322 8.39228C2.71336 8.3921 2.76349 8.39188 2.81363 8.39163C2.91861 8.39127 3.02357 8.39143 3.12855 8.39194C3.26301 8.39253 3.39742 8.39172 3.53188 8.39049C3.63538 8.38973 3.73886 8.38978 3.84236 8.39007C3.89193 8.3901 3.9415 8.38986 3.99107 8.38935C4.06038 8.38874 4.1297 8.38936 4.19901 8.39003C4.23843 8.39007 4.27784 8.3901 4.31846 8.39014C4.42004 8.41198 4.42004 8.41198 4.5023 8.49375C4.57226 8.60713 4.58095 8.66333 4.5591 8.79441C4.5023 8.88648 4.5023 8.88648 4.42004 8.96825C4.31846 8.99009 4.31846 8.99009 4.19901 8.99019C4.13183 8.99084 4.13183 8.99084 4.0633 8.99151C4.01453 8.99108 3.96577 8.99061 3.917 8.99011C3.86687 8.99014 3.81673 8.99022 3.7666 8.99036C3.66161 8.99046 3.55666 8.98995 3.45167 8.989C3.31722 8.98781 3.18281 8.98802 3.04835 8.98867C2.94485 8.98904 2.84136 8.98873 2.73786 8.98821C2.6883 8.98803 2.63873 8.98804 2.58916 8.98826C2.51984 8.98845 2.45053 8.98764 2.38122 8.98679C2.3418 8.98658 2.30238 8.98636 2.26177 8.98614C2.13836 8.9644 2.09736 8.92665 2.02112 8.82918C2.00266 8.75964 2.00266 8.75964 2.00374 8.69011C2.0032 8.65569 2.0032 8.65569 2.00266 8.62058C2.05496 8.42365 2.19811 8.39443 2.38122 8.39343Z" fill="#484848"/>
</svg>
