<svg width="20" height="20" viewBox="0 0 20 20" fill="none" xmlns="http://www.w3.org/2000/svg">
<path d="M12.9449 9.80153C13.0339 9.85365 13.0339 9.85365 13.0839 9.94051C13.1118 10.0877 13.1143 10.1669 13.0377 10.2967C12.9958 10.3541 12.9533 10.4112 12.9104 10.4679C12.4719 11.0839 12.3486 11.8415 12.441 12.58C12.5647 13.2012 12.8454 13.731 13.2924 14.1795C13.3154 14.2033 13.3384 14.2271 13.3621 14.2517C13.9342 14.8042 14.7033 14.9962 15.4774 14.986C16.0644 14.9684 16.662 14.7364 17.1162 14.3643C17.2273 14.289 17.3326 14.2957 17.4619 14.3185C17.5487 14.3684 17.5487 14.3684 17.6008 14.4575C17.6863 14.9704 17.292 15.5825 17.0059 15.986C16.9297 16.0826 16.8503 16.1737 16.7669 16.2642C16.7503 16.2824 16.7336 16.3005 16.7164 16.3192C16.1941 16.8813 15.5607 17.2739 14.8212 17.4803C14.7838 17.4914 14.7465 17.5025 14.708 17.514C13.672 17.7736 12.5257 17.5529 11.6187 17.011C11.4051 16.8766 11.2188 16.7131 11.0339 16.5422C11.0083 16.5194 10.9827 16.4967 10.9564 16.4732C10.2843 15.8454 9.86068 14.829 9.81341 13.9217C9.77964 12.7555 10.0752 11.7311 10.8783 10.8608C11.3378 10.3813 12.2377 9.68365 12.9449 9.80153ZM11.3119 11.2956C10.6171 12.011 10.388 12.8994 10.399 13.8714C10.4213 14.6806 10.7927 15.4086 11.3466 15.9863C11.3772 16.0195 11.3772 16.0195 11.4084 16.0535C11.9514 16.6272 12.8295 16.9732 13.6089 17.0015C14.5992 17.0242 15.4591 16.7197 16.1828 16.0297C16.3702 15.8371 16.5169 15.6202 16.6627 15.3956C16.5306 15.3516 16.4825 15.3791 16.3522 15.4238C15.4814 15.6992 14.5305 15.6261 13.7109 15.2232C13.3628 15.0417 13.08 14.8058 12.8059 14.5269C12.7795 14.5005 12.7531 14.474 12.7258 14.4467C12.0233 13.7018 11.8035 12.7372 11.828 11.744C11.8387 11.5305 11.8818 11.3282 11.9373 11.1219C11.9522 11.0642 11.9522 11.0642 11.9674 11.0054C11.9911 10.9165 12.0156 10.828 12.0415 10.7397C11.8146 10.7397 11.4639 11.1447 11.3119 11.2956Z" fill="#484848"/>
<path d="M17.4618 2.01848C17.5487 2.0706 17.5487 2.0706 17.6008 2.15747C17.622 2.27273 17.6305 2.32651 17.6008 2.43543C17.5545 2.50132 17.5545 2.50132 17.494 2.56704C17.4608 2.60332 17.4608 2.60332 17.427 2.64035C17.3183 2.75479 17.2083 2.86763 17.0967 2.97911C17.0714 3.00446 17.0461 3.02981 17.0201 3.05593C16.9357 3.14057 16.8512 3.22509 16.7668 3.30961C16.7055 3.37099 16.6443 3.43237 16.583 3.49377C16.4326 3.6446 16.2821 3.79534 16.1315 3.94606C15.9511 4.12666 15.7707 4.30737 15.5904 4.48807C15.1341 4.94532 14.6776 5.40236 14.221 5.85937C14.0974 5.98314 13.9737 6.10691 13.8501 6.23068C13.0825 6.99919 12.3148 7.76764 11.5469 8.53592C11.3692 8.71373 11.1915 8.89154 11.0138 9.06936C10.9917 9.09145 10.9697 9.11354 10.9469 9.1363C10.2304 9.85327 9.51415 10.5706 8.79811 11.288C8.06182 12.0258 7.32524 12.7633 6.58829 13.5005C6.48428 13.6045 6.38028 13.7085 6.27627 13.8126C6.2558 13.833 6.23533 13.8535 6.21424 13.8746C5.88457 14.2044 5.55519 14.5345 5.22591 14.8647C4.89522 15.1963 4.56421 15.5276 4.23288 15.8585C4.03595 16.0552 3.83927 16.2522 3.64293 16.4495C3.49648 16.5966 3.34959 16.7433 3.20251 16.8898C3.14294 16.9492 3.08353 17.0089 3.02427 17.0686C2.94396 17.1496 2.86313 17.23 2.78214 17.3103C2.75905 17.3339 2.73595 17.3574 2.71216 17.3817C2.57342 17.5179 2.47189 17.5887 2.27797 17.6193C2.16287 17.5867 2.16287 17.5867 2.06949 17.5151C2.0152 17.4 2.0152 17.4 2 17.2719C2.07336 17.0748 2.20487 16.9482 2.35129 16.8034C2.37673 16.7778 2.40217 16.7523 2.42839 16.7259C2.51406 16.6399 2.6001 16.5543 2.68615 16.4687C2.74812 16.4067 2.81008 16.3446 2.87201 16.2825C3.0069 16.1474 3.14195 16.0124 3.27714 15.8776C3.47817 15.6771 3.67891 15.4763 3.87958 15.2755C4.21716 14.9376 4.55499 14.6 4.89295 14.2626C5.22765 13.9284 5.56225 13.5941 5.89671 13.2597C5.9175 13.2389 5.9383 13.2181 5.95972 13.1967C6.04411 13.1123 6.12851 13.0279 6.2129 12.9435C6.98215 12.1743 7.75166 11.4053 8.52131 10.6365C9.24832 9.91033 9.97518 9.18397 10.7018 8.45743C10.7242 8.43504 10.7466 8.41265 10.7697 8.38958C10.86 8.29932 10.9503 8.20906 11.0405 8.1188C11.0855 8.07382 11.1305 8.02884 11.1755 7.98387C11.2204 7.939 11.2652 7.89413 11.3101 7.84927C12.024 7.13547 12.7381 6.42181 13.4522 5.70817C13.6614 5.49909 13.8706 5.28999 14.0798 5.08087C14.5198 4.64107 14.9598 4.20131 15.3999 3.76171C15.582 3.57985 15.7641 3.39795 15.9461 3.21598C16.1124 3.04967 16.2789 2.88344 16.4453 2.71727C16.5058 2.65689 16.5662 2.59648 16.6267 2.53603C16.7083 2.45439 16.79 2.37285 16.8717 2.29134C16.8956 2.26741 16.9195 2.24348 16.944 2.21882C16.9657 2.19728 16.9873 2.17574 17.0096 2.15355C17.0377 2.12553 17.0377 2.12553 17.0663 2.09695C17.1805 1.99314 17.3157 1.99855 17.4618 2.01848Z" fill="#484848"/>
<path d="M10.871 5.76879C10.9257 5.81534 10.98 5.8624 11.0339 5.90995C11.0784 5.94757 11.0784 5.94757 11.1237 5.98595C11.3405 6.17347 11.5678 6.37126 11.6637 6.6483C11.6583 6.76703 11.6276 6.82427 11.5551 6.91757C11.432 6.9996 11.3873 7.00696 11.2424 6.98707C11.1133 6.8992 11.0199 6.799 10.9188 6.68087C10.4212 6.10427 9.70296 5.76078 8.94463 5.69506C8.09653 5.6425 7.32856 5.9237 6.6885 6.47457C6.10718 7.01586 5.74763 7.75223 5.71006 8.55089C5.68521 9.39414 5.97933 10.1661 6.5544 10.7822C6.65842 10.8882 6.76468 10.9886 6.8796 11.0827C6.98319 11.1686 6.9996 11.192 7.01424 11.3238C7.00058 11.4631 6.96684 11.5139 6.8644 11.6082C6.76668 11.6452 6.76668 11.6452 6.65593 11.643C5.98079 11.2999 5.52028 10.5885 5.27261 9.89268C4.96901 8.90598 5.03032 7.87304 5.51054 6.95096C5.98363 6.09681 6.75717 5.49287 7.68468 5.20406C8.74826 4.8999 9.99093 5.07847 10.871 5.76879Z" fill="#484848"/>
<path d="M5.71779 11.5388C5.80466 11.5909 5.80466 11.5909 5.85678 11.6778C5.8779 11.793 5.88633 11.8468 5.85678 11.9557C5.81113 12.0207 5.81113 12.0207 5.75125 12.0858C5.72915 12.1099 5.70704 12.1341 5.68427 12.159C5.66093 12.1836 5.6376 12.2083 5.61356 12.2337C5.5803 12.2688 5.5803 12.2688 5.54637 12.3047C5.39573 12.4617 5.24227 12.616 5.08899 12.7704C5.03315 12.8268 4.97749 12.8835 4.92202 12.9402C4.84132 13.0228 4.76007 13.1048 4.67868 13.1868C4.6541 13.2121 4.62951 13.2375 4.60419 13.2636C4.4604 13.4068 4.35747 13.4896 4.15424 13.5193C4.03914 13.4867 4.03914 13.4867 3.94576 13.415C3.88557 13.2874 3.86142 13.215 3.90795 13.0798C4.01357 12.9103 4.15051 12.7799 4.29227 12.6402C4.33807 12.5945 4.33807 12.5945 4.3848 12.5478C4.46564 12.4673 4.54671 12.387 4.62789 12.3068C4.71059 12.2249 4.7929 12.1426 4.87528 12.0604C4.93789 11.9981 5.00053 11.9359 5.06319 11.8736C5.0929 11.844 5.12262 11.8145 5.15324 11.784C5.18072 11.7569 5.2082 11.7297 5.23652 11.7017C5.26074 11.6778 5.28496 11.6538 5.30992 11.6291C5.43069 11.518 5.56049 11.5173 5.71779 11.5388Z" fill="#484848"/>
<path d="M13.4313 3.92946C13.5186 4.0432 13.5397 4.10331 13.5226 4.24586C13.4601 4.44302 13.2943 4.57485 13.1501 4.71531C13.1188 4.74651 13.0874 4.7777 13.0551 4.80984C12.972 4.89229 12.8886 4.97433 12.805 5.05621C12.7367 5.12329 12.6688 5.19076 12.6008 5.25826C12.4607 5.39755 12.3202 5.53654 12.1791 5.67488C12.1541 5.69937 12.1292 5.72387 12.1035 5.74911C11.996 5.84728 11.9076 5.85274 11.7627 5.84984C11.6941 5.84048 11.6941 5.84048 11.6072 5.78836C11.5484 5.69036 11.5291 5.61198 11.5351 5.49735C11.5597 5.40652 11.5969 5.3626 11.6604 5.29349C11.6826 5.26933 11.7047 5.24517 11.7274 5.22028C11.8443 5.09709 11.9623 4.97526 12.082 4.85484C12.1213 4.81519 12.1213 4.81519 12.1615 4.77474C12.2165 4.71939 12.2716 4.66409 12.3267 4.60884C12.4109 4.52423 12.4948 4.43926 12.5787 4.35429C12.6324 4.30033 12.6862 4.2464 12.74 4.1925C12.7649 4.16713 12.7898 4.14176 12.8155 4.11562C12.8391 4.09218 12.8626 4.06873 12.8869 4.04458C12.9074 4.02397 12.9279 4.00335 12.949 3.98212C13.1145 3.84888 13.2379 3.84348 13.4313 3.92946Z" fill="#484848"/>
<path d="M4.39746 3.92948C4.51796 4.02583 4.62405 4.13505 4.73161 4.24545C4.76281 4.27681 4.794 4.30817 4.82614 4.34047C4.90859 4.42354 4.99063 4.50697 5.07251 4.59058C5.13959 4.6589 5.20706 4.72682 5.27455 4.79473C5.41384 4.93491 5.55284 5.07538 5.69117 5.2165C5.71567 5.24145 5.74017 5.26639 5.76541 5.29209C5.86358 5.39953 5.86904 5.48802 5.86614 5.63284C5.85678 5.70152 5.85678 5.70152 5.80466 5.78838C5.70666 5.84718 5.62828 5.86652 5.51365 5.86053C5.42278 5.83587 5.37889 5.7986 5.30979 5.73497C5.28563 5.71287 5.26147 5.69077 5.23658 5.66799C5.19959 5.63299 5.19959 5.63299 5.16186 5.59728C5.13843 5.57511 5.115 5.55294 5.09086 5.5301C4.93385 5.37946 4.77957 5.22599 4.62514 5.07272C4.56871 5.01687 4.5121 4.96121 4.45531 4.90574C4.37271 4.82505 4.2907 4.7438 4.2088 4.6624C4.18343 4.63782 4.15806 4.61324 4.13192 4.58791C3.98886 4.44425 3.9055 4.34119 3.87627 4.13796C3.91659 4.01227 3.94855 3.95079 4.05869 3.87737C4.18856 3.85375 4.28102 3.87161 4.39746 3.92948Z" fill="#484848"/>
<path d="M2.39462 8.39312C2.43938 8.39257 2.48414 8.39202 2.53025 8.39145C2.57899 8.39159 2.62772 8.39176 2.67646 8.39198C2.72656 8.39179 2.77667 8.39158 2.82677 8.39132C2.93169 8.39096 3.03659 8.39112 3.1415 8.39163C3.27588 8.39223 3.41021 8.39141 3.54458 8.39019C3.64802 8.38942 3.75144 8.38947 3.85488 8.38976C3.90442 8.38979 3.95396 8.38955 4.0035 8.38904C4.07276 8.38843 4.14204 8.38905 4.21131 8.38973C4.2507 8.38976 4.2901 8.3898 4.33068 8.38983C4.4322 8.41166 4.4322 8.41166 4.51441 8.49338C4.58433 8.60669 4.59302 8.66286 4.57119 8.79386C4.51441 8.88587 4.51441 8.88587 4.4322 8.96759C4.33068 8.98942 4.33068 8.98942 4.21131 8.98952C4.14417 8.99017 4.14417 8.99017 4.07568 8.99084C4.02695 8.99041 3.97821 8.98994 3.92948 8.98944C3.87937 8.98947 3.82927 8.98955 3.77916 8.98969C3.67424 8.98979 3.56935 8.98928 3.46443 8.98833C3.33005 8.98714 3.19573 8.98735 3.06135 8.988C2.95791 8.98837 2.85449 8.98806 2.75105 8.98754C2.70151 8.98736 2.65197 8.98738 2.60244 8.98759C2.53316 8.98778 2.46389 8.98697 2.39462 8.98612C2.35523 8.98591 2.31584 8.98569 2.27525 8.98547C2.15191 8.96374 2.11093 8.92602 2.03475 8.82861C2.01629 8.75911 2.01629 8.75911 2.01737 8.68962C2.01684 8.65522 2.01684 8.65522 2.01629 8.62013C2.06857 8.42332 2.21163 8.39412 2.39462 8.39312Z" fill="#484848"/>
<path d="M8.70593 2.00109C8.72886 2.00073 8.75179 2.00037 8.77542 2C8.87785 2.02721 8.91772 2.07547 8.98389 2.15744C9.00177 2.25896 9.00177 2.25896 9.00243 2.37833C9.00298 2.42309 9.00353 2.46785 9.00409 2.51396C9.00396 2.5627 9.00379 2.61143 9.00357 2.66017C9.00375 2.71027 9.00397 2.76038 9.00422 2.81048C9.00459 2.9154 9.00443 3.0203 9.00392 3.12522C9.00332 3.25959 9.00414 3.39392 9.00536 3.5283C9.00612 3.63173 9.00608 3.73515 9.00579 3.83859C9.00576 3.88813 9.006 3.93767 9.00651 3.98721C9.00711 4.05648 9.00649 4.12575 9.00582 4.19502C9.00577 4.25411 9.00577 4.25411 9.00572 4.3144C8.98389 4.41591 8.98389 4.41591 8.90217 4.49813C8.78886 4.56804 8.73269 4.57673 8.60169 4.5549C8.50968 4.49813 8.50968 4.49813 8.42796 4.41591C8.40613 4.3144 8.40613 4.3144 8.40603 4.19502C8.4056 4.15026 8.40516 4.10551 8.40471 4.05939C8.40514 4.01066 8.40561 3.96192 8.40611 3.91319C8.40608 3.86308 8.40599 3.81298 8.40585 3.76287C8.40576 3.65795 8.40627 3.55306 8.40722 3.44814C8.4084 3.31377 8.40819 3.17944 8.40754 3.04506C8.40718 2.94162 8.40749 2.8382 8.40801 2.73476C8.40819 2.68522 8.40817 2.63569 8.40796 2.58615C8.40777 2.51688 8.40857 2.4476 8.40943 2.37833C8.40964 2.33894 8.40986 2.29955 8.41008 2.25896C8.43927 2.09324 8.53541 1.99842 8.70593 2.00109Z" fill="#484848"/>
</svg>
