<svg width="20" height="20" viewBox="0 0 20 20" fill="none" xmlns="http://www.w3.org/2000/svg">
<path d="M15.6659 5H3.51843C2.67983 5 2 5.68997 2 6.54109V12.4512C2 13.3023 2.67983 13.9923 3.51843 13.9923H15.6659C16.5045 13.9923 17.1843 13.3023 17.1843 12.4512V6.54109C17.1843 5.68997 16.5045 5 15.6659 5Z" fill="#484848" stroke="#484848" stroke-linecap="round" stroke-linejoin="round"/>
<path d="M5.03686 5C5.03686 6.70291 3.67787 8.45976 2 8.45976" stroke="#F9F9FA" stroke-linecap="round" stroke-linejoin="round"/>
<path d="M2 10.4786C3.67787 10.4786 5.03686 12.2971 5.03686 14" stroke="#F9F9FA" stroke-linecap="round" stroke-linejoin="round"/>
<path d="M14.1475 14C14.1475 12.2971 15.5065 10.4786 17.1843 10.4786" stroke="#F9F9FA" stroke-linecap="round" stroke-linejoin="round"/>
<path d="M17.1843 8.45976C15.5065 8.45976 14.1475 6.70291 14.1475 5V5.37757" stroke="#F9F9FA" stroke-linecap="round" stroke-linejoin="round"/>
<path d="M9.59216 11.0411C10.4308 11.0411 11.1106 10.3511 11.1106 9.49996C11.1106 8.64883 10.4308 7.95886 9.59216 7.95886C8.75356 7.95886 8.07373 8.64883 8.07373 9.49996C8.07373 10.3511 8.75356 11.0411 9.59216 11.0411Z" stroke="#F9F9FA" stroke-linecap="round" stroke-linejoin="round"/>
</svg>
