<svg width="20" height="20" viewBox="0 0 20 20" fill="none" xmlns="http://www.w3.org/2000/svg">
<path d="M8.62149 2.05521C8.72276 2.14181 8.82262 2.22965 8.92068 2.31989C8.98217 2.37595 9.04432 2.43049 9.10736 2.48475C9.23923 2.60017 9.36333 2.72237 9.48698 2.8465C9.51016 2.86967 9.53333 2.89284 9.55721 2.91672C9.60587 2.96542 9.6545 3.01415 9.70309 3.06292C9.77695 3.13701 9.85096 3.21095 9.92498 3.28487C9.97251 3.33248 10.02 3.38009 10.0676 3.42772C10.1003 3.46044 10.1003 3.46044 10.1338 3.49383C10.2684 3.62925 10.3958 3.76914 10.5202 3.91401C10.5627 3.96102 10.6053 4.00795 10.648 4.05474C10.7862 4.20825 10.9167 4.36712 11.046 4.52812C11.0734 4.56194 11.1008 4.59575 11.1282 4.62956C11.2184 4.74133 11.3078 4.85383 11.3965 4.96678C11.4102 4.98412 11.4239 5.00147 11.4379 5.01934C11.8413 5.53539 12.2142 6.0921 12.5358 6.66291C12.5488 6.68573 12.5618 6.70854 12.5751 6.73205C12.9834 7.45217 13.3202 8.19801 13.5417 8.99692C13.549 9.02292 13.5562 9.04891 13.5636 9.0757C13.6063 9.23657 13.6312 9.3922 13.6458 9.55803C13.6848 9.55102 13.6848 9.55102 13.7246 9.54387C14.6853 9.40783 15.6885 9.65254 16.47 10.2286C16.5541 10.2942 16.6341 10.3636 16.713 10.4353C16.731 10.4516 16.7489 10.4679 16.7675 10.4847C17.3234 10.996 17.6765 11.6118 17.8814 12.3362C17.8964 12.3879 17.8964 12.3879 17.9116 12.4406C18.0506 13.0295 18.0218 13.7462 17.8522 14.3247C17.8428 14.3571 17.8428 14.3571 17.8332 14.3901C17.5595 15.2998 16.9221 16.0636 16.094 16.5244C15.1573 17.0237 14.0645 17.1371 13.0478 16.8303C12.2494 16.5748 11.5873 16.0276 11.1044 15.3483C11.0754 15.3631 11.0464 15.378 11.0166 15.3933C9.62608 16.1011 8.13301 16.2781 6.63148 15.7961C5.64896 15.4607 4.7567 14.8268 4.12298 14.0031C4.10193 13.9758 4.10193 13.9758 4.08046 13.948C3.70835 13.4589 3.43341 12.9214 3.24665 12.3362C3.23616 12.3033 3.23616 12.3033 3.22545 12.2699C3.06208 11.7469 2.99607 11.2272 3.00018 10.6803C3.00027 10.6549 3.00036 10.6296 3.00045 10.6035C3.00264 10.1783 3.03302 9.76862 3.1298 9.35333C3.13919 9.31284 3.13919 9.31284 3.14877 9.27154C3.19414 9.08219 3.24725 8.89585 3.30507 8.70997C3.31335 8.68323 3.32162 8.65649 3.33015 8.62895C3.91142 6.78546 5.10437 5.14612 6.40553 3.74134C6.45781 3.68484 6.50969 3.62804 6.56134 3.57096C6.75089 3.3616 6.94635 3.15922 7.1463 2.95981C7.196 2.91021 7.24554 2.86046 7.29507 2.81069C7.4596 2.64586 7.62523 2.48484 7.80358 2.33485C7.81984 2.32086 7.8361 2.30687 7.85285 2.29246C7.89766 2.25393 7.94281 2.21578 7.98798 2.17767C8.01738 2.15271 8.04679 2.12775 8.07709 2.10204C8.23321 1.98117 8.4448 1.97045 8.62149 2.05521ZM8.35859 3.06594C8.336 3.0889 8.31341 3.11186 8.29013 3.13551C8.14044 3.28691 7.99062 3.43518 7.8288 3.57371C7.66968 3.71364 7.52798 3.86845 7.39017 4.02904C7.33068 4.09565 7.26829 4.15831 7.20475 4.22107C7.0865 4.33826 6.97672 4.45989 6.86883 4.58661C6.84367 4.61571 6.81852 4.64482 6.7926 4.6748C5.36736 6.32532 3.913 8.38044 3.9112 10.651C3.91118 10.6733 3.91116 10.6956 3.91114 10.7185C3.91161 11.0511 3.92507 11.3692 4.00614 11.6928C4.01115 11.7132 4.01616 11.7336 4.02133 11.7546C4.21388 12.5207 4.60384 13.1973 5.14537 13.7691C5.18451 13.8111 5.18451 13.8111 5.22445 13.854C6.04119 14.7134 7.19295 15.1383 8.36122 15.1717C9.18693 15.1843 9.98534 14.9446 10.6955 14.5295C10.6749 14.3687 10.6429 14.2124 10.6078 14.0542C10.5644 13.8521 10.5278 13.6546 10.5202 13.4474C10.519 13.4236 10.5179 13.3997 10.5167 13.3751C10.4912 12.3817 10.8736 11.4246 11.5426 10.6985C11.5682 10.6705 11.5937 10.6425 11.6201 10.6137C11.9539 10.2638 12.3408 10.0363 12.7695 9.82123C12.6507 8.48221 11.8383 7.14624 11.0752 6.07804C11.0589 6.05506 11.0425 6.03209 11.0256 6.00841C10.7828 5.66927 10.5264 5.34378 10.2573 5.02527C10.2419 5.00691 10.2264 4.98855 10.2105 4.96964C10.0345 4.76071 9.8547 4.55596 9.6691 4.35555C9.6165 4.29869 9.56427 4.24156 9.51224 4.18418C9.33001 3.98322 9.14332 3.78761 8.9516 3.5957C8.90576 3.54975 8.86016 3.50356 8.81456 3.45736C8.67113 3.313 8.53053 3.17656 8.35859 3.06594ZM12.3021 11.1957C12.2793 11.2161 12.2565 11.2365 12.2331 11.2575C11.7828 11.6834 11.4588 12.3233 11.4206 12.9471C11.4018 13.8703 11.5991 14.5992 12.2437 15.2898C12.8238 15.8303 13.5686 16.1307 14.363 16.116C15.1809 16.0558 15.88 15.6985 16.4209 15.0851C16.87 14.5192 17.1668 13.7854 17.0845 13.0525C17.0736 12.9786 17.0616 12.9051 17.0489 12.8315C17.0447 12.8062 17.0405 12.7809 17.0362 12.7548C17.026 12.6932 17.0156 12.6317 17.0051 12.5701C16.8523 12.6979 16.7101 12.8324 16.5701 12.974C16.548 12.9962 16.526 13.0183 16.5032 13.0412C16.4556 13.089 16.4081 13.1369 16.3606 13.1848C16.2854 13.2606 16.2101 13.3362 16.1348 13.4119C15.9208 13.6269 15.7069 13.842 15.4932 14.0573C15.3622 14.1892 15.2311 14.321 15.0998 14.4527C15.0499 14.5028 15 14.5531 14.9502 14.6033C14.8807 14.6735 14.811 14.7434 14.7413 14.8134C14.7207 14.8342 14.7002 14.855 14.679 14.8765C14.66 14.8955 14.6409 14.9146 14.6213 14.9341C14.6049 14.9507 14.5885 14.9672 14.5715 14.9843C14.469 15.0721 14.3818 15.0942 14.2483 15.0961C14.2215 15.0969 14.1948 15.0977 14.1673 15.0986C13.9972 15.0711 13.8767 14.9435 13.7583 14.8256C13.7444 14.8119 13.7306 14.7981 13.7162 14.7839C13.6709 14.7389 13.6257 14.6936 13.5805 14.6484C13.5488 14.6168 13.5171 14.5851 13.4854 14.5535C13.4192 14.4875 13.3532 14.4213 13.2872 14.3551C13.2027 14.2704 13.1179 14.1859 13.0329 14.1016C12.9675 14.0365 12.9022 13.9712 12.837 13.9059C12.8058 13.8746 12.7746 13.8435 12.7433 13.8124C12.6995 13.769 12.656 13.7253 12.6126 13.6815C12.5878 13.6567 12.5631 13.6319 12.5375 13.6064C12.4272 13.4758 12.4067 13.3565 12.412 13.1904C12.4228 13.0903 12.4463 13.0313 12.5066 12.9503C12.6234 12.8578 12.7379 12.8233 12.8863 12.8278C12.9982 12.8466 13.0605 12.8758 13.1437 12.9526C13.1638 12.9711 13.184 12.9896 13.2047 13.0086C13.3044 13.1039 13.4026 13.2004 13.4997 13.2984C13.5208 13.3195 13.5419 13.3406 13.5636 13.3624C13.63 13.4291 13.6963 13.4958 13.7626 13.5626C13.808 13.6082 13.8534 13.6537 13.8988 13.6993C14.0093 13.8102 14.1197 13.9212 14.23 14.0323C14.3792 13.9073 14.519 13.7764 14.6561 13.6383C14.6773 13.6171 14.6984 13.596 14.7201 13.5742C14.7893 13.505 14.8583 13.4357 14.9273 13.3663C14.9755 13.3181 15.0237 13.2698 15.0718 13.2215C15.1982 13.095 15.3244 12.9683 15.4506 12.8416C15.5796 12.7122 15.7087 12.5829 15.8377 12.4535C16.0906 12.2 16.3434 11.9465 16.5961 11.6928C16.5689 11.6511 16.5416 11.6095 16.5143 11.5679C16.4915 11.5331 16.4915 11.5331 16.4682 11.4976C16.0786 10.9385 15.4297 10.5911 14.7725 10.4669C13.8752 10.3175 12.9764 10.5876 12.3021 11.1957Z" fill="#484848"/>
</svg>
