<svg width="20" height="20" viewBox="0 0 20 20" fill="none" xmlns="http://www.w3.org/2000/svg">
<path d="M8.53566 2.01028C8.68489 2.08042 8.80168 2.20586 8.92261 2.31716C8.98412 2.37326 9.04629 2.42783 9.10935 2.48212C9.24127 2.59761 9.36541 2.71988 9.4891 2.84407C9.51228 2.86726 9.53547 2.89044 9.55935 2.91433C9.60803 2.96306 9.65667 3.01182 9.70528 3.06062C9.77916 3.13475 9.85319 3.20873 9.92724 3.28269C9.97479 3.33032 10.0223 3.37796 10.0699 3.42562C10.1027 3.45836 10.1027 3.45836 10.1361 3.49177C10.2708 3.62726 10.3982 3.76723 10.5227 3.91218C10.5652 3.95922 10.6078 4.00617 10.6505 4.05299C10.7887 4.20659 10.9192 4.36558 11.0486 4.52664C11.0753 4.55945 11.1021 4.59225 11.1288 4.62505C11.6999 5.32906 12.2105 6.0775 12.6558 6.86744C12.6751 6.90148 12.6751 6.90148 12.6948 6.9362C13.4447 8.27244 13.4447 8.27244 13.4447 8.74008C13.4277 8.74448 13.4107 8.74888 13.3932 8.75341C12.117 9.0857 11.0641 9.71352 10.3654 10.8727C9.73314 11.9524 9.51522 13.1995 9.81456 14.4218C9.92234 14.8298 10.0847 15.211 10.3044 15.5707C10.3473 15.6454 10.3473 15.6454 10.3473 15.704C10.0855 15.7969 9.8243 15.8847 9.55291 15.9454C9.5239 15.952 9.5239 15.952 9.49431 15.9587C9.12657 16.0372 8.7611 16.0663 8.38591 16.0642C8.36492 16.0642 8.34393 16.0641 8.3223 16.064C6.98365 16.0569 5.81293 15.5652 4.79541 14.7091C4.77397 14.6913 4.75254 14.6735 4.73046 14.6552C4.59162 14.5373 4.4742 14.4094 4.3571 14.2702C4.33303 14.2432 4.30896 14.2161 4.28416 14.1883C3.4337 13.2253 2.99042 11.9608 3.00016 10.6822C3.00026 10.6568 3.00035 10.6314 3.00046 10.6053C3.00284 10.1794 3.03327 9.77049 3.12982 9.35454C3.14017 9.30905 3.14017 9.30905 3.15073 9.26263C3.55095 7.54923 4.51664 5.9793 5.62957 4.63658C5.69062 4.56265 5.75062 4.48788 5.81083 4.41326C5.91574 4.28492 6.02497 4.16121 6.13648 4.03859C6.19009 3.97943 6.24264 3.91959 6.2948 3.85914C6.56135 3.55365 6.84199 3.26254 7.12886 2.97626C7.18467 2.92053 7.24031 2.86465 7.29595 2.80876C7.47034 2.63402 7.64435 2.46078 7.83436 2.30288C7.84983 2.28984 7.86529 2.2768 7.88122 2.26337C7.92258 2.2287 7.9643 2.19445 8.00604 2.16023C8.03308 2.13798 8.06013 2.11573 8.08799 2.0928C8.22699 1.98361 8.36412 1.99361 8.53566 2.01028Z" fill="#484848"/>
<path d="M16.659 10.3787C16.6981 10.4111 16.6981 10.4111 16.7379 10.4443C16.9222 10.6031 17.138 10.7931 17.2388 11.019C17.2434 11.0809 17.2434 11.0809 17.2005 11.1419C17.1785 11.1638 17.1565 11.1857 17.1338 11.2083C17.1088 11.2336 17.0837 11.2588 17.0579 11.2849C17.0297 11.3126 17.0014 11.3404 16.9732 11.3682C16.9438 11.3976 16.9144 11.427 16.8851 11.4564C16.8052 11.5364 16.7249 11.616 16.6445 11.6954C16.5607 11.7785 16.4772 11.862 16.3937 11.9454C16.2355 12.1035 16.0768 12.2611 15.9181 12.4186C15.7374 12.5979 15.5571 12.7776 15.3768 12.9574C15.006 13.3272 14.6346 13.6965 14.2629 14.0654C14.1701 14.0211 14.1078 13.9755 14.0354 13.9018C14.0141 13.8803 13.9929 13.8589 13.971 13.8367C13.9483 13.8135 13.9256 13.7903 13.9022 13.7664C13.8787 13.7426 13.8551 13.7188 13.8308 13.6943C13.7301 13.5924 13.6296 13.4902 13.5292 13.388C13.4558 13.3135 13.3822 13.2391 13.3087 13.1648C13.286 13.1416 13.2633 13.1184 13.24 13.0945C13.2187 13.073 13.1974 13.0515 13.1755 13.0294C13.1569 13.0105 13.1383 12.9915 13.1192 12.972C13.0303 12.8939 12.9674 12.8676 12.8494 12.8566C12.6914 12.8703 12.6051 12.9126 12.4987 13.0304C12.4396 13.1532 12.4209 13.2585 12.4512 13.3924C12.5263 13.5153 12.6093 13.6167 12.7105 13.7186C12.7243 13.7325 12.738 13.7465 12.7522 13.7608C12.7972 13.8063 12.8424 13.8515 12.8876 13.8967C12.9192 13.9285 12.9508 13.9602 12.9824 13.992C13.0484 14.0583 13.1145 14.1245 13.1806 14.1906C13.2653 14.2752 13.3497 14.3602 13.4339 14.4452C13.499 14.5108 13.5642 14.5762 13.6295 14.6415C13.6607 14.6727 13.6918 14.704 13.7229 14.7354C13.7663 14.7792 13.81 14.8228 13.8538 14.8663C13.8909 14.9035 13.8909 14.9035 13.9288 14.9415C14.0307 15.0279 14.1129 15.0566 14.2447 15.0712C14.5136 15.0434 14.6818 14.8281 14.8618 14.6452C14.8922 14.6146 14.9226 14.5841 14.9531 14.5535C15.0184 14.488 15.0835 14.4223 15.1486 14.3565C15.2514 14.2525 15.3545 14.1488 15.4576 14.0452C15.6577 13.8442 15.8575 13.6428 16.0572 13.4413C16.312 13.1845 16.5669 12.9278 16.822 12.6713C16.9246 12.5682 17.0271 12.4649 17.1294 12.3615C17.1929 12.2975 17.2565 12.2335 17.3201 12.1695C17.3497 12.1398 17.3792 12.11 17.4086 12.0801C17.4487 12.0395 17.489 11.999 17.5293 11.9586C17.5518 11.9359 17.5743 11.9132 17.5975 11.8898C17.6525 11.8417 17.6525 11.8417 17.711 11.8417C18.0818 12.6894 18.0937 13.6995 17.7585 14.5625C17.5904 14.9681 17.383 15.341 17.0973 15.6747C17.0846 15.6897 17.072 15.7046 17.0589 15.72C16.461 16.4192 15.6448 16.8756 14.7305 16.9914C13.6316 17.0485 12.6667 16.8291 11.8084 16.1136C11.7822 16.0919 11.7561 16.0703 11.7292 16.0479C11.0047 15.4218 10.5797 14.4905 10.5034 13.544C10.445 12.6357 10.6795 11.6515 11.2783 10.9468C11.2989 10.9235 11.3196 10.9001 11.3408 10.8761C11.3645 10.8482 11.3882 10.8203 11.4125 10.7916C12.7176 9.28222 15.1427 9.08673 16.659 10.3787Z" fill="#484848"/>
</svg>
