<svg width="20" height="20" viewBox="0 0 20 20" fill="none" xmlns="http://www.w3.org/2000/svg">
<path d="M15.9166 3.30835H4.08329C3.16282 3.30835 2.41663 4.05454 2.41663 4.97502V11.3667C2.41663 12.2872 3.16282 13.0333 4.08329 13.0333H15.9166C16.8371 13.0333 17.5833 12.2872 17.5833 11.3667V4.97502C17.5833 4.05454 16.8371 3.30835 15.9166 3.30835Z" fill="#484848" stroke="#484848" stroke-linecap="round" stroke-linejoin="round"/>
<path d="M16.6666 13.0333L18.7666 15.8417C18.8464 15.9691 18.8901 16.1158 18.8933 16.2661C18.8964 16.4164 18.8588 16.5648 18.7845 16.6954C18.7102 16.8261 18.6019 16.9343 18.4711 17.0084C18.3404 17.0826 18.1919 17.12 18.0416 17.1167H1.92498C1.77467 17.12 1.62627 17.0826 1.49549 17.0084C1.3647 16.9343 1.25642 16.8261 1.18211 16.6954C1.10779 16.5648 1.07022 16.4164 1.07336 16.2661C1.07651 16.1158 1.12026 15.9691 1.19998 15.8417L3.33331 13.0333" stroke="#484848" stroke-linecap="round" stroke-linejoin="round"/>
</svg>
