<svg width="20" height="20" viewBox="0 0 20 20" fill="none" xmlns="http://www.w3.org/2000/svg">
<path d="M15.9166 3.30835H4.08329C3.16282 3.30835 2.41663 4.05454 2.41663 4.97502V11.3667C2.41663 12.2872 3.16282 13.0333 4.08329 13.0333H15.9166C16.8371 13.0333 17.5833 12.2872 17.5833 11.3667V4.97502C17.5833 4.05454 16.8371 3.30835 15.9166 3.30835Z" stroke="#484848" stroke-linecap="round" stroke-linejoin="round"/>
<path d="M16.6666 12.8334L18.7666 15.6417C18.8464 15.7692 18.8901 15.9158 18.8933 16.0661C18.8964 16.2164 18.8588 16.3648 18.7845 16.4955C18.7102 16.6262 18.6019 16.7343 18.4711 16.8085C18.3404 16.8826 18.1919 16.92 18.0416 16.9167H1.92498C1.77467 16.92 1.62627 16.8826 1.49549 16.8085C1.3647 16.7343 1.25642 16.6262 1.18211 16.4955C1.10779 16.3648 1.07022 16.2164 1.07336 16.0661C1.07651 15.9158 1.12026 15.7692 1.19998 15.6417L3.33331 12.8334" stroke="#484848" stroke-linecap="round" stroke-linejoin="round"/>
</svg>
