<svg width="20" height="20" viewBox="0 0 20 20" fill="none" xmlns="http://www.w3.org/2000/svg">
<path d="M17.6944 7.66843L17.9662 5.9346C18.0032 5.71852 17.9644 5.49612 17.8566 5.30607C17.7488 5.11601 17.5787 4.97031 17.376 4.8943L15.7687 4.26381L15.1552 2.64032C15.0805 2.43614 14.9382 2.26469 14.7526 2.1554C14.567 2.04611 14.3497 2.00579 14.138 2.04136L12.4296 2.31719L11.094 1.21385C10.9275 1.07556 10.719 1 10.5039 1C10.2887 1 10.0802 1.07556 9.91373 1.21385L8.57036 2.31719L6.86203 2.04136C6.64913 2.00381 6.43 2.04317 6.24274 2.1526C6.05548 2.26202 5.91192 2.4346 5.83703 2.64032L5.21582 4.27169L3.6162 4.8943C3.41502 4.97007 3.24609 5.11454 3.13841 5.30292C3.03073 5.4913 2.991 5.71185 3.02604 5.92671L3.29782 7.66055L2.2107 9.01608C2.07445 9.18506 2 9.39669 2 9.61504C2 9.8334 2.07445 10.045 2.2107 10.214L3.29782 11.5695L3.02604 13.3034C2.98707 13.5206 3.02489 13.7449 3.13285 13.9367C3.24081 14.1284 3.41197 14.2753 3.6162 14.3516L5.22358 14.982L5.83703 16.6055C5.91169 16.8097 6.05403 16.9812 6.23965 17.0905C6.42526 17.1997 6.64256 17.2401 6.85426 17.2045L8.5626 16.9287L9.8982 18.032C10.0647 18.1703 10.2732 18.2459 10.4884 18.2459C10.7035 18.2459 10.912 18.1703 11.0785 18.032L12.4141 16.9287L14.1224 17.2045C14.3365 17.244 14.5575 17.2057 14.7464 17.0961C14.9353 16.9865 15.0801 16.8128 15.1552 16.6055L15.7764 14.9742L17.3838 14.3437C17.585 14.2679 17.7539 14.1234 17.8616 13.935C17.9693 13.7467 18.009 13.5261 17.974 13.3113L17.7022 11.5774L18.7893 10.2219C18.9256 10.0529 19 9.84128 19 9.62293C19 9.40457 18.9256 9.19295 18.7893 9.02397L17.6944 7.66843Z" fill="#484848" stroke="#484848" stroke-linecap="round" stroke-linejoin="round"/>
<path d="M14.5294 5.45056L6.18472 13.7952" stroke="#F9F9FA" stroke-linecap="round" stroke-linejoin="round"/>
<path d="M8.27088 8.78843C8.96218 8.78843 9.52258 8.22802 9.52258 7.53673C9.52258 6.84544 8.96218 6.28503 8.27088 6.28503C7.57959 6.28503 7.01919 6.84544 7.01919 7.53673C7.01919 8.22802 7.57959 8.78843 8.27088 8.78843Z" fill="white" stroke="#F9F9FA" stroke-linecap="round" stroke-linejoin="round"/>
<path d="M12.4432 13.239C13.1345 13.239 13.6949 12.6786 13.6949 11.9873C13.6949 11.296 13.1345 10.7356 12.4432 10.7356C11.7519 10.7356 11.1915 11.296 11.1915 11.9873C11.1915 12.6786 11.7519 13.239 12.4432 13.239Z" fill="white" stroke="#F9F9FA" stroke-linecap="round" stroke-linejoin="round"/>
</svg>
