<svg width="20" height="20" viewBox="0 0 20 20" fill="none" xmlns="http://www.w3.org/2000/svg">
<path d="M2 4V12.9488" stroke="#484848" stroke-width="1.2" stroke-linecap="round" stroke-linejoin="bevel"/>
<path fill-rule="evenodd" clip-rule="evenodd" d="M15.375 12H10.7557L9.6039 15.2907C9.42967 15.7884 9.09541 16.2213 8.64847 16.5281C8.20153 16.8349 7.66457 17 7.11365 17H6.625C6.28028 17 5.93894 16.9353 5.62046 16.8097C5.30198 16.6841 5.0126 16.4999 4.76884 16.2678C4.52509 16.0356 4.33173 15.76 4.19981 15.4567C4.0679 15.1534 4 14.8283 4 14.5V4.5C4 4.1717 4.0679 3.8466 4.19981 3.54329C4.33173 3.23998 4.52509 2.96438 4.76884 2.73223C5.0126 2.50008 5.30198 2.31594 5.62046 2.1903C5.93894 2.06466 6.28028 2 6.625 2H13.0416C13.6096 2.00001 14.1623 2.17545 14.6166 2.49998L16.95 4.1667C17.276 4.39955 17.5406 4.70151 17.7229 5.04864C17.9051 5.39577 18 5.77855 18 6.16666V9.5C18 9.8283 17.9321 10.1534 17.8002 10.4567C17.6683 10.76 17.4749 11.0356 17.2312 11.2678C16.9874 11.4999 16.698 11.6841 16.3796 11.8097C16.0611 11.9353 15.7197 12 15.375 12Z" stroke="#484848" stroke-width="1.2" stroke-linecap="round" stroke-linejoin="round"/>
</svg>
