<svg width="20" height="20" viewBox="0 0 20 20" fill="none" xmlns="http://www.w3.org/2000/svg">
<path d="M4.50731 11.9703C5.33978 11.9703 6.01463 11.3054 6.01463 10.4851C6.01463 9.66492 5.33978 9 4.50731 9C3.67485 9 3 9.66492 3 10.4851C3 11.3054 3.67485 11.9703 4.50731 11.9703Z" fill="#484848" stroke="#484848" stroke-width="1.1" stroke-linecap="round" stroke-linejoin="bevel"/>
<path d="M10.3934 12C11.2259 12 11.9007 11.3351 11.9007 10.5148C11.9007 9.69462 11.2259 9.02969 10.3934 9.02969C9.56093 9.02969 8.88608 9.69462 8.88608 10.5148C8.88608 11.3351 9.56093 12 10.3934 12Z" fill="#484848" stroke="#484848" stroke-width="1.1" stroke-linecap="round" stroke-linejoin="bevel"/>
<path d="M16.2794 11.9703C17.1119 11.9703 17.7868 11.3054 17.7868 10.4851C17.7868 9.66492 17.1119 9 16.2794 9C15.447 9 14.7721 9.66492 14.7721 10.4851C14.7721 11.3054 15.447 11.9703 16.2794 11.9703Z" fill="#484848" stroke="#484848" stroke-width="1.1" stroke-linecap="round" stroke-linejoin="bevel"/>
</svg>
