<svg width="20" height="20" viewBox="0 0 20 20" fill="none" xmlns="http://www.w3.org/2000/svg">
<path d="M7.37085 6.67296C8.11217 6.67296 8.71312 6.08084 8.71312 5.35043C8.71312 4.62001 8.11217 4.02789 7.37085 4.02789C6.62954 4.02789 6.02858 4.62001 6.02858 5.35043C6.02858 6.08084 6.62954 6.67296 7.37085 6.67296Z" fill="#484848"/>
<path d="M7.34227 11.8366C8.08359 11.8366 8.68455 11.2445 8.68455 10.5141C8.68455 9.78365 8.08359 9.19153 7.34227 9.19153C6.60096 9.19153 6 9.78365 6 10.5141C6 11.2445 6.60096 11.8366 7.34227 11.8366Z" fill="#484848"/>
<path d="M7.37085 17C8.11217 17 8.71312 16.4079 8.71312 15.6775C8.71312 14.947 8.11217 14.3549 7.37085 14.3549C6.62954 14.3549 6.02858 14.947 6.02858 15.6775C6.02858 16.4079 6.62954 17 7.37085 17Z" fill="#484848"/>
<path d="M11.8714 6.64507C12.6127 6.64507 13.2137 6.05295 13.2137 5.32253C13.2137 4.59212 12.6127 4 11.8714 4C11.1301 4 10.5291 4.59212 10.5291 5.32253C10.5291 6.05295 11.1301 6.64507 11.8714 6.64507Z" fill="#484848"/>
<path d="M11.8428 11.8086C12.5841 11.8086 13.1851 11.2165 13.1851 10.486C13.1851 9.75563 12.5841 9.16351 11.8428 9.16351C11.1015 9.16351 10.5005 9.75563 10.5005 10.486C10.5005 11.2165 11.1015 11.8086 11.8428 11.8086Z" fill="#484848"/>
<path d="M11.8714 16.9721C12.6127 16.9721 13.2137 16.38 13.2137 15.6496C13.2137 14.9191 12.6127 14.327 11.8714 14.327C11.1301 14.327 10.5291 14.9191 10.5291 15.6496C10.5291 16.38 11.1301 16.9721 11.8714 16.9721Z" fill="#484848"/>
</svg>
