<svg width="20" height="20" viewBox="0 0 20 20" fill="none" xmlns="http://www.w3.org/2000/svg">
<path d="M11.9766 5.15262C10.5975 5.32453 9.54354 6.34109 9.29314 7.73512L9.24829 7.99299H8.44103H7.63377L7.06569 8.13875L6.49762 8.28077L6.26216 8.13875L6.02671 7.99673H4.88682L3.74694 7.99299L3.44795 8.15744L3.1527 8.32188L2.96957 8.15744L2.78644 7.99299H1.9717H1.15322L1.07848 8.09016C0.973831 8.22097 0.981306 8.34057 1.08969 8.46764L1.17938 8.57228L1.84837 8.58349C2.59957 8.5947 2.64068 8.60218 2.55472 8.68814C2.49493 8.7442 2.47998 8.804 2.49119 8.94601C2.49866 9.03197 2.65937 9.18894 2.74159 9.18894C2.80513 9.18894 3.17512 9.00581 3.59744 8.76289L3.89643 8.59097H4.87561H5.85106L6.23974 8.81895C6.72559 9.10672 6.8863 9.18894 6.96104 9.18894C6.99468 9.18894 7.07316 9.13662 7.1367 9.07682C7.23013 8.97965 7.24882 8.93854 7.23013 8.83763L7.21145 8.7143L7.4768 8.65076C7.68235 8.60592 7.92528 8.59097 8.49709 8.59097H9.24829L9.31183 8.89743C9.39031 9.25995 9.52112 9.60005 9.67435 9.84298C9.73415 9.93641 9.78273 10.0224 9.78273 10.0298C9.78273 10.0411 7.85053 10.0485 5.48853 10.0485C1.33262 10.0485 1.1906 10.0523 1.10838 10.1195C0.985043 10.2204 0.985043 10.4746 1.10838 10.5755C1.1906 10.6428 1.33635 10.6465 5.76883 10.6465H10.3433L10.5078 10.7736C11.3674 11.4313 12.5783 11.5808 13.5948 11.1585C13.748 11.095 14.0059 10.953 14.1666 10.8446L14.4581 10.6465H16.0017C17.7358 10.6465 17.6872 10.654 17.7283 10.3774C17.747 10.2653 17.7358 10.2242 17.6573 10.1457L17.5601 10.0485H16.2708H14.9851L15.1271 9.79439C15.2916 9.51035 15.456 9.04319 15.4896 8.77783L15.5121 8.5947L16.5361 8.58349L17.5639 8.57228L17.6536 8.46764C17.7619 8.34057 17.7694 8.22097 17.6648 8.0939L17.59 7.99299L16.5548 7.98552L15.5195 7.97431L15.4934 7.77249C15.3738 6.96523 14.858 6.12806 14.1965 5.67584C13.5761 5.25726 12.7352 5.05918 11.9766 5.15262ZM12.0999 6.34483V6.93906L11.6701 7.33896C11.4309 7.5632 11.2291 7.77997 11.2179 7.83229C11.1655 8.03037 11.3748 8.24713 11.5654 8.19855C11.6215 8.18734 11.8121 8.0341 11.9878 7.85845C12.1672 7.68653 12.3204 7.54451 12.3316 7.54451C12.3428 7.54451 12.5035 7.76875 12.6866 8.03784C12.9894 8.48632 13.0305 8.56854 13.1052 8.87127C13.2136 9.31975 13.2472 9.3945 13.3556 9.44682C13.4902 9.50662 13.5724 9.49914 13.6845 9.40944C13.8004 9.31975 13.8078 9.20015 13.7256 8.88995C13.6957 8.77783 13.6696 8.67319 13.6696 8.66198C13.6696 8.65076 13.7817 8.62087 13.9237 8.5947C14.062 8.56854 14.2115 8.52743 14.2526 8.49753C14.4282 8.38541 14.3909 8.07522 14.1965 7.99299C14.1143 7.95936 14.0209 7.96309 13.7667 8.01168C13.5873 8.04532 13.4341 8.06774 13.4266 8.06027C13.4229 8.05279 13.2547 7.80986 13.0566 7.52209L12.6979 6.99139V6.37099V5.75059H12.7876C12.8399 5.75059 13.0118 5.7917 13.1725 5.84402C14.6936 6.32614 15.3663 8.04532 14.6114 9.50662C14.3385 10.0261 13.7256 10.5194 13.1202 10.6951L12.9258 10.7549L12.6754 10.3027L12.425 9.85045L12.567 9.40944C12.7053 8.98339 12.7091 8.96844 12.6455 8.87127C12.5521 8.72925 12.4101 8.6844 12.2643 8.75541C12.1634 8.80026 12.1298 8.85632 12.0438 9.11046C11.9766 9.31601 11.9317 9.40571 11.9018 9.38702C11.8756 9.36833 11.7 9.25248 11.5056 9.12167C11.315 8.9946 11.117 8.88995 11.0646 8.88995C10.874 8.88995 10.732 9.15531 10.8292 9.3347C10.8479 9.37207 11.0908 9.55894 11.3711 9.74954L11.8756 10.0971L12.0625 10.4335C12.1672 10.6203 12.2419 10.7773 12.2344 10.7885C12.2008 10.8184 11.7224 10.7175 11.4795 10.6316C11.1356 10.5045 10.8516 10.3251 10.59 10.0597C10.306 9.7757 10.1116 9.45429 9.98081 9.05813C9.89112 8.79278 9.8799 8.70309 9.8799 8.25461C9.8799 7.80613 9.89112 7.71643 9.98081 7.45108C10.1228 7.02502 10.3209 6.71482 10.6461 6.40836C11.0235 6.05332 11.6252 5.7618 11.999 5.75433L12.0999 5.75059V6.34483Z" fill="#484848"/>
<path d="M1.07848 11.6407C0.981311 11.7678 0.977573 11.8799 1.07474 12.0032C1.14949 12.0966 1.17939 12.1041 1.60545 12.1602C1.72504 12.1751 1.88948 12.2499 2.12867 12.3919C2.68927 12.732 3.1228 12.8254 3.67219 12.7245C4.00482 12.6647 4.19168 12.59 4.55047 12.3657C4.8644 12.1677 5.02137 12.1303 5.42874 12.149C5.78379 12.1677 5.97439 12.2349 6.2659 12.4554C6.57984 12.6909 7.1666 12.8105 7.64498 12.7395C7.99629 12.6834 8.22801 12.5937 8.50831 12.4068C8.80356 12.205 9.01659 12.1415 9.38284 12.1415C9.73415 12.1452 9.96961 12.2237 10.2985 12.4517C10.6797 12.7133 11.2328 12.8179 11.7448 12.7245C12.0775 12.6647 12.2643 12.59 12.6231 12.3657C12.9371 12.1677 13.094 12.1303 13.5014 12.149C13.8602 12.1639 13.8303 12.1527 14.488 12.5414C14.8281 12.7432 15.5121 12.8105 15.9867 12.6871C16.1213 12.6535 16.3605 12.5451 16.5286 12.4442C16.9584 12.1826 16.9659 12.1826 17.2836 12.1415C17.5228 12.1116 17.59 12.0892 17.661 12.0107C17.7657 11.8911 17.7657 11.7678 17.6648 11.6407C17.5938 11.551 17.5676 11.5435 17.3097 11.5435C16.9734 11.5435 16.7304 11.622 16.3455 11.8575C15.9531 12.0929 15.7625 12.1527 15.4074 12.1527C15.0561 12.149 14.8992 12.1004 14.4806 11.8462C14.047 11.5884 13.8901 11.5435 13.4117 11.5435C12.9221 11.5435 12.7427 11.5921 12.3353 11.8388C11.9168 12.0929 11.7336 12.1527 11.3711 12.1527C11.0235 12.1527 10.8628 12.1004 10.5227 11.8836C10.1079 11.6108 9.94344 11.5659 9.39032 11.5622C8.81851 11.5622 8.67649 11.5996 8.20932 11.8836C7.57397 12.2686 7.08438 12.2686 6.48641 11.8836C6.06783 11.6071 5.90712 11.5659 5.33531 11.5622C4.87188 11.5622 4.81208 11.5697 4.59532 11.6594C4.46825 11.7154 4.25896 11.8276 4.12815 11.9098C3.57876 12.2686 3.05927 12.2573 2.43513 11.8761C2.05766 11.6444 1.74746 11.5435 1.4111 11.5435C1.17939 11.5435 1.14949 11.551 1.07848 11.6407Z" fill="#484848"/>
<path d="M1.08597 12.9861C1.00748 13.0646 0.996272 13.1057 1.01122 13.2178C1.04859 13.4346 1.10839 13.4682 1.49707 13.4794C1.80354 13.4906 1.85212 13.4832 1.94556 13.4121C2.0801 13.3075 2.08757 13.0907 1.9605 12.9711C1.88576 12.9001 1.8297 12.8889 1.52697 12.8889C1.2093 12.8889 1.17566 12.8964 1.08597 12.9861Z" fill="#484848"/>
<path d="M5.01764 12.9824C4.95784 13.0385 4.9242 13.1169 4.9242 13.188C4.9242 13.259 4.95784 13.3374 5.01764 13.3935C5.09986 13.4795 5.13723 13.4869 5.44743 13.4869C5.75763 13.4869 5.795 13.4795 5.87722 13.3935C5.93702 13.3374 5.97066 13.259 5.97066 13.188C5.97066 13.1169 5.93702 13.0385 5.87722 12.9824C5.795 12.8964 5.75763 12.889 5.44743 12.889C5.13723 12.889 5.09986 12.8964 5.01764 12.9824Z" fill="#484848"/>
<path d="M8.93062 12.9637C8.80729 13.0796 8.8185 13.3075 8.94557 13.4085C9.02779 13.472 9.0988 13.4869 9.33799 13.4869C9.4987 13.4869 9.67062 13.4683 9.72294 13.4458C9.9098 13.3599 9.93597 13.0609 9.77152 12.945C9.71546 12.9039 9.59213 12.889 9.35294 12.889C9.06143 12.889 9.00163 12.9002 8.93062 12.9637Z" fill="#484848"/>
<path d="M12.8586 12.945C12.7502 13.0235 12.7166 13.1917 12.7876 13.33C12.8548 13.4645 12.9296 13.4869 13.2996 13.4869C13.6621 13.4869 13.7817 13.4122 13.7817 13.188C13.7817 12.945 13.6883 12.889 13.2772 12.889C13.038 12.889 12.9146 12.9039 12.8586 12.945Z" fill="#484848"/>
<path d="M16.7529 12.9824C16.6931 13.0385 16.6595 13.1169 16.6595 13.188C16.6595 13.259 16.6931 13.3374 16.7529 13.3935C16.8351 13.4795 16.8725 13.4869 17.1827 13.4869C17.4929 13.4869 17.5303 13.4795 17.6125 13.3935C17.6723 13.3374 17.7059 13.259 17.7059 13.188C17.7059 13.1169 17.6723 13.0385 17.6125 12.9824C17.5303 12.8964 17.4929 12.889 17.1827 12.889C16.8725 12.889 16.8351 12.8964 16.7529 12.9824Z" fill="#484848"/>
<path d="M2.9621 13.5654C2.77897 13.67 2.74159 13.8569 2.8724 14.0251C2.94715 14.1185 2.9621 14.1223 3.32088 14.1223C3.64229 14.1223 3.70209 14.111 3.76562 14.0475C3.86279 13.9503 3.86279 13.7485 3.76936 13.6327C3.70583 13.5504 3.66098 13.543 3.36573 13.5318C3.16765 13.528 3.00694 13.5392 2.9621 13.5654Z" fill="#484848"/>
<path d="M6.87886 13.5617C6.71068 13.6289 6.66209 13.9167 6.7929 14.0475C6.85643 14.111 6.91623 14.1223 7.23764 14.1223C7.59642 14.1223 7.61137 14.1185 7.68612 14.0251C7.81693 13.8569 7.77582 13.6663 7.58895 13.5691C7.49552 13.5168 6.99845 13.5131 6.87886 13.5617Z" fill="#484848"/>
<path d="M10.7918 13.5691C10.6012 13.6737 10.5639 13.9204 10.7246 14.0549C10.8367 14.1559 11.4571 14.1521 11.5804 14.0512C11.6963 13.9578 11.7 13.741 11.5841 13.6252C11.5131 13.5541 11.4533 13.5429 11.1917 13.5317C10.9936 13.5242 10.8516 13.5392 10.7918 13.5691Z" fill="#484848"/>
<path d="M14.6936 13.5654C14.6076 13.6102 14.5292 13.7485 14.5292 13.8569C14.5292 13.8943 14.5628 13.969 14.6076 14.0251C14.6824 14.1185 14.6973 14.1223 15.0561 14.1223C15.3775 14.1223 15.4373 14.111 15.5009 14.0475C15.598 13.9503 15.598 13.7485 15.5046 13.6327C15.4411 13.5504 15.4 13.543 15.101 13.5355C14.9216 13.528 14.7347 13.543 14.6936 13.5654Z" fill="#484848"/>
<path d="M1.19808 13.9391C1.09717 13.9764 1 14.1147 1 14.2194C1 14.2642 1.03364 14.3427 1.07475 14.395C1.13828 14.4735 1.19434 14.4959 1.40363 14.5146C1.67272 14.5408 1.94928 14.6492 2.2109 14.8285C2.44261 14.9893 2.70796 15.0864 3.03685 15.1275C3.55634 15.1911 4.05714 15.0789 4.46451 14.8024C4.7635 14.6006 4.98026 14.5333 5.33531 14.5333C5.69036 14.5333 5.90712 14.6006 6.19864 14.7986C6.48267 14.993 6.72934 15.0827 7.07317 15.1275C7.5964 15.1911 8.09347 15.0789 8.50083 14.8024C8.82972 14.5781 9.04275 14.5221 9.45759 14.5408C9.82012 14.5595 9.95466 14.6043 10.291 14.836C10.8927 15.2471 11.8906 15.2434 12.4886 14.8323C12.8025 14.6193 13.0454 14.5296 13.322 14.5258C13.7182 14.5183 13.8677 14.5632 14.2339 14.7837C14.6413 15.0266 14.7833 15.0827 15.1496 15.1275C15.6429 15.1873 16.1773 15.0752 16.5249 14.8323C16.794 14.6492 17.0668 14.5445 17.3396 14.5146C17.5489 14.4959 17.605 14.4735 17.6685 14.395C17.7694 14.2679 17.762 14.1484 17.6536 14.0213C17.5676 13.9241 17.5452 13.9166 17.3097 13.9278C16.951 13.9391 16.8015 13.9876 16.3866 14.2231C15.9082 14.4959 15.7625 14.5445 15.4261 14.5445C15.0898 14.5445 14.8879 14.4772 14.5067 14.2493C14.0882 13.9914 13.8677 13.9278 13.4266 13.9278C12.9557 13.9241 12.8025 13.9652 12.3503 14.2231C11.8607 14.4997 11.7299 14.5445 11.3711 14.5445C11.0235 14.5445 10.8666 14.4922 10.5339 14.2792C10.1565 14.0325 9.93597 13.9652 9.45759 13.9428C8.96053 13.9241 8.68023 13.9914 8.27286 14.238C7.83559 14.4997 7.70478 14.5445 7.37216 14.5482C7.01711 14.5482 6.86388 14.5034 6.51257 14.2829C6.10146 14.0288 5.89965 13.9652 5.42127 13.9428C4.9242 13.9241 4.6439 13.9914 4.23653 14.238C3.79927 14.4997 3.66846 14.5445 3.33584 14.5482C2.97331 14.5482 2.84998 14.5109 2.41645 14.253C1.99039 13.9989 1.42606 13.8531 1.19808 13.9391Z" fill="#484848"/>
<path d="M1.17565 16.4282C1.10091 16.4469 1 16.6225 1 16.7384C1 16.7795 1.04111 16.858 1.09343 16.9066L1.18313 17H9.36416C17.3396 17 17.5489 17 17.6349 16.929C17.747 16.8393 17.7582 16.5889 17.6573 16.488C17.5938 16.4245 17.1715 16.4207 9.41648 16.417C4.92047 16.4132 1.21303 16.417 1.17565 16.4282Z" fill="#484848"/>
</svg>
