<svg width="20" height="20" viewBox="0 0 20 20" fill="none" xmlns="http://www.w3.org/2000/svg">
<path d="M12.9514 5.59812V6.28221L13.3377 6.85362C13.551 7.16347 13.7321 7.42504 13.7361 7.43308C13.7441 7.44113 13.9131 7.41699 14.1143 7.38077C14.4524 7.31639 14.4886 7.31639 14.5811 7.37675C14.7179 7.46528 14.7703 7.586 14.7421 7.72684C14.7059 7.88378 14.6012 7.94414 14.2713 8.0045C14.1184 8.03267 13.9976 8.06486 13.9976 8.08096C13.9976 8.09303 14.0258 8.2057 14.058 8.32642C14.1465 8.66042 14.1385 8.78919 14.0137 8.88577C13.893 8.98234 13.8045 8.99039 13.6596 8.92601C13.5429 8.86967 13.5067 8.78919 13.39 8.3063C13.3095 7.98035 13.2653 7.89183 12.9393 7.40894C12.7421 7.11921 12.5691 6.87776 12.553 6.87776C12.5369 6.87776 12.3921 7.01458 12.2271 7.18359C11.889 7.52564 11.7402 7.61819 11.5993 7.586C11.4585 7.54978 11.3418 7.40089 11.3418 7.26407C11.3418 7.15542 11.4102 7.07092 11.8247 6.67656L12.3075 6.2138V5.578V4.94622H12.1908C11.9575 4.94622 11.4303 5.14742 11.1245 5.35265C10.3438 5.87175 9.89312 6.72485 9.89312 7.67855C9.89312 8.14936 9.96153 8.4391 10.1788 8.88174C10.4565 9.44913 10.9997 9.94811 11.6154 10.1976C11.8649 10.2982 12.4081 10.4149 12.4484 10.3747C12.4605 10.3626 12.376 10.1855 12.2633 9.98433L12.0621 9.61814L11.5229 9.25195C11.2251 9.05075 10.9635 8.85357 10.9394 8.80931C10.8347 8.61213 10.9836 8.32642 11.1929 8.32642C11.2492 8.32642 11.4625 8.4391 11.6677 8.57591C11.877 8.71676 12.0661 8.8415 12.0943 8.86162C12.1265 8.88174 12.1748 8.78516 12.2472 8.56384C12.3397 8.29021 12.376 8.22985 12.4846 8.18156C12.6415 8.1051 12.7945 8.15339 12.8951 8.3063C12.9635 8.41093 12.9594 8.42702 12.8106 8.88577L12.6576 9.3606L12.9272 9.84751L13.1969 10.3344L13.4061 10.27C14.2351 10.0286 14.9232 9.36865 15.2049 8.54372C15.3296 8.18558 15.3779 7.69062 15.3256 7.30834C15.1606 6.0971 14.388 5.25205 13.1848 4.96634L12.9514 4.91403V5.59812Z" fill="#484848"/>
<path d="M1 8.46724V9.57385H5.40632C7.82879 9.57385 9.81264 9.56178 9.81264 9.54971C9.81264 9.53764 9.77643 9.47325 9.72814 9.40887C9.4545 9.02658 9.24928 8.30628 9.24928 7.73084V7.36063L8.37606 7.36465H7.49882L6.89522 7.51756L6.29161 7.67048L6.4244 7.74693C6.88314 8.01252 7.03606 8.12922 7.0602 8.2258C7.11251 8.43505 6.89522 8.68454 6.70609 8.63222C6.65377 8.62015 6.38014 8.47529 6.09443 8.30628L5.57533 8.00447H4.52908H3.48283L2.90739 8.3264C2.59352 8.50346 2.30379 8.64832 2.25952 8.64832C2.15087 8.64832 2.00601 8.53565 1.96175 8.41493C1.89334 8.23384 1.98187 8.11312 2.31988 7.92399C2.48889 7.82741 2.63778 7.73889 2.64986 7.73084C2.66193 7.72279 2.58145 7.63426 2.47682 7.53768L2.27964 7.36063H1.63982H1V8.46724Z" fill="#484848"/>
<path d="M15.9976 7.7912C15.9654 8.39883 15.7521 9.07889 15.4865 9.45313L15.402 9.57385H16.569H17.74V8.46724V7.36063H16.8789H16.0217L15.9976 7.7912Z" fill="#484848"/>
<path d="M1 10.6965V11.1754L1.2012 11.2197C1.42655 11.268 1.6197 11.3565 1.94967 11.5698C2.27562 11.779 2.46877 11.8354 2.83094 11.8394C3.21725 11.8394 3.43857 11.771 3.84902 11.5175C4.29166 11.2438 4.51701 11.1794 5.02001 11.1794C5.53107 11.1794 5.71215 11.2317 6.17894 11.5094C6.62963 11.783 6.79864 11.8354 7.1769 11.8394C7.56723 11.8394 7.78051 11.771 8.22717 11.4973C8.66177 11.2358 8.85492 11.1794 9.37 11.1794C9.87703 11.1794 10.0581 11.2317 10.5249 11.5094C10.9756 11.783 11.1446 11.8354 11.5229 11.8394C11.9092 11.8394 12.1023 11.779 12.5611 11.5014C12.9957 11.2398 13.2009 11.1794 13.6958 11.1794C14.1988 11.1794 14.4685 11.2559 14.9312 11.5376C15.6475 11.9722 16.1264 11.9681 16.8507 11.5295C17.0519 11.4088 17.3295 11.2841 17.4744 11.2438L17.74 11.1714V10.6965V10.2177H16.2873H14.8387L14.5852 10.3947C14.227 10.6523 13.8005 10.8454 13.3659 10.946C13.048 11.0185 12.9071 11.0305 12.4766 11.0144C12.0379 10.9984 11.9092 10.9742 11.5832 10.8656C11.1808 10.7287 10.8871 10.5758 10.5933 10.3545L10.4163 10.2177H5.70813H1V10.6965Z" fill="#484848"/>
<path d="M4.77455 11.8314C4.53311 11.8676 4.31178 11.9602 4.03413 12.1533C3.37821 12.6 2.32793 12.604 1.68006 12.1614C1.46276 12.0125 1.26156 11.9078 1.11267 11.8636L1 11.8314V12.2338V12.6322H1.15291C1.35412 12.6322 1.48288 12.7609 1.48288 12.9621C1.48288 13.1432 1.334 13.276 1.13682 13.276H1V13.5134V13.7509L1.2012 13.7951C1.42252 13.8434 1.61568 13.9319 1.9376 14.1372C2.2716 14.3504 2.50901 14.4229 2.85106 14.4188C3.21725 14.4108 3.37418 14.3585 3.88524 14.0688C4.37214 13.7951 4.52103 13.7549 5.04416 13.7549C5.53107 13.7549 5.75641 13.8193 6.20711 14.0969C6.62158 14.3464 6.83486 14.4148 7.21714 14.4148C7.56321 14.4188 7.70405 14.3665 8.30363 14.0205C8.66579 13.8152 8.98369 13.7468 9.49072 13.767C9.97361 13.7911 10.2191 13.8676 10.6094 14.1251C10.9716 14.3585 11.1486 14.4148 11.543 14.4148C11.9132 14.4188 12.1506 14.3384 12.5168 14.0889C12.879 13.8434 13.1164 13.783 13.716 13.783C14.3316 13.783 14.5047 13.8273 14.9554 14.1251C15.3216 14.3585 15.4946 14.4148 15.8889 14.4148C16.2793 14.4148 16.3316 14.3987 16.8547 14.1009C17.064 13.9802 17.3497 13.8515 17.4905 13.8152L17.74 13.7468V13.5094V13.276H17.579C17.2571 13.276 17.1002 12.946 17.3175 12.7328C17.3899 12.6603 17.4583 12.6322 17.579 12.6322H17.74V12.2298V11.8314L17.575 11.8877C17.4825 11.9199 17.2531 12.0366 17.0599 12.1493C16.5368 12.4511 16.4241 12.4833 15.8889 12.4833C15.3578 12.4833 15.2491 12.4551 14.7179 12.1493C14.2512 11.8797 14.0862 11.8274 13.716 11.8274C13.3417 11.8274 13.1767 11.8797 12.6697 12.1654C12.1506 12.4591 12.042 12.4873 11.5229 12.4873C11.0118 12.4833 10.8951 12.4471 10.372 12.1493C9.91325 11.8837 9.73216 11.8233 9.3861 11.8233C9.01588 11.8193 8.84285 11.8716 8.52495 12.0688C8.13864 12.3102 7.93744 12.3907 7.5793 12.4551C6.98777 12.5638 6.52098 12.4632 5.91738 12.097C5.65984 11.9441 5.48278 11.8636 5.35401 11.8475C5.24938 11.8354 5.12866 11.8193 5.0844 11.8113C5.04013 11.8032 4.89929 11.8153 4.77455 11.8314ZM5.60752 12.7328C5.67191 12.7931 5.70813 12.8776 5.70813 12.9541C5.70813 13.0306 5.67191 13.1151 5.60752 13.1754C5.519 13.268 5.47875 13.276 5.14476 13.276C4.81076 13.276 4.77052 13.268 4.682 13.1754C4.61761 13.1151 4.58139 13.0306 4.58139 12.9541C4.58139 12.8776 4.61761 12.7931 4.682 12.7328C4.77052 12.6402 4.81076 12.6322 5.14476 12.6322C5.47875 12.6322 5.519 12.6402 5.60752 12.7328ZM9.80057 12.6925C9.97763 12.8173 9.94946 13.1392 9.74826 13.2318C9.69192 13.2559 9.50682 13.276 9.33378 13.276C8.9354 13.276 8.80663 13.1955 8.80663 12.9501C8.80663 12.6885 8.89919 12.6322 9.34183 12.6322C9.60339 12.6322 9.74021 12.6483 9.80057 12.6925ZM14.0379 12.7127C14.1626 12.8374 14.1465 13.0869 14.0137 13.1915C13.9252 13.2599 13.8488 13.276 13.5912 13.276C13.4182 13.276 13.2331 13.2559 13.1767 13.2318C12.9755 13.1392 12.9474 12.8173 13.1244 12.6925C13.1848 12.6483 13.3216 12.6322 13.5832 12.6322C13.9051 12.6322 13.9695 12.6442 14.0379 12.7127ZM3.33797 13.433C3.43857 13.5577 3.43454 13.7509 3.32589 13.8676C3.24541 13.9521 3.20517 13.9601 2.84703 13.9601C2.4728 13.9601 2.45268 13.9561 2.3722 13.8555C2.27562 13.7348 2.26355 13.5658 2.34 13.4692C2.44061 13.3404 2.54925 13.3163 2.90337 13.3243C3.22127 13.3364 3.26956 13.3444 3.33797 13.433ZM7.45053 13.3645C7.65174 13.4692 7.696 13.6744 7.55516 13.8555C7.47468 13.9561 7.45858 13.9601 7.07227 13.9601C6.72621 13.9601 6.66182 13.948 6.59341 13.8796C6.45257 13.7388 6.50488 13.4289 6.68597 13.3565C6.81474 13.3042 7.34993 13.3082 7.45053 13.3645ZM11.7522 13.4249C11.877 13.5497 11.873 13.783 11.7482 13.8837C11.6154 13.9923 10.9474 13.9963 10.8267 13.8877C10.6537 13.7428 10.6939 13.4772 10.8991 13.3645C10.9635 13.3324 11.1164 13.3163 11.3297 13.3243C11.6114 13.3364 11.6758 13.3485 11.7522 13.4249ZM15.9734 13.433C16.074 13.5577 16.074 13.775 15.9694 13.8796C15.901 13.948 15.8366 13.9601 15.4906 13.9601C15.1043 13.9601 15.0882 13.9561 15.0077 13.8555C14.9111 13.7348 14.9031 13.6462 14.9674 13.5014C15.0358 13.3525 15.1525 13.3163 15.5389 13.3283C15.8608 13.3364 15.905 13.3444 15.9734 13.433Z" fill="#484848"/>
<path d="M4.77455 14.4067C4.53311 14.443 4.31178 14.5355 4.02608 14.7327C3.3943 15.1673 2.30781 15.1633 1.66799 14.7287C1.46276 14.5878 1.26156 14.4832 1.11267 14.4389L1 14.4067V15.7347V17.0586H9.37H17.74V15.7307V14.4067L17.575 14.4631C17.4825 14.4953 17.2491 14.616 17.0559 14.7287C16.5086 15.0425 16.1183 15.127 15.567 15.0466C15.2612 15.0023 14.9835 14.8896 14.4403 14.5758C14.2029 14.4389 14.1506 14.4228 13.8085 14.4108C13.3618 14.3906 13.1325 14.451 12.7784 14.6925C12.3438 14.9862 11.8005 15.111 11.2533 15.0425C10.8468 14.9902 10.7301 14.95 10.3156 14.7005C9.86898 14.4349 9.76033 14.4027 9.33781 14.3987C8.97162 14.3987 8.74627 14.4752 8.39216 14.7206C8.05012 14.954 7.68795 15.0546 7.18092 15.0506C6.68597 15.0506 6.40831 14.9661 5.9375 14.6844C5.66386 14.5234 5.47875 14.4389 5.35401 14.4228C5.24938 14.4108 5.12866 14.3947 5.0844 14.3866C5.04013 14.3786 4.89929 14.3906 4.77455 14.4067Z" fill="#484848"/>
</svg>
