<svg width="20" height="20" viewBox="0 0 20 20" fill="none" xmlns="http://www.w3.org/2000/svg">
<path d="M9.78771 18.75H3.57515L3.00387 7.67861C2.93246 6.53576 3.86078 5.60718 4.93191 5.60718H8.43094C9.57349 5.60718 10.4304 6.53576 10.359 7.67861L9.78771 18.75Z" fill="#484848" stroke="#484848" stroke-width="0.8" stroke-miterlimit="10" stroke-linecap="round" stroke-linejoin="round"/>
<path d="M8.71659 2.82141H4.6463V5.67855H8.71659V2.82141Z" stroke="#484848" stroke-width="0.8" stroke-miterlimit="10" stroke-linecap="round" stroke-linejoin="round"/>
<path d="M8.00246 15.7502H5.50315L4.78906 8.89307H8.64516L8.00246 15.7502Z" fill="white" stroke="#484848" stroke-width="0.8" stroke-miterlimit="10" stroke-linecap="round" stroke-linejoin="round"/>
<path d="M9.85913 17.5356H17V7.10704C17 6.03561 16.1431 5.17847 15.072 5.17847H12.0014C11.1445 5.17847 10.359 5.7499 10.1448 6.60704" stroke="#484848" stroke-width="0.8" stroke-miterlimit="10" stroke-linecap="round" stroke-linejoin="round"/>
<path d="M15.7147 5.17858H11.2159V1.32143C12.7155 0.892857 14.2151 0.892857 15.7147 1.32143V5.17858Z" fill="#484848" stroke="#484848" stroke-width="0.8" stroke-miterlimit="10" stroke-linecap="round" stroke-linejoin="round"/>
</svg>
