<svg width="20" height="20" viewBox="0 0 20 20" fill="none" xmlns="http://www.w3.org/2000/svg">
<path d="M9.78771 18.7451H3.57515L3.00387 7.6767C2.93246 6.53416 3.86078 5.60583 4.93191 5.60583H8.43094C9.57349 5.60583 10.4304 6.53416 10.359 7.6767L9.78771 18.7451Z" stroke="#484848" stroke-width="0.8" stroke-miterlimit="10" stroke-linecap="round" stroke-linejoin="round"/>
<path d="M8.71653 2.82092H4.64624V5.67728H8.71653V2.82092Z" stroke="#484848" stroke-width="0.8" stroke-miterlimit="10" stroke-linecap="round" stroke-linejoin="round"/>
<path d="M8.00246 15.7459H5.50315L4.78906 8.89069H8.64516L8.00246 15.7459Z" stroke="#484848" stroke-width="0.8" stroke-miterlimit="10" stroke-linecap="round" stroke-linejoin="round"/>
<path d="M9.85913 17.5312H17V7.10553C17 6.03439 16.1431 5.17749 15.072 5.17749H12.0014C11.1445 5.17749 10.359 5.74876 10.1448 6.60567" stroke="#484848" stroke-width="0.8" stroke-miterlimit="10" stroke-linecap="round" stroke-linejoin="round"/>
<path d="M15.7147 5.17743H11.2159V1.32134C12.7155 0.892887 14.2151 0.892887 15.7147 1.32134V5.17743Z" stroke="#484848" stroke-width="0.8" stroke-miterlimit="10" stroke-linecap="round" stroke-linejoin="round"/>
</svg>
