<svg width="20" height="20" viewBox="0 0 20 20" fill="none" xmlns="http://www.w3.org/2000/svg">
<path d="M14.2244 3.38834C13.9445 3.12829 13.5735 2.98901 13.1916 3.00068C12.8098 3.01235 12.4479 3.17404 12.1845 3.45069L3.27672 12.3585L3.00058 16.6877C2.99797 16.7293 3.00424 16.771 3.01899 16.81C3.03373 16.849 3.05661 16.8844 3.0861 16.9139C3.11559 16.9434 3.15101 16.9663 3.19002 16.981C3.22903 16.9958 3.27073 17.002 3.31235 16.9994L7.64153 16.7233L16.5493 7.8155C16.826 7.55206 16.9876 7.19021 16.9993 6.80837C17.011 6.42652 16.8717 6.05547 16.6117 5.77562L14.2244 3.38834Z" fill="#484848" stroke="#484848" stroke-width="1.5" stroke-linecap="round" stroke-linejoin="round"/>
</svg>
