<svg width="20" height="20" viewBox="0 0 20 20" fill="none" xmlns="http://www.w3.org/2000/svg">
<path d="M17 4H3.66667C2.74619 4 2 4.74619 2 5.66667V14C2 14.9205 2.74619 15.6667 3.66667 15.6667H17C17.9205 15.6667 18.6667 14.9205 18.6667 14V5.66667C18.6667 4.74619 17.9205 4 17 4Z" fill="#484848" stroke="#484848" stroke-width="1.5" stroke-linecap="round" stroke-linejoin="bevel"/>
<path d="M2.48334 4.49167L9.34167 11.3417C9.49646 11.4966 9.68027 11.6196 9.8826 11.7034C10.0849 11.7873 10.3018 11.8305 10.5208 11.8305C10.7399 11.8305 10.9567 11.7873 11.1591 11.7034C11.3614 11.6196 11.5452 11.4966 11.7 11.3417L18.3667 4.675" stroke="#F9F9FA" stroke-width="1.5" stroke-linecap="round" stroke-linejoin="round"/>
</svg>
