<svg width="20" height="20" viewBox="0 0 20 20" fill="none" xmlns="http://www.w3.org/2000/svg">
<g clip-path="url(#clip0_115_134)">
<path d="M5.53101 8.31153C5.70746 8.41061 5.82261 8.53129 5.93775 8.69434C5.9642 8.73102 5.99066 8.76769 6.01711 8.80436C6.05913 8.86312 6.10103 8.92196 6.14293 8.98081C6.157 9.0002 6.17106 9.01958 6.18555 9.03956C6.19711 9.05584 6.20868 9.07213 6.22059 9.0889C6.25592 9.13301 6.25592 9.13301 6.33594 9.15235C6.45132 9.07795 6.52532 8.97857 6.60425 8.86866C6.78148 8.63119 6.96869 8.477 7.26681 8.42763C7.50823 8.40075 7.71816 8.41584 7.91675 8.56617C8.11619 8.7586 8.17562 9.03464 8.24691 9.29302C8.2701 9.37627 8.29783 9.45566 8.33204 9.53516C8.50602 9.54604 8.65985 9.52242 8.79687 9.40713C8.87138 9.33244 8.94223 9.25478 9.01323 9.17676C9.20367 8.9751 9.39303 8.89046 9.67039 8.87635C9.96497 8.88539 10.1675 9.00848 10.3657 9.21729C10.4724 9.34271 10.5548 9.48463 10.6364 9.62717C10.7272 9.78049 10.8232 9.86279 10.9946 9.9231C11.3266 9.99465 11.6869 9.97667 12.0252 9.97654C12.07 9.97662 12.1149 9.97672 12.1597 9.97683C12.2553 9.97704 12.3508 9.97718 12.4464 9.97727C12.5978 9.97744 12.7492 9.97789 12.9006 9.97841C12.9527 9.97858 13.0048 9.97875 13.0568 9.97892C13.0829 9.97901 13.109 9.9791 13.1358 9.97919C13.4875 9.98033 13.8393 9.98124 14.191 9.98158C14.4293 9.9818 14.6677 9.98242 14.906 9.98347C15.0317 9.98401 15.1574 9.98435 15.2832 9.98421C15.4013 9.98409 15.5194 9.98447 15.6376 9.98523C15.6807 9.98541 15.7238 9.98542 15.7669 9.98522C16.1356 9.98369 16.4257 10.0397 16.6992 10.3008C16.967 10.5812 17.0165 10.8773 17.0142 11.2543C17.0143 11.2944 17.0145 11.3344 17.0147 11.3745C17.0152 11.4825 17.015 11.5904 17.0147 11.6984C17.0144 11.812 17.0147 11.9257 17.0148 12.0393C17.015 12.2302 17.0148 12.421 17.0143 12.6119C17.0137 12.8316 17.0139 13.0512 17.0145 13.2709C17.015 13.4604 17.015 13.6499 17.0147 13.8394C17.0146 13.9522 17.0145 14.065 17.0149 14.1777C17.0152 14.284 17.015 14.3901 17.0144 14.4964C17.0142 14.535 17.0143 14.5736 17.0145 14.6122C17.0178 15.1865 16.8213 15.7136 16.4531 16.1523C16.427 16.1851 16.427 16.1851 16.4004 16.2186C16.0465 16.6444 15.4933 16.9213 14.9492 17C14.8919 17.0024 14.8344 17.0036 14.777 17.0037C14.7428 17.0038 14.7086 17.0039 14.6733 17.004C14.6355 17.004 14.5977 17.004 14.56 17.004C14.5197 17.0041 14.4794 17.0042 14.4391 17.0043C14.3284 17.0046 14.2177 17.0047 14.1071 17.0048C13.9877 17.0049 13.8683 17.0052 13.7489 17.0054C13.4606 17.0059 13.1723 17.0062 12.884 17.0064C12.7481 17.0066 12.6121 17.0067 12.4762 17.0069C12.0242 17.0073 11.5722 17.0077 11.1201 17.0079C11.0029 17.008 10.8856 17.008 10.7684 17.0081C10.7246 17.0081 10.7246 17.0081 10.6801 17.0081C10.2084 17.0083 9.73666 17.009 9.26497 17.0099C8.78025 17.0108 8.29554 17.0113 7.81082 17.0114C7.53885 17.0115 7.26688 17.0117 6.99491 17.0124C6.7632 17.013 6.53149 17.0132 6.29978 17.013C6.18171 17.0128 6.06364 17.0129 5.94557 17.0134C5.03294 17.0173 5.03294 17.0173 4.66797 16.8906C4.6496 16.8843 4.63122 16.8779 4.61229 16.8713C4.24699 16.743 3.96314 16.5561 3.6836 16.2891C3.66679 16.2743 3.64997 16.2595 3.63265 16.2443C3.2538 15.8986 3.03868 15.3462 2.98984 14.8449C2.98598 14.7391 2.98518 14.6336 2.98585 14.5278C2.9857 14.4878 2.98551 14.4478 2.98527 14.4079C2.98478 14.3008 2.98496 14.1937 2.98531 14.0865C2.98559 13.9737 2.98533 13.8609 2.98516 13.748C2.98496 13.5588 2.98522 13.3696 2.98575 13.1804C2.98634 12.9623 2.98615 12.7443 2.98555 12.5262C2.98505 12.338 2.98498 12.1498 2.98527 11.9616C2.98544 11.8496 2.98546 11.7377 2.9851 11.6257C2.98478 11.5205 2.98501 11.4153 2.98563 11.3101C2.98578 11.2717 2.98574 11.2334 2.9855 11.195C2.98345 10.8398 3.05125 10.5622 3.30079 10.3008C3.5336 10.0785 3.78697 9.98645 4.10737 9.99039C4.13615 9.99131 4.16493 9.99223 4.19459 9.99317C4.22453 9.99366 4.25447 9.99416 4.28532 9.99467C4.35821 9.99594 4.43105 9.99773 4.50391 10C4.49996 9.97019 4.49602 9.94037 4.49195 9.90964C4.3594 8.85711 4.3594 8.85711 4.64747 8.46534C4.87251 8.22422 5.23521 8.1663 5.53101 8.31153ZM5.02344 8.74219C4.86 9.04573 4.90177 9.40284 4.94141 9.73341C4.99566 10.1888 4.99566 10.1888 4.92945 10.3298C4.88672 10.3828 4.88672 10.3828 4.85938 10.4102C4.80563 10.4138 4.75175 10.4157 4.69788 10.4169C4.66454 10.4178 4.63119 10.4187 4.59684 10.4196C4.52663 10.4213 4.45642 10.4228 4.38621 10.4243C4.10872 10.432 3.84774 10.4407 3.62891 10.6289C3.36086 10.9405 3.43751 11.3641 3.43751 11.75C7.76876 11.75 12.1 11.75 16.5625 11.75C16.6031 11.1861 16.6031 11.1861 16.3984 10.6836C16.2057 10.4922 16.0541 10.4567 15.7868 10.4566C15.7581 10.4563 15.7295 10.4561 15.6999 10.4559C15.6045 10.4552 15.5091 10.4548 15.4136 10.4545C15.3463 10.4541 15.2789 10.4536 15.2115 10.4531C15.0684 10.4521 14.9253 10.4513 14.7822 10.4506C14.5599 10.4495 14.3376 10.448 14.1154 10.4464C14.0416 10.4458 13.9678 10.4453 13.894 10.4448C13.8759 10.4446 13.8577 10.4445 13.839 10.4444C13.675 10.4432 13.511 10.4421 13.347 10.441C12.345 10.4342 12.345 10.4342 11.8833 10.4285C11.8111 10.4276 11.7389 10.427 11.6666 10.4265C11.569 10.4257 11.4714 10.4245 11.3738 10.4232C11.3469 10.4231 11.3199 10.423 11.2922 10.4229C10.9662 10.4171 10.6606 10.3405 10.414 10.1182C10.2964 9.99224 10.2062 9.84645 10.1171 9.69955C10.0268 9.55272 9.91681 9.4104 9.75391 9.34376C9.62726 9.32613 9.53969 9.34799 9.43593 9.42322C9.34077 9.50832 9.25237 9.59833 9.16431 9.69068C8.95449 9.88974 8.73084 9.99569 8.44141 10C8.26438 9.98423 8.11129 9.92541 7.97657 9.8086C7.84405 9.62239 7.78417 9.40619 7.71942 9.19C7.66717 9.00951 7.66717 9.00951 7.53907 8.87891C7.40953 8.86181 7.29222 8.89296 7.17676 8.95069C7.06684 9.04562 6.9771 9.15004 6.89425 9.26931C6.77889 9.43167 6.66638 9.53253 6.47266 9.58985C6.29962 9.61486 6.13014 9.61242 5.97663 9.5217C5.8154 9.39096 5.70725 9.20856 5.59595 9.03614C5.49603 8.8839 5.39906 8.75378 5.2251 8.68751C5.14011 8.68751 5.09595 8.6964 5.02344 8.74219ZM5.09031 12.9231C4.97751 13.0868 4.97652 13.2525 4.9961 13.4453C5.04459 13.627 5.17238 13.7508 5.32422 13.8555C5.48826 13.9359 5.67649 13.9402 5.8523 13.8933C6.01989 13.8193 6.15109 13.6802 6.23127 13.5167C6.28339 13.3524 6.28302 13.1581 6.2129 12.9993C6.11761 12.8369 5.96859 12.7093 5.78907 12.6523C5.47641 12.6153 5.29201 12.6872 5.09031 12.9231ZM8.15281 12.9231C8.04001 13.0868 8.03902 13.2525 8.0586 13.4453C8.10709 13.627 8.23488 13.7508 8.38672 13.8555C8.55076 13.9359 8.73899 13.9402 8.9148 13.8933C9.08239 13.8193 9.21359 13.6802 9.29377 13.5167C9.34589 13.3524 9.34552 13.1581 9.2754 12.9993C9.18011 12.8369 9.03109 12.7093 8.85157 12.6523C8.53891 12.6153 8.35451 12.6872 8.15281 12.9231ZM12.478 12.6968C12.4203 12.7812 12.4169 12.8254 12.4336 12.9258C12.4746 12.9941 12.4746 12.9941 12.543 13.0352C12.6434 13.0519 12.6876 13.0485 12.772 12.9907C12.8297 12.9063 12.8331 12.8621 12.8164 12.7617C12.7754 12.6934 12.7754 12.6934 12.707 12.6523C12.6066 12.6356 12.5624 12.639 12.478 12.6968ZM15.5405 12.6968C15.4828 12.7812 15.4794 12.8254 15.4961 12.9258C15.5371 12.9941 15.5371 12.9941 15.6055 13.0352C15.7059 13.0519 15.7501 13.0485 15.8345 12.9907C15.8922 12.9063 15.8956 12.8621 15.8789 12.7617C15.8379 12.6934 15.8379 12.6934 15.7695 12.6523C15.6691 12.6356 15.6249 12.639 15.5405 12.6968ZM10.7778 13.3606C10.665 13.5243 10.664 13.69 10.6836 13.8828C10.7321 14.0645 10.8599 14.1883 11.0117 14.293C11.1758 14.3734 11.364 14.3777 11.5398 14.3308C11.7074 14.2568 11.8386 14.1177 11.9188 13.9542C11.9709 13.7899 11.9705 13.5956 11.9004 13.4368C11.8051 13.2744 11.6561 13.1468 11.4766 13.0898C11.1639 13.0528 10.9795 13.1247 10.7778 13.3606ZM13.8403 13.3606C13.7275 13.5243 13.7265 13.69 13.7461 13.8828C13.7946 14.0645 13.9224 14.1883 14.0742 14.293C14.2383 14.3734 14.4265 14.3777 14.6023 14.3308C14.7699 14.2568 14.9011 14.1177 14.9813 13.9542C15.0334 13.7899 15.033 13.5956 14.9629 13.4368C14.8676 13.2744 14.7186 13.1468 14.5391 13.0898C14.2264 13.0528 14.042 13.1247 13.8403 13.3606ZM4.16553 14.0093C4.10778 14.0937 4.10437 14.1379 4.1211 14.2383C4.16211 14.3066 4.16211 14.3066 4.23047 14.3477C4.33087 14.3644 4.37507 14.361 4.45948 14.3032C4.51723 14.2188 4.52064 14.1746 4.50391 14.0742C4.4629 14.0059 4.4629 14.0059 4.39454 13.9648C4.29414 13.9481 4.24994 13.9515 4.16553 14.0093ZM7.22803 14.0093C7.17028 14.0937 7.16687 14.1379 7.1836 14.2383C7.22462 14.3066 7.22462 14.3066 7.29297 14.3477C7.39337 14.3644 7.43757 14.361 7.52198 14.3032C7.57973 14.2188 7.58315 14.1746 7.56641 14.0742C7.5254 14.0059 7.5254 14.0059 7.45704 13.9648C7.35664 13.9481 7.31244 13.9515 7.22803 14.0093ZM4.41797 15.4982C4.21149 15.5685 4.00837 15.6238 3.79297 15.6602C3.94857 15.9999 4.31547 16.2715 4.6527 16.4097C5.02104 16.5414 5.38719 16.5708 5.77634 16.5695C5.81453 16.5695 5.85271 16.5696 5.8909 16.5697C5.99455 16.5699 6.09821 16.5698 6.20187 16.5697C6.31415 16.5695 6.42644 16.5697 6.53872 16.5699C6.75818 16.5701 6.97765 16.5701 7.19711 16.5699C7.3756 16.5698 7.55408 16.5698 7.73257 16.5698C7.77078 16.5698 7.77078 16.5698 7.80977 16.5698C7.86154 16.5699 7.9133 16.5699 7.96507 16.5699C8.44963 16.5701 8.93418 16.5699 9.41874 16.5696C9.83383 16.5693 10.2489 16.5694 10.664 16.5696C11.1469 16.5699 11.6298 16.57 12.1127 16.5699C12.1643 16.5699 12.2159 16.5698 12.2674 16.5698C12.3055 16.5698 12.3055 16.5698 12.3443 16.5698C12.5224 16.5698 12.7005 16.5698 12.8787 16.57C13.0959 16.5701 13.3132 16.5701 13.5305 16.5698C13.6412 16.5696 13.7519 16.5696 13.8626 16.5698C13.9642 16.5699 14.0658 16.5698 14.1674 16.5695C14.221 16.5695 14.2746 16.5696 14.3282 16.5698C14.9661 16.567 15.5337 16.4269 15.9934 15.9661C16.14 15.8328 16.14 15.8328 16.207 15.6602C16.1922 15.6569 16.1774 15.6536 16.1621 15.6502C15.8961 15.5907 15.634 15.5281 15.3765 15.438C14.723 15.2139 14.1009 15.2239 13.4478 15.4393C12.585 15.723 11.8197 15.7209 10.9592 15.4393C10.2354 15.2032 9.6015 15.2461 8.8823 15.4807C8.05312 15.7494 7.28793 15.6957 6.47184 15.4202C5.76268 15.1816 5.11506 15.2591 4.41797 15.4982Z" fill="#484848"/>
<path d="M12.4711 7.14436C12.4907 7.14422 12.5104 7.14408 12.5306 7.14393C12.5722 7.14375 12.6137 7.14379 12.6552 7.14402C12.7187 7.14426 12.7821 7.14347 12.8455 7.1426C12.8859 7.14256 12.9263 7.14257 12.9667 7.14265C12.9856 7.14235 13.0045 7.14204 13.024 7.14172C13.1171 7.14307 13.1642 7.15023 13.2385 7.20834C13.2976 7.28748 13.297 7.33658 13.2918 7.43233C13.2751 7.5146 13.2403 7.54748 13.1719 7.59372C13.1265 7.60396 13.081 7.61324 13.0351 7.62106C13.6755 8.03402 14.297 8.20051 15.0487 8.0435C15.1818 8.0182 15.3097 8.00216 15.4294 8.07224C15.4832 8.16568 15.4967 8.25423 15.4687 8.35934C15.3912 8.45904 15.322 8.48786 15.2004 8.51486C15.1596 8.52433 15.1596 8.52433 15.1179 8.53398C14.3386 8.68484 13.5428 8.54826 12.8785 8.10937C12.792 8.04946 12.7079 7.98664 12.625 7.92184C12.6284 7.9726 12.6284 7.9726 12.6318 8.02438C12.6312 8.10676 12.6276 8.13631 12.584 8.20895C12.5018 8.25825 12.4457 8.26302 12.3516 8.2645C12.2697 8.24276 12.2395 8.2071 12.1875 8.14059C12.1769 8.06827 12.1728 8.00757 12.1739 7.93541C12.1739 7.91573 12.1738 7.89605 12.1738 7.87578C12.1739 7.83429 12.1742 7.79281 12.1747 7.75133C12.1755 7.68782 12.1753 7.62438 12.1749 7.56087C12.1751 7.52052 12.1753 7.48016 12.1756 7.4398C12.1756 7.42083 12.1755 7.40186 12.1754 7.38232C12.1768 7.30852 12.1807 7.25066 12.2167 7.18538C12.2983 7.14034 12.3802 7.14398 12.4711 7.14436Z" fill="#484848"/>
<path d="M10.969 7.41604C11.1283 7.51229 11.2573 7.66185 11.3125 7.83987C11.3345 8.05414 11.3432 8.26696 11.2031 8.44143C11.0717 8.57939 10.9526 8.67674 10.7583 8.69671C10.5254 8.69928 10.3643 8.69075 10.1924 8.52699C10.0179 8.33821 9.98686 8.18982 9.99167 7.93408C10.0107 7.7191 10.1107 7.60609 10.2708 7.46923C10.4639 7.33614 10.7545 7.321 10.969 7.41604Z" fill="#484848"/>
<path d="M9.65649 5.22854C9.81577 5.32479 9.94482 5.47435 10 5.65237C10.022 5.86664 10.0307 6.07946 9.89062 6.25393C9.75925 6.39189 9.64011 6.48924 9.44575 6.50921C9.21289 6.51178 9.05183 6.50325 8.87987 6.33949C8.70536 6.15071 8.67436 6.00232 8.67917 5.74658C8.69818 5.5316 8.79817 5.41859 8.95826 5.28173C9.15143 5.14864 9.44201 5.1335 9.65649 5.22854Z" fill="#484848"/>
<path d="M7.46899 5.22854C7.62827 5.32479 7.75732 5.47435 7.8125 5.65237C7.83451 5.86664 7.84325 6.07946 7.70312 6.25393C7.57175 6.39189 7.45261 6.48924 7.25825 6.50921C7.02539 6.51178 6.86433 6.50325 6.69237 6.33949C6.51786 6.15071 6.48686 6.00232 6.49167 5.74658C6.51068 5.5316 6.61067 5.41859 6.77076 5.28173C6.96393 5.14864 7.25451 5.1335 7.46899 5.22854Z" fill="#484848"/>
<path d="M6.15649 3.04104C6.31577 3.13729 6.44482 3.28685 6.5 3.46487C6.52201 3.67914 6.53075 3.89196 6.39062 4.06643C6.25925 4.20439 6.14011 4.30174 5.94575 4.32171C5.71289 4.32428 5.55183 4.31575 5.37987 4.15199C5.20536 3.96321 5.17436 3.81482 5.17917 3.55908C5.19818 3.3441 5.29817 3.23109 5.45826 3.09423C5.65143 2.96114 5.94201 2.946 6.15649 3.04104Z" fill="#484848"/>
<path d="M8.90273 7.79926C8.96094 7.81251 8.96094 7.81251 9.03101 7.87061C9.07726 7.96313 9.08732 8.01125 9.07031 8.11329C9.03101 8.1919 9.03101 8.1919 8.96094 8.25001C8.87497 8.26957 8.80081 8.26957 8.71484 8.25001C8.63094 8.18042 8.60962 8.13819 8.5918 8.03126C8.62362 7.84029 8.7208 7.78847 8.90273 7.79926Z" fill="#484848"/>
<path d="M11.0902 5.61176C11.1484 5.62501 11.1484 5.62501 11.2185 5.68311C11.2648 5.77563 11.2748 5.82375 11.2578 5.92579C11.2185 6.0044 11.2185 6.0044 11.1484 6.06251C11.0625 6.08207 10.9883 6.08207 10.9023 6.06251C10.8184 5.99292 10.7971 5.95069 10.7793 5.84376C10.8111 5.65279 10.9083 5.60097 11.0902 5.61176Z" fill="#484848"/>
<path d="M5.40273 5.61176C5.46094 5.62501 5.46094 5.62501 5.53101 5.68311C5.57726 5.77563 5.58732 5.82375 5.57031 5.92579C5.53101 6.0044 5.53101 6.0044 5.46094 6.06251C5.37497 6.08207 5.30081 6.08207 5.21484 6.06251C5.13094 5.99292 5.10962 5.95069 5.0918 5.84376C5.12362 5.65279 5.2208 5.60097 5.40273 5.61176Z" fill="#484848"/>
<path d="M7.59023 3.42426C7.64844 3.43751 7.64844 3.43751 7.71851 3.49561C7.76476 3.58813 7.77482 3.63625 7.75781 3.73829C7.71851 3.8169 7.71851 3.8169 7.64844 3.87501C7.56247 3.89457 7.48831 3.89457 7.40234 3.87501C7.31844 3.80542 7.29712 3.76319 7.2793 3.65626C7.31112 3.46529 7.4083 3.41347 7.59023 3.42426Z" fill="#484848"/>
<path d="M14.4844 13.5C14.5527 13.541 14.5527 13.541 14.5937 13.6094C14.6154 13.7193 14.6107 13.7998 14.5527 13.8965C14.456 13.9545 14.3756 13.9591 14.2656 13.9375C14.1973 13.8965 14.1973 13.8965 14.1562 13.8281C14.1346 13.7182 14.1392 13.6377 14.1973 13.541C14.2939 13.483 14.3744 13.4784 14.4844 13.5Z" fill="#484848"/>
<path d="M11.4219 13.5C11.4902 13.541 11.4902 13.541 11.5312 13.6094C11.5529 13.7193 11.5482 13.7998 11.4902 13.8965C11.3935 13.9545 11.3131 13.9591 11.2031 13.9375C11.1348 13.8965 11.1348 13.8965 11.0937 13.8281C11.0721 13.7182 11.0767 13.6377 11.1348 13.541C11.2314 13.483 11.3119 13.4784 11.4219 13.5Z" fill="#484848"/>
<path d="M8.79687 13.0625C8.86523 13.1035 8.86523 13.1035 8.90624 13.1719C8.92787 13.2818 8.92324 13.3623 8.86523 13.459C8.76854 13.517 8.68807 13.5216 8.57812 13.5C8.50976 13.459 8.50976 13.459 8.46874 13.3906C8.44712 13.2807 8.45175 13.2002 8.50976 13.1035C8.60644 13.0455 8.68692 13.0409 8.79687 13.0625Z" fill="#484848"/>
<path d="M5.73437 13.0625C5.80273 13.1035 5.80273 13.1035 5.84374 13.1719C5.86537 13.2818 5.86074 13.3623 5.80273 13.459C5.70604 13.517 5.62557 13.5216 5.51562 13.5C5.44726 13.459 5.44726 13.459 5.40624 13.3906C5.38462 13.2807 5.38925 13.2002 5.44726 13.1035C5.54394 13.0455 5.62442 13.0409 5.73437 13.0625Z" fill="#484848"/>
</g>
<defs>
<clipPath id="clip0_115_134">
<rect width="14" height="14" fill="white" transform="translate(3 3)"/>
</clipPath>
</defs>
</svg>
