<svg width="20" height="20" viewBox="0 0 20 20" fill="none" xmlns="http://www.w3.org/2000/svg">
<g clip-path="url(#clip0_115_135)">
<path d="M5.53101 8.31153C5.70745 8.41061 5.8226 8.53129 5.93775 8.69434C5.9642 8.73102 5.99065 8.76769 6.01711 8.80436C6.05912 8.86312 6.10103 8.92196 6.14293 8.98081C6.15699 9.0002 6.17106 9.01958 6.18555 9.03956C6.19711 9.05584 6.20867 9.07213 6.22058 9.0889C6.25591 9.13301 6.25591 9.13301 6.33594 9.15235C6.45132 9.07795 6.52532 8.97857 6.60425 8.86866C6.78148 8.63119 6.96868 8.477 7.2668 8.42763C7.50823 8.40075 7.71816 8.41584 7.91675 8.56617C8.11619 8.7586 8.17561 9.03464 8.2469 9.29302C8.2701 9.37627 8.29783 9.45566 8.33203 9.53516C8.50602 9.54604 8.65984 9.52242 8.79686 9.40713C8.87138 9.33244 8.94223 9.25478 9.01322 9.17676C9.20367 8.9751 9.39302 8.89046 9.67038 8.87635C9.96496 8.88539 10.1675 9.00848 10.3657 9.21729C10.4724 9.34271 10.5548 9.48463 10.6364 9.62717C10.7272 9.78049 10.8232 9.86279 10.9946 9.9231C11.3266 9.99465 11.6869 9.97667 12.0252 9.97654C12.07 9.97662 12.1149 9.97672 12.1597 9.97683C12.2553 9.97704 12.3508 9.97718 12.4464 9.97727C12.5978 9.97744 12.7492 9.97789 12.9006 9.97841C12.9527 9.97858 13.0047 9.97875 13.0568 9.97892C13.0829 9.97901 13.109 9.9791 13.1358 9.97919C13.4875 9.98033 13.8393 9.98124 14.191 9.98158C14.4293 9.9818 14.6677 9.98242 14.906 9.98347C15.0317 9.98401 15.1574 9.98435 15.2832 9.98421C15.4013 9.98409 15.5194 9.98447 15.6375 9.98523C15.6807 9.98541 15.7238 9.98542 15.7669 9.98522C16.1355 9.98369 16.4257 10.0397 16.6992 10.3008C16.966 10.5803 17.0165 10.8755 17.0142 11.2514C17.0143 11.2911 17.0145 11.3309 17.0147 11.3706C17.0152 11.4777 17.015 11.5849 17.0147 11.692C17.0144 11.8048 17.0147 11.9175 17.0148 12.0303C17.015 12.2198 17.0148 12.4092 17.0143 12.5987C17.0137 12.8167 17.0139 13.0346 17.0145 13.2526C17.015 13.4407 17.015 13.6288 17.0147 13.8168C17.0146 13.9288 17.0145 14.0407 17.0149 14.1526C17.0152 14.258 17.015 14.3634 17.0144 14.4688C17.0142 14.5071 17.0143 14.5455 17.0145 14.5838C17.0183 15.2453 16.7649 15.8328 16.3164 16.3164C15.8183 16.7933 15.2276 17.009 14.5435 17.0073C14.5027 17.0074 14.462 17.0075 14.4212 17.0077C14.3098 17.008 14.1984 17.008 14.0871 17.008C13.9667 17.0079 13.8463 17.0082 13.7259 17.0085C13.4903 17.009 13.2547 17.0091 13.019 17.0091C12.8274 17.0092 12.6357 17.0093 12.4441 17.0095C11.9002 17.0099 11.3563 17.0102 10.8123 17.0101C10.783 17.0101 10.7537 17.0101 10.7236 17.0101C10.6942 17.0101 10.6649 17.0101 10.6347 17.0101C10.1595 17.0101 9.68436 17.0106 9.20921 17.0114C8.72075 17.0122 8.23229 17.0126 7.74383 17.0125C7.46983 17.0125 7.19583 17.0127 6.92183 17.0132C6.6885 17.0137 6.45517 17.0139 6.22184 17.0135C6.10294 17.0133 5.98405 17.0133 5.86515 17.0138C5.75601 17.0142 5.64689 17.0141 5.53775 17.0137C5.49856 17.0136 5.45936 17.0137 5.42017 17.014C4.75897 17.0188 4.15078 16.7656 3.67249 16.3105C3.2896 15.8994 2.99822 15.3457 2.99598 14.7758C2.99578 14.7415 2.99559 14.7072 2.99538 14.6719C2.99531 14.6342 2.99523 14.5965 2.99516 14.5589C2.99499 14.5189 2.99481 14.479 2.99462 14.439C2.99404 14.3082 2.99376 14.1774 2.99349 14.0466C2.99337 14.0014 2.99326 13.9562 2.99315 13.911C2.99263 13.6987 2.99224 13.4864 2.99201 13.2741C2.99174 13.0297 2.99102 12.7853 2.98992 12.5408C2.98909 12.3515 2.98869 12.1621 2.9886 11.9727C2.98853 11.8598 2.98829 11.7469 2.9876 11.634C2.98696 11.5277 2.98685 11.4214 2.98713 11.3151C2.98714 11.2763 2.98697 11.2375 2.98659 11.1987C2.98332 10.8416 3.04985 10.5636 3.30078 10.3008C3.53359 10.0785 3.78696 9.98645 4.10737 9.99039C4.13615 9.99131 4.16493 9.99223 4.19458 9.99317C4.22452 9.99366 4.25447 9.99416 4.28532 9.99467C4.35821 9.99594 4.43104 9.99773 4.50391 10C4.49996 9.97019 4.49601 9.94037 4.49194 9.90964C4.35939 8.85711 4.35939 8.85711 4.64746 8.46534C4.87251 8.22422 5.23521 8.1663 5.53101 8.31153ZM5.02344 8.74219C4.86 9.04573 4.90177 9.40284 4.94141 9.73341C4.99566 10.1888 4.99566 10.1888 4.92944 10.3298C4.88672 10.3828 4.88672 10.3828 4.85938 10.4102C4.80562 10.4138 4.75174 10.4157 4.69788 10.4169C4.66453 10.4178 4.63119 10.4187 4.59683 10.4196C4.52662 10.4213 4.45641 10.4228 4.3862 10.4243C4.10872 10.432 3.84773 10.4407 3.62891 10.6289C3.36086 10.9405 3.4375 11.3641 3.4375 11.75C7.76875 11.75 12.1 11.75 16.5625 11.75C16.6031 11.1861 16.6031 11.1861 16.3984 10.6836C16.2057 10.4922 16.0541 10.4567 15.7868 10.4566C15.7581 10.4563 15.7295 10.4561 15.6999 10.4559C15.6045 10.4552 15.5091 10.4548 15.4136 10.4545C15.3463 10.4541 15.2789 10.4536 15.2115 10.4531C15.0684 10.4521 14.9253 10.4513 14.7822 10.4506C14.5599 10.4495 14.3376 10.448 14.1154 10.4464C14.0416 10.4458 13.9678 10.4453 13.894 10.4448C13.8759 10.4446 13.8577 10.4445 13.8389 10.4444C13.675 10.4432 13.511 10.4421 13.347 10.441C12.345 10.4342 12.345 10.4342 11.8833 10.4285C11.8111 10.4276 11.7389 10.427 11.6666 10.4265C11.569 10.4257 11.4714 10.4245 11.3738 10.4232C11.3469 10.4231 11.3199 10.423 11.2922 10.4229C10.9662 10.4171 10.6606 10.3405 10.414 10.1182C10.2964 9.99224 10.2062 9.84645 10.1171 9.69955C10.0268 9.55272 9.9168 9.4104 9.75391 9.34376C9.62726 9.32613 9.53968 9.34799 9.43593 9.42322C9.34076 9.50832 9.25237 9.59833 9.16431 9.69068C8.95449 9.88974 8.73084 9.99569 8.44141 10C8.26437 9.98423 8.11129 9.92541 7.97656 9.8086C7.84405 9.62239 7.78417 9.40619 7.71941 9.19C7.66717 9.00951 7.66717 9.00951 7.53906 8.87891C7.40953 8.86181 7.29222 8.89296 7.17676 8.95069C7.06684 9.04562 6.9771 9.15004 6.89424 9.26931C6.77889 9.43167 6.66638 9.53253 6.47266 9.58985C6.29961 9.61486 6.13014 9.61242 5.97662 9.5217C5.8154 9.39096 5.70725 9.20856 5.59595 9.03614C5.49602 8.8839 5.39906 8.75378 5.2251 8.68751C5.1401 8.68751 5.09594 8.6964 5.02344 8.74219ZM3.4375 12.1875C3.35897 13.6354 3.35897 13.6354 3.54688 15.2227C3.88609 15.2083 4.20267 15.1185 4.51929 15.0022C5.32146 14.7142 6.10839 14.8123 6.89423 15.0909C7.55039 15.321 8.20597 15.2502 8.85156 15.0313C9.70396 14.7431 10.4837 14.793 11.3239 15.0909C12.0438 15.3433 12.7377 15.2202 13.441 14.9827C14.2279 14.7195 14.9881 14.8195 15.7536 15.0909C15.9805 15.1705 16.2103 15.2358 16.4531 15.2227C16.4665 15.1743 16.4796 15.1259 16.4924 15.0774C16.4997 15.0504 16.507 15.0235 16.5145 14.9957C16.7015 14.0783 16.5625 13.1237 16.5625 12.1875C12.2313 12.1875 7.9 12.1875 3.4375 12.1875ZM4.41658 15.4982C4.21055 15.5687 4.00802 15.6238 3.79297 15.6602C3.94856 15.9999 4.31547 16.2715 4.6527 16.4097C5.02103 16.5414 5.38719 16.5708 5.77634 16.5695C5.81452 16.5695 5.85271 16.5696 5.89089 16.5697C5.99455 16.5699 6.0982 16.5698 6.20186 16.5697C6.31415 16.5695 6.42643 16.5697 6.53871 16.5699C6.75818 16.5701 6.97764 16.5701 7.19711 16.5699C7.37559 16.5698 7.55408 16.5698 7.73256 16.5698C7.77078 16.5698 7.77078 16.5698 7.80977 16.5698C7.86153 16.5699 7.9133 16.5699 7.96507 16.5699C8.44962 16.5701 8.93418 16.5699 9.41874 16.5696C9.83382 16.5693 10.2489 16.5694 10.664 16.5696C11.1469 16.5699 11.6298 16.57 12.1127 16.5699C12.1643 16.5699 12.2159 16.5698 12.2674 16.5698C12.3055 16.5698 12.3055 16.5698 12.3443 16.5698C12.5224 16.5698 12.7005 16.5698 12.8786 16.57C13.0959 16.5701 13.3132 16.5701 13.5305 16.5698C13.6412 16.5696 13.7519 16.5696 13.8626 16.5698C13.9642 16.5699 14.0658 16.5698 14.1674 16.5695C14.221 16.5695 14.2746 16.5696 14.3282 16.5698C14.9661 16.567 15.5337 16.4269 15.9934 15.9661C16.14 15.8328 16.14 15.8328 16.207 15.6602C16.1922 15.6569 16.1774 15.6536 16.1621 15.6502C15.8961 15.5907 15.634 15.5281 15.3765 15.438C14.723 15.2139 14.1009 15.2239 13.4478 15.4393C12.585 15.723 11.8197 15.7209 10.9592 15.4393C10.2354 15.2032 9.6015 15.2461 8.8823 15.4807C8.05311 15.7494 7.28793 15.6957 6.47184 15.4202C5.76219 15.1814 5.1123 15.2587 4.41658 15.4982Z" fill="#484848"/>
<path d="M12.4951 7.14172C12.5236 7.14157 12.5236 7.14157 12.5527 7.14141C12.5928 7.14133 12.6329 7.14153 12.673 7.14199C12.7342 7.14258 12.7953 7.142 12.8566 7.1413C12.8956 7.14137 12.9346 7.14151 12.9736 7.14172C13.0267 7.14191 13.0267 7.14191 13.0809 7.1421C13.1858 7.15842 13.2181 7.18203 13.2813 7.26563C13.3012 7.34064 13.2967 7.40853 13.2813 7.48438C13.226 7.56419 13.1942 7.58871 13.0996 7.61009C13.0677 7.61554 13.0677 7.61554 13.0352 7.62109C13.6223 8.0282 14.2118 8.189 14.9222 8.06045C15.2967 7.99454 15.2967 7.99454 15.4294 8.07227C15.4832 8.16571 15.4967 8.25426 15.4688 8.35938C15.3912 8.45907 15.322 8.48789 15.2004 8.51489C15.1596 8.52436 15.1596 8.52436 15.1179 8.53401C14.6254 8.62936 14.0889 8.62266 13.6094 8.46875C13.5918 8.46318 13.5742 8.45761 13.5561 8.45187C13.2271 8.34338 12.9252 8.16133 12.6523 7.94922C12.6478 7.97491 12.6478 7.97491 12.6433 8.00113C12.6368 8.03465 12.6368 8.03465 12.6301 8.06885C12.626 8.09105 12.6219 8.11326 12.6176 8.13614C12.5977 8.19531 12.5977 8.19531 12.5156 8.25C12.3215 8.26849 12.3215 8.26849 12.2396 8.20692C12.1685 8.11646 12.1734 8.05661 12.173 7.94238C12.1729 7.92338 12.1728 7.90437 12.1727 7.88478C12.1726 7.8447 12.1728 7.80462 12.1732 7.76454C12.1738 7.70331 12.1732 7.64216 12.1725 7.58093C12.1726 7.54191 12.1728 7.50289 12.173 7.46387C12.1731 7.42848 12.1732 7.39309 12.1733 7.35663C12.1875 7.26563 12.1875 7.26563 12.2307 7.19946C12.3217 7.14007 12.3869 7.1421 12.4951 7.14172Z" fill="#484848"/>
<path d="M14.6877 13.1035C14.847 13.1998 14.9761 13.3494 15.0312 13.5274C15.0533 13.7416 15.062 13.9545 14.9219 14.1289C14.7905 14.2669 14.6714 14.3642 14.477 14.3842C14.2441 14.3868 14.0831 14.3782 13.9111 14.2145C13.7366 14.0257 13.7056 13.8773 13.7104 13.6216C13.7294 13.4066 13.8294 13.2936 13.9895 13.1567C14.1827 13.0236 14.4733 13.0085 14.6877 13.1035ZM14.228 13.5718C14.1703 13.6562 14.1669 13.7004 14.1836 13.8008C14.2246 13.8692 14.2246 13.8692 14.293 13.9102C14.3934 13.9269 14.4376 13.9235 14.522 13.8657C14.5797 13.7813 14.5831 13.7371 14.5664 13.6367C14.5254 13.5684 14.5254 13.5684 14.457 13.5274C14.3566 13.5106 14.3124 13.5141 14.228 13.5718Z" fill="#484848"/>
<path d="M11.6252 13.1035C11.7845 13.1998 11.9136 13.3494 11.9687 13.5274C11.9908 13.7416 11.9995 13.9545 11.8594 14.1289C11.728 14.2669 11.6089 14.3642 11.4145 14.3842C11.1816 14.3868 11.0206 14.3782 10.8486 14.2145C10.6741 14.0257 10.6431 13.8773 10.6479 13.6216C10.6669 13.4066 10.7669 13.2936 10.927 13.1567C11.1202 13.0236 11.4108 13.0085 11.6252 13.1035ZM11.1655 13.5718C11.1078 13.6562 11.1044 13.7004 11.1211 13.8008C11.1621 13.8692 11.1621 13.8692 11.2305 13.9102C11.3309 13.9269 11.3751 13.9235 11.4595 13.8657C11.5172 13.7813 11.5206 13.7371 11.5039 13.6367C11.4629 13.5684 11.4629 13.5684 11.3945 13.5274C11.2941 13.5106 11.2499 13.5141 11.1655 13.5718Z" fill="#484848"/>
<path d="M9.00024 12.666C9.15952 12.7623 9.28857 12.9119 9.34375 13.0899C9.36576 13.3041 9.3745 13.517 9.23437 13.6914C9.103 13.8294 8.98386 13.9267 8.7895 13.9467C8.55664 13.9493 8.39558 13.9407 8.22362 13.777C8.04911 13.5882 8.01811 13.4398 8.02292 13.1841C8.04193 12.9691 8.14192 12.8561 8.30201 12.7192C8.49518 12.5861 8.78576 12.571 9.00024 12.666ZM8.54052 13.1343C8.48277 13.2187 8.47936 13.2629 8.49609 13.3633C8.53711 13.4317 8.53711 13.4317 8.60547 13.4727C8.70586 13.4894 8.75006 13.486 8.83447 13.4282C8.89222 13.3438 8.89564 13.2996 8.8789 13.1992C8.83789 13.1309 8.83789 13.1309 8.76953 13.0899C8.66913 13.0731 8.62493 13.0766 8.54052 13.1343Z" fill="#484848"/>
<path d="M5.93774 12.666C6.09702 12.7623 6.22607 12.9119 6.28125 13.0899C6.30326 13.3041 6.312 13.517 6.17187 13.6914C6.0405 13.8294 5.92136 13.9267 5.727 13.9467C5.49414 13.9493 5.33308 13.9407 5.16112 13.777C4.98661 13.5882 4.95561 13.4398 4.96042 13.1841C4.97943 12.9691 5.07942 12.8561 5.23951 12.7192C5.43268 12.5861 5.72326 12.571 5.93774 12.666ZM5.47802 13.1343C5.42027 13.2187 5.41686 13.2629 5.43359 13.3633C5.47461 13.4317 5.47461 13.4317 5.54297 13.4727C5.64336 13.4894 5.68756 13.486 5.77197 13.4282C5.82972 13.3438 5.83314 13.2996 5.8164 13.1992C5.77539 13.1309 5.77539 13.1309 5.70703 13.0899C5.60663 13.0731 5.56243 13.0766 5.47802 13.1343Z" fill="#484848"/>
<path d="M10.969 7.41604C11.1283 7.51229 11.2573 7.66185 11.3125 7.83987C11.3345 8.05414 11.3432 8.26696 11.2031 8.44143C11.0717 8.57939 10.9526 8.67674 10.7583 8.69671C10.5254 8.69928 10.3643 8.69075 10.1924 8.52699C10.0179 8.33821 9.98686 8.18982 9.99167 7.93408C10.0107 7.7191 10.1107 7.60609 10.2708 7.46923C10.4639 7.33614 10.7545 7.321 10.969 7.41604ZM10.5093 7.8843C10.4515 7.96871 10.4481 8.01291 10.4648 8.11331C10.5059 8.18167 10.5059 8.18167 10.5742 8.22268C10.6746 8.23942 10.7188 8.236 10.8032 8.17825C10.861 8.09384 10.8644 8.04964 10.8477 7.94925C10.8066 7.88089 10.8066 7.88089 10.7383 7.83987C10.6379 7.82314 10.5937 7.82655 10.5093 7.8843Z" fill="#484848"/>
<path d="M9.65649 5.22854C9.81577 5.32479 9.94482 5.47435 10 5.65237C10.022 5.86664 10.0307 6.07946 9.89062 6.25393C9.75925 6.39189 9.64011 6.48924 9.44575 6.50921C9.21289 6.51178 9.05183 6.50325 8.87987 6.33949C8.70536 6.15071 8.67436 6.00232 8.67917 5.74658C8.69818 5.5316 8.79817 5.41859 8.95826 5.28173C9.15143 5.14864 9.44201 5.1335 9.65649 5.22854ZM9.19677 5.6968C9.13902 5.78121 9.13561 5.82541 9.15234 5.92581C9.19336 5.99417 9.19336 5.99417 9.26172 6.03518C9.36211 6.05192 9.40631 6.0485 9.49072 5.99075C9.54847 5.90634 9.55189 5.86214 9.53515 5.76175C9.49414 5.69339 9.49414 5.69339 9.42578 5.65237C9.32538 5.63564 9.28118 5.63905 9.19677 5.6968Z" fill="#484848"/>
<path d="M7.46899 5.22854C7.62827 5.32479 7.75732 5.47435 7.8125 5.65237C7.83451 5.86664 7.84325 6.07946 7.70312 6.25393C7.57175 6.39189 7.45261 6.48924 7.25825 6.50921C7.02539 6.51178 6.86433 6.50325 6.69237 6.33949C6.51786 6.15071 6.48686 6.00232 6.49167 5.74658C6.51068 5.5316 6.61067 5.41859 6.77076 5.28173C6.96393 5.14864 7.25451 5.1335 7.46899 5.22854ZM7.00927 5.6968C6.95152 5.78121 6.94811 5.82541 6.96484 5.92581C7.00586 5.99417 7.00586 5.99417 7.07422 6.03518C7.17461 6.05192 7.21881 6.0485 7.30322 5.99075C7.36097 5.90634 7.36439 5.86214 7.34765 5.76175C7.30664 5.69339 7.30664 5.69339 7.23828 5.65237C7.13788 5.63564 7.09368 5.63905 7.00927 5.6968Z" fill="#484848"/>
<path d="M6.15649 3.04104C6.31577 3.13729 6.44482 3.28685 6.5 3.46487C6.52201 3.67914 6.53075 3.89196 6.39062 4.06643C6.25925 4.20439 6.14011 4.30174 5.94575 4.32171C5.71289 4.32428 5.55183 4.31575 5.37987 4.15199C5.20536 3.96321 5.17436 3.81482 5.17917 3.55908C5.19818 3.3441 5.29817 3.23109 5.45826 3.09423C5.65143 2.96114 5.94201 2.946 6.15649 3.04104ZM5.69677 3.5093C5.63902 3.59371 5.63561 3.63791 5.65234 3.73831C5.69336 3.80667 5.69336 3.80667 5.76172 3.84768C5.86211 3.86442 5.90631 3.861 5.99072 3.80325C6.04847 3.71884 6.05189 3.67464 6.03515 3.57425C5.99414 3.50589 5.99414 3.50589 5.92578 3.46487C5.82538 3.44814 5.78118 3.45155 5.69677 3.5093Z" fill="#484848"/>
<path d="M8.90273 7.79926C8.96094 7.81251 8.96094 7.81251 9.03101 7.87061C9.07726 7.96313 9.08732 8.01125 9.07031 8.11329C9.03101 8.1919 9.03101 8.1919 8.96094 8.25001C8.87497 8.26957 8.80081 8.26957 8.71484 8.25001C8.63094 8.18042 8.60962 8.13819 8.5918 8.03126C8.62362 7.84029 8.7208 7.78847 8.90273 7.79926Z" fill="#484848"/>
<path d="M11.0902 5.61176C11.1484 5.62501 11.1484 5.62501 11.2185 5.68311C11.2648 5.77563 11.2748 5.82375 11.2578 5.92579C11.2185 6.0044 11.2185 6.0044 11.1484 6.06251C11.0625 6.08207 10.9883 6.08207 10.9023 6.06251C10.8184 5.99292 10.7971 5.95069 10.7793 5.84376C10.8111 5.65279 10.9083 5.60097 11.0902 5.61176Z" fill="#484848"/>
<path d="M5.40273 5.61176C5.46094 5.62501 5.46094 5.62501 5.53101 5.68311C5.57726 5.77563 5.58732 5.82375 5.57031 5.92579C5.53101 6.0044 5.53101 6.0044 5.46094 6.06251C5.37497 6.08207 5.30081 6.08207 5.21484 6.06251C5.13094 5.99292 5.10962 5.95069 5.0918 5.84376C5.12362 5.65279 5.2208 5.60097 5.40273 5.61176Z" fill="#484848"/>
<path d="M7.59023 3.42426C7.64844 3.43751 7.64844 3.43751 7.71851 3.49561C7.76476 3.58813 7.77482 3.63625 7.75781 3.73829C7.71851 3.8169 7.71851 3.8169 7.64844 3.87501C7.56247 3.89457 7.48831 3.89457 7.40234 3.87501C7.31844 3.80542 7.29712 3.76319 7.2793 3.65626C7.31112 3.46529 7.4083 3.41347 7.59023 3.42426Z" fill="#484848"/>
<path d="M7.48437 13.9375C7.55273 13.9785 7.55273 13.9785 7.59374 14.0469C7.61537 14.1568 7.61074 14.2373 7.55273 14.334C7.45604 14.392 7.37557 14.3966 7.26562 14.375C7.19726 14.334 7.19726 14.334 7.15624 14.2656C7.13462 14.1557 7.13925 14.0752 7.19726 13.9785C7.29394 13.9205 7.37442 13.9159 7.48437 13.9375Z" fill="#484848"/>
<path d="M4.42187 13.9375C4.49023 13.9785 4.49023 13.9785 4.53124 14.0469C4.55287 14.1568 4.54824 14.2373 4.49023 14.334C4.39354 14.392 4.31307 14.3966 4.20312 14.375C4.13476 14.334 4.13476 14.334 4.09374 14.2656C4.07212 14.1557 4.07675 14.0752 4.13476 13.9785C4.23144 13.9205 4.31192 13.9159 4.42187 13.9375Z" fill="#484848"/>
<path d="M15.7969 12.625C15.8652 12.666 15.8652 12.666 15.9062 12.7344C15.9279 12.8443 15.9232 12.9248 15.8652 13.0215C15.7685 13.0795 15.6881 13.0841 15.5781 13.0625C15.5098 13.0215 15.5098 13.0215 15.4687 12.9531C15.4471 12.8432 15.4517 12.7627 15.5098 12.666C15.6064 12.608 15.6869 12.6034 15.7969 12.625Z" fill="#484848"/>
<path d="M12.7344 12.625C12.8027 12.666 12.8027 12.666 12.8437 12.7344C12.8654 12.8443 12.8607 12.9248 12.8027 13.0215C12.706 13.0795 12.6256 13.0841 12.5156 13.0625C12.4473 13.0215 12.4473 13.0215 12.4062 12.9531C12.3846 12.8432 12.3892 12.7627 12.4473 12.666C12.5439 12.608 12.6244 12.6034 12.7344 12.625Z" fill="#484848"/>
</g>
<defs>
<clipPath id="clip0_115_135">
<rect width="14" height="14" fill="white" transform="translate(3 3)"/>
</clipPath>
</defs>
</svg>
