<svg width="20" height="20" viewBox="0 0 20 20" fill="none" xmlns="http://www.w3.org/2000/svg">
<path d="M17 11.8563V15.6713C17 16.0426 16.8525 16.3987 16.5899 16.6613C16.3274 16.9238 15.9713 17.0713 15.6 17.0713H4.4C4.0287 17.0713 3.6726 16.9238 3.41005 16.6613C3.1475 16.3987 3 16.0426 3 15.6713V4.47132C3 4.10002 3.1475 3.74392 3.41005 3.48137C3.6726 3.21882 4.0287 3.07132 4.4 3.07132H8.271" stroke="#484848" stroke-width="1.5" stroke-linecap="round" stroke-linejoin="bevel"/>
<path d="M16.573 3.40732L8.082 11.5343" stroke="#484848" stroke-width="1.5" stroke-linecap="round" stroke-linejoin="bevel"/>
<path d="M13.5 3.00133H15.663C15.9994 2.98602 16.3282 3.10376 16.5785 3.32909C16.8287 3.55441 16.9801 3.8692 17 4.20533V6.50133" stroke="#484848" stroke-width="1.5" stroke-linecap="round" stroke-linejoin="bevel"/>
</svg>
