<svg width="20" height="20" viewBox="0 0 20 20" fill="none" xmlns="http://www.w3.org/2000/svg">
<g clip-path="url(#clip0_111_1287)">
<path d="M4.97172 4.93905C5.04437 4.99548 5.10847 5.05807 5.17291 5.12362C5.20078 5.15117 5.20078 5.15117 5.22921 5.17928C5.29114 5.24068 5.3526 5.30252 5.41408 5.36438C5.45892 5.40903 5.5038 5.45365 5.5487 5.49825C5.67183 5.62071 5.79455 5.74357 5.91721 5.86651C6.04963 5.99908 6.18242 6.13128 6.31516 6.26354C6.57507 6.52261 6.83461 6.78204 7.09403 7.04161C7.30485 7.25255 7.51579 7.46338 7.72682 7.67412C7.75684 7.70411 7.78687 7.7341 7.81781 7.76499C7.8788 7.82591 7.9398 7.88683 8.0008 7.94775C8.41034 8.35678 8.81976 8.76594 9.22892 9.17536C9.24491 9.19137 9.26091 9.20737 9.27739 9.22387C9.35845 9.30499 9.43952 9.38611 9.52059 9.46723C9.53668 9.48334 9.55278 9.49945 9.56937 9.51605C9.60193 9.54863 9.63449 9.58121 9.66704 9.61379C10.1738 10.1209 10.6809 10.6275 11.1884 11.1338C11.7587 11.7027 12.3287 12.272 12.8982 12.8418C13.1997 13.1434 13.5013 13.4449 13.8034 13.746C14.0604 14.0023 14.3172 14.2589 14.5734 14.516C14.7042 14.6472 14.8352 14.7782 14.9665 14.9088C15.0868 15.0283 15.2066 15.1483 15.326 15.2686C15.3693 15.3121 15.4128 15.3554 15.4564 15.3985C15.9083 15.8454 15.9083 15.8454 15.9127 16.1548C15.9044 16.346 15.8385 16.4776 15.6996 16.6117C15.5569 16.7363 15.4524 16.7663 15.2666 16.7708C15.2338 16.772 15.2009 16.7733 15.1671 16.7745C14.891 16.7378 14.723 16.5284 14.5405 16.336C14.4925 16.2854 14.444 16.2354 14.3954 16.1854C14.2573 16.0434 14.1195 15.9011 13.9831 15.7575C13.8994 15.6693 13.8148 15.5821 13.7295 15.4953C13.6973 15.4623 13.6655 15.4288 13.634 15.3951C13.4715 15.2062 13.4715 15.2062 13.2506 15.1213C13.1741 15.1377 13.1091 15.1612 13.0378 15.1931C13.0078 15.2008 12.9778 15.2085 12.9469 15.2164C12.9215 15.2235 12.8962 15.2305 12.8701 15.2378C10.3998 15.9109 7.88873 15.5608 5.66133 14.3102C5.43418 14.1801 5.21732 14.039 5.00438 13.8869C4.96822 13.8612 4.96822 13.8612 4.93133 13.8351C4.56853 13.5768 4.22319 13.3052 3.89406 13.0051C3.86037 12.9745 3.86037 12.9745 3.82599 12.9432C3.75589 12.8791 3.68611 12.8146 3.61648 12.75C3.59537 12.7305 3.57425 12.711 3.55249 12.6908C3.4249 12.571 3.30757 12.4457 3.19358 12.3129C3.13364 12.2432 3.07099 12.1763 3.00826 12.1091C2.68536 11.751 2.39083 11.3538 2.13063 10.9478C2.11513 10.9241 2.09964 10.9003 2.08368 10.8759C1.94454 10.6227 1.96218 10.2823 2.01926 10.0052C2.10575 9.76172 2.27177 9.55347 2.42453 9.34764C2.44987 9.31325 2.47521 9.27886 2.50132 9.24342C2.78684 8.86444 3.09447 8.5009 3.43688 8.17202C3.52167 8.08778 3.60576 8.00298 3.6892 7.9174C4.00718 7.59219 4.35586 7.31657 4.71866 7.04302C4.74155 7.0257 4.76444 7.00837 4.78803 6.99052C4.80849 6.97512 4.82894 6.95972 4.85002 6.94385C4.90551 6.89914 4.95441 6.85117 5.00438 6.80045C4.97521 6.77214 4.94605 6.74384 4.916 6.71467C4.80731 6.60895 4.69917 6.50268 4.59119 6.39624C4.54449 6.35036 4.49764 6.30462 4.45065 6.25904C4.38289 6.19328 4.31569 6.12699 4.24856 6.06059C4.22764 6.04051 4.20671 6.02042 4.18516 5.99973C4.03012 5.84479 3.93745 5.69553 3.9197 5.47061C3.94431 5.26297 3.98248 5.10063 4.14485 4.95525C4.41717 4.75014 4.68837 4.76638 4.97172 4.93905ZM7.15969 8.95577C6.79444 9.69931 6.75149 10.6193 7.0047 11.4051C7.20676 11.9948 7.53221 12.5614 8.00875 12.9725C8.03729 12.9971 8.06583 13.0217 8.09524 13.0471C8.52805 13.4059 9.0319 13.6535 9.57625 13.7889C9.6066 13.7968 9.63695 13.8048 9.66822 13.813C10.3607 13.9612 11.0825 13.8495 11.7316 13.593C11.7316 13.3549 11.3822 13.0878 11.2215 12.9236C11.0068 12.7132 10.8371 12.5627 10.5223 12.5582C10.388 12.5688 10.2552 12.5842 10.122 12.6041C9.70199 12.6476 9.23042 12.3932 8.91139 12.1361C8.50377 11.7875 8.18813 11.2944 8.10916 10.756C8.10618 10.6711 8.11914 10.5942 8.13312 10.5104C8.18554 10.1466 8.18554 10.1466 8.06681 9.80768C7.822 9.48667 7.50516 9.20911 7.19234 8.95577C7.18157 8.95577 7.17079 8.95577 7.15969 8.95577Z" fill="#484848"/>
<path d="M12.5806 5.39623C12.6094 5.40325 12.6381 5.41027 12.6677 5.4175C14.2728 5.81929 15.8393 6.7158 17.0032 7.89248C17.0613 7.95018 17.1221 8.00338 17.1852 8.05567C17.2947 8.15033 17.3892 8.25099 17.4826 8.36144C17.5513 8.44136 17.6233 8.51763 17.6954 8.5945C17.9123 8.83247 18.1044 9.08883 18.2955 9.34763C18.3105 9.3678 18.3254 9.38797 18.3409 9.40875C18.6349 9.80717 18.7683 10.1231 18.72 10.6212C18.6595 10.9078 18.4668 11.1414 18.2955 11.3723C18.2575 11.4239 18.2575 11.4239 18.2187 11.4765C18.0693 11.6749 17.9127 11.866 17.7505 12.054C17.7335 12.0738 17.7164 12.0936 17.6988 12.114C17.5921 12.2363 17.4809 12.3522 17.3647 12.4655C17.3108 12.5184 17.3108 12.5184 17.2525 12.5969C17.1768 12.6887 17.0939 12.7607 17.0035 12.8376C16.9278 12.9038 16.8549 12.9723 16.7821 13.0415C16.5189 13.2906 16.2347 13.5075 15.9442 13.7236C15.8951 13.7604 15.846 13.7972 15.7969 13.834C15.775 13.8504 15.7532 13.8668 15.7307 13.8837C15.715 13.8955 15.6992 13.9073 15.683 13.9195C15.5476 13.8659 15.4555 13.7677 15.3541 13.667C15.3346 13.6479 15.3151 13.6288 15.295 13.6091C15.2307 13.5459 15.1667 13.4824 15.1027 13.419C15.0698 13.3864 15.0698 13.3864 15.0363 13.3533C14.9206 13.2387 14.805 13.1239 14.6896 13.0089C14.5703 12.8901 14.4502 12.772 14.33 12.6541C14.2378 12.5633 14.1461 12.472 14.0545 12.3806C14.0104 12.3368 13.9662 12.2932 13.9218 12.2498C13.8598 12.1891 13.7985 12.1278 13.7374 12.0662C13.7189 12.0484 13.7003 12.0306 13.6812 12.0122C13.6311 11.9609 13.6311 11.9609 13.5603 11.8622C13.5633 11.7589 13.5633 11.7589 13.593 11.6662C13.6051 11.6267 13.6171 11.5873 13.6296 11.5466C13.6439 11.5035 13.6582 11.4603 13.6726 11.4172C13.9647 10.4949 13.8408 9.58299 13.4358 8.719C13.326 8.50799 13.1876 8.32347 13.0378 8.13935C13.0153 8.11144 12.9929 8.08353 12.9697 8.05478C12.4252 7.41412 11.5929 6.96913 10.7519 6.89842C10.1623 6.8619 9.60863 6.90222 9.0623 7.13887C8.96802 7.16541 8.91894 7.15526 8.82516 7.12701C8.75097 7.06897 8.75097 7.06897 8.67472 6.99244C8.64597 6.96388 8.61721 6.93533 8.58758 6.90591C8.55668 6.87455 8.52578 6.84318 8.4949 6.8118C8.46294 6.77976 8.43096 6.74775 8.39895 6.71576C8.33208 6.64879 8.26543 6.5816 8.19894 6.51423C8.11358 6.42776 8.0278 6.34173 7.94186 6.25584C7.87587 6.18983 7.81004 6.12365 7.74428 6.05741C7.71269 6.02562 7.68106 5.99386 7.6494 5.96215C7.6053 5.91791 7.56144 5.87342 7.51759 5.82893C7.49256 5.80365 7.46753 5.77837 7.44173 5.75232C7.38828 5.69014 7.38828 5.69013 7.38828 5.62482C9.07695 5.07011 10.8486 4.96985 12.5806 5.39623Z" fill="#484848"/>
<path d="M11.6989 8.46591C12.1744 8.82165 12.5094 9.32747 12.6309 9.91108C12.6678 10.2109 12.6883 10.5547 12.6133 10.8498C12.5136 10.8053 12.4448 10.7549 12.3678 10.6779C12.3345 10.6449 12.3345 10.6449 12.3006 10.6113C12.2767 10.5872 12.2527 10.5631 12.228 10.5383C12.2025 10.5129 12.177 10.4875 12.1507 10.4614C12.0665 10.3774 11.9824 10.2932 11.8984 10.2089C11.84 10.1506 11.7817 10.0923 11.7233 10.034C11.6009 9.91175 11.4787 9.78941 11.3566 9.66699C11.2153 9.52532 11.0738 9.3839 10.9321 9.2426C10.7959 9.10671 10.6599 8.97064 10.5239 8.83448C10.466 8.77652 10.408 8.7186 10.35 8.66074C10.2691 8.58005 10.1885 8.49916 10.1079 8.4182C10.0837 8.39411 10.0595 8.37002 10.0345 8.3452C10.0127 8.32322 9.99091 8.30124 9.96846 8.2786C9.94936 8.25948 9.93027 8.24036 9.91059 8.22066C9.87016 8.17201 9.87016 8.17201 9.87016 8.10669C10.49 7.95143 11.1789 8.11079 11.6989 8.46591Z" fill="#484848"/>
</g>
<defs>
<clipPath id="clip0_111_1287">
<rect width="16.72" height="16.72" fill="white" transform="translate(2 2)"/>
</clipPath>
</defs>
</svg>
