<svg width="20" height="20" viewBox="0 0 20 20" fill="none" xmlns="http://www.w3.org/2000/svg">
<path d="M4.94057 4.13722C5.04435 4.19839 5.12438 4.27535 5.20842 4.36089C5.23617 4.38834 5.23617 4.38834 5.26448 4.41635C5.32616 4.47752 5.38736 4.53914 5.44858 4.60077C5.49324 4.64526 5.53793 4.68972 5.58265 4.73415C5.70527 4.85616 5.82747 4.97857 5.94962 5.10106C6.08148 5.23315 6.21372 5.36487 6.34591 5.49663C6.60473 5.75475 6.86319 6.01322 7.12153 6.27182C7.33147 6.48197 7.54153 6.69199 7.75168 6.90193C7.78158 6.9318 7.81148 6.96167 7.84229 6.99245C7.90303 7.05313 7.96378 7.11382 8.02452 7.1745C8.43235 7.58194 8.84007 7.98951 9.24752 8.39734C9.26345 8.41328 9.27938 8.42922 9.29579 8.44565C9.42514 8.57511 9.55448 8.70458 9.68383 8.83405C10.1885 9.33918 10.6935 9.84392 11.1988 10.3484C11.7667 10.9152 12.3343 11.4823 12.9015 12.0498C12.962 12.1103 13.0224 12.1708 13.0829 12.2313C13.1127 12.2611 13.1424 12.2909 13.1731 12.3215C13.3829 12.5314 13.5928 12.7411 13.8029 12.9506C14.0588 13.206 14.3145 13.4617 14.5698 13.7177C14.7001 13.8483 14.8305 13.9789 14.9612 14.109C15.0809 14.2281 15.2002 14.3476 15.3192 14.4675C15.3623 14.5107 15.4056 14.5539 15.449 14.5969C15.508 14.6554 15.5665 14.7143 15.6249 14.7734C15.6419 14.79 15.6588 14.8066 15.6764 14.8237C15.8275 14.9787 15.9011 15.1509 15.9169 15.3652C15.9092 15.5362 15.842 15.6829 15.7245 15.807C15.5808 15.9314 15.4647 15.9945 15.2747 15.9972C15.2456 15.9981 15.2165 15.999 15.1866 16C14.8903 15.9552 14.7085 15.7543 14.5082 15.5492C14.4789 15.5197 14.4496 15.4902 14.4194 15.4598C14.3421 15.382 14.2652 15.3038 14.1884 15.2256C14.1097 15.1455 14.0306 15.0658 13.9515 14.9861C13.7969 14.8301 13.6428 14.6738 13.4889 14.5171C13.4675 14.5235 13.4462 14.53 13.4243 14.5366C12.8224 14.7177 12.2198 14.8836 11.597 14.9738C11.5707 14.9776 11.5444 14.9814 11.5173 14.9854C9.85774 15.2127 8.16646 14.9187 6.63891 14.2562C6.61109 14.2441 6.58327 14.2321 6.55461 14.2197C5.60125 13.802 4.73721 13.2008 3.97296 12.4974C3.92392 12.4524 3.87422 12.4082 3.82388 12.3647C3.44265 12.0333 3.10049 11.6528 2.78989 11.2552C2.76352 11.2222 2.73716 11.1891 2.71 11.1551C2.2378 10.5582 1.95064 10.0443 2.00703 9.26548C2.24206 7.97427 3.88411 6.67169 4.87749 5.93836C4.701 5.72471 4.50579 5.53436 4.30526 5.34339C4.12571 5.16788 3.99329 5.01156 3.94454 4.76115C3.94281 4.55047 3.96926 4.40584 4.10024 4.23721C4.34312 3.99175 4.64558 3.98608 4.94057 4.13722ZM4.94273 7.53668C4.90167 7.57226 4.90167 7.57226 4.85978 7.60855C4.49825 7.92702 4.16367 8.26652 3.86631 8.64572C3.83372 8.68563 3.80106 8.72546 3.76832 8.76524C3.4001 9.16224 3.4001 9.16224 3.25853 9.65347C3.35701 9.98115 3.65205 10.2756 3.86631 10.5376C3.88856 10.565 3.88856 10.565 3.91125 10.593C4.29411 11.0624 4.72134 11.5075 5.20368 11.875C5.24479 11.9076 5.28585 11.9402 5.32689 11.9728C6.05188 12.5449 6.8479 12.9931 7.71533 13.3102C7.75193 13.3238 7.75193 13.3238 7.78928 13.3376C9.28188 13.8835 10.8826 13.8937 12.4124 13.5059C12.4124 13.3899 12.3963 13.3784 12.3198 13.2966C12.2996 13.2747 12.2793 13.2529 12.2584 13.2304C12.164 13.1316 12.0695 13.0331 11.974 12.9354C11.924 12.8837 11.8744 12.8315 11.8254 12.7788C11.5682 12.4728 11.5682 12.4728 11.2215 12.3195C11.1201 12.3455 11.0372 12.3812 10.9446 12.4295C10.1755 12.5733 9.37794 12.4228 8.72648 11.9922C8.09622 11.5574 7.68151 10.9243 7.51962 10.1788C7.48488 9.98493 7.47879 9.79419 7.4768 9.59779C7.47586 9.56795 7.47491 9.53812 7.47394 9.50738C7.47256 9.35183 7.47914 9.21422 7.52995 9.06653C7.61981 8.81155 7.61981 8.81155 7.59518 8.55044C7.50546 8.40018 7.3746 8.28692 7.24605 8.17046C7.2063 8.13196 7.1667 8.09331 7.12725 8.0545C7.02362 7.9534 6.918 7.85466 6.81181 7.75626C6.70367 7.65528 6.59767 7.55211 6.49142 7.44915C6.3365 7.29966 6.1809 7.15097 6.02352 7.00406C5.99868 6.98074 5.99868 6.98074 5.97334 6.95695C5.72035 6.72213 5.16776 7.33923 4.94273 7.53668ZM8.72651 9.75476C8.78058 10.2283 8.99531 10.5938 9.36092 10.8976C9.61712 11.087 9.8762 11.199 10.1944 11.2226C10.0416 11.0391 9.87854 10.8694 9.70954 10.7008C9.68238 10.6736 9.65522 10.6465 9.62724 10.6184C9.57023 10.5614 9.51318 10.5044 9.4561 10.4475C9.36829 10.3598 9.28066 10.272 9.19305 10.1842C9.13757 10.1288 9.08208 10.0733 9.02658 10.0179C9.00025 9.99148 8.97392 9.96509 8.94679 9.93789C8.92261 9.91381 8.89843 9.88973 8.87351 9.86492C8.85216 9.84359 8.8308 9.82226 8.80879 9.80028C8.76635 9.75109 8.76635 9.75109 8.72651 9.75476Z" fill="#484848"/>
<path d="M14.076 4.9272C14.1025 4.93876 14.1291 4.95032 14.1564 4.96223C14.802 5.24689 15.4034 5.61391 15.9679 6.03624C15.9881 6.05129 16.0082 6.06633 16.029 6.08183C16.2839 6.27348 16.5218 6.47902 16.7538 6.69767C16.8316 6.77059 16.9104 6.84132 16.9913 6.91084C17.1746 7.06995 17.3411 7.24203 17.4992 7.42611C17.5495 7.48464 17.6004 7.54266 17.6516 7.60042C18.2437 8.2724 18.7564 8.90835 18.7141 9.84072C18.6318 10.8607 17.3227 12.0255 16.5876 12.6579C16.455 12.7678 16.3189 12.873 16.1818 12.9773C16.1343 13.0141 16.0879 13.0524 16.0417 13.0908C16.016 13.1121 15.9903 13.1334 15.9638 13.1553C15.9422 13.1736 15.9206 13.192 15.8983 13.2109C15.8374 13.245 15.8374 13.245 15.7742 13.2359C15.6621 13.1967 15.5898 13.1071 15.5087 13.0237C15.49 13.0049 15.4714 12.9861 15.4522 12.9668C15.3928 12.9068 15.3338 12.8466 15.2747 12.7863C15.2345 12.7456 15.1942 12.7049 15.1539 12.6642C15.0553 12.5645 14.957 12.4645 14.8588 12.3643C14.9351 12.2859 15.0103 12.2143 15.099 12.1504C15.1196 12.1353 15.1402 12.1203 15.1615 12.1048C15.1834 12.0888 15.2053 12.0729 15.2278 12.0565C15.8182 11.6188 16.3637 11.1183 16.816 10.5376C16.8485 10.4978 16.881 10.4581 16.9137 10.4184C17.2821 10.0213 17.2821 10.0213 17.4238 9.5299C17.3253 9.20228 17.0303 8.9077 16.816 8.64575C16.7935 8.61806 16.7935 8.61806 16.7705 8.58981C16.3963 8.13222 15.9813 7.7005 15.5112 7.341C15.4701 7.30837 15.429 7.27571 15.3879 7.24301C13.9565 6.11381 12.2166 5.44244 10.386 5.44095C10.3616 5.44093 10.3372 5.44091 10.312 5.44088C9.70277 5.44175 9.12053 5.50956 8.52917 5.65988C8.50128 5.66685 8.4734 5.67382 8.44466 5.681C8.42026 5.68738 8.39587 5.69377 8.37073 5.70034C8.29199 5.71155 8.24722 5.70266 8.17199 5.67744C8.12039 5.6376 8.12039 5.6376 8.07034 5.5869C8.04195 5.55849 8.04195 5.55849 8.01298 5.52952C7.99296 5.50899 7.97295 5.48847 7.95232 5.46732C7.93151 5.44637 7.9107 5.42542 7.88926 5.40384C7.82289 5.33693 7.75688 5.26968 7.69086 5.20242C7.64591 5.15698 7.60093 5.11155 7.55593 5.06615C7.44571 4.95485 7.3358 4.84325 7.22604 4.73149C8.63626 3.32128 12.5722 4.26887 14.076 4.9272Z" fill="#484848"/>
<path d="M12.0555 7.20222C12.6902 7.6885 13.0791 8.31193 13.2468 9.09233C13.3093 9.58247 13.2735 10.0662 13.1301 10.5376C13.016 10.5376 13.0066 10.5251 12.9273 10.4501C12.8966 10.4213 12.8966 10.4213 12.8653 10.3919C12.8434 10.3707 12.8215 10.3495 12.7989 10.3276C12.7762 10.3057 12.7535 10.2838 12.73 10.2612C12.6819 10.2144 12.6339 10.1674 12.586 10.1203C12.5374 10.0728 12.4883 10.0257 12.4388 9.97915C12.1479 9.70532 11.9391 9.4913 11.8784 9.08729C11.8168 8.74029 11.56 8.45881 11.2834 8.25749C11.1017 8.14118 10.9519 8.08457 10.7387 8.05349C10.3629 7.97606 10.136 7.68368 9.88448 7.41437C9.8351 7.36301 9.78562 7.31175 9.73604 7.26058C9.6159 7.13616 9.49695 7.0107 9.37889 6.88431C9.41151 6.81907 9.41151 6.81907 9.50847 6.78416C10.3833 6.54543 11.3096 6.67875 12.0555 7.20222Z" fill="#484848"/>
</svg>
