<svg width="20" height="20" viewBox="0 0 20 20" fill="none" xmlns="http://www.w3.org/2000/svg">
<path d="M14.4507 2.6653C14.4809 2.69422 14.5111 2.72315 14.5422 2.75296C14.5929 2.79997 14.5929 2.79997 14.6446 2.84792C16.475 4.59758 16.9392 7.30765 16.9997 9.72804C17.0178 11.9518 16.3274 14.3114 14.8928 16.0386C14.8752 16.0601 14.8575 16.0817 14.8393 16.1039C14.2107 16.8694 13.505 17.5087 12.6331 17.9866C12.5965 18.007 12.5965 18.007 12.5591 18.0278C11.286 18.7288 9.81429 18.8561 8.42535 18.4541C7.35728 18.1318 6.43844 17.4858 5.65915 16.7009C5.63843 16.6801 5.61771 16.6592 5.59637 16.6378C5.07763 16.1101 4.66145 15.511 4.29552 14.8697C4.27769 14.8386 4.25986 14.8074 4.24149 14.7753C3.47662 13.4204 3.00908 11.8353 3.00191 10.2737C3.00163 10.2339 3.00136 10.194 3.00108 10.153C3.0004 10.0248 3.00015 9.89654 3.00008 9.76832C3.00005 9.72452 3.00003 9.68073 3 9.63562C3.00062 8.98312 3.01759 8.34572 3.1267 7.70096C3.13359 7.65889 3.14049 7.61682 3.14759 7.57347C3.42886 5.89408 4.01687 4.25314 5.19162 2.98672C5.20997 2.96692 5.22833 2.94712 5.24724 2.92672C6.42507 1.66948 8.04304 1.08082 9.73837 1.00353C11.4813 0.951935 13.1654 1.4637 14.4507 2.6653ZM5.77603 3.14256C5.75308 3.16346 5.73012 3.18435 5.70648 3.20588C4.22854 4.60345 3.57171 6.98644 3.51365 8.96016C3.47672 10.266 3.47672 10.266 3.63319 11.5581C3.64093 11.5975 3.64867 11.637 3.65665 11.6776C3.94304 13.1098 4.50607 14.5032 5.42538 15.6489C5.45009 15.6815 5.4748 15.7141 5.50026 15.7477C6.47294 16.9975 7.86554 17.949 9.45538 18.1546C10.8096 18.2958 12.1639 17.8438 13.2186 16.9926C13.3625 16.8722 13.5027 16.7484 13.6406 16.6211C13.7082 16.5595 13.7765 16.5018 13.8482 16.4452C13.9912 16.3212 14.1087 16.183 14.2305 16.0386C14.2585 16.0071 14.2864 15.9757 14.3153 15.9433C16.0418 13.9596 16.6228 11.3272 16.445 8.76048C16.2935 6.67927 15.647 4.67219 14.1915 3.14256C14.1539 3.10121 14.1539 3.10121 14.1156 3.05901C13.0897 1.96639 11.5649 1.57866 10.1218 1.49876C8.46745 1.46624 6.978 2.01129 5.77603 3.14256Z" fill="#484848"/>
<path d="M8.708 8.37116C9.03007 8.71992 9.18648 9.06091 9.17523 9.53998C9.14606 9.87146 9.01937 10.1303 8.81499 10.3892C8.79435 10.4157 8.77371 10.4421 8.75244 10.4694C8.36885 10.9038 7.75886 11.0962 7.19843 11.1401C6.56361 11.1585 5.90762 10.9739 5.42542 10.545C5.08962 10.1799 4.94212 9.80805 4.94708 9.31596C4.98488 8.84529 5.25051 8.50053 5.59891 8.20299C6.49988 7.53556 7.89802 7.57943 8.708 8.37116ZM5.9319 8.59701C5.89574 8.61951 5.85958 8.64201 5.82233 8.66519C5.62638 8.86674 5.46192 9.13454 5.4522 9.42006C5.45646 9.71148 5.5877 9.95797 5.78291 10.1699C6.17319 10.5184 6.65908 10.637 7.17012 10.6313C7.62453 10.601 8.11787 10.4273 8.42539 10.0775C8.5895 9.82901 8.69461 9.60198 8.65915 9.2983C8.56291 8.91151 8.33073 8.67232 7.99682 8.46795C7.34423 8.13205 6.53614 8.19598 5.9319 8.59701Z" fill="#484848"/>
<path d="M14.4253 8.2464C14.4655 8.27453 14.5056 8.30265 14.547 8.33163C14.8118 8.55941 14.9913 8.91097 15.0242 9.25481C15.0378 9.72181 14.9621 10.0722 14.6542 10.4404C14.194 10.9151 13.5864 11.1234 12.935 11.1417C12.2908 11.1279 11.7049 10.9352 11.2354 10.4827C10.9647 10.1772 10.8084 9.82454 10.8019 9.41522C10.8368 8.97389 11.0176 8.58353 11.3474 8.28536C12.2668 7.60419 13.4937 7.54248 14.4253 8.2464ZM11.5837 8.77892C11.4064 8.97907 11.3179 9.1847 11.3084 9.45418C11.3371 9.79134 11.5034 10.0137 11.7443 10.2407C12.1371 10.5582 12.645 10.6647 13.1396 10.623C13.6103 10.5546 14.047 10.3824 14.3474 9.99963C14.5222 9.75973 14.5452 9.51062 14.5032 9.22042C14.3989 8.87241 14.1628 8.63045 13.8476 8.45932C13.0868 8.11778 12.1982 8.18418 11.5837 8.77892Z" fill="#484848"/>
<path d="M9.90584 13.3503C10.0315 13.3377 10.1368 13.3123 10.2565 13.2724C11.0155 13.2066 11.6008 13.6264 12.1656 14.0905C12.3167 14.2248 12.3919 14.3551 12.4042 14.5578C12.3893 14.7973 12.2577 14.9569 12.0899 15.1132C11.4785 15.633 10.7873 15.8679 9.98863 15.8608C9.94073 15.8605 9.89283 15.8601 9.84348 15.8597C9.49002 15.853 9.18395 15.8231 8.8539 15.6879C8.82885 15.6777 8.8038 15.6674 8.77799 15.6569C8.34877 15.4757 7.81507 15.1923 7.60716 14.7529C7.59026 14.6568 7.59026 14.6568 7.59011 14.5605C7.58936 14.5288 7.58861 14.4971 7.58783 14.4645C7.63922 14.1954 7.84642 14.0493 8.05521 13.8982C8.08283 13.8779 8.11046 13.8576 8.13892 13.8367C8.6607 13.4586 9.24723 13.0757 9.90584 13.3503ZM8.11365 14.5191C8.26447 14.879 8.68352 15.0486 9.0172 15.203C9.60946 15.4423 10.3928 15.4318 10.9847 15.2C11.3423 15.0404 11.6105 14.8284 11.8928 14.5581C11.5772 14.215 10.9981 13.7842 10.5219 13.7594C10.3987 13.7755 10.3296 13.7942 10.22 13.8422C10.0387 13.919 9.89249 13.8795 9.71103 13.8178C9.68532 13.8049 9.65961 13.7921 9.63311 13.7788C9.04567 13.7264 8.544 14.1662 8.11365 14.5191Z" fill="#484848"/>
<path d="M9.17294 11.2805C9.33981 11.3297 9.454 11.403 9.5936 11.5045C9.78144 11.6326 9.99909 11.6188 10.2176 11.597C10.3808 11.5441 10.5021 11.4657 10.6291 11.3511C10.7241 11.2853 10.7241 11.2853 10.8677 11.2902C10.9968 11.3243 10.9968 11.3243 11.0747 11.4022C11.0991 11.5264 11.0991 11.5264 11.0747 11.6749C10.8895 11.9242 10.5889 12.065 10.2955 12.1425C9.83796 12.1973 9.46043 12.1212 9.08285 11.8576C8.96528 11.7592 8.93384 11.7194 8.88074 11.5702C8.89291 11.4412 8.89291 11.4412 8.95135 11.3438C9.04876 11.2853 9.04876 11.2853 9.17294 11.2805Z" fill="#484848"/>
<path d="M9.58321 14.2347C9.6165 14.2346 9.64978 14.2344 9.68407 14.2342C9.75442 14.234 9.82476 14.234 9.89511 14.2341C10.0029 14.2343 10.1106 14.2334 10.2183 14.2324C10.2866 14.2323 10.355 14.2322 10.4233 14.2323C10.4556 14.2319 10.4878 14.2316 10.5211 14.2312C10.7458 14.233 10.7458 14.233 10.8298 14.2986C10.8799 14.3633 10.8799 14.3633 10.8969 14.4778C10.8799 14.5971 10.8799 14.5971 10.8217 14.6811C10.6839 14.7824 10.5552 14.776 10.3904 14.775C10.3582 14.7752 10.3259 14.7755 10.2926 14.7757C10.2245 14.776 10.1564 14.7759 10.0883 14.7754C9.98411 14.7748 9.88006 14.7762 9.77589 14.7777C9.70963 14.7777 9.64338 14.7776 9.57713 14.7774C9.54604 14.778 9.51495 14.7785 9.48291 14.779C9.32999 14.7764 9.25884 14.767 9.1446 14.6618C9.08768 14.5581 9.08768 14.5581 9.09012 14.4339C9.1692 14.1967 9.37138 14.2345 9.58321 14.2347Z" fill="#484848"/>
</svg>
