<svg width="20" height="20" viewBox="0 0 20 20" fill="none" xmlns="http://www.w3.org/2000/svg">
<path d="M14.2297 2.47752C14.2622 2.50515 14.2947 2.53277 14.3282 2.56124C16.0612 4.07181 16.8009 6.446 16.9616 8.678C17.0643 10.1868 16.9741 11.64 16.5301 13.0917C16.52 13.125 16.5099 13.1583 16.4994 13.1926C16.0778 14.55 15.3379 15.7852 14.3508 16.8046C14.3304 16.826 14.31 16.8475 14.289 16.8695C13.2172 17.9942 11.7663 18.7911 10.1939 18.8629C10.1628 18.8645 10.1318 18.8662 10.0998 18.8679C9.24495 18.8912 8.41345 18.6729 7.65135 18.2979C7.62576 18.2854 7.60018 18.273 7.57382 18.2602C5.56084 17.2706 4.20518 15.286 3.49336 13.2131C3.19472 12.3098 3.00646 11.3509 3.00197 10.3979C3.00169 10.3576 3.00141 10.3172 3.00112 10.2756C3.00041 10.1456 3.00015 10.0157 3.00008 9.88575C3.00006 9.84134 3.00003 9.79693 3 9.75118C3.00065 9.08093 3.02023 8.42683 3.13125 7.76443C3.13817 7.72143 3.1451 7.67843 3.15223 7.63413C3.49994 5.52241 4.38517 3.43039 6.16819 2.14709C8.48266 0.525798 12.0769 0.611766 14.2297 2.47752ZM5.47201 8.61194C5.21431 8.88676 5.06973 9.15857 5.05077 9.53766C5.06605 9.91784 5.23369 10.1881 5.49298 10.458C5.92144 10.848 6.49556 11.0106 7.06694 11.0043C7.6241 10.9599 8.16198 10.7709 8.55042 10.3562C8.78964 10.0481 8.89504 9.72457 8.86209 9.33839C8.77965 8.899 8.48927 8.60418 8.13091 8.3586C7.32661 7.87798 6.15493 7.9477 5.47201 8.61194ZM11.5232 8.62456C11.2903 8.87952 11.1114 9.18637 11.1221 9.54018C11.1522 9.92026 11.3149 10.2367 11.5913 10.4987C12.0641 10.8791 12.6596 11.0477 13.2611 10.9931C13.7757 10.923 14.2822 10.7477 14.6333 10.3473C14.8873 9.98274 14.9498 9.70248 14.9158 9.25767C14.8254 8.88971 14.5438 8.59873 14.2411 8.38509C13.3998 7.87656 12.253 7.94415 11.5232 8.62456ZM8.97307 11.5455C8.8914 11.6323 8.8914 11.6323 8.90843 11.7365C8.98183 11.9587 9.21135 12.0742 9.41039 12.177C9.78312 12.3311 10.1513 12.3451 10.5294 12.2013C10.7356 12.1046 10.9463 11.9883 11.0818 11.8002C11.0982 11.6967 11.0982 11.6967 11.0818 11.5984C11.0205 11.5138 11.0205 11.5138 10.9203 11.4774C10.7672 11.5046 10.6664 11.5646 10.547 11.659C10.3527 11.8032 10.1412 11.8463 9.90115 11.8371C9.65962 11.7982 9.47925 11.6746 9.28112 11.5363C9.14993 11.4559 9.09704 11.4525 8.97307 11.5455ZM8.13312 14.4134C8.10616 14.433 8.0792 14.4525 8.05143 14.4726C7.91107 14.5702 7.91107 14.5702 7.81278 14.706C7.79842 14.8457 7.79496 14.9214 7.87379 15.0399C8.56768 15.7101 9.31559 15.8984 10.2521 15.8874C10.9565 15.8672 11.5891 15.5639 12.0907 15.0692C12.1726 14.9768 12.1726 14.9768 12.2118 14.8674C12.1841 14.6822 12.1119 14.5895 11.9641 14.4769C11.9418 14.4609 11.9195 14.445 11.8965 14.4285C11.8733 14.4114 11.8502 14.3943 11.8263 14.3767C11.1563 13.8808 11.1563 13.8808 10.3553 13.7778C10.2851 13.7989 10.2152 13.8216 10.146 13.8459C9.9457 13.9132 9.86017 13.8698 9.66925 13.7778C9.08193 13.688 8.58165 14.0876 8.13312 14.4134Z" fill="#484848"/>
<path d="M9.54566 14.4881C9.58103 14.488 9.6164 14.4879 9.65285 14.4878C9.72762 14.4877 9.80238 14.4879 9.87715 14.4884C9.99169 14.4891 10.1062 14.4884 10.2207 14.4876C10.2933 14.4877 10.366 14.4879 10.4386 14.4881C10.4729 14.4879 10.5072 14.4876 10.5425 14.4874C10.7808 14.4902 10.7808 14.4902 10.8689 14.5569C10.9542 14.6703 10.935 14.7714 10.9204 14.9078C10.8686 14.9761 10.8686 14.9761 10.7993 15.0288C10.6796 15.0414 10.5686 15.0468 10.4488 15.0463C10.3973 15.0467 10.3973 15.0467 10.3446 15.047C10.2719 15.0472 10.1992 15.0472 10.1265 15.0468C10.0154 15.0465 9.90426 15.0477 9.79309 15.0489C9.72243 15.049 9.65178 15.049 9.58113 15.0489C9.54791 15.0493 9.5147 15.0498 9.48047 15.0502C9.32733 15.0484 9.24992 15.0468 9.12346 14.9546C9.04296 14.8368 9.04307 14.765 9.06388 14.6253C9.1913 14.46 9.35247 14.4867 9.54566 14.4881Z" fill="#484848"/>
</svg>
