<svg width="20" height="20" viewBox="0 0 20 20" fill="none" xmlns="http://www.w3.org/2000/svg">
<path d="M10 4.99996C10.9205 4.99996 11.6667 4.25377 11.6667 3.33329C11.6667 2.41282 10.9205 1.66663 10 1.66663C9.07954 1.66663 8.33334 2.41282 8.33334 3.33329C8.33334 4.25377 9.07954 4.99996 10 4.99996Z" stroke="#484848" stroke-linecap="round" stroke-linejoin="round"/>
<path d="M15.8333 8.33333C16.7538 8.33333 17.5 7.58714 17.5 6.66667C17.5 5.74619 16.7538 5 15.8333 5C14.9128 5 14.1667 5.74619 14.1667 6.66667C14.1667 7.58714 14.9128 8.33333 15.8333 8.33333Z" stroke="#484848" stroke-linecap="round" stroke-linejoin="round"/>
<path d="M15.8333 15C16.7538 15 17.5 14.2538 17.5 13.3333C17.5 12.4128 16.7538 11.6666 15.8333 11.6666C14.9128 11.6666 14.1667 12.4128 14.1667 13.3333C14.1667 14.2538 14.9128 15 15.8333 15Z" stroke="#484848" stroke-linecap="round" stroke-linejoin="round"/>
<path d="M4.16667 15C5.08714 15 5.83333 14.2538 5.83333 13.3333C5.83333 12.4128 5.08714 11.6666 4.16667 11.6666C3.24619 11.6666 2.5 12.4128 2.5 13.3333C2.5 14.2538 3.24619 15 4.16667 15Z" stroke="#484848" stroke-linecap="round" stroke-linejoin="round"/>
<path d="M4.16667 8.33333C5.08714 8.33333 5.83333 7.58714 5.83333 6.66667C5.83333 5.74619 5.08714 5 4.16667 5C3.24619 5 2.5 5.74619 2.5 6.66667C2.5 7.58714 3.24619 8.33333 4.16667 8.33333Z" stroke="#484848" stroke-linecap="round" stroke-linejoin="round"/>
<path d="M10 15C12.7614 15 15 12.7614 15 10C15 7.23858 12.7614 5 10 5C7.23858 5 5 7.23858 5 10C5 12.7614 7.23858 15 10 15Z" stroke="#484848" stroke-linecap="round" stroke-linejoin="round"/>
<path d="M6.66666 18.3333L9.99999 10L13.3333 18.3333" stroke="#484848" stroke-linecap="round" stroke-linejoin="round"/>
</svg>
