<svg width="20" height="20" viewBox="0 0 20 20" fill="none" xmlns="http://www.w3.org/2000/svg">
<path d="M11.1667 5.38308C12.0871 5.38308 12.8333 4.62575 12.8333 3.69154C12.8333 2.75733 12.0871 2 11.1667 2C10.2462 2 9.5 2.75733 9.5 3.69154C9.5 4.62575 10.2462 5.38308 11.1667 5.38308Z" fill="#484848" stroke="#484848" stroke-width="1.1" stroke-linecap="round" stroke-linejoin="round"/>
<path d="M12 17.2239C12.9205 17.2239 13.6666 16.4665 13.6666 15.5323C13.6666 14.5981 12.9205 13.8408 12 13.8408C11.0795 13.8408 10.3333 14.5981 10.3333 15.5323C10.3333 16.4665 11.0795 17.2239 12 17.2239Z" fill="#484848" stroke="#484848" stroke-width="1.1" stroke-linecap="round" stroke-linejoin="round"/>
<path d="M6.16667 11.3035C7.08714 11.3035 7.83333 10.5461 7.83333 9.61192C7.83333 8.67771 7.08714 7.92038 6.16667 7.92038C5.24619 7.92038 4.5 8.67771 4.5 9.61192C4.5 10.5461 5.24619 11.3035 6.16667 11.3035Z" fill="#484848" stroke="#484848" stroke-width="1.1" stroke-linecap="round" stroke-linejoin="round"/>
<path d="M2 3.69156H9.5" stroke="#484848" stroke-width="1.1" stroke-linecap="round" stroke-linejoin="round"/>
<path d="M12.8333 3.69156H17" stroke="#484848" stroke-width="1.1" stroke-linecap="round" stroke-linejoin="round"/>
<path d="M2 9.61194H4.5" stroke="#484848" stroke-width="1.1" stroke-linecap="round" stroke-linejoin="round"/>
<path d="M7.83331 9.61194H17" stroke="#484848" stroke-width="1.1" stroke-linecap="round" stroke-linejoin="round"/>
<path d="M2 15.5323H10.3333" stroke="#484848" stroke-width="1.1" stroke-linecap="round" stroke-linejoin="round"/>
<path d="M13.6667 15.5323H17" stroke="#484848" stroke-width="1.1" stroke-linecap="round" stroke-linejoin="round"/>
</svg>
