<svg width="20" height="20" viewBox="0 0 20 20" fill="none" xmlns="http://www.w3.org/2000/svg">
<path d="M10 7.5C11.3807 7.5 12.5 6.38071 12.5 5C12.5 3.61929 11.3807 2.5 10 2.5C8.61929 2.5 7.5 3.61929 7.5 5C7.5 6.38071 8.61929 7.5 10 7.5Z" fill="#484848" stroke="#484848" stroke-linecap="round" stroke-linejoin="round"/>
<path d="M6.66667 13.3334H3.33334C2.41286 13.3334 1.66667 14.0796 1.66667 15V15.8334C1.66667 16.7538 2.41286 17.5 3.33334 17.5H6.66667C7.58715 17.5 8.33334 16.7538 8.33334 15.8334V15C8.33334 14.0796 7.58715 13.3334 6.66667 13.3334Z" fill="#484848" stroke="#484848" stroke-linecap="round" stroke-linejoin="round"/>
<path d="M16.6667 13.3334H13.3333C12.4129 13.3334 11.6667 14.0796 11.6667 15V15.8334C11.6667 16.7538 12.4129 17.5 13.3333 17.5H16.6667C17.5871 17.5 18.3333 16.7538 18.3333 15.8334V15C18.3333 14.0796 17.5871 13.3334 16.6667 13.3334Z" fill="#484848" stroke="#484848" stroke-linecap="round" stroke-linejoin="round"/>
<path d="M5 13.3333V11.6667C5 11.2246 5.17559 10.8007 5.48816 10.4882C5.80072 10.1756 6.22464 10 6.66667 10H13.3333C13.7754 10 14.1993 10.1756 14.5118 10.4882C14.8244 10.8007 15 11.2246 15 11.6667V13.3333" stroke="#484848" stroke-linecap="round" stroke-linejoin="round"/>
<path d="M10 7.5V10" stroke="#484848" stroke-linecap="round" stroke-linejoin="round"/>
</svg>
