<svg width="20" height="20" viewBox="0 0 20 20" fill="none" xmlns="http://www.w3.org/2000/svg">
<path d="M10.0357 7.64679C10.1657 7.73547 10.294 7.82636 10.3689 7.96804C10.3816 8.05799 10.3727 8.12896 10.3415 8.2141C10.28 8.2954 10.2336 8.29586 10.1331 8.31492C9.99163 8.31047 9.91289 8.22164 9.8099 8.13336C9.61743 7.97915 9.41967 7.94997 9.17712 7.95736C8.97688 7.9803 8.82487 8.05455 8.67378 8.18676C8.65574 8.18676 8.63769 8.18676 8.6191 8.18676C8.61152 8.20227 8.60394 8.21778 8.59614 8.23375C8.55324 8.3181 8.50566 8.39958 8.45837 8.48153C8.35845 8.67928 8.38658 8.93061 8.41917 9.14368C8.42837 9.22094 8.42715 9.25491 8.40379 9.33164C8.31595 9.41949 8.2175 9.43925 8.09963 9.47176C7.59667 9.61794 7.24719 9.87248 6.97867 10.3193C6.78899 10.6913 6.77974 11.0318 6.78729 11.4403C6.80585 11.4302 6.82441 11.4202 6.84353 11.4098C7.69534 10.9509 8.4741 10.734 9.43493 10.9744C9.89244 11.1145 10.3118 11.3692 10.7288 11.5988C10.8698 11.6764 11.0114 11.7529 11.1533 11.8291C11.2135 11.8614 11.2736 11.8938 11.3338 11.9263C11.4782 12.0043 11.6229 12.0817 11.7684 12.1576C12.1439 12.3551 12.4732 12.529 12.6381 12.944C12.7301 13.246 12.7033 13.5659 12.5561 13.8462C12.3101 14.1857 11.9513 14.3691 11.54 14.4383C10.8171 14.5259 10.2286 14.3274 9.557 14.0793C9.47078 14.0475 9.38443 14.0161 9.29807 13.9846C9.24301 13.9644 9.18795 13.9441 9.13291 13.9238C9.10719 13.9145 9.08148 13.9051 9.05499 13.8955C9.03122 13.8867 9.00746 13.8778 8.98298 13.8687C8.96214 13.861 8.9413 13.8534 8.91983 13.8455C8.85978 13.8163 8.82494 13.7888 8.78314 13.7369C8.75525 13.6293 8.74415 13.5704 8.79169 13.4686C8.83782 13.4088 8.83782 13.4088 8.8925 13.3541C9.09232 13.3317 9.25007 13.395 9.43493 13.4658C9.4656 13.4772 9.49626 13.4886 9.52785 13.5004C9.62549 13.5367 9.72293 13.5735 9.82037 13.6104C9.91773 13.647 10.0151 13.6836 10.1126 13.7199C10.1731 13.7425 10.2335 13.7652 10.2939 13.7882C10.802 13.9786 11.3112 14.0148 11.8218 13.8031C11.9518 13.7384 12.0574 13.6688 12.1227 13.5366C12.1703 13.3872 12.1751 13.2204 12.124 13.0712C11.9903 12.8319 11.7054 12.7179 11.471 12.5988C11.26 12.4902 11.0503 12.3798 10.8422 12.2656C10.6234 12.1457 10.4044 12.0263 10.1847 11.908C10.1365 11.8821 10.0884 11.856 10.0402 11.8299C9.63463 11.6119 9.22494 11.4055 8.7558 11.3856C8.73222 11.3842 8.70865 11.3828 8.68435 11.3813C7.90188 11.3559 7.24444 11.7782 6.5886 12.1526C6.36479 12.2802 6.13872 12.4033 5.91182 12.5253C5.87319 12.5461 5.87319 12.5461 5.83379 12.5673C5.81131 12.5794 5.78882 12.5914 5.76566 12.6039C5.69012 12.6439 5.69012 12.6439 5.60804 12.6995C5.49469 12.764 5.39769 12.768 5.2694 12.7663C5.24693 12.7665 5.22445 12.7666 5.2013 12.7668C5.12754 12.7671 5.0538 12.7667 4.98005 12.7662C4.92854 12.7662 4.87704 12.7662 4.82554 12.7663C4.71784 12.7663 4.61016 12.766 4.50247 12.7654C4.36453 12.7646 4.22661 12.7647 4.08868 12.765C3.98242 12.7652 3.87618 12.765 3.76993 12.7647C3.71906 12.7645 3.6682 12.7645 3.61734 12.7646C3.54627 12.7647 3.47523 12.7643 3.40417 12.7637C3.38323 12.7638 3.36229 12.7639 3.34072 12.764C3.21836 12.7623 3.13883 12.7466 3.04165 12.6706C3.01038 12.6081 3.00707 12.5659 3.00406 12.4963C3.00272 12.4752 3.00138 12.4541 3 12.4324C3.0218 12.3371 3.06984 12.3123 3.15101 12.2605C3.224 12.2519 3.28479 12.2494 3.35724 12.2525C3.38776 12.2531 3.38776 12.2531 3.4189 12.2538C3.46306 12.2547 3.50721 12.2559 3.55136 12.2572C3.62212 12.2592 3.69282 12.2603 3.7636 12.261C3.96482 12.263 4.16598 12.2655 4.36711 12.2718C5.08448 12.2933 5.56685 12.2163 6.15846 11.7957C6.21292 11.7589 6.26769 11.7226 6.3225 11.6863C6.31658 11.6633 6.31658 11.6633 6.31054 11.6398C6.17856 11.0422 6.28196 10.4569 6.59591 9.93655C6.8782 9.4976 7.29397 9.15776 7.79889 9.00697C7.82595 9.00697 7.85302 9.00697 7.88091 9.00697C7.87964 8.9792 7.87837 8.95143 7.87706 8.92282C7.86326 8.49098 7.98096 8.14835 8.27734 7.82621C8.7541 7.36821 9.47803 7.31747 10.0357 7.64679Z" fill="#484848"/>
<path d="M16.6132 11.8907C16.8206 12.0359 16.947 12.2355 17.0126 12.4792C17.0417 12.8221 17.0121 13.1033 16.7907 13.3799C16.6159 13.571 16.4122 13.7328 16.2111 13.895C16.1391 13.9544 16.0699 14.0158 16.001 14.0786C15.9081 14.1633 15.8134 14.2441 15.7156 14.323C15.5851 14.4285 15.4615 14.54 15.338 14.6536C15.2406 14.7411 15.1391 14.8227 15.0372 14.9048C14.9598 14.969 14.8857 15.0358 14.8117 15.1039C14.6901 15.2158 14.5643 15.3206 14.4358 15.4243C14.3584 15.4885 14.2842 15.5553 14.2102 15.6234C14.0885 15.7353 13.9627 15.8401 13.8341 15.9439C13.7577 16.0073 13.6849 16.0735 13.6121 16.1411C12.9048 16.7891 12.1518 17.0607 11.1996 17.0246C10.816 17.0056 10.4344 16.9388 10.055 16.8815C9.92567 16.8621 9.79622 16.8434 9.66678 16.8246C9.42264 16.789 9.17858 16.7528 8.93455 16.7164C8.65753 16.6751 8.38041 16.6345 8.10328 16.594C7.69403 16.5341 7.28481 16.4739 6.8757 16.4131C6.83188 16.4066 6.78806 16.4001 6.74424 16.3936C6.61272 16.3741 6.48125 16.3543 6.34982 16.3342C6.31742 16.3293 6.28502 16.3245 6.25163 16.3194C6.22224 16.3148 6.19284 16.3102 6.16255 16.3055C6.13725 16.3015 6.11195 16.2976 6.08589 16.2936C5.99326 16.2733 5.94358 16.2449 5.88504 16.1702C5.85363 16.0622 5.8459 16.0053 5.89187 15.9019C5.93972 15.8421 5.93972 15.8421 6.02174 15.7874C6.16756 15.7801 6.30353 15.7928 6.44814 15.8144C6.46785 15.8173 6.48756 15.8202 6.50786 15.8232C6.57331 15.8329 6.63872 15.8428 6.70413 15.8527C6.75131 15.8597 6.79849 15.8667 6.84568 15.8737C6.94709 15.8887 7.04848 15.9039 7.14987 15.9191C7.31082 15.9432 7.47181 15.967 7.63282 15.9907C8.0906 16.0583 8.54835 16.1261 9.006 16.1946C9.25892 16.2324 9.5119 16.2699 9.76493 16.307C9.89845 16.3266 10.0319 16.3464 10.1654 16.3666C11.5842 16.5878 11.5842 16.5878 12.8842 16.0608C12.9894 15.9765 13.0917 15.8892 13.1932 15.8005C13.2551 15.7466 13.3176 15.6933 13.38 15.64C13.5472 15.4973 13.7132 15.3534 13.8792 15.2093C14.0094 15.0964 14.1402 14.9841 14.2712 14.872C14.3879 14.7721 14.5042 14.6715 14.6203 14.5708C14.7677 14.4428 14.9157 14.3154 15.0641 14.1885C15.1808 14.0886 15.2971 13.988 15.4132 13.8872C15.5293 13.7865 15.6456 13.6859 15.7624 13.5859C15.7937 13.5591 15.825 13.5323 15.8563 13.5054C15.9414 13.4322 16.027 13.3596 16.1132 13.2877C16.1504 13.2563 16.1876 13.2249 16.2248 13.1935C16.2422 13.1792 16.2596 13.1649 16.2776 13.1501C16.3999 13.0462 16.4791 12.951 16.505 12.7869C16.5052 12.6141 16.4928 12.5068 16.3838 12.3699C16.256 12.2681 16.1495 12.2407 15.9872 12.2436C15.7904 12.2784 15.6168 12.3813 15.4412 12.4732C15.3664 12.5123 15.2912 12.5507 15.216 12.5889C15.0834 12.6564 14.9512 12.7245 14.8191 12.7928C14.6075 12.9022 14.3956 13.0112 14.1832 13.1192C14.1094 13.157 14.0358 13.1953 13.9623 13.2337C13.9168 13.257 13.8714 13.2802 13.8259 13.3034C13.8057 13.3141 13.7855 13.3249 13.7647 13.3359C13.6282 13.4046 13.5293 13.4243 13.3763 13.4088C13.2943 13.3524 13.2943 13.3524 13.2396 13.2721C13.2223 13.1643 13.2231 13.1073 13.2811 13.0141C13.3693 12.9231 13.4625 12.8762 13.5755 12.821C13.5983 12.8096 13.621 12.7981 13.6445 12.7863C13.7196 12.7487 13.7948 12.7116 13.8702 12.6744C13.9225 12.6484 13.9748 12.6223 14.027 12.5962C14.1365 12.5415 14.2461 12.4871 14.3558 12.4329C14.4964 12.3634 14.6369 12.2934 14.7772 12.2234C14.8852 12.1695 14.9932 12.1158 15.1012 12.0621C15.153 12.0364 15.2048 12.0106 15.2566 11.9848C15.3289 11.9488 15.4013 11.913 15.4737 11.8772C15.5059 11.8612 15.5059 11.8612 15.5386 11.8449C15.5584 11.8351 15.5782 11.8254 15.5986 11.8154C15.6242 11.8027 15.6242 11.8027 15.6504 11.7897C15.9569 11.6585 16.3396 11.7222 16.6132 11.8907Z" fill="#484848"/>
<path d="M13.1822 7.39589C13.2011 7.41327 13.2201 7.43064 13.2396 7.44854C13.2569 7.46395 13.2742 7.47935 13.292 7.49522C13.3647 7.56364 13.4219 7.62215 13.468 7.7117C13.513 7.79651 13.548 7.85184 13.6224 7.91333C13.7421 7.94405 13.8665 7.93743 13.9892 7.93768C14.3271 7.93964 14.6278 8.10495 14.8732 8.32856C15.006 8.46994 15.1292 8.6569 15.1734 8.84643C15.223 8.95864 15.306 8.98533 15.4132 9.03087C15.6049 9.11954 15.7626 9.21856 15.919 9.36237C15.9509 9.39103 15.9509 9.39103 15.9835 9.42026C16.1385 9.56645 16.2513 9.72443 16.3564 9.90918C16.3691 9.93079 16.3817 9.95239 16.3948 9.97465C16.5598 10.2772 16.6528 10.6564 16.6298 11.0028C16.5915 11.0813 16.5547 11.1326 16.4931 11.1942C16.4121 11.2205 16.3672 11.2246 16.2847 11.201C16.22 11.167 16.184 11.1406 16.1377 11.0848C16.123 11.031 16.123 11.031 16.1166 10.9697C16.1138 10.9471 16.1111 10.9245 16.1083 10.9012C16.1056 10.8772 16.1029 10.8532 16.1001 10.8285C16.0396 10.3757 15.8685 9.98752 15.5089 9.69046C15.3204 9.55093 15.1246 9.45908 14.9065 9.37754C14.7691 9.30559 14.7387 9.19462 14.6938 9.05309C14.6073 8.81045 14.4815 8.65817 14.2512 8.54216C14.235 8.53342 14.2188 8.52468 14.2021 8.51568C13.9954 8.42029 13.7445 8.44187 13.525 8.47894C13.4116 8.48924 13.3839 8.47297 13.2943 8.40546C13.2418 8.32931 13.2418 8.32931 13.1918 8.23971C12.9516 7.83009 12.6289 7.58627 12.1733 7.44854C11.8254 7.36468 11.5123 7.38962 11.1793 7.51306C11.0534 7.55769 10.9635 7.56106 10.8337 7.53057C10.767 7.48785 10.767 7.48785 10.7243 7.4212C10.7031 7.27307 10.7031 7.27307 10.7243 7.20248C10.9116 6.97206 11.2707 6.91357 11.5538 6.88038C12.1451 6.84504 12.7285 7.0052 13.1822 7.39589Z" fill="#484848"/>
<path d="M12.9115 3.15616C13.1645 3.33919 13.3317 3.56166 13.4036 3.86701C13.4337 4.2067 13.3985 4.50144 13.1766 4.77352C12.9391 5.03179 12.6921 5.15924 12.3425 5.18789C12.0497 5.178 11.779 5.07571 11.5648 4.87562C11.3269 4.62107 11.2296 4.35173 11.237 4.00414C11.2599 3.72359 11.3863 3.463 11.5923 3.27065C11.9588 2.97255 12.5021 2.90071 12.9115 3.15616ZM11.8777 3.69613C11.7714 3.85402 11.7122 4.00195 11.7359 4.19509C11.7967 4.4013 11.9021 4.53023 12.089 4.63436C12.2606 4.7106 12.4127 4.69003 12.5869 4.63083C12.7273 4.53618 12.875 4.39278 12.9115 4.22244C12.932 4.03518 12.9156 3.88448 12.8022 3.73031C12.6955 3.61894 12.5836 3.52168 12.4267 3.5024C12.1919 3.49936 12.0471 3.53052 11.8777 3.69613Z" fill="#484848"/>
<path d="M16.2967 6.34054C16.6351 6.57724 16.8685 6.90575 16.9579 7.31187C16.99 7.68995 16.9694 8.07131 16.7469 8.39289C16.6943 8.45285 16.6536 8.47411 16.5751 8.48751C16.4798 8.48362 16.426 8.46995 16.3462 8.41745C16.2821 8.3214 16.2799 8.24205 16.3017 8.13209C16.3234 8.08092 16.3463 8.03026 16.3701 7.98C16.4807 7.72934 16.4791 7.47358 16.382 7.21789C16.2527 6.94952 16.0813 6.8033 15.8096 6.68304C15.5831 6.60754 15.3045 6.63392 15.0876 6.72576C14.8448 6.86037 14.711 7.04248 14.5922 7.28944C14.5561 7.35862 14.5327 7.40326 14.4699 7.44857C14.3556 7.47195 14.2549 7.46798 14.1555 7.40585C14.1003 7.31619 14.0921 7.2533 14.0872 7.14783C14.1108 7.06905 14.1471 6.99954 14.1863 6.9274C14.2004 6.89946 14.2004 6.89946 14.2148 6.87095C14.3939 6.527 14.6867 6.31542 15.0492 6.1875C15.4616 6.0592 15.9272 6.1175 16.2967 6.34054Z" fill="#484848"/>
<path d="M12.5156 9.76184C12.7457 9.92819 12.9415 10.1758 12.9918 10.4612C12.9937 10.5746 12.986 10.6177 12.9115 10.7021C12.832 10.7494 12.7837 10.757 12.6911 10.7551C12.5865 10.7217 12.5603 10.6849 12.5014 10.5927C12.4828 10.5565 12.4646 10.52 12.4467 10.4834C12.3533 10.2926 12.2397 10.1724 12.0366 10.1006C11.8538 10.0747 11.6729 10.0752 11.511 10.1718C11.384 10.2717 11.2874 10.3927 11.2113 10.5346C11.1617 10.6201 11.1617 10.6201 11.1105 10.6594C10.9946 10.69 10.9185 10.6908 10.8114 10.6337C10.7479 10.5611 10.7216 10.5076 10.7156 10.4105C10.7489 10.165 10.9447 9.94549 11.1344 9.79986C11.5768 9.52845 12.0669 9.4752 12.5156 9.76184Z" fill="#484848"/>
<path d="M4.02763 15.6882C4.05999 15.6882 4.09235 15.6881 4.12568 15.688C4.19408 15.6881 4.26247 15.6884 4.33086 15.6891C4.43564 15.69 4.54036 15.6897 4.64514 15.6891C4.71157 15.6893 4.778 15.6896 4.84443 15.6899C4.87582 15.6898 4.9072 15.6897 4.93954 15.6895C4.98334 15.6902 4.98334 15.6902 5.02802 15.6908C5.05367 15.691 5.07933 15.6912 5.10576 15.6914C5.19449 15.7096 5.22744 15.7452 5.28359 15.8148C5.30365 15.8986 5.29912 15.9763 5.28359 16.0609C5.22054 16.1509 5.17 16.1772 5.06486 16.1976C5.02302 16.2001 4.98109 16.2013 4.93917 16.2015C4.91444 16.2017 4.88971 16.2019 4.86423 16.2021C4.83771 16.2021 4.8112 16.2021 4.78388 16.2021C4.75644 16.2022 4.729 16.2023 4.70074 16.2024C4.64275 16.2026 4.58477 16.2026 4.52679 16.2026C4.43817 16.2027 4.34956 16.2032 4.26094 16.2037C4.20456 16.2038 4.14819 16.2038 4.09182 16.2039C4.06536 16.2041 4.0389 16.2042 4.01164 16.2045C3.73563 16.2035 3.73563 16.2035 3.62095 16.0967C3.57431 16.0059 3.57611 15.9429 3.58848 15.8421C3.67796 15.6536 3.84487 15.6861 4.02763 15.6882Z" fill="#484848"/>
</svg>
