<svg width="20" height="20" viewBox="0 0 20 20" fill="none" xmlns="http://www.w3.org/2000/svg">
<path d="M8.50274 10.8512C9.4527 10.8223 10.2311 11.3137 11.034 11.7558C11.1758 11.8338 11.3183 11.9103 11.4609 11.9868C11.5803 12.0508 11.6995 12.1151 11.8186 12.1796C11.8662 12.2053 11.9137 12.2309 11.9614 12.2564C12.2842 12.4296 12.4787 12.5925 12.6335 12.9316C12.7068 13.183 12.6956 13.5257 12.5915 13.7659C12.4252 14.0459 12.1888 14.2323 11.8823 14.33C11.8609 14.3369 11.8395 14.3438 11.8175 14.351C11.6177 14.4131 11.4219 14.4458 11.213 14.4614C11.1794 14.4643 11.1794 14.4643 11.1451 14.4673C10.6581 14.4883 10.2027 14.313 9.75659 14.1421C9.67025 14.1094 9.58387 14.0767 9.49736 14.0444C9.44407 14.0245 9.39089 14.0043 9.33783 13.9838C9.21303 13.9368 9.10854 13.8986 8.9729 13.9151C8.90843 13.9573 8.89365 13.9897 8.86705 14.0619C8.86229 14.1618 8.8818 14.1923 8.94559 14.2702C9.03108 14.3172 9.1213 14.3487 9.21311 14.3813C9.23985 14.3911 9.26659 14.401 9.29414 14.4111C9.35089 14.432 9.40773 14.4525 9.46465 14.4729C9.55033 14.5036 9.63573 14.535 9.72111 14.5666C10.289 14.7789 10.289 14.7789 10.8852 14.8712C10.9121 14.8726 10.939 14.874 10.9667 14.8755C11.5023 14.8903 12.0824 14.7788 12.5242 14.4614C12.5501 14.443 12.5501 14.443 12.5764 14.4243C12.8753 14.1905 13.0277 13.843 13.0738 13.4756C13.0795 13.4245 13.0845 13.3734 13.0887 13.3222C13.1007 13.2052 13.1104 13.1405 13.1873 13.0488C13.3309 12.9505 13.4931 12.8791 13.6494 12.8036C13.7136 12.7722 13.7777 12.7408 13.8418 12.7093C13.8584 12.7012 13.8751 12.693 13.8923 12.6846C14.0531 12.6052 14.2116 12.5216 14.37 12.4378C14.5987 12.3169 14.8284 12.1979 15.0584 12.0796C15.1054 12.0554 15.1525 12.0311 15.1994 12.0068C15.2688 11.9709 15.3382 11.9352 15.4077 11.8995C15.4389 11.8833 15.4389 11.8833 15.4708 11.8667C15.753 11.7223 16.0359 11.6845 16.3482 11.7455C16.5938 11.831 16.7932 12.0272 16.9241 12.2481C17.0333 12.4834 17.0425 12.7625 16.9856 13.015C16.8441 13.3939 16.5097 13.6344 16.2053 13.8801C16.128 13.9442 16.0539 14.0109 15.9799 14.079C15.8585 14.1908 15.7328 14.2954 15.6043 14.3991C15.527 14.4633 15.4529 14.53 15.379 14.598C15.2568 14.7104 15.1306 14.8158 15.0015 14.92C14.9297 14.9793 14.8605 15.0406 14.7916 15.1034C14.6988 15.188 14.6042 15.2687 14.5065 15.3475C14.3761 15.453 14.2525 15.5644 14.1292 15.6779C14.0318 15.7653 13.9303 15.8469 13.8284 15.929C13.7521 15.9924 13.6794 16.0586 13.6067 16.1261C12.867 16.8029 12.0742 17.045 11.0764 17.002C10.8249 16.982 10.576 16.9431 10.3267 16.905C10.2569 16.8947 10.187 16.8845 10.1172 16.8743C9.97024 16.8529 9.82336 16.831 9.67652 16.8089C9.46535 16.7772 9.25405 16.7463 9.04272 16.7157C8.40503 16.6231 7.76743 16.5302 7.13204 16.4228C6.94617 16.3914 6.76016 16.3609 6.57405 16.331C6.54512 16.3263 6.54512 16.3263 6.5156 16.3215C5.67083 16.1861 4.82519 16.1785 3.97108 16.184C3.93326 16.1842 3.93326 16.1842 3.89468 16.1844C3.77594 16.185 3.65725 16.1861 3.53854 16.1882C3.49652 16.1887 3.45451 16.1891 3.4125 16.1895C3.39372 16.19 3.37495 16.1905 3.3556 16.191C3.2375 16.1917 3.1669 16.171 3.07224 16.1005C3.00119 16.0294 3.01058 16.0002 3.01011 15.9012C3.0097 15.8552 3.0097 15.8552 3.00929 15.8083C3.00927 15.7745 3.00925 15.7406 3.00923 15.7058C3.009 15.6703 3.00878 15.6348 3.00854 15.5982C3.00794 15.5007 3.0077 15.4032 3.00756 15.3056C3.00746 15.2447 3.00729 15.1838 3.0071 15.1229C3.00643 14.9103 3.00607 14.6978 3.00598 14.4853C3.00588 14.2871 3.00506 14.089 3.00392 13.8909C3.00297 13.7208 3.00255 13.5508 3.00253 13.3807C3.00251 13.2791 3.00227 13.1775 3.00149 13.076C3.00064 12.9626 3.00089 12.8493 3.00123 12.7359C3.00082 12.7023 3.00042 12.6686 3 12.634C3.00193 12.4102 3.00193 12.4102 3.07391 12.2958C3.17306 12.2376 3.25077 12.2317 3.36242 12.2363C3.39324 12.2367 3.39324 12.2367 3.42469 12.2372C3.46926 12.2378 3.51383 12.2388 3.55839 12.24C3.62962 12.2419 3.7008 12.2427 3.77205 12.2431C3.9746 12.2446 4.1771 12.2473 4.3796 12.2523C4.97748 12.2664 5.44908 12.2743 5.95414 11.9134C6.07622 11.8292 6.20698 11.7601 6.33673 11.6887C6.38852 11.6594 6.44027 11.63 6.49199 11.6006C7.74336 10.8937 7.74336 10.8937 8.50274 10.8512Z" fill="#484848"/>
<path d="M13.2618 7.46807C13.4819 7.69259 13.4819 7.69259 13.5549 7.83035C13.6124 7.91617 13.6124 7.91617 13.7227 7.92329C13.7643 7.92356 13.8059 7.92317 13.8475 7.92223C14.2289 7.9292 14.5458 8.03377 14.8319 8.29454C15.0047 8.47426 15.1226 8.67949 15.2014 8.91592C15.2789 8.95986 15.2789 8.95986 15.3739 9.00129C15.8254 9.21547 16.125 9.53236 16.3761 9.954C16.388 9.97372 16.3998 9.99344 16.412 10.0138C16.5676 10.2968 16.6243 10.6355 16.6305 10.9545C16.6315 10.9892 16.6325 11.024 16.6336 11.0597C16.6201 11.1712 16.5912 11.2141 16.5127 11.2926C16.4384 11.3297 16.3759 11.3162 16.2951 11.3098C15.8044 11.2707 15.4454 11.4087 15.0173 11.6365C14.8354 11.7328 14.6529 11.8281 14.4696 11.9218C14.4475 11.9332 14.4254 11.9445 14.4026 11.9561C14.3128 12.002 14.2231 12.0479 14.1333 12.0937C14.0884 12.1166 14.0435 12.1396 13.9985 12.1626C13.9543 12.1852 13.9101 12.2077 13.8658 12.2302C13.7572 12.2856 13.6499 12.3423 13.5438 12.4024C13.5129 12.4195 13.5129 12.4195 13.4815 12.4371C13.4431 12.4586 13.4049 12.4805 13.367 12.5029C13.2332 12.5773 13.1139 12.6025 12.9613 12.5765C12.9015 12.5399 12.9015 12.5399 12.8602 12.4886C12.8441 12.4699 12.828 12.4511 12.8114 12.4318C12.7955 12.412 12.7797 12.3921 12.7633 12.3716C12.5094 12.0593 12.1576 11.8959 11.8071 11.713C11.7044 11.6594 11.602 11.6054 11.4995 11.5515C11.4794 11.5409 11.4592 11.5302 11.4384 11.5193C11.2737 11.4326 11.1099 11.3444 10.9467 11.255C10.9232 11.2422 10.8998 11.2295 10.8757 11.2163C10.7546 11.1501 10.634 11.0831 10.5138 11.0152C9.98363 10.7177 9.4272 10.4682 8.80902 10.4457C8.77758 10.4443 8.74613 10.4429 8.71373 10.4415C8.01064 10.4248 7.3343 10.6275 6.74247 11.0047C6.62604 11.0581 6.55937 11.0585 6.43237 11.0467C6.35041 10.9921 6.35041 10.9921 6.29578 10.9101C6.24165 10.5177 6.4808 10.0686 6.70555 9.76277C6.93166 9.48061 7.1862 9.28572 7.5063 9.12251C7.5246 9.11315 7.5429 9.1038 7.56175 9.09416C7.66778 9.04228 7.76142 9.01095 7.88022 8.99787C7.87879 8.9553 7.87879 8.9553 7.87733 8.91186C7.86741 8.49459 7.95706 8.15659 8.25242 7.84369C8.59553 7.52013 8.96079 7.41773 9.42069 7.43104C9.66702 7.44499 9.87863 7.54388 10.093 7.65929C10.1131 7.63785 10.1333 7.6164 10.1541 7.59431C10.3285 7.41235 10.4989 7.26298 10.7213 7.14025C10.7428 7.12772 10.7642 7.11518 10.7864 7.10226C11.5804 6.66725 12.6188 6.85246 13.2618 7.46807ZM10.9565 10.0081C10.8536 10.1372 10.7431 10.2809 10.7544 10.4508C10.7712 10.5318 10.7712 10.5318 10.834 10.5943C10.9115 10.6431 10.9115 10.6431 11.0064 10.6455C11.1504 10.5924 11.1911 10.4911 11.2676 10.3638C11.3758 10.2073 11.4902 10.1103 11.6774 10.0633C11.9398 10.0321 12.1171 10.0673 12.3228 10.2289C12.3839 10.3045 12.4247 10.3753 12.4696 10.4611C12.5502 10.6164 12.5502 10.6164 12.6882 10.7189C12.7754 10.7172 12.8285 10.707 12.9016 10.6591C12.9514 10.5832 12.9597 10.5377 12.9613 10.4457C12.8942 10.1718 12.7079 9.92913 12.476 9.77142C11.9421 9.45684 11.3788 9.56264 10.9565 10.0081Z" fill="#484848"/>
<path d="M16.3121 6.35662C16.628 6.58392 16.8391 6.8761 16.9383 7.25566C17.0099 7.73067 16.9172 8.13977 16.6392 8.53138C16.5199 8.68332 16.3572 8.80234 16.1848 8.88854C16.0271 8.90313 15.9441 8.87208 15.8126 8.7861C15.7681 8.75758 15.7681 8.75758 15.7228 8.72848C15.5904 8.63662 15.4985 8.57229 15.4302 8.42414C15.2023 7.99029 14.8158 7.72269 14.3561 7.57921C14.2471 7.54105 14.1631 7.49512 14.0813 7.41338C14.0513 7.14688 14.1506 6.91958 14.3101 6.70823C14.3426 6.6696 14.3756 6.63144 14.4092 6.59384C14.4241 6.57673 14.439 6.55961 14.4543 6.54198C14.9277 6.03184 15.7433 5.98695 16.3121 6.35662Z" fill="#484848"/>
<path d="M12.9681 3.19961C13.1828 3.37516 13.3458 3.5844 13.3984 3.86207C13.4212 4.19738 13.3959 4.48864 13.1798 4.76356C12.9597 5.00815 12.7176 5.15111 12.3881 5.1777C12.1053 5.18923 11.8468 5.09841 11.6227 4.92747C11.3978 4.71769 11.2586 4.47706 11.2342 4.16747C11.2247 3.84376 11.3158 3.55859 11.5358 3.3155C11.9278 2.94958 12.5241 2.89006 12.9681 3.19961Z" fill="#484848"/>
</svg>
