<svg width="20" height="20" viewBox="0 0 20 20" fill="none" xmlns="http://www.w3.org/2000/svg">
<path d="M11.8741 3.76932C12.1827 3.74957 12.516 3.86315 12.6049 4.18908L12.6148 6.19155C13.2815 6.16192 13.8815 6.56933 13.9951 7.2434L14 18.5002C13.9531 19.1669 13.4296 19.6409 12.7753 19.6953H7.19506C6.58765 19.6434 6.0716 19.1866 6 18.5718V7.33723C6.04938 6.62365 6.66667 6.16933 7.35802 6.19155V4.23105C7.42963 3.89525 7.75309 3.74957 8.07407 3.77179V1.33969C8.09383 1.15698 8.19506 1.04834 8.38025 1.03105C9.39506 0.932287 10.563 1.1076 11.5926 1.03105C11.7605 1.03352 11.8864 1.20883 11.9012 1.36439C11.8864 2.12982 11.921 2.89772 11.9012 3.66315C11.9012 3.70513 11.8938 3.73476 11.8741 3.77179V3.76932ZM11.3309 1.59649H8.61481C8.60741 1.61377 8.63951 1.62611 8.63951 1.63352V3.73229C8.63951 3.7397 8.60741 3.75204 8.61481 3.76932H11.3309V1.59649ZM12.0716 4.33723H7.92346L7.9037 6.17179L7.9358 6.21377H12.0346L12.0716 6.17673V4.33723ZM13.4296 8.36192V7.21377C13.4296 7.03846 13.0321 6.7471 12.8494 6.75698H7.12346C6.99506 6.78167 6.89383 6.81624 6.79012 6.89525C6.57778 7.05328 6.55556 7.20636 6.54074 7.46068C6.52593 7.715 6.55556 8.06809 6.54074 8.36192H13.4296ZM13.4543 8.92982H6.60247C6.59506 8.92982 6.58272 8.89772 6.56543 8.90513V18.6212C6.56543 18.6409 6.65679 18.8236 6.67901 18.8533C6.81481 19.0459 7.09136 19.1348 7.31852 19.152C8.88642 19.2706 10.6 19.0607 12.1852 19.152C12.7802 19.115 13.4 19.1965 13.4568 18.4236C13.4864 18.036 13.4593 17.5595 13.4568 17.1619C13.437 14.4755 13.363 11.7249 13.4296 9.03846C13.4296 8.99649 13.437 8.96686 13.4568 8.92982H13.4543Z" fill="#484848"/>
<path d="M9.89137 2.1718C10.3975 2.0681 10.5161 2.82366 10.0519 2.9002C9.58766 2.97674 9.44445 2.26069 9.89137 2.1718Z" fill="#484848"/>
</svg>
