<svg width="20" height="20" viewBox="0 0 20 20" fill="none" xmlns="http://www.w3.org/2000/svg">
<path d="M13.9975 8.71417V18.416C13.9975 18.9284 13.4998 19.3704 12.9946 19.3995H7.05167C6.39299 19.3242 6.07355 18.9211 6.02651 18.2921C5.96708 17.5004 6.02651 16.6237 6.02403 15.8175C6.01908 13.593 6.0166 11.3442 6.02403 9.1173C6.02403 8.98373 6.02403 8.85017 6.02403 8.7166H13.9975V8.71417Z" fill="#484848"/>
<path d="M13.9973 8.34988H6.02381C6.07829 8.23817 6.02381 8.15074 6.02381 8.04632C5.99905 7.27649 5.90991 6.24196 6.9326 6.1181H13.1182C13.5268 6.12053 13.9998 6.5528 13.9998 6.9535V8.34988H13.9973Z" fill="#484848"/>
<path d="M12.5118 5.75146H7.50977V4.13652C7.50977 3.9641 7.71034 3.76982 7.89358 3.77225C9.14656 3.78196 10.4045 3.79896 11.6599 3.78439C11.8952 3.78196 12.1428 3.69453 12.3632 3.8451C12.5836 3.99567 12.5142 4.00295 12.5142 4.03695V5.74903L12.5118 5.75146Z" fill="#484848"/>
<path d="M11.5956 3.42004H8.40121V1.24655C8.40121 1.19313 8.51265 1.04013 8.58941 1.04256C9.15152 1.03527 9.71115 1.04742 10.2733 1.04256C10.6199 1.04013 11.0335 0.96242 11.3801 1.02313C11.7268 1.08384 11.5956 1.14213 11.5956 1.2247V3.42247V3.42004ZM9.87953 1.77596C9.33971 1.88524 9.50067 2.73278 10.09 2.63807C10.6571 2.54822 10.5432 1.6424 9.87953 1.77596Z" fill="#484848"/>
</svg>
