<svg width="20" height="20" viewBox="0 0 20 20" fill="none" xmlns="http://www.w3.org/2000/svg">
<path d="M15.3567 8.79614V14.5593C15.3567 14.9414 15.2072 15.3079 14.9409 15.5781C14.6747 15.8483 14.3136 16.0001 13.9371 16.0001H6.83915C6.46265 16.0001 6.10157 15.8483 5.83535 15.5781C5.56912 15.3079 5.41956 14.9414 5.41956 14.5593V8.79614" fill="#484848"/>
<path d="M15.3567 8.79614V14.5593C15.3567 14.9414 15.2072 15.3079 14.9409 15.5781C14.6747 15.8483 14.3136 16.0001 13.9371 16.0001H6.83915C6.46265 16.0001 6.10157 15.8483 5.83535 15.5781C5.56912 15.3079 5.41956 14.9414 5.41956 14.5593V8.79614" stroke="#484848" stroke-linecap="round" stroke-linejoin="round"/>
<path d="M16.6344 5.93616H4.14196C4.06356 5.93616 4 6.00066 4 6.08024V8.67365C4 8.75322 4.06356 8.81772 4.14196 8.81772H16.6344C16.7128 8.81772 16.7764 8.75322 16.7764 8.67365V6.08024C16.7764 6.00066 16.7128 5.93616 16.6344 5.93616Z" fill="#484848" stroke="#484848" stroke-linecap="round" stroke-linejoin="round"/>
<path d="M4.92984 5.91459V5.71288C4.88822 5.29346 4.97129 4.871 5.16835 4.49992C5.36542 4.12885 5.66744 3.82616 6.03551 3.63085C6.40359 3.43554 6.82085 3.35656 7.23354 3.40408C7.64624 3.45161 8.03546 3.62346 8.35107 3.8975L10.6082 5.91459" stroke="#484848" stroke-linecap="round" stroke-linejoin="round"/>
<path d="M15.7756 5.91452L15.8679 5.36702C15.9191 4.9418 15.8417 4.51082 15.6458 4.13134C15.45 3.75186 15.145 3.44185 14.7714 3.24249C14.3978 3.04313 13.9733 2.96387 13.5542 3.01523C13.1352 3.06658 12.7415 3.24613 12.4254 3.53002L10.1966 5.56152" stroke="#484848" stroke-linecap="round" stroke-linejoin="round"/>
</svg>
