<svg width="20" height="20" viewBox="0 0 20 20" fill="none" xmlns="http://www.w3.org/2000/svg">
<path d="M12.0495 2.01377C12.2029 2.08499 12.2696 2.17669 12.3554 2.31966C12.3917 2.42355 12.3917 2.42355 12.4216 2.53858C12.4272 2.55971 12.4328 2.58083 12.4385 2.60259C12.4505 2.64822 12.4624 2.69388 12.4742 2.73958C12.4929 2.81259 12.5121 2.88546 12.5314 2.95832C12.5794 3.13963 12.6267 3.32113 12.6739 3.50265C13.0029 4.78526 13.0029 4.78526 13.7013 5.89865C13.7172 5.91892 13.733 5.93919 13.7493 5.96007C14.0167 6.29116 14.3946 6.53602 14.772 6.72457C14.7947 6.73596 14.8175 6.74735 14.8409 6.75908C15.1015 6.88352 15.3735 6.97008 15.6476 7.05914C15.8117 7.11281 15.9756 7.16679 16.1394 7.2213C16.1869 7.23704 16.2344 7.25264 16.282 7.26813C16.3526 7.29115 16.423 7.31471 16.4934 7.33839C16.525 7.34853 16.525 7.34853 16.5573 7.35886C16.7208 7.41479 16.8561 7.49355 16.9523 7.64094C17.0084 7.79845 17.014 7.90688 16.9744 8.07051C16.8554 8.29985 16.6807 8.37971 16.4458 8.45474C16.4033 8.46784 16.4033 8.46784 16.36 8.4812C16.3302 8.49071 16.3004 8.50021 16.2697 8.51C16.1746 8.54031 16.0793 8.57024 15.9841 8.6001C15.2892 8.81803 14.6435 9.04696 14.0684 9.50823C14.0297 9.53875 14.0297 9.53875 13.9902 9.56988C13.5764 9.91677 13.2486 10.4223 13.0612 10.9258C13.0534 10.9469 13.0455 10.968 13.0374 10.9897C12.9579 11.2083 12.8966 11.4309 12.8382 11.656C12.8192 11.7294 12.7997 11.8027 12.7803 11.876C12.725 12.084 12.6704 12.2921 12.6159 12.5002C12.5823 12.6286 12.5483 12.7569 12.5141 12.8851C12.4951 12.957 12.4765 13.0289 12.4578 13.1009C12.4461 13.1451 12.4343 13.1893 12.4225 13.2334C12.4075 13.2909 12.4075 13.2909 12.3921 13.3496C12.3406 13.4965 12.2691 13.6035 12.1566 13.7105C11.9986 13.7838 11.8537 13.7832 11.6824 13.7602C11.529 13.689 11.4623 13.5973 11.3765 13.4543C11.3402 13.3504 11.3402 13.3504 11.3104 13.2354C11.3048 13.2142 11.2992 13.1931 11.2934 13.1714C11.2814 13.1257 11.2695 13.0801 11.2578 13.0344C11.239 12.9614 11.2198 12.8885 11.2005 12.8156C11.1525 12.6343 11.1052 12.4528 11.058 12.2713C10.729 10.9887 10.729 10.9887 10.0306 9.8753C10.0148 9.85503 9.99896 9.83477 9.98267 9.81388C9.46237 9.1697 8.66217 8.89262 7.9027 8.64885C7.87734 8.6407 7.85199 8.63255 7.82586 8.62415C7.69898 8.58345 7.57198 8.54321 7.44473 8.50369C7.39752 8.48879 7.35031 8.47388 7.30309 8.45898C7.27087 8.44919 7.27087 8.44919 7.238 8.43921C7.02003 8.36983 6.86445 8.27649 6.7575 8.07051C6.71791 7.90688 6.72357 7.79845 6.7796 7.64094C6.88859 7.47396 7.04778 7.39949 7.23176 7.34042C7.25353 7.33308 7.2753 7.32573 7.29773 7.31816C7.34406 7.30258 7.39046 7.28719 7.43692 7.27198C7.50975 7.24812 7.58238 7.22376 7.65499 7.19926C7.858 7.13101 8.06138 7.06417 8.26583 7.00035C8.78173 6.83838 9.24591 6.6132 9.66351 6.26572C9.68713 6.24707 9.71075 6.22842 9.73509 6.20921C10.1475 5.86781 10.4653 5.37422 10.6564 4.87769C10.6656 4.85385 10.6748 4.83001 10.6843 4.80545C10.7701 4.57786 10.8362 4.34683 10.8969 4.11147C10.9158 4.03831 10.9351 3.96526 10.9545 3.89223C11.0025 3.71144 11.0498 3.53048 11.097 3.3495C11.1374 3.19508 11.178 3.04073 11.219 2.88648C11.2379 2.81488 11.2564 2.74318 11.2749 2.67146C11.2865 2.62749 11.2982 2.58352 11.3099 2.53956C11.3248 2.48234 11.3248 2.48234 11.34 2.42396C11.3914 2.27716 11.4629 2.17028 11.5754 2.06347C11.7334 1.99012 11.8782 1.99071 12.0495 2.01377ZM11.8354 4.52212C11.825 4.55989 11.8146 4.59767 11.8038 4.63659C11.464 5.83755 10.7778 6.84318 9.6941 7.48931C9.43865 7.63173 9.17355 7.75599 8.89877 7.85639C8.89877 7.87657 8.89877 7.89676 8.89877 7.91756C8.93134 7.93018 8.96391 7.9428 8.99747 7.9558C10.1364 8.40543 11.0158 9.22137 11.5295 10.3341C11.6584 10.6313 11.7523 10.9391 11.8354 11.2518C11.8556 11.2518 11.8758 11.2518 11.8966 11.2518C11.907 11.2141 11.9174 11.1763 11.9281 11.1374C12.1235 10.4469 12.4116 9.8158 12.8754 9.26351C12.8893 9.24699 12.9032 9.23046 12.9175 9.21344C13.4218 8.62219 14.0946 8.16376 14.8332 7.91756C14.8332 7.89738 14.8332 7.87719 14.8332 7.85639C14.8006 7.84377 14.768 7.83115 14.7345 7.81815C13.5895 7.36613 12.6971 6.54411 12.1978 5.41249C12.0735 5.12195 11.9778 4.82729 11.8966 4.52212C11.8764 4.52212 11.8562 4.52212 11.8354 4.52212Z" fill="#484848"/>
<path d="M6.76515 9.86573C6.96177 10.0311 7.00782 10.2204 7.06865 10.462C7.08665 10.5303 7.10465 10.5985 7.12266 10.6668C7.15035 10.7734 7.17787 10.88 7.20517 10.9867C7.34973 11.5487 7.48888 12.063 7.91991 12.4754C7.94088 12.497 7.96186 12.5185 7.98347 12.5408C8.32648 12.8742 8.80204 13.0027 9.24636 13.1447C9.3167 13.1673 9.38687 13.1905 9.45703 13.2136C9.47816 13.2202 9.49929 13.2268 9.52106 13.2335C9.68566 13.2881 9.82016 13.3662 9.91671 13.5141C9.97275 13.6716 9.97841 13.7801 9.93882 13.9437C9.81465 14.1829 9.61511 14.2645 9.37148 14.3421C9.32049 14.359 9.26951 14.3759 9.21853 14.3928C9.13911 14.4187 9.05964 14.4445 8.98015 14.4702C8.53515 14.6149 8.19763 14.7741 7.85873 15.1061C7.83952 15.1242 7.82032 15.1423 7.80053 15.161C7.41863 15.5533 7.30878 16.1287 7.17811 16.6394C7.15071 16.7456 7.12315 16.8517 7.09517 16.9577C7.07793 17.0231 7.06103 17.0886 7.04451 17.1542C6.99302 17.3505 6.93713 17.4917 6.7955 17.6403C6.69464 17.6923 6.5969 17.6913 6.48602 17.6909C6.46476 17.6918 6.44351 17.6927 6.42161 17.6936C6.28773 17.6941 6.19099 17.6712 6.0935 17.576C5.87284 17.2789 5.8229 16.7874 5.73308 16.4338C5.59873 15.9068 5.44743 15.4305 5.04448 15.0449C5.0235 15.0234 5.00252 15.0018 4.98091 14.9796C4.63791 14.6461 4.16235 14.5177 3.71803 14.3756C3.64768 14.353 3.57752 14.3299 3.50735 14.3067C3.48622 14.3002 3.46509 14.2936 3.44333 14.2868C3.27872 14.2322 3.14422 14.1541 3.04767 14.0062C2.99163 13.8487 2.98598 13.7403 3.02556 13.5766C3.14974 13.3375 3.34928 13.2559 3.59291 13.1783C3.64389 13.1614 3.69487 13.1445 3.74585 13.1276C3.82528 13.1016 3.90474 13.0758 3.98424 13.0501C4.42923 12.9055 4.76675 12.7463 5.10566 12.4142C5.12486 12.3961 5.14407 12.378 5.16385 12.3594C5.54576 11.9671 5.65561 11.3916 5.78628 10.8809C5.81368 10.7748 5.84124 10.6686 5.86921 10.5626C5.88645 10.4972 5.90336 10.4317 5.91988 10.3661C5.9756 10.1537 6.02803 10.0036 6.20689 9.86573C6.3979 9.75828 6.57059 9.76471 6.76515 9.86573ZM6.4516 12.2001C6.43457 12.2341 6.41753 12.2681 6.39998 12.3031C6.26555 12.5669 6.12842 12.8028 5.93158 13.026C5.91805 13.0439 5.90453 13.0617 5.89059 13.0802C5.67972 13.3538 5.35352 13.5816 5.04448 13.7296C5.04448 13.7498 5.04448 13.77 5.04448 13.7908C5.10062 13.8271 5.15833 13.8611 5.21655 13.894C5.80435 14.2428 6.15212 14.7162 6.4516 15.3202C6.47179 15.3202 6.49198 15.3202 6.51278 15.3202C6.52982 15.2863 6.54685 15.2523 6.5644 15.2172C6.69878 14.9536 6.83552 14.717 7.03281 14.4943C7.04893 14.4739 7.06506 14.4534 7.08168 14.4323C7.30147 14.1596 7.60708 13.9443 7.91991 13.7908C7.91991 13.7706 7.91991 13.7504 7.91991 13.7296C7.86317 13.6925 7.80482 13.658 7.74593 13.6244C7.16166 13.2764 6.80891 12.804 6.51278 12.2001C6.49259 12.2001 6.4724 12.2001 6.4516 12.2001Z" fill="#484848"/>
<path d="M16.0185 14.7295C16.0575 14.7286 16.0966 14.7277 16.1368 14.7268C16.4932 14.7244 16.4932 14.7244 16.638 14.8614C16.7489 14.9782 16.7698 15.0719 16.7756 15.2285C16.7682 15.428 16.7137 15.5248 16.5684 15.6606C16.41 15.7633 16.2073 15.7354 16.0262 15.7332C15.9877 15.7337 15.9492 15.7341 15.9095 15.7346C15.56 15.7332 15.56 15.7332 15.4144 15.5955C15.3082 15.4665 15.2643 15.3655 15.2614 15.1979C15.2882 15.0483 15.3291 14.9307 15.4469 14.8308C15.6294 14.7065 15.8019 14.7311 16.0185 14.7295Z" fill="#484848"/>
<path d="M13.579 14.7238C13.6175 14.7233 13.656 14.7228 13.6956 14.7223C14.0454 14.7238 14.0454 14.7238 14.1908 14.8614C14.2868 14.9808 14.3376 15.0746 14.3437 15.2285C14.323 15.4131 14.2602 15.5262 14.1296 15.6568C13.9687 15.7607 13.7671 15.7292 13.5828 15.7294C13.5441 15.7302 13.5053 15.7309 13.4654 15.7317C13.113 15.7328 13.113 15.7328 12.9672 15.5956C12.8562 15.4788 12.8354 15.385 12.8295 15.2285C12.837 15.029 12.8915 14.9322 13.0367 14.7964C13.1952 14.6937 13.3978 14.7216 13.579 14.7238Z" fill="#484848"/>
<path d="M14.9861 15.7179C15.1279 15.7837 15.2341 15.8767 15.292 16.0238C15.3103 16.1667 15.3091 16.3081 15.3073 16.452C15.3078 16.4905 15.3082 16.529 15.3087 16.5686C15.3073 16.9166 15.3073 16.9166 15.1697 17.0638C15.0528 17.1748 14.9591 17.1957 14.8026 17.2015C14.6031 17.1941 14.5063 17.1395 14.3705 16.9943C14.2677 16.8358 14.2956 16.6332 14.2978 16.452C14.2974 16.4135 14.2969 16.3751 14.2964 16.3354C14.2979 15.9875 14.2979 15.9875 14.4355 15.8402C14.5967 15.687 14.7753 15.6895 14.9861 15.7179Z" fill="#484848"/>
<path d="M14.9861 13.2707C15.1279 13.3366 15.2341 13.4295 15.292 13.5766C15.3103 13.7196 15.3091 13.8609 15.3073 14.0049C15.3078 14.0434 15.3082 14.0819 15.3087 14.1215C15.3073 14.4694 15.3073 14.4694 15.1697 14.6167C15.0528 14.7277 14.9591 14.7485 14.8026 14.7543C14.6031 14.7469 14.5063 14.6924 14.3705 14.5471C14.2677 14.3887 14.2956 14.186 14.2978 14.0049C14.2974 13.9664 14.2969 13.9279 14.2964 13.8883C14.2979 13.5403 14.2979 13.5403 14.4355 13.3931C14.5967 13.2399 14.7753 13.2423 14.9861 13.2707Z" fill="#484848"/>
<path d="M5.19743 5.92924C5.3392 5.99506 5.4454 6.08805 5.50333 6.23513C5.52158 6.37809 5.52039 6.51946 5.51862 6.66339C5.5191 6.70187 5.51957 6.74036 5.52006 6.78001C5.51858 7.12796 5.51858 7.12796 5.38097 7.27518C5.26414 7.38617 5.17043 7.40702 5.01389 7.41283C4.81439 7.40543 4.7176 7.35091 4.58181 7.20564C4.47906 7.04721 4.50694 6.84455 4.50916 6.66339C4.50869 6.6249 4.50822 6.58642 4.50773 6.54677C4.5092 6.19882 4.5092 6.19882 4.64682 6.0516C4.80807 5.89841 4.98661 5.90086 5.19743 5.92924Z" fill="#484848"/>
<path d="M6.23748 4.93502C6.27596 4.93455 6.31445 4.93408 6.3541 4.93359C6.70204 4.93506 6.70204 4.93506 6.84927 5.07268C6.96026 5.18951 6.98111 5.28322 6.98692 5.43975C6.97951 5.63925 6.925 5.73604 6.77972 5.87183C6.62129 5.97458 6.41864 5.94671 6.23748 5.94448C6.19899 5.94495 6.1605 5.94543 6.12085 5.94591C5.77291 5.94444 5.77291 5.94444 5.62568 5.80683C5.51469 5.69 5.49384 5.59628 5.48803 5.43975C5.49544 5.24025 5.54996 5.14346 5.69523 5.00767C5.85366 4.90492 6.05631 4.93279 6.23748 4.93502Z" fill="#484848"/>
<path d="M3.7903 4.93502C3.82879 4.93455 3.86727 4.93408 3.90692 4.93359C4.25487 4.93506 4.25487 4.93506 4.40209 5.07268C4.51308 5.18951 4.53394 5.28322 4.53975 5.43975C4.53234 5.63925 4.47782 5.73604 4.33255 5.87183C4.17412 5.97458 3.97147 5.94671 3.7903 5.94448C3.75182 5.94495 3.71333 5.94543 3.67368 5.94591C3.32573 5.94444 3.32573 5.94444 3.17851 5.80683C3.06752 5.69 3.04667 5.59628 3.04086 5.43975C3.04826 5.24025 3.10278 5.14346 3.24805 5.00767C3.40648 4.90492 3.60914 4.93279 3.7903 4.93502Z" fill="#484848"/>
<path d="M5.19743 3.48203C5.3392 3.54786 5.4454 3.64084 5.50333 3.78793C5.52158 3.93089 5.52039 4.07225 5.51862 4.21618C5.5191 4.25467 5.51957 4.29316 5.52006 4.33281C5.51858 4.68075 5.51858 4.68075 5.38097 4.82798C5.26414 4.93897 5.17043 4.95982 5.01389 4.96563C4.81439 4.95822 4.7176 4.9037 4.58181 4.75843C4.47906 4.6 4.50694 4.39735 4.50916 4.21618C4.50869 4.1777 4.50822 4.13921 4.50773 4.09956C4.5092 3.75162 4.5092 3.75162 4.64682 3.60439C4.80807 3.45121 4.98661 3.45365 5.19743 3.48203Z" fill="#484848"/>
</svg>
