<svg width="20" height="20" viewBox="0 0 20 20" fill="none" xmlns="http://www.w3.org/2000/svg">
<path d="M11.9599 3C11.9792 3 11.9985 3 12.0184 3C12.0234 3.01834 12.0283 3.03667 12.0335 3.05556C12.1469 3.47319 12.2606 3.89073 12.3749 4.30811C12.4568 4.6072 12.4568 4.6072 12.4971 4.75636C12.6973 5.4967 12.943 6.1574 13.4516 6.74398C13.4723 6.76823 13.493 6.79247 13.5144 6.81745C14.092 7.47809 14.819 7.82998 15.6399 8.09862C15.7009 8.11893 15.7619 8.13929 15.8229 8.15969C16.1297 8.26216 16.1297 8.26216 16.4376 8.36145C16.4694 8.37165 16.5013 8.38186 16.5342 8.39237C16.5603 8.40052 16.5864 8.40867 16.6133 8.41707C16.6691 8.44047 16.6691 8.44047 16.6984 8.49897C16.6485 8.51597 16.6485 8.51597 16.5976 8.53332C16.4711 8.57641 16.3446 8.61954 16.2181 8.66268C16.164 8.68115 16.1098 8.69962 16.0556 8.71807C15.8966 8.77223 15.7377 8.82659 15.5789 8.88114C15.499 8.9085 15.4191 8.93563 15.3391 8.96274C14.9714 9.088 14.9714 9.088 14.6216 9.25581C14.5988 9.26814 14.5761 9.28047 14.5526 9.29317C14.2407 9.46596 13.9735 9.68773 13.7149 9.93222C13.6908 9.95439 13.6668 9.97656 13.642 9.9994C13.1476 10.4707 12.8252 11.0955 12.629 11.7432C12.6202 11.7719 12.6115 11.8007 12.6025 11.8303C12.4837 12.2267 12.3779 12.6267 12.2711 13.0264C12.2425 13.1331 12.2138 13.2398 12.1851 13.3465C12.1294 13.5539 12.0739 13.7613 12.0184 13.9687C11.9991 13.9687 11.9798 13.9687 11.9599 13.9687C11.9496 13.9293 11.9496 13.9293 11.9391 13.8892C11.8735 13.6392 11.8077 13.3893 11.7417 13.1394C11.7077 13.011 11.6739 12.8826 11.6403 12.7542C11.3091 11.4734 11.3091 11.4734 10.6436 10.3417C10.6301 10.3244 10.6165 10.3072 10.6025 10.2894C9.93365 9.4501 9.0467 9.08615 8.05197 8.76466C7.86925 8.70551 7.68765 8.64347 7.50659 8.57941C7.48276 8.571 7.45894 8.56259 7.43439 8.55392C7.38287 8.53568 7.33138 8.51734 7.2799 8.49897C7.30915 8.44047 7.30915 8.44047 7.36393 8.41705C7.39991 8.4057 7.39991 8.4057 7.43661 8.39412C7.47739 8.38106 7.47739 8.38106 7.51898 8.36774C7.54872 8.35845 7.57845 8.34916 7.60908 8.33959C7.65507 8.32486 7.65507 8.32486 7.70199 8.30983C7.83334 8.26777 7.96484 8.2262 8.09635 8.18466C8.94965 7.91436 9.66528 7.59479 10.3219 6.97798C10.3391 6.96264 10.3564 6.94729 10.3741 6.93148C11.035 6.31745 11.313 5.42379 11.5358 4.58132C11.5542 4.51251 11.5727 4.44371 11.5912 4.37491C11.6278 4.23868 11.6642 4.10239 11.7004 3.96606C11.7569 3.75357 11.814 3.54124 11.8712 3.32895C11.8846 3.2793 11.8846 3.2793 11.8982 3.22864C11.9188 3.15243 11.9393 3.07621 11.9599 3Z" fill="#484848"/>
<path d="M6.49016 10.9267C6.54866 10.9559 6.54866 10.9559 6.56986 11.0129C6.57639 11.038 6.58292 11.063 6.58964 11.0888C6.60094 11.1313 6.60094 11.1313 6.61247 11.1747C6.62048 11.2057 6.62849 11.2367 6.63675 11.2687C6.65428 11.3344 6.67182 11.4002 6.68937 11.4659C6.7167 11.5695 6.74391 11.673 6.77097 11.7766C6.99854 12.6451 7.30095 13.3942 8.10484 13.8789C8.40331 14.0437 8.70967 14.1552 9.03307 14.2612C9.08463 14.2784 9.13618 14.2957 9.18772 14.3129C9.31214 14.3546 9.43672 14.3958 9.56139 14.4367C9.4788 14.5193 9.37936 14.5401 9.2705 14.5748C9.22216 14.5907 9.17383 14.6067 9.1255 14.6226C9.04986 14.6474 8.97418 14.672 8.89837 14.6963C8.38135 14.8625 7.95506 15.0688 7.5724 15.4604C7.54903 15.4832 7.52565 15.506 7.50156 15.5294C7.36836 15.6663 7.2655 15.8132 7.17022 15.9778C7.1599 15.9953 7.14958 16.0128 7.13895 16.0308C6.91867 16.4302 6.82981 16.9079 6.71502 17.3452C6.69879 17.4066 6.68254 17.468 6.66629 17.5295C6.62693 17.6782 6.58773 17.8271 6.54866 17.9759C6.52935 17.9759 6.51005 17.9759 6.49016 17.9759C6.31449 17.3435 6.31449 17.3435 6.29525 17.2742C6.28231 17.2276 6.26934 17.1811 6.25634 17.1345C6.22336 17.0163 6.19088 16.8979 6.15936 16.7793C6.07341 16.4531 6.07341 16.4531 5.93624 16.146C5.92617 16.1268 5.9161 16.1077 5.90572 16.088C5.43006 15.1977 4.68368 14.8587 3.75826 14.574C3.70104 14.5568 3.64362 14.5402 3.58619 14.5236C3.50667 14.4952 3.50667 14.4952 3.47742 14.4367C3.51041 14.4257 3.5434 14.4146 3.5774 14.4033C3.70229 14.3614 3.82697 14.3189 3.95159 14.2762C4.00508 14.258 4.05863 14.2399 4.11223 14.222C4.63689 14.0467 5.07664 13.8419 5.46641 13.4422C5.48798 13.4209 5.50955 13.3996 5.53177 13.3776C5.87666 13.0174 6.05844 12.5315 6.18452 12.0578C6.1934 12.0252 6.20228 11.9926 6.21144 11.959C6.23936 11.8563 6.26696 11.7535 6.29455 11.6506C6.31359 11.5804 6.33265 11.5101 6.35173 11.4398C6.39812 11.2688 6.44425 11.0978 6.49016 10.9267Z" fill="#484848"/>
<path d="M5.20316 3.99449C5.33416 4.05766 5.41323 4.13868 5.49566 4.25774C5.54822 4.41543 5.53281 4.58449 5.53405 4.74951C5.5349 4.7867 5.53575 4.8239 5.53662 4.86222C5.53893 5.20128 5.53893 5.20128 5.40791 5.33999C5.29326 5.44861 5.18387 5.51391 5.02264 5.51652C4.86869 5.50593 4.76702 5.47216 4.64741 5.36924C4.49375 5.16574 4.49502 5.00834 4.49385 4.7623C4.49325 4.73093 4.49265 4.69956 4.49202 4.66724C4.49091 4.44178 4.50845 4.29209 4.66021 4.11698C4.82846 3.97335 4.98735 3.97106 5.20316 3.99449Z" fill="#484848"/>
<path d="M13.7295 15.4166C13.7614 15.4161 13.7932 15.4157 13.826 15.4152C14.0267 15.4162 14.1587 15.4408 14.3291 15.5482C14.4446 15.6668 14.4985 15.7748 14.5138 15.9394C14.4986 16.1155 14.4462 16.2322 14.3145 16.3489C14.1426 16.4899 13.9493 16.4624 13.7368 16.4641C13.6835 16.4654 13.6835 16.4654 13.6291 16.4667C13.4266 16.4681 13.2926 16.4629 13.1299 16.338C12.9911 16.1882 12.9712 16.0646 12.9738 15.8659C12.9891 15.7359 13.0341 15.6378 13.1299 15.5482C13.3178 15.4144 13.5053 15.4134 13.7295 15.4166Z" fill="#484848"/>
<path d="M5.27263 6.51363C5.39173 6.5987 5.47772 6.69017 5.52491 6.83173C5.53337 6.96626 5.53304 7.10097 5.53405 7.23574C5.5349 7.27294 5.53575 7.31013 5.53662 7.34845C5.53892 7.68546 5.53892 7.68546 5.40791 7.82622C5.38981 7.84794 5.37171 7.86966 5.35307 7.89203C5.23238 7.99142 5.12154 8.00744 4.96916 7.99806C4.83543 7.98059 4.75043 7.94622 4.64741 7.85547C4.49375 7.65198 4.49502 7.49457 4.49385 7.24854C4.49325 7.21717 4.49265 7.1858 4.49202 7.15347C4.49091 6.92802 4.50845 6.77832 4.66021 6.60321C4.8412 6.44871 5.04915 6.43914 5.27263 6.51363Z" fill="#484848"/>
<path d="M6.27261 5.47161C6.32971 5.47093 6.32971 5.47093 6.38795 5.47024C6.42473 5.47039 6.46152 5.47054 6.49941 5.4707C6.53273 5.47083 6.56604 5.47096 6.60037 5.4711C6.74934 5.49495 6.83996 5.56867 6.93805 5.68002C7.04437 5.82966 7.03378 5.97978 7.01665 6.15898C6.96547 6.26136 6.96547 6.26136 6.89966 6.33448C6.88216 6.3562 6.86466 6.37792 6.84664 6.40029C6.67911 6.53432 6.46208 6.51981 6.25799 6.51912C6.23018 6.51959 6.20237 6.52006 6.17372 6.52055C5.98856 6.52068 5.80328 6.51077 5.65587 6.3839C5.55214 6.26869 5.49678 6.15663 5.49475 6.00131C5.50445 5.83927 5.52988 5.72706 5.64191 5.60323C5.8359 5.45214 6.03437 5.46877 6.27261 5.47161Z" fill="#484848"/>
<path d="M15.3236 16.5427C15.5108 16.7348 15.509 16.9281 15.5083 17.1825C15.5087 17.2136 15.5092 17.2447 15.5097 17.2768C15.5098 17.4809 15.5016 17.641 15.3601 17.7993C15.3426 17.8129 15.3251 17.8266 15.3072 17.8407C15.2896 17.8548 15.2721 17.8689 15.254 17.8834C15.1247 17.9763 14.9799 17.962 14.8264 17.9467C14.6836 17.8987 14.5875 17.8077 14.5046 17.6834C14.4522 17.5263 14.4675 17.358 14.4662 17.1935C14.4654 17.1565 14.4645 17.1196 14.4637 17.0815C14.4623 16.8766 14.4636 16.7357 14.5924 16.5719C14.8283 16.3852 15.0726 16.3743 15.3236 16.5427Z" fill="#484848"/>
<path d="M15.2139 13.9888C15.3667 14.0738 15.4431 14.1852 15.4991 14.3489C15.5111 14.4645 15.5086 14.5801 15.5083 14.6962C15.5087 14.7274 15.5092 14.7585 15.5097 14.7905C15.5098 14.9948 15.5009 15.1535 15.3611 15.313C15.3439 15.3267 15.3267 15.3403 15.309 15.3544C15.2918 15.3685 15.2746 15.3826 15.2569 15.3971C15.1279 15.4845 14.9756 15.4796 14.8264 15.4604C14.6772 15.4037 14.5757 15.3197 14.4989 15.1774C14.4462 15.0248 14.4575 14.8613 14.4589 14.7017C14.4582 14.6656 14.4575 14.6294 14.4568 14.5921C14.4571 14.381 14.4699 14.2137 14.6216 14.0564C14.8112 13.9199 15 13.8917 15.2139 13.9888Z" fill="#484848"/>
<path d="M3.77357 5.47164C3.82838 5.47153 3.82838 5.47153 3.88429 5.47141C4.08397 5.47354 4.24749 5.47603 4.40302 5.61789C4.53477 5.7871 4.54803 5.92097 4.53041 6.12976C4.47891 6.28142 4.39709 6.3598 4.26717 6.45151C4.10524 6.52356 3.94752 6.51973 3.77357 6.51915C3.73167 6.51986 3.73167 6.51986 3.68891 6.52058C3.5038 6.52071 3.3157 6.51202 3.16964 6.38289C3.04662 6.24382 2.99418 6.11482 3.00051 5.92844C3.01981 5.79434 3.0724 5.68476 3.17022 5.59015C3.35961 5.45593 3.54834 5.46649 3.77357 5.47164Z" fill="#484848"/>
<path d="M16.223 15.4221C16.254 15.4212 16.285 15.4204 16.317 15.4195C16.5174 15.4179 16.645 15.4408 16.8154 15.5482C16.9309 15.6668 16.9848 15.7749 17 15.9394C16.9848 16.1155 16.9325 16.2322 16.8007 16.3489C16.6295 16.4894 16.4366 16.4635 16.2249 16.4659C16.1896 16.467 16.1543 16.4681 16.1179 16.4693C15.9041 16.4714 15.7485 16.4572 15.5869 16.3087C15.4684 16.1719 15.4513 16.0385 15.4587 15.8598C15.4817 15.6999 15.5468 15.6092 15.6746 15.508C15.8513 15.4123 16.0259 15.4239 16.223 15.4221Z" fill="#484848"/>
</svg>
