<svg width="20" height="20" viewBox="0 0 20 20" fill="none" xmlns="http://www.w3.org/2000/svg">
<path d="M13 9.7875L5.15 10.2875C3.4 10.2875 2 8.8875 2 7.1375C2 5.6375 3.1 4.3375 4.5 4.0375C4.85 3.9875 5.2 3.9875 5.55 4.0375L13 4.9875V9.7875Z" fill="#484848" stroke="#484848" stroke-miterlimit="10" stroke-linecap="round" stroke-linejoin="round"/>
<path d="M5.4 9.03755C6.44934 9.03755 7.3 8.18689 7.3 7.13755C7.3 6.08821 6.44934 5.23755 5.4 5.23755C4.35066 5.23755 3.5 6.08821 3.5 7.13755C3.5 8.18689 4.35066 9.03755 5.4 9.03755Z" fill="#F9F9FA" stroke="#F9F9FA" stroke-miterlimit="10" stroke-linecap="round" stroke-linejoin="round"/>
<path d="M7.50002 10.1375V13.4874C7.50002 14.3874 6.75001 15.1375 5.85001 15.1375C4.95001 15.1375 4.20001 14.3874 4.20001 13.4874V10.1875" stroke="#484848" stroke-miterlimit="10" stroke-linecap="round" stroke-linejoin="round"/>
<path d="M13 9.8375L14.9 10.4375V4.4375L13 5.0375V9.8375Z" fill="#F9F9FA" stroke="#484848" stroke-miterlimit="10" stroke-linecap="round" stroke-linejoin="round"/>
<path d="M16.15 7.5376H18.4" stroke="#484848" stroke-miterlimit="10" stroke-linecap="round" stroke-linejoin="round"/>
<path d="M16.15 6.13755L18.05 4.98755" stroke="#484848" stroke-miterlimit="10" stroke-linecap="round" stroke-linejoin="round"/>
<path d="M18.05 10.0375L16.15 8.9375" stroke="#484848" stroke-miterlimit="10" stroke-linecap="round" stroke-linejoin="round"/>
</svg>
