<svg width="20" height="20" viewBox="0 0 20 20" fill="none" xmlns="http://www.w3.org/2000/svg">
<path d="M15.088 6.40503H5.232C4.55159 6.40503 4 6.95721 4 7.63836V13.805C4 14.4862 4.55159 15.0384 5.232 15.0384H15.088C15.7684 15.0384 16.32 14.4862 16.32 13.805V7.63836C16.32 6.95721 15.7684 6.40503 15.088 6.40503Z" fill="#484848" stroke="#484848" stroke-linecap="round" stroke-linejoin="bevel"/>
<path d="M7.07999 6.30633V5.23333C7.07999 4.90623 7.20979 4.59253 7.44083 4.36124C7.67188 4.12994 7.98524 4 8.31199 4H12.008C12.3347 4 12.6481 4.12994 12.8791 4.36124C13.1102 4.59253 13.24 4.90623 13.24 5.23333V6.30633" stroke="#484848" stroke-linecap="round" stroke-linejoin="bevel"/>
<path d="M10.16 8.28577V13.2191" stroke="#F9F9FA" stroke-linecap="round" stroke-linejoin="bevel"/>
<path d="M7.69601 10.7526H12.624" stroke="#F9F9FA" stroke-linecap="round" stroke-linejoin="bevel"/>
</svg>
