<svg width="20" height="20" viewBox="0 0 20 20" fill="none" xmlns="http://www.w3.org/2000/svg">
<path fill-rule="evenodd" clip-rule="evenodd" d="M10.5758 5.8669C11.1309 5.31183 11.8837 5 12.6687 5C13.4537 5 14.2065 5.31183 14.7616 5.8669C15.3166 6.42197 15.6285 7.1748 15.6285 7.95978C15.6285 8.74476 15.3166 9.49759 14.7616 10.0527L14 10.8142L9.81424 15L5.62848 10.8142L4.8669 10.0527C4.31183 9.49759 4 8.74476 4 7.95978C4 7.1748 4.31183 6.42197 4.8669 5.8669C5.42197 5.31183 6.1748 5 6.95978 5C7.74476 5 8.49759 5.31183 9.05266 5.8669L9.81424 6.62848L10.5758 5.8669Z" fill="#484848" stroke="#484848" stroke-width="1.3" stroke-linecap="round" stroke-linejoin="round"/>
</svg>
