<svg width="20" height="20" viewBox="0 0 20 20" fill="none" xmlns="http://www.w3.org/2000/svg">
<path fill-rule="evenodd" clip-rule="evenodd" d="M12.7417 13.0334L9.99999 15.7334L7.55833 13.3334M16.6083 8.33337L3.71666 9.23337C3.29707 8.50836 3.16063 7.65372 3.33361 6.8341C3.5066 6.01448 3.97677 5.28787 4.65356 4.79425C5.33034 4.30064 6.16585 4.07493 6.99913 4.16062C7.83241 4.24632 8.6045 4.63734 9.16666 5.25837L9.99999 6.13337L10.875 5.25837C11.19 4.94291 11.5641 4.69264 11.9759 4.52189C12.3877 4.35113 12.8292 4.26324 13.275 4.26324C13.7208 4.26324 14.1622 4.35113 14.5741 4.52189C14.9859 4.69264 15.36 4.94291 15.675 5.25837C16.0696 5.6559 16.3609 6.14395 16.5236 6.67993C16.6863 7.21592 16.7154 7.78357 16.6083 8.33337Z" fill="#484848"/>
<path d="M12.7417 13.0334L9.99999 15.7334L7.55833 13.3334M16.6083 8.33337L3.71666 9.23337C3.29707 8.50836 3.16063 7.65372 3.33361 6.8341C3.5066 6.01448 3.97677 5.28787 4.65356 4.79425C5.33034 4.30064 6.16585 4.07493 6.99913 4.16062C7.83241 4.24632 8.6045 4.63734 9.16666 5.25837L9.99999 6.13337L10.875 5.25837C11.19 4.94291 11.5641 4.69264 11.9759 4.52189C12.3877 4.35113 12.8292 4.26324 13.275 4.26324C13.7208 4.26324 14.1622 4.35113 14.5741 4.52189C14.9859 4.69264 15.36 4.94291 15.675 5.25837C16.0696 5.6559 16.3609 6.14395 16.5236 6.67993C16.6863 7.21592 16.7154 7.78357 16.6083 8.33337Z" stroke="#484848" stroke-linecap="round" stroke-linejoin="round"/>
<path d="M1.66666 12.5H4.99999L8.33332 8.33337L10.8333 10.8334H17.5" stroke="#484848" stroke-linecap="round" stroke-linejoin="round"/>
</svg>
