<svg width="20" height="20" viewBox="0 0 20 20" fill="none" xmlns="http://www.w3.org/2000/svg">
<path d="M10 17C13.866 17 17 13.866 17 10C17 6.13401 13.866 3 10 3C6.13401 3 3 6.13401 3 10C3 13.866 6.13401 17 10 17Z" stroke="#484848" stroke-width="1.5" stroke-linecap="round" stroke-linejoin="bevel"/>
<path d="M10.144 5.54C10.96 5.54 11.612 5.764 12.1 6.212C12.596 6.66 12.844 7.272 12.844 8.048C12.844 8.856 12.588 9.464 12.076 9.872C11.564 10.28 10.884 10.484 10.036 10.484L9.988 11.432H8.8L8.74 9.548H9.136C9.912 9.548 10.504 9.444 10.912 9.236C11.328 9.028 11.536 8.632 11.536 8.048C11.536 7.624 11.412 7.292 11.164 7.052C10.924 6.812 10.588 6.692 10.156 6.692C9.724 6.692 9.384 6.808 9.136 7.04C8.888 7.272 8.764 7.596 8.764 8.012H7.48C7.48 7.532 7.588 7.104 7.804 6.728C8.02 6.352 8.328 6.06 8.728 5.852C9.136 5.644 9.608 5.54 10.144 5.54ZM9.376 14.084C9.128 14.084 8.92 14 8.752 13.832C8.584 13.664 8.5 13.456 8.5 13.208C8.5 12.96 8.584 12.752 8.752 12.584C8.92 12.416 9.128 12.332 9.376 12.332C9.616 12.332 9.82 12.416 9.988 12.584C10.156 12.752 10.24 12.96 10.24 13.208C10.24 13.456 10.156 13.664 9.988 13.832C9.82 14 9.616 14.084 9.376 14.084Z" fill="#484848"/>
</svg>
