<svg width="20" height="20" viewBox="0 0 20 20" fill="none" xmlns="http://www.w3.org/2000/svg">
<path d="M3.01481 9.29673L5.0071 4H15.9028C15.9307 4.00138 15.9577 4.01045 15.9807 4.02622C16.0038 4.04198 16.022 4.06382 16.0334 4.08931L17.9913 9.31047C17.9991 9.3314 18.0017 9.35392 17.9989 9.37608C17.996 9.39824 17.9878 9.41937 17.975 9.43765C17.9621 9.45592 17.945 9.47078 17.9251 9.48094C17.9052 9.4911 17.8831 9.49626 17.8608 9.49596H14.625L12.564 8.12197L10.5031 9.49596L8.44207 8.12197L6.38109 9.49596H3.14534C3.12123 9.49736 3.09718 9.49237 3.07561 9.48151C3.05403 9.47065 3.03571 9.45429 3.02247 9.43409C3.00923 9.41389 3.00156 9.39055 3.00021 9.36644C2.99887 9.34232 3.00391 9.31828 3.01481 9.29673Z" fill="#484848" stroke="#484848" stroke-linecap="round" stroke-linejoin="round"/>
<path d="M4.98649 9.4823L5.0071 16.3797" stroke="#484848" stroke-linecap="round" stroke-linejoin="round"/>
<path d="M15.999 9.4823L16.0196 16.3523" stroke="#484848" stroke-linecap="round" stroke-linejoin="round"/>
<path d="M17.373 16.3521L3.63311 16.3795" stroke="#484848" stroke-linecap="round" stroke-linejoin="round"/>
<path d="M7.75508 16.3658V11.6943C7.75508 11.6578 7.76956 11.6229 7.79532 11.5971C7.82109 11.5714 7.85604 11.5569 7.89248 11.5569H13.1136C13.1501 11.5569 13.185 11.5714 13.2108 11.5971C13.2366 11.6229 13.251 11.6578 13.251 11.6943V16.3658" fill="#484848"/>
<path d="M7.75508 16.3658V11.6943C7.75508 11.6578 7.76956 11.6229 7.79532 11.5971C7.82109 11.5714 7.85604 11.5569 7.89248 11.5569H13.1136C13.1501 11.5569 13.185 11.5714 13.2108 11.5971C13.2366 11.6229 13.251 11.6578 13.251 11.6943V16.3658" stroke="#484848" stroke-linecap="round" stroke-linejoin="round"/>
<path d="M10.5031 16.3522V11.5432" stroke="#484848" stroke-linecap="round" stroke-linejoin="round"/>
</svg>
