<svg width="20" height="20" viewBox="0 0 20 20" fill="none" xmlns="http://www.w3.org/2000/svg">
<g clip-path="url(#clip0_111_230)">
<path d="M8.60545 6.05424C7.84802 7.37221 7.18904 8.54525 7.13982 8.65736C6.80623 9.43119 6.80623 10.3636 7.13709 11.1374C7.76326 12.5894 9.35466 13.3468 10.8668 12.9093C12.6578 12.3898 13.5929 10.4019 12.8629 8.67104C12.7699 8.44682 10.0328 3.65619 9.99998 3.65619C9.98904 3.65619 9.36287 4.73627 8.60545 6.05424ZM11.6187 7.42689C11.7226 7.54721 11.9961 8.0476 11.9961 8.11049C11.9961 8.18705 11.8785 8.30463 11.8047 8.30463C11.6953 8.30463 11.6461 8.24994 11.4711 7.94369C11.2523 7.56088 11.2496 7.55268 11.2988 7.45697C11.3699 7.32299 11.5203 7.30658 11.6187 7.42689ZM12.3515 8.73666C12.4554 8.8433 12.5922 9.27533 12.6304 9.63354C12.6988 10.2406 12.5375 10.8777 12.1793 11.4081C11.9004 11.821 11.3125 12.2968 11.0801 12.2968C10.9488 12.2968 10.8668 12.1492 10.9187 12.0124C10.9297 11.9878 11.0226 11.9167 11.132 11.8538C11.3672 11.7171 11.7773 11.3124 11.9113 11.0882C12.2586 10.4949 12.3324 9.78666 12.1136 9.16869C12.0097 8.87338 12.0043 8.81322 12.089 8.73119C12.1793 8.63822 12.2558 8.64096 12.3515 8.73666Z" fill="#484848"/>
<path d="M14.2136 4.74725C14.1015 4.94412 13.9484 5.09998 13.7379 5.22576L13.5765 5.32147L13.7242 5.39529C13.8992 5.48553 14.148 5.73162 14.2328 5.90662C14.2929 6.02967 14.3476 6.07342 14.3476 5.99959C14.3476 5.88475 14.6758 5.52108 14.889 5.40076C14.9656 5.35701 15.0312 5.31326 15.0312 5.30779C15.0312 5.30233 14.9711 5.26678 14.8972 5.23123C14.7222 5.141 14.5117 4.93318 14.4023 4.74178C14.3531 4.65428 14.3121 4.58592 14.3121 4.58592C14.3094 4.58592 14.2656 4.65975 14.2136 4.74725Z" fill="#484848"/>
<path d="M4.79373 8.23631C4.74177 8.33202 4.52029 8.55624 4.39998 8.6328L4.33435 8.67381L4.4738 8.76678C4.59685 8.84335 4.70623 8.96366 4.8238 9.14139C4.85388 9.18514 4.86208 9.18788 4.88396 9.15233C5.01794 8.93905 5.14099 8.816 5.33787 8.70116C5.37888 8.67655 5.36248 8.65741 5.23123 8.56717C5.14646 8.50975 5.03162 8.39764 4.97693 8.32108C4.92224 8.24452 4.87029 8.17342 4.85935 8.16249C4.85115 8.15155 4.82107 8.18436 4.79373 8.23631Z" fill="#484848"/>
<path d="M6.04882 11.4465C5.53749 11.6242 5.41991 11.6707 5.04804 11.8593C4.23046 12.2668 3.66991 12.7918 3.49491 13.314C3.3746 13.6722 3.43749 14.1152 3.65898 14.457C4.36171 15.548 6.42616 16.3574 8.96093 16.5379C9.54608 16.5789 11.0582 16.5543 11.5586 16.4968C12.9531 16.3328 14.1043 16.0183 14.993 15.5617C15.7859 15.157 16.3519 14.6129 16.5078 14.1125C16.5816 13.8664 16.5816 13.541 16.5051 13.314C16.2836 12.6578 15.466 12.0125 14.293 11.5668C13.943 11.4355 13.5273 11.3043 13.5109 11.3207C13.5055 11.3261 13.5984 11.4082 13.7187 11.5011C14.7988 12.3379 14.7168 13.5383 13.5273 14.3258C12.8465 14.7742 11.9988 15.0558 10.9406 15.1816C10.4758 15.2363 9.52421 15.2363 9.05937 15.1816C7.27929 14.9711 5.91757 14.23 5.59765 13.3004C5.38163 12.666 5.63046 12.0043 6.28124 11.5011C6.40155 11.4082 6.49999 11.3261 6.49999 11.3207C6.49999 11.2988 6.40429 11.3261 6.04882 11.4465Z" fill="#484848"/>
<path d="M6.67773 11.7008C6.41523 11.8813 6.13906 12.1793 6.03242 12.3953C5.94766 12.5676 5.93945 12.6031 5.93945 12.8438C5.93945 13.0844 5.94766 13.1199 6.03242 13.2922C6.31406 13.8637 7.19453 14.3914 8.27187 14.6348C8.90898 14.7797 9.11133 14.7988 9.98633 14.7988C10.8477 14.7988 11.0117 14.7852 11.6242 14.6566C12.2367 14.5309 12.8984 14.2684 13.3113 13.9895C13.5793 13.8117 13.8582 13.5137 13.9676 13.2922C14.0523 13.1199 14.0605 13.0844 14.0605 12.8438C14.0605 12.6031 14.0523 12.5676 13.9676 12.3953C13.9047 12.2668 13.8117 12.141 13.6805 12.0098C13.5027 11.832 13.1828 11.5859 13.1254 11.5859C13.1117 11.5859 13.027 11.698 12.9395 11.8375C12.4418 12.6086 11.6105 13.1773 10.6836 13.3797C10.3582 13.4508 9.6418 13.4508 9.31641 13.3797C8.81875 13.273 8.35391 13.0652 7.94102 12.7672C7.64844 12.5594 7.25742 12.1437 7.06055 11.8375C6.97305 11.698 6.88555 11.5859 6.87187 11.5887C6.85547 11.5887 6.76797 11.6406 6.67773 11.7008Z" fill="#484848"/>
</g>
<defs>
<clipPath id="clip0_111_230">
<rect width="14" height="14" fill="white" transform="translate(3 3)"/>
</clipPath>
</defs>
</svg>
