<svg width="20" height="20" viewBox="0 0 20 20" fill="none" xmlns="http://www.w3.org/2000/svg">
<g clip-path="url(#clip0_111_229)">
<path d="M9.85781 3.03284C9.80312 3.07385 6.88281 8.16252 6.77344 8.40041C6.55195 8.89534 6.45898 9.32737 6.45898 9.90432C6.45898 10.525 6.56836 10.9871 6.83906 11.5231C7.32578 12.4938 8.22266 13.1774 9.31641 13.4098C9.6418 13.4781 10.3582 13.4781 10.6836 13.4098C11.3781 13.2621 11.9469 12.9641 12.4445 12.4856C13.5082 11.4684 13.8418 9.90432 13.2812 8.5344C13.1719 8.26643 10.2215 3.09299 10.1449 3.03284C10.1203 3.01643 10.0547 3.00002 10 3.00002C9.94531 3.00002 9.87969 3.01643 9.85781 3.03284ZM10.4539 4.48479C10.6973 4.90862 11.3207 5.9969 11.8402 6.90198C12.3789 7.8426 12.8219 8.64651 12.8711 8.77502C13.582 10.6153 12.4336 12.6305 10.4812 12.9668C8.65469 13.2813 6.91562 11.7883 6.91016 9.90432C6.91016 9.46956 7.04687 8.90354 7.24375 8.51252C7.375 8.25823 9.98359 3.71096 10 3.71096C10.0082 3.71096 10.2133 4.05823 10.4539 4.48479Z" fill="#484848"/>
<path d="M11.3344 7.34765C11.2578 7.39414 11.2196 7.55273 11.2633 7.64023C11.3918 7.89453 11.627 8.28281 11.6707 8.30468C11.8211 8.38672 12.0235 8.27734 12.0235 8.11328C12.0235 8.02578 11.7446 7.50351 11.6324 7.38047C11.5723 7.31484 11.4192 7.29843 11.3344 7.34765Z" fill="#484848"/>
<path d="M12.1137 8.66016C11.9797 8.71484 11.966 8.84609 12.0645 9.10859C12.2176 9.51875 12.2477 10.0055 12.1465 10.4375C12.0836 10.7 11.8895 11.0801 11.7035 11.3125C11.5449 11.5094 11.2906 11.7227 11.0527 11.8594C10.9078 11.9441 10.875 11.9879 10.875 12.1055C10.875 12.234 10.9652 12.3242 11.0965 12.3242C11.2852 12.3242 11.7609 11.9797 12.0508 11.6379C12.6469 10.9242 12.8273 9.96172 12.5375 9.0457C12.4227 8.68477 12.3105 8.58086 12.1137 8.66016Z" fill="#484848"/>
<path d="M14.1727 3.82578C14.1317 3.86407 14.0524 4.01993 13.9785 4.2086C13.7817 4.70352 13.6942 4.79102 13.1938 4.98516C12.7863 5.14649 12.707 5.22852 12.7918 5.41719C12.8274 5.49375 12.882 5.52383 13.2676 5.66875C13.5 5.75625 13.5629 5.79453 13.6942 5.92578C13.8281 6.05977 13.8609 6.11446 13.9758 6.4125C14.0496 6.59844 14.1344 6.77344 14.1645 6.80352C14.2356 6.86914 14.3777 6.87188 14.4543 6.80625C14.4844 6.78164 14.5719 6.60938 14.6457 6.42617C14.7195 6.24024 14.807 6.05157 14.8426 6.00508C14.9383 5.86836 15.0969 5.77266 15.4442 5.63868C15.7914 5.50196 15.8516 5.45274 15.8516 5.30782C15.8516 5.17383 15.7805 5.11914 15.4277 4.98243C14.9246 4.78828 14.8399 4.70078 14.6348 4.17305C14.5582 3.97618 14.4844 3.83125 14.4488 3.80664C14.3641 3.74649 14.252 3.75743 14.1727 3.82578ZM14.591 5.03985C14.6676 5.11641 14.7824 5.20664 14.8481 5.24219L14.9684 5.30782L14.8152 5.40625C14.6375 5.5211 14.4324 5.73985 14.3613 5.8875L14.3121 5.99141L14.252 5.86836C14.159 5.68789 14.0086 5.5293 13.8281 5.41719L13.6668 5.31875L13.8227 5.21758C14.0004 5.10274 14.1863 4.90313 14.2574 4.75L14.3067 4.64883L14.3805 4.77461C14.4215 4.84297 14.5172 4.96328 14.591 5.03985Z" fill="#484848"/>
<path d="M4.70349 7.40781C4.67068 7.44336 4.60505 7.56914 4.55857 7.68945C4.3863 8.12969 4.31247 8.20352 3.91599 8.35938C3.60427 8.47969 3.57966 8.49609 3.54685 8.5918C3.5113 8.69844 3.54685 8.80508 3.63435 8.85977C3.6699 8.88164 3.80661 8.9418 3.94333 8.99102C4.2906 9.12227 4.40271 9.23984 4.5449 9.61172C4.657 9.9125 4.7281 10 4.85661 10C4.9824 10 5.03982 9.92891 5.16286 9.62539C5.32693 9.21523 5.40896 9.1332 5.78357 8.98828C5.9449 8.92813 6.09802 8.85156 6.12536 8.82148C6.18825 8.74492 6.18552 8.57266 6.12263 8.51523C6.09529 8.49063 5.93943 8.4168 5.77536 8.34844C5.39529 8.19258 5.31599 8.11055 5.1738 7.73594C5.06169 7.44062 4.98513 7.34766 4.84841 7.34766C4.79099 7.34766 4.73904 7.36953 4.70349 7.40781ZM4.90036 8.27461C4.9195 8.3375 5.14099 8.56445 5.24216 8.62461L5.31872 8.66836L5.19021 8.75586C5.12185 8.80234 5.01794 8.90625 4.95779 8.98281L4.85388 9.12227L4.75544 8.99102C4.70349 8.91992 4.59958 8.81602 4.52575 8.76133L4.39177 8.66289L4.47107 8.62188C4.55583 8.57812 4.832 8.29102 4.832 8.24727C4.832 8.20352 4.88396 8.22266 4.90036 8.27461Z" fill="#484848"/>
<path d="M5.69336 11.1047C4.3043 11.6133 3.40742 12.3106 3.09297 13.1309C3.03555 13.284 3.01641 13.3824 3.00547 13.6258C3 13.7926 3.00547 13.9895 3.02187 14.066C3.25703 15.1543 4.59961 16.1032 6.62852 16.6145C7.2 16.7594 7.8043 16.8633 8.53711 16.9453C8.96367 16.9946 10.5578 17.011 11.0746 16.9754C14.2711 16.7403 16.6555 15.5645 16.9781 14.066C16.9945 13.9895 17 13.7926 16.9945 13.6258C16.9836 13.3824 16.9645 13.284 16.907 13.1309C16.6527 12.4692 16.0238 11.8895 15.0586 11.4246C14.5992 11.2059 14.1645 11.0364 14.0004 11.0172C13.8062 10.9953 13.6914 11.1649 13.7789 11.3508C13.8008 11.4 13.8555 11.4383 13.9621 11.4766C14.9902 11.8539 15.5262 12.1574 16.0047 12.636C16.2344 12.8684 16.3 12.9504 16.3984 13.1528C16.5105 13.377 16.5188 13.4153 16.5297 13.6504C16.5488 14.0879 16.4066 14.3996 15.991 14.8153C15.1105 15.693 13.3879 16.3028 11.2387 16.4942C10.4266 16.568 9.13867 16.5489 8.31836 16.4504C5.78906 16.1524 3.875 15.1981 3.50586 14.0496C3.47031 13.9403 3.46211 13.8418 3.47031 13.6504C3.48125 13.4153 3.48945 13.377 3.60156 13.1528C3.7 12.9504 3.76562 12.8684 3.99531 12.636C4.47383 12.1574 4.99609 11.8621 6.03789 11.4766C6.19648 11.4192 6.25391 11.3508 6.25391 11.2141C6.25391 11.1157 6.13906 11.0117 6.02969 11.0117C5.98047 11.0145 5.83008 11.0555 5.69336 11.1047Z" fill="#484848"/>
<path d="M6.00236 11.7008C5.83009 11.8785 5.65509 12.1465 5.56759 12.3652C5.51564 12.5047 5.5047 12.5785 5.5047 12.8438C5.5047 13.1199 5.5129 13.1801 5.57853 13.3441C5.92853 14.2355 7.10978 14.9164 8.7504 15.1734C9.26993 15.2527 10.3828 15.2719 10.9297 15.2117C12.2422 15.0613 13.3387 14.632 13.9594 14.0223C14.1781 13.8063 14.3231 13.5957 14.4215 13.3441C14.4871 13.1801 14.4953 13.1199 14.4953 12.8438C14.4953 12.5785 14.4844 12.5047 14.4324 12.3652C14.3449 12.1465 14.1699 11.8785 13.9977 11.7008C13.8828 11.5832 13.8418 11.5586 13.7652 11.5586C13.6231 11.5586 13.5274 11.6461 13.5274 11.7801C13.5274 11.8703 13.5492 11.9113 13.6914 12.0645C13.7817 12.1656 13.8938 12.327 13.943 12.4281C14.025 12.5895 14.0332 12.6359 14.0332 12.8438C14.0332 13.0543 14.025 13.0953 13.943 13.2621C13.5383 14.0824 12.1027 14.7004 10.4156 14.7824C9.16876 14.8398 8.00665 14.6375 7.14532 14.2055C6.59845 13.9348 6.23204 13.6148 6.05704 13.2621C5.97501 13.0953 5.96681 13.0543 5.96681 12.8438C5.96681 12.6359 5.97501 12.5895 6.05704 12.4281C6.10626 12.327 6.21837 12.1656 6.30861 12.0645C6.44259 11.9168 6.47267 11.8676 6.47267 11.7883C6.47267 11.657 6.3715 11.5586 6.24025 11.5586C6.15548 11.5586 6.11993 11.5805 6.00236 11.7008Z" fill="#484848"/>
</g>
<defs>
<clipPath id="clip0_111_229">
<rect width="14" height="14" fill="white" transform="translate(3 3)"/>
</clipPath>
</defs>
</svg>
