<svg width="20" height="20" viewBox="0 0 20 20" fill="none" xmlns="http://www.w3.org/2000/svg">
<path d="M13 2H8C5.23858 2 3 4.23858 3 7V12C3 14.7614 5.23858 17 8 17H13C15.7614 17 18 14.7614 18 12V7C18 4.23858 15.7614 2 13 2Z" fill="#484848" stroke="#484848" stroke-linecap="round" stroke-linejoin="round"/>
<path d="M10.5 12.8334C12.341 12.8334 13.8333 11.341 13.8333 9.50008C13.8333 7.65913 12.341 6.16675 10.5 6.16675C8.65905 6.16675 7.16667 7.65913 7.16667 9.50008C7.16667 11.341 8.65905 12.8334 10.5 12.8334Z" fill="#F9F9FA" stroke="#F9F9FA" stroke-linecap="round" stroke-linejoin="round"/>
<path d="M14.6663 4.90845C14.8503 4.90845 15.0002 5.05751 15.0003 5.24146C15.0003 5.42555 14.8504 5.57544 14.6663 5.57544C14.4824 5.57526 14.3333 5.42544 14.3333 5.24146C14.3335 5.05762 14.4825 4.90862 14.6663 4.90845Z" fill="#F9F9FA" stroke="#F9F9FA"/>
</svg>
