<svg width="20" height="20" viewBox="0 0 20 20" fill="none" xmlns="http://www.w3.org/2000/svg">
<path d="M12.5 2.5H7.5C4.73858 2.5 2.5 4.73858 2.5 7.5V12.5C2.5 15.2614 4.73858 17.5 7.5 17.5H12.5C15.2614 17.5 17.5 15.2614 17.5 12.5V7.5C17.5 4.73858 15.2614 2.5 12.5 2.5Z" stroke="#484848" stroke-linecap="round" stroke-linejoin="round"/>
<path d="M10 13.3334C11.8409 13.3334 13.3333 11.841 13.3333 10.0001C13.3333 8.15913 11.8409 6.66675 10 6.66675C8.15905 6.66675 6.66666 8.15913 6.66666 10.0001C6.66666 11.841 8.15905 13.3334 10 13.3334Z" stroke="#484848" stroke-linecap="round" stroke-linejoin="round"/>
<path d="M14.1667 6.57511C14.6269 6.57511 15 6.20202 15 5.74178C15 5.28154 14.6269 4.90845 14.1667 4.90845C13.7064 4.90845 13.3333 5.28154 13.3333 5.74178C13.3333 6.20202 13.7064 6.57511 14.1667 6.57511Z" fill="#484848"/>
</svg>
