<svg width="20" height="20" viewBox="0 0 20 20" fill="none" xmlns="http://www.w3.org/2000/svg">
<path d="M2 5V4C2 3.46957 2.21071 2.96086 2.58579 2.58579C2.96086 2.21071 3.46957 2 4 2H5.29" stroke="#484848" stroke-linecap="round" stroke-linejoin="round"/>
<path d="M5 18H4C3.46957 18 2.96086 17.7893 2.58579 17.4142C2.21071 17.0391 2 16.5304 2 16V15" stroke="#484848" stroke-linecap="round" stroke-linejoin="round"/>
<path d="M18 15V16C18 16.5304 17.7893 17.0391 17.4142 17.4142C17.0391 17.7893 16.5304 18 16 18H15" stroke="#484848" stroke-linecap="round" stroke-linejoin="round"/>
<path d="M18 8.58997V12" stroke="#484848" stroke-linecap="round" stroke-linejoin="round"/>
<path d="M2 8.58997V12" stroke="#484848" stroke-linecap="round" stroke-linejoin="round"/>
<path d="M15 2H16C16.5304 2 17.0391 2.21071 17.4142 2.58579C17.7893 2.96086 18 3.46957 18 4V5" stroke="#484848" stroke-linecap="round" stroke-linejoin="round"/>
<path d="M8.40002 2H12" stroke="#484848" stroke-linecap="round" stroke-linejoin="round"/>
<path d="M8.40002 18H12" stroke="#484848" stroke-linecap="round" stroke-linejoin="round"/>
</svg>
