<svg width="20" height="20" viewBox="0 0 20 20" fill="none" xmlns="http://www.w3.org/2000/svg">
<path fill-rule="evenodd" clip-rule="evenodd" d="M15.591 7.33333H10.8984L9.72834 3.8233C9.55134 3.29236 9.21177 2.83056 8.75774 2.50333C8.30371 2.17609 7.75823 2 7.19856 2H6.70216C6.35197 2 6.0052 2.06897 5.68167 2.20299C5.35813 2.337 5.06416 2.53342 4.81654 2.78105C4.56891 3.02867 4.37249 3.32264 4.23848 3.64618C4.10447 3.96971 4.03549 4.31647 4.03549 4.66667V15.3333C4.03549 15.6835 4.10447 16.0303 4.23848 16.3538C4.37249 16.6774 4.56891 16.9713 4.81654 17.219C5.06416 17.4666 5.35813 17.663 5.68167 17.797C6.0052 17.931 6.35197 18 6.70216 18H13.2206C13.7976 18 14.359 17.8129 14.8206 17.4667L17.191 15.6889C17.5222 15.4405 17.791 15.1184 17.9762 14.7481C18.1613 14.3778 18.2577 13.9695 18.2577 13.5556V10C18.2577 9.64981 18.1887 9.30305 18.0547 8.97951C17.9207 8.65598 17.7243 8.36201 17.4767 8.11438C17.229 7.86676 16.9351 7.67033 16.6115 7.53632C16.288 7.40231 15.9412 7.33333 15.591 7.33333Z" fill="#484848" stroke="#484848" stroke-width="1.2" stroke-linecap="round" stroke-linejoin="round"/>
<path d="M2 7.70428V16.653" stroke="#484848" stroke-width="1.2" stroke-linecap="round" stroke-linejoin="bevel"/>
</svg>
