<svg width="20" height="20" viewBox="0 0 20 20" fill="none" xmlns="http://www.w3.org/2000/svg">
<path d="M12.5 2.5H7.5C4.73858 2.5 2.5 4.73858 2.5 7.5V12.5C2.5 15.2614 4.73858 17.5 7.5 17.5H12.5C15.2614 17.5 17.5 15.2614 17.5 12.5V7.5C17.5 4.73858 15.2614 2.5 12.5 2.5Z" stroke="#484848" stroke-linecap="round" stroke-linejoin="round"/>
<path d="M6.35833 9.07495V14.075" stroke="#484848" stroke-linecap="round" stroke-linejoin="round"/>
<path d="M8.65 14.075V11.575C8.65 10.9119 8.91339 10.276 9.38223 9.80718C9.85108 9.33834 10.487 9.07495 11.15 9.07495C11.4783 9.07495 11.8034 9.13962 12.1067 9.26525C12.41 9.39089 12.6856 9.57504 12.9178 9.80718C13.1499 10.0393 13.3341 10.3149 13.4597 10.6182C13.5853 10.9216 13.65 11.2466 13.65 11.575V14.075" stroke="#484848" stroke-linecap="round" stroke-linejoin="round"/>
<path d="M6.35833 6.57506V6.4834" stroke="#484848" stroke-linecap="round" stroke-linejoin="round"/>
</svg>
