<svg width="20" height="20" viewBox="0 0 20 20" fill="none" xmlns="http://www.w3.org/2000/svg">
<path d="M12.1557 4.53677C12.4403 4.65817 12.6925 4.83709 12.7378 5.15658C12.796 5.46968 12.7895 5.96808 12.7766 6.30035C12.7766 6.40258 12.7572 6.50482 12.8025 6.59428C12.8672 6.72207 13.0159 6.79875 13.1194 6.92654C13.391 7.2652 13.404 7.71888 13.4557 8.13421C13.6562 11.4633 14.0896 14.7732 14.2706 18.1023C14.2706 18.5368 14.0119 18.8051 13.6109 18.901C13.0547 18.9585 9.76915 18.901 7.85472 18.9202C7.18209 18.9074 6.92338 18.9393 6.66467 18.9074C6.1796 18.8307 5.91442 18.5304 5.90149 18C5.92089 16.5943 6.14079 15.2077 6.27661 13.8147C6.45124 11.8786 6.65174 9.94891 6.76169 8.00642C6.84577 6.71568 7.31144 6.99044 7.40845 6.37063C7.43433 6.03837 7.38905 5.68693 7.40845 5.35466C7.46666 4.44092 8.17164 4.74124 8.27512 4.23006C8.36567 3.84028 8.42388 3.34188 8.58557 3.00961C8.65025 2.87543 8.72786 2.77319 8.83781 2.68373C9.30348 2.31952 10.0085 2.01281 10.5194 1.73166C10.8881 1.54635 11.2761 1.28437 11.6383 1.22047C12.0652 1.16936 12.505 1.4569 12.5696 1.88501C12.6214 2.15338 12.5373 2.34508 12.4856 2.61345C12.3627 3.17575 12.1493 4.15338 12.091 4.42814C12.091 4.47287 12.091 4.50482 12.1298 4.53677H12.1557ZM11.606 4.53677C11.7418 3.98086 12.0393 2.41536 12.1104 2.09587C12.1363 1.9553 12.0393 1.79555 11.9099 1.73166C11.6836 1.64859 11.4119 1.83389 11.205 1.92974C10.597 2.24284 9.99552 2.57511 9.39403 2.90738C8.89602 3.12463 8.89602 3.71888 8.7796 4.23006C8.75373 4.35785 8.72139 4.46009 8.72139 4.50482C8.72139 4.54955 8.74726 4.54316 8.77313 4.54316H10.1184C10.5647 4.54316 11.2696 4.56233 11.593 4.54316H11.606V4.53677ZM12.2204 6.46009C12.2721 6.43453 12.2786 6.36424 12.2786 6.30674V5.393C12.2851 5.24603 12.2269 5.12463 12.0781 5.06712C11.9746 5.02239 11.8517 5.02239 11.7418 5.02878C10.5905 5.08629 9.34229 4.88821 8.21044 5.02878C7.88059 5.11185 7.90646 5.36105 7.91293 5.69332V6.2045C7.91293 6.32591 7.91293 6.40897 7.95821 6.44092C8.02288 6.48565 8.16517 6.46009 8.21044 6.36424C8.29452 6.13421 8.15224 5.79555 8.32686 5.58469C8.46915 5.44412 8.69552 5.57191 8.70199 5.75083C8.72139 5.90418 8.70199 6.08309 8.70199 6.23645C8.70199 6.3898 8.70199 6.46648 8.85721 6.47287C8.97363 6.47287 9.13532 6.48565 9.25174 6.46009C9.32288 6.44092 9.33582 6.37063 9.33582 6.30674V5.80194C9.32288 5.61664 9.43283 5.49523 9.62686 5.52718C9.91791 5.56552 9.79502 5.97447 9.82089 6.18533C9.79502 6.54316 9.94378 6.46009 10.2154 6.47287C10.4159 6.47287 10.5194 6.49204 10.5 6.21728C10.5259 5.97447 10.3836 5.50162 10.7652 5.52718C11.1468 5.56552 10.8945 6.19172 11.0174 6.42175C11.0368 6.44731 11.0627 6.46009 11.095 6.46648C11.1985 6.48565 11.3796 6.48565 11.4701 6.43453C11.5478 6.3898 11.5542 6.30035 11.5607 6.21728C11.5866 5.98725 11.4572 5.54635 11.8065 5.52718C11.8776 5.52718 11.9423 5.54635 11.9811 5.59747C12.1104 5.76361 11.8711 6.57511 12.2139 6.4537L12.2204 6.46009ZM13.6627 16.5112C13.4557 13.6614 13.1129 10.8115 12.9318 7.96169C12.8995 7.54635 12.796 7.11824 12.3497 6.99683C11.8905 6.92654 10.9851 6.99683 9.80149 6.97766H8.20398C8.04229 6.99044 7.91293 6.94571 7.75771 7.02239C7.58308 7.08629 7.36318 7.35466 7.33084 7.48884C7.2597 8.10865 6.56766 16.0575 6.51592 16.5495C6.51592 16.5943 6.52885 16.5751 6.58706 16.5815H13.6239C13.6562 16.5815 13.6562 16.5559 13.6627 16.5176V16.5112ZM10.7264 17.0927C10.6358 17.0416 10.4677 17.0352 10.3771 17.0927C10.3512 17.1118 10.3383 17.1374 10.3318 17.163C10.2801 17.3547 10.3512 17.6933 10.2736 17.9106C10.2154 18.0895 9.95025 18.0959 9.87263 17.9361C9.83383 17.8658 9.82736 17.7828 9.82736 17.6997C9.82736 17.5336 9.8403 17.3163 9.81442 17.1757C9.78209 17.0352 9.59452 17.0479 9.48457 17.0799C9.18706 17.1566 9.46517 17.6997 9.32935 17.917C9.28408 18.0192 9.17413 18.0767 9.06418 18.0703C8.85721 18.0575 8.88955 17.8467 8.88955 17.6805V17.2844C8.88955 17.1821 8.87015 17.0799 8.75373 17.0671C8.65671 17.0543 8.51442 17.0543 8.45622 17.1055C8.28159 17.3355 8.59204 18.0192 8.17164 18.0703C8.05522 18.0831 7.94527 18.0192 7.93234 17.8978C7.90646 17.6997 7.93234 17.4058 7.9194 17.2269C7.9194 17.1438 7.86766 17.0799 7.77711 17.0735C7.67363 17.0607 7.5184 17.0479 7.4602 17.1502C7.40845 17.3099 7.44726 17.5783 7.43433 17.7572C7.43433 17.8467 7.43433 17.9425 7.36318 18.0064C7.28557 18.0959 7.09801 18.1087 7.02039 18C6.84577 17.77 7.04627 17.361 6.92985 17.1438C6.8587 17.0479 6.6 17.0479 6.51592 17.131C6.45771 17.1885 6.45771 17.2716 6.45124 17.3483C6.42537 17.6741 6.33482 18.0831 6.52238 18.3067C6.6 18.4026 6.68408 18.4473 6.80696 18.4345C8.28806 18.4345 12.906 18.4409 13.391 18.4409C13.9214 18.4218 13.8244 17.8403 13.7726 17.4441C13.7532 17.3035 13.7597 17.1118 13.598 17.0607C13.4751 17.0224 13.2876 17.0096 13.2488 17.1374C13.1841 17.3866 13.3005 17.7444 13.1776 17.9872C13.1065 18.0831 12.9189 18.0959 12.8154 18.032C12.6085 17.8786 12.7831 17.3227 12.6861 17.1118C12.6279 17.0288 12.4791 17.0479 12.3886 17.0735C12.1298 17.1182 12.3562 17.8083 12.2075 18.0064C12.1557 18.0767 12.0393 18.1023 11.9423 18.0895C11.7483 18.0575 11.7741 17.8722 11.7741 17.7061V17.3099C11.7741 17.2141 11.7741 17.1118 11.6642 17.0799C11.5607 17.0479 11.3861 17.0352 11.3279 17.0927C11.1791 17.3163 11.4572 18.0256 11.0821 18.0639C10.998 18.0703 10.901 18.0575 10.8557 17.9872C10.7458 17.7892 10.8234 17.4377 10.7975 17.2333C10.7975 17.1821 10.7846 17.1374 10.7458 17.1055L10.7328 17.0927H10.7264Z" fill="#484848"/>
</svg>
