<svg width="20" height="20" viewBox="0 0 20 20" fill="none" xmlns="http://www.w3.org/2000/svg">
<path d="M12.0199 4.51758C12.0716 4.38339 12.091 4.17892 12.1686 3.83387C12.2786 3.29074 12.4338 2.57509 12.4855 2.32589C12.5114 2.21087 12.5179 2.10863 12.5114 1.98723C12.4403 1.17573 11.6641 1.09905 11.0626 1.43132C10.5905 1.65496 9.95667 1.97445 9.43279 2.26838C9.09 2.47285 8.71488 2.65177 8.50145 3.0032C8.31388 3.32269 8.29448 3.6933 8.24274 4.05113C8.21687 4.21726 8.18453 4.40256 8.20393 4.47285C8.20393 4.49841 8.22334 4.51119 8.24274 4.51758C8.66961 4.53675 10.4029 4.51758 11.1467 4.52397C11.5671 4.52397 11.8905 4.52397 11.9875 4.52397C12.0005 4.52397 12.0134 4.52397 12.0263 4.51119L12.0199 4.51758ZM12.4532 6.38978C12.4532 6.10224 12.4208 5.48244 12.4144 5.22046C12.4144 5.14378 12.3885 5.01598 12.3562 5.0032C11.9358 4.93931 8.57259 5.0032 7.79 4.97764C7.68005 4.97764 7.60244 4.9457 7.58951 5.11183C7.57657 5.38659 7.58951 5.96167 7.58951 6.24921C7.58951 6.32589 7.58951 6.37062 7.59597 6.38978C7.59597 6.40256 7.60891 6.40895 7.62184 6.40895C7.86115 6.40895 11.3666 6.40895 12.4208 6.40895C12.4403 6.40895 12.4467 6.40895 12.4532 6.38978ZM13.9084 16.4537C13.8437 14.0064 13.5786 11.5591 13.5139 9.11822C13.4945 8.65815 13.488 8.19809 13.4233 7.73803C13.3781 7.36742 13.1711 7.06071 12.8089 6.93292C12.6343 6.86902 12.4338 6.84985 12.2527 6.83707C10.6875 6.76678 9.01239 6.90097 7.43428 6.87541C6.80045 6.95847 6.58702 7.42493 6.55468 8.00001C6.52234 8.35145 6.51587 8.72205 6.50941 9.07349C6.46413 10.1598 6.37359 11.2396 6.34125 12.3323C6.28951 13.4313 6.12781 15.5911 6.08254 16.377C6.08254 16.4537 6.07607 16.492 6.08254 16.5048C6.08254 16.5112 6.08901 16.5176 6.10194 16.5176C6.41239 16.5176 12.0716 16.5176 13.889 16.5176C13.9149 16.5176 13.9149 16.492 13.9149 16.4601L13.9084 16.4537ZM13.9472 16.9968C13.9408 16.9776 13.9278 16.9713 13.9149 16.9713C13.7855 16.9713 13.1646 16.9713 12.3238 16.9713C10.9074 16.9713 6.70344 16.9649 6.06961 16.9713C6.01786 17.0352 6.03727 17.2013 6.02433 17.2971C5.99199 17.655 5.93378 18.0256 6.09548 18.3387C6.20543 18.5623 6.4706 18.7796 6.7099 18.8051C7.25966 18.8051 12.6084 18.8179 13.1388 18.8179C13.2487 18.8179 13.4169 18.7732 13.5398 18.7093C13.9278 18.4729 14.0119 18.1278 13.9925 17.655C13.9925 17.4505 13.9925 17.1821 13.9537 16.9968H13.9472Z" fill="white"/>
<path d="M13.9084 16.4601C13.9084 16.4984 13.9084 16.5112 13.8826 16.5176C12.0652 16.5176 6.41243 16.5176 6.09551 16.5176C6.08258 16.5176 6.08258 16.5176 6.07611 16.5048C6.07611 16.492 6.07611 16.4473 6.07611 16.377C6.12785 15.5911 6.28308 13.4377 6.33482 12.3323C6.36716 11.2396 6.46417 10.1598 6.50298 9.07349C6.51591 8.72206 6.51591 8.35145 6.54825 8.00001C6.57412 7.43132 6.78755 6.95848 7.42785 6.87541C9.00596 6.90097 10.6876 6.76678 12.2463 6.83707C12.602 6.84985 13.003 6.93931 13.2229 7.23324C13.4816 7.57828 13.4428 8.0703 13.4816 8.48563C13.4945 8.6965 13.501 8.90736 13.5075 9.11183C13.5721 11.5591 13.8373 14.0064 13.902 16.4473L13.9084 16.4601Z" fill="#484848"/>
<path d="M13.9473 16.9968C13.9796 17.1821 13.9796 17.4505 13.9861 17.6549C14.0249 18.1789 13.8632 18.6198 13.3587 18.7795C12.7314 18.8754 7.39553 18.7795 6.70996 18.7987C6.64528 18.7987 6.62588 18.7859 6.53533 18.7476C5.82389 18.4089 5.98558 17.6869 6.04379 17.0351C6.05026 16.984 6.05673 16.9648 6.08907 16.9648C6.36071 16.9648 8.03583 16.9648 9.76916 16.9648C10.9721 16.9648 13.0677 16.9648 13.9085 16.9648C13.9279 16.9648 13.9343 16.9648 13.9408 16.9904L13.9473 16.9968Z" fill="#484848"/>
<path d="M12.0199 4.52395C12.007 4.53673 11.994 4.53673 11.9811 4.53673C11.8841 4.53673 11.5607 4.53673 11.1403 4.53673C10.403 4.53673 8.66319 4.54951 8.23633 4.53034C8.14578 4.47284 8.22339 4.23641 8.23633 4.0575C8.29454 3.69967 8.31394 3.32907 8.49504 3.00958C8.702 2.65814 9.08359 2.47922 9.42638 2.27475C9.98907 1.95526 10.6294 1.62938 11.1532 1.39296C11.7935 1.07347 12.5244 1.30351 12.505 2.10862C12.4597 2.56229 12.298 3.13737 12.1622 3.84664C12.0846 4.19169 12.0587 4.39616 12.0134 4.53034L12.0199 4.52395Z" fill="#484848"/>
<path d="M12.4532 6.38981C12.4532 6.40898 12.4338 6.40898 12.4209 6.40898C11.3602 6.40898 7.86765 6.40898 7.62188 6.40898C7.60894 6.40898 7.60247 6.40259 7.59601 6.38981C7.58954 6.37064 7.58954 6.32591 7.58954 6.24923C7.58954 6.00003 7.58954 5.42495 7.58954 5.18214C7.59601 4.99045 7.62188 4.97128 7.79004 4.97767C8.57262 4.99684 11.9293 4.93933 12.3562 5.00323C12.395 5.01601 12.4144 5.1438 12.4144 5.22048C12.4144 5.48246 12.4532 6.10866 12.4532 6.38981Z" fill="#484848"/>
</svg>
