<svg width="20" height="20" viewBox="0 0 20 20" fill="none" xmlns="http://www.w3.org/2000/svg">
<path d="M10.0242 10.6388H13.9879H17.9517C12.0544 10.4455 9.97583 7.64185 9.97583 7.64185C9.97583 7.64185 7.89728 10.3971 2 10.6388H5.96375H10.0242Z" stroke="#484848" stroke-miterlimit="10" stroke-linecap="round" stroke-linejoin="round"/>
<path d="M18 10.6388C18 10.6872 17.9517 10.6871 17.9033 10.7355C16.9849 11.8956 15.7281 12.814 14.2779 13.4424C13.0211 13.9742 11.571 14.3125 10.0242 14.3125C8.47734 14.3125 7.02718 14.0225 5.77038 13.4424C4.27189 12.814 3.01509 11.8956 2.145 10.7355C2.09666 10.6871 2.09667 10.6872 2.04833 10.6388C3.20845 7.11011 6.01208 4.69319 8.86405 5.03156C9.25075 5.0799 9.63746 5.17657 9.97582 5.32159C10.3625 5.17657 10.7009 5.0799 11.0876 5.03156" stroke="#484848" stroke-miterlimit="10" stroke-linecap="round" stroke-linejoin="round"/>
<path d="M10.0242 5.32159C10.4109 5.17657 10.7492 5.0799 11.1843 5.03156C14.0362 4.69319 16.8399 7.11011 18 10.6388C18 10.6388 18 10.6388 17.9033 10.7355C16.9849 11.8956 15.7281 12.814 14.2779 13.4424C13.0211 13.9742 11.571 14.3125 10.0242 14.3125" stroke="#484848" stroke-miterlimit="10" stroke-linecap="round" stroke-linejoin="round"/>
</svg>
