<svg width="20" height="20" viewBox="0 0 20 20" fill="none" xmlns="http://www.w3.org/2000/svg">
<path d="M8.58824 2H5.52941C4.68474 2 4 2.69496 4 3.55224V6.65672C4 7.51399 4.68474 8.20896 5.52941 8.20896H8.58824C9.43291 8.20896 10.1176 7.51399 10.1176 6.65672V3.55224C10.1176 2.69496 9.43291 2 8.58824 2Z" stroke="#484848" stroke-width="1.2" stroke-linecap="round" stroke-linejoin="round"/>
<path d="M8.58824 11.3134H5.52941C4.68474 11.3134 4 12.0084 4 12.8657V15.9702C4 16.8274 4.68474 17.5224 5.52941 17.5224H8.58824C9.43291 17.5224 10.1176 16.8274 10.1176 15.9702V12.8657C10.1176 12.0084 9.43291 11.3134 8.58824 11.3134Z" stroke="#484848" stroke-width="1.2" stroke-linecap="round" stroke-linejoin="round"/>
<path d="M17 12.8657H12.4118" stroke="#484848" stroke-width="1.2" stroke-linecap="round" stroke-linejoin="round"/>
<path d="M15.4706 15.9702H12.4118" stroke="#484848" stroke-width="1.2" stroke-linecap="round" stroke-linejoin="round"/>
<path d="M15.4706 6.65671H12.4118" stroke="#484848" stroke-width="1.2" stroke-linecap="round" stroke-linejoin="round"/>
<path d="M17 3.55225H12.4118" stroke="#484848" stroke-width="1.2" stroke-linecap="round" stroke-linejoin="round"/>
</svg>
