<svg width="20" height="20" viewBox="0 0 20 20" fill="none" xmlns="http://www.w3.org/2000/svg">
<path d="M15.625 7.875H5.29167C4.5783 7.875 4 8.4533 4 9.16667V15.625C4 16.3384 4.5783 16.9167 5.29167 16.9167H15.625C16.3384 16.9167 16.9167 16.3384 16.9167 15.625V9.16667C16.9167 8.4533 16.3384 7.875 15.625 7.875Z" stroke="#484848" stroke-linecap="round" stroke-linejoin="round"/>
<path d="M10.4583 13.0417C11.35 13.0417 12.0729 12.3188 12.0729 11.4271C12.0729 10.5354 11.35 9.8125 10.4583 9.8125C9.56662 9.8125 8.84375 10.5354 8.84375 11.4271C8.84375 12.3188 9.56662 13.0417 10.4583 13.0417Z" stroke="#484848" stroke-linecap="round" stroke-linejoin="round"/>
<path d="M10.4583 13.0416V14.9791" stroke="#484848" stroke-linecap="round" stroke-linejoin="round"/>
<path d="M6.90625 7.875V5.29167C6.90625 4.94909 7.04234 4.62055 7.28457 4.37832C7.5268 4.13609 7.85534 4 8.19792 4H12.0729C12.4155 4 12.744 4.13609 12.9863 4.37832C13.2285 4.62055 13.3646 4.94909 13.3646 5.29167V7.875" stroke="#484848" stroke-linecap="round" stroke-linejoin="round"/>
</svg>
