<svg width="20" height="20" viewBox="0 0 20 20" fill="none" xmlns="http://www.w3.org/2000/svg">
<path d="M8.5 14.3043C8.5 14.4013 8.48061 14.4975 8.44292 14.5871C8.40523 14.6768 8.34998 14.7583 8.28034 14.8269C8.21069 14.8956 8.12801 14.95 8.03702 14.9872C7.94602 15.0243 7.84849 15.0434 7.75 15.0434H5.5V17.2609C5.5 17.4569 5.42098 17.6449 5.28033 17.7835C5.13968 17.9221 4.94891 18 4.75 18C4.55109 18 4.36032 17.9221 4.21967 17.7835C4.07902 17.6449 4 17.4569 4 17.2609V15.0434H1.75C1.55109 15.0434 1.36032 14.9655 1.21967 14.8269C1.07902 14.6883 1 14.5003 1 14.3043C1 14.1082 1.07902 13.9202 1.21967 13.7816C1.36032 13.643 1.55109 13.5651 1.75 13.5651H4V11.3477C4 11.1517 4.07902 10.9637 4.21967 10.825C4.36032 10.6864 4.55109 10.6085 4.75 10.6085C4.94891 10.6085 5.13968 10.6864 5.28033 10.825C5.42098 10.9637 5.5 11.1517 5.5 11.3477V13.5651H7.75C7.84849 13.5651 7.94602 13.5842 8.03702 13.6214C8.12801 13.6585 8.21069 13.713 8.28034 13.7816C8.34998 13.8502 8.40523 13.9317 8.44292 14.0214C8.48061 14.1111 8.5 14.2072 8.5 14.3043ZM7.75 3.21709H1.75C1.55109 3.21709 1.36032 3.29497 1.21967 3.43358C1.07902 3.5722 1 3.76021 1 3.95624C1 4.15227 1.07902 4.34028 1.21967 4.47889C1.36032 4.61751 1.55109 4.69538 1.75 4.69538H7.75C7.94891 4.69538 8.13968 4.61751 8.28033 4.47889C8.42098 4.34028 8.5 4.15227 8.5 3.95624C8.5 3.76021 8.42098 3.5722 8.28033 3.43358C8.13968 3.29497 7.94891 3.21709 7.75 3.21709ZM12.25 13.5713H18.25C18.4489 13.5713 18.6397 13.4934 18.7803 13.3548C18.921 13.2162 19 13.0282 19 12.8321C19 12.6361 18.921 12.4481 18.7803 12.3095C18.6397 12.1708 18.4489 12.093 18.25 12.093H12.25C12.0511 12.093 11.8603 12.1708 11.7197 12.3095C11.579 12.4481 11.5 12.6361 11.5 12.8321C11.5 13.0282 11.579 13.2162 11.7197 13.3548C11.8603 13.4934 12.0511 13.5713 12.25 13.5713ZM18.25 15.0373H12.25C12.0511 15.0373 11.8603 15.1152 11.7197 15.2538C11.579 15.3924 11.5 15.5804 11.5 15.7764C11.5 15.9725 11.579 16.1605 11.7197 16.2991C11.8603 16.4377 12.0511 16.5156 12.25 16.5156H18.25C18.4489 16.5156 18.6397 16.4377 18.7803 16.2991C18.921 16.1605 19 15.9725 19 15.7764C19 15.5804 18.921 15.3924 18.7803 15.2538C18.6397 15.1152 18.4489 15.0373 18.25 15.0373ZM12.4697 6.69632C12.5393 6.76496 12.622 6.81941 12.713 6.85655C12.804 6.8937 12.9015 6.91282 13 6.91282C13.0985 6.91282 13.196 6.8937 13.287 6.85655C13.378 6.81941 13.4607 6.76496 13.5303 6.69632L15.25 5.00153L16.9697 6.69632C17.0393 6.76502 17.122 6.81954 17.213 6.85674C17.304 6.89394 17.4016 6.9131 17.5001 6.91313C17.5986 6.91316 17.6962 6.89406 17.7872 6.85691C17.8783 6.81977 17.961 6.76531 18.0307 6.69665C18.1003 6.62798 18.1556 6.54647 18.1933 6.45675C18.231 6.36703 18.2503 6.27087 18.2503 6.17377C18.2503 6.07667 18.2308 5.98052 18.1931 5.89083C18.1553 5.80113 18.1 5.71965 18.0303 5.65103L16.3106 3.95624L18.0303 2.26145C18.1708 2.1228 18.2497 1.93485 18.2497 1.7389C18.2496 1.54295 18.1706 1.35504 18.03 1.21649C17.8894 1.07793 17.6987 1.00006 17.4999 1C17.3011 0.999939 17.1104 1.07769 16.9697 1.21616L15.25 2.91095L13.5303 1.21616C13.3896 1.07769 13.1989 0.999939 13.0001 1C12.8013 1.00006 12.6106 1.07793 12.47 1.21649C12.3294 1.35504 12.2504 1.54295 12.2503 1.7389C12.2503 1.93485 12.3292 2.1228 12.4697 2.26145L14.1894 3.95624L12.4697 5.65103C12.4 5.71966 12.3448 5.80114 12.3071 5.89082C12.2694 5.98049 12.25 6.07661 12.25 6.17367C12.25 6.27074 12.2694 6.36686 12.3071 6.45653C12.3448 6.54621 12.4 6.62769 12.4697 6.69632Z" fill="#484848"/>
</svg>
