<svg width="20" height="20" viewBox="0 0 20 20" fill="none" xmlns="http://www.w3.org/2000/svg">
<g clip-path="url(#clip0_110_442)">
<path d="M16.5625 12.4062C12.2312 12.4062 7.89999 12.4062 3.43749 12.4062C3.43749 15.1406 3.43749 15.1406 3.51952 15.4687C3.69474 15.4759 3.84704 15.451 4.01684 15.4089C4.0548 15.3997 4.0548 15.3997 4.09352 15.3904C4.2653 15.3474 4.42552 15.2928 4.58956 15.2262C5.37205 14.9181 6.19163 15.0852 6.95251 15.3579C7.62539 15.5929 8.31213 15.4713 8.96521 15.2478C9.80715 14.9621 10.5637 15.0645 11.3822 15.3579C12.0551 15.5929 12.7418 15.4713 13.3949 15.2478C14.2459 14.959 14.9873 15.0748 15.8145 15.3585C16.0365 15.433 16.246 15.4687 16.4805 15.4687C16.7281 14.478 16.5625 13.4274 16.5625 12.4062ZM14.9097 13.1419C15.0225 13.3056 15.0235 13.4713 15.0039 13.6641C14.9554 13.8458 14.8276 13.9696 14.6758 14.0742C14.5117 14.1546 14.3235 14.159 14.1477 14.112C13.9801 14.0381 13.8489 13.899 13.7687 13.7354C13.7166 13.5712 13.717 13.3769 13.7871 13.218C13.8824 13.0556 14.0314 12.9281 14.2109 12.8711C14.5236 12.834 14.708 12.9059 14.9097 13.1419ZM11.8472 13.1419C11.96 13.3056 11.961 13.4713 11.9414 13.6641C11.8929 13.8458 11.7651 13.9696 11.6133 14.0742C11.4492 14.1546 11.261 14.159 11.0852 14.112C10.9176 14.0381 10.7864 13.899 10.7062 13.7354C10.6541 13.5712 10.6545 13.3769 10.7246 13.218C10.8199 13.0556 10.9689 12.9281 11.1484 12.8711C11.4611 12.834 11.6455 12.9059 11.8472 13.1419ZM7.52197 12.9155C7.57972 12.9999 7.58313 13.0441 7.5664 13.1445C7.52538 13.2129 7.52538 13.2129 7.45702 13.2539C7.35663 13.2706 7.31243 13.2672 7.22802 13.2095C7.17027 13.1251 7.16685 13.0809 7.18359 12.9805C7.2246 12.9121 7.2246 12.9121 7.29296 12.8711C7.39336 12.8544 7.43756 12.8578 7.52197 12.9155ZM4.45947 12.9155C4.51722 12.9999 4.52063 13.0441 4.5039 13.1445C4.46288 13.2129 4.46288 13.2129 4.39452 13.2539C4.29412 13.2706 4.24993 13.2672 4.16552 13.2095C4.10777 13.1251 4.10435 13.0809 4.12109 12.9805C4.1621 12.9121 4.1621 12.9121 4.23046 12.8711C4.33086 12.8544 4.37506 12.8578 4.45947 12.9155ZM9.22219 13.5794C9.33499 13.7431 9.33598 13.9088 9.3164 14.1016C9.26791 14.2833 9.14012 14.4071 8.98827 14.5117C8.82424 14.5921 8.63601 14.5965 8.4602 14.5495C8.29261 14.4756 8.16141 14.3365 8.08123 14.1729C8.02911 14.0087 8.02948 13.8144 8.0996 13.6555C8.19488 13.4931 8.34391 13.3656 8.52343 13.3086C8.83609 13.2715 9.02049 13.3434 9.22219 13.5794ZM6.15969 13.5794C6.27249 13.7431 6.27348 13.9088 6.2539 14.1016C6.20541 14.2833 6.07762 14.4071 5.92577 14.5117C5.76174 14.5921 5.57351 14.5965 5.3977 14.5495C5.23011 14.4756 5.09891 14.3365 5.01873 14.1729C4.96661 14.0087 4.96698 13.8144 5.0371 13.6555C5.13238 13.4931 5.28141 13.3656 5.46093 13.3086C5.77359 13.2715 5.95799 13.3434 6.15969 13.5794ZM15.8345 14.228C15.8922 14.3124 15.8956 14.3566 15.8789 14.457C15.8379 14.5254 15.8379 14.5254 15.7695 14.5664C15.6691 14.5831 15.6249 14.5797 15.5405 14.522C15.4828 14.4376 15.4794 14.3934 15.4961 14.293C15.5371 14.2246 15.5371 14.2246 15.6055 14.1836C15.7059 14.1669 15.7501 14.1703 15.8345 14.228ZM12.772 14.228C12.8297 14.3124 12.8331 14.3566 12.8164 14.457C12.7754 14.5254 12.7754 14.5254 12.707 14.5664C12.6066 14.5831 12.5624 14.5797 12.478 14.522C12.4203 14.4376 12.4169 14.3934 12.4336 14.293C12.4746 14.2246 12.4746 14.2246 12.543 14.1836C12.6434 14.1669 12.6876 14.1703 12.772 14.228Z" fill="#484848"/>
<path d="M15.891 10.6492C15.8703 10.6491 15.8496 10.649 15.8283 10.6489C15.7588 10.6487 15.6892 10.6488 15.6197 10.6489C15.5694 10.6488 15.5192 10.6487 15.4689 10.6485C15.3306 10.6482 15.1923 10.6482 15.054 10.6483C14.9049 10.6483 14.7558 10.648 14.6067 10.6477C14.3145 10.6473 14.0223 10.6471 13.7301 10.6471C13.4927 10.6471 13.2552 10.647 13.0178 10.6468C12.3448 10.6463 11.6719 10.6461 10.9989 10.6461C10.9717 10.6461 10.9717 10.6461 10.944 10.6461C10.9073 10.6461 10.8706 10.6461 10.8339 10.6461C10.2632 10.6461 9.69246 10.6457 9.12174 10.645C8.48059 10.6441 7.83945 10.6437 7.19831 10.6437C6.85881 10.6437 6.51931 10.6436 6.17982 10.643C5.89078 10.6425 5.60174 10.6424 5.3127 10.6428C5.1652 10.6429 5.0177 10.6429 4.8702 10.6425C4.73518 10.642 4.60017 10.6421 4.46515 10.6426C4.41629 10.6427 4.36744 10.6426 4.31858 10.6423C3.8276 10.6394 3.8276 10.6394 3.62228 10.8193C3.60755 10.8371 3.59282 10.8549 3.57764 10.8733C3.56248 10.891 3.54732 10.9087 3.53171 10.927C3.31767 11.2376 3.4375 11.5764 3.4375 11.9687C7.76875 11.9687 12.1 11.9687 16.5625 11.9687C16.5625 11.0271 16.5625 11.0271 16.3994 10.841C16.3816 10.8263 16.3638 10.8116 16.3455 10.7964C16.3277 10.7812 16.31 10.7661 16.2917 10.7504C16.1626 10.6615 16.0446 10.6483 15.891 10.6492Z" fill="#484848"/>
<path d="M13.3106 15.6722C12.5101 15.933 11.7759 15.8889 10.9865 15.6307C10.2455 15.3892 9.56746 15.4301 8.83759 15.6833C8.03795 15.9585 7.27258 15.8703 6.48637 15.6116C5.76217 15.376 5.0984 15.4455 4.39117 15.6897C4.17539 15.7634 3.96366 15.8169 3.73828 15.8516C3.7963 16.0232 3.91511 16.1338 4.03906 16.2617C4.0557 16.2791 4.07234 16.2964 4.08948 16.3143C4.47333 16.6813 4.984 16.7987 5.49839 16.7952C5.53906 16.7953 5.57973 16.7955 5.62039 16.7957C5.73091 16.7961 5.84142 16.7959 5.95194 16.7956C6.0716 16.7953 6.19127 16.7957 6.31093 16.796C6.54488 16.7965 6.77881 16.7964 7.01276 16.7961C7.203 16.7958 7.39324 16.7958 7.58349 16.7959C7.61063 16.7959 7.63778 16.7959 7.66575 16.796C7.7209 16.796 7.77606 16.796 7.83122 16.7961C8.34762 16.7964 8.86402 16.796 9.38042 16.7954C9.82287 16.7949 10.2653 16.795 10.7078 16.7955C11.2224 16.7961 11.737 16.7963 12.2517 16.796C12.3066 16.796 12.3616 16.7959 12.4165 16.7959C12.4435 16.7959 12.4706 16.7959 12.4984 16.7959C12.6883 16.7958 12.8782 16.7959 13.068 16.7962C13.2996 16.7965 13.5312 16.7964 13.7628 16.7958C13.8808 16.7955 13.9988 16.7954 14.1168 16.7958C14.2251 16.7961 14.3334 16.7959 14.4417 16.7953C14.4806 16.7952 14.5195 16.7953 14.5584 16.7955C15.0913 16.7989 15.5713 16.6357 15.9603 16.2661C16.0713 16.156 16.1787 16.0393 16.2617 15.9063C16.2617 15.8882 16.2617 15.8702 16.2617 15.8516C16.2465 15.8484 16.2313 15.8453 16.2156 15.8421C15.898 15.7756 15.5894 15.6988 15.2837 15.5894C14.6235 15.3559 13.9593 15.4597 13.3106 15.6722Z" fill="#484848"/>
<path d="M9.3164 5.07815C9.28714 5.09112 9.25789 5.10409 9.22775 5.11745C8.77623 5.33843 8.47954 5.70234 8.30468 6.1719C8.16615 6.62186 8.21783 7.13891 8.42944 7.55446C8.65717 7.97399 9.00917 8.24793 9.45312 8.41408C9.92979 8.55524 10.4557 8.49561 10.8883 8.26074C11.3125 8.01596 11.5821 7.62838 11.7266 7.16535C11.8097 6.80982 11.793 6.3681 11.6406 6.03518C11.6212 5.99129 11.6212 5.99129 11.6013 5.94652C11.3803 5.49501 11.0164 5.19832 10.5469 5.02346C10.1664 4.90585 9.68049 4.91148 9.3164 5.07815ZM10.1453 5.92068C10.224 6.0228 10.2234 6.11279 10.2274 6.23801C10.2285 6.27229 10.2297 6.30657 10.2309 6.34189C10.2319 6.37772 10.233 6.41355 10.2341 6.45046C10.2353 6.48697 10.2365 6.52348 10.2377 6.56C10.2406 6.64938 10.2434 6.73876 10.2461 6.82815C10.2691 6.83904 10.2922 6.84993 10.3159 6.86115C10.3459 6.87564 10.3759 6.89012 10.4067 6.90505C10.4515 6.92646 10.4515 6.92646 10.4971 6.94831C10.5803 6.98803 10.5803 6.98803 10.6289 7.07424C10.6415 7.1731 10.6413 7.22016 10.5845 7.30324C10.4987 7.36196 10.4588 7.35801 10.3555 7.34768C10.278 7.31978 10.2062 7.28327 10.1333 7.24514C10.1045 7.23086 10.1045 7.23086 10.0751 7.2163C9.94065 7.14769 9.8312 7.0874 9.78124 6.93752C9.77499 6.81392 9.775 6.69025 9.77467 6.5665C9.77441 6.50565 9.77356 6.44482 9.7727 6.38397C9.77252 6.345 9.77238 6.30603 9.77227 6.26707C9.77202 6.23179 9.77176 6.19651 9.7715 6.16017C9.78205 6.05445 9.80766 5.98841 9.86327 5.89846C9.96705 5.84657 10.0539 5.84911 10.1453 5.92068Z" fill="#484848"/>
<path d="M10.3863 3.20335C10.2673 3.23481 10.1932 3.32428 10.1094 3.41014C10.0829 3.43612 10.0563 3.46203 10.0297 3.4879C9.78431 3.72822 9.78431 3.72822 9.77293 3.86703C9.77474 3.99076 9.81678 4.06372 9.88699 4.16626C9.89778 4.18227 9.90858 4.19829 9.9197 4.21478C9.94241 4.24828 9.96535 4.28161 9.98853 4.31479C10.0241 4.36569 10.0589 4.41702 10.0937 4.46848C10.2636 4.7177 10.2636 4.7177 10.3281 4.74998C10.521 4.76554 10.521 4.76554 10.6152 4.70897C10.6736 4.61171 10.6823 4.53012 10.6562 4.42186C10.609 4.33375 10.5535 4.25461 10.4922 4.17577C10.7714 4.24169 10.7714 4.24169 11.0373 4.34666C11.1548 4.40253 11.2375 4.4121 11.3672 4.39452C11.4355 4.35521 11.4355 4.35521 11.4766 4.28514C11.493 4.19972 11.5004 4.12314 11.4766 4.03905C11.378 3.93915 11.263 3.89236 11.1331 3.84593C11.114 3.83893 11.0949 3.83193 11.0752 3.82472C10.911 3.76583 10.7447 3.7204 10.5742 3.68358C10.5941 3.65318 10.5941 3.65318 10.6145 3.62216C10.6756 3.51204 10.6701 3.45296 10.6562 3.32811C10.5909 3.21926 10.5127 3.19591 10.3863 3.20335Z" fill="#484848"/>
<path d="M12.0508 4.61326C11.9704 4.66966 11.9704 4.66966 11.9141 4.74998C11.8968 4.88768 11.9152 4.9633 12.0002 5.07349C12.0124 5.08855 12.0245 5.1036 12.0371 5.11912C12.2277 5.36958 12.3767 5.6421 12.4914 5.93569C12.5156 5.98045 12.5156 5.98045 12.5976 6.03513C12.7169 6.0506 12.7698 6.04862 12.8694 5.97874C12.9414 5.87611 12.937 5.83116 12.9258 5.70701C12.9006 5.62452 12.8664 5.54757 12.8301 5.46946C12.8202 5.44789 12.8104 5.42633 12.8003 5.40411C12.7132 5.21823 12.6101 5.05214 12.4883 4.8867C12.4727 4.8647 12.457 4.84271 12.441 4.82005C12.3286 4.66469 12.2565 4.58843 12.0508 4.61326Z" fill="#484848"/>
<path d="M11.7773 8.6328C11.7116 8.67171 11.6582 8.70843 11.5996 8.75585C11.3491 8.94647 11.0766 9.09547 10.783 9.21012C10.7383 9.23436 10.7383 9.23436 10.6836 9.31639C10.6681 9.43568 10.6701 9.48859 10.74 9.58812C10.8426 9.66018 10.8876 9.6557 11.0117 9.64452C11.0942 9.61933 11.1711 9.5852 11.2493 9.54881C11.2708 9.53895 11.2924 9.52908 11.3147 9.51891C11.5802 9.39425 11.9697 9.2051 12.1055 8.93358C12.1201 8.82385 12.1145 8.78212 12.0491 8.6909C11.9471 8.61714 11.9014 8.619 11.7773 8.6328Z" fill="#484848"/>
<path d="M7.21095 7.40232C7.13063 7.45871 7.13063 7.45871 7.07423 7.53903C7.05587 7.70489 7.10156 7.8212 7.16994 7.96799C7.1798 7.98958 7.18967 8.01116 7.19984 8.0334C7.3245 8.29897 7.51365 8.68843 7.78517 8.82419C7.8949 8.83882 7.93663 8.83323 8.02785 8.76779C8.10161 8.66582 8.09975 8.62008 8.08595 8.49607C8.04704 8.43037 8.01032 8.37693 7.9629 8.31833C7.77228 8.06787 7.62328 7.79535 7.50863 7.50176C7.44234 7.3794 7.33311 7.38757 7.21095 7.40232Z" fill="#484848"/>
<path d="M12.707 6.69142C12.6217 6.75442 12.6093 6.81636 12.5919 6.9185C12.5867 6.94729 12.5815 6.97609 12.5761 7.00576C12.5708 7.03625 12.5655 7.06674 12.5601 7.09816C12.5095 7.3708 12.4489 7.61791 12.3242 7.8672C12.3088 8.05904 12.3088 8.05904 12.3635 8.15431C12.4518 8.20595 12.5183 8.20959 12.619 8.21252C12.7108 8.18651 12.7375 8.13746 12.7891 8.05861C12.8197 7.99289 12.8465 7.92988 12.8711 7.86207C12.878 7.84317 12.885 7.82427 12.8921 7.8048C12.9964 7.50959 13.1324 7.11448 13.0625 6.80079C12.947 6.66403 12.8814 6.65471 12.707 6.69142Z" fill="#484848"/>
<path d="M7.38098 5.22498C7.28798 5.25134 7.26283 5.29817 7.21093 5.37889C7.17353 5.45814 7.14302 5.53909 7.11352 5.62157C7.10524 5.64453 7.09695 5.6675 7.08841 5.69116C6.98697 5.98084 6.87609 6.32873 6.9375 6.6367C6.99894 6.71246 7.03368 6.74187 7.12719 6.77171C7.22872 6.77379 7.26912 6.75465 7.34765 6.69139C7.41523 6.58965 7.42173 6.4729 7.43823 6.35472C7.4765 6.10314 7.53333 5.84791 7.65196 5.6205C7.69362 5.53268 7.69073 5.44631 7.67578 5.35155C7.60452 5.22762 7.51248 5.2288 7.38098 5.22498Z" fill="#484848"/>
<path d="M8.63282 9.04299C8.56446 9.08229 8.56446 9.08229 8.52344 9.15236C8.50698 9.23778 8.4996 9.31436 8.52344 9.39846C8.63003 9.50925 8.76116 9.55457 8.90284 9.60524C8.9258 9.61353 8.94877 9.62181 8.97243 9.63035C9.2621 9.7318 9.61 9.84267 9.91797 9.78127C9.99373 9.71983 10.0231 9.68508 10.053 9.59157C10.0551 9.49005 10.0359 9.44964 9.97266 9.37111C9.88251 9.31421 9.79905 9.3054 9.6941 9.29421C9.53608 9.27336 9.38722 9.24014 9.23438 9.19509C9.21509 9.18947 9.1958 9.18386 9.17593 9.17807C9.08769 9.15122 9.00976 9.12206 8.92697 9.08037C8.81685 9.02577 8.75464 9.02923 8.63282 9.04299Z" fill="#484848"/>
<path d="M5.51563 13.7187C5.44727 13.7598 5.44727 13.7598 5.40626 13.8281C5.38463 13.9381 5.38926 14.0185 5.44727 14.1152C5.54396 14.1732 5.62443 14.1779 5.73438 14.1562C5.80274 14.1152 5.80274 14.1152 5.84376 14.0469C5.86538 13.9369 5.86075 13.8564 5.80274 13.7598C5.70606 13.7017 5.62558 13.6971 5.51563 13.7187Z" fill="#484848"/>
<path d="M8.57813 13.7187C8.50977 13.7598 8.50977 13.7598 8.46876 13.8281C8.44713 13.9381 8.45176 14.0185 8.50977 14.1152C8.60646 14.1732 8.68693 14.1779 8.79688 14.1562C8.86524 14.1152 8.86524 14.1152 8.90626 14.0469C8.92788 13.9369 8.92325 13.8564 8.86524 13.7598C8.76856 13.7017 8.68808 13.6971 8.57813 13.7187Z" fill="#484848"/>
<path d="M11.2031 13.2812C11.1348 13.3223 11.1348 13.3223 11.0938 13.3906C11.0721 13.5006 11.0768 13.581 11.1348 13.6777C11.2315 13.7357 11.3119 13.7404 11.4219 13.7187C11.4902 13.6777 11.4902 13.6777 11.5313 13.6094C11.5529 13.4994 11.5483 13.4189 11.4902 13.3223C11.3936 13.2642 11.3131 13.2596 11.2031 13.2812Z" fill="#484848"/>
<path d="M14.2656 13.2812C14.1973 13.3223 14.1973 13.3223 14.1563 13.3906C14.1346 13.5006 14.1393 13.581 14.1973 13.6777C14.294 13.7357 14.3744 13.7404 14.4844 13.7187C14.5527 13.6777 14.5527 13.6777 14.5938 13.6094C14.6154 13.4994 14.6108 13.4189 14.5527 13.3223C14.4561 13.2642 14.3756 13.2596 14.2656 13.2812Z" fill="#484848"/>
</g>
<defs>
<clipPath id="clip0_110_442">
<rect width="14" height="14" fill="white" transform="matrix(-1 0 0 1 17 3)"/>
</clipPath>
</defs>
</svg>
