<svg width="20" height="20" viewBox="0 0 20 20" fill="none" xmlns="http://www.w3.org/2000/svg">
<path d="M4.35968 9.9885C4.41038 9.98837 4.46107 9.9882 4.51177 9.98798C4.65052 9.98753 4.78927 9.98775 4.92802 9.98809C5.07787 9.98833 5.22773 9.98795 5.37758 9.98765C5.67092 9.98717 5.96426 9.98727 6.25761 9.98759C6.49604 9.98784 6.73448 9.98787 6.97291 9.98775C7.00687 9.98773 7.04082 9.98772 7.0758 9.9877C7.14478 9.98766 7.21376 9.98763 7.28274 9.98759C7.91091 9.98729 8.53908 9.9876 9.16725 9.98818C9.74032 9.98869 10.3134 9.98865 10.8865 9.98813C11.5308 9.98754 12.1751 9.98731 12.8194 9.98765C12.8881 9.98768 12.9568 9.98772 13.0256 9.98775C13.0594 9.98777 13.0932 9.98778 13.128 9.9878C13.3661 9.9879 13.6042 9.98774 13.8424 9.98748C14.1326 9.98717 14.4228 9.98726 14.713 9.98784C14.8611 9.98812 15.0091 9.98824 15.1572 9.98788C15.2928 9.98755 15.4284 9.98773 15.564 9.98831C15.6129 9.98843 15.6619 9.98837 15.7109 9.9881C16.0926 9.9862 16.3982 10.0289 16.6848 10.3025C16.9511 10.5815 17.0015 10.8761 16.9991 11.2512C16.9993 11.2908 16.9994 11.3305 16.9997 11.3702C17.0002 11.4771 17 11.584 16.9996 11.6909C16.9994 11.8034 16.9996 11.916 16.9998 12.0285C17 12.2176 16.9997 12.4067 16.9992 12.5958C16.9986 12.8133 16.9988 13.0308 16.9994 13.2483C16.9999 13.436 17 13.6237 16.9997 13.8114C16.9995 13.9231 16.9995 14.0348 16.9999 14.1465C17.0002 14.2517 16.9999 14.3569 16.9993 14.4621C16.9992 14.5003 16.9992 14.5385 16.9995 14.5768C17.0033 15.237 16.7504 15.8233 16.3028 16.3059C15.8057 16.7818 15.2162 16.997 14.5335 16.9954C14.4928 16.9955 14.4521 16.9956 14.4115 16.9958C14.3003 16.9961 14.1891 16.9961 14.078 16.996C13.9578 16.996 13.8377 16.9963 13.7176 16.9966C13.4824 16.997 13.2473 16.9972 13.0121 16.9972C12.8209 16.9972 12.6296 16.9974 12.4384 16.9975C11.8955 16.998 11.3527 16.9983 10.8099 16.9982C10.7807 16.9982 10.7514 16.9982 10.7213 16.9982C10.692 16.9982 10.6628 16.9982 10.6326 16.9982C10.1584 16.9982 9.68424 16.9987 9.21005 16.9995C8.72259 17.0003 8.23513 17.0006 7.74766 17.0006C7.47422 17.0006 7.20078 17.0007 6.92734 17.0013C6.69448 17.0018 6.46163 17.0019 6.22877 17.0016C6.11012 17.0014 5.99146 17.0014 5.87281 17.0018C5.76389 17.0023 5.65499 17.0022 5.54607 17.0017C5.50696 17.0016 5.46784 17.0017 5.42873 17.002C4.7687 17.0069 4.16244 16.7541 3.68472 16.3002C3.30974 15.8971 3.01168 15.332 3.00948 14.7717C3.00928 14.7375 3.00909 14.7033 3.00888 14.6681C3.00881 14.6304 3.00873 14.5927 3.00866 14.555C3.00849 14.5152 3.00831 14.4753 3.00812 14.4354C3.00755 14.3047 3.00726 14.174 3.00699 14.0433C3.00688 13.9982 3.00677 13.9531 3.00665 13.908C3.00613 13.696 3.00575 13.484 3.00552 13.272C3.00525 13.0278 3.00453 12.7836 3.00343 12.5394C3.00261 12.3504 3.0022 12.1613 3.00211 11.9722C3.00205 11.8594 3.00181 11.7467 3.00112 11.6339C3.00048 11.5277 3.00037 11.4215 3.00065 11.3153C3.00066 11.2765 3.00049 11.2377 3.00011 11.1989C2.99684 10.8424 3.06312 10.565 3.31366 10.3025C3.62181 10.0084 3.95404 9.9863 4.35968 9.9885ZM3.64112 10.63C3.40485 10.9707 3.40485 10.9707 3.47739 11.7488C7.79081 11.7488 12.1042 11.7488 16.5484 11.7488C16.5888 11.1548 16.5888 11.1548 16.3574 10.63C16.1443 10.4639 15.9533 10.4356 15.6865 10.4355C15.6565 10.4354 15.6565 10.4354 15.6258 10.4353C15.5587 10.4352 15.4917 10.4353 15.4246 10.4353C15.376 10.4353 15.3274 10.4352 15.2788 10.4351C15.1453 10.435 15.0118 10.435 14.8783 10.435C14.7342 10.435 14.5902 10.4349 14.4462 10.4347C14.1641 10.4345 13.882 10.4344 13.5999 10.4344C13.3706 10.4344 13.1413 10.4343 12.9121 10.4343C12.2621 10.434 11.6121 10.4339 10.9622 10.4339C10.9271 10.4339 10.8921 10.4339 10.856 10.4339C10.8209 10.4339 10.7858 10.4339 10.7497 10.4339C10.1809 10.4339 9.61221 10.4337 9.04349 10.4333C8.4596 10.4329 7.87572 10.4327 7.29183 10.4327C6.96399 10.4327 6.63615 10.4327 6.30831 10.4324C6.02922 10.4321 5.75013 10.4321 5.47104 10.4322C5.32865 10.4323 5.18625 10.4323 5.04386 10.4321C4.91347 10.4319 4.78309 10.4319 4.65271 10.4322C4.60557 10.4322 4.55844 10.4321 4.5113 10.432C4.04762 10.4276 4.04762 10.4276 3.64112 10.63ZM3.47739 12.1854C3.39584 13.715 3.39584 13.715 3.55925 15.2144C3.87884 15.1986 4.17002 15.1253 4.46914 15.0159C5.29391 14.7143 6.08738 14.7948 6.89979 15.0829C7.5929 15.3259 8.2624 15.225 8.93951 14.9939C9.7207 14.7294 10.4524 14.7781 11.2249 15.0419C11.9289 15.2818 12.5713 15.2619 13.2738 15.0234C14.1244 14.7358 14.9027 14.7856 15.7411 15.0829C15.9676 15.1623 16.1969 15.2275 16.4392 15.2144C16.4526 15.1661 16.4656 15.1178 16.4784 15.0694C16.4857 15.0425 16.493 15.0156 16.5005 14.9879C16.6871 14.0724 16.5484 13.1197 16.5484 12.1854C12.2349 12.1854 7.92152 12.1854 3.47739 12.1854ZM4.42719 15.4894C4.22158 15.5597 4.01946 15.6147 3.80485 15.651C3.96012 15.99 4.32628 16.2611 4.66282 16.399C5.03041 16.5304 5.39582 16.5598 5.78418 16.5584C5.82228 16.5585 5.86039 16.5586 5.8985 16.5587C6.00194 16.5589 6.10539 16.5588 6.20883 16.5586C6.32089 16.5585 6.43294 16.5587 6.545 16.5588C6.76402 16.5591 6.98303 16.559 7.20205 16.5589C7.38017 16.5588 7.5583 16.5587 7.73642 16.5588C7.77455 16.5588 7.77455 16.5588 7.81346 16.5588C7.86512 16.5588 7.91678 16.5589 7.96845 16.5589C8.45202 16.559 8.93559 16.5588 9.41915 16.5586C9.8334 16.5583 10.2476 16.5584 10.6619 16.5586C11.1438 16.5589 11.6257 16.559 12.1077 16.5588C12.1591 16.5588 12.2106 16.5588 12.2621 16.5588C12.3 16.5588 12.3 16.5588 12.3388 16.5588C12.5165 16.5587 12.6943 16.5588 12.872 16.5589C13.0889 16.5591 13.3057 16.559 13.5226 16.5588C13.633 16.5586 13.7435 16.5585 13.854 16.5587C13.9554 16.5589 14.0568 16.5588 14.1582 16.5585C14.2116 16.5584 14.2651 16.5586 14.3186 16.5588C14.9552 16.556 15.5216 16.4162 15.9804 15.9563C16.1268 15.8233 16.1268 15.8233 16.1936 15.651C16.1788 15.6477 16.1641 15.6444 16.1488 15.6411C15.8833 15.5816 15.6218 15.5192 15.3648 15.4293C14.7126 15.2057 14.0918 15.2156 13.44 15.4305C12.579 15.7137 11.8152 15.7116 10.9565 15.4305C10.2341 15.1949 9.60154 15.2378 8.88381 15.4719C8.05631 15.74 7.29269 15.6864 6.47826 15.4115C5.77006 15.1732 5.12149 15.2503 4.42719 15.4894Z" fill="#484848"/>
<path d="M10.6811 4.87222C10.7102 4.88517 10.7394 4.89811 10.7695 4.91144C11.22 5.13194 11.5161 5.49505 11.6906 5.96358C11.8079 6.34306 11.8025 6.82826 11.636 7.19135C11.6227 7.22086 11.6095 7.25037 11.5958 7.28077C11.3731 7.73208 11.0119 8.02599 10.5446 8.20086C10.069 8.34171 9.54422 8.28221 9.11256 8.04785C8.68936 7.8036 8.42029 7.41687 8.27613 6.95486C8.19324 6.60011 8.20986 6.15935 8.36192 5.82716C8.38134 5.78337 8.38134 5.78337 8.40114 5.7387C8.62164 5.28818 8.98475 4.99213 9.45328 4.81766C9.83293 4.7003 10.3178 4.70592 10.6811 4.87222ZM8.97592 5.71088C8.72694 6.02071 8.68566 6.36944 8.71661 6.75481C8.77106 7.03636 8.91374 7.27275 9.12587 7.46419C9.14539 7.48387 9.14539 7.48387 9.16531 7.50395C9.43012 7.75661 9.76829 7.80484 10.1182 7.79917C10.4217 7.78675 10.6692 7.6532 10.8908 7.45226C10.922 7.41765 10.922 7.41765 10.9539 7.38234C10.967 7.36933 10.9801 7.35632 10.9936 7.34291C11.2463 7.07809 11.2945 6.73992 11.2889 6.39C11.2764 6.08655 11.1429 5.83897 10.942 5.61741C10.9073 5.58618 10.9073 5.58618 10.872 5.55432C10.859 5.5412 10.846 5.52808 10.8326 5.51457C10.5619 5.25628 10.2167 5.21152 9.86041 5.21753C9.49397 5.23443 9.20799 5.44124 8.97592 5.71088Z" fill="#484848"/>
<path d="M9.61351 3.00126C9.73232 3.03266 9.80624 3.12192 9.88986 3.2076C9.91631 3.23352 9.94282 3.25938 9.96937 3.28519C10.2142 3.52498 10.2142 3.52498 10.2256 3.66349C10.2238 3.78694 10.1818 3.85974 10.1118 3.96206C10.101 3.97804 10.0902 3.99402 10.0791 4.01048C10.0565 4.0439 10.0336 4.07716 10.0104 4.11027C9.97497 4.16106 9.9402 4.21228 9.90553 4.26362C9.73602 4.5123 9.73602 4.5123 9.67159 4.54451C9.47918 4.56003 9.47918 4.56003 9.38511 4.50358C9.32688 4.40654 9.31817 4.32512 9.34419 4.2171C9.39135 4.12919 9.4467 4.05022 9.50789 3.97155C9.22926 4.03733 9.22926 4.03733 8.96392 4.14207C8.84669 4.19781 8.76417 4.20736 8.6348 4.18982C8.56659 4.1506 8.56659 4.1506 8.52567 4.08068C8.50925 3.99545 8.50188 3.91904 8.52567 3.83513C8.63388 3.72152 8.76996 3.6782 8.91446 3.62709C8.93652 3.61893 8.95857 3.61077 8.98129 3.60236C9.12797 3.54932 9.27318 3.51144 9.42604 3.48044C9.41253 3.46243 9.39903 3.44442 9.38511 3.42587C9.32894 3.31353 9.33028 3.25091 9.34419 3.12575C9.40935 3.01714 9.4874 2.99383 9.61351 3.00126Z" fill="#484848"/>
<path d="M14.6772 13.0996C14.8362 13.1956 14.9649 13.3448 15.02 13.5225C15.042 13.7363 15.0507 13.9486 14.9109 14.1227C14.7798 14.2604 14.6609 14.3575 14.467 14.3774C14.2346 14.38 14.0739 14.3715 13.9023 14.2081C13.7282 14.0197 13.6973 13.8717 13.7021 13.6165C13.721 13.402 13.8208 13.2892 13.9805 13.1526C14.1733 13.0198 14.4632 13.0047 14.6772 13.0996ZM14.2185 13.5668C14.1609 13.651 14.1575 13.6951 14.1742 13.7953C14.2151 13.8635 14.2151 13.8635 14.2833 13.9044C14.3835 13.9211 14.4276 13.9177 14.5118 13.8601C14.5695 13.7759 14.5729 13.7318 14.5562 13.6316C14.5152 13.5634 14.5152 13.5634 14.447 13.5225C14.3469 13.5058 14.3028 13.5092 14.2185 13.5668Z" fill="#484848"/>
<path d="M11.621 13.0996C11.7799 13.1956 11.9087 13.3448 11.9637 13.5225C11.9857 13.7363 11.9944 13.9486 11.8546 14.1227C11.7235 14.2604 11.6046 14.3575 11.4107 14.3774C11.1783 14.38 11.0176 14.3715 10.846 14.2081C10.6719 14.0197 10.641 13.8717 10.6458 13.6165C10.6647 13.402 10.7645 13.2892 10.9243 13.1526C11.117 13.0198 11.407 13.0047 11.621 13.0996ZM11.1623 13.5668C11.1046 13.651 11.1012 13.6951 11.1179 13.7953C11.1588 13.8635 11.1588 13.8635 11.2271 13.9044C11.3272 13.9211 11.3713 13.9177 11.4556 13.8601C11.5132 13.7759 11.5166 13.7318 11.4999 13.6316C11.459 13.5634 11.459 13.5634 11.3908 13.5225C11.2906 13.5058 11.2465 13.5092 11.1623 13.5668Z" fill="#484848"/>
<path d="M9.00134 12.6629C9.16026 12.759 9.28904 12.9082 9.34409 13.0858C9.36606 13.2996 9.37477 13.512 9.23495 13.6861C9.10387 13.8237 8.98499 13.9209 8.79106 13.9408C8.5587 13.9433 8.39799 13.9348 8.22641 13.7714C8.05229 13.5831 8.02136 13.435 8.02615 13.1798C8.04512 12.9653 8.1449 12.8526 8.30464 12.716C8.49738 12.5832 8.78732 12.5681 9.00134 12.6629ZM8.54263 13.1302C8.485 13.2144 8.48159 13.2585 8.49829 13.3587C8.53922 13.4269 8.53922 13.4269 8.60742 13.4678C8.7076 13.4845 8.75171 13.4811 8.83593 13.4235C8.89355 13.3392 8.89696 13.2951 8.88026 13.195C8.83934 13.1267 8.83934 13.1267 8.77113 13.0858C8.67095 13.0691 8.62685 13.0725 8.54263 13.1302Z" fill="#484848"/>
<path d="M5.94509 12.6629C6.10402 12.759 6.23279 12.9082 6.28785 13.0858C6.30981 13.2996 6.31853 13.512 6.17871 13.6861C6.04763 13.8237 5.92874 13.9209 5.73481 13.9408C5.50246 13.9433 5.34175 13.9348 5.17017 13.7714C4.99604 13.5831 4.96511 13.435 4.96991 13.1798C4.98888 12.9653 5.08865 12.8526 5.24839 12.716C5.44114 12.5832 5.73108 12.5681 5.94509 12.6629ZM5.48638 13.1302C5.42876 13.2144 5.42535 13.2585 5.44205 13.3587C5.48297 13.4269 5.48297 13.4269 5.55118 13.4678C5.65136 13.4845 5.69546 13.4811 5.77968 13.4235C5.83731 13.3392 5.84072 13.2951 5.82402 13.195C5.78309 13.1267 5.78309 13.1267 5.71488 13.0858C5.61471 13.0691 5.5706 13.0725 5.48638 13.1302Z" fill="#484848"/>
<path d="M10.0564 5.62563C10.1374 5.64226 10.1711 5.67873 10.2174 5.74542C10.2696 5.8965 10.2508 6.0672 10.2512 6.22532C10.2515 6.2855 10.2524 6.34565 10.2532 6.40583C10.2534 6.4445 10.2535 6.48317 10.2536 6.52184C10.254 6.57416 10.254 6.57416 10.2544 6.62754C10.2416 6.75904 10.2159 6.87252 10.1119 6.96285C10.0838 6.97678 10.0838 6.97678 10.0551 6.99099C10.0342 7.00146 10.0133 7.01192 9.99173 7.0227C9.96998 7.03281 9.94822 7.04292 9.92581 7.05334C9.90459 7.06419 9.88336 7.07504 9.86149 7.08622C9.71841 7.15555 9.61224 7.17963 9.45346 7.16418C9.38525 7.12326 9.38525 7.12326 9.34432 7.05505C9.32381 6.95076 9.32464 6.8681 9.38184 6.77709C9.65103 6.59122 9.65103 6.59122 9.78087 6.59122C9.7803 6.56617 9.77972 6.54112 9.77913 6.51531C9.77727 6.42215 9.77591 6.32902 9.77487 6.23585C9.77432 6.19557 9.77358 6.15529 9.77263 6.11502C9.77131 6.05704 9.77069 5.99909 9.77021 5.9411C9.76964 5.90623 9.76907 5.87137 9.76848 5.83545C9.78087 5.74542 9.78087 5.74542 9.83269 5.67953C9.91172 5.61989 9.96046 5.62062 10.0564 5.62563Z" fill="#484848"/>
<path d="M8.22544 8.41971C8.291 8.45853 8.34431 8.49518 8.40279 8.54249C8.6527 8.73269 8.92462 8.88137 9.21758 8.99576C9.26223 9.01995 9.26223 9.01995 9.3168 9.10181C9.33223 9.22083 9.33026 9.27363 9.26053 9.37294C9.15813 9.44484 9.11327 9.44037 8.98939 9.42921C8.90709 9.40408 8.8303 9.37002 8.75236 9.33372C8.73083 9.32387 8.70929 9.31402 8.68709 9.30388C8.42211 9.1795 8.0335 8.99076 7.89804 8.71983C7.88344 8.61034 7.88902 8.5687 7.95431 8.47769C8.05606 8.40408 8.1017 8.40594 8.22544 8.41971Z" fill="#484848"/>
<path d="M12.7825 7.19167C12.8627 7.24794 12.8627 7.24794 12.9189 7.32808C12.9372 7.49358 12.8917 7.60963 12.8234 7.7561C12.8136 7.77764 12.8037 7.79918 12.7936 7.82137C12.6692 8.08636 12.4805 8.47496 12.2095 8.61043C12.1001 8.62503 12.0584 8.61945 11.9674 8.55415C11.8938 8.45241 11.8957 8.40677 11.9094 8.28302C11.9482 8.21747 11.9849 8.16415 12.0322 8.10568C12.2224 7.85576 12.3711 7.58384 12.4855 7.29089C12.5516 7.1688 12.6606 7.17695 12.7825 7.19167Z" fill="#484848"/>
<path d="M7.95247 4.40832C8.03091 4.46459 8.03091 4.46459 8.08889 4.54474C8.10625 4.68212 8.08773 4.75762 8.00295 4.86754C7.99079 4.88256 7.97864 4.89759 7.96611 4.91307C7.77591 5.16298 7.62723 5.4349 7.51284 5.72785C7.48864 5.77251 7.48864 5.77251 7.40679 5.82708C7.28777 5.84251 7.23497 5.84054 7.13566 5.77081C7.07976 5.69119 7.06599 5.65384 7.06911 5.55839C7.09187 5.42834 7.15607 5.31187 7.2141 5.19443C7.22768 5.16657 7.24127 5.1387 7.25526 5.10998C7.63896 4.34161 7.63896 4.34161 7.95247 4.40832Z" fill="#484848"/>
<path d="M7.29763 6.48221C7.38282 6.54508 7.39513 6.60688 7.41252 6.70879C7.41772 6.73753 7.42292 6.76626 7.42827 6.79586C7.43355 6.82629 7.43884 6.85671 7.44428 6.88806C7.4947 7.16011 7.55524 7.40668 7.67961 7.65542C7.69504 7.84684 7.69504 7.84684 7.64039 7.9419C7.55236 7.99343 7.48592 7.99706 7.38545 7.99998C7.29387 7.97403 7.26725 7.92509 7.21578 7.84641C7.18525 7.78084 7.15852 7.71796 7.13393 7.6503C7.12701 7.63144 7.1201 7.61258 7.11297 7.59315C7.00892 7.29859 6.87316 6.90434 6.94294 6.59135C7.05816 6.45488 7.12365 6.44558 7.29763 6.48221Z" fill="#484848"/>
<path d="M11.3634 8.82892C11.4316 8.86814 11.4316 8.86814 11.4725 8.93805C11.4889 9.02328 11.4963 9.0997 11.4725 9.18361C11.3764 9.28008 11.2661 9.32875 11.14 9.3746C11.1211 9.38151 11.1023 9.38843 11.0828 9.39555C10.7883 9.4996 10.394 9.63537 10.081 9.56558C10.0058 9.50412 9.97605 9.46948 9.94632 9.3763C9.94425 9.275 9.96334 9.23468 10.0265 9.15632C10.1164 9.09955 10.1997 9.09076 10.3044 9.07959C10.4621 9.05879 10.6106 9.02564 10.7631 8.98068C10.7824 8.97508 10.8016 8.96948 10.8214 8.9637C10.9095 8.93691 10.9873 8.90782 11.0699 8.86622C11.1797 8.81174 11.2418 8.81519 11.3634 8.82892Z" fill="#484848"/>
<path d="M12.5889 5.01886C12.6805 5.04633 12.7218 5.0999 12.7825 5.17244C12.8153 5.23878 12.8418 5.29934 12.8661 5.36854C12.8763 5.39683 12.8763 5.39683 12.8867 5.42569C12.9891 5.72081 13.1251 6.11459 13.0554 6.4275C12.9939 6.50273 12.9593 6.53247 12.8661 6.56221C12.7648 6.56428 12.7245 6.54519 12.6461 6.48207C12.5893 6.39212 12.5805 6.30884 12.5694 6.20411C12.5486 6.04644 12.5154 5.89791 12.4705 5.7454C12.4649 5.72616 12.4593 5.70691 12.4535 5.68708C12.4267 5.59904 12.3976 5.52127 12.356 5.43867C12.3015 5.32878 12.305 5.26671 12.3187 5.14515C12.3865 5.03213 12.4605 5.0232 12.5889 5.01886Z" fill="#484848"/>
<path d="M7.48869 13.9319C7.5569 13.9728 7.5569 13.9728 7.59783 14.0411C7.61941 14.1508 7.61478 14.2311 7.5569 14.3275C7.46043 14.3854 7.38013 14.39 7.27042 14.3685C7.20221 14.3275 7.20221 14.3275 7.16128 14.2593C7.1397 14.1496 7.14433 14.0693 7.20221 13.9728C7.29868 13.915 7.37898 13.9103 7.48869 13.9319Z" fill="#484848"/>
<path d="M4.43245 13.9319C4.50066 13.9728 4.50066 13.9728 4.54158 14.0411C4.56316 14.1508 4.55854 14.2311 4.50066 14.3275C4.40418 14.3854 4.32388 14.39 4.21418 14.3685C4.14597 14.3275 4.14597 14.3275 4.10504 14.2593C4.08346 14.1496 4.08808 14.0693 4.14597 13.9728C4.24244 13.915 4.32274 13.9103 4.43245 13.9319Z" fill="#484848"/>
<path d="M15.7843 12.622C15.8525 12.663 15.8525 12.663 15.8934 12.7312C15.915 12.8409 15.9103 12.9212 15.8525 13.0177C15.756 13.0755 15.6757 13.0802 15.566 13.0586C15.4978 13.0177 15.4978 13.0177 15.4568 12.9494C15.4353 12.8397 15.4399 12.7594 15.4978 12.663C15.5942 12.6051 15.6745 12.6005 15.7843 12.622Z" fill="#484848"/>
<path d="M12.728 12.622C12.7962 12.663 12.7962 12.663 12.8371 12.7312C12.8587 12.8409 12.8541 12.9212 12.7962 13.0177C12.6997 13.0755 12.6194 13.0802 12.5097 13.0586C12.4415 13.0177 12.4415 13.0177 12.4006 12.9494C12.379 12.8397 12.3836 12.7594 12.4415 12.663C12.538 12.6051 12.6183 12.6005 12.728 12.622Z" fill="#484848"/>
</svg>
