<svg width="20" height="20" viewBox="0 0 20 20" fill="none" xmlns="http://www.w3.org/2000/svg">
<path d="M10.3333 16.8666C13.2788 16.8666 15.6667 14.4788 15.6667 11.5333C15.6667 8.58776 13.2788 6.19995 10.3333 6.19995C7.38781 6.19995 5 8.58776 5 11.5333C5 14.4788 7.38781 16.8666 10.3333 16.8666Z" fill="#484848" stroke="#484848" stroke-linecap="round" stroke-linejoin="round"/>
<path d="M8.52666 6.51334L6.52666 4.08001C6.44882 3.98151 6.40038 3.86303 6.38691 3.73821C6.37343 3.61339 6.39548 3.4873 6.45051 3.37446C6.50554 3.26161 6.59131 3.1666 6.69796 3.10036C6.8046 3.03411 6.92779 2.99933 7.05333 3.00001H13.6133C13.7383 3.00058 13.8606 3.03628 13.9663 3.10302C14.0719 3.16976 14.1567 3.26485 14.2109 3.37746C14.2651 3.49006 14.2866 3.61564 14.2729 3.73987C14.2592 3.86409 14.2108 3.98195 14.1333 4.08001L12.1333 6.51334" stroke="#484848" stroke-linecap="round" stroke-linejoin="round"/>
</svg>
