<svg width="20" height="20" viewBox="0 0 20 20" fill="none" xmlns="http://www.w3.org/2000/svg">
<path d="M12.6706 5.2C12.6706 3.43269 11.259 2 9.51768 2C7.77636 2 6.36475 3.43269 6.36475 5.2V8.4C6.36475 10.1673 7.77636 11.6 9.51768 11.6C11.259 11.6 12.6706 10.1673 12.6706 8.4V5.2Z" fill="#484848" stroke="#484848" stroke-width="1.3" stroke-linecap="round" stroke-linejoin="round"/>
<path d="M4 8.39996V9.19996C4 10.6852 4.58132 12.1096 5.61608 13.1598C6.65084 14.21 8.05427 14.8 9.51764 14.8C10.981 14.8 12.3844 14.21 13.4192 13.1598C14.454 12.1096 15.0353 10.6852 15.0353 9.19996V8.39996" stroke="#484848" stroke-width="1.3" stroke-linecap="round" stroke-linejoin="round"/>
<path d="M9.51764 14.8V18" stroke="#484848" stroke-width="1.3" stroke-linecap="round" stroke-linejoin="round"/>
</svg>
