<svg width="20" height="20" viewBox="0 0 20 20" fill="none" xmlns="http://www.w3.org/2000/svg">
<path d="M13.2371 1H6.66912C5.74729 1 5 1.74729 5 2.66912V16.3309C5 17.2527 5.74729 18 6.66912 18H13.2371C14.1589 18 14.9062 17.2527 14.9062 16.3309V2.66912C14.9062 1.74729 14.1589 1 13.2371 1Z" stroke="#484848" stroke-width="1.5" stroke-linecap="round" stroke-linejoin="round"/>
<path d="M9.95729 13.9774H9.94894C9.65396 13.9774 9.41483 14.2165 9.41483 14.5115V14.5199C9.41483 14.8149 9.65396 15.054 9.94894 15.054H9.95729C10.2523 15.054 10.4914 14.8149 10.4914 14.5199V14.5115C10.4914 14.2165 10.2523 13.9774 9.95729 13.9774Z" stroke="#484848" stroke-width="1.5" stroke-linecap="round" stroke-linejoin="round"/>
</svg>
