<svg width="20" height="20" viewBox="0 0 20 20" fill="none" xmlns="http://www.w3.org/2000/svg">
<path fill-rule="evenodd" clip-rule="evenodd" d="M5.8488 13.0857C5.02724 11.6988 4.79016 10.0423 5.18971 8.48067C5.58926 6.91899 6.59272 5.57995 7.97941 4.75802C8.5905 4.39643 9.25934 4.14287 9.95656 4.00847C10.065 3.98931 10.1766 4.00282 10.2773 4.04728C10.378 4.09175 10.4631 4.16516 10.522 4.25817C10.5808 4.35119 10.6107 4.45961 10.6077 4.56964C10.6048 4.67966 10.5692 4.78633 10.5054 4.87606C9.9198 5.68088 9.56223 6.62884 9.47044 7.61994C9.37865 8.61105 9.55606 9.60855 9.98395 10.5072C10.4118 11.4059 11.0743 12.1725 11.9016 12.726C12.7288 13.2795 13.6901 13.5995 14.684 13.6523C14.7943 13.6586 14.9002 13.6978 14.9881 13.7647C15.076 13.8316 15.1419 13.9232 15.1774 14.0278C15.2129 14.1324 15.2163 14.2452 15.1873 14.3518C15.1583 14.4584 15.0982 14.5539 15.0145 14.6261C14.7533 14.8446 14.475 15.042 14.1824 15.2163C13.4954 15.624 12.7348 15.8923 11.9441 16.0059C11.1533 16.1195 10.3479 16.0761 9.57399 15.8782C8.80003 15.6804 8.07266 15.3319 7.43347 14.8527C6.79427 14.3735 6.25579 13.7731 5.8488 13.0857Z" stroke="#484848" stroke-width="0.7" stroke-linecap="round" stroke-linejoin="round"/>
</svg>
