<svg width="20" height="20" viewBox="0 0 20 20" fill="none" xmlns="http://www.w3.org/2000/svg">
<path d="M9.98686 1.00013C10.0226 1.00021 10.0583 1.00028 10.0952 1.00036C10.6081 1.00211 11.1114 1.01092 11.6152 1.11643C11.6495 1.12341 11.6837 1.13039 11.719 1.13757C13.4178 1.4929 14.9623 2.26239 16.215 3.46878C16.2498 3.50207 16.2498 3.50207 16.2852 3.53604C16.6183 3.8571 16.9252 4.18352 17.1982 4.55719C17.2283 4.5976 17.2585 4.63801 17.2886 4.67842C17.5006 4.96601 17.6888 5.26493 17.8653 5.57537C17.8781 5.59755 17.8909 5.61973 17.9041 5.64259C18.6628 6.96792 19.0057 8.46944 18.9999 9.98602C18.9999 10.0218 18.9998 10.0575 18.9997 10.0943C18.998 10.6072 18.9891 11.1104 18.8836 11.6142C18.8732 11.6656 18.8732 11.6656 18.8625 11.718C18.425 13.8093 17.3052 15.7879 15.583 17.0913C15.5641 17.1059 15.5452 17.1205 15.5257 17.1355C14.4066 17.9957 13.1231 18.5748 11.7403 18.8578C11.7151 18.863 11.6898 18.8682 11.6638 18.8735C11.1485 18.9714 10.6385 18.9995 10.1149 18.9984C10.0117 18.9982 9.90855 18.9991 9.80533 19C9.33576 19.0015 8.88294 18.9592 8.41995 18.8819C8.36006 18.872 8.36006 18.872 8.29896 18.8619C6.77971 18.5891 5.33833 17.8873 4.17128 16.8807C4.14511 16.8584 4.11895 16.8362 4.092 16.8132C3.6178 16.3985 3.17287 15.9509 2.80187 15.4412C2.77179 15.4008 2.74171 15.3605 2.71162 15.3201C2.49953 15.0325 2.31051 14.734 2.13472 14.423C2.1206 14.3982 2.10648 14.3734 2.09193 14.3478C1.63457 13.5355 1.32737 12.6517 1.14059 11.7393C1.13541 11.7141 1.13024 11.6888 1.12491 11.6628C1.02049 11.1135 0.998009 10.5702 1.00013 10.0124C1.00021 9.97662 1.00028 9.94088 1.00036 9.90406C1.00211 9.39114 1.01092 8.88794 1.11645 8.38414C1.12342 8.34992 1.1304 8.31569 1.13758 8.28043C1.49295 6.58175 2.2625 5.03734 3.46902 3.78477C3.49121 3.76162 3.51341 3.73847 3.53628 3.71462C3.85736 3.38149 4.18382 3.07464 4.55752 2.8017C4.59793 2.77157 4.63835 2.74145 4.67877 2.71132C4.96633 2.49934 5.26488 2.31035 5.57579 2.13462C5.60063 2.12049 5.62546 2.10637 5.65104 2.09183C6.4634 1.63451 7.34723 1.32734 8.25974 1.14057C8.28499 1.1354 8.31023 1.13022 8.33624 1.12489C8.88562 1.02048 9.42894 0.998009 9.98686 1.00013ZM5.22466 3.67944C5.17436 3.71651 5.17436 3.71651 5.12303 3.75432C5.09067 3.77886 5.0583 3.80339 5.02496 3.82866C4.99586 3.85056 4.96675 3.87247 4.93677 3.89504C4.85725 3.96199 4.85725 3.96199 4.87353 4.10076C4.91114 4.15909 4.91114 4.15909 4.96661 4.21095C4.98724 4.23182 5.00787 4.2527 5.02913 4.2742C5.06352 4.30791 5.06352 4.30791 5.09861 4.34231C5.12252 4.3663 5.14644 4.39029 5.17108 4.41501C5.25038 4.49438 5.33016 4.57324 5.40997 4.65209C5.46502 4.70696 5.52004 4.76187 5.57504 4.81679C5.69039 4.93187 5.80597 5.04672 5.92174 5.16139C6.07051 5.30875 6.2189 5.4565 6.36715 5.60439C6.50809 5.74497 6.64921 5.88538 6.79035 6.02576C6.81747 6.05276 6.84459 6.07976 6.87254 6.10758C6.94887 6.1835 7.02533 6.2593 7.10183 6.33506C7.12469 6.35782 7.14754 6.38058 7.17109 6.40403C7.25576 6.50863 7.25576 6.50863 7.36656 6.55844C7.36707 6.53596 7.36758 6.51348 7.36811 6.49032C7.37073 6.38793 7.37412 6.28557 7.37753 6.1832C7.37832 6.14783 7.37911 6.11246 7.37993 6.07602C7.39217 5.739 7.39217 5.739 7.50701 5.61048C7.67448 5.47366 7.8558 5.48586 8.06223 5.48101C8.09661 5.47981 8.13099 5.47861 8.16641 5.47737C8.25092 5.47449 8.33541 5.47206 8.41995 5.47004C8.42026 5.43697 8.42026 5.43697 8.42057 5.40324C8.42282 5.1737 8.42578 4.94418 8.42916 4.71466C8.43033 4.62901 8.43131 4.54336 8.43211 4.45771C8.43329 4.33455 8.43513 4.21142 8.43709 4.08828C8.43732 4.05002 8.43754 4.01176 8.43777 3.97234C8.44438 3.63158 8.44438 3.63158 8.5604 3.50389C8.70391 3.3981 8.80856 3.38527 8.98518 3.38494C9.00959 3.38475 9.03399 3.38457 9.05913 3.38438C9.13942 3.38391 9.21968 3.38422 9.29997 3.38458C9.35598 3.3845 9.41199 3.3844 9.468 3.38427C9.58523 3.38412 9.70246 3.38434 9.8197 3.38483C9.96977 3.38543 10.1198 3.38509 10.2699 3.38446C10.3855 3.38408 10.5011 3.3842 10.6167 3.38447C10.6721 3.38454 10.7274 3.38445 10.7827 3.38421C10.8601 3.38394 10.9375 3.38435 11.0149 3.38494C11.0589 3.38502 11.1029 3.3851 11.1482 3.38519C11.3051 3.40329 11.3969 3.4568 11.5022 3.5727C11.5698 3.74127 11.5619 3.90828 11.563 4.08828C11.5636 4.12777 11.5642 4.16727 11.5649 4.20796C11.5668 4.33388 11.568 4.45979 11.5691 4.58571C11.5703 4.67118 11.5715 4.75664 11.5728 4.84211C11.5758 5.05141 11.5782 5.26072 11.5801 5.47004C11.6015 5.47055 11.623 5.47106 11.645 5.47159C11.7426 5.47421 11.8402 5.4776 11.9378 5.48101C11.9715 5.4818 12.0052 5.48259 12.0399 5.48341C12.3625 5.49569 12.3625 5.49569 12.4931 5.61048C12.586 5.7406 12.611 5.82616 12.6069 5.98521C12.6062 6.02435 12.6056 6.0635 12.6049 6.10383C12.6038 6.14582 12.6027 6.18781 12.6015 6.23107C12.6008 6.32042 12.6001 6.40977 12.5996 6.49912C12.5982 6.6397 12.5964 6.78017 12.5925 6.9207C12.555 7.40271 12.555 7.40271 12.6735 7.85578C12.7815 7.96882 12.9114 8.01505 13.0549 8.06816C13.967 8.72359 14.6297 9.72448 14.9158 10.8067C14.9231 10.8331 14.9304 10.8594 14.9379 10.8865C15.1776 11.7868 15.148 12.877 14.8263 13.7517C14.7797 13.8757 14.7797 13.8757 14.802 14.0016C14.8468 14.0738 14.8933 14.128 14.9535 14.1878C14.9753 14.2095 14.9971 14.2313 15.0195 14.2538C15.0547 14.2884 15.0547 14.2884 15.0906 14.3237C15.1147 14.3477 15.1387 14.3716 15.1635 14.3963C15.2403 14.4727 15.3173 14.5488 15.3943 14.6249C15.4464 14.6767 15.4985 14.7285 15.5506 14.7803C15.6783 14.9071 15.8061 15.0338 15.9341 15.1603C16.0786 15.0952 16.1575 15.001 16.2523 14.8772C16.2691 14.8555 16.2859 14.8337 16.3032 14.8113C16.831 14.1164 17.2336 13.3528 17.5142 12.5271C17.5241 12.498 17.534 12.4689 17.5442 12.4389C17.7616 11.7879 17.9022 11.103 17.9088 10.4152C17.9092 10.3853 17.9095 10.3555 17.9099 10.3248C17.916 9.65372 17.9067 9.00722 17.76 8.34903C17.7534 8.31903 17.7469 8.28903 17.7401 8.25812C17.6961 8.06351 17.6434 7.87252 17.5844 7.68195C17.576 7.6544 17.5675 7.62685 17.5588 7.59846C17.2888 6.73544 16.8697 5.94132 16.3204 5.22427C16.2985 5.19562 16.2766 5.16697 16.2541 5.13746C16.0665 4.89727 15.8626 4.67299 15.6532 4.45186C15.6224 4.41918 15.5917 4.3865 15.56 4.35284C15.3169 4.10195 15.0543 3.88872 14.7754 3.67944C14.742 3.6541 14.7087 3.62875 14.6743 3.60264C12.0833 1.67179 8.36284 1.55354 5.22466 3.67944ZM9.47334 4.41675C9.47334 4.76433 9.47334 5.11192 9.47334 5.47004C9.82096 5.47004 10.1686 5.47004 10.5267 5.47004C10.5267 5.12245 10.5267 4.77487 10.5267 4.41675C10.1791 4.41675 9.83149 4.41675 9.47334 4.41675ZM3.94743 4.88222C2.84669 6.1469 2.10741 7.89688 2.09124 9.58322C2.0909 9.61305 2.09056 9.64287 2.0902 9.6736C2.08409 10.3447 2.09341 10.9912 2.24006 11.6493C2.24992 11.6943 2.24992 11.6943 2.25998 11.7403C2.304 11.9349 2.35663 12.1259 2.41563 12.3164C2.42407 12.344 2.43252 12.3715 2.44122 12.3999C2.81142 13.583 3.46362 14.6381 4.32603 15.5241C4.37577 15.5753 4.42486 15.6271 4.47385 15.679C4.70441 15.9186 4.95965 16.1195 5.22466 16.3189C5.25807 16.3443 5.29147 16.3697 5.32589 16.3959C6.95826 17.6117 9.06024 18.1312 11.0724 17.8568C12.4231 17.6584 13.6886 17.1477 14.7754 16.3189C14.8089 16.2942 14.8425 16.2695 14.877 16.2441C14.9094 16.2195 14.9418 16.195 14.9751 16.1697C15.0188 16.1369 15.0188 16.1369 15.0633 16.1033C15.1428 16.0364 15.1428 16.0364 15.1265 15.8976C15.0646 15.8235 15.0038 15.7585 14.9345 15.6919C14.915 15.6726 14.8955 15.6533 14.8755 15.6335C14.8132 15.572 14.7504 15.511 14.6876 15.45C14.6453 15.4084 14.603 15.3667 14.5607 15.325C14.4571 15.2229 14.353 15.1213 14.2487 15.0199C14.153 15.1143 14.0669 15.2091 13.9854 15.3161C13.9641 15.3437 13.9428 15.3712 13.9209 15.3996C13.8761 15.4585 13.8318 15.5178 13.7878 15.5772C13.6753 15.7048 13.5856 15.7532 13.4147 15.7705C13.3623 15.7712 13.3099 15.7712 13.2575 15.7708C13.2285 15.771 13.1995 15.7712 13.1697 15.7714C13.0727 15.7719 12.9757 15.7716 12.8788 15.7714C12.8092 15.7716 12.7396 15.7718 12.6701 15.7721C12.4812 15.7727 12.2922 15.7727 12.1033 15.7725C11.9457 15.7724 11.788 15.7726 11.6303 15.7728C11.2583 15.7733 10.8864 15.7732 10.5144 15.7728C10.1306 15.7724 9.74677 15.7729 9.36296 15.7739C9.03347 15.7746 8.70399 15.7749 8.37451 15.7747C8.1777 15.7746 7.9809 15.7746 7.78409 15.7752C7.59903 15.7758 7.41398 15.7757 7.22892 15.775C7.16101 15.7749 7.09309 15.775 7.02518 15.7753C6.93245 15.7758 6.83977 15.7754 6.74704 15.7748C6.72018 15.7751 6.69332 15.7755 6.66564 15.7758C6.48434 15.7733 6.38278 15.7306 6.24294 15.6167C6.1764 15.5431 6.116 15.4716 6.0564 15.3929C6.03982 15.3713 6.02324 15.3497 6.00616 15.3274C5.55499 14.7311 5.2393 14.0944 5.0491 13.3697C5.0428 13.346 5.03651 13.3224 5.03002 13.298C4.83573 12.522 4.87386 11.5724 5.08421 10.8067C5.10207 10.7396 5.10207 10.7396 5.12029 10.6711C5.36913 9.84669 5.82039 9.13699 6.41851 8.52458C6.43919 8.50213 6.45988 8.47969 6.48119 8.45656C6.67174 8.25432 6.89887 8.09354 7.12077 7.92772C6.96416 7.74031 6.79891 7.56557 6.6262 7.39299C6.59854 7.36521 6.57088 7.33744 6.54239 7.30882C6.45163 7.21774 6.36073 7.12679 6.26982 7.03585C6.20653 6.97244 6.14323 6.90903 6.07993 6.84562C5.94765 6.71314 5.8153 6.58073 5.6829 6.44837C5.52975 6.29526 5.3768 6.14195 5.22395 5.98855C5.07666 5.84077 4.92919 5.69318 4.78164 5.54567C4.71892 5.48291 4.65625 5.4201 4.59365 5.35723C4.50648 5.26973 4.41909 5.18245 4.33165 5.09522C4.30564 5.06902 4.27963 5.04281 4.25283 5.01581C4.2291 4.99224 4.20538 4.96866 4.18094 4.94437C4.1603 4.92372 4.13967 4.90307 4.11841 4.88179C4.04719 4.82244 4.01658 4.81898 3.94743 4.88222ZM8.41995 6.52333C8.41995 6.87091 8.41995 7.2185 8.41995 7.57662C9.4628 7.57662 10.5057 7.57662 11.5801 7.57662C11.5801 7.22903 11.5801 6.88145 11.5801 6.52333C10.5373 6.52333 9.4944 6.52333 8.41995 6.52333ZM9.43822 8.62991C9.46751 8.66316 9.49679 8.6964 9.52696 8.73065C9.61358 8.83149 9.69416 8.93514 9.77297 9.04217C9.92844 9.25101 10.0929 9.45104 10.2656 9.6459C10.2889 9.67228 10.2889 9.67228 10.3127 9.6992C10.7151 10.1473 11.0993 10.4359 11.7141 10.4803C12.3363 10.5131 12.9641 10.4621 13.5816 10.3854C13.4013 9.82639 12.9404 9.34668 12.4931 8.98101C12.4746 8.96584 12.4561 8.95067 12.4371 8.93504C12.0817 8.65107 11.8107 8.57984 11.3619 8.59562C11.306 8.59628 11.25 8.59678 11.1941 8.59713C11.0488 8.59845 10.9035 8.60189 10.7582 8.6058C10.6092 8.60943 10.4602 8.61101 10.3112 8.61277C10.0201 8.6165 9.7292 8.62247 9.43822 8.62991ZM7.08565 9.36721C6.82363 9.65118 6.51411 10.003 6.41851 10.3854C7.46136 10.3854 8.50422 10.3854 9.57868 10.3854C9.40204 10.179 9.40204 10.179 9.21682 9.98281C9.18906 9.95471 9.16129 9.92661 9.13269 9.89766C9.10338 9.86821 9.07408 9.83876 9.04389 9.80842C9.01326 9.77759 8.98263 9.74677 8.95108 9.71501C8.88671 9.65031 8.82228 9.58567 8.75781 9.52107C8.69172 9.45475 8.62574 9.38835 8.55993 9.32176C8.46474 9.22552 8.36921 9.12962 8.2736 9.03381C8.24408 9.00386 8.21456 8.97391 8.18415 8.94306C8.143 8.90207 8.143 8.90207 8.10102 8.86026C8.07694 8.83605 8.05286 8.81184 8.02805 8.7869C7.79905 8.60368 7.24667 9.20647 7.08565 9.36721ZM6.03226 11.4387C5.83585 12.3671 6.05365 13.3391 6.50409 14.1553C6.51628 14.1774 6.52846 14.1995 6.54102 14.2223C6.56565 14.2653 6.59131 14.3076 6.61807 14.3493C6.6643 14.423 6.6643 14.423 6.70569 14.5038C6.79386 14.6502 6.86098 14.7268 7.03025 14.7688C7.18668 14.7852 7.3432 14.783 7.50027 14.7816C7.56068 14.7822 7.62109 14.7829 7.6815 14.7837C7.84518 14.7856 8.00881 14.7855 8.1725 14.7849C8.30932 14.7846 8.44613 14.7852 8.58295 14.7859C8.90585 14.7873 9.22871 14.7872 9.5516 14.786C9.88431 14.7848 10.2169 14.7863 10.5496 14.7891C10.8356 14.7914 11.1216 14.7921 11.4076 14.7915C11.5783 14.7911 11.7489 14.7914 11.9196 14.7932C12.0802 14.7948 12.2406 14.7944 12.4012 14.7924C12.4599 14.792 12.5187 14.7924 12.5774 14.7935C12.8769 14.8067 12.8769 14.8067 13.1454 14.6968C13.2815 14.5581 13.3796 14.3968 13.4411 14.2124C13.1006 13.7286 12.7348 13.2696 12.3438 12.8255C12.3004 12.7761 12.3004 12.7761 12.256 12.7257C11.4892 11.8671 10.7632 11.3354 9.61041 11.2624C9.1316 11.2368 8.65513 11.2435 8.17635 11.2653C8.13658 11.2671 8.13658 11.2671 8.09601 11.2689C7.40543 11.3001 6.71874 11.3564 6.03226 11.4387ZM12.2473 11.4387C12.4244 11.6456 12.4244 11.6456 12.6108 11.8413C12.6389 11.8694 12.667 11.8975 12.6959 11.9264C12.7256 11.9559 12.7552 11.9853 12.7858 12.0157C12.8166 12.0465 12.8475 12.0773 12.8793 12.1091C12.9773 12.2068 13.0753 12.3044 13.1734 12.402C13.2401 12.4685 13.3068 12.5351 13.3735 12.6016C13.5364 12.7641 13.6994 12.9265 13.8625 13.0888C13.8856 13.0773 13.9088 13.0657 13.9327 13.0537C14.0247 12.7622 14.0124 12.4494 14.0095 12.1475C14.0095 12.1024 14.0094 12.0574 14.0094 12.0109C14.0085 11.813 14.0005 11.6351 13.9678 11.4387C13.4 11.4387 12.8322 11.4387 12.2473 11.4387Z" fill="#484848"/>
</svg>
