<svg width="20" height="20" viewBox="0 0 20 20" fill="none" xmlns="http://www.w3.org/2000/svg">
<g clip-path="url(#clip0_115_401)">
<path d="M11.6172 1.10547C11.6515 1.11245 11.6858 1.11944 11.7212 1.12664C13.4221 1.48248 14.9685 2.25298 16.2227 3.46094C16.2574 3.49427 16.2574 3.49427 16.2929 3.52828C16.6265 3.84977 16.9337 4.17663 17.207 4.55078C17.2372 4.59125 17.2674 4.63172 17.2975 4.67218C17.5098 4.96015 17.6982 5.25946 17.875 5.57031C17.8878 5.59253 17.9006 5.61474 17.9138 5.63762C18.6708 6.96007 19.0163 8.46201 19.0132 9.97583C19.0132 10.0291 19.0132 10.0291 19.0131 10.0834C19.0117 10.664 18.9791 11.2231 18.8594 11.793C18.852 11.8287 18.8447 11.8644 18.8371 11.9011C18.5191 13.3977 17.8122 14.923 16.7148 16.0117C16.4567 15.7601 16.1994 15.5077 15.9429 15.2544C15.8239 15.1368 15.7045 15.0194 15.5846 14.9027C15.4689 14.79 15.3538 14.6767 15.2392 14.5628C15.1954 14.5195 15.1513 14.4764 15.107 14.4336C15.0449 14.3736 14.9838 14.3127 14.9228 14.2516C14.9043 14.2341 14.8858 14.2166 14.8667 14.1985C14.8166 14.1473 14.8166 14.1473 14.7461 14.043C14.7519 13.8813 14.7951 13.7426 14.8472 13.5903C15.096 12.7819 15.1392 11.8077 14.9219 10.9844C14.9157 10.96 14.9094 10.9356 14.903 10.9104C14.5806 9.6616 13.8084 8.55644 12.7012 7.87919C12.6367 7.82031 12.6367 7.82031 12.6189 7.73988C12.6188 7.70838 12.6187 7.67688 12.6186 7.64443C12.6182 7.60863 12.6177 7.57283 12.6172 7.53595C12.6175 7.47794 12.6175 7.47794 12.6178 7.41876C12.6174 7.37892 12.6169 7.33908 12.6165 7.29802C12.6153 7.17036 12.6149 7.04271 12.6147 6.91504C12.6142 6.78788 12.6134 6.66072 12.6122 6.53356C12.6115 6.45441 12.6112 6.37525 12.6113 6.29609C12.6094 5.94936 12.6094 5.94936 12.4543 5.64722C12.2687 5.50285 12.0594 5.49019 11.8303 5.47803C11.8063 5.47667 11.7822 5.47531 11.7575 5.47391C11.699 5.47064 11.6405 5.46771 11.582 5.46485C11.5817 5.44557 11.5815 5.4263 11.5812 5.40644C11.5781 5.2051 11.5746 5.00377 11.5709 4.80245C11.5695 4.7274 11.5683 4.65235 11.5672 4.5773C11.5656 4.46916 11.5635 4.36104 11.5614 4.25292C11.5608 4.20291 11.5608 4.20291 11.5602 4.1519C11.5551 3.92207 11.5454 3.72523 11.3997 3.53784C11.1577 3.34968 10.8709 3.38034 10.5779 3.38129C10.509 3.38119 10.509 3.38119 10.4388 3.38108C10.342 3.38098 10.2452 3.38113 10.1484 3.38146C10.0249 3.38186 9.90138 3.38163 9.77786 3.38121C9.65928 3.38089 9.5407 3.38111 9.42212 3.38129C9.37802 3.38115 9.33392 3.381 9.28849 3.38086C8.92095 3.37836 8.92095 3.37836 8.60034 3.53784C8.43418 3.75148 8.44174 3.99289 8.43857 4.25292C8.43789 4.28768 8.43721 4.32245 8.4365 4.35827C8.43441 4.46858 8.43278 4.57889 8.43115 4.68921C8.42981 4.76431 8.42844 4.8394 8.42703 4.9145C8.42367 5.09794 8.42067 5.28139 8.41797 5.46485C8.38276 5.46657 8.34754 5.46829 8.31126 5.47006C8.26407 5.4727 8.21687 5.47536 8.16968 5.47803C8.12359 5.48048 8.0775 5.48292 8.03001 5.48545C7.84377 5.5049 7.69485 5.53117 7.54565 5.64722C7.38941 5.84811 7.38596 6.07853 7.37646 6.32398C7.37511 6.35305 7.37375 6.38212 7.37234 6.41207C7.36906 6.48304 7.36614 6.55402 7.36328 6.625C7.16571 6.46056 6.98332 6.285 6.80203 6.10289C6.77147 6.07234 6.74092 6.0418 6.70944 6.01032C6.62637 5.92723 6.54338 5.84406 6.46042 5.76086C6.37345 5.67367 6.28637 5.58657 6.19931 5.49947C6.03477 5.33482 5.87032 5.17008 5.7059 5.00531C5.51858 4.8176 5.33117 4.62999 5.14374 4.44238C4.75847 4.05675 4.37334 3.671 3.98828 3.28516C5.1564 2.11109 6.80668 1.39508 8.41797 1.10547C8.44701 1.09977 8.47604 1.09406 8.50596 1.08818C9.48242 0.900224 10.6437 0.902828 11.6172 1.10547Z" fill="#484848"/>
<path d="M3.24998 3.98828C3.46637 4.16737 3.66442 4.36235 3.86287 4.56091C3.89926 4.5972 3.93567 4.63349 3.97208 4.66976C4.07028 4.76766 4.16837 4.86566 4.26642 4.96369C4.3277 5.02495 4.38901 5.08618 4.45032 5.1474C4.66423 5.36098 4.87804 5.57465 5.09177 5.78841C5.2911 5.98775 5.49062 6.1869 5.69023 6.38596C5.86174 6.55701 6.03311 6.72819 6.20437 6.89948C6.30662 7.00174 6.40893 7.10394 6.51136 7.206C6.60747 7.30177 6.7034 7.3977 6.79921 7.49376C6.83446 7.52905 6.86978 7.56429 6.90516 7.59946C6.95327 7.64729 7.00114 7.69536 7.04899 7.74345C7.07589 7.77033 7.1028 7.79721 7.13051 7.82491C7.18748 7.89062 7.18748 7.89062 7.18748 7.96094C7.13203 8.00489 7.07445 8.04617 7.01609 8.08618C6.81296 8.23046 6.63016 8.38766 6.44919 8.55859C6.42323 8.5823 6.39726 8.606 6.3705 8.63042C5.56206 9.39578 5.0228 10.5926 4.96641 11.7048C4.95632 12.3098 4.95223 12.8918 5.11326 13.4805C5.12257 13.5155 5.12257 13.5155 5.13207 13.5513C5.29549 14.1469 5.58915 14.7095 5.95701 15.2031C5.97289 15.2246 5.98876 15.2462 6.00512 15.2683C6.05324 15.3324 6.10255 15.3954 6.15256 15.458C6.16699 15.4769 6.18142 15.4958 6.19629 15.5153C6.32486 15.6695 6.46853 15.7275 6.66013 15.7656C6.87485 15.7811 7.08903 15.7801 7.3042 15.7793C7.36955 15.7794 7.43489 15.7796 7.50023 15.7798C7.67703 15.7803 7.85382 15.7801 8.03062 15.7798C8.21599 15.7795 8.40136 15.7798 8.58674 15.7799C8.89799 15.7801 9.20924 15.7799 9.52049 15.7794C9.87989 15.7788 10.2393 15.779 10.5987 15.7796C10.9078 15.78 11.2168 15.7801 11.5259 15.7798C11.7102 15.7797 11.8946 15.7796 12.079 15.78C12.2524 15.7803 12.4257 15.7801 12.5991 15.7795C12.6626 15.7793 12.726 15.7794 12.7895 15.7796C13.2989 15.7954 13.2989 15.7954 13.7477 15.5853C13.7829 15.543 13.7829 15.543 13.8188 15.4998C13.8575 15.4536 13.8575 15.4536 13.897 15.4065C14.0099 15.2604 14.1168 15.111 14.2187 14.957C14.434 15.1351 14.6303 15.3289 14.8272 15.5269C14.8616 15.5613 14.8959 15.5957 14.9302 15.6301C15.0198 15.7198 15.1093 15.8097 15.1988 15.8995C15.2904 15.9915 15.3821 16.0834 15.4738 16.1753C15.6532 16.355 15.8325 16.5349 16.0117 16.7148C14.8421 17.8904 13.1952 18.6002 11.582 18.8945C11.5528 18.9003 11.5236 18.906 11.4935 18.912C10.9926 19.0084 10.4885 19.0109 9.9802 19.0132C9.94702 19.0135 9.91385 19.0137 9.87966 19.014C9.38433 19.0172 8.90658 18.9754 8.41794 18.8945C8.37793 18.8879 8.33792 18.8813 8.29669 18.8745C6.77552 18.6008 5.33268 17.8987 4.16404 16.8906C4.13784 16.8683 4.11165 16.846 4.08466 16.8231C3.60988 16.4078 3.1644 15.9596 2.79294 15.4492C2.76283 15.4088 2.73271 15.3684 2.70258 15.328C2.49024 15.04 2.30098 14.741 2.12498 14.4297C2.11084 14.4048 2.0967 14.38 2.08213 14.3543C1.6242 13.541 1.31663 12.6561 1.12961 11.7424C1.12443 11.7172 1.11925 11.6919 1.11392 11.6658C1.01017 11.12 0.985664 10.5786 0.986792 10.0242C0.986811 9.98868 0.98683 9.95319 0.98685 9.91662C0.988284 9.336 1.0209 8.77694 1.1406 8.20703C1.14795 8.17134 1.1553 8.13564 1.16287 8.09887C1.47469 6.63129 2.15122 5.31047 3.10935 4.16406C3.15636 4.10558 3.20328 4.04702 3.24998 3.98828Z" fill="#484848"/>
<path d="M5.99218 11.4414C6.7247 11.357 7.45723 11.3014 8.19384 11.27C8.22088 11.2689 8.24792 11.2677 8.27578 11.2665C9.59589 11.2104 10.7331 11.2184 11.7663 12.1368C11.9936 12.3474 12.2033 12.5715 12.4082 12.8037C12.437 12.8362 12.4658 12.8687 12.4955 12.9022C12.7817 13.2282 13.0549 13.5635 13.308 13.9159C13.3264 13.9411 13.3447 13.9662 13.3636 13.9921C13.4832 14.1644 13.4832 14.1644 13.4701 14.2565C13.4387 14.3423 13.394 14.4096 13.342 14.4846C13.3236 14.5115 13.3051 14.5384 13.2861 14.5661C13.2691 14.5907 13.252 14.6153 13.2344 14.6406C13.2112 14.6754 13.188 14.7103 13.1641 14.7461C13.0575 14.7604 13.0575 14.7604 12.9175 14.7619C12.8918 14.7623 12.8661 14.7627 12.8397 14.7631C12.7532 14.7644 12.6667 14.7649 12.5802 14.7653C12.5183 14.7661 12.4565 14.7668 12.3947 14.7676C12.1911 14.77 11.9876 14.7713 11.784 14.7725C11.714 14.773 11.6439 14.7734 11.5739 14.7739C11.2824 14.7759 10.9909 14.7775 10.6994 14.7785C10.2817 14.7798 9.86404 14.7826 9.44634 14.7878C9.15266 14.7913 8.85901 14.793 8.56531 14.7934C8.3899 14.7937 8.21457 14.7947 8.03918 14.7977C7.874 14.8004 7.70895 14.8009 7.54375 14.7997C7.48328 14.7997 7.42279 14.8004 7.36234 14.802C6.91808 14.813 6.91808 14.813 6.78059 14.701C6.66883 14.5775 6.5936 14.438 6.51952 14.2891C6.49122 14.2406 6.46289 14.1921 6.43452 14.1436C6.31317 13.9001 6.20694 13.6571 6.11962 13.3992C6.11123 13.3744 6.10283 13.3497 6.09419 13.3242C5.97686 12.9584 5.94629 12.6048 5.94979 12.2219C5.95044 12.1483 5.95051 12.0748 5.9505 12.0012C5.95119 11.8103 5.95215 11.6288 5.99218 11.4414Z" fill="#484848"/>
<path d="M9.36719 8.62893C9.70887 8.6232 10.0505 8.61884 10.3923 8.61618C10.551 8.6149 10.7096 8.61316 10.8683 8.61036C11.0218 8.60767 11.1751 8.60621 11.3286 8.60558C11.3868 8.60513 11.4451 8.60424 11.5034 8.60291C11.8728 8.59477 12.1307 8.62984 12.4258 8.87502C12.4478 8.89167 12.4699 8.90832 12.4926 8.92547C12.8472 9.19716 13.1386 9.51395 13.3882 9.88356C13.4029 9.90528 13.4175 9.927 13.4326 9.94938C13.4465 9.97058 13.4604 9.99177 13.4747 10.0136C13.4869 10.0322 13.499 10.0507 13.5116 10.0699C13.5683 10.1722 13.6113 10.2788 13.6562 10.3867C13.2653 10.4395 12.8747 10.4746 12.4807 10.4944C12.4517 10.4959 12.4227 10.4973 12.3928 10.4989C11.6363 10.5327 11.0494 10.47 10.4734 9.9478C10.3311 9.81418 10.1982 9.67302 10.0681 9.52761C10.0497 9.50708 10.0313 9.48655 10.0124 9.4654C9.36719 8.73988 9.36719 8.73988 9.36719 8.62893Z" fill="#484848"/>
<path d="M8.41797 6.51953C9.46211 6.51953 10.5062 6.51953 11.582 6.51953C11.582 6.86758 11.582 7.21562 11.582 7.57422C10.5379 7.57422 9.49375 7.57422 8.41797 7.57422C8.41797 7.22617 8.41797 6.87812 8.41797 6.51953Z" fill="#484848"/>
<path d="M7.95586 8.68706C8.04848 8.74519 8.11837 8.81281 8.19567 8.89025C8.24422 8.93864 8.24422 8.93864 8.29375 8.988C8.32875 9.02325 8.36375 9.0585 8.39874 9.09376C8.43479 9.12985 8.47084 9.16592 8.50691 9.20198C8.58232 9.27744 8.6576 9.35302 8.7328 9.42868C8.8294 9.52589 8.92624 9.62286 9.02316 9.71975C9.09754 9.79414 9.17183 9.86862 9.24609 9.94314C9.28178 9.97895 9.3175 10.0147 9.35324 10.0505C9.40299 10.1003 9.45261 10.1503 9.50222 10.2002C9.53052 10.2287 9.55883 10.2571 9.58799 10.2864C9.64844 10.3516 9.64844 10.3516 9.64844 10.3867C8.55789 10.3867 7.46734 10.3867 6.34375 10.3867C6.67772 9.71877 7.10446 9.19615 7.71484 8.76953C7.74539 8.74746 7.77593 8.72539 7.8074 8.70265C7.89062 8.66406 7.89062 8.66406 7.95586 8.68706Z" fill="#484848"/>
<path d="M12.1797 11.4414C12.783 11.4414 13.3863 11.4414 14.0078 11.4414C14.0501 11.6529 14.0508 11.8539 14.0514 12.069C14.0518 12.141 14.0528 12.213 14.054 12.285C14.0564 12.6045 14.0176 12.8901 13.9375 13.1992C13.7254 13.0235 13.5312 12.8331 13.3367 12.6382C13.3031 12.6047 13.2696 12.5712 13.2361 12.5377C13.1663 12.468 13.0966 12.3982 13.027 12.3284C12.9375 12.2388 12.8479 12.1493 12.7582 12.0598C12.6892 11.9909 12.6203 11.9219 12.5513 11.8529C12.5022 11.8038 12.453 11.7547 12.4039 11.7056C12.3744 11.676 12.3449 11.6465 12.3146 11.616C12.2884 11.5898 12.2623 11.5637 12.2354 11.5368C12.1797 11.4766 12.1797 11.4766 12.1797 11.4414Z" fill="#484848"/>
<path d="M9.47266 4.41016C9.8207 4.41016 10.1687 4.41016 10.5273 4.41016C10.5273 4.7582 10.5273 5.10625 10.5273 5.46484C10.1793 5.46484 9.83125 5.46484 9.47266 5.46484C9.47266 5.1168 9.47266 4.76875 9.47266 4.41016Z" fill="#484848"/>
</g>
<defs>
<clipPath id="clip0_115_401">
<rect width="18" height="18" fill="white" transform="translate(1 1)"/>
</clipPath>
</defs>
</svg>
