<svg width="20" height="20" viewBox="0 0 20 20" fill="none" xmlns="http://www.w3.org/2000/svg">
<path d="M2.01616 12.6414C2.10055 12.64 2.18491 12.6389 2.26931 12.6381C2.29283 12.6377 2.31635 12.6372 2.34058 12.6368C2.75454 12.6338 3.13754 12.789 3.52175 12.9274C3.87636 13.0535 4.23298 13.1287 4.6098 13.1467C4.63789 13.1481 4.66598 13.1495 4.69493 13.1509C5.314 13.1658 5.89497 13.0171 6.46672 12.7917C6.82789 12.6521 7.17468 12.6276 7.55922 12.6288C7.59517 12.6288 7.59517 12.6288 7.63185 12.6289C8.16454 12.631 8.59807 12.7381 9.09352 12.9274C9.45373 13.0637 9.81626 13.1293 10.2013 13.1467C10.2272 13.1481 10.2532 13.1495 10.28 13.1509C10.86 13.1667 11.4072 13.0369 11.9423 12.8225C12.3384 12.6661 12.7314 12.6218 13.1549 12.6246C13.1901 12.6246 13.1901 12.6246 13.2261 12.6247C13.6189 12.6267 13.9748 12.6722 14.3444 12.8098C14.3678 12.8185 14.3911 12.8271 14.4152 12.836C14.5074 12.8704 14.5993 12.9053 14.6909 12.9411C15.035 13.074 15.3916 13.1305 15.7591 13.1467C15.7879 13.1481 15.8167 13.1495 15.8464 13.1509C16.4366 13.1651 16.9897 13.029 17.538 12.8225C17.8566 12.7029 18.1209 12.638 18.4639 12.6402C18.5014 12.6404 18.5014 12.6404 18.5396 12.6405C18.6008 12.6407 18.662 12.6411 18.7232 12.6414C18.7264 13.0859 18.7288 13.5304 18.7302 13.9748C18.7309 14.1812 18.7319 14.3876 18.7334 14.594C18.7349 14.7932 18.7357 14.9924 18.736 15.1915C18.7363 15.2675 18.7368 15.3435 18.7375 15.4195C18.7385 15.5259 18.7386 15.6324 18.7385 15.7388C18.739 15.7702 18.7395 15.8016 18.74 15.834C18.7388 16.0214 18.7185 16.134 18.5885 16.2792C18.4313 16.4063 18.3086 16.4334 18.1117 16.4309C18.0845 16.4311 18.0572 16.4313 18.0291 16.4315C17.9377 16.432 17.8462 16.4316 17.7548 16.4311C17.6886 16.4312 17.6224 16.4315 17.5563 16.4317C17.3743 16.4323 17.1924 16.432 17.0104 16.4316C16.8142 16.4313 16.618 16.4318 16.4219 16.4321C16.0375 16.4327 15.6531 16.4326 15.2687 16.4322C14.9564 16.4319 14.6441 16.4319 14.3318 16.432C14.2873 16.432 14.2429 16.4321 14.1972 16.4321C14.1296 16.4321 14.062 16.4321 13.9944 16.4322C13.1495 16.4326 12.3046 16.4322 11.4597 16.4315C10.7089 16.4308 9.95812 16.4309 9.20735 16.4315C8.364 16.4323 7.52065 16.4326 6.6773 16.4321C6.58741 16.4321 6.49753 16.4321 6.40764 16.432C6.36341 16.432 6.31918 16.432 6.27361 16.432C5.96157 16.4318 5.64954 16.432 5.33751 16.4323C4.95736 16.4327 4.57722 16.4326 4.19707 16.4319C4.00303 16.4316 3.809 16.4314 3.61496 16.4319C3.43744 16.4323 3.25993 16.432 3.08241 16.4313C3.01808 16.4312 2.95376 16.4312 2.88943 16.4316C2.80217 16.432 2.71495 16.4316 2.6277 16.4309C2.60256 16.4313 2.57743 16.4316 2.55153 16.4319C2.37982 16.4294 2.28356 16.3865 2.15089 16.2792C1.99659 16.1068 1.99747 15.9588 2.00086 15.7388C2.00084 15.7053 2.00082 15.6717 2.0008 15.6372C2.0009 15.5267 2.00194 15.4163 2.003 15.3058C2.00325 15.2291 2.00344 15.1524 2.00358 15.0756C2.00409 14.8739 2.00541 14.6723 2.00691 14.4706C2.00829 14.2647 2.0089 14.0588 2.00958 13.8528C2.01102 13.449 2.01332 13.0452 2.01616 12.6414Z" fill="#484848"/>
<path d="M2.65324 11.0043C2.69623 11.0039 2.69623 11.0039 2.74009 11.0034C2.80061 11.003 2.86114 11.003 2.92167 11.0033C3.01308 11.0035 3.10434 11.0019 3.19573 11.0002C3.50965 10.9981 3.74898 11.0088 4.0205 11.1865C4.13005 11.2389 4.19109 11.2238 4.30663 11.193C4.39104 11.1527 4.39104 11.1527 4.47084 11.1046C4.63079 11.023 4.74061 11.0055 4.91293 11.0582C5.1506 11.1401 5.1506 11.1401 5.23151 11.1714C5.38582 11.2279 5.49484 11.2317 5.65397 11.193C5.73741 11.1524 5.81382 11.106 5.89252 11.0569C6.1673 10.9664 6.48917 11.0946 6.75757 11.1684C7.08769 11.2559 7.3063 11.2132 7.61868 11.0934C7.78592 11.033 7.9017 11.0118 8.07919 11.0582C8.16263 11.0989 8.23904 11.1453 8.31774 11.1943C8.59252 11.2848 8.91439 11.1566 9.18279 11.0828C9.51291 10.9953 9.73152 11.038 10.0439 11.1578C10.2111 11.2182 10.3269 11.2394 10.5044 11.193C10.5879 11.1524 10.6643 11.106 10.743 11.0569C10.9931 10.9746 11.2778 11.0775 11.5233 11.1446C11.8972 11.2479 11.8972 11.2479 12.256 11.1235C12.306 11.0948 12.306 11.0948 12.357 11.0655C12.4784 11.0163 12.5354 11.0224 12.6602 11.0582C12.7455 11.0984 12.8257 11.1441 12.9074 11.191C13.0912 11.2641 13.2792 11.2229 13.4674 11.1824C13.5114 11.1732 13.5555 11.164 13.5996 11.1548C13.6678 11.1403 13.736 11.1256 13.8042 11.1109C14.2218 11.0215 14.4953 11.0033 14.896 11.1578C15.0966 11.2307 15.2436 11.2443 15.4445 11.1517C15.4712 11.1361 15.4979 11.1206 15.5254 11.1046C15.6249 11.0531 15.6799 11.0251 15.7927 11.0203C15.8873 11.0558 15.9693 11.0987 16.058 11.1467C16.2174 11.2279 16.3282 11.2467 16.5001 11.193C16.533 11.1798 16.5659 11.1667 16.5999 11.1531C16.9431 11.0203 17.2564 10.9994 17.6224 11.0045C17.7158 11.0056 17.809 11.0051 17.9024 11.0045C17.9624 11.0047 18.0223 11.005 18.0823 11.0055C18.1099 11.0053 18.1375 11.0051 18.1659 11.005C18.3447 11.0086 18.446 11.0422 18.5885 11.1593C18.7552 11.3387 18.7394 11.5132 18.7316 11.7445C18.731 11.779 18.7304 11.8134 18.7298 11.8489C18.7282 11.9334 18.726 12.0179 18.7232 12.1024C18.7033 12.1044 18.6833 12.1064 18.6628 12.1085C18.0483 12.1728 17.4911 12.3158 16.9156 12.5377C16.5933 12.6419 16.2766 12.655 15.9401 12.654C15.9161 12.654 15.8921 12.6539 15.8673 12.6539C15.5102 12.6525 15.1888 12.6317 14.8496 12.5066C14.8245 12.4974 14.7994 12.4882 14.7736 12.4787C14.6633 12.4381 14.5532 12.3972 14.4433 12.3554C14.0824 12.2197 13.7193 12.1531 13.3338 12.1361C13.305 12.1347 13.2762 12.1333 13.2465 12.1319C12.6283 12.117 12.0478 12.2661 11.4769 12.4911C11.1151 12.631 10.7676 12.6552 10.3823 12.654C10.3583 12.654 10.3342 12.6539 10.3095 12.6539C9.95181 12.6525 9.63203 12.6298 9.29181 12.5066C9.23682 12.4873 9.18182 12.468 9.12681 12.4487C9.0391 12.4179 8.95145 12.3869 8.86396 12.3554C8.50947 12.2292 8.15277 12.1541 7.77604 12.1361C7.74795 12.1347 7.71986 12.1333 7.69091 12.1319C7.07653 12.1171 6.49746 12.2616 5.9316 12.491C5.56539 12.6248 5.2081 12.6597 4.8203 12.6561C4.79659 12.656 4.77287 12.6559 4.74843 12.6558C4.21847 12.6521 3.78491 12.5433 3.29195 12.3554C2.87805 12.199 2.45347 12.1474 2.01614 12.1024C2.01221 11.9831 2.00983 11.8639 2.00772 11.7445C2.00659 11.7109 2.00546 11.6772 2.0043 11.6426C2.00164 11.4419 2.00787 11.3132 2.15088 11.1593C2.31996 11.0208 2.44354 11.0038 2.65324 11.0043Z" fill="#484848"/>
</svg>
