<svg width="20" height="20" viewBox="0 0 20 20" fill="none" xmlns="http://www.w3.org/2000/svg">
<path d="M2.88304 11.0161C2.91317 11.0158 2.94331 11.0155 2.97436 11.0152C3.03807 11.0147 3.10178 11.0144 3.16549 11.0143C3.26211 11.0139 3.35865 11.0123 3.45525 11.0107C4.01776 11.006 4.01776 11.006 4.24468 11.156C4.30431 11.2002 4.30431 11.2002 4.40296 11.1934C4.502 11.1568 4.58927 11.1112 4.67891 11.0556C4.9203 10.9718 5.12868 11.049 5.35532 11.1383C5.56807 11.2155 5.56807 11.2155 5.7883 11.1934C5.88724 11.1412 5.88724 11.1412 5.97043 11.0779C6.24336 10.9313 6.57925 11.0794 6.85562 11.1572C7.14497 11.235 7.32674 11.2115 7.60877 11.1077C7.97471 10.9821 7.97471 10.9821 8.15122 11.0282C8.21583 11.0608 8.27969 11.0949 8.34292 11.1302C8.5561 11.244 8.67627 11.2268 8.90169 11.1587C9.59476 10.9691 9.59476 10.9691 9.89395 11.0792C10.1841 11.2003 10.1841 11.2003 10.4868 11.1934C10.5858 11.1412 10.5858 11.1412 10.669 11.0779C10.9159 10.9453 11.202 11.0579 11.4549 11.1281C11.5237 11.1472 11.5925 11.1659 11.6614 11.1843C11.6915 11.1927 11.7216 11.2011 11.7526 11.2097C11.9124 11.2363 12.0215 11.1854 12.1585 11.1077C12.3036 11.0346 12.4268 10.9855 12.5888 11.0282C12.6872 11.0763 12.7815 11.1275 12.8752 11.1843C13.1498 11.2878 13.5066 11.1455 13.7825 11.0846C14.1427 11.0089 14.4143 11.0004 14.7566 11.1383C14.9676 11.2155 14.9676 11.2155 15.1864 11.1934C15.2518 11.1575 15.3162 11.1196 15.3791 11.0794C15.4762 11.018 15.5376 11.0006 15.6509 11.0075C15.7475 11.0359 15.8258 11.0881 15.9129 11.1383C16.0599 11.2106 16.1093 11.2337 16.2706 11.1902C16.3163 11.1714 16.3619 11.1522 16.4074 11.1327C16.7306 11.0104 17.0334 11.0003 17.376 11.0063C17.472 11.0078 17.5678 11.0076 17.6637 11.0072C17.7256 11.0075 17.7875 11.008 17.8494 11.0086C17.8918 11.0085 17.8918 11.0085 17.9349 11.0084C18.1598 11.0136 18.3322 11.0736 18.5025 11.2228C18.5201 11.2441 18.5377 11.2653 18.5558 11.2872C18.5739 11.3083 18.592 11.3295 18.6106 11.3513C18.706 11.4897 18.7312 11.61 18.7318 11.7766C18.732 11.8155 18.7323 11.8543 18.7326 11.8943C18.7326 11.9367 18.7325 11.979 18.7325 12.0226C18.7327 12.0678 18.7329 12.1131 18.7332 12.1583C18.7338 12.281 18.7339 12.4037 18.7339 12.5264C18.734 12.6032 18.7341 12.6799 18.7343 12.7566C18.7349 13.0246 18.7352 13.2925 18.7351 13.5604C18.7351 13.8098 18.7358 14.0592 18.7368 14.3086C18.7377 14.523 18.738 14.7374 18.738 14.9518C18.738 15.0797 18.7381 15.2076 18.7388 15.3355C18.7395 15.4559 18.7395 15.5763 18.739 15.6967C18.7389 15.7616 18.7394 15.8266 18.74 15.8915C18.7381 16.1599 18.7103 16.3429 18.5284 16.5504C18.5072 16.568 18.4859 16.5856 18.464 16.6037C18.4429 16.6218 18.4217 16.6399 18.3999 16.6585C18.2408 16.7682 18.0945 16.7803 17.9054 16.7793C17.879 16.7794 17.8525 16.7795 17.8253 16.7796C17.7363 16.78 17.6473 16.7798 17.5584 16.7796C17.4941 16.7798 17.4298 16.7799 17.3655 16.7801C17.1885 16.7805 17.0116 16.7805 16.8346 16.7804C16.6439 16.7804 16.4532 16.7807 16.2625 16.781C15.8887 16.7816 15.5149 16.7818 15.1411 16.7818C14.8373 16.7818 14.5336 16.782 14.2298 16.7822C14.1424 16.7822 14.055 16.7823 13.9676 16.7824C13.9459 16.7824 13.9241 16.7824 13.9017 16.7824C13.2904 16.7828 12.6791 16.7831 12.0678 16.783C12.0448 16.783 12.0217 16.783 11.9979 16.783C11.8811 16.783 11.7643 16.783 11.6474 16.783C11.6126 16.783 11.6126 16.783 11.5771 16.783C11.5302 16.783 11.4833 16.783 11.4363 16.783C10.7062 16.783 9.97612 16.7834 9.24601 16.7843C8.42587 16.7853 7.60574 16.7859 6.7856 16.7858C6.35131 16.7858 5.91701 16.786 5.48271 16.7867C5.11297 16.7873 4.74322 16.7874 4.37348 16.787C4.18477 16.7868 3.99608 16.7868 3.80738 16.7873C3.63467 16.7879 3.46197 16.7878 3.28926 16.7872C3.22674 16.7871 3.16423 16.7872 3.10172 16.7876C3.01677 16.788 2.93185 16.7877 2.8469 16.7871C2.81047 16.7876 2.81047 16.7876 2.77329 16.7881C2.56316 16.7853 2.39565 16.7149 2.23746 16.5763C2.21109 16.5444 2.21109 16.5444 2.18419 16.5119C2.1661 16.4908 2.14802 16.4696 2.12938 16.4478C2.03405 16.3094 2.00878 16.1891 2.00824 16.0225C2.00796 15.9836 2.00768 15.9448 2.00739 15.9048C2.00742 15.8624 2.00745 15.8201 2.00748 15.7765C2.00729 15.7313 2.00707 15.686 2.00682 15.6408C2.00624 15.5181 2.00609 15.3954 2.00605 15.2727C2.006 15.1959 2.00586 15.1192 2.00569 15.0425C2.00509 14.7745 2.00482 14.5066 2.00487 14.2387C2.00491 13.9893 2.00422 13.7399 2.00319 13.4905C2.00234 13.2761 2.00199 13.0617 2.00203 12.8473C2.00205 12.7194 2.00186 12.5915 2.00117 12.4636C2.00054 12.3432 2.00053 12.2228 2.00101 12.1024C2.00111 12.0375 2.00057 11.9725 2 11.9076C2.00188 11.6392 2.02973 11.4562 2.21159 11.2487C2.23283 11.2311 2.25407 11.2135 2.27596 11.1954C2.29711 11.1773 2.31827 11.1592 2.34007 11.1406C2.51529 11.0199 2.67685 11.0173 2.88304 11.0161ZM2.60429 11.6481C2.51961 11.7824 2.53138 11.9287 2.53495 12.0825C2.53524 12.1067 2.53554 12.1308 2.53584 12.1557C2.53661 12.215 2.53778 12.2742 2.53903 12.3334C2.57932 12.3382 2.61962 12.3429 2.66113 12.3479C3.02833 12.3952 3.36174 12.4762 3.70937 12.6019C4.58567 12.9179 5.4266 12.9331 6.29953 12.5781C6.76108 12.401 7.18873 12.353 7.68014 12.3497C7.71606 12.3492 7.71606 12.3492 7.7527 12.3486C8.2338 12.3433 8.6747 12.4319 9.12194 12.6127C9.47734 12.7494 9.8252 12.837 10.2069 12.8554C10.2447 12.8574 10.2447 12.8574 10.2833 12.8595C10.7373 12.8716 11.1522 12.7741 11.5773 12.627C11.6538 12.6008 11.7304 12.5748 11.807 12.5489C11.8559 12.5322 11.9048 12.5154 11.9536 12.4983C12.3165 12.3741 12.6649 12.3527 13.0456 12.3537C13.0711 12.3538 13.0966 12.3538 13.1229 12.3539C13.6921 12.3563 14.1533 12.4592 14.6841 12.6656C15.4365 12.956 16.214 12.8855 16.9611 12.627C17.3757 12.4851 17.7618 12.3689 18.201 12.3334C18.2036 12.2504 18.2056 12.1675 18.2071 12.0846C18.2079 12.0613 18.2087 12.038 18.2096 12.0141C18.2117 11.858 18.1948 11.748 18.1031 11.6155C17.9088 11.5161 17.6965 11.5336 17.4831 11.5319C17.4614 11.5317 17.4396 11.5315 17.4172 11.5313C17.0575 11.5298 16.7533 11.5908 16.42 11.7287C16.2401 11.7991 16.0703 11.8135 15.889 11.7418C15.8639 11.7264 15.8388 11.711 15.8129 11.695C15.691 11.6286 15.691 11.6286 15.5539 11.6135C15.4549 11.6501 15.3676 11.6957 15.278 11.7513C15.0186 11.8414 14.783 11.7466 14.5412 11.6496C14.1896 11.5193 13.8325 11.6444 13.4788 11.7223C12.9129 11.8413 12.9129 11.8413 12.6785 11.695C12.5577 11.6284 12.5577 11.6284 12.4216 11.6135C12.3225 11.6501 12.2352 11.6957 12.1456 11.7513C11.889 11.8404 11.6242 11.7484 11.3733 11.6787C11.3046 11.6597 11.2358 11.6409 11.1669 11.6225C11.1368 11.6142 11.1067 11.6058 11.0757 11.5972C10.885 11.5654 10.7543 11.6509 10.5948 11.7441C10.326 11.8426 10.0902 11.749 9.83691 11.6496C9.52763 11.536 9.25669 11.6373 8.95095 11.7223C8.73288 11.7798 8.5212 11.8324 8.31144 11.729C8.26544 11.699 8.26544 11.699 8.21852 11.6685C8.0788 11.5977 7.99131 11.5724 7.84176 11.6135C7.76512 11.639 7.69104 11.6674 7.61674 11.6991C7.28643 11.8389 7.00905 11.7729 6.67272 11.6787C6.60428 11.6597 6.53575 11.6409 6.46713 11.6225C6.43726 11.6142 6.40738 11.6058 6.3766 11.5972C6.18627 11.5653 6.05538 11.6511 5.89625 11.7441C5.64686 11.8355 5.44066 11.7617 5.20441 11.6685C4.99116 11.5914 4.99116 11.5914 4.77029 11.6135C4.70495 11.6494 4.64063 11.6873 4.57771 11.7273C4.48785 11.7843 4.41425 11.8082 4.30661 11.8007C4.21107 11.771 4.13713 11.7174 4.0522 11.6645C3.80899 11.5214 3.54735 11.5283 3.27318 11.5299C3.25139 11.5299 3.2296 11.5298 3.20715 11.5298C2.89177 11.5299 2.89177 11.5299 2.60429 11.6481ZM6.29137 13.1491C6.2194 13.1745 6.14737 13.1997 6.0752 13.2245C6.04921 13.2338 6.02321 13.2431 5.99643 13.2527C5.68457 13.3395 5.37829 13.357 5.05637 13.3569C4.98291 13.3571 4.90951 13.3583 4.83606 13.3595C4.37619 13.3631 3.95477 13.2716 3.5281 13.0981C3.20155 12.972 2.89236 12.8853 2.53903 12.888C2.53676 13.2888 2.53502 13.6896 2.53396 14.0904C2.53345 14.2765 2.53275 14.4626 2.53164 14.6487C2.53058 14.8283 2.52999 15.0079 2.52974 15.1875C2.52956 15.256 2.52921 15.3245 2.52868 15.393C2.52797 15.489 2.52787 15.585 2.52792 15.681C2.52756 15.7093 2.52721 15.7376 2.52685 15.7667C2.52767 15.9284 2.54055 16.0471 2.63692 16.1836C2.77323 16.257 2.90483 16.2581 3.05603 16.2571C3.08173 16.2572 3.10742 16.2574 3.13389 16.2575C3.2203 16.2577 3.30671 16.2575 3.39313 16.2573C3.45558 16.2574 3.51803 16.2576 3.58048 16.2577C3.75235 16.2581 3.92422 16.258 4.0961 16.2579C4.28135 16.2578 4.46661 16.2581 4.65187 16.2583C5.0149 16.2587 5.37793 16.2588 5.74096 16.2587C6.03595 16.2586 6.33093 16.2587 6.62592 16.2588C6.68883 16.2589 6.68883 16.2589 6.75301 16.2589C6.83821 16.2589 6.9234 16.259 7.00859 16.259C7.58083 16.2593 8.15306 16.2594 8.7253 16.2593C8.74768 16.2593 8.77007 16.2593 8.79313 16.2593C8.90657 16.2592 9.02002 16.2592 9.13346 16.2592C9.16726 16.2592 9.16726 16.2592 9.20174 16.2592C9.2473 16.2591 9.29287 16.2591 9.33843 16.2591C10.0475 16.2589 10.7566 16.2592 11.4657 16.2598C12.2621 16.2605 13.0586 16.2608 13.855 16.2607C14.2768 16.2606 14.6986 16.2607 15.1204 16.2612C15.4794 16.2616 15.8385 16.2616 16.1975 16.2612C16.3808 16.261 16.5641 16.261 16.7473 16.2614C16.915 16.2617 17.0827 16.2616 17.2504 16.2612C17.3111 16.2611 17.3719 16.2612 17.4326 16.2614C17.515 16.2618 17.5974 16.2615 17.6799 16.2611C17.7036 16.2613 17.7273 16.2615 17.7518 16.2618C17.9032 16.2602 18.0071 16.2309 18.1357 16.151C18.2263 16.0106 18.2097 15.8463 18.2084 15.6847C18.2084 15.6394 18.2084 15.6394 18.2084 15.593C18.2084 15.4933 18.2079 15.3936 18.2073 15.2938C18.2072 15.2245 18.2071 15.1553 18.2071 15.086C18.2068 14.9039 18.2062 14.7218 18.2055 14.5397C18.2048 14.3538 18.2045 14.1679 18.2042 13.982C18.2035 13.6173 18.2023 13.2527 18.201 12.888C18.1603 12.8876 18.1197 12.8872 18.0778 12.8868C18.055 12.8865 18.0321 12.8863 18.0086 12.886C17.6789 12.8957 17.3345 13.0418 17.032 13.1637C16.6232 13.3239 16.2185 13.3639 15.7844 13.3612C15.7469 13.3611 15.7469 13.3611 15.7086 13.361C15.1023 13.3579 14.5917 13.2188 14.0283 13.0026C13.8769 12.9456 13.7283 12.9076 13.5676 12.888C13.5411 12.8845 13.5146 12.881 13.4872 12.8773C12.9214 12.8111 12.4039 12.899 11.8709 13.0838C11.7949 13.11 11.7189 13.1361 11.6428 13.162C11.5943 13.1786 11.5458 13.1954 11.4974 13.2125C11.1308 13.3386 10.7686 13.3582 10.3843 13.3571C10.3596 13.3571 10.335 13.357 10.3096 13.357C9.77027 13.3549 9.33036 13.2599 8.82886 13.0679C8.50145 12.9428 8.17524 12.8723 7.82493 12.8554C7.78708 12.8534 7.78708 12.8534 7.74846 12.8513C7.22683 12.8374 6.77617 12.9747 6.29137 13.1491Z" fill="#484848"/>
</svg>
