<svg width="20" height="20" viewBox="0 0 20 20" fill="none" xmlns="http://www.w3.org/2000/svg">
<path fill-rule="evenodd" clip-rule="evenodd" d="M16.4345 15.3333H3.80432L5.80711 5.48445C6.0039 4.50087 6.54176 3.61533 7.32852 2.97962C8.11527 2.3439 9.10193 1.99758 10.1194 2.00001C11.1369 1.99758 12.1235 2.3439 12.9103 2.97962C13.6971 3.61533 14.2349 4.50087 14.4317 5.48445L15.4782 10.64L16.4345 15.3333Z" fill="#484848" stroke="#484848" stroke-width="1.3" stroke-linecap="round" stroke-linejoin="round"/>
<path d="M2 15.3333H18.2388" stroke="#484848" stroke-width="1.3" stroke-linecap="round" stroke-linejoin="round"/>
<path d="M12.8258 15.3333C12.8258 16.0406 12.5407 16.7188 12.0331 17.2189C11.5256 17.719 10.8372 18 10.1194 18C9.40157 18 8.71317 17.719 8.20561 17.2189C7.69805 16.7188 7.4129 16.0406 7.4129 15.3333" stroke="#484848" stroke-width="1.3" stroke-linecap="round" stroke-linejoin="round"/>
</svg>
