<svg width="20" height="20" viewBox="0 0 20 20" fill="none" xmlns="http://www.w3.org/2000/svg">
<path d="M10.2671 4.01546C10.2083 4.02853 9.75734 4.55141 9.35211 5.07102C8.60375 6.03507 8.05146 6.96971 7.84885 7.62003C7.78676 7.81611 7.77042 7.93702 7.77042 8.22461C7.77368 9.09715 8.20506 9.87493 8.95669 10.3684C9.3946 10.656 9.79982 10.7736 10.3685 10.7736C10.9371 10.7736 11.339 10.656 11.7835 10.3651C12.5384 9.87493 12.9665 9.09062 12.9632 8.20827C12.9632 7.88474 12.9501 7.7965 12.8717 7.57101C12.5776 6.72134 11.9469 5.72788 10.9011 4.47951C10.5122 4.01219 10.4502 3.96644 10.2671 4.01546ZM10.6528 4.99585C11.7737 6.37167 12.46 7.58735 12.46 8.19519C12.4567 8.95009 11.9926 9.69192 11.3162 10.0318C10.9567 10.2115 10.6397 10.2802 10.2541 10.2573C9.70832 10.2246 9.28022 10.0285 8.87826 9.62656C8.50571 9.25402 8.28022 8.71807 8.27695 8.19519C8.27695 7.69519 8.74427 6.77036 9.54492 5.69193C9.89133 5.22134 10.3358 4.67886 10.3685 4.67886C10.3815 4.67886 10.5122 4.82265 10.6528 4.99585Z" fill="#484848"/>
<path d="M11.4992 7.9893C11.4436 8.04486 11.4207 8.11675 11.4044 8.26708C11.3815 8.4795 11.2802 8.71806 11.1397 8.88473C11.0122 9.03505 10.7018 9.18538 10.4632 9.21152C10.3096 9.22786 10.2377 9.25074 10.1822 9.30629C10.022 9.46969 10.1462 9.7442 10.3782 9.7442C11.2018 9.7442 11.9371 9.00891 11.9371 8.18538C11.9371 7.95335 11.6626 7.82917 11.4992 7.9893Z" fill="#484848"/>
<path d="M2.52533 11.0939C2.3652 11.1462 2.09069 11.4272 2.04167 11.5939C1.98611 11.7867 1.98611 16.0677 2.04167 16.2605C2.09395 16.4403 2.3652 16.7115 2.54493 16.7638C2.64951 16.7932 4.42728 16.803 10.375 16.803C19.0482 16.803 18.2573 16.8292 18.5155 16.5416C18.5939 16.4566 18.6756 16.3259 18.6952 16.254C18.7508 16.071 18.7508 11.7834 18.6952 11.6004C18.6756 11.5285 18.5939 11.3978 18.5155 11.3128C18.2671 11.0351 18.5057 11.0514 14.8227 11.0514H11.5743L11.4959 11.1331C11.3848 11.2409 11.3946 11.339 11.5286 11.6102C11.7737 12.0972 11.9665 12.8945 11.9273 13.2507C11.8521 13.8717 11.1135 14.4338 10.3685 14.4338C9.62009 14.4338 8.88479 13.8749 8.80963 13.2507C8.77041 12.8945 8.96322 12.0972 9.20832 11.6102C9.34231 11.339 9.35211 11.2409 9.241 11.1331L9.16257 11.0514L5.90114 11.0547C3.62336 11.0579 2.60376 11.0677 2.52533 11.0939ZM8.61682 11.6298C8.36845 12.1952 8.22466 13.0155 8.30963 13.4207C8.43708 14.0416 8.9959 14.607 9.73446 14.8651C9.95669 14.9403 10.0449 14.9534 10.3685 14.9534C10.692 14.9534 10.7802 14.9403 11.0057 14.8619C11.8684 14.5645 12.46 13.8586 12.46 13.12C12.46 12.7671 12.2835 11.9991 12.1201 11.6298C12.0939 11.5775 12.2475 11.5743 15.0711 11.5743H18.0514L18.1299 11.656C18.205 11.7279 18.2116 11.7606 18.2116 12.0449V12.3521L18.0416 12.3749C17.692 12.4207 17.4175 12.4926 17.0318 12.6364C16.1528 12.9664 15.3979 12.9664 14.5253 12.6396C14.0416 12.4599 13.7377 12.3913 13.326 12.3684C13.0253 12.3521 12.9926 12.3553 12.9109 12.424C12.839 12.4795 12.8194 12.522 12.8194 12.62C12.8194 12.7998 12.9305 12.8815 13.1789 12.8815C13.4828 12.8815 13.9142 12.973 14.2867 13.1135C14.79 13.303 15.1005 13.3717 15.5711 13.3945C16.1985 13.424 16.6528 13.3488 17.2312 13.1168C17.4894 13.0155 17.7965 12.9338 18.058 12.8978L18.2116 12.8782V14.4991V16.12L18.1299 16.1985L18.0514 16.2802H10.3685H2.68546L2.60703 16.1985L2.52533 16.12V14.4991V12.8782L2.68219 12.8978C2.93382 12.9338 3.20833 13.0089 3.52206 13.1266C4.10049 13.3488 4.27696 13.3815 4.92728 13.3847C5.60702 13.388 5.8031 13.3553 6.42074 13.1233C6.82597 12.9697 7.25081 12.8815 7.56453 12.8815C7.72466 12.8815 7.77042 12.8684 7.83577 12.7998C7.94689 12.6919 7.94362 12.5449 7.83251 12.4338C7.74754 12.3488 7.74427 12.3488 7.40113 12.3684C6.99264 12.3913 6.65931 12.4697 6.18218 12.6494C5.36519 12.9599 4.558 12.9599 3.74428 12.6494C3.38807 12.5155 3.00245 12.4141 2.69853 12.3749L2.52533 12.3521V12.0449C2.52533 11.7606 2.53186 11.7279 2.60703 11.656L2.68546 11.5743H5.66584C8.48937 11.5743 8.64296 11.5775 8.61682 11.6298Z" fill="#484848"/>
<path d="M3.1299 14.2703C3.07761 14.3194 3.0482 14.388 3.0482 14.4501C3.0482 14.5122 3.07761 14.5808 3.1299 14.6298C3.29003 14.7932 3.57108 14.6788 3.57108 14.4501C3.57108 14.3161 3.44363 14.1886 3.30964 14.1886C3.24755 14.1886 3.17892 14.2181 3.1299 14.2703Z" fill="#484848"/>
<path d="M6.79002 14.2704C6.62662 14.4305 6.741 14.7115 6.96976 14.7115C7.03185 14.7115 7.10048 14.6821 7.1495 14.6298C7.20179 14.5808 7.2312 14.5122 7.2312 14.4501C7.2312 14.388 7.20179 14.3194 7.1495 14.2704C7.10048 14.2181 7.03185 14.1887 6.96976 14.1887C6.90767 14.1887 6.83904 14.2181 6.79002 14.2704Z" fill="#484848"/>
<path d="M13.5874 14.2704C13.424 14.4305 13.5384 14.7115 13.7671 14.7115C13.9011 14.7115 14.0286 14.5841 14.0286 14.4501C14.0286 14.3161 13.9011 14.1887 13.7671 14.1887C13.705 14.1887 13.6364 14.2181 13.5874 14.2704Z" fill="#484848"/>
<path d="M17.2475 14.2704C17.0841 14.4305 17.1985 14.7115 17.4273 14.7115C17.5613 14.7115 17.6887 14.5841 17.6887 14.4501C17.6887 14.3161 17.5613 14.1887 17.4273 14.1887C17.3652 14.1887 17.2965 14.2181 17.2475 14.2704Z" fill="#484848"/>
<path d="M4.95996 15.3161C4.90768 15.3651 4.87827 15.4337 4.87827 15.4958C4.87827 15.5579 4.90768 15.6265 4.95996 15.6756C5.00898 15.7279 5.07761 15.7573 5.1397 15.7573C5.20179 15.7573 5.27042 15.7279 5.31944 15.6756C5.37173 15.6265 5.40114 15.5579 5.40114 15.4958C5.40114 15.4337 5.37173 15.3651 5.31944 15.3161C5.27042 15.2638 5.20179 15.2344 5.1397 15.2344C5.07761 15.2344 5.00898 15.2638 4.95996 15.3161Z" fill="#484848"/>
<path d="M8.62008 15.3161C8.45669 15.4762 8.57106 15.7573 8.79982 15.7573C8.86191 15.7573 8.93054 15.7279 8.97956 15.6756C9.03185 15.6265 9.06126 15.5579 9.06126 15.4958C9.06126 15.4337 9.03185 15.3651 8.97956 15.3161C8.93054 15.2638 8.86191 15.2344 8.79982 15.2344C8.73773 15.2344 8.6691 15.2638 8.62008 15.3161Z" fill="#484848"/>
<path d="M11.7573 15.3161C11.5939 15.4762 11.7083 15.7573 11.9371 15.7573C12.0711 15.7573 12.1985 15.6298 12.1985 15.4958C12.1985 15.3618 12.0711 15.2344 11.9371 15.2344C11.875 15.2344 11.8064 15.2638 11.7573 15.3161Z" fill="#484848"/>
<path d="M15.4175 15.3161C15.2541 15.4762 15.3684 15.7573 15.5972 15.7573C15.7312 15.7573 15.8586 15.6298 15.8586 15.4958C15.8586 15.3618 15.7312 15.2344 15.5972 15.2344C15.5351 15.2344 15.4665 15.2638 15.4175 15.3161Z" fill="#484848"/>
</svg>
