<svg width="20" height="20" viewBox="0 0 20 20" fill="none" xmlns="http://www.w3.org/2000/svg">
<path d="M10.1153 4.25972C9.01238 5.55157 8.15228 6.92773 7.987 7.67316C7.88244 8.142 7.987 8.72215 8.26021 9.21797C8.42886 9.52154 8.8606 9.95328 9.16417 10.1219C9.29234 10.1928 9.51158 10.2872 9.65325 10.3344C9.87923 10.4086 9.9703 10.4221 10.3683 10.4221C10.7663 10.4221 10.8574 10.4086 11.0834 10.3344C11.225 10.2872 11.4443 10.1928 11.5725 10.1219C11.876 9.95328 12.3078 9.52154 12.4764 9.21797C12.7496 8.72215 12.8542 8.142 12.7496 7.67316C12.608 7.03904 12.0076 6.00692 11.107 4.86011C10.7528 4.40476 10.402 4 10.3683 4C10.3514 4 10.2401 4.11806 10.1153 4.25972ZM11.903 7.82831C11.9975 7.91938 12.0076 8.03069 11.9536 8.32077C11.8153 9.04932 11.1171 9.63285 10.3784 9.63285C10.139 9.63285 10.0108 9.34952 10.1761 9.18087C10.2334 9.12353 10.3076 9.09992 10.4661 9.08305C10.7124 9.05607 11.0328 8.90091 11.1643 8.74576C11.3094 8.57374 11.4139 8.32751 11.4375 8.10827C11.4544 7.95311 11.478 7.87891 11.5354 7.82157C11.6399 7.71701 11.7984 7.72038 11.903 7.82831Z" fill="#484848"/>
<path d="M2.3238 11.2991C2.08095 11.407 2.00337 11.579 2.00337 12.0074V12.3211L2.31706 12.3413C2.70157 12.3683 3.06923 12.456 3.5347 12.6314C4.37119 12.9518 5.20431 12.9518 6.04755 12.6314C6.88067 12.3177 7.50467 12.2604 8.44572 12.4189L8.56378 12.4357L8.65822 12.1221C8.71219 11.95 8.81338 11.6836 8.88421 11.5284L9.01576 11.2518H5.72037C3.04899 11.2552 2.40475 11.262 2.3238 11.2991Z" fill="#484848"/>
<path d="M11.8524 11.5284C11.9232 11.6836 12.0244 11.9501 12.0784 12.1221L12.1728 12.4358L12.2909 12.4189C12.7463 12.3413 12.9925 12.3245 13.3702 12.3413C13.8492 12.3649 14.173 12.4358 14.6891 12.6314C15.5458 12.9586 16.3486 12.9518 17.2458 12.6179C17.7214 12.4391 18.0283 12.3683 18.4398 12.3413L18.74 12.3211L18.7265 11.9568C18.7164 11.5655 18.686 11.488 18.4837 11.3396C18.3926 11.2687 18.3656 11.2687 15.0567 11.2586L11.7209 11.2519L11.8524 11.5284Z" fill="#484848"/>
<path d="M2.01012 14.5843C2.02024 16.2641 2.02361 16.3079 2.09107 16.399C2.12817 16.4496 2.20238 16.5238 2.25297 16.5609L2.34404 16.6317H10.3683H18.3926L18.4837 16.5609C18.5342 16.5238 18.6085 16.4496 18.6456 16.399C18.713 16.3079 18.7164 16.2641 18.7265 14.5843L18.7366 12.8607L18.4398 12.881C18.0958 12.908 17.8057 12.9788 17.3335 13.1542C16.8039 13.3566 16.5982 13.3903 15.9506 13.3937C15.2895 13.3937 15.0702 13.3532 14.4428 13.1205C13.9167 12.9215 13.5321 12.8574 13.0161 12.881C12.7935 12.8911 12.5304 12.9147 12.4359 12.9383L12.2572 12.9788V13.1407C12.2572 13.8693 11.5151 14.5944 10.6247 14.7327C9.61277 14.8879 8.47946 14.048 8.47946 13.1441V12.9822L8.30406 12.9417C8.20625 12.9181 7.94315 12.8911 7.72054 12.881C7.20448 12.8574 6.81996 12.9215 6.29378 13.1205C5.66303 13.3566 5.45054 13.3937 4.7692 13.3937C4.11822 13.3903 3.87537 13.3465 3.33232 13.1373C2.94443 12.9822 2.63412 12.908 2.29682 12.8844L2 12.8607L2.01012 14.5843ZM3.26823 14.3044C3.43688 14.4696 3.31883 14.7597 3.08272 14.7597C2.94443 14.7597 2.81288 14.6282 2.81288 14.4899C2.81288 14.3516 2.94443 14.22 3.08272 14.22C3.14681 14.22 3.21764 14.2504 3.26823 14.3044ZM7.04595 14.3044C7.2146 14.4696 7.09654 14.7597 6.86043 14.7597C6.79635 14.7597 6.72552 14.7294 6.67492 14.6754C6.62095 14.6248 6.5906 14.554 6.5906 14.4899C6.5906 14.4258 6.62095 14.355 6.67492 14.3044C6.72552 14.2504 6.79635 14.22 6.86043 14.22C6.92452 14.22 6.99535 14.2504 7.04595 14.3044ZM14.0617 14.3044C14.2304 14.4696 14.1123 14.7597 13.8762 14.7597C13.7379 14.7597 13.6064 14.6282 13.6064 14.4899C13.6064 14.3516 13.7379 14.22 13.8762 14.22C13.9403 14.22 14.0111 14.2504 14.0617 14.3044ZM17.8394 14.3044C18.0081 14.4696 17.89 14.7597 17.6539 14.7597C17.5156 14.7597 17.3841 14.6282 17.3841 14.4899C17.3841 14.3516 17.5156 14.22 17.6539 14.22C17.718 14.22 17.7888 14.2504 17.8394 14.3044ZM5.15709 15.3837C5.21106 15.4343 5.24141 15.5051 5.24141 15.5692C5.24141 15.6333 5.21106 15.7041 5.15709 15.7547C5.1065 15.8087 5.03566 15.8391 4.97158 15.8391C4.90749 15.8391 4.83666 15.8087 4.78606 15.7547C4.7321 15.7041 4.70174 15.6333 4.70174 15.5692C4.70174 15.5051 4.7321 15.4343 4.78606 15.3837C4.83666 15.3298 4.90749 15.2994 4.97158 15.2994C5.03566 15.2994 5.1065 15.3298 5.15709 15.3837ZM8.9348 15.3837C9.10345 15.549 8.9854 15.8391 8.74929 15.8391C8.68521 15.8391 8.61437 15.8087 8.56378 15.7547C8.50981 15.7041 8.47946 15.6333 8.47946 15.5692C8.47946 15.5051 8.50981 15.4343 8.56378 15.3837C8.61437 15.3298 8.68521 15.2994 8.74929 15.2994C8.81338 15.2994 8.88421 15.3298 8.9348 15.3837ZM12.1728 15.3837C12.3415 15.549 12.2234 15.8391 11.9873 15.8391C11.849 15.8391 11.7175 15.7075 11.7175 15.5692C11.7175 15.4309 11.849 15.2994 11.9873 15.2994C12.0514 15.2994 12.1223 15.3298 12.1728 15.3837ZM15.9506 15.3837C16.1192 15.549 16.0012 15.8391 15.765 15.8391C15.6268 15.8391 15.4952 15.7075 15.4952 15.5692C15.4952 15.4309 15.6268 15.2994 15.765 15.2994C15.8291 15.2994 15.9 15.3298 15.9506 15.3837Z" fill="#484848"/>
</svg>
