<svg width="20" height="20" viewBox="0 0 20 20" fill="none" xmlns="http://www.w3.org/2000/svg">
<path d="M14.9972 16.366L12.6807 14.5893C12.6527 14.5666 12.6177 14.5542 12.5816 14.5542C12.5455 14.5542 12.5105 14.5666 12.4825 14.5893L10.289 16.4685C10.2605 16.493 10.2241 16.5065 10.1865 16.5065C10.1489 16.5065 10.1125 16.493 10.084 16.4685L7.59667 14.5893C7.57036 14.5658 7.5363 14.5528 7.501 14.5528C7.4657 14.5528 7.43164 14.5658 7.40533 14.5893L5.25967 16.3523C5.23586 16.3695 5.20789 16.38 5.17866 16.3827C5.14943 16.3853 5.12002 16.3801 5.09349 16.3676C5.06696 16.355 5.04429 16.3355 5.02785 16.3112C5.01141 16.2869 5.00179 16.2586 5 16.2293V4.36667C5 4.0042 5.14399 3.65659 5.40029 3.40029C5.65659 3.14399 6.0042 3 6.36667 3H13.8833C14.2458 3 14.5934 3.14399 14.8497 3.40029C15.106 3.65659 15.25 4.0042 15.25 4.36667V16.243C15.2497 16.2722 15.2412 16.3007 15.2256 16.3254C15.21 16.35 15.1878 16.3699 15.1616 16.3826C15.1353 16.3954 15.1061 16.4006 15.077 16.3977C15.048 16.3947 15.0203 16.3838 14.9972 16.366Z" fill="#484848" stroke="#484848" stroke-linecap="round" stroke-linejoin="round"/>
<path d="M6.76984 5.80859H12.2365" stroke="#F9F9FA" stroke-linecap="round" stroke-linejoin="round"/>
<path d="M6.76984 8.54175H10.1865" stroke="#F9F9FA" stroke-linecap="round" stroke-linejoin="round"/>
<path d="M6.76984 11.2751H12.9198" stroke="#F9F9FA" stroke-linecap="round" stroke-linejoin="round"/>
</svg>
