<svg width="20" height="20" viewBox="0 0 20 20" fill="none" xmlns="http://www.w3.org/2000/svg">
<path d="M16.795 4.19498C17.0683 3.92161 17.0683 3.47839 16.795 3.20502C16.5216 2.93166 16.0784 2.93166 15.805 3.20502L3.20502 15.805C2.93166 16.0784 2.93166 16.5216 3.20502 16.795C3.47839 17.0683 3.92161 17.0683 4.19498 16.795L16.795 4.19498Z" fill="#484848"/>
<path fill-rule="evenodd" clip-rule="evenodd" d="M9 6C9 7.65685 7.65685 9 6 9C4.34315 9 3 7.65685 3 6C3 4.34315 4.34315 3 6 3C7.65685 3 9 4.34315 9 6ZM4.33795 6C4.33795 6.91793 5.08207 7.66205 6 7.66205C6.91793 7.66205 7.66205 6.91793 7.66205 6C7.66205 5.08207 6.91793 4.33795 6 4.33795C5.08207 4.33795 4.33795 5.08207 4.33795 6Z" fill="#484848"/>
<path fill-rule="evenodd" clip-rule="evenodd" d="M17 14C17 15.6569 15.6569 17 14 17C12.3431 17 11 15.6569 11 14C11 12.3431 12.3431 11 14 11C15.6569 11 17 12.3431 17 14ZM12.3379 14C12.3379 14.9179 13.0821 15.6621 14 15.6621C14.9179 15.6621 15.6621 14.9179 15.6621 14C15.6621 13.0821 14.9179 12.3379 14 12.3379C13.0821 12.3379 12.3379 13.0821 12.3379 14Z" fill="#484848"/>
</svg>
