<svg width="20" height="20" viewBox="0 0 20 20" fill="none" xmlns="http://www.w3.org/2000/svg">
<path d="M3.125 14.5083L5.11667 16.5C5.27189 16.6587 5.45726 16.7849 5.6619 16.871C5.86653 16.9571 6.08632 17.0015 6.30833 17.0015C6.53035 17.0015 6.75013 16.9571 6.95477 16.871C7.15941 16.7849 7.34478 16.6587 7.5 16.5L8.63333 15.3667C8.78829 15.2119 8.91123 15.0281 8.9951 14.8257C9.07897 14.6234 9.12214 14.4065 9.12214 14.1875C9.12214 13.9685 9.07897 13.7516 8.9951 13.5493C8.91123 13.3469 8.78829 13.1631 8.63333 13.0083L7.89167 12.2583C9.04878 10.3274 10.6628 8.71052 12.5917 7.54999L13.3333 8.29999C13.4881 8.45495 13.6719 8.57789 13.8743 8.66176C14.0766 8.74563 14.2935 8.78881 14.5125 8.78881C14.7315 8.78881 14.9484 8.74563 15.1507 8.66176C15.3531 8.57789 15.5369 8.45495 15.6917 8.29999L16.8083 7.19166C16.9633 7.03687 17.0862 6.85306 17.1701 6.65073C17.254 6.4484 17.2971 6.23152 17.2971 6.01249C17.2971 5.79347 17.254 5.57659 17.1701 5.37426C17.0862 5.17193 16.9633 4.98812 16.8083 4.83333L14.8167 2.82499C14.6811 2.6885 14.5024 2.60313 14.311 2.58338C14.1196 2.56363 13.9273 2.61073 13.7667 2.71666C9.50539 5.5448 5.85314 9.19706 3.025 13.4583C2.91801 13.618 2.86952 13.8098 2.88774 14.0012C2.90597 14.1925 2.98979 14.3717 3.125 14.5083Z" stroke="#484848" stroke-linecap="round" stroke-linejoin="round"/>
</svg>
