<svg width="20" height="20" viewBox="0 0 20 20" fill="none" xmlns="http://www.w3.org/2000/svg">
<path d="M3.12499 14.5083L5.11665 16.5C5.27187 16.6587 5.45724 16.7849 5.66188 16.871C5.86652 16.9571 6.0863 17.0015 6.30832 17.0015C6.53034 17.0015 6.75012 16.9571 6.95476 16.871C7.1594 16.7849 7.34477 16.6587 7.49999 16.5L8.63332 15.3667C8.78828 15.2119 8.91121 15.0281 8.99508 14.8257C9.07896 14.6234 9.12213 14.4065 9.12213 14.1875C9.12213 13.9685 9.07896 13.7516 8.99508 13.5493C8.91121 13.3469 8.78828 13.1631 8.63332 13.0083L7.89165 12.2583C9.04876 10.3274 10.6628 8.71052 12.5917 7.54999L13.3333 8.29999C13.4881 8.45495 13.6719 8.57789 13.8742 8.66176C14.0766 8.74563 14.2935 8.78881 14.5125 8.78881C14.7315 8.78881 14.9484 8.74563 15.1507 8.66176C15.353 8.57789 15.5369 8.45495 15.6917 8.29999L16.8083 7.19166C16.9633 7.03687 17.0862 6.85306 17.1701 6.65073C17.254 6.4484 17.2971 6.23152 17.2971 6.01249C17.2971 5.79347 17.254 5.57659 17.1701 5.37426C17.0862 5.17193 16.9633 4.98812 16.8083 4.83333L14.8167 2.82499C14.681 2.6885 14.5024 2.60313 14.311 2.58338C14.1196 2.56363 13.9273 2.61073 13.7667 2.71666C9.50538 5.5448 5.85312 9.19706 3.02499 13.4583C2.91799 13.618 2.8695 13.8098 2.88773 14.0012C2.90595 14.1925 2.98977 14.3717 3.12499 14.5083Z" fill="#484848" stroke="#484848" stroke-linecap="round" stroke-linejoin="round"/>
</svg>
