<svg width="20" height="20" viewBox="0 0 20 20" fill="none" xmlns="http://www.w3.org/2000/svg">
<path d="M14.476 14.2394C14.1673 14.2401 13.8616 14.1797 13.5764 14.0616C13.2912 13.9435 13.0322 13.7701 12.8143 13.5514L10.4143 11.1514C10.3293 11.0707 10.2166 11.0257 10.0994 11.0257C9.98224 11.0257 9.86953 11.0707 9.78457 11.1514L7.37542 13.5606C7.15764 13.7793 6.89865 13.9528 6.61343 14.0709C6.32821 14.189 6.02241 14.2494 5.71371 14.2486H5.24056L8.28057 17.2886C9.22914 18.2371 10.7686 18.2371 11.7171 17.2886L14.7652 14.2394H14.476ZM5.71371 5.75026C6.34228 5.75026 6.93199 5.99483 7.37542 6.43826L9.78457 8.84741C9.82597 8.88887 9.87514 8.92177 9.92926 8.94422C9.98339 8.96666 10.0414 8.97822 10.1 8.97822C10.1586 8.97822 10.2166 8.96666 10.2707 8.94422C10.3249 8.92177 10.374 8.88887 10.4154 8.84741L12.8154 6.4474C13.0331 6.22875 13.2919 6.05538 13.5769 5.93729C13.8619 5.8192 14.1675 5.75874 14.476 5.7594H14.7652L11.7171 2.71139C11.2613 2.25588 10.6433 2 9.99886 2C9.35444 2 8.7364 2.25588 8.28057 2.71139L5.24056 5.7514L5.71371 5.75026Z" fill="#484848"/>
<path d="M17.2875 8.28059L15.4452 6.4383C15.4038 6.45528 15.3596 6.4642 15.3149 6.46458H14.4772C14.044 6.46458 13.62 6.64058 13.3149 6.94687L10.9149 9.34688C10.8081 9.45417 10.6813 9.53931 10.5415 9.59741C10.4018 9.65551 10.2519 9.68541 10.1006 9.68541C9.94924 9.68541 9.7994 9.65551 9.65965 9.59741C9.51991 9.53931 9.39303 9.45417 9.28629 9.34688L6.87715 6.93659C6.56806 6.62877 6.14993 6.45544 5.71372 6.4543H4.68514C4.6425 6.45396 4.60028 6.44583 4.56057 6.4303L2.71142 8.28059C1.76285 9.22916 1.76285 10.7686 2.71142 11.7183L4.56057 13.5675C4.59984 13.5517 4.64167 13.5431 4.684 13.5423H5.71372C6.148 13.5423 6.57086 13.3675 6.87715 13.0612L9.28515 10.6509C9.50487 10.4417 9.79663 10.325 10.1 10.325C10.4034 10.325 10.6952 10.4417 10.9149 10.6509L13.3149 13.0509C13.62 13.3572 14.044 13.532 14.4772 13.532H15.3149C15.3606 13.532 15.4052 13.5435 15.4452 13.5595L17.2875 11.7172C18.236 10.7686 18.236 9.22916 17.2875 8.28059Z" fill="#484848"/>
</svg>
