<svg width="20" height="20" viewBox="0 0 20 20" fill="none" xmlns="http://www.w3.org/2000/svg">
<path d="M11.7217 2.595C11.7365 2.60714 11.7365 2.60714 11.7517 2.61953C11.7733 2.63752 11.7943 2.65635 11.8151 2.67535C11.8151 2.68419 11.8151 2.69303 11.8151 2.70214C11.8271 2.70762 11.8271 2.70762 11.8393 2.7132C11.8678 2.72855 11.8863 2.7434 11.909 2.76623C11.9167 2.77388 11.9244 2.78154 11.9323 2.78943C11.9407 2.79786 11.949 2.80629 11.9576 2.81497C11.9666 2.82395 11.9756 2.83293 11.9848 2.84218C12.0151 2.87249 12.0453 2.9029 12.0756 2.93331C12.0974 2.95519 12.1192 2.97707 12.1411 2.99895C12.2013 3.05924 12.2614 3.11962 12.3215 3.18002C12.3796 3.2384 12.4378 3.2967 12.496 3.35502C12.6224 3.48168 12.7486 3.60842 12.8749 3.73519C12.9854 3.84611 13.0959 3.957 13.2064 4.06788C13.2137 4.07522 13.221 4.08257 13.2286 4.09014C13.2583 4.11996 13.288 4.14978 13.3177 4.1796C13.5967 4.45946 13.8756 4.7394 14.1545 5.01937C14.4024 5.26831 14.6504 5.51718 14.8985 5.76599C15.177 6.04534 15.4555 6.32473 15.7339 6.60419C15.7636 6.63396 15.7933 6.66373 15.8229 6.69349C15.8302 6.70082 15.8375 6.70815 15.845 6.7157C15.9555 6.82658 16.066 6.93742 16.1765 7.04824C16.3021 7.17418 16.4276 7.30017 16.5531 7.42622C16.6172 7.4906 16.6813 7.55495 16.7454 7.61925C16.8041 7.67801 16.8626 7.73683 16.9212 7.7957C16.9424 7.81708 16.9637 7.83844 16.9851 7.85978C17.0139 7.88859 17.0426 7.91748 17.0713 7.94639C17.084 7.95904 17.084 7.95904 17.0969 7.97194C17.1537 8.02938 17.1537 8.02938 17.1537 8.05923C17.1609 8.06208 17.1682 8.06492 17.1758 8.06786C17.2181 8.09244 17.248 8.12611 17.2804 8.16218C17.2874 8.1699 17.2944 8.17761 17.3016 8.18556C17.7995 8.74219 18.0336 9.42928 17.9961 10.1753C17.9654 10.6723 17.7764 11.1615 17.474 11.5547C17.4647 11.5668 17.4555 11.5789 17.446 11.5914C17.2897 11.7892 17.1063 11.9658 16.9286 12.1438C16.9066 12.1659 16.8846 12.188 16.8626 12.2101C16.8027 12.2703 16.7428 12.3304 16.6829 12.3905C16.6247 12.4488 16.5666 12.5072 16.5085 12.5655C16.3824 12.6921 16.2563 12.8187 16.1302 12.9452C16.0198 13.0559 15.9095 13.1665 15.7993 13.2772C15.7883 13.2883 15.7883 13.2883 15.777 13.2995C15.7473 13.3294 15.7175 13.3593 15.6877 13.3892C15.4089 13.669 15.13 13.9488 14.8511 14.2286C14.6035 14.477 14.3559 14.7255 14.1083 14.974C13.8298 15.2535 13.5513 15.533 13.2728 15.8125C13.2431 15.8423 13.2134 15.8721 13.1837 15.9019C13.1764 15.9092 13.1691 15.9165 13.1615 15.9241C13.0512 16.0348 12.941 16.1454 12.8307 16.2561C12.7054 16.3819 12.58 16.5077 12.4547 16.6334C12.3907 16.6976 12.3268 16.7617 12.2628 16.8259C12.2043 16.8847 12.1458 16.9434 12.0872 17.0021C12.0661 17.0233 12.0449 17.0446 12.0237 17.0658C11.995 17.0947 11.9662 17.1236 11.9373 17.1524C11.9251 17.1648 11.9251 17.1648 11.9125 17.1774C11.8631 17.2268 11.812 17.2737 11.7592 17.3194C11.7367 17.339 11.7146 17.3589 11.6926 17.379C11.5108 17.5434 11.3026 17.6663 11.0811 17.7689C11.0661 17.7761 11.0511 17.7832 11.0356 17.7905C10.7157 17.9359 10.3671 17.9997 10.0175 18C10.0078 18 9.99803 18 9.98799 18C9.55311 17.9994 9.14167 17.8964 8.75879 17.6886C8.74643 17.6819 8.74643 17.6819 8.73382 17.6751C8.51757 17.5578 8.33499 17.4042 8.15403 17.2391C8.14263 17.2288 8.14263 17.2288 8.13099 17.2183C8.11284 17.2015 8.0954 17.184 8.07812 17.1663C8.07812 17.1574 8.07812 17.1486 8.07812 17.1395C8.07042 17.1362 8.06271 17.1329 8.05477 17.1294C8.02034 17.1103 7.99723 17.0888 7.97135 17.0591C7.97135 17.0503 7.97135 17.0415 7.97135 17.0323C7.96364 17.029 7.95594 17.0257 7.948 17.0223C7.91357 17.0031 7.89046 16.9817 7.86458 16.952C7.86458 16.9432 7.86458 16.9343 7.86458 16.9252C7.85687 16.9219 7.84917 16.9186 7.84123 16.9152C7.8068 16.896 7.78369 16.8745 7.75781 16.8448C7.75781 16.836 7.75781 16.8272 7.75781 16.8181C7.7501 16.8147 7.7424 16.8114 7.73445 16.808C7.70003 16.7888 7.67692 16.7674 7.65104 16.7377C7.65104 16.7289 7.65104 16.72 7.65104 16.7109C7.64333 16.7076 7.63562 16.7043 7.62768 16.7009C7.59326 16.6817 7.57014 16.6602 7.54427 16.6306C7.54427 16.6217 7.54427 16.6129 7.54427 16.6038C7.53656 16.6005 7.52885 16.5972 7.52091 16.5937C7.48649 16.5745 7.46337 16.5531 7.4375 16.5234C7.4375 16.5146 7.4375 16.5057 7.4375 16.4966C7.42979 16.4933 7.42208 16.49 7.41414 16.4866C7.37972 16.4674 7.3566 16.446 7.33073 16.4163C7.33073 16.4074 7.33073 16.3986 7.33073 16.3895C7.32302 16.3862 7.31531 16.3829 7.30737 16.3795C7.27295 16.3603 7.24983 16.3388 7.22396 16.3091C7.22396 16.3003 7.22396 16.2915 7.22396 16.2824C7.21625 16.279 7.20854 16.2757 7.2006 16.2723C7.16617 16.2531 7.14306 16.2317 7.11719 16.202C7.11719 16.1932 7.11719 16.1843 7.11719 16.1752C7.10948 16.1719 7.10177 16.1686 7.09383 16.1652C7.0594 16.146 7.03629 16.1245 7.01041 16.0949C7.01041 16.086 7.01041 16.0772 7.01041 16.0681C7.00271 16.0648 6.995 16.0614 6.98706 16.058C6.95263 16.0388 6.92952 16.0174 6.90364 15.9877C6.90364 15.9789 6.90364 15.97 6.90364 15.9609C6.89594 15.9576 6.88823 15.9543 6.88029 15.9509C6.84586 15.9317 6.82275 15.9102 6.79687 15.8806C6.79687 15.8717 6.79687 15.8629 6.79687 15.8538C6.78917 15.8505 6.78146 15.8472 6.77352 15.8437C6.73909 15.8246 6.71598 15.8031 6.6901 15.7734C6.6901 15.7646 6.6901 15.7558 6.6901 15.7466C6.68239 15.7433 6.67469 15.74 6.66675 15.7366C6.63232 15.7174 6.60921 15.696 6.58333 15.6663C6.58333 15.6575 6.58333 15.6486 6.58333 15.6395C6.57562 15.6362 6.56792 15.6329 6.55997 15.6295C6.52555 15.6103 6.50244 15.5888 6.47656 15.5591C6.47656 15.5503 6.47656 15.5415 6.47656 15.5324C6.46885 15.529 6.46114 15.5257 6.4532 15.5223C6.41878 15.5031 6.39566 15.4817 6.36979 15.452C6.36979 15.4432 6.36979 15.4343 6.36979 15.4252C6.36208 15.4219 6.35437 15.4186 6.34643 15.4152C6.31201 15.396 6.28889 15.3745 6.26302 15.3449C6.26302 15.336 6.26302 15.3272 6.26302 15.3181C6.25531 15.3148 6.2476 15.3115 6.23966 15.308C6.20524 15.2888 6.18212 15.2674 6.15625 15.2377C6.15625 15.2289 6.15625 15.22 6.15625 15.2109C6.14854 15.2076 6.14083 15.2043 6.13289 15.2009C6.09847 15.1817 6.07535 15.1603 6.04948 15.1306C6.04948 15.1217 6.04948 15.1129 6.04948 15.1038C6.04177 15.1005 6.03406 15.0972 6.02612 15.0938C5.99169 15.0746 5.96858 15.0531 5.94271 15.0234C5.94271 15.0146 5.94271 15.0058 5.94271 14.9967C5.935 14.9933 5.92729 14.99 5.91935 14.9866C5.88492 14.9674 5.86181 14.946 5.83593 14.9163C5.83593 14.9075 5.83593 14.8986 5.83593 14.8895C5.82823 14.8862 5.82052 14.8829 5.81258 14.8795C5.77815 14.8603 5.75504 14.8388 5.72916 14.8092C5.72916 14.8003 5.72916 14.7915 5.72916 14.7824C5.72146 14.7791 5.71375 14.7757 5.70581 14.7723C5.67138 14.7531 5.64827 14.7317 5.62239 14.702C5.62239 14.6932 5.62239 14.6843 5.62239 14.6752C5.61468 14.6719 5.60698 14.6686 5.59904 14.6652C5.56461 14.646 5.5415 14.6245 5.51562 14.5949C5.51562 14.586 5.51562 14.5772 5.51562 14.5681C5.50791 14.5648 5.50021 14.5615 5.49227 14.558C5.45784 14.5389 5.43473 14.5174 5.40885 14.4877C5.40885 14.4789 5.40885 14.4701 5.40885 14.4609C5.40114 14.4576 5.39344 14.4543 5.38549 14.4509C5.35107 14.4317 5.32796 14.4103 5.30208 14.3806C5.30208 14.3718 5.30208 14.3629 5.30208 14.3538C5.29437 14.3505 5.28666 14.3472 5.27872 14.3438C5.2443 14.3246 5.22118 14.3031 5.19531 14.2734C5.19531 14.2646 5.19531 14.2558 5.19531 14.2467C5.1876 14.2433 5.17989 14.24 5.17195 14.2366C5.13753 14.2174 5.11441 14.196 5.08854 14.1663C5.08854 14.1575 5.08854 14.1486 5.08854 14.1395C5.08083 14.1362 5.07312 14.1329 5.06518 14.1295C5.03076 14.1103 5.00764 14.0888 4.98177 14.0592C4.98177 14.0503 4.98177 14.0415 4.98177 14.0324C4.97406 14.0291 4.96635 14.0258 4.95841 14.0223C4.92399 14.0031 4.90087 13.9817 4.875 13.952C4.875 13.9432 4.875 13.9343 4.875 13.9252C4.86729 13.9219 4.85958 13.9186 4.85164 13.9152C4.81721 13.896 4.7941 13.8746 4.76823 13.8449C4.76823 13.836 4.76823 13.8272 4.76823 13.8181C4.76052 13.8148 4.75281 13.8115 4.74487 13.8081C4.71044 13.7889 4.68733 13.7674 4.66145 13.7377C4.66145 13.7289 4.66145 13.7201 4.66145 13.711C4.65021 13.7062 4.65021 13.7062 4.63874 13.7013C4.60105 13.6802 4.57502 13.6545 4.54447 13.6239C4.53259 13.612 4.52072 13.6001 4.50849 13.5879C4.49007 13.5693 4.49007 13.5693 4.47127 13.5502C4.45253 13.5316 4.45253 13.5316 4.43342 13.5126C4.42162 13.5007 4.40981 13.4888 4.39766 13.4766C4.38681 13.4657 4.37597 13.4548 4.3648 13.4435C4.34114 13.4163 4.34114 13.4163 4.34114 13.3895C4.33343 13.3862 4.32573 13.3829 4.31779 13.3795C4.28336 13.3603 4.26025 13.3388 4.23437 13.3092C4.23437 13.3003 4.23437 13.2915 4.23437 13.2824C4.22706 13.2794 4.21975 13.2765 4.21221 13.2734C4.17117 13.25 4.14092 13.2182 4.10841 13.1845C4.09911 13.1749 4.09911 13.1749 4.08962 13.1652C4.0711 13.1463 4.05264 13.1273 4.03418 13.1083C4.00198 13.0758 3.96975 13.0435 3.93658 13.012C3.91406 12.9877 3.91406 12.9877 3.91406 12.961C3.90697 12.9582 3.89988 12.9554 3.89258 12.9526C3.84722 12.9264 3.81382 12.891 3.77726 12.8538C3.76986 12.8465 3.76246 12.8392 3.75484 12.8316C3.70052 12.7769 3.70052 12.7769 3.70052 12.7467C3.69281 12.7434 3.6851 12.74 3.67716 12.7366C3.64273 12.7174 3.61962 12.696 3.59375 12.6663C3.59375 12.6575 3.59375 12.6486 3.59375 12.6395C3.58604 12.6362 3.57833 12.6329 3.57039 12.6295C3.53596 12.6103 3.51285 12.5889 3.48697 12.5592C3.48697 12.5503 3.48697 12.5415 3.48697 12.5324C3.47927 12.5291 3.47156 12.5258 3.46362 12.5224C3.42919 12.5032 3.40608 12.4817 3.3802 12.452C3.3802 12.4432 3.3802 12.4344 3.3802 12.4253C3.3725 12.4219 3.36479 12.4186 3.35685 12.4152C3.32242 12.396 3.29931 12.3746 3.27343 12.3449C3.27343 12.3361 3.27343 12.3272 3.27343 12.3181C3.26573 12.3148 3.25802 12.3115 3.25008 12.3081C3.21565 12.2889 3.19254 12.2674 3.16666 12.2378C3.16666 12.2289 3.16666 12.2201 3.16666 12.211C3.15895 12.2077 3.15125 12.2043 3.14331 12.2009C3.10888 12.1817 3.08577 12.1603 3.05989 12.1306C3.05989 12.1218 3.05989 12.1129 3.05989 12.1038C3.05218 12.1005 3.04448 12.0972 3.03653 12.0938C3.00211 12.0746 2.979 12.0531 2.95312 12.0235C2.95312 12.0146 2.95312 12.0058 2.95312 11.9967C2.94541 11.9934 2.9377 11.9901 2.92976 11.9866C2.89534 11.9675 2.87222 11.946 2.84635 11.9163C2.84635 11.9075 2.84635 11.8987 2.84635 11.8895C2.83905 11.8867 2.83176 11.8838 2.82424 11.8809C2.7819 11.8563 2.75199 11.8227 2.71956 11.7866C2.7091 11.775 2.7091 11.775 2.69842 11.7632C2.20051 11.2066 1.96642 10.5195 2.00388 9.77343C2.05966 8.87032 2.60074 8.27673 3.20412 7.67148C3.25062 7.62482 3.29708 7.57813 3.34355 7.53143C3.43426 7.4403 3.525 7.3492 3.61576 7.25812C3.68947 7.18414 3.76318 7.11016 3.83688 7.03616C4.04602 6.82618 4.25519 6.61622 4.46439 6.4063C4.47563 6.39502 4.48687 6.38374 4.49845 6.37212C4.50971 6.36082 4.52096 6.34953 4.53256 6.33789C4.71559 6.15423 4.89856 5.9705 5.08149 5.78674C5.26952 5.59787 5.45759 5.40905 5.64572 5.22029C5.75127 5.11437 5.8568 5.00844 5.96227 4.90245C6.0519 4.81239 6.14157 4.72238 6.23131 4.63242C6.27711 4.58651 6.32289 4.54057 6.36861 4.49458C6.41039 4.45255 6.45223 4.41058 6.49412 4.36866C6.50932 4.35342 6.52451 4.33816 6.53967 4.32288C6.56014 4.30223 6.5807 4.28168 6.60128 4.26114C6.61272 4.24966 6.62415 4.23818 6.63593 4.22635C6.66341 4.20212 6.66341 4.20212 6.6901 4.20212C6.69505 4.19064 6.69505 4.19064 6.70009 4.17892C6.71951 4.14361 6.74208 4.11981 6.77049 4.09127C6.78172 4.07993 6.79295 4.06858 6.80452 4.0569C6.82303 4.0384 6.82303 4.0384 6.84192 4.01953C6.85503 4.00633 6.86814 3.99313 6.88125 3.97992C6.91681 3.94411 6.95246 3.90839 6.98812 3.87268C7.02541 3.83533 7.06264 3.79791 7.09988 3.76051C7.16239 3.69773 7.22496 3.635 7.28756 3.57231C7.36001 3.49976 7.43237 3.4271 7.50467 3.3544C7.56671 3.29202 7.62881 3.22969 7.69094 3.16741C7.72808 3.13019 7.76519 3.09296 7.80226 3.05567C7.83707 3.02066 7.87196 2.9857 7.90689 2.9508C7.92588 2.93181 7.94479 2.91274 7.96371 2.89368C7.97494 2.88249 7.98616 2.8713 7.99773 2.85977C8.00751 2.84996 8.0173 2.84015 8.02738 2.83005C8.05143 2.80928 8.05143 2.80928 8.07812 2.80928C8.0835 2.79729 8.0835 2.79729 8.08898 2.78506C8.10494 2.75548 8.12032 2.73752 8.14465 2.71464C8.15263 2.70711 8.16061 2.69958 8.16883 2.69182C8.17743 2.6839 8.18604 2.67598 8.1949 2.66782C8.20388 2.65953 8.21285 2.65124 8.2221 2.64269C9.09201 1.84772 10.338 1.74323 11.7217 2.595ZM8.28364 3.49861C8.24874 3.53366 8.21381 3.56867 8.17887 3.60369C8.11072 3.67202 8.0426 3.74039 7.9745 3.80877C7.91919 3.8643 7.86386 3.91983 7.80852 3.97534C7.80062 3.98327 7.79272 3.9912 7.78457 3.99937C7.76852 4.01548 7.75246 4.03158 7.7364 4.04769C7.58634 4.19824 7.43631 4.34883 7.2863 4.49943C7.15752 4.62872 7.0287 4.75797 6.89986 4.8872C6.75003 5.03748 6.60023 5.18778 6.45046 5.33811C6.43452 5.35411 6.41857 5.37011 6.40263 5.38611C6.39479 5.39399 6.38694 5.40186 6.37886 5.40997C6.32351 5.46553 6.26814 5.52107 6.21276 5.57661C6.14543 5.64413 6.07813 5.71168 6.01085 5.77926C5.97651 5.81376 5.94216 5.84824 5.90778 5.8827C5.87061 5.91995 5.8335 5.95725 5.79639 5.99456C5.78539 6.00556 5.7744 6.01656 5.76307 6.0279C5.75323 6.03781 5.74339 6.04772 5.73324 6.05793C5.72466 6.06655 5.71608 6.07516 5.70724 6.08403C5.68762 6.10105 5.68762 6.10105 5.68912 6.11728C5.69678 6.11736 5.70444 6.11744 5.71234 6.11752C5.79334 6.11839 5.87434 6.11952 5.95533 6.1208C5.98541 6.12124 6.01549 6.12162 6.04557 6.12192C6.28724 6.12446 6.51419 6.13928 6.74432 6.2194C6.75782 6.22403 6.77133 6.22866 6.78524 6.23343C7.15183 6.36345 7.42797 6.61204 7.69748 6.88469C7.719 6.90636 7.74053 6.92802 7.76206 6.94967C7.80809 6.996 7.85408 7.04236 7.90004 7.08875C7.97278 7.16217 8.04562 7.23548 8.11849 7.30876C8.22066 7.41154 8.32279 7.51436 8.42489 7.61721C8.43134 7.62372 8.4378 7.63022 8.44445 7.63692C8.51655 7.70956 8.58864 7.78221 8.66072 7.85487C8.68691 7.88128 8.7131 7.90768 8.7393 7.93409C8.74576 7.9406 8.75222 7.94712 8.75889 7.95383C8.86685 8.06266 8.97489 8.17141 9.08299 8.28011C9.15538 8.3529 9.22768 8.42579 9.2999 8.49874C9.34486 8.54412 9.3899 8.5894 9.43496 8.63466C9.45578 8.65561 9.47656 8.67659 9.49731 8.6976C9.52572 8.72637 9.55425 8.75501 9.58281 8.78362C9.59091 8.79188 9.59901 8.80015 9.60735 8.80866C9.71861 8.91939 9.84015 8.99571 10 9.00174C10.1754 8.99513 10.3 8.90317 10.4191 8.78158C10.4283 8.77238 10.4375 8.76317 10.447 8.75368C10.4774 8.72309 10.5077 8.69236 10.538 8.66163C10.56 8.63955 10.5819 8.61748 10.6038 8.59541C10.651 8.54801 10.698 8.50054 10.745 8.45302C10.8132 8.38414 10.8814 8.31539 10.9497 8.24667C11.0608 8.13492 11.1718 8.02309 11.2828 7.9112C11.2894 7.90451 11.296 7.89783 11.3029 7.89094C11.3566 7.83675 11.4103 7.78255 11.4641 7.72836C11.5109 7.68108 11.5578 7.6338 11.6047 7.58653C11.6113 7.57987 11.6179 7.57322 11.6247 7.56636C11.7352 7.45494 11.8457 7.34361 11.9563 7.23233C12.0304 7.15782 12.1043 7.08322 12.1782 7.00854C12.2244 6.96191 12.2706 6.91536 12.3169 6.86883C12.3382 6.8474 12.3595 6.82593 12.3807 6.80442C12.7756 6.40412 13.2348 6.13581 13.8104 6.12644C13.8319 6.12602 13.8319 6.12602 13.8539 6.1256C13.8995 6.12472 13.945 6.12393 13.9906 6.12314C14.0216 6.12256 14.0526 6.12198 14.0836 6.12139C14.1594 6.11996 14.2351 6.1186 14.3109 6.11728C14.248 6.04152 14.1809 5.97154 14.1114 5.90193C14.0936 5.88401 14.0936 5.88401 14.0754 5.86572C14.0427 5.83277 14.0099 5.79986 13.977 5.76695C13.9416 5.73138 13.9062 5.69577 13.8708 5.66017C13.8015 5.59053 13.7322 5.52093 13.6628 5.45135C13.6065 5.39482 13.5502 5.33829 13.4939 5.28174C13.3343 5.12144 13.1746 4.96117 13.0149 4.80094C13.002 4.78799 13.002 4.78799 12.9888 4.77479C12.9802 4.76615 12.9716 4.75751 12.9628 4.74861C12.823 4.60833 12.6832 4.46798 12.5435 4.3276C12.4001 4.18348 12.2566 4.0394 12.1131 3.89537C12.0325 3.8145 11.9519 3.73361 11.8714 3.65267C11.8029 3.58383 11.7344 3.51503 11.6658 3.4463C11.6308 3.41121 11.5958 3.37609 11.5608 3.34092C11.523 3.30288 11.4852 3.26494 11.4473 3.22702C11.4361 3.21577 11.425 3.20453 11.4135 3.19294C11.3984 3.17784 11.3984 3.17784 11.3829 3.16244C11.3742 3.15366 11.3654 3.14489 11.3564 3.13584C11.336 3.11443 11.336 3.11443 11.3079 3.11731C11.3079 3.10848 11.3079 3.09964 11.3079 3.09053C11.284 3.06911 11.2601 3.04962 11.2345 3.03026C11.2268 3.02437 11.2191 3.01848 11.2111 3.01241C10.1716 2.23503 9.1125 2.66579 8.28364 3.49861ZM4.13206 7.58092C4.03196 7.69446 3.92826 7.80443 3.82423 7.91434C3.66236 8.08553 3.50248 8.25838 3.34551 8.43411C3.33783 8.44269 3.33015 8.45128 3.32224 8.46012C2.90407 8.92812 2.61369 9.42628 2.64396 10.0744C2.6739 10.5378 2.8555 10.9614 3.16562 11.3052C3.20686 11.351 3.24795 11.397 3.2888 11.4432C3.48502 11.6651 3.68458 11.8834 3.88786 12.0988C3.98846 12.2056 4.08771 12.3131 4.18436 12.4235C4.66929 12.9974 4.66929 12.9974 5.34753 13.2455C5.6222 13.2621 5.89697 13.2345 6.16829 13.1928C6.23041 13.1835 6.29275 13.1759 6.35504 13.1678C6.40804 13.1602 6.45876 13.149 6.50993 13.1334C6.51926 13.1306 6.52859 13.1278 6.53821 13.1249C6.68642 13.0774 6.83966 12.9965 6.95703 12.894C6.95703 12.8852 6.95703 12.8763 6.95703 12.8672C6.96807 12.8627 6.96807 12.8627 6.97933 12.858C7.01975 12.8351 7.04783 12.8063 7.08068 12.7733C7.08759 12.7664 7.0945 12.7595 7.10162 12.7524C7.12476 12.7293 7.1478 12.7061 7.17084 12.6829C7.18741 12.6663 7.20399 12.6497 7.22057 12.6331C7.26558 12.5881 7.3105 12.543 7.3554 12.4978C7.40235 12.4507 7.44936 12.4035 7.49637 12.3564C7.57526 12.2773 7.65411 12.1981 7.73292 12.1189C7.82415 12.0272 7.91547 11.9356 8.00684 11.8441C8.08522 11.7656 8.16353 11.687 8.24181 11.6084C8.2886 11.5614 8.3354 11.5144 8.38226 11.4675C8.42626 11.4234 8.47021 11.3792 8.5141 11.335C8.53026 11.3188 8.54645 11.3026 8.56266 11.2863C8.58469 11.2643 8.60664 11.2422 8.62857 11.22C8.64091 11.2077 8.65324 11.1953 8.66594 11.1825C8.69501 11.1562 8.69501 11.1562 8.69206 11.1262C8.69976 11.1228 8.70747 11.1195 8.71541 11.1161C8.74984 11.0969 8.77295 11.0755 8.79883 11.0458C8.79883 11.037 8.79883 11.0281 8.79883 11.019C8.80677 11.0154 8.81471 11.0118 8.8229 11.0081C8.85232 10.9922 8.87093 10.9765 8.89413 10.9526C8.90198 10.9446 8.90983 10.9366 8.91792 10.9283C8.93045 10.9153 8.93045 10.9153 8.94324 10.9021C8.96131 10.8837 8.97938 10.8653 8.99746 10.8469C9.02569 10.818 9.05389 10.789 9.08205 10.76C9.2861 10.5504 9.2861 10.5504 9.39941 10.4833C9.41174 10.476 9.41174 10.476 9.42432 10.4685C9.67853 10.3248 9.99125 10.2708 10.2769 10.3452C10.6104 10.4442 10.819 10.6601 11.0572 10.9006C11.0785 10.9221 11.0998 10.9436 11.1211 10.965C11.1667 11.011 11.2123 11.0569 11.2578 11.1029C11.33 11.1756 11.4022 11.2484 11.4744 11.321C11.4993 11.346 11.5241 11.371 11.5489 11.396C11.5613 11.4085 11.5738 11.421 11.5866 11.4339C11.6506 11.4983 11.7145 11.5627 11.7785 11.6271C11.7849 11.6336 11.7913 11.64 11.798 11.6467C11.9019 11.7513 12.0057 11.856 12.1096 11.9608C12.2166 12.0687 12.3237 12.1766 12.431 12.2844C12.491 12.3447 12.551 12.4051 12.6108 12.4656C12.6671 12.5225 12.7235 12.5793 12.78 12.636C12.8007 12.6567 12.8212 12.6775 12.8417 12.6983C13.0852 12.9451 13.3698 13.1509 13.7263 13.1806C13.7782 13.1855 13.8295 13.1924 13.881 13.2004C14.3014 13.2651 14.8049 13.3321 15.1682 13.067C15.4289 12.8653 15.6508 12.6147 15.8679 12.3679C15.968 12.2543 16.0717 12.1443 16.1758 12.0344C16.3376 11.8632 16.4975 11.6904 16.6545 11.5147C16.666 11.5018 16.666 11.5018 16.6778 11.4887C17.098 11.0183 17.3803 10.5242 17.3558 9.87544C17.3297 9.41267 17.1433 8.98599 16.8344 8.64362C16.7931 8.59777 16.7521 8.5518 16.7112 8.5056C16.515 8.28372 16.3154 8.06533 16.1121 7.84994C16.0115 7.74319 15.9123 7.63563 15.8156 7.52525C15.3307 6.95139 15.3307 6.95139 14.6525 6.70328C14.3778 6.68667 14.103 6.71429 13.8317 6.75596C13.7696 6.76522 13.7072 6.77292 13.645 6.78094C13.592 6.78859 13.5412 6.79973 13.4901 6.81538C13.4807 6.81819 13.4714 6.82101 13.4618 6.82391C13.1519 6.92321 12.9328 7.16308 12.71 7.38849C12.6887 7.40993 12.6674 7.43137 12.6462 7.45281C12.6006 7.49876 12.555 7.54474 12.5095 7.59072C12.4373 7.66357 12.3651 7.73634 12.2928 7.80909C12.2806 7.8214 12.2684 7.83372 12.2558 7.84641C12.2308 7.87158 12.2058 7.89676 12.1808 7.92193C12.1167 7.98643 12.0527 8.05093 11.9886 8.11545C11.9822 8.12192 11.9758 8.12838 11.9692 8.13504C11.8652 8.23975 11.7614 8.34455 11.6576 8.44938C11.5506 8.55742 11.4435 8.66532 11.3363 8.77311C11.2763 8.83347 11.2163 8.8939 11.1565 8.95447C11.1002 9.01148 11.0437 9.06833 10.9871 9.12507C10.9665 9.1458 10.946 9.16658 10.9255 9.18742C10.6623 9.45495 10.3866 9.62769 10.0017 9.63203C9.61136 9.63037 9.33766 9.44621 9.07149 9.17694C9.03466 9.13962 8.99794 9.10221 8.96129 9.06471C8.93941 9.04236 8.91745 9.02008 8.89548 8.99782C8.88883 8.99095 8.88217 8.98409 8.87531 8.97702C8.85921 8.96075 8.84242 8.94518 8.82552 8.92975C8.81671 8.92975 8.8079 8.92975 8.79883 8.92975C8.79552 8.92202 8.79222 8.91429 8.78882 8.90632C8.76969 8.87177 8.74832 8.84858 8.71875 8.82261C8.70994 8.82261 8.70113 8.82261 8.69206 8.82261C8.68752 8.81153 8.68752 8.81153 8.68289 8.80023C8.6601 8.75967 8.63131 8.7315 8.59849 8.69854C8.59162 8.6916 8.58475 8.68466 8.57767 8.67752C8.55464 8.6543 8.53151 8.63118 8.50839 8.60805C8.49185 8.59143 8.47533 8.57479 8.4588 8.55816C8.41392 8.51299 8.36895 8.46792 8.32396 8.42286C8.27695 8.37575 8.23 8.32857 8.18303 8.2814C8.10418 8.20223 8.02528 8.12311 7.94634 8.04403C7.85497 7.95248 7.76369 7.86084 7.67246 7.76915C7.59421 7.69051 7.51591 7.61192 7.43756 7.53337C7.39074 7.48642 7.34392 7.43945 7.29716 7.39244C7.25323 7.34827 7.20923 7.30418 7.16518 7.26013C7.14899 7.24391 7.13281 7.22767 7.11666 7.21141C7.0947 7.1893 7.07266 7.16727 7.05059 7.14526C7.03825 7.13289 7.02591 7.12051 7.01319 7.10776C6.98695 7.0786 6.98695 7.0786 6.95703 7.08156C6.95703 7.07272 6.95703 7.06388 6.95703 7.05477C6.75988 6.90264 6.52436 6.78873 6.27363 6.76812C6.22175 6.76327 6.17048 6.75641 6.119 6.74841C5.18272 6.6041 4.74108 6.88856 4.13206 7.58092ZM9.37624 11.3764C9.35529 11.3975 9.33433 11.4186 9.31338 11.4398C9.26846 11.485 9.22356 11.5303 9.17867 11.5756C9.10751 11.6473 9.03627 11.7191 8.96502 11.7908C8.94054 11.8154 8.91607 11.84 8.89159 11.8646C8.87934 11.877 8.86709 11.8893 8.85446 11.902C8.79127 11.9656 8.72808 12.0292 8.6649 12.0928C8.65857 12.0992 8.65224 12.1056 8.64572 12.1121C8.54329 12.2153 8.44094 12.3185 8.33861 12.4217C8.23309 12.5282 8.12746 12.6345 8.02175 12.7408C7.96259 12.8003 7.90347 12.8598 7.84448 12.9194C7.78891 12.9756 7.73321 13.0317 7.67742 13.0876C7.65713 13.108 7.63689 13.1285 7.6167 13.149C7.33861 13.431 7.03842 13.6423 6.6559 13.7545C6.63912 13.7594 6.63912 13.7594 6.622 13.7645C6.41748 13.8219 6.21623 13.8235 6.00527 13.8265C5.97455 13.827 5.94383 13.8275 5.91312 13.828C5.83846 13.8293 5.76379 13.8304 5.68912 13.8315C5.75159 13.9068 5.81822 13.9763 5.88729 14.0455C5.90489 14.0632 5.90489 14.0632 5.92285 14.0813C5.95523 14.1139 5.98764 14.1464 6.02007 14.1789C6.05511 14.2141 6.09011 14.2493 6.12512 14.2845C6.19365 14.3533 6.26221 14.4222 6.33078 14.491C6.38656 14.547 6.44232 14.603 6.49808 14.659C6.65636 14.8179 6.81467 14.9768 6.97301 15.1357C6.9858 15.1485 6.9858 15.1485 6.99885 15.1616C7.00739 15.1702 7.01593 15.1788 7.02472 15.1876C7.16302 15.3264 7.30125 15.4652 7.43945 15.6041C7.58154 15.7469 7.72369 15.8896 7.86589 16.0323C7.94564 16.1123 8.02538 16.1923 8.10506 16.2724C8.17291 16.3407 8.24081 16.4088 8.30877 16.4769C8.34339 16.5116 8.37799 16.5463 8.41254 16.5811C8.4501 16.6189 8.48778 16.6567 8.52546 16.6944C8.53619 16.7052 8.54693 16.7161 8.55799 16.7272C8.94847 17.1167 9.44246 17.3506 9.99583 17.358C10.5111 17.3557 10.9812 17.1566 11.3558 16.8045C11.3643 16.7965 11.3729 16.7884 11.3817 16.7802C11.5007 16.6675 11.616 16.551 11.7317 16.4348C11.7664 16.3999 11.8011 16.3651 11.8359 16.3303C11.9036 16.2623 11.9713 16.1944 12.039 16.1264C12.094 16.0712 12.149 16.0161 12.204 15.9609C12.2119 15.953 12.2197 15.9451 12.2278 15.937C12.2438 15.9209 12.2598 15.9049 12.2757 15.8889C12.4249 15.7392 12.5741 15.5895 12.7232 15.4398C12.8512 15.3113 12.9792 15.1828 13.1073 15.0544C13.2563 14.9049 13.4053 14.7555 13.5542 14.606C13.5701 14.5901 13.5859 14.5741 13.6018 14.5582C13.6096 14.5504 13.6174 14.5426 13.6254 14.5345C13.6804 14.4793 13.7355 14.4241 13.7905 14.3689C13.8574 14.3018 13.9243 14.2346 13.9912 14.1675C14.0253 14.1332 14.0594 14.0989 14.0936 14.0647C14.1305 14.0277 14.1674 13.9906 14.2043 13.9535C14.2207 13.9371 14.2207 13.9371 14.2374 13.9204C14.2472 13.9106 14.257 13.9007 14.267 13.8906C14.2756 13.882 14.2841 13.8734 14.2929 13.8646C14.3124 13.8477 14.3124 13.8477 14.3109 13.8315C14.3032 13.8314 14.2955 13.8313 14.2876 13.8313C14.2064 13.8304 14.1251 13.8293 14.0439 13.828C14.0138 13.8275 13.9836 13.8272 13.9534 13.8268C13.7277 13.8245 13.5151 13.8096 13.2982 13.7428C13.2872 13.7394 13.2762 13.736 13.2649 13.7325C12.8704 13.6059 12.5859 13.3509 12.3 13.0613C12.2784 13.0395 12.2567 13.0177 12.2351 12.9959C12.1888 12.9494 12.1426 12.9028 12.0965 12.8561C12.0234 12.7823 11.9502 12.7086 11.877 12.6349C11.7744 12.5316 11.6717 12.4282 11.5691 12.3248C11.5594 12.315 11.5594 12.315 11.5495 12.305C11.4573 12.2121 11.3652 12.1191 11.273 12.0262C11.2665 12.0196 11.26 12.013 11.2533 12.0063C11.2468 11.9997 11.2403 11.9932 11.2337 11.9864C11.1252 11.877 11.0166 11.7676 10.908 11.6583C10.8352 11.5852 10.7626 11.5119 10.6901 11.4385C10.6449 11.3929 10.5997 11.3474 10.5544 11.3019C10.5335 11.2809 10.5126 11.2598 10.4918 11.2386C10.2825 11.0241 10.2825 11.0241 10.0017 10.9479C9.73208 10.9541 9.55195 11.1989 9.37624 11.3764Z" fill="#484848"/>
</svg>
