<svg width="20" height="20" viewBox="0 0 20 20" fill="none" xmlns="http://www.w3.org/2000/svg">
<path d="M10.4303 3C10.2541 3 10.0708 3 9.89455 3C9.71832 3 9.53504 3 9.3588 3C5.83416 3.34542 3.94495 7.32826 5.61563 10.43L9.35175 17.3806C9.40378 17.4795 9.48183 17.5623 9.5775 17.6201C9.67316 17.6778 9.78279 17.7084 9.89455 17.7084C10.0063 17.7084 10.1159 17.6778 10.2116 17.6201C10.3073 17.5623 10.3853 17.4795 10.4373 17.3806L14.1735 10.4511C15.8442 7.32826 13.9338 3.34542 10.4303 3Z" fill="#484848" stroke="#484848" stroke-width="1.5" stroke-linecap="round" stroke-linejoin="bevel"/>
<path d="M11.6569 7.86401C11.6569 6.8907 10.8679 6.10168 9.89456 6.10168C8.92125 6.10168 8.13223 6.8907 8.13223 7.86401C8.13223 8.83731 8.92125 9.62633 9.89456 9.62633C10.8679 9.62633 11.6569 8.83731 11.6569 7.86401Z" fill="#484848" stroke="white" stroke-width="1.5" stroke-linecap="round" stroke-linejoin="bevel"/>
</svg>
