<svg width="20" height="20" viewBox="0 0 20 20" fill="none" xmlns="http://www.w3.org/2000/svg">
<g clip-path="url(#clip0_111_163)">
<path d="M10.084 3.02793C8.3168 3.25391 6.78574 4.35586 6.00879 5.95801C5.64062 6.71719 5.48828 7.38496 5.48828 8.25078C5.48828 9.16992 5.65078 9.85547 6.06465 10.668L6.25 11.0336L4.71895 12.5723C3.22598 14.0678 3.18535 14.1135 3.09902 14.2988C3.01523 14.4842 3.0127 14.4994 3.0127 14.8066C3.0127 15.1215 3.0127 15.1266 3.10664 15.3221C3.23359 15.5836 3.41641 15.7664 3.67793 15.8934C3.87344 15.9873 3.87852 15.9873 4.19336 15.9873C4.50059 15.9873 4.51582 15.9848 4.70117 15.901C4.88652 15.8146 4.93223 15.774 6.42773 14.2811L7.96641 12.75L8.3625 12.9506C9.14961 13.3467 9.84785 13.5117 10.7441 13.5117C11.6023 13.5117 12.298 13.3543 13.042 12.9912C14.1186 12.4682 14.9539 11.6328 15.482 10.5537C15.84 9.81738 16 9.11406 16 8.25586C16 7.4002 15.84 6.69434 15.482 5.95801C14.6898 4.33809 13.1639 3.24883 11.3789 3.02793C11.1326 2.99492 10.3277 2.99746 10.084 3.02793ZM11.125 3.79727C11.6049 3.82266 12.2676 4.01055 12.7449 4.2543C13.9941 4.89668 14.8396 6.00117 15.1418 7.39258C15.1926 7.62617 15.1977 7.73027 15.1977 8.25586C15.1977 8.78145 15.1926 8.88555 15.1418 9.11914C14.8828 10.315 14.2201 11.3027 13.235 11.9654C12.0695 12.75 10.64 12.943 9.31211 12.4936C7.80137 11.9832 6.69687 10.7238 6.34648 9.11914C6.2957 8.88301 6.28809 8.78145 6.28809 8.25586C6.28809 7.58047 6.31855 7.3875 6.50391 6.83145C7.00664 5.3207 8.29902 4.1832 9.88086 3.86328C10.1398 3.80996 10.64 3.7668 10.8203 3.77949C10.8686 3.78203 11.0057 3.78965 11.125 3.79727ZM7.02187 11.9807L7.31894 12.2777L6.31602 13.2807L5.31055 14.2861L5.01348 13.9865L4.71387 13.6895L5.7168 12.6865C6.26777 12.1355 6.72227 11.6836 6.72227 11.6836C6.7248 11.6836 6.85937 11.8182 7.02187 11.9807ZM4.44727 14.568L4.73926 14.86L4.5666 15.0225C4.38125 15.1951 4.29746 15.2307 4.11719 15.2053C3.86836 15.1723 3.71602 14.893 3.8125 14.6416C3.83789 14.5781 4.10703 14.2734 4.14004 14.2734C4.1502 14.2734 4.2873 14.4055 4.44727 14.568Z" fill="#484848"/>
<path d="M10.1728 4.4498C8.48689 4.71133 7.18181 6.0291 6.93552 7.71758C6.88982 8.0248 6.91521 8.78906 6.98123 9.0709C7.29861 10.4293 8.25584 11.4881 9.5406 11.9096C9.98748 12.0543 10.15 12.0771 10.7441 12.0771C11.3383 12.0771 11.5008 12.0543 11.9476 11.9096C13.0927 11.5338 14.022 10.6045 14.3978 9.45937C14.5426 9.0125 14.5654 8.85 14.5654 8.25586C14.5654 7.8166 14.5552 7.6668 14.5172 7.49414C14.408 6.99141 14.2277 6.55723 13.9611 6.15352C13.3924 5.29277 12.5799 4.73164 11.5592 4.49297C11.3078 4.43457 10.4394 4.40664 10.1728 4.4498ZM11.2773 5.25215C12.3336 5.42734 13.2578 6.20937 13.6234 7.23516C13.7961 7.71758 13.8418 8.34473 13.7402 8.84238C13.4457 10.2871 12.2066 11.3053 10.7441 11.3053C9.44919 11.3053 8.30408 10.4953 7.86228 9.27148C7.64138 8.65449 7.64138 7.85723 7.86228 7.24023C8.27107 6.10527 9.32224 5.29531 10.5004 5.21152C10.7949 5.19121 10.9752 5.20137 11.2773 5.25215Z" fill="#484848"/>
<path d="M10.5055 5.9174C10.3887 5.99611 10.3379 6.09259 10.3379 6.25001C10.3379 6.40743 10.3887 6.50392 10.5055 6.58263C10.6045 6.64865 10.833 6.64865 10.932 6.58263C11.0488 6.50392 11.0996 6.40743 11.0996 6.25001C11.0996 6.09259 11.0488 5.99611 10.932 5.9174C10.8812 5.88439 10.8127 5.86915 10.7188 5.86915C10.6248 5.86915 10.5562 5.88439 10.5055 5.9174Z" fill="#484848"/>
<path d="M9.28672 6.7299C9.16992 6.80861 9.11914 6.90509 9.11914 7.06251C9.11914 7.21993 9.16992 7.31642 9.28672 7.39513C9.38574 7.46115 9.61426 7.46115 9.71328 7.39513C9.83008 7.31642 9.88086 7.21993 9.88086 7.06251C9.88086 6.96857 9.86562 6.90001 9.83262 6.84923C9.75391 6.73243 9.65742 6.68165 9.5 6.68165C9.40605 6.68165 9.3375 6.69689 9.28672 6.7299Z" fill="#484848"/>
<path d="M11.7242 6.7299C11.6074 6.80861 11.5566 6.90509 11.5566 7.06251C11.5566 7.21993 11.6074 7.31642 11.7242 7.39513C11.8232 7.46115 12.0518 7.46115 12.1508 7.39513C12.2676 7.31642 12.3184 7.21993 12.3184 7.06251C12.3184 6.90509 12.2676 6.80861 12.1508 6.7299C12.1 6.69689 12.0314 6.68165 11.9375 6.68165C11.8436 6.68165 11.775 6.69689 11.7242 6.7299Z" fill="#484848"/>
<path d="M8.47422 7.94863C8.35742 8.02734 8.30664 8.12383 8.30664 8.28125C8.30664 8.52246 8.44629 8.66211 8.6875 8.66211C8.92871 8.66211 9.06836 8.52246 9.06836 8.28125C9.06836 8.04004 8.92871 7.90039 8.6875 7.90039C8.59355 7.90039 8.525 7.91563 8.47422 7.94863Z" fill="#484848"/>
<path d="M10.5055 7.94865C10.3887 8.02736 10.3379 8.12384 10.3379 8.28126C10.3379 8.43868 10.3887 8.53517 10.5055 8.61388C10.6045 8.6799 10.833 8.6799 10.932 8.61388C11.0488 8.53517 11.0996 8.43868 11.0996 8.28126C11.0996 8.18732 11.0844 8.11876 11.0514 8.06798C10.9727 7.95118 10.8762 7.9004 10.7188 7.9004C10.6248 7.9004 10.5562 7.91564 10.5055 7.94865Z" fill="#484848"/>
<path d="M12.5367 7.94865C12.4199 8.02736 12.3691 8.12384 12.3691 8.28126C12.3691 8.43868 12.4199 8.53517 12.5367 8.61388C12.6357 8.6799 12.8643 8.6799 12.9633 8.61388C13.0801 8.53517 13.1309 8.43868 13.1309 8.28126C13.1309 8.18732 13.1156 8.11876 13.0826 8.06798C13.0039 7.95118 12.9074 7.9004 12.75 7.9004C12.6561 7.9004 12.5875 7.91564 12.5367 7.94865Z" fill="#484848"/>
<path d="M9.28672 9.16738C9.16992 9.24609 9.11914 9.34258 9.11914 9.5C9.11914 9.65742 9.16992 9.75391 9.28672 9.83262C9.3375 9.86563 9.40605 9.88086 9.5 9.88086C9.74121 9.88086 9.88086 9.74121 9.88086 9.5C9.88086 9.40605 9.86562 9.3375 9.83262 9.28672C9.75391 9.16992 9.65742 9.11914 9.5 9.11914C9.40605 9.11914 9.3375 9.13438 9.28672 9.16738Z" fill="#484848"/>
<path d="M11.7242 9.16738C11.6074 9.24609 11.5566 9.34258 11.5566 9.5C11.5566 9.74121 11.6963 9.88086 11.9375 9.88086C12.1787 9.88086 12.3184 9.74121 12.3184 9.5C12.3184 9.34258 12.2676 9.24609 12.1508 9.16738C12.1 9.13438 12.0314 9.11914 11.9375 9.11914C11.8436 9.11914 11.775 9.13438 11.7242 9.16738Z" fill="#484848"/>
<path d="M10.5055 9.97988C10.3887 10.0586 10.3379 10.1551 10.3379 10.3125C10.3379 10.5537 10.4775 10.6934 10.7188 10.6934C10.96 10.6934 11.0996 10.5537 11.0996 10.3125C11.0996 10.0713 10.96 9.93164 10.7188 9.93164C10.6248 9.93164 10.5562 9.94688 10.5055 9.97988Z" fill="#484848"/>
</g>
<defs>
<clipPath id="clip0_111_163">
<rect width="13" height="13" fill="white" transform="translate(3 3)"/>
</clipPath>
</defs>
</svg>
