<svg width="20" height="20" viewBox="0 0 20 20" fill="none" xmlns="http://www.w3.org/2000/svg">
<g clip-path="url(#clip0_111_162)">
<path d="M11.084 4.02792C9.3168 4.25389 7.78574 5.35585 7.00879 6.958C6.63809 7.71718 6.48828 8.38495 6.48828 9.25585C6.48828 10.1242 6.64062 10.7971 7.00879 11.5537C7.79082 13.1685 9.32441 14.2629 11.1094 14.4838C11.3861 14.5193 12.1021 14.5193 12.3789 14.4838C12.9604 14.4127 13.5164 14.2476 14.042 13.9912C15.1186 13.4682 15.9539 12.6328 16.482 11.5537C16.84 10.8174 17 10.114 17 9.25585C17 8.40018 16.84 7.69432 16.482 6.958C15.6898 5.33807 14.1639 4.24882 12.3789 4.02792C12.1326 3.99491 11.3277 3.99745 11.084 4.02792ZM12.0895 5.45741C12.6937 5.49549 13.4098 5.75956 13.9607 6.15057C14.2273 6.33846 14.6615 6.77264 14.8494 7.03925C15.149 7.46073 15.3826 7.99901 15.4943 8.51952C15.5604 8.82675 15.5604 9.68495 15.4943 9.99218C15.3826 10.5127 15.149 11.0484 14.8469 11.4775C14.6615 11.7391 14.2248 12.1732 13.9607 12.3611C13.5393 12.6607 12.9908 12.8994 12.4932 13.001C12.0641 13.0898 11.4242 13.0898 10.9951 13.001C10.5051 12.9019 9.94395 12.6557 9.52754 12.3611C9.26094 12.1732 8.82676 11.7391 8.63887 11.4724C8.33926 11.051 8.10566 10.5127 7.99395 9.99218C7.92793 9.68495 7.92793 8.82675 7.99395 8.51952C8.10566 7.99901 8.33926 7.46073 8.63887 7.03925C8.82676 6.77264 9.26094 6.33846 9.52754 6.15057C9.94902 5.85096 10.4949 5.61229 10.9951 5.51073C11.2008 5.46757 11.6705 5.42694 11.8076 5.43964C11.8508 5.44217 11.9752 5.44979 12.0895 5.45741Z" fill="#484848"/>
<path d="M11.1221 6.23435C10.4771 6.374 9.9744 6.6533 9.51991 7.13064C8.89276 7.78826 8.61092 8.58298 8.67694 9.51482C8.76581 10.7945 9.69764 11.9015 10.9748 12.2443C11.2058 12.3078 11.2617 12.3129 11.7441 12.3129C12.2265 12.3129 12.2824 12.3078 12.5135 12.2443C13.0644 12.097 13.5113 11.8381 13.9176 11.4293C14.3264 11.023 14.5853 10.5761 14.7326 10.0252C14.7961 9.79412 14.8012 9.73826 14.8012 9.25584C14.8012 8.77341 14.7961 8.71755 14.7326 8.4865C14.4381 7.39724 13.5976 6.55427 12.5135 6.26736C12.3002 6.2115 12.2012 6.20134 11.8076 6.19373C11.4267 6.18611 11.3125 6.19373 11.1221 6.23435ZM11.9066 6.94275C12.0158 7.01638 12.0742 7.12048 12.0742 7.24998C12.0742 7.37947 12.0158 7.48357 11.9066 7.5572C11.7517 7.65877 11.5207 7.60291 11.4115 7.43787C11.3531 7.349 11.348 7.1738 11.4014 7.0697C11.4877 6.90466 11.7492 6.83865 11.9066 6.94275ZM10.6777 7.74509C10.7818 7.79841 10.8555 7.93298 10.8555 8.06502C10.8555 8.2656 10.7031 8.41794 10.5 8.41794C10.2308 8.41794 10.0557 8.12849 10.1826 7.88728C10.2639 7.72732 10.5076 7.65877 10.6777 7.74509ZM13.1254 7.75525C13.2346 7.82888 13.293 7.93298 13.293 8.06248C13.293 8.19197 13.2346 8.29607 13.1254 8.3697C12.9705 8.47127 12.7394 8.41541 12.6303 8.25037C12.5719 8.1615 12.5668 7.9863 12.6201 7.8822C12.7064 7.71716 12.968 7.65115 13.1254 7.75525ZM9.87538 8.974C9.98456 9.04763 10.043 9.15173 10.043 9.28123C10.043 9.64177 9.58085 9.77127 9.38026 9.46912C9.32186 9.38025 9.31678 9.20505 9.3701 9.10095C9.45643 8.93591 9.71796 8.8699 9.87538 8.974ZM11.9066 8.974C12.0158 9.04763 12.0742 9.15173 12.0742 9.28123C12.0742 9.41072 12.0158 9.51482 11.9066 9.58845C11.7517 9.69002 11.5207 9.63416 11.4115 9.46912C11.3531 9.38025 11.348 9.20505 11.4014 9.10095C11.4877 8.93591 11.7492 8.8699 11.9066 8.974ZM13.9379 8.974C14.0471 9.04763 14.1055 9.15173 14.1055 9.28123C14.1055 9.41072 14.0471 9.51482 13.9379 9.58845C13.783 9.69002 13.5519 9.63416 13.4428 9.46912C13.3844 9.38025 13.3793 9.20505 13.4326 9.10095C13.5189 8.93591 13.7805 8.8699 13.9379 8.974ZM10.6879 10.1927C10.7971 10.2664 10.8555 10.3705 10.8555 10.5C10.8555 10.7031 10.7031 10.8554 10.5 10.8554C10.2283 10.8554 10.0557 10.566 10.1826 10.3197C10.2689 10.1547 10.5305 10.0886 10.6879 10.1927ZM13.1254 10.1927C13.2346 10.2664 13.293 10.3705 13.293 10.5C13.293 10.7031 13.1406 10.8554 12.9375 10.8554C12.6658 10.8554 12.4932 10.566 12.6201 10.3197C12.7064 10.1547 12.968 10.0886 13.1254 10.1927ZM11.9066 11.0052C12.0158 11.0789 12.0742 11.183 12.0742 11.3125C12.0742 11.5156 11.9219 11.6679 11.7187 11.6679C11.4471 11.6679 11.2744 11.3785 11.4014 11.1322C11.4877 10.9672 11.7492 10.9011 11.9066 11.0052Z" fill="#484848"/>
<path d="M5.91699 13.3691L5.12988 14.1563L5.98809 15.0119L6.84375 15.8701L7.63086 15.083C8.0625 14.6514 8.41797 14.2857 8.41797 14.2705C8.41543 14.2578 8.31133 14.1689 8.18184 14.075C7.74004 13.7525 7.24746 13.26 6.925 12.8182C6.83105 12.6887 6.74219 12.5846 6.72949 12.582C6.71426 12.582 6.34863 12.9375 5.91699 13.3691Z" fill="#484848"/>
<path d="M4.39355 14.8951C4.25391 15.0424 4.17266 15.1541 4.10664 15.2938C4.01523 15.4867 4.0127 15.4943 4.0127 15.8066C4.0127 16.1215 4.0127 16.1266 4.10664 16.3221C4.23359 16.5836 4.41641 16.7664 4.67793 16.8934C4.87344 16.9873 4.87852 16.9873 5.19336 16.9873C5.50566 16.9873 5.51328 16.9873 5.70625 16.8934C5.85352 16.8248 5.95508 16.7486 6.1125 16.5963L6.32324 16.3932L5.47266 15.54C5.00547 15.0729 4.61445 14.6895 4.60684 14.6895C4.59668 14.6895 4.50273 14.7809 4.39355 14.8951Z" fill="#484848"/>
</g>
<defs>
<clipPath id="clip0_111_162">
<rect width="13" height="13" fill="white" transform="translate(4 4)"/>
</clipPath>
</defs>
</svg>
