<svg width="20" height="20" viewBox="0 0 20 20" fill="none" xmlns="http://www.w3.org/2000/svg">
<path d="M16.25 10.95V15C16.25 15.4421 16.0744 15.866 15.7618 16.1786C15.4493 16.4911 15.0254 16.6667 14.5833 16.6667H5.41667C4.97464 16.6667 4.55072 16.4911 4.23816 16.1786C3.92559 15.866 3.75 15.4421 3.75 15V10.8334" stroke="#484848" stroke-width="1.5" stroke-linecap="round" stroke-linejoin="round"/>
<path d="M3.75 8.33337V5.00004C3.75 4.55801 3.92559 4.13409 4.23816 3.82153C4.55072 3.50897 4.97464 3.33337 5.41667 3.33337H14.5833C15.0254 3.33337 15.4493 3.50897 15.7618 3.82153C16.0744 4.13409 16.25 4.55801 16.25 5.00004V8.33337" stroke="#484848" stroke-width="1.5" stroke-linecap="round" stroke-linejoin="round"/>
<path d="M1.66667 8.33337H18.3333" stroke="#484848" stroke-width="1.5" stroke-linecap="round" stroke-linejoin="round"/>
</svg>
