<svg width="20" height="20" viewBox="0 0 20 20" fill="none" xmlns="http://www.w3.org/2000/svg">
<path d="M9.09973 13.2545C9.39315 13.2676 9.69297 13.277 9.99653 13.277C10.3033 13.277 10.6063 13.2707 10.9035 13.2545C10.6063 13.6318 10.3129 13.9656 10.0024 14.2837L10.0067 14.2796C9.69778 13.9651 9.40115 13.6308 9.1216 13.2828L9.09973 13.2545ZM6.05988 12.8352C6.63766 12.9793 7.3424 13.102 8.06155 13.1774L8.13144 13.1832C8.57157 13.777 9.0165 14.2995 9.49398 14.791L9.48811 14.7848C8.7887 15.5515 7.84495 16.0902 6.77743 16.2836L6.74809 16.2878C6.74596 16.2878 6.74382 16.2878 6.74169 16.2878C6.60938 16.2878 6.48455 16.2558 6.37518 16.1992L6.37945 16.2013C5.93558 15.9524 5.74299 15.0001 5.8929 13.7764C5.92864 13.4751 5.98733 13.158 6.05935 12.8347L6.05988 12.8352ZM13.9465 12.8284C14.0095 13.0768 14.0687 13.3934 14.1108 13.7151L14.1156 13.7602C14.2687 14.9834 14.0799 15.9346 13.6398 16.1887C13.5416 16.2422 13.4242 16.2736 13.2994 16.2736C13.2871 16.2736 13.2748 16.2731 13.2626 16.2726H13.2642C12.1689 16.0761 11.2257 15.541 10.5279 14.7837L10.5242 14.7795C10.9931 14.2958 11.4348 13.7744 11.8398 13.2256L11.8707 13.1816C12.6581 13.1009 13.3639 12.9762 14.0516 12.8059L13.9465 12.8279V12.8284ZM6.68354 10.8726C6.81691 11.1294 6.95669 11.3851 7.11033 11.6419C7.26362 11.8973 7.42029 12.1468 7.58034 12.3903C7.11727 12.3237 6.6702 12.2399 6.24287 12.1377C6.36291 11.7252 6.51335 11.2981 6.683 10.8715L6.68354 10.8726ZM13.3138 10.8595C13.4904 11.2897 13.6403 11.7189 13.7646 12.1351C13.3378 12.2378 12.887 12.3248 12.4207 12.3903C12.5808 12.1445 12.7408 11.8914 12.8907 11.632C13.0406 11.3767 13.181 11.1157 13.3149 10.859L13.3138 10.8595ZM5.52852 8.05623C5.76113 8.8308 6.0108 9.47855 6.30156 10.1032L6.26154 10.0079C6.01294 10.5346 5.767 11.1786 5.56534 11.8416L5.53759 11.949C5.16095 11.8353 4.85792 11.7237 4.5629 11.5984L4.62425 11.6215C3.46977 11.1388 2.72288 10.5042 2.72288 10.001C2.72288 9.49794 3.46977 8.86015 4.62425 8.37958C4.90434 8.26166 5.21163 8.15527 5.52852 8.05623ZM14.4587 8.0536C14.7814 8.15161 15.0882 8.26114 15.3752 8.37958C16.5297 8.86434 17.2766 9.49794 17.2766 10.001C17.2734 10.5042 16.5265 11.1404 15.372 11.622C15.0919 11.7399 14.7852 11.8458 14.4688 11.9448C14.2341 11.1676 13.9844 10.5204 13.6947 9.89466L13.7353 9.99319C13.9828 9.46702 14.2293 8.82294 14.4304 8.15999L14.4587 8.05203V8.0536ZM12.4165 7.61181C12.8801 7.67942 13.3266 7.76222 13.7539 7.86546C13.6339 8.27948 13.484 8.70502 13.3138 9.13162C13.1804 8.87639 13.0406 8.61908 12.887 8.36281C12.7371 8.10601 12.577 7.85603 12.417 7.61234L12.4165 7.61181ZM7.57661 7.61181C7.41656 7.85865 7.25651 8.11125 7.10713 8.37172C6.95722 8.62694 6.81691 8.88373 6.68354 9.14053C6.50695 8.71079 6.35704 8.28262 6.23274 7.86546C6.65953 7.76746 7.10927 7.67994 7.57607 7.61286L7.57661 7.61181ZM9.99973 7.44516C10.4932 7.44516 10.9846 7.46717 11.4679 7.50595C11.7386 7.88713 12.0014 8.2931 12.2564 8.72389C12.5043 9.14315 12.7305 9.56799 12.935 9.99843C12.7296 10.4276 12.5045 10.8563 12.2596 11.2756C12.0062 11.7079 11.7443 12.1193 11.4727 12.5003C10.9872 12.5417 10.4953 12.5643 9.9992 12.5643C9.50572 12.5643 9.01437 12.5412 8.53103 12.5035C8.26054 12.1225 7.99647 11.7148 7.74252 11.2855C7.49463 10.8663 7.26842 10.4414 7.06392 10.011C7.26611 9.58074 7.49445 9.15101 7.73932 8.73123C7.99273 8.29887 8.25468 7.88905 8.52622 7.50805C9.0117 7.46612 9.50358 7.44411 9.99973 7.44411V7.44516ZM9.9896 5.72569C10.299 6.04013 10.5956 6.37396 10.8747 6.72194L10.896 6.74972C10.6026 6.73662 10.3028 6.72771 9.9992 6.72771C9.69244 6.72771 9.38942 6.734 9.09226 6.74972C9.38888 6.37239 9.6823 6.03856 9.99333 5.72045L9.98906 5.72464L9.9896 5.72569ZM6.73475 3.72793C7.83002 3.92498 8.7727 4.46006 9.47104 5.21682L9.47477 5.22101C9.00583 5.70525 8.5641 6.2267 8.15918 6.77645L8.12824 6.82047C7.34133 6.90065 6.63552 7.02433 5.94838 7.19465L6.05295 7.17264C5.97826 6.85191 5.92278 6.54114 5.88383 6.24294C5.73072 5.01976 5.91958 4.06858 6.35971 3.81545C6.46961 3.76462 6.59818 3.73317 6.73369 3.72898H6.73529L6.73475 3.72793ZM13.2487 3.71483V3.71902C13.2556 3.71902 13.2636 3.7185 13.2722 3.7185C13.3997 3.7185 13.5197 3.74942 13.6254 3.80392L13.6211 3.80183C14.065 4.05181 14.2575 5.00352 14.1076 6.22775C14.0719 6.52909 14.0132 6.84667 13.9412 7.17055C13.3623 7.02486 12.6576 6.9017 11.9384 6.82676L11.8702 6.82099C11.4295 6.2267 10.9846 5.7042 10.5071 5.2121L10.5135 5.21839C11.2129 4.45325 12.155 3.9145 13.2204 3.72007L13.2503 3.71536L13.2487 3.71483ZM13.2519 3.00105C11.9491 3.19548 10.8213 3.81702 9.9976 4.71371L9.99333 4.71842C9.16375 3.82227 8.03594 3.20491 6.76516 3.01782L6.73529 3.01415C6.72835 3.01415 6.71982 3.01415 6.71128 3.01415C6.44933 3.01415 6.20339 3.08175 5.99053 3.20019L5.998 3.19653C5.08146 3.71588 4.87606 5.33421 5.34927 7.36498C3.31986 7.98076 2 8.96496 2 10.0021C2 11.0434 3.3268 12.0302 5.36208 12.6413C4.8926 14.6799 5.10226 16.3009 6.02094 16.8197C6.2226 16.9334 6.46481 17 6.72248 17C6.73422 17 6.74596 17 6.75716 16.9995H6.75556C8.05835 16.805 9.18615 16.183 10.0099 15.2858L10.0141 15.2811C10.8437 16.1777 11.9715 16.7951 13.2423 16.9822L13.2722 16.9859C13.2802 16.9859 13.2903 16.9859 13.2999 16.9859C13.5603 16.9859 13.8051 16.9188 14.0169 16.8019L14.0095 16.8056C14.9255 16.2867 15.1314 14.6684 14.6582 12.6371C16.6801 12.0266 18 11.0403 18 10.0016C18 8.96025 16.6732 7.97342 14.6379 7.36078C15.1074 5.32425 14.8977 3.70173 13.9791 3.18238C13.7753 3.06761 13.5309 3 13.2706 3C13.2636 3 13.2567 3 13.2498 3H13.2508L13.2519 3.00105ZM11.4866 10.0021C11.4866 10.8107 10.8192 11.4663 9.996 11.4663C9.17282 11.4663 8.50542 10.8107 8.50542 10.0021C8.50542 9.19346 9.17282 8.53785 9.996 8.53785C10.4079 8.53785 10.7802 8.70188 11.0502 8.96653C11.3201 9.23171 11.4866 9.59751 11.4866 10.0021Z" fill="#484848"/>
</svg>
