<svg width="20" height="20" viewBox="0 0 20 20" fill="none" xmlns="http://www.w3.org/2000/svg">
<path d="M13.1775 5.8512C13.212 5.85975 13.2465 5.86829 13.282 5.87709C13.3541 5.89512 13.4262 5.9134 13.4983 5.93192C13.608 5.95998 13.7179 5.9869 13.8279 6.01373C13.8985 6.0315 13.969 6.04934 14.0395 6.06725C14.072 6.07515 14.1045 6.08304 14.138 6.09117C14.3816 6.1551 14.5769 6.24831 14.7402 6.45629C14.8224 6.638 14.8113 6.86911 14.7629 7.0598C14.699 7.21513 14.5995 7.30867 14.4608 7.38862C14.355 7.42619 14.2584 7.42313 14.1485 7.42171C14.1177 7.4215 14.1177 7.4215 14.0863 7.42129C14.0358 7.42092 13.9853 7.42036 13.9348 7.41977C13.9439 7.43456 13.9529 7.44935 13.9623 7.46459C14.1807 7.82148 14.3973 8.17957 14.6126 8.53864C14.7222 8.72141 14.8321 8.90393 14.9429 9.08589C15.0741 9.30134 15.204 9.51763 15.3337 9.73405C15.4753 9.97017 15.6175 10.2059 15.761 10.4406C15.9644 10.7732 16.1654 11.1073 16.3655 11.4421C16.4128 11.5211 16.4604 11.6 16.508 11.6788C16.6419 11.9016 16.7704 12.1221 16.8568 12.3714C16.8682 12.4032 16.8796 12.435 16.8914 12.4678C17.0831 13.0958 17.0128 13.7899 16.7454 14.3762C16.6539 14.5656 16.5538 14.7362 16.4185 14.894C16.3951 14.9218 16.3717 14.9495 16.3476 14.9782C15.9563 15.4199 15.4085 15.7242 14.8321 15.7468C14.7146 15.7496 14.5971 15.7504 14.4796 15.7505C14.4283 15.7508 14.3771 15.7511 14.3258 15.7515C14.2189 15.752 14.1121 15.7522 14.0052 15.7521C13.8689 15.7521 13.7325 15.7534 13.5962 15.755C13.4905 15.7561 13.3848 15.7562 13.2792 15.7562C13.2289 15.7563 13.1786 15.7567 13.1284 15.7574C12.6566 15.7636 12.6566 15.7636 12.4618 15.5972C12.3165 15.4429 12.2905 15.3312 12.2803 15.1159C12.2855 14.9345 12.3167 14.8186 12.4155 14.6718C12.6288 14.4592 12.8339 14.4712 13.1143 14.4723C13.157 14.472 13.1998 14.4717 13.2426 14.4712C13.3549 14.4702 13.4672 14.4699 13.5795 14.4698C13.7587 14.4695 13.9379 14.4684 14.1171 14.4669C14.1791 14.4665 14.2411 14.4665 14.3031 14.4666C14.7441 14.4641 15.1253 14.4158 15.4595 14.0849C15.6642 13.8428 15.7544 13.5759 15.7574 13.2512C15.7582 13.2109 15.7591 13.1706 15.7599 13.1291C15.7428 12.8249 15.5918 12.5681 15.4378 12.3208C15.4196 12.291 15.4014 12.2612 15.3827 12.2304C15.3459 12.1702 15.309 12.11 15.2719 12.05C15.2144 11.9567 15.1575 11.8631 15.1008 11.7693C15.0626 11.7064 15.0243 11.6435 14.986 11.5806C14.8784 11.4035 14.7719 11.2256 14.6653 11.0479C14.5343 10.8295 14.4032 10.6113 14.2709 10.3939C14.1385 10.1765 14.0074 9.95824 13.8764 9.73988C13.7447 9.52033 13.6129 9.30081 13.4801 9.082C13.4679 9.06194 13.4558 9.04189 13.4433 9.02123C13.3641 8.89099 13.2843 8.7613 13.2041 8.63177C13.1839 8.59902 13.1637 8.56626 13.1429 8.53252C13.1028 8.46763 13.0627 8.40282 13.0224 8.33809C13.0043 8.30871 12.9862 8.27933 12.9675 8.24906C12.9512 8.22274 12.9349 8.19643 12.9181 8.16932C12.8829 8.1049 12.8829 8.1049 12.8829 8.04262C12.8636 8.04262 12.8444 8.04262 12.8245 8.04262C12.8221 8.07859 12.8197 8.11456 12.8172 8.15162C12.7947 8.33017 12.7479 8.47369 12.6204 8.59698C12.4583 8.72176 12.3236 8.77806 12.1213 8.75074C11.9071 8.70352 11.7743 8.59239 11.6551 8.40039C11.559 8.14032 11.6149 7.9039 11.6744 7.64251C11.6827 7.60479 11.691 7.56706 11.6995 7.5282C11.7214 7.42853 11.7437 7.32897 11.7662 7.22945C11.7889 7.12866 11.8109 7.02771 11.833 6.92678C11.8501 6.84938 11.8672 6.77199 11.8844 6.69461C11.8924 6.65862 11.9003 6.62264 11.9085 6.58557C12.037 6.01778 12.037 6.01778 12.2657 5.82176C12.5304 5.67279 12.903 5.78075 13.1775 5.8512Z" fill="#484848"/>
<path d="M3.66389 10.7814C3.81383 10.8775 3.91286 10.9888 3.98005 11.1627C4.05241 11.5904 3.82741 11.8894 3.61333 12.227C3.34991 12.6433 3.19578 12.9807 3.24043 13.4926C3.30084 13.8122 3.48074 14.0768 3.73032 14.2624C4.07097 14.4706 4.42877 14.4625 4.80915 14.4615C4.85554 14.4615 4.90192 14.4615 4.9483 14.4615C5.07367 14.4616 5.19905 14.4614 5.32442 14.4612C5.45564 14.461 5.58687 14.4609 5.71809 14.4609C5.96634 14.4608 6.21459 14.4606 6.46284 14.4602C6.74557 14.4599 7.02829 14.4597 7.31102 14.4596C7.89238 14.4592 8.47375 14.4587 9.05511 14.458C9.03398 14.4332 9.03398 14.4332 9.01243 14.4079C8.99397 14.3859 8.97551 14.3639 8.9565 14.3412C8.93819 14.3195 8.91989 14.2979 8.90103 14.2755C8.77692 14.1115 8.77621 13.9659 8.77924 13.7591C8.80426 13.5441 8.90489 13.425 9.05511 13.2882C9.21468 13.2069 9.4112 13.2078 9.58107 13.2434C9.79062 13.3625 9.95545 13.5353 10.1213 13.7134C10.1466 13.7402 10.1719 13.7671 10.1979 13.7948C10.251 13.8513 10.304 13.9079 10.3568 13.9646C10.4375 14.0512 10.5187 14.1372 10.5999 14.2232C10.6516 14.2783 10.7033 14.3335 10.755 14.3888C10.7791 14.4143 10.8033 14.4399 10.8281 14.4662C11.008 14.6602 11.1461 14.822 11.148 15.1081C11.1489 15.1433 11.1499 15.1786 11.1509 15.2149C11.0984 15.4995 10.8752 15.7086 10.6888 15.9058C10.651 15.9462 10.651 15.9462 10.6124 15.9874C10.5594 16.044 10.5063 16.1005 10.453 16.1568C10.3719 16.2428 10.2912 16.3293 10.2105 16.4159C10.1587 16.471 10.1069 16.5261 10.0551 16.5812C10.0311 16.6069 10.0072 16.6326 9.98248 16.6591C9.80038 16.8509 9.64859 16.9981 9.38018 17C9.17916 16.9934 9.05249 16.9439 8.90902 16.7937C8.77501 16.6265 8.77132 16.464 8.77673 16.2474C8.80654 16.0391 8.91933 15.9096 9.05511 15.766C9.01642 15.7659 9.01642 15.7659 8.97694 15.7658C8.34767 15.7647 7.7184 15.7628 7.08913 15.7603C6.78482 15.759 6.4805 15.758 6.17619 15.7575C5.91078 15.7571 5.64538 15.7563 5.37997 15.7549C5.23959 15.7542 5.09922 15.7537 4.95883 15.7538C4.82637 15.7538 4.69392 15.7532 4.56146 15.7522C4.51316 15.752 4.46486 15.7519 4.41656 15.7521C4.01659 15.7534 3.6466 15.6954 3.28791 15.4915C3.26838 15.4807 3.24884 15.4699 3.22871 15.4587C3.07238 15.3699 2.93321 15.2708 2.80214 15.1431C2.77608 15.1182 2.75001 15.0933 2.72316 15.0676C2.30826 14.6502 2.02422 14.0657 2.00054 13.4511C1.99985 13.3838 1.99983 13.3165 2.00043 13.2493C2.00069 13.2138 2.00096 13.1783 2.00123 13.1417C2.01583 12.3821 2.39367 11.8036 2.77292 11.188C2.79682 11.1484 2.79682 11.1484 2.82121 11.1079C2.83642 11.0829 2.85164 11.0579 2.86731 11.0322C2.88069 11.0101 2.89407 10.9879 2.90785 10.9651C3.07602 10.7263 3.4117 10.6798 3.66389 10.7814Z" fill="#484848"/>
<path d="M10.9288 2.52066C10.9669 2.55461 11.0047 2.58903 11.0421 2.62382C11.0704 2.64787 11.0988 2.67191 11.128 2.69669C11.3846 2.9248 11.7716 3.44812 11.8087 3.81344C11.8141 4.00572 11.7934 4.14851 11.6849 4.30552C11.5372 4.46975 11.4261 4.52816 11.2101 4.53325C11.012 4.53091 10.9133 4.50291 10.7664 4.35746C10.6768 4.25522 10.6091 4.14146 10.5404 4.02254C10.3405 3.67798 10.1296 3.46122 9.75641 3.3401C9.43961 3.26304 9.16308 3.3489 8.87754 3.49812C8.67307 3.64176 8.54448 3.83167 8.41961 4.05249C8.3889 4.10554 8.35816 4.15858 8.32739 4.2116C8.31217 4.238 8.29696 4.26439 8.28128 4.29159C8.21689 4.4024 8.15038 4.51166 8.08359 4.62084C7.94872 4.84208 7.81514 5.0642 7.68182 5.28651C7.53854 5.5254 7.39483 5.76396 7.25004 6.00181C7.13022 6.19885 7.01156 6.39667 6.8929 6.5945C6.73278 6.86143 6.57203 7.1279 6.41032 7.39374C6.29793 7.57853 6.18635 7.76387 6.07475 7.9492C6.12803 7.93366 6.12803 7.93366 6.18238 7.91781C6.36488 7.86943 6.54266 7.87678 6.7121 7.97061C6.86725 8.09057 6.96621 8.21074 7.00327 8.41208C7.02361 8.62009 6.9863 8.77476 6.88251 8.95123C6.7651 9.09004 6.63169 9.14943 6.46316 9.18699C6.44463 9.19124 6.4261 9.19548 6.407 9.19986C6.34685 9.21353 6.2866 9.22662 6.22633 9.23967C6.18436 9.24901 6.1424 9.25838 6.10044 9.26777C6.01563 9.2867 5.93076 9.30536 5.84586 9.32385C5.73518 9.34802 5.6248 9.3735 5.51444 9.39927C4.69745 9.58729 4.69745 9.58729 4.45124 9.44209C4.21422 9.26882 4.16603 9.01037 4.11373 8.72825C4.10616 8.68928 4.09858 8.6503 4.09077 8.61015C4.07483 8.52792 4.05922 8.44563 4.04387 8.36327C4.02436 8.25862 4.00413 8.15415 3.98365 8.04971C3.96397 7.94897 3.94482 7.84811 3.92563 7.74726C3.91842 7.7102 3.91121 7.67314 3.90378 7.63496C3.79449 7.0436 3.79449 7.0436 3.93396 6.78816C4.0342 6.64309 4.1549 6.55496 4.32158 6.51664C4.53372 6.4844 4.70302 6.53889 4.87675 6.67235C5.00696 6.8213 5.04205 6.97142 5.05207 7.17063C5.07135 7.17063 5.09064 7.17063 5.11051 7.17063C5.11839 7.14792 5.12628 7.12521 5.1344 7.10181C5.16806 7.01714 5.20649 6.94691 5.25409 6.8704C5.27128 6.84258 5.28846 6.81477 5.30617 6.78611C5.32477 6.75628 5.34336 6.72645 5.36252 6.69571C5.40235 6.63125 5.44214 6.56678 5.48191 6.50229C5.50254 6.46885 5.52318 6.43542 5.54443 6.40098C5.6469 6.23402 5.74761 6.06587 5.8483 5.89768C5.97681 5.6832 6.10548 5.46884 6.23546 5.25537C6.36781 5.03796 6.49894 4.81973 6.62992 4.60137C6.78786 4.33811 6.94602 4.07502 7.10588 3.81308C7.16417 3.71746 7.22166 3.62134 7.27891 3.52501C7.64965 2.90379 8.01864 2.426 8.67529 2.15668C8.72404 2.13639 8.72404 2.13639 8.77379 2.11569C9.49505 1.86526 10.3309 2.0309 10.9288 2.52066Z" fill="#484848"/>
</svg>
