<svg width="20" height="20" viewBox="0 0 20 20" fill="none" xmlns="http://www.w3.org/2000/svg">
<path d="M13.6385 2C14.0222 2 14.4058 2 14.801 2C14.8043 2.47936 14.807 2.95872 14.8085 3.43809C14.8093 3.66068 14.8103 3.88327 14.812 4.10586C14.8136 4.32067 14.8144 4.53548 14.8148 4.75031C14.8151 4.83226 14.8156 4.91421 14.8164 4.99615C14.8174 5.11096 14.8176 5.22573 14.8175 5.34054C14.818 5.3744 14.8186 5.40827 14.8191 5.44316C14.8178 5.6453 14.7959 5.76675 14.6557 5.9234C14.4698 6.08981 14.3101 6.08886 14.0729 6.0852C14.0186 6.08524 14.0186 6.08524 13.9632 6.08527C13.8441 6.08517 13.725 6.08404 13.6059 6.0829C13.5231 6.08263 13.4404 6.08242 13.3576 6.08227C13.1401 6.08172 12.9226 6.08029 12.7051 6.07869C12.483 6.0772 12.2609 6.07653 12.0388 6.0758C11.6033 6.07425 11.1678 6.07169 10.7323 6.06871C10.7323 5.68509 10.7323 5.30147 10.7323 4.90622C11.5235 4.89423 12.3148 4.88224 13.1299 4.86989C11.4793 3.92667 9.79326 3.528 7.92585 4.00966C6.82685 4.31093 5.88032 4.87716 5.06519 5.6691C5.04519 5.68822 5.0252 5.70734 5.0046 5.72704C4.8469 5.88045 4.70955 6.0431 4.57703 6.21856C4.55653 6.24562 4.53604 6.27269 4.51492 6.30057C3.94872 7.05721 3.56597 7.90966 3.35778 8.82962C3.35173 8.85521 3.34568 8.8808 3.33944 8.90717C3.1572 9.70629 3.16229 10.6859 3.35778 11.4815C3.36861 11.5265 3.36861 11.5265 3.37965 11.5724C3.54376 12.235 3.78619 13.0199 4.22213 13.5603C4.2366 13.5816 4.25107 13.6029 4.26597 13.6249C4.20406 13.8106 4.02093 13.8873 3.86239 13.9924C3.80077 14.0334 3.73974 14.0752 3.6787 14.117C3.62064 14.1558 3.62064 14.1558 3.56142 14.1953C3.52588 14.2192 3.49035 14.243 3.45374 14.2676C3.35778 14.3151 3.35778 14.3151 3.27638 14.3093C2.86082 14.111 2.55677 13.0853 2.41301 12.6828C2.13887 11.8722 1.99757 11.0352 2.00003 10.1806C2.00008 10.1395 2.00008 10.1395 2.00013 10.0976C2.0043 8.99724 2.2364 7.9378 2.70388 6.94057C2.71573 6.91498 2.72758 6.88939 2.73978 6.86302C3.21899 5.83683 3.95506 4.91249 4.84722 4.21599C4.88079 4.18949 4.91437 4.16298 4.94896 4.13567C6.52681 2.91866 8.51343 2.39365 10.4889 2.61112C11.6077 2.7557 12.6361 3.12771 13.6022 3.7074C13.6142 3.14396 13.6262 2.58052 13.6385 2Z" fill="#484848"/>
<path d="M15.8633 5.96553C16.2788 6.16379 16.5829 7.18953 16.7266 7.592C17.0008 8.40262 17.1421 9.23963 17.1396 10.0942C17.1396 10.1216 17.1395 10.149 17.1395 10.1772C17.1353 11.2776 16.9032 12.337 16.4358 13.3342C16.4239 13.3598 16.4121 13.3854 16.3999 13.4118C15.9205 14.4383 15.1844 15.3617 14.2924 16.0588C14.2433 16.0979 14.2433 16.0979 14.1932 16.1378C12.5986 17.3761 10.5723 17.8927 8.57534 17.6527C7.48893 17.5058 6.47495 17.1299 5.53744 16.5674C5.52545 17.1308 5.51346 17.6943 5.50111 18.2748C5.11749 18.2748 4.73387 18.2748 4.33862 18.2748C4.33534 17.7954 4.33267 17.3161 4.33109 16.8367C4.33033 16.6141 4.32931 16.3915 4.32766 16.1689C4.32608 15.9541 4.32521 15.7393 4.32483 15.5245C4.32457 15.4425 4.32404 15.3606 4.32326 15.2786C4.3222 15.1638 4.32206 15.0491 4.32212 14.9343C4.32134 14.8835 4.32134 14.8835 4.32054 14.8316C4.32182 14.6295 4.34375 14.508 4.48393 14.3514C4.66989 14.185 4.8295 14.1859 5.06679 14.1896C5.12105 14.1896 5.12105 14.1896 5.17641 14.1895C5.29553 14.1896 5.41463 14.1908 5.53375 14.1919C5.61651 14.1922 5.69928 14.1924 5.78204 14.1925C5.99956 14.1931 6.21705 14.1945 6.43456 14.1961C6.65664 14.1976 6.87872 14.1983 7.10081 14.199C7.53632 14.2006 7.97182 14.2031 8.40733 14.2061C8.40733 14.5897 8.40733 14.9733 8.40733 15.3686C7.61611 15.3806 6.82489 15.3926 6.0097 15.4049C7.61666 16.3232 9.34485 16.7608 11.1714 16.2749C12.2787 15.9659 13.1988 15.4215 14.0381 14.642C14.0615 14.621 14.0849 14.6001 14.1089 14.5784C14.9736 13.7663 15.5236 12.5865 15.7819 11.4452C15.7879 11.4196 15.794 11.394 15.8002 11.3676C15.9824 10.5685 15.9774 9.58892 15.7819 8.79326C15.771 8.74828 15.771 8.74828 15.76 8.7024C15.5959 8.0398 15.3535 7.25489 14.9175 6.71448C14.903 6.69318 14.8886 6.67187 14.8737 6.64992C14.9356 6.46417 15.1187 6.38745 15.2773 6.28238C15.3389 6.2414 15.3999 6.19963 15.4609 6.15779C15.4996 6.13194 15.5384 6.10609 15.5782 6.07946C15.6315 6.04369 15.6315 6.04369 15.6859 6.00719C15.7819 5.95969 15.7819 5.95969 15.8633 5.96553Z" fill="#484848"/>
</svg>
