<svg width="20" height="20" viewBox="0 0 20 20" fill="none" xmlns="http://www.w3.org/2000/svg">
<path d="M4.02998 7.15142C4.62941 5.71205 5.70904 4.52484 7.08518 3.79181C8.46131 3.05878 10.0489 2.82521 11.5779 3.13086C13.1068 3.4365 14.4826 4.26246 15.4712 5.46821C16.4597 6.67395 17 8.18498 17 9.74418C17 11.3034 16.4597 12.8144 15.4712 14.0201C14.4826 15.2259 13.1068 16.0519 11.5779 16.3575C10.0489 16.6631 8.46131 16.4296 7.08518 15.6965C5.70904 14.9635 4.62941 13.7763 4.02998 12.3369" stroke="#484848" stroke-width="1.5" stroke-linecap="round" stroke-linejoin="round"/>
<path d="M4 4.21393V7.06147C4 7.10121 4.01579 7.13933 4.0439 7.16744C4.072 7.19555 4.11012 7.21134 4.14987 7.21134H6.9974" stroke="#484848" stroke-width="1.5" stroke-linecap="round" stroke-linejoin="round"/>
</svg>
