<svg width="20" height="20" viewBox="0 0 20 20" fill="none" xmlns="http://www.w3.org/2000/svg">
<path d="M12.5 6.66663H10C9.07953 6.66663 8.33333 7.41282 8.33333 8.33329V10.8333C8.33333 11.7538 9.07953 12.5 10 12.5H12.5C13.4205 12.5 14.1667 11.7538 14.1667 10.8333V8.33329C14.1667 7.41282 13.4205 6.66663 12.5 6.66663Z" stroke="#484848" stroke-linecap="round" stroke-linejoin="round"/>
<path fill-rule="evenodd" clip-rule="evenodd" d="M14.1667 8.33325H16.5C16.5442 8.33325 16.5866 8.35081 16.6179 8.38207C16.6491 8.41332 16.6667 8.45572 16.6667 8.49992V10.6666C16.6667 10.7108 16.6491 10.7532 16.6179 10.7844C16.5866 10.8157 16.5442 10.8333 16.5 10.8333H14.1667" fill="#484848"/>
<path d="M14.1667 8.33325H16.5C16.5442 8.33325 16.5866 8.35081 16.6179 8.38207C16.6491 8.41332 16.6667 8.45572 16.6667 8.49992V10.6666C16.6667 10.7108 16.6491 10.7532 16.6179 10.7844C16.5866 10.8157 16.5442 10.8333 16.5 10.8333H14.1667" stroke="#484848" stroke-linecap="round" stroke-linejoin="round"/>
<path fill-rule="evenodd" clip-rule="evenodd" d="M8.33333 7.5H5C4.55797 7.5 4.13405 7.6756 3.82149 7.98816C3.50893 8.30072 3.33333 8.72464 3.33333 9.16667V12.3333C3.33333 12.3775 3.35089 12.4199 3.38215 12.4512C3.41341 12.4824 3.4558 12.5 3.5 12.5H5.66667C5.71087 12.5 5.75326 12.4824 5.78452 12.4512C5.81577 12.4199 5.83333 12.3775 5.83333 12.3333V11C5.83333 10.9558 5.85089 10.9134 5.88215 10.8821C5.91341 10.8509 5.9558 10.8333 6 10.8333H8.33333" fill="#484848"/>
<path d="M8.33333 7.5H5C4.55797 7.5 4.13405 7.6756 3.82149 7.98816C3.50893 8.30072 3.33333 8.72464 3.33333 9.16667V12.3333C3.33333 12.3775 3.35089 12.4199 3.38215 12.4512C3.41341 12.4824 3.4558 12.5 3.5 12.5H5.66667C5.71087 12.5 5.75326 12.4824 5.78452 12.4512C5.81577 12.4199 5.83333 12.3775 5.83333 12.3333V11C5.83333 10.9558 5.85089 10.9134 5.88215 10.8821C5.91341 10.8509 5.9558 10.8333 6 10.8333H8.33333" stroke="#484848" stroke-linecap="round" stroke-linejoin="round"/>
<path d="M5 14.1666V15.8333" stroke="#484848" stroke-linecap="round" stroke-linejoin="round"/>
<path d="M11.6667 4.16663V6.66663" stroke="#484848" stroke-linecap="round" stroke-linejoin="round"/>
<path d="M9.16667 4.16663H14.1667" stroke="#484848" stroke-linecap="round" stroke-linejoin="round"/>
</svg>
