<svg width="20" height="20" viewBox="0 0 20 20" fill="none" xmlns="http://www.w3.org/2000/svg">
<path d="M9.665 16.33C13.346 16.33 16.33 13.346 16.33 9.665C16.33 5.98402 13.346 3 9.665 3C5.98402 3 3 5.98402 3 9.665C3 13.346 5.98402 16.33 9.665 16.33Z" stroke="#484848" stroke-linecap="round" stroke-linejoin="round"/>
<path d="M7.33225 8.99852C7.88439 8.99852 8.332 8.55092 8.332 7.99877C8.332 7.44663 7.88439 6.99902 7.33225 6.99902C6.7801 6.99902 6.3325 7.44663 6.3325 7.99877C6.3325 8.55092 6.7801 8.99852 7.33225 8.99852Z" fill="#484848" stroke="#484848" stroke-linecap="round" stroke-linejoin="round"/>
<path d="M11.6645 13.4307C11.6386 12.9255 11.4137 12.4512 11.039 12.1115C10.6643 11.7717 10.1703 11.5942 9.665 11.6178C9.15975 11.5942 8.66573 11.7717 8.29101 12.1115C7.91629 12.4512 7.69139 12.9255 7.6655 13.4307" stroke="#484848" stroke-linecap="round" stroke-linejoin="round"/>
<path d="M11.9978 8.99852C12.5499 8.99852 12.9975 8.55092 12.9975 7.99877C12.9975 7.44663 12.5499 6.99902 11.9978 6.99902C11.4456 6.99902 10.998 7.44663 10.998 7.99877C10.998 8.55092 11.4456 8.99852 11.9978 8.99852Z" fill="#484848" stroke="#484848" stroke-linecap="round" stroke-linejoin="round"/>
</svg>
