<svg width="20" height="20" viewBox="0 0 20 20" fill="none" xmlns="http://www.w3.org/2000/svg">
<path d="M6.13333 2C6.22 3.28 6.02 4.70667 6.13333 5.96667C6.2 6.68 6.77333 7.37333 7.46667 7.56667C8.19333 7.77333 10.92 7.73333 11.76 7.66C14.58 7.39333 13.4333 3.89333 13.6667 2H13.9333C14.1267 2.11333 14.36 2.1 14.58 2.18667C15.3267 2.48 17.46 4.6 17.7667 5.33333C18.0733 6.06667 17.8933 5.83333 18 6.06667V15C17.7733 16.08 17.0733 16.7733 16 17H15.5333V11.9667C15.4467 11.0067 14.8467 10.3133 13.9 10.1333C11.7267 10.26 9.38 9.96667 7.23333 10.1333C6.17333 10.2133 5.54667 11.02 5.46667 12.0333C5.34 13.6267 5.56667 15.3867 5.46667 17H5C3.92667 16.7733 3.22667 16.08 3 15V3.93333C3.20667 3.18667 3.6 2.56 4.32 2.22L5 2H6.13333Z" fill="#484848"/>
<path d="M7 13C7 12.4477 7.44772 12 8 12H13C13.5523 12 14 12.4477 14 13V17H7V13Z" fill="#484848"/>
<path d="M13 5C13 5.55228 12.5523 6 12 6L8 6C7.44772 6 7 5.55228 7 5L7 2L13 2L13 5Z" fill="#484848"/>
</svg>
