<svg width="20" height="20" viewBox="0 0 20 20" fill="none" xmlns="http://www.w3.org/2000/svg">
<g clip-path="url(#clip0_35_80)">
<path d="M5.88116 2.00104C5.95875 2.00087 6.03633 2.00064 6.11392 2.00037C6.30178 1.99987 6.48963 1.99994 6.67749 2.0003C6.83035 2.00058 6.98321 2.00062 7.13607 2.00048C7.16886 2.00046 7.16885 2.00046 7.2023 2.00043C7.24673 2.00039 7.29115 2.00035 7.33557 2.00031C7.75095 1.99995 8.16632 2.00036 8.5817 2.00103C8.93709 2.00159 9.29249 2.00149 9.64788 2.00091C10.0619 2.00024 10.4758 1.99999 10.8898 2.00037C10.934 2.00041 10.9783 2.00045 11.0225 2.00048C11.0552 2.00051 11.0552 2.00051 11.0885 2.00054C11.2409 2.00065 11.3934 2.00047 11.5458 2.00018C11.7515 1.99979 11.9572 2.00007 12.1628 2.00079C12.238 2.00095 12.3131 2.00091 12.3883 2.00063C12.8901 1.99895 13.3635 2.01673 13.8166 2.25882C13.8355 2.26806 13.8545 2.27731 13.874 2.28683C14.1846 2.44634 14.4345 2.69988 14.6785 2.94463C14.7083 2.97428 14.7381 3.00392 14.7679 3.03354C14.848 3.11315 14.9278 3.19295 15.0076 3.27281C15.0745 3.33981 15.1416 3.40671 15.2086 3.47362C15.3669 3.63159 15.5251 3.78972 15.6831 3.94796C15.8455 4.1105 16.0081 4.27276 16.1709 4.43488C16.3113 4.57479 16.4516 4.71489 16.5917 4.85513C16.6751 4.93858 16.7586 5.02196 16.8422 5.10516C16.9209 5.18342 16.9993 5.2619 17.0775 5.34056C17.1195 5.38268 17.1618 5.42457 17.204 5.46645C17.8551 6.12314 18.0023 6.82864 17.999 7.72265C17.9991 7.8003 17.9994 7.87795 17.9996 7.9556C18.0001 8.14347 18.0001 8.33133 17.9997 8.51921C17.9994 8.67206 17.9994 8.82491 17.9995 8.97776C17.9995 8.99962 17.9996 9.02149 17.9996 9.04401C17.9996 9.08845 17.9997 9.13288 17.9997 9.17731C18.0001 9.59265 17.9996 10.008 17.999 10.4233C17.9984 10.7787 17.9985 11.1342 17.9991 11.4896C17.9998 11.9036 18 12.3176 17.9996 12.7317C17.9996 12.7759 17.9996 12.8202 17.9995 12.8644C17.9995 12.8971 17.9995 12.8971 17.9995 12.9304C17.9994 13.0828 17.9995 13.2353 17.9998 13.3878C18.0002 13.5934 17.9999 13.799 17.9992 14.0047C17.9991 14.0798 17.9991 14.155 17.9994 14.2302C18.001 14.7282 17.9786 15.1745 17.7392 15.6232C17.723 15.6545 17.723 15.6545 17.7064 15.6864C17.6174 15.8532 17.5183 16.0017 17.3904 16.1416C17.3655 16.1694 17.3405 16.1972 17.3148 16.2259C16.9192 16.6449 16.3704 16.9437 15.7891 16.9922C15.6735 16.9955 15.5582 16.9961 15.4425 16.9956C15.398 16.9957 15.3535 16.9959 15.309 16.9961C15.1878 16.9965 15.0665 16.9964 14.9453 16.9962C14.8141 16.996 14.683 16.9964 14.5518 16.9967C14.2952 16.9972 14.0387 16.9973 13.7821 16.9971C13.5734 16.997 13.3648 16.997 13.1561 16.9972C13.1264 16.9972 13.0966 16.9972 13.066 16.9973C13.0055 16.9973 12.945 16.9974 12.8846 16.9974C12.3182 16.9978 11.7519 16.9977 11.1856 16.9973C10.6682 16.997 10.1508 16.9974 9.63335 16.9982C9.10129 16.9989 8.56924 16.9992 8.03719 16.999C7.73879 16.9989 7.4404 16.999 7.142 16.9995C6.88797 17 6.63394 17 6.3799 16.9994C6.25045 16.9992 6.12101 16.9991 5.99157 16.9996C5.87276 17 5.75397 16.9999 5.63517 16.9993C5.57249 16.9991 5.5098 16.9995 5.44712 17C5.07151 16.997 4.71097 16.9177 4.37735 16.7399C4.35664 16.7292 4.33593 16.7185 4.31459 16.7075C4.14796 16.6192 4.00158 16.5145 3.85901 16.391C3.8343 16.3724 3.80958 16.3538 3.78411 16.3347C3.33805 15.9583 3.06434 15.3549 3.00559 14.781C3.00131 14.6644 3.00056 14.5484 3.00136 14.4318C3.00122 14.3872 3.00102 14.3426 3.00077 14.2981C3.00026 14.177 3.00051 14.056 3.00089 13.9349C3.00118 13.8038 3.00074 13.6727 3.0004 13.5416C2.99985 13.2854 2.99996 13.0291 3.00032 12.7729C3.00061 12.5645 3.00064 12.3561 3.00051 12.1477C3.00049 12.1179 3.00047 12.0882 3.00045 12.0575C3.00041 11.9971 3.00037 11.9367 3.00033 11.8762C2.99997 11.3105 3.00038 10.7448 3.00105 10.179C3.00161 9.69435 3.00151 9.20969 3.00094 8.72503C3.00027 8.16121 3.00001 7.5974 3.00039 7.03358C3.00043 6.97338 3.00047 6.91318 3.00051 6.85297C3.00053 6.82336 3.00055 6.79374 3.00057 6.76323C3.00067 6.55525 3.00049 6.34728 3.0002 6.1393C2.99985 5.8856 2.99995 5.6319 3.00061 5.3782C3.00093 5.24894 3.00107 5.11968 3.00065 4.99042C3.00028 4.87178 3.00049 4.75317 3.00115 4.63453C3.00135 4.57195 3.00095 4.50936 3.00052 4.44677C3.00371 4.07136 3.08311 3.71082 3.26078 3.37739C3.2768 3.34632 3.2768 3.34632 3.29314 3.31463C3.38148 3.14799 3.48613 3.0016 3.60959 2.85903C3.62819 2.83431 3.6468 2.80959 3.66598 2.78412C3.91662 2.487 4.2737 2.26849 4.63847 2.14189C4.66752 2.13153 4.69656 2.12118 4.72648 2.1105C5.10825 1.99146 5.48428 1.99958 5.88116 2.00104ZM7.00803 3.01493C6.77053 4.57746 6.77053 4.57746 7.18731 5.88152C7.41348 6.02505 7.63274 6.01731 7.89356 6.01675C7.93206 6.01691 7.97057 6.01707 8.01024 6.01723C8.11538 6.01759 8.2205 6.01767 8.32564 6.01759C8.41365 6.01756 8.50166 6.01771 8.58967 6.01786C8.79745 6.0182 9.00523 6.01822 9.21301 6.01803C9.42679 6.01784 9.64057 6.01822 9.85435 6.01889C10.0384 6.01944 10.2225 6.01962 10.4065 6.01952C10.5162 6.01947 10.6259 6.01955 10.7356 6.01998C10.8581 6.02045 10.9805 6.02015 11.103 6.01979C11.1389 6.02003 11.1749 6.02027 11.212 6.02052C11.4244 6.01913 11.6545 6.01435 11.8277 5.87489C12.4735 5.17145 11.9966 3.96991 11.9966 3.01493C10.3504 3.01493 8.70414 3.01493 7.00803 3.01493ZM4.44629 3.48579C4.05561 3.8999 4.01004 4.3757 4.01074 4.92136C4.01067 4.96206 4.0106 5.00275 4.01052 5.04469C4.01033 5.15703 4.01034 5.26937 4.01037 5.38171C4.01038 5.50312 4.01021 5.62453 4.01006 5.74594C4.0098 5.98356 4.00971 6.22119 4.0097 6.45882C4.00968 6.65206 4.00962 6.84531 4.00952 7.03855C4.00925 7.58697 4.0091 8.13539 4.00912 8.68381C4.00913 8.71335 4.00913 8.74289 4.00913 8.77332C4.00913 8.80289 4.00913 8.83247 4.00913 8.86294C4.00914 9.34211 4.00885 9.82128 4.00841 10.3005C4.00796 10.793 4.00774 11.2855 4.00777 11.7781C4.00778 12.0544 4.0077 12.3307 4.00736 12.607C4.00708 12.8423 4.00701 13.0775 4.00722 13.3128C4.00732 13.4327 4.00732 13.5526 4.00705 13.6725C4.00676 13.8028 4.00696 13.9331 4.0072 14.0634C4.00704 14.1009 4.00688 14.1383 4.00671 14.1769C4.00892 14.7228 4.09885 15.1559 4.48575 15.5543C4.85537 15.903 5.27571 15.9886 5.77076 15.9864C5.80538 15.9864 5.80538 15.9864 5.8407 15.9863C5.89724 15.9861 5.95378 15.9859 6.01032 15.9857C6.01037 15.9562 6.01041 15.9266 6.01046 15.8962C6.0116 15.1763 6.01346 14.4565 6.01606 13.7366C6.0173 13.3885 6.01831 13.0404 6.01877 12.6923C6.01918 12.3888 6.02002 12.0852 6.02138 11.7817C6.02208 11.6211 6.02257 11.4605 6.02254 11.2999C6.02252 11.1485 6.02308 10.9971 6.02408 10.8457C6.02434 10.7903 6.0244 10.735 6.02422 10.6796C6.02287 10.1882 6.10019 9.80099 6.44999 9.43102C6.74178 9.1552 7.07175 9.02274 7.46976 9.02428C7.49668 9.02414 7.52359 9.024 7.55132 9.02386C7.64112 9.02346 7.73091 9.02351 7.8207 9.02356C7.88525 9.02338 7.94979 9.02317 8.01434 9.02293C8.18944 9.02238 8.36453 9.02223 8.53963 9.02219C8.64912 9.02215 8.75862 9.02202 8.86812 9.02185C9.25042 9.02127 9.63273 9.02102 10.015 9.02107C10.3709 9.02111 10.7267 9.02045 11.0826 9.01946C11.3885 9.01865 11.6944 9.01831 12.0003 9.01835C12.1829 9.01837 12.3654 9.01819 12.5479 9.01753C12.7197 9.01692 12.8915 9.01692 13.0633 9.01738C13.1261 9.01744 13.189 9.0173 13.2518 9.01692C13.7674 9.01401 14.1701 9.07234 14.5601 9.44113C14.8243 9.72059 14.9683 10.046 14.9672 10.4327C14.9674 10.4566 14.9676 10.4804 14.9678 10.505C14.9683 10.5845 14.9684 10.6639 14.9685 10.7434C14.9688 10.8006 14.9691 10.8578 14.9694 10.9149C14.9703 11.0698 14.9707 11.2246 14.9711 11.3795C14.9716 11.5414 14.9725 11.7034 14.9733 11.8653C14.9747 12.1719 14.9759 12.4784 14.9769 12.785C14.9781 13.134 14.9796 13.4831 14.9812 13.8321C14.9844 14.55 14.9872 15.2678 14.9897 15.9857C15.0684 15.9863 15.1471 15.9868 15.2257 15.9872C15.2477 15.9874 15.2697 15.9876 15.2924 15.9878C15.7962 15.9895 16.19 15.8681 16.5537 15.5148C16.9143 15.1326 16.9902 14.6929 16.9893 14.1858C16.9894 14.1566 16.9894 14.1273 16.9895 14.0972C16.9897 13.9999 16.9897 13.9026 16.9896 13.8054C16.9897 13.7353 16.9898 13.6653 16.99 13.5952C16.9902 13.4055 16.9903 13.2157 16.9903 13.0259C16.9904 12.9072 16.9904 12.7885 16.9905 12.6698C16.9908 12.2766 16.9909 11.8835 16.9909 11.4904C16.9909 11.4692 16.9909 11.4481 16.9909 11.4263C16.9909 11.4051 16.9909 11.3839 16.9909 11.3621C16.9909 11.019 16.9912 10.6759 16.9916 10.3328C16.9921 9.97982 16.9923 9.6268 16.9923 9.27379C16.9922 9.0759 16.9923 8.87801 16.9927 8.68012C16.993 8.49391 16.993 8.3077 16.9927 8.12149C16.9927 8.05338 16.9928 7.98527 16.993 7.91716C17.0078 7.28483 17.0078 7.28483 16.8273 6.68829C16.8108 6.65505 16.7944 6.62182 16.7775 6.58757C16.6166 6.31775 16.3598 6.09516 16.1394 5.87406C16.1125 5.84694 16.0856 5.81983 16.0579 5.79189C15.9699 5.70329 15.8818 5.61481 15.7936 5.52636C15.763 5.49561 15.7324 5.46487 15.7018 5.43412C15.558 5.28977 15.4142 5.14549 15.2703 5.00131C15.1051 4.83585 14.9403 4.67013 14.7756 4.5042C14.6475 4.37517 14.5192 4.24639 14.3907 4.11778C14.3143 4.04129 14.238 3.9647 14.1619 3.88785C14.0771 3.80215 13.9918 3.71695 13.9064 3.63179C13.8817 3.60672 13.857 3.58164 13.8316 3.5558C13.6228 3.34886 13.3057 3.07729 12.9943 3.07729C12.9942 3.11083 12.9941 3.14437 12.9939 3.17893C12.9928 3.49634 12.991 3.81375 12.9886 4.13115C12.9873 4.2943 12.9863 4.45744 12.9858 4.62059C12.9854 4.77829 12.9843 4.93597 12.9828 5.09367C12.9823 5.15358 12.9821 5.21349 12.9821 5.2734C12.9816 5.78601 12.921 6.18884 12.5546 6.57636C12.2001 6.91143 11.8393 6.98421 11.3671 6.98382C11.3222 6.984 11.2773 6.98422 11.2324 6.98445C11.1109 6.985 10.9894 6.98515 10.8679 6.98519C10.7918 6.98523 10.7158 6.98537 10.6397 6.98553C10.3738 6.98611 10.108 6.98636 9.84211 6.98631C9.59506 6.98628 9.34803 6.98693 9.10098 6.98792C8.88827 6.98874 8.67557 6.98907 8.46285 6.98903C8.33609 6.98901 8.20932 6.98919 8.08256 6.98985C7.96317 6.99046 7.8438 6.99046 7.72441 6.99001C7.68087 6.98994 7.63734 6.99008 7.59381 6.99046C7.13498 6.99421 6.77668 6.88472 6.43988 6.56625C6.1611 6.27131 6.03262 5.94015 6.03156 5.53873C6.03125 5.51133 6.03093 5.48393 6.03061 5.45569C6.02965 5.36578 6.02912 5.27586 6.02859 5.18594C6.02801 5.12334 6.0274 5.06073 6.02676 4.99813C6.02516 4.83385 6.02393 4.66957 6.02277 4.50528C6.02152 4.33745 6.01992 4.16961 6.01836 4.00178C6.01535 3.67283 6.01272 3.34388 6.01032 3.01493C5.93165 3.01429 5.85297 3.01383 5.77429 3.01347C5.7413 3.01317 5.7413 3.01317 5.70764 3.01287C5.20382 3.01113 4.81002 3.13255 4.44629 3.48579ZM7.13469 10.1785C7.02177 10.3564 7.00024 10.5247 7.00053 10.7326C7.00048 10.7552 7.00043 10.7777 7.00037 10.801C7.00027 10.8762 7.00061 10.9514 7.00095 11.0266C7.00097 11.0816 7.00096 11.1365 7.00093 11.1915C7.00092 11.3384 7.00128 11.4853 7.00172 11.6322C7.00207 11.7701 7.00209 11.9081 7.00213 12.046C7.00246 12.4492 7.00333 12.8524 7.00413 13.2555C7.00542 14.1565 7.00671 15.0575 7.00803 15.9857C9.31274 15.9857 11.6174 15.9857 13.992 15.9857C13.9939 15.086 13.9959 14.1864 13.9978 13.2594C13.9987 12.9755 13.9995 12.6916 14.0004 12.399C14.0007 12.1442 14.0007 12.1442 14.0009 11.8894C14.001 11.776 14.0014 11.6626 14.0019 11.5493C14.0025 11.4045 14.0027 11.2597 14.0026 11.1149C14.0026 11.0619 14.0028 11.0088 14.0031 10.9558C14.02 10.5392 14.02 10.5392 13.8587 10.1686C13.6845 10.0066 13.4686 9.98988 13.2415 9.99107C13.2171 9.99095 13.1927 9.99083 13.1675 9.99071C13.0861 9.99039 13.0047 9.99051 12.9233 9.99063C12.8647 9.9905 12.8062 9.99033 12.7476 9.99015C12.5889 9.98973 12.4302 9.98971 12.2715 9.98979C12.1388 9.98983 12.0062 9.98967 11.8735 9.98952C11.5605 9.98918 11.2475 9.98916 10.9345 9.98935C10.6119 9.98954 10.2893 9.98916 9.9667 9.98849C9.68944 9.98794 9.41217 9.98776 9.13491 9.98786C8.96944 9.98791 8.80398 9.98783 8.63851 9.9874C8.48287 9.98701 8.32723 9.98707 8.17158 9.98747C8.11458 9.98755 8.05758 9.98746 8.00059 9.98721C7.5303 9.96551 7.5303 9.96551 7.13469 10.1785Z" fill="#484848"/>
</g>
<defs>
<clipPath id="clip0_35_80">
<rect width="15" height="15" fill="white" transform="translate(3 2)"/>
</clipPath>
</defs>
</svg>
