<svg width="20" height="20" viewBox="0 0 20 20" fill="none" xmlns="http://www.w3.org/2000/svg">
<path d="M7.79834 1.0185C7.83756 1.01817 7.87679 1.01784 7.91721 1.0175C7.98173 1.01725 7.98173 1.01725 8.04756 1.017C8.09289 1.01668 8.13822 1.01637 8.18493 1.01604C8.33534 1.01508 8.48575 1.01444 8.63617 1.01389C8.68806 1.01368 8.73994 1.01347 8.79183 1.01327C9.00785 1.01243 9.22386 1.01171 9.43987 1.01127C9.74877 1.01065 10.0577 1.00937 10.3665 1.00717C10.5841 1.00567 10.8016 1.00492 11.0191 1.00471C11.1489 1.00457 11.2786 1.00402 11.4083 1.00286C11.5534 1.00163 11.6984 1.00163 11.8435 1.00192C11.9072 1.00097 11.9072 1.00097 11.9721 1C12.2899 1.00255 12.5487 1.07459 12.7866 1.29372C13.0394 1.56165 13.137 1.85521 13.1284 2.22113C13.0701 2.55671 12.9218 2.79356 12.6681 3.01656C12.5583 3.09034 12.4395 3.13519 12.3178 3.1862C12.3151 3.62482 12.313 4.06344 12.3118 4.50206C12.3112 4.70578 12.3103 4.9095 12.309 5.11322C12.3078 5.3102 12.3071 5.50718 12.3068 5.70417C12.3066 5.77893 12.3061 5.85369 12.3055 5.92845C12.3013 6.45232 12.3073 6.9652 12.559 7.43975C12.5719 7.46431 12.5848 7.48887 12.5981 7.51417C12.6453 7.60326 12.6938 7.6916 12.7424 7.77994C12.7629 7.81764 12.7835 7.85534 12.8046 7.89419C13.0819 8.40233 13.3677 8.90501 13.6609 9.4041C13.8467 9.72073 14.0265 10.0404 14.2053 10.361C14.4018 10.7134 14.6015 11.0639 14.8023 11.414C14.9102 11.6023 15.0178 11.7908 15.1254 11.9792C15.1914 12.0947 15.2574 12.2101 15.3234 12.3256C15.3501 12.3723 15.3768 12.4191 15.4035 12.4658C15.4233 12.5005 15.4233 12.5005 15.4435 12.5358C15.5611 12.7416 15.5611 12.7416 15.5997 12.8092C15.6254 12.8541 15.6511 12.8991 15.6768 12.944C15.7406 13.0558 15.8045 13.1675 15.8683 13.2793C15.9876 13.4884 16.1071 13.6973 16.2275 13.9056C16.2837 14.0029 16.3397 14.1002 16.3957 14.1975C16.4348 14.2652 16.4741 14.3328 16.5133 14.4004C16.8995 15.0716 17.1001 15.6714 16.9501 16.4487C16.763 17.1418 16.3402 17.7242 15.7148 18.0869C15.4486 18.2078 15.1791 18.323 14.8836 18.3237C14.8485 18.3239 14.8134 18.324 14.7773 18.3242C14.7389 18.3242 14.7004 18.3242 14.6609 18.3242C14.62 18.3243 14.579 18.3245 14.5369 18.3246C14.3993 18.3251 14.2617 18.3252 14.1241 18.3253C14.0256 18.3256 13.9272 18.3258 13.8287 18.3261C13.5328 18.3269 13.2369 18.3273 12.9411 18.3276C12.8016 18.3278 12.6621 18.328 12.5226 18.3282C12.0587 18.3288 11.5948 18.3294 11.1309 18.3297C11.0105 18.3298 10.8902 18.3298 10.7698 18.3299C10.7399 18.3299 10.71 18.3299 10.6792 18.33C10.1951 18.3303 9.71109 18.3313 9.22703 18.3325C8.72961 18.3338 8.23218 18.3345 7.73476 18.3346C7.45566 18.3347 7.17657 18.335 6.89747 18.336C6.63471 18.337 6.37195 18.3371 6.10919 18.3367C6.01297 18.3367 5.91676 18.3369 5.82055 18.3374C5.01126 18.3417 4.37018 18.2552 3.75864 17.6727C3.72963 17.6438 3.70061 17.6149 3.67072 17.5851C3.63378 17.5495 3.63378 17.5495 3.59608 17.5131C3.18472 17.0853 3.01622 16.5064 3 15.9251C3.01561 15.3861 3.18299 14.9606 3.43911 14.4968C3.4584 14.4616 3.47768 14.4264 3.49756 14.3902C3.76313 13.9068 4.03808 13.4291 4.31727 12.9536C4.50181 12.6385 4.68031 12.3203 4.85785 12.0012C5.01133 11.7261 5.16858 11.4534 5.32823 11.1818C5.52047 10.8547 5.70706 10.5248 5.89039 10.1926C6.07372 9.8604 6.26033 9.53058 6.45254 9.20342C6.7288 8.73269 6.99849 8.2586 7.26079 7.77994C7.27784 7.74907 7.29489 7.7182 7.31245 7.68639C7.35638 7.6062 7.39928 7.52556 7.44174 7.44458C7.46418 7.40223 7.48662 7.35989 7.50975 7.31625C7.71508 6.83915 7.70352 6.32601 7.70517 5.81753C7.70583 5.74127 7.70653 5.66502 7.70727 5.58876C7.70909 5.38988 7.71025 5.191 7.71127 4.99211C7.71242 4.78843 7.71422 4.58476 7.71596 4.38108C7.71926 3.98279 7.72187 3.5845 7.72402 3.1862C7.70014 3.18126 7.67626 3.17632 7.65165 3.17123C7.62034 3.16455 7.58902 3.15788 7.55676 3.151C7.52571 3.14447 7.49466 3.13793 7.46267 3.1312C7.25191 3.07683 7.0892 2.92368 6.96584 2.74921C6.78845 2.4403 6.73512 2.11666 6.8253 1.76574C6.95772 1.41334 7.15554 1.22139 7.49241 1.06305C7.60586 1.02523 7.68007 1.01925 7.79834 1.0185ZM7.53553 1.81248C7.45016 1.93367 7.44948 2.07662 7.4538 2.22113C7.5136 2.3659 7.59052 2.44904 7.72402 2.52995C7.8355 2.56433 7.93591 2.57347 8.05225 2.57372C8.08689 2.57388 8.12152 2.57405 8.1572 2.57422C8.1949 2.5742 8.23261 2.57418 8.27146 2.57416C8.33136 2.57436 8.33136 2.57436 8.39248 2.57456C8.52463 2.57492 8.65677 2.575 8.78892 2.57504C8.88075 2.57517 8.97258 2.5753 9.06441 2.57543C9.25698 2.57566 9.44954 2.57573 9.6421 2.57571C9.88882 2.57571 10.1355 2.57623 10.3823 2.5769C10.572 2.57733 10.7616 2.57741 10.9513 2.57739C11.0423 2.57743 11.1333 2.5776 11.2242 2.5779C11.3515 2.57828 11.4787 2.57817 11.6059 2.57793C11.6435 2.57815 11.681 2.57837 11.7197 2.57859C11.9634 2.57746 12.1505 2.56139 12.3491 2.40691C12.4528 2.27357 12.4722 2.19643 12.4722 2.02812C12.4136 1.86793 12.3521 1.76458 12.202 1.68069C12.0766 1.65045 11.9595 1.63716 11.8307 1.63667C11.7961 1.63645 11.7615 1.63623 11.7258 1.636C11.6883 1.63596 11.6508 1.63591 11.6121 1.63587C11.5723 1.63568 11.5324 1.63549 11.4913 1.63529C11.3595 1.63473 11.2278 1.63446 11.096 1.63425C11.0044 1.63403 10.9127 1.6338 10.821 1.63358C10.6288 1.63318 10.4367 1.63295 10.2445 1.63282C9.99841 1.6326 9.75235 1.63168 9.50628 1.63058C9.31692 1.62986 9.12756 1.62966 8.9382 1.6296C8.84748 1.62948 8.75677 1.62917 8.66606 1.62866C8.5391 1.62801 8.41217 1.62808 8.28522 1.62833C8.24787 1.62797 8.21052 1.62762 8.17204 1.62725C7.92484 1.62878 7.73824 1.66024 7.53553 1.81248ZM8.38027 3.1862C8.37838 3.42794 8.37649 3.66969 8.37454 3.91875C8.37317 4.07286 8.37178 4.22697 8.37032 4.38108C8.368 4.62513 8.36576 4.86917 8.36399 5.11322C8.36255 5.3102 8.36076 5.50719 8.35873 5.70417C8.35802 5.77893 8.35743 5.85369 8.35698 5.92845C8.35161 6.78492 8.23299 7.45293 7.79882 8.20699C7.77331 8.25198 7.74784 8.297 7.7224 8.34204C7.67104 8.4328 7.61943 8.52341 7.56756 8.61388C7.4966 8.73769 7.42605 8.86172 7.35564 8.98583C7.05959 9.50666 7.05959 9.50666 6.9586 9.66937C6.90699 9.74465 6.90699 9.74465 6.91336 9.82589C7.94287 10.085 8.94861 9.78768 9.87461 9.3405C10.4173 9.0821 10.966 9.00214 11.5604 9.00729C11.6446 9.00799 11.7289 9.00808 11.8131 9.00807C12.0989 9.00881 12.3815 9.01644 12.6652 9.05383C12.5394 8.79336 12.4061 8.53983 12.2623 8.28902C11.9128 7.67532 11.6585 7.0986 11.6536 6.38097C11.6532 6.3463 11.6528 6.31162 11.6524 6.27589C11.6512 6.16206 11.6503 6.04823 11.6493 5.93439C11.6485 5.85515 11.6477 5.77592 11.6469 5.69668C11.6447 5.48872 11.6428 5.28075 11.641 5.07279C11.6387 4.82295 11.6361 4.57311 11.6336 4.32327C11.6298 3.94425 11.6264 3.56523 11.6229 3.1862C10.5528 3.1862 9.48277 3.1862 8.38027 3.1862ZM9.97264 11.8646C9.74189 12.1915 9.68669 12.4743 9.73137 12.8755C9.81148 13.2068 9.98814 13.4541 10.2718 13.6403C10.5655 13.8196 10.8621 13.8319 11.1983 13.802C11.5437 13.7163 11.8067 13.4626 12.0086 13.1794C12.1605 12.8974 12.1718 12.5744 12.0996 12.2662C11.9578 11.8726 11.719 11.6678 11.3476 11.4908C10.8174 11.2821 10.3499 11.4788 9.97264 11.8646ZM8.03285 12.4895C8.01088 12.6213 8.0177 12.6916 8.07869 12.8104C8.16855 12.894 8.21898 12.9112 8.34167 12.9141C8.47989 12.8595 8.52448 12.8192 8.59017 12.6849C8.62048 12.571 8.62048 12.571 8.58535 12.4798C8.51312 12.3835 8.44613 12.3394 8.32719 12.3206C8.18763 12.3405 8.12785 12.3863 8.03285 12.4895ZM13.2442 13.1457C13.2315 13.2658 13.2315 13.2658 13.2828 13.3774C13.3649 13.4759 13.3649 13.4759 13.4758 13.5318C13.6014 13.5318 13.6573 13.5011 13.7605 13.4304C13.8362 13.3383 13.8362 13.3383 13.8233 13.2012C13.7954 13.0695 13.7954 13.0695 13.7171 12.9937C13.4993 12.8909 13.384 12.9567 13.2442 13.1457ZM5.63947 13.8792C5.444 14.1857 5.35776 14.5 5.42565 14.8619C5.52357 15.2369 5.73529 15.4925 6.0641 15.6935C6.33778 15.8482 6.67198 15.8614 6.97338 15.784C7.36022 15.6287 7.59958 15.3366 7.77469 14.9697C7.84782 14.624 7.82394 14.3039 7.64682 13.995C7.44675 13.7132 7.20953 13.5098 6.87476 13.416C6.36948 13.3608 5.97532 13.4917 5.63947 13.8792ZM11.6324 15.4672C11.4285 15.7487 11.361 16.0225 11.4065 16.3671C11.4862 16.7028 11.6796 17.0003 11.9679 17.1894C12.274 17.3779 12.6163 17.4077 12.9644 17.3296C13.2941 17.2132 13.5474 16.9985 13.7075 16.6875C13.8507 16.3752 13.87 16.0756 13.763 15.7466C13.6218 15.3972 13.3928 15.188 13.0512 15.0373C12.5031 14.8317 11.9943 15.0262 11.6324 15.4672ZM14.7184 15.2785C14.6308 15.339 14.6308 15.339 14.5953 15.4233C14.5803 15.5616 14.5785 15.6303 14.6581 15.7466C14.7772 15.8281 14.8396 15.833 14.9814 15.8093C15.073 15.74 15.1221 15.6832 15.172 15.5801C15.1757 15.4575 15.1353 15.4015 15.0586 15.3075C14.9194 15.2349 14.8638 15.2139 14.7184 15.2785ZM9.48528 15.6404C9.40375 15.7596 9.39893 15.822 9.42255 15.9637C9.48045 16.0603 9.48045 16.0603 9.57696 16.1182C9.7187 16.1418 9.7811 16.137 9.90026 16.0554C9.98179 15.9363 9.98661 15.8739 9.96299 15.7321C9.90508 15.6356 9.90508 15.6356 9.80858 15.5777C9.66684 15.5541 9.60444 15.5589 9.48528 15.6404ZM6.91336 16.427C6.82283 16.5384 6.82283 16.5384 6.84098 16.6779C6.86414 16.8111 6.86414 16.8111 6.93749 16.8902C7.07225 16.947 7.16009 16.9282 7.29939 16.8902C7.3823 16.8301 7.3823 16.8301 7.4152 16.7358C7.41018 16.6128 7.39863 16.5346 7.32593 16.4342C7.17482 16.3279 7.07485 16.342 6.91336 16.427Z" fill="#484848"/>
<path d="M11.2055 12.0311C11.3689 12.14 11.4823 12.2608 11.5457 12.4509C11.5755 12.7031 11.5434 12.8643 11.3913 13.0685C11.2153 13.224 11.043 13.2712 10.8122 13.2615C10.5846 13.197 10.4831 13.0995 10.349 12.9141C10.2728 12.7617 10.2935 12.5784 10.3104 12.4123C10.3948 12.2404 10.5011 12.1347 10.6578 12.0262C10.8501 11.9621 11.0169 11.9645 11.2055 12.0311Z" fill="#484848"/>
<path d="M12.9041 15.5825C13.0675 15.6915 13.1809 15.8123 13.2442 16.0023C13.2652 16.1825 13.2624 16.3142 13.1791 16.4776C13.0587 16.6176 12.928 16.7643 12.7358 16.7822C12.5282 16.786 12.3785 16.7805 12.202 16.6586C12.0609 16.5136 11.9727 16.3653 11.969 16.1587C11.9839 15.9683 12.0343 15.8392 12.1634 15.6935C12.3999 15.5246 12.6265 15.4846 12.9041 15.5825Z" fill="#484848"/>
<path d="M6.8776 14.02C7.02352 14.0941 7.12392 14.1935 7.19667 14.3403C7.26276 14.546 7.25836 14.7605 7.16184 14.9552C7.0299 15.1244 6.91237 15.2126 6.70237 15.2449C6.48306 15.2551 6.3494 15.2252 6.17988 15.0758C6.02232 14.9013 5.97437 14.7751 5.97872 14.5375C5.99762 14.3535 6.0846 14.2346 6.22089 14.118C6.42184 13.9684 6.63483 13.9441 6.8776 14.02Z" fill="#484848"/>
</svg>
