<svg width="20" height="20" viewBox="0 0 20 20" fill="none" xmlns="http://www.w3.org/2000/svg">
<path d="M8.07231 1.00514C8.11769 1.00481 8.16306 1.00447 8.20981 1.00413C8.359 1.00326 8.50816 1.00352 8.65735 1.00387C8.73517 1.00376 8.813 1.00356 8.89083 1.00335C9.13525 1.0027 9.37966 1.00283 9.62408 1.00348C9.87532 1.00413 10.1265 1.00352 10.3778 1.00227C10.5943 1.00124 10.8109 1.00096 11.0275 1.00129C11.1565 1.00148 11.2854 1.00132 11.4144 1.0006C11.5584 0.999928 11.7023 1.00049 11.8462 1.00137C11.8884 1.00092 11.9305 1.00047 11.9739 1C12.2903 1.0039 12.5475 1.07787 12.7859 1.29381C13.023 1.54114 13.0944 1.76541 13.106 2.10439C13.0977 2.44262 12.9972 2.68722 12.7693 2.9366C12.6267 3.06199 12.4694 3.14926 12.2783 3.14926C12.2807 3.59299 12.2837 4.03672 12.2874 4.48045C12.2892 4.68653 12.2907 4.89262 12.2917 5.09872C12.2927 5.29799 12.2943 5.49726 12.2962 5.69653C12.2969 5.77216 12.2973 5.8478 12.2976 5.92343C12.2994 6.44803 12.3064 6.96727 12.5583 7.44215C12.5711 7.46671 12.584 7.49127 12.5973 7.51658C12.6446 7.60568 12.693 7.69404 12.7417 7.7824C12.7622 7.8201 12.7827 7.85781 12.8039 7.89666C13.0812 8.40489 13.3671 8.90766 13.6604 9.40683C13.8461 9.72352 14.026 10.0433 14.2048 10.3639C14.4013 10.7164 14.6011 11.0669 14.8019 11.417C14.9098 11.6054 15.0174 11.7939 15.1251 11.9824C15.1911 12.0979 15.2571 12.2133 15.3231 12.3288C15.3498 12.3756 15.3765 12.4223 15.4032 12.4691C15.423 12.5037 15.423 12.5037 15.4432 12.5391C15.5608 12.7449 15.5608 12.7449 15.5995 12.8125C15.6251 12.8575 15.6508 12.9024 15.6765 12.9474C15.7404 13.0591 15.8043 13.1709 15.8681 13.2827C15.9874 13.4918 16.1069 13.7007 16.2274 13.9091C16.2836 14.0064 16.3396 14.1037 16.3956 14.201C16.4347 14.2688 16.474 14.3364 16.5132 14.404C16.8994 15.0754 17.1002 15.6752 16.9501 16.4526C16.7629 17.1459 16.3401 17.7284 15.7146 18.0911C15.448 18.2122 15.1784 18.3273 14.8826 18.328C14.8474 18.3281 14.8122 18.3283 14.7759 18.3285C14.7373 18.3285 14.6987 18.3285 14.659 18.3285C14.6179 18.3286 14.5768 18.3288 14.5345 18.3289C14.3964 18.3293 14.2582 18.3295 14.1201 18.3296C14.0212 18.3299 13.9223 18.3301 13.8235 18.3304C13.5264 18.3311 13.2293 18.3315 12.9322 18.3319C12.7922 18.3321 12.6522 18.3323 12.5121 18.3325C12.0463 18.3331 11.5806 18.3337 11.1148 18.334C10.9939 18.334 10.8731 18.3341 10.7523 18.3342C10.7222 18.3342 10.6922 18.3342 10.6613 18.3342C10.1752 18.3346 9.68924 18.3355 9.20323 18.3368C8.7038 18.3381 8.20437 18.3388 7.70494 18.3389C7.42471 18.339 7.1445 18.3393 6.86427 18.3403C6.60045 18.3412 6.33664 18.3414 6.07281 18.341C5.97621 18.3409 5.8796 18.3412 5.783 18.3417C4.97008 18.3459 4.37384 18.2607 3.76028 17.6817C3.26045 17.1786 3.01036 16.5799 3 15.8735C3.00734 14.8327 3.80712 13.8222 4.31508 12.9569C4.49966 12.6418 4.67818 12.3235 4.85575 12.0044C5.00926 11.7292 5.16654 11.4565 5.32622 11.1849C5.51849 10.8577 5.70511 10.5278 5.88847 10.1955C6.07183 9.86322 6.25848 9.53334 6.45072 9.20612C6.72703 8.73531 6.99677 8.26114 7.25911 7.7824C7.27616 7.75152 7.29322 7.72064 7.31078 7.68883C7.35472 7.60862 7.39762 7.52797 7.44009 7.44698C7.46254 7.40462 7.48498 7.36227 7.50811 7.31863C7.71348 6.84145 7.70192 6.32821 7.70357 5.81965C7.70422 5.74338 7.70492 5.66711 7.70567 5.59084C7.70749 5.39192 7.70865 5.19301 7.70967 4.99408C7.71082 4.79037 7.71262 4.58666 7.71436 4.38295C7.71766 3.98459 7.72027 3.58623 7.72242 3.18787C7.68586 3.18222 7.64931 3.17657 7.61164 3.17076C7.33953 3.12235 7.14005 2.93987 6.96863 2.73089C6.8006 2.48462 6.75768 2.20642 6.7958 1.91375C6.86456 1.60412 6.997 1.36492 7.25911 1.18017C7.52849 1.02534 7.76579 1.00331 8.07231 1.00514ZM7.5339 1.81391C7.44852 1.93512 7.44783 2.07809 7.45216 2.22263C7.51275 2.36932 7.58978 2.44716 7.72242 2.5315C7.81151 2.54874 7.81151 2.54874 7.90826 2.54621C7.94555 2.54654 7.98285 2.54687 8.02127 2.5472C8.08226 2.54685 8.08226 2.54685 8.14448 2.54649C8.20901 2.5468 8.20901 2.5468 8.27484 2.54711C8.41723 2.54762 8.5596 2.54728 8.70199 2.54689C8.80085 2.54697 8.89972 2.54708 8.99858 2.54722C9.20589 2.5474 9.41318 2.54716 9.62048 2.54661C9.85994 2.54598 10.0994 2.54618 10.3388 2.54682C10.5694 2.54741 10.7999 2.54734 11.0305 2.547C11.1285 2.54693 11.2265 2.54702 11.3245 2.54729C11.4615 2.54759 11.5985 2.54714 11.7355 2.54649C11.776 2.54673 11.8166 2.54696 11.8584 2.5472C12.1269 2.54692 12.1269 2.54692 12.3556 2.41568C12.4456 2.28367 12.4714 2.20678 12.4714 2.04647C12.4245 1.88542 12.3715 1.8232 12.2397 1.72071C12.0305 1.62797 11.8314 1.63231 11.6068 1.63288C11.5669 1.63268 11.527 1.63249 11.4859 1.63228C11.3544 1.63175 11.2228 1.63178 11.0913 1.63187C10.9996 1.63172 10.908 1.63156 10.8163 1.63137C10.6243 1.63108 10.4324 1.6311 10.2404 1.6313C9.99459 1.63152 9.7488 1.63087 9.50299 1.62997C9.31376 1.6294 9.12453 1.62937 8.9353 1.62949C8.84468 1.62947 8.75406 1.62927 8.66344 1.62888C8.53665 1.6284 8.40989 1.62866 8.2831 1.62911C8.24581 1.62882 8.20851 1.62852 8.17009 1.62822C7.92319 1.63014 7.73636 1.66186 7.5339 1.81391ZM8.37879 3.18787C8.37689 3.42965 8.375 3.67143 8.37305 3.92054C8.37169 4.07468 8.3703 4.22882 8.36883 4.38295C8.36651 4.62704 8.36427 4.87112 8.3625 5.11521C8.36106 5.31223 8.35927 5.50925 8.35724 5.70627C8.35653 5.78104 8.35594 5.85581 8.35549 5.93058C8.35015 6.78295 8.23357 7.45142 7.80206 8.20227C7.77709 8.24652 7.75212 8.29077 7.7264 8.33636C7.52756 8.68817 7.32361 9.03718 7.11645 9.38414C7.09514 9.42011 7.07384 9.45607 7.05189 9.49313C7.03313 9.52451 7.01437 9.55588 6.99505 9.58821C6.9529 9.66915 6.92915 9.73954 6.91162 9.8287C7.91024 10.08 8.9315 9.80646 9.82978 9.3618C10.2814 9.14429 10.7907 9.01321 11.292 9.01277C11.319 9.01274 11.3461 9.0127 11.3739 9.01266C11.4309 9.01263 11.4879 9.0127 11.5449 9.01287C11.6308 9.01307 11.7168 9.01287 11.8028 9.01262C12.0923 9.0125 12.3768 9.02069 12.6644 9.05651C12.5386 8.79599 12.4053 8.54242 12.2615 8.29156C11.9119 7.67775 11.6576 7.10093 11.6527 6.38319C11.6523 6.3485 11.6519 6.31382 11.6515 6.27808C11.6503 6.16423 11.6493 6.05038 11.6484 5.93653C11.6476 5.85728 11.6468 5.77803 11.6459 5.69877C11.6438 5.49078 11.6419 5.28278 11.64 5.07478C11.6378 4.82489 11.6352 4.57501 11.6327 4.32513C11.6289 3.94604 11.6255 3.56696 11.622 3.18787C10.5517 3.18787 9.48147 3.18787 8.37879 3.18787ZM9.62153 10.1617C8.71927 10.6212 7.52911 10.6229 6.56414 10.4078C6.37737 10.6753 6.21839 10.9542 6.06222 11.2404C6.01088 11.3338 5.95937 11.4271 5.90778 11.5204C5.89482 11.5439 5.88187 11.5673 5.86852 11.5914C5.74355 11.8167 5.61381 12.0391 5.48307 12.2611C5.26612 12.6298 5.05729 13.0026 4.85068 13.3772C4.68671 13.6737 4.51818 13.9671 4.34651 14.2591C3.75101 15.2185 3.75101 15.2185 3.71428 16.3127C3.85355 16.8225 4.1059 17.1796 4.56022 17.4526C4.96054 17.6649 5.343 17.711 5.78873 17.7102C5.82619 17.7103 5.86365 17.7104 5.90225 17.7105C6.0272 17.7107 6.15215 17.7107 6.27709 17.7106C6.36692 17.7108 6.45674 17.7109 6.54657 17.711C6.7902 17.7114 7.03383 17.7115 7.27745 17.7115C7.42978 17.7115 7.58211 17.7116 7.73443 17.7117C8.23876 17.712 8.74309 17.7122 9.24742 17.7122C9.27457 17.7122 9.30172 17.7122 9.3297 17.7122C9.37047 17.7122 9.37047 17.7122 9.41207 17.7122C9.85241 17.7122 10.2927 17.7125 10.7331 17.7131C11.186 17.7136 11.6388 17.7139 12.0917 17.7139C12.3457 17.7139 12.5996 17.714 12.8536 17.7144C13.0925 17.7148 13.3315 17.7148 13.5704 17.7145C13.6579 17.7144 13.7454 17.7145 13.8328 17.7148C14.6161 17.7167 15.2718 17.697 15.8668 17.1319C16.2092 16.771 16.3536 16.3047 16.3414 15.8153C16.3069 15.3661 16.0859 15.0007 15.869 14.6163C15.8436 14.571 15.8436 14.571 15.8176 14.5249C15.7035 14.323 15.5879 14.1219 15.4721 13.9209C15.3628 13.731 15.2542 13.5406 15.1456 13.3503C15.0797 13.2349 15.0138 13.1195 14.9478 13.0042C14.9211 12.9574 14.8944 12.9107 14.8677 12.8639C14.8545 12.8408 14.8413 12.8177 14.8277 12.7939C14.7885 12.7253 14.7493 12.6567 14.7101 12.5881C14.6973 12.5658 14.6846 12.5435 14.6714 12.5205C14.6458 12.4756 14.6201 12.4306 14.5944 12.3857C14.5304 12.2737 14.4664 12.1617 14.4024 12.0497C14.2571 11.7956 14.1119 11.5414 13.9671 11.2869C13.9011 11.171 13.8348 11.0553 13.7681 10.9398C13.6567 10.7467 13.5468 10.5539 13.4455 10.3554C13.3091 10.0931 13.203 9.89107 12.9154 9.7732C12.7964 9.73725 12.7964 9.73725 12.6644 9.71287C12.6376 9.70621 12.6108 9.69956 12.5832 9.6927C12.2894 9.62405 11.9973 9.62024 11.6968 9.62117C11.6703 9.62121 11.6437 9.62124 11.6164 9.62128C10.8783 9.62438 10.2681 9.80708 9.62153 10.1617Z" fill="#484848"/>
<path d="M7.25909 13.5352C7.55248 13.7463 7.74033 13.9969 7.83823 14.346C7.87653 14.7218 7.847 15.0498 7.62015 15.3595C7.38503 15.6387 7.14898 15.8298 6.77647 15.8643C6.36682 15.8762 6.08038 15.8168 5.76056 15.5573C5.53122 15.3406 5.3866 15.0617 5.35802 14.7464C5.34843 14.3672 5.41884 14.0677 5.66403 13.7717C6.06592 13.3525 6.75435 13.199 7.25909 13.5352ZM6.12704 14.2511C6.01846 14.417 5.98636 14.5757 6.02358 14.7707C6.08806 14.9584 6.19341 15.0817 6.37137 15.1699C6.5146 15.2174 6.64769 15.2224 6.79577 15.1954C6.99336 15.0929 7.11148 14.9818 7.18187 14.7707C7.19609 14.5537 7.18928 14.4171 7.06604 14.2301C6.88731 14.0688 6.7766 14.0227 6.54029 14.0265C6.36527 14.0466 6.24121 14.1177 6.12704 14.2511Z" fill="#484848"/>
<path d="M11.7363 11.6536C11.9887 11.8679 12.1429 12.1353 12.1747 12.4643C12.1876 12.847 12.1262 13.1338 11.8802 13.4313C11.6522 13.6724 11.4304 13.8265 11.0917 13.8569C10.6819 13.8662 10.3365 13.8197 10.0236 13.5291C9.71902 13.1784 9.65246 12.8296 9.68128 12.3785C9.72135 12.0697 9.90909 11.8085 10.1491 11.62C10.666 11.2836 11.2338 11.294 11.7363 11.6536ZM10.451 12.242C10.3349 12.4178 10.3106 12.5953 10.3479 12.8015C10.4335 12.9695 10.5344 13.0888 10.6954 13.1876C10.9167 13.2457 11.0461 13.2329 11.2451 13.1199C11.3817 13.0232 11.4538 12.9199 11.5062 12.7629C11.5215 12.5599 11.5021 12.4324 11.3903 12.261C11.2474 12.1161 11.1233 12.0371 10.9174 12.0173C10.7192 12.0338 10.5838 12.0913 10.451 12.242Z" fill="#484848"/>
<path d="M13.1956 15.0291C13.5217 15.2194 13.685 15.4633 13.8227 15.8132C13.9089 16.1613 13.8763 16.5104 13.6971 16.8247C13.5029 17.1026 13.2522 17.2807 12.9347 17.3962C12.8292 17.408 12.7356 17.4146 12.6307 17.4131C12.6036 17.4128 12.5765 17.4125 12.5486 17.4123C12.3237 17.4053 12.1584 17.3609 11.9695 17.2417C11.9335 17.2214 11.9335 17.2214 11.8968 17.2007C11.6319 17.0356 11.4698 16.7671 11.3903 16.4695C11.3511 16.0295 11.3861 15.6913 11.6703 15.3402C12.0637 14.9173 12.6626 14.7765 13.1956 15.0291ZM12.1094 15.8373C12.0243 16.0141 12.0159 16.1609 12.0467 16.3537C12.1367 16.5405 12.246 16.6499 12.4328 16.7398C12.6235 16.7703 12.7722 16.7606 12.9492 16.6819C13.0994 16.5389 13.1926 16.3986 13.2139 16.1887C13.2044 15.9838 13.1365 15.8625 12.9991 15.7132C12.8466 15.5843 12.7144 15.5643 12.5195 15.5695C12.3334 15.5954 12.2308 15.7031 12.1094 15.8373Z" fill="#484848"/>
<path d="M13.6683 12.9174C13.7817 12.9995 13.7817 12.9995 13.8614 13.1105C13.8827 13.2601 13.8729 13.3723 13.7841 13.4966C13.6824 13.5757 13.6253 13.5737 13.4946 13.5714C13.3594 13.5352 13.3594 13.5352 13.2629 13.4531C13.1859 13.3055 13.1975 13.2303 13.2436 13.0719C13.3583 12.8998 13.4689 12.8859 13.6683 12.9174Z" fill="#484848"/>
<path d="M8.45601 12.2997C8.56112 12.3744 8.60083 12.4274 8.64423 12.5483C8.65177 12.7029 8.60968 12.7966 8.5091 12.9126C8.3709 12.9781 8.25277 12.9619 8.10852 12.9175C7.99864 12.8282 7.99383 12.7708 7.97339 12.6303C7.99269 12.4928 7.99269 12.4928 8.07233 12.3794C8.21434 12.2796 8.28583 12.2719 8.45601 12.2997Z" fill="#484848"/>
<path d="M7.29775 16.3537C7.40761 16.4219 7.41433 16.4725 7.44736 16.5999C7.45272 16.7553 7.43177 16.8127 7.33636 16.9329C7.21518 16.9935 7.12252 16.9851 6.98887 16.9715C6.85811 16.8769 6.80405 16.8223 6.77411 16.6626C6.80077 16.5204 6.84865 16.4553 6.95026 16.3537C7.08732 16.308 7.15874 16.319 7.29775 16.3537Z" fill="#484848"/>
<path d="M15.0582 15.2339C15.1572 15.2988 15.1724 15.3445 15.2078 15.4584C15.2137 15.6092 15.1764 15.6864 15.0968 15.8131C14.9726 15.8752 14.8451 15.8748 14.7107 15.8517C14.5838 15.747 14.5598 15.6838 14.537 15.5211C14.5563 15.3884 14.5563 15.3884 14.6263 15.2967C14.7779 15.1841 14.88 15.1894 15.0582 15.2339Z" fill="#484848"/>
<path d="M9.84596 15.543C9.94248 15.6009 9.94248 15.6009 10.0004 15.6974C10.0309 15.8527 10.0244 15.9663 9.94248 16.1028C9.80596 16.1847 9.69233 16.1913 9.53708 16.1607C9.44056 16.1028 9.44056 16.1028 9.38264 16.0063C9.3521 15.851 9.35865 15.7374 9.44056 15.6009C9.57708 15.519 9.69071 15.5124 9.84596 15.543Z" fill="#484848"/>
</svg>
