<svg width="20" height="20" viewBox="0 0 20 20" fill="none" xmlns="http://www.w3.org/2000/svg">
<path d="M13.9558 5.7887C13.5588 5.8118 13.1605 5.77937 12.7721 5.69233C12.3036 5.52907 11.8654 5.28676 11.4759 4.97555C11.1427 4.73515 10.8262 4.47149 10.5289 4.18648C10.4028 4.06665 10.2368 4 10.0643 4C9.89178 4 9.72572 4.06665 9.59966 4.18648C9.31022 4.46248 9.00592 4.72189 8.68818 4.9635C8.29625 5.2788 7.85645 5.52701 7.38607 5.69835C6.94367 5.80008 6.48921 5.83659 6.0366 5.80677C5.66601 5.79116 5.29653 5.75496 4.92981 5.69835C4.84019 5.68483 4.74883 5.68982 4.66115 5.71301C4.57347 5.7362 4.49128 5.77712 4.41947 5.83333C4.34767 5.88954 4.28772 5.95989 4.24321 6.04019C4.19869 6.12048 4.17052 6.20908 4.16038 6.30069C4.13078 6.58981 4.05384 7.34274 4.01833 8.17999C3.96856 9.01649 4.02024 9.85605 4.17221 10.6797C4.60075 12.0443 5.38892 13.2631 6.45091 14.2034C7.29503 15.0137 8.21033 15.7436 9.18535 16.3838C9.44665 16.5664 9.75619 16.6642 10.0732 16.6642C10.3901 16.6642 10.6997 16.5664 10.961 16.3838C11.8843 15.7269 12.7479 14.987 13.5415 14.1733C14.5413 13.2261 15.2818 12.0304 15.69 10.7038" stroke="#484848" stroke-linecap="round" stroke-linejoin="round"/>
<path d="M8.87085 9.99691L10.6438 11.7555C10.6549 11.7674 10.6683 11.7769 10.6832 11.7834C10.6982 11.79 10.7143 11.7933 10.7306 11.7933C10.7469 11.7933 10.7631 11.79 10.778 11.7834C10.793 11.7769 10.8064 11.7674 10.8174 11.7555L15.69 6.92249" stroke="#484848" stroke-linecap="round" stroke-linejoin="round"/>
</svg>
