<svg width="20" height="20" viewBox="0 0 20 20" fill="none" xmlns="http://www.w3.org/2000/svg">
<path fill-rule="evenodd" clip-rule="evenodd" d="M15.6749 8.0447C15.6749 7.22872 15.5817 6.50599 15.5525 6.23205C15.5418 6.14373 15.5135 6.05842 15.4694 5.98112C15.4254 5.90382 15.3664 5.83607 15.2958 5.78182C15.2253 5.72756 15.1447 5.6879 15.0587 5.66513C14.9726 5.64236 14.8829 5.63695 14.7948 5.64921C14.62 5.64921 14.2411 5.71915 13.8156 5.73664C13.4246 5.75898 13.0324 5.72761 12.65 5.64338C12.1886 5.4854 11.7571 5.25094 11.3735 4.9498C11.0412 4.71575 10.7257 4.45867 10.4293 4.18045C10.3052 4.0645 10.1417 4 9.97179 4C9.80192 4 9.63839 4.0645 9.51426 4.18045C9.22923 4.44751 8.92957 4.69852 8.61668 4.93231C8.23072 5.23741 7.79763 5.47758 7.33442 5.64338C6.89877 5.74182 6.45124 5.77715 6.00554 5.74829C5.6406 5.73318 5.27675 5.69816 4.91563 5.64338C4.82738 5.6303 4.7374 5.63512 4.65106 5.65756C4.56472 5.68 4.48378 5.7196 4.41307 5.77399C4.34236 5.82838 4.28333 5.89645 4.2395 5.97415C4.19566 6.05185 4.16792 6.13758 4.15793 6.22623C4.12879 6.50599 4.05302 7.23454 4.01805 8.0447C3.96904 8.85413 4.01994 9.66651 4.16959 10.4635C4.59159 11.7839 5.36774 12.9632 6.41353 13.8731C7.24477 14.6572 8.14612 15.3635 9.10627 15.983C9.36358 16.1597 9.66839 16.2543 9.98053 16.2543C10.2927 16.2543 10.5975 16.1597 10.8548 15.983C11.764 15.3473 12.6145 14.6314 13.396 13.844C14.3806 12.9274 15.1097 11.7705 15.5117 10.4868C15.6648 9.68239 15.7196 8.86234 15.6749 8.0447Z" stroke="#484848" stroke-linecap="round" stroke-linejoin="round"/>
<path d="M8.09796 8.37109L11.595 11.8682" stroke="#484848" stroke-linecap="round" stroke-linejoin="round"/>
<path d="M8.09796 11.8682L11.595 8.37109" stroke="#484848" stroke-linecap="round" stroke-linejoin="round"/>
</svg>
