<svg width="20" height="20" viewBox="0 0 20 20" fill="none" xmlns="http://www.w3.org/2000/svg">
<path fill-rule="evenodd" clip-rule="evenodd" d="M15.6774 8.04555C15.6774 7.2294 15.5841 6.50652 15.555 6.23253C15.5442 6.14418 15.516 6.05886 15.4719 5.98154C15.4278 5.90423 15.3688 5.83646 15.2982 5.78219C15.2277 5.72793 15.147 5.68826 15.061 5.66548C14.975 5.64271 14.8853 5.6373 14.7971 5.64956C14.6222 5.64956 14.2433 5.71952 13.8177 5.73701C13.4266 5.75936 13.0343 5.72797 12.6518 5.64373C12.1903 5.48572 11.7587 5.2512 11.3751 4.95C11.0427 4.7159 10.7271 4.45876 10.4307 4.18049C10.3065 4.06451 10.143 4 9.97305 4C9.80315 4 9.63959 4.06451 9.51542 4.18049C9.23034 4.44761 8.93062 4.69867 8.61766 4.93251C8.23162 5.23768 7.79843 5.4779 7.33513 5.64373C6.89939 5.74219 6.45176 5.77753 6.00597 5.74866C5.64095 5.73355 5.27702 5.69852 4.91582 5.64373C4.82756 5.63065 4.73756 5.63547 4.6512 5.65791C4.56484 5.68036 4.48389 5.71996 4.41316 5.77436C4.34244 5.82877 4.28339 5.89686 4.23955 5.97457C4.1957 6.05228 4.16796 6.13803 4.15796 6.2267C4.12882 6.50652 4.05303 7.23523 4.01805 8.04555C3.96903 8.85515 4.01994 9.66771 4.16962 10.4649C4.59171 11.7856 5.36803 12.9651 6.41404 13.8752C7.24546 14.6595 8.147 15.3659 9.10735 15.9856C9.36472 16.1623 9.6696 16.2569 9.9818 16.2569C10.294 16.2569 10.5989 16.1623 10.8562 15.9856C11.7657 15.3497 12.6163 14.6337 13.398 13.8461C14.3828 12.9293 15.112 11.7721 15.5141 10.4882C15.6673 9.68359 15.7221 8.86337 15.6774 8.04555Z" stroke="#484848" stroke-linecap="round" stroke-linejoin="round"/>
</svg>
