<svg width="20" height="20" viewBox="0 0 20 20" fill="none" xmlns="http://www.w3.org/2000/svg">
<g clip-path="url(#clip0_23_806)">
<path fill-rule="evenodd" clip-rule="evenodd" d="M17.1323 9.25061L4.32719 3.71539C4.29523 3.70456 4.26041 3.7032 4.2268 3.71147C4.19319 3.71974 4.16218 3.7373 4.13738 3.7621C4.11258 3.7869 4.09502 3.81792 4.08675 3.85153C4.07848 3.88514 4.07984 3.91995 4.09067 3.95191L6.25251 9.63664C6.26094 9.65759 6.265 9.68022 6.26445 9.70319C6.26391 9.72617 6.25877 9.74902 6.24933 9.77039L3.81485 15.5643C3.80248 15.5968 3.79947 15.6317 3.80615 15.665C3.81283 15.6982 3.82894 15.7284 3.85259 15.7521C3.87623 15.7757 3.90645 15.7919 3.93971 15.7985C3.97296 15.8052 4.00788 15.8022 4.04039 15.7898L17.1248 9.56676C17.156 9.55278 17.1829 9.53011 17.2021 9.50157C17.2213 9.47303 17.232 9.43987 17.2328 9.40621C17.2336 9.37255 17.2245 9.33986 17.2066 9.31221C17.1887 9.28455 17.1629 9.26313 17.1323 9.25061Z" stroke="#484848" stroke-width="1.5" stroke-linecap="round" stroke-linejoin="round"/>
<path d="M17.304 9.40453L6.27314 9.68737" stroke="#484848" stroke-width="1.5" stroke-linecap="round" stroke-linejoin="round"/>
</g>
<defs>
<clipPath id="clip0_23_806">
<rect width="20" height="20" fill="white"/>
</clipPath>
</defs>
</svg>
