<svg width="20" height="20" viewBox="0 0 20 20" fill="none" xmlns="http://www.w3.org/2000/svg">
<g clip-path="url(#clip0_23_807)">
<path fill-rule="evenodd" clip-rule="evenodd" d="M17.1323 9.25061L4.32721 3.71539C4.29525 3.70456 4.26043 3.7032 4.22682 3.71147C4.19321 3.71974 4.16219 3.7373 4.13739 3.7621C4.11259 3.7869 4.09503 3.81792 4.08676 3.85153C4.07849 3.88514 4.07985 3.91995 4.09069 3.95191L6.25252 9.63664C6.26095 9.65759 6.26502 9.68022 6.26447 9.70319C6.26392 9.72617 6.25878 9.74902 6.24934 9.77039L3.81487 15.5643C3.8025 15.5968 3.79948 15.6317 3.80616 15.665C3.81285 15.6982 3.82895 15.7284 3.8526 15.7521C3.87625 15.7757 3.90646 15.7919 3.93972 15.7985C3.97298 15.8052 4.0079 15.8022 4.04041 15.7898L17.1248 9.56676C17.156 9.55277 17.1829 9.53011 17.2021 9.50157C17.2213 9.47303 17.232 9.43987 17.2328 9.40621C17.2336 9.37255 17.2245 9.33986 17.2066 9.31221C17.1888 9.28455 17.1629 9.26313 17.1323 9.25061Z" fill="#484848" stroke="#484848" stroke-width="1.5" stroke-linecap="round" stroke-linejoin="round"/>
<path d="M13.2247 9.51974L5.99998 9.70499" stroke="#F9F9FA" stroke-width="1.5" stroke-linecap="round" stroke-linejoin="round"/>
</g>
<defs>
<clipPath id="clip0_23_807">
<rect width="20" height="20" fill="white"/>
</clipPath>
</defs>
</svg>
