<svg width="20" height="20" viewBox="0 0 20 20" fill="none" xmlns="http://www.w3.org/2000/svg">
<path d="M3.00723 12.2866C3.07735 12.2853 3.14745 12.2843 3.21758 12.2836C3.23726 12.2832 3.25694 12.2828 3.27722 12.2824C3.51453 12.2805 3.67938 12.3582 3.86972 12.4921C4.192 12.7166 4.56241 12.7566 4.94026 12.6894C5.18025 12.6348 5.37009 12.5304 5.57222 12.3918C5.82334 12.241 6.16377 12.244 6.44491 12.3067C6.56749 12.3531 6.6695 12.4172 6.77649 12.4921C7.06751 12.6945 7.41863 12.756 7.7656 12.7068C8.03758 12.6535 8.25114 12.5481 8.47899 12.3918C8.72926 12.2415 9.06809 12.2442 9.34859 12.3057C9.48507 12.3575 9.60596 12.4339 9.73097 12.5086C10.0758 12.712 10.4371 12.7533 10.8303 12.6784C11.017 12.6219 11.1676 12.5291 11.3294 12.4221C11.585 12.2606 11.8734 12.2552 12.168 12.2866C12.3432 12.3262 12.4849 12.4172 12.6377 12.5086C12.9821 12.7117 13.339 12.7509 13.7319 12.6804C13.9353 12.6198 14.117 12.5142 14.2987 12.4065C14.5633 12.2499 14.8959 12.2405 15.1948 12.3066C15.3172 12.3532 15.4192 12.4173 15.5262 12.4921C15.8418 12.7119 16.2166 12.7599 16.5887 12.6954C16.7734 12.6457 16.9345 12.5558 17.1007 12.4627C17.1405 12.4404 17.1405 12.4404 17.1812 12.4177C17.2244 12.3934 17.2674 12.3688 17.3101 12.3437C17.4392 12.2783 17.5678 12.283 17.7099 12.2847C17.7304 12.2849 17.7509 12.285 17.772 12.2851C17.8222 12.2855 17.8725 12.286 17.9228 12.2866C17.9241 12.8904 17.9252 13.4943 17.9258 14.0981C17.9261 14.3785 17.9265 14.6588 17.9272 14.9392C17.9278 15.1835 17.9282 15.4278 17.9283 15.6721C17.9284 15.8015 17.9286 15.9309 17.929 16.0603C17.9294 16.182 17.9295 16.3037 17.9294 16.4254C17.9294 16.4702 17.9296 16.5149 17.9298 16.5597C17.9301 16.6206 17.93 16.6815 17.9298 16.7425C17.9299 16.7937 17.9299 16.7937 17.93 16.846C17.9228 16.9256 17.9228 16.9256 17.8641 16.9844C17.7837 16.9902 17.7063 16.9922 17.6259 16.9918C17.6008 16.9918 17.5758 16.9919 17.55 16.992C17.4652 16.9922 17.3804 16.992 17.2956 16.9918C17.2345 16.9919 17.1735 16.992 17.1124 16.9921C16.944 16.9924 16.7755 16.9922 16.607 16.992C16.4256 16.9919 16.2442 16.9921 16.0628 16.9923C15.7277 16.9925 15.3926 16.9925 15.0575 16.9923C14.748 16.9922 14.4385 16.9922 14.129 16.9922C14.1084 16.9922 14.0879 16.9922 14.0668 16.9922C13.9836 16.9923 13.9004 16.9923 13.8172 16.9923C13.0359 16.9925 12.2547 16.9923 11.4735 16.992C10.7788 16.9917 10.0842 16.9917 9.38959 16.992C8.60981 16.9923 7.83004 16.9925 7.05027 16.9923C6.9672 16.9923 6.88412 16.9922 6.80105 16.9922C6.77037 16.9922 6.77037 16.9922 6.73907 16.9922C6.42968 16.9921 6.1203 16.9922 5.81092 16.9924C5.45926 16.9925 5.1076 16.9925 4.75594 16.9922C4.57635 16.992 4.39676 16.992 4.21717 16.9922C4.05302 16.9923 3.88887 16.9922 3.72472 16.9919C3.66509 16.9919 3.60545 16.9919 3.54582 16.992C3.46525 16.9922 3.38469 16.992 3.30412 16.9918C3.26877 16.992 3.26877 16.992 3.2327 16.9922C3.07266 16.9911 3.07266 16.9911 3.00723 16.9256C3.00001 16.846 3.00001 16.846 3.00017 16.7425C3.00012 16.7235 3.00007 16.7045 3.00002 16.6849C2.99992 16.621 3.00024 16.5571 3.00056 16.4931C3.00058 16.4474 3.00057 16.4017 3.00054 16.356C3.00052 16.2316 3.00087 16.1073 3.00128 15.9829C3.00164 15.8531 3.00168 15.7232 3.00175 15.5933C3.00193 15.3473 3.00241 15.1013 3.003 14.8552C3.00366 14.5752 3.00398 14.2952 3.00428 14.0151C3.00489 13.4389 3.00592 12.8627 3.00723 12.2866ZM11.0743 13.2632C10.8776 13.4585 10.7801 13.6434 10.777 13.9253C10.7819 14.2023 10.8672 14.3826 11.0541 14.5848C11.2547 14.7635 11.4796 14.7928 11.7398 14.7904C11.9697 14.7726 12.1628 14.661 12.3148 14.4887C12.4811 14.237 12.5139 14.026 12.4909 13.7253C12.4377 13.5084 12.2949 13.3167 12.1138 13.1875C11.7748 12.9992 11.3763 13.0095 11.0743 13.2632ZM4.44594 13.6078C4.43615 13.6959 4.43615 13.6959 4.44594 13.784C4.50128 13.852 4.50128 13.852 4.59274 13.8501C4.6842 13.852 4.6842 13.852 4.73955 13.784C4.74934 13.6959 4.74934 13.6959 4.73955 13.6078C4.6842 13.5398 4.6842 13.5398 4.59274 13.5418C4.50128 13.5398 4.50128 13.5398 4.44594 13.6078ZM6.8242 13.7895C6.77081 13.9397 6.7643 14.1056 6.81617 14.2576C6.89249 14.4012 6.99358 14.4962 7.14718 14.5474C7.34933 14.5689 7.48203 14.5515 7.64632 14.4299C7.78203 14.2835 7.80213 14.1684 7.79932 13.9748C7.78689 13.8276 7.72505 13.7373 7.61696 13.6427C7.32565 13.4303 7.04313 13.55 6.8242 13.7895ZM14.5462 13.6078C14.5364 13.6959 14.5364 13.6959 14.5462 13.784C14.6016 13.852 14.6016 13.852 14.693 13.8501C14.7845 13.852 14.7845 13.852 14.8398 13.784C14.8496 13.6959 14.8496 13.6959 14.8398 13.6078C14.7845 13.5398 14.7845 13.5398 14.693 13.5418C14.6016 13.5398 14.6016 13.5398 14.5462 13.6078ZM15.9849 14.0244C15.9315 14.1746 15.925 14.3405 15.9769 14.4924C16.0532 14.6361 16.1543 14.7311 16.3079 14.7823C16.5101 14.8038 16.6428 14.7864 16.807 14.6648C16.9428 14.5184 16.9629 14.4033 16.96 14.2097C16.9476 14.0625 16.8858 13.9722 16.7777 13.8776C16.4864 13.6652 16.2039 13.7849 15.9849 14.0244ZM9.37863 14.0776C9.36885 14.1657 9.36885 14.1657 9.37863 14.2538C9.43398 14.3218 9.43398 14.3218 9.52544 14.3198C9.6169 14.3218 9.6169 14.3218 9.67225 14.2538C9.68203 14.1657 9.68203 14.1657 9.67225 14.0776C9.6169 14.0096 9.6169 14.0096 9.52544 14.0115C9.43398 14.0096 9.43398 14.0096 9.37863 14.0776ZM4.26243 14.6725C4.06578 14.8678 3.96831 15.0527 3.96514 15.3346C3.9701 15.6116 4.05538 15.7919 4.24224 15.9941C4.44284 16.1729 4.66777 16.2022 4.92799 16.1998C5.1579 16.182 5.35097 16.0704 5.50294 15.898C5.66927 15.6464 5.70209 15.4354 5.67911 15.1346C5.62585 14.9177 5.48305 14.7261 5.302 14.5968C4.96297 14.4085 4.56452 14.4189 4.26243 14.6725ZM13.6727 15.2557C13.5746 15.4029 13.5918 15.5817 13.6067 15.7512C13.6579 15.9482 13.788 16.0608 13.959 16.1623C14.1374 16.2217 14.354 16.2239 14.5279 16.1476C14.6789 16.0596 14.7851 15.9154 14.8398 15.7512C14.8543 15.5586 14.8644 15.3876 14.7518 15.2227C14.7354 15.1973 14.7191 15.1718 14.7022 15.1456C14.5602 14.9998 14.4226 14.9511 14.2196 14.9456C13.963 14.9553 13.8327 15.0615 13.6727 15.2557ZM8.70332 15.4337C8.64993 15.5839 8.64343 15.7498 8.6953 15.9018C8.77161 16.0454 8.87271 16.1404 9.0263 16.1916C9.22845 16.2132 9.36115 16.1957 9.52544 16.0742C9.66116 15.9277 9.68125 15.8127 9.67844 15.6191C9.66602 15.4718 9.60417 15.3816 9.49608 15.2869C9.20477 15.0745 8.92225 15.1943 8.70332 15.4337ZM6.79484 15.7218C6.78505 15.8099 6.78505 15.8099 6.79484 15.898C6.85019 15.966 6.85019 15.966 6.94165 15.9641C7.03311 15.966 7.03311 15.966 7.08845 15.898C7.09824 15.8099 7.09824 15.8099 7.08845 15.7218C7.03311 15.6538 7.03311 15.6538 6.94165 15.6558C6.85019 15.6538 6.85019 15.6538 6.79484 15.7218ZM11.4926 15.9567C11.4829 16.0448 11.4829 16.0448 11.4926 16.1329C11.548 16.2009 11.548 16.2009 11.6395 16.199C11.7309 16.2009 11.7309 16.2009 11.7863 16.1329C11.796 16.0448 11.796 16.0448 11.7863 15.9567C11.7309 15.8887 11.7309 15.8887 11.6395 15.8907C11.548 15.8887 11.548 15.8887 11.4926 15.9567ZM15.9556 15.9567C15.9458 16.0448 15.9458 16.0448 15.9556 16.1329C16.0109 16.2009 16.0109 16.2009 16.1024 16.199C16.1938 16.2009 16.1938 16.2009 16.2492 16.1329C16.259 16.0448 16.259 16.0448 16.2492 15.9567C16.1938 15.8887 16.1938 15.8887 16.1024 15.8907C16.0109 15.8887 16.0109 15.8887 15.9556 15.9567Z" fill="#484848"/>
<path d="M9.75345 3.00142C9.78613 3.00098 9.78613 3.00098 9.81947 3.00054C10.5909 2.99241 11.2806 3.08822 12.0239 3.30295C12.2061 3.35553 12.389 3.40314 12.5735 3.447C12.5977 3.45285 12.6218 3.45869 12.6467 3.46471C13.2084 3.59659 13.8087 3.56943 14.3701 3.44884C14.4072 3.441 14.4444 3.43317 14.4827 3.42509C14.8125 3.34599 15.1608 3.22481 15.4503 3.04581C15.5549 2.98551 15.6311 2.99867 15.75 3.00842C15.8187 3.07703 15.8176 3.09125 15.8185 3.18447C15.8146 3.34429 15.7685 3.47876 15.7115 3.62684C15.7011 3.65457 15.6906 3.68231 15.6799 3.71089C15.3569 4.55185 14.9322 5.34901 14.3407 6.03263C14.321 6.05557 14.3013 6.0785 14.2811 6.10213C14.2142 6.17821 14.1458 6.25243 14.0764 6.32624C14.0611 6.3426 14.0457 6.35895 14.0299 6.3758C13.6356 6.79215 13.2002 7.13769 12.6965 7.41261C12.6688 7.42775 12.6688 7.42775 12.6407 7.44319C11.8469 7.87239 10.9778 8.07183 10.0778 8.06957C10.0419 8.06955 10.0419 8.06955 10.0052 8.06952C9.64891 8.06843 9.30829 8.05564 8.96758 7.94111C8.9482 7.93467 8.92882 7.92822 8.90885 7.92157C8.51701 7.7864 8.16561 7.59494 7.85185 7.32453C7.83205 7.30897 7.81226 7.29342 7.79186 7.27739C7.3687 6.93532 7.07164 6.39475 7.00037 5.85646C6.99928 5.79775 6.99898 5.739 7.00037 5.68029C6.98216 5.67598 6.96396 5.67166 6.9452 5.66722C6.33307 5.51218 5.76611 5.21349 5.26805 4.82882C5.22655 4.79929 5.22655 4.79929 5.18421 4.76918C5.12124 4.71137 5.12124 4.71137 5.10484 4.65058C5.11472 4.48301 5.11472 4.48301 5.17997 4.41776C5.31103 4.39106 5.37717 4.39367 5.49113 4.4665C5.5497 4.51219 5.60798 4.55825 5.66603 4.60459C6.05637 4.91106 6.53011 5.11923 7.00037 5.26924C7.00256 5.24891 7.00476 5.22859 7.00702 5.20765C7.09183 4.57654 7.44985 4.03754 7.94448 3.64567C8.45786 3.25851 9.10708 3.00847 9.75345 3.00142ZM12.1018 5.19698C12.0723 5.20668 12.0428 5.21639 12.0124 5.22638C11.9807 5.23689 11.9491 5.2474 11.9166 5.25823C11.3414 5.44208 10.7449 5.5742 10.142 5.62157C10.1119 5.62399 10.1119 5.62399 10.0812 5.62646C9.10768 5.70208 8.14112 5.60678 7.19787 5.35594C7.09779 5.32553 7.09779 5.32553 7.02973 5.32796C7.02973 5.43454 7.02973 5.54112 7.02973 5.65093C7.21358 5.7256 7.39518 5.77282 7.58943 5.81242C7.62005 5.81871 7.65066 5.82501 7.68221 5.83149C9.224 6.13899 10.9751 6.08421 12.4322 5.4454C12.5002 5.39006 12.5002 5.39006 12.4983 5.2986C12.5002 5.20714 12.5002 5.20714 12.4322 5.15179C12.3113 5.14223 12.2159 5.15816 12.1018 5.19698Z" fill="#484848"/>
<path d="M3.00722 10.4075C7.92935 10.4075 12.8515 10.4075 17.9228 10.4075C17.9228 10.921 17.9228 11.4345 17.9228 11.9636C17.6902 11.9782 17.6902 11.9782 17.453 11.993C17.2216 12.0561 17.0266 12.163 16.8211 12.2841C16.5634 12.4354 16.2491 12.4497 15.958 12.385C15.821 12.3327 15.6994 12.2571 15.5739 12.182C15.2451 11.9857 14.9066 11.9299 14.5296 11.9952C14.3449 12.0449 14.1846 12.1364 14.0177 12.2279C13.9622 12.2563 13.9065 12.2845 13.8507 12.3123C13.8282 12.3237 13.8057 12.3351 13.7825 12.3469C13.565 12.4503 13.2501 12.4355 13.0167 12.384C12.8944 12.3373 12.7923 12.2733 12.6854 12.1985C12.3625 11.9736 11.9914 11.934 11.6128 12.0012C11.3819 12.0549 11.191 12.1758 10.9904 12.2988C10.7291 12.4419 10.4043 12.4473 10.1154 12.3859C9.93163 12.3167 9.76329 12.2062 9.59573 12.1047C9.26069 11.9266 8.89344 11.9408 8.53701 12.0453C8.36896 12.1072 8.22575 12.1968 8.07904 12.2988C7.82489 12.4459 7.47443 12.452 7.1935 12.3773C7.02412 12.3091 6.87213 12.2168 6.71729 12.1209C6.42915 11.9553 6.10133 11.9389 5.77934 11.995C5.56273 12.054 5.36303 12.1621 5.17892 12.2896C4.93296 12.4471 4.64003 12.4287 4.35784 12.404C4.25579 12.3811 4.18156 12.3422 4.09359 12.2866C4.04221 12.2567 3.99081 12.2268 3.93925 12.1972C3.9037 12.1766 3.86835 12.1558 3.83325 12.1345C3.56249 11.9734 3.33027 11.9838 3.00722 11.9636C3.00722 11.4501 3.00722 10.9366 3.00722 10.4075Z" fill="#484848"/>
<path d="M3.23268 9.10771C3.26804 9.10792 3.26804 9.10792 3.30411 9.10813C3.32914 9.10805 3.35418 9.10796 3.37997 9.10787C3.46478 9.10766 3.54959 9.10786 3.6344 9.10806C3.69545 9.108 3.7565 9.1079 3.81754 9.10779C3.98602 9.10754 4.15449 9.10766 4.32297 9.10784C4.50438 9.10798 4.6858 9.10777 4.86721 9.10761C5.2023 9.10736 5.53739 9.10739 5.87248 9.10755C6.182 9.10769 6.49152 9.10773 6.80104 9.10766C6.82154 9.10766 6.84204 9.10765 6.86317 9.10765C6.94639 9.10763 7.02961 9.10761 7.11283 9.10759C7.89406 9.10741 8.6753 9.10758 9.45653 9.10789C10.1512 9.10817 10.8458 9.10815 11.5404 9.10787C12.3202 9.10755 13.1 9.10743 13.8797 9.10761C13.9628 9.10763 14.0459 9.10764 14.1289 9.10766C14.1596 9.10767 14.1596 9.10767 14.1909 9.10768C14.5003 9.10774 14.8097 9.10767 15.1191 9.10752C15.4707 9.10735 15.8224 9.1074 16.174 9.10771C16.3536 9.10786 16.5332 9.10792 16.7128 9.10773C16.877 9.10756 17.0411 9.10765 17.2053 9.10796C17.2649 9.10803 17.3245 9.108 17.3842 9.10785C17.4647 9.10768 17.5453 9.10786 17.6259 9.10813C17.6494 9.10799 17.673 9.10786 17.6973 9.10771C17.8573 9.10882 17.8573 9.10882 17.9228 9.17424C17.9228 9.46492 17.9228 9.7556 17.9228 10.0551C13.0006 10.0551 8.0785 10.0551 3.00722 10.0551C3.00722 9.10927 3.00722 9.10927 3.23268 9.10771Z" fill="#484848"/>
<path d="M5.06848 14.8327C5.2106 14.9093 5.30533 15.0115 5.35613 15.1639C5.37565 15.3828 5.37505 15.5449 5.23869 15.7218C5.08014 15.8688 4.9495 15.8789 4.74 15.8769C4.57726 15.8617 4.48744 15.796 4.3762 15.6759C4.27169 15.5192 4.28214 15.346 4.29913 15.1639C4.34608 15.02 4.43851 14.9242 4.56338 14.841C4.72058 14.7886 4.90974 14.7809 5.06848 14.8327Z" fill="#484848"/>
<path d="M11.8803 13.4234C12.0224 13.5 12.1171 13.6022 12.1679 13.7546C12.1874 13.9735 12.1868 14.1356 12.0505 14.3125C11.8919 14.4595 11.7613 14.4696 11.5518 14.4676C11.3891 14.4524 11.2992 14.3867 11.188 14.2666C11.0835 14.1099 11.0939 13.9367 11.1109 13.7546C11.1579 13.6107 11.2503 13.5149 11.3752 13.4317C11.5324 13.3793 11.7215 13.3716 11.8803 13.4234Z" fill="#484848"/>
<path d="M14.3701 15.2814C14.4618 15.3365 14.4618 15.3365 14.5169 15.4282C14.5459 15.5758 14.5397 15.6838 14.4618 15.8136C14.332 15.8914 14.224 15.8977 14.0764 15.8686C13.9847 15.8136 13.9847 15.8136 13.9296 15.7218C13.9006 15.5743 13.9068 15.4662 13.9847 15.3365C14.1145 15.2586 14.2225 15.2524 14.3701 15.2814Z" fill="#484848"/>
<path d="M9.11071 15.5085C9.1313 15.5086 9.15189 15.5088 9.1731 15.5089C9.19369 15.5088 9.21428 15.5086 9.2355 15.5085C9.29055 15.5163 9.29055 15.5163 9.34927 15.575C9.35707 15.6301 9.35707 15.6301 9.35661 15.6925C9.35676 15.713 9.35691 15.7336 9.35707 15.7548C9.34927 15.8099 9.34927 15.8099 9.29055 15.8686C9.2355 15.8764 9.2355 15.8764 9.1731 15.876C9.15251 15.8761 9.13192 15.8763 9.11071 15.8764C9.05566 15.8686 9.05566 15.8686 8.99693 15.8099C8.98914 15.7548 8.98914 15.7548 8.98959 15.6925C8.98944 15.6719 8.98929 15.6513 8.98914 15.6301C9.00043 15.5503 9.031 15.5198 9.11071 15.5085Z" fill="#484848"/>
<path d="M16.3923 14.0992C16.4129 14.0993 16.4335 14.0995 16.4547 14.0996C16.4753 14.0995 16.4959 14.0993 16.5171 14.0992C16.5721 14.107 16.5721 14.107 16.6309 14.1657C16.6387 14.2208 16.6387 14.2208 16.6382 14.2831C16.6384 14.3037 16.6385 14.3243 16.6387 14.3455C16.6309 14.4006 16.6309 14.4006 16.5721 14.4593C16.5171 14.4671 16.5171 14.4671 16.4547 14.4667C16.4341 14.4668 16.4135 14.467 16.3923 14.4671C16.3373 14.4593 16.3373 14.4593 16.2785 14.4006C16.2707 14.3455 16.2707 14.3455 16.2712 14.2831C16.271 14.2626 16.2709 14.242 16.2707 14.2208C16.282 14.141 16.3126 14.1105 16.3923 14.0992Z" fill="#484848"/>
<path d="M7.23159 13.8643C7.25218 13.8645 7.27277 13.8646 7.29398 13.8648C7.31457 13.8646 7.33516 13.8645 7.35638 13.8643C7.41143 13.8721 7.41143 13.8721 7.47015 13.9308C7.47795 13.9859 7.47795 13.9859 7.47749 14.0483C7.47764 14.0689 7.47779 14.0895 7.47795 14.1107C7.47015 14.1657 7.47015 14.1657 7.41143 14.2245C7.35638 14.2323 7.35638 14.2323 7.29398 14.2318C7.27339 14.2319 7.2528 14.2321 7.23159 14.2323C7.17654 14.2245 7.17654 14.2245 7.11781 14.1657C7.11002 14.1107 7.11002 14.1107 7.11047 14.0483C7.11032 14.0277 7.11017 14.0071 7.11002 13.9859C7.12131 13.9062 7.15188 13.8756 7.23159 13.8643Z" fill="#484848"/>
</svg>
