<svg width="20" height="20" viewBox="0 0 20 20" fill="none" xmlns="http://www.w3.org/2000/svg">
<path d="M3.23357 9.10808C3.26893 9.10829 3.26893 9.10829 3.305 9.1085C3.33004 9.10841 3.35507 9.10833 3.38087 9.10824C3.46568 9.10802 3.55049 9.10823 3.63531 9.10843C3.69636 9.10836 3.75741 9.10827 3.81847 9.10815C3.98695 9.10791 4.15544 9.10803 4.32392 9.10821C4.50535 9.10834 4.68677 9.10814 4.8682 9.10798C5.20331 9.10773 5.53842 9.10775 5.87353 9.10791C6.18307 9.10806 6.49261 9.1081 6.80215 9.10803C6.82265 9.10802 6.84315 9.10802 6.86428 9.10802C6.9475 9.108 7.03073 9.10798 7.11396 9.10796C7.89524 9.10778 8.67652 9.10794 9.45781 9.10826C10.1525 9.10854 10.8471 9.10851 11.5418 9.10823C12.3216 9.10792 13.1014 9.10779 13.8813 9.10797C13.9643 9.10799 14.0474 9.10801 14.1305 9.10803C14.1612 9.10804 14.1612 9.10804 14.1925 9.10804C14.5019 9.10811 14.8113 9.10803 15.1207 9.10788C15.4724 9.10772 15.8241 9.10776 16.1757 9.10808C16.3553 9.10823 16.5349 9.10829 16.7145 9.1081C16.8787 9.10792 17.0429 9.10802 17.207 9.10833C17.2667 9.1084 17.3263 9.10836 17.3859 9.10822C17.4665 9.10804 17.5471 9.10822 17.6276 9.1085C17.6512 9.10836 17.6748 9.10822 17.6991 9.10808C17.8591 9.10918 17.8591 9.10918 17.9246 9.17461C17.9319 9.23155 17.9319 9.23155 17.9319 9.30274C17.9321 9.32982 17.9323 9.35691 17.9324 9.38481C17.9323 9.41476 17.9321 9.44471 17.932 9.47557C17.9321 9.50724 17.9322 9.5389 17.9323 9.57152C17.9325 9.67833 17.9323 9.78514 17.9322 9.89195C17.9322 9.96823 17.9323 10.0445 17.9325 10.1208C17.9327 10.3069 17.9327 10.493 17.9325 10.6792C17.9324 10.8304 17.9324 10.9816 17.9324 11.1328C17.9324 11.1543 17.9324 11.1758 17.9324 11.1979C17.9325 11.2415 17.9325 11.2852 17.9325 11.3288C17.9327 11.7385 17.9325 12.1482 17.9322 12.5579C17.9319 12.9097 17.9319 13.2615 17.9322 13.6133C17.9325 14.0215 17.9327 14.4297 17.9325 14.8378C17.9325 14.8813 17.9324 14.9248 17.9324 14.9683C17.9324 14.9897 17.9324 15.0111 17.9324 15.0332C17.9323 15.1843 17.9324 15.3354 17.9326 15.4865C17.9327 15.6897 17.9326 15.8929 17.9323 16.0961C17.9322 16.1709 17.9322 16.2457 17.9323 16.3205C17.9325 16.4222 17.9323 16.5238 17.932 16.6255C17.9321 16.6555 17.9323 16.6854 17.9324 16.7163C17.9323 16.7434 17.9321 16.7704 17.9319 16.7984C17.9319 16.8218 17.9319 16.8453 17.9319 16.8695C17.9246 16.9265 17.9246 16.9265 17.8658 16.9852C17.7855 16.991 17.7081 16.9931 17.6276 16.9926C17.6026 16.9927 17.5776 16.9928 17.5518 16.9929C17.467 16.9931 17.3822 16.9929 17.2973 16.9927C17.2363 16.9927 17.1752 16.9928 17.1142 16.9929C16.9457 16.9932 16.7772 16.9931 16.6087 16.9929C16.4273 16.9928 16.2459 16.993 16.0644 16.9931C15.7293 16.9934 15.3942 16.9933 15.0591 16.9932C14.7496 16.993 14.44 16.993 14.1305 16.9931C14.11 16.9931 14.0895 16.9931 14.0684 16.9931C13.9851 16.9931 13.9019 16.9931 13.8187 16.9931C13.0374 16.9933 12.2561 16.9932 11.4748 16.9928C10.7802 16.9926 10.0855 16.9926 9.39084 16.9929C8.61102 16.9932 7.8312 16.9933 7.05138 16.9931C6.9683 16.9931 6.88522 16.9931 6.80215 16.9931C6.77146 16.9931 6.77146 16.9931 6.74016 16.9931C6.43075 16.993 6.12135 16.9931 5.81195 16.9932C5.46027 16.9934 5.10859 16.9933 4.75691 16.993C4.57731 16.9929 4.39771 16.9928 4.21811 16.993C4.05394 16.9932 3.88978 16.9931 3.72562 16.9928C3.66598 16.9927 3.60635 16.9927 3.54672 16.9929C3.46614 16.9931 3.38557 16.9929 3.305 16.9926C3.26964 16.9928 3.26964 16.9928 3.23357 16.993C3.07352 16.9919 3.07352 16.9919 3.00809 16.9265C3.00073 16.8695 3.00073 16.8695 3.0007 16.7984C3.00055 16.7713 3.00039 16.7442 3.00024 16.7163C3.00037 16.6863 3.0005 16.6564 3.00063 16.6255C3.00054 16.5939 3.00045 16.5622 3.00036 16.5296C3.00012 16.4228 3.00031 16.316 3.00049 16.2091C3.00041 16.1329 3.00031 16.0566 3.00018 15.9803C2.99992 15.7942 2.99997 15.6081 3.00014 15.4219C3.00028 15.2707 3.0003 15.1195 3.00023 14.9683C3.00022 14.9468 3.00021 14.9253 3.0002 14.9032C3.00019 14.8595 3.00017 14.8159 3.00015 14.7722C2.99998 14.3626 3.00017 13.9529 3.00049 13.5432C3.00075 13.1914 3.0007 12.8396 3.00043 12.4878C3.00012 12.0796 3 11.6714 3.00018 11.2633C3.00019 11.2198 3.00021 11.1763 3.00023 11.1328C3.00025 11.1007 3.00025 11.1007 3.00026 11.0679C3.00031 10.9168 3.00022 10.7657 3.00009 10.6146C2.9999 10.4114 3.00003 10.2082 3.00037 10.005C3.00045 9.9302 3.00043 9.85542 3.0003 9.78063C3.00014 9.67894 3.00034 9.57726 3.00063 9.47557C3.0005 9.44562 3.00037 9.41567 3.00024 9.38481C3.00039 9.35773 3.00054 9.33064 3.0007 9.30274C3.00071 9.27925 3.00072 9.25575 3.00073 9.23155C3.01853 9.0939 3.11866 9.10887 3.23357 9.10808ZM3.36045 9.46825C3.36045 9.66204 3.36045 9.85584 3.36045 10.0555C8.05033 10.0555 12.7402 10.0555 17.5722 10.0555C17.5722 9.86171 17.5722 9.66791 17.5722 9.46825C12.8823 9.46825 8.19244 9.46825 3.36045 9.46825ZM3.36045 10.4079C3.36045 10.9117 3.36045 11.4156 3.36045 11.9347C3.51548 11.9832 3.67052 12.0316 3.83026 12.0816C4.03947 12.2045 4.03947 12.2045 4.12779 12.2645C4.36655 12.4119 4.62526 12.4251 4.89421 12.3691C5.07466 12.3174 5.23103 12.2251 5.3865 12.1219C5.60746 11.9814 5.84648 11.9482 6.10406 11.9513C6.14478 11.9517 6.14478 11.9517 6.18633 11.9521C6.4711 11.9595 6.66596 12.0393 6.90874 12.1814C7.20508 12.3545 7.45689 12.448 7.80437 12.3701C7.96202 12.321 8.10136 12.2421 8.24379 12.1599C8.26563 12.1474 8.28747 12.1348 8.30997 12.1219C8.32878 12.1107 8.34759 12.0994 8.36697 12.0878C8.57381 11.9874 8.76336 11.9484 8.99266 11.9513C9.01849 11.9516 9.04431 11.9518 9.07092 11.9521C9.41207 11.9614 9.66576 12.0842 9.95456 12.2552C10.2043 12.4031 10.5045 12.4212 10.787 12.3551C10.9415 12.2958 11.0802 12.2094 11.2204 12.1224C11.543 11.929 11.9188 11.9299 12.2841 11.9745C12.4682 12.0215 12.6323 12.1255 12.7946 12.2218C13.0737 12.3868 13.3733 12.4291 13.6917 12.356C13.8295 12.3039 13.9518 12.2287 14.078 12.1531C14.4397 11.9403 14.8257 11.9093 15.2379 11.9823C15.4379 12.0422 15.6082 12.1488 15.7808 12.2635C16.0263 12.4108 16.2806 12.4247 16.5555 12.3671C16.6952 12.3286 16.8119 12.2647 16.9327 12.1857C17.1533 12.0437 17.2952 12.0139 17.5722 11.9347C17.5722 11.4309 17.5722 10.927 17.5722 10.4079C12.8823 10.4079 8.19244 10.4079 3.36045 10.4079ZM5.42504 12.5228C5.05367 12.744 4.65936 12.786 4.23354 12.7106C4.04545 12.6471 3.87218 12.5387 3.70268 12.4365C3.68372 12.4252 3.66477 12.414 3.64525 12.4024C3.62019 12.3871 3.62019 12.3871 3.59463 12.3716C3.51985 12.3355 3.51985 12.3355 3.36045 12.3165C3.36045 13.7409 3.36045 15.1653 3.36045 16.6328C8.05033 16.6328 12.7402 16.6328 17.5722 16.6328C17.5722 15.2084 17.5722 13.784 17.5722 12.3165C17.3816 12.3585 17.3816 12.3585 17.2219 12.4356C17.203 12.4469 17.1841 12.4582 17.1646 12.4699C17.1453 12.4816 17.126 12.4934 17.1061 12.5055C16.7192 12.7285 16.3364 12.7945 15.8913 12.7093C15.7158 12.6507 15.5554 12.5536 15.3977 12.458C15.1284 12.2957 14.871 12.2607 14.5662 12.3246C14.425 12.3635 14.3081 12.4293 14.1848 12.507C13.8247 12.7326 13.439 12.7945 13.018 12.7161C12.7959 12.6596 12.605 12.5518 12.419 12.4207C12.1862 12.2764 11.925 12.2682 11.6636 12.3224C11.4951 12.3708 11.3461 12.4513 11.2041 12.5532C10.8639 12.7641 10.4545 12.7797 10.068 12.7082C9.88306 12.6525 9.73297 12.5589 9.5735 12.4519C9.32185 12.2954 9.04375 12.2635 8.75741 12.3225C8.57642 12.3738 8.41986 12.4664 8.26409 12.5697C8.04311 12.7103 7.80413 12.7434 7.54653 12.7404C7.51949 12.7402 7.49245 12.7399 7.46459 12.7397C7.14182 12.7316 6.93163 12.628 6.6654 12.4519C6.2479 12.1883 5.82455 12.2805 5.42504 12.5228Z" fill="#484848"/>
<path d="M9.75473 3.00142C9.78741 3.00098 9.78741 3.00098 9.82076 3.00054C10.5922 2.99241 11.282 3.08822 12.0253 3.30297C12.2075 3.35555 12.3905 3.40317 12.575 3.44703C12.5991 3.45287 12.6233 3.45872 12.6482 3.46474C13.2099 3.59663 13.8102 3.56947 14.3716 3.44886C14.4088 3.44103 14.446 3.43319 14.4843 3.42512C14.8141 3.34601 15.1624 3.22483 15.452 3.04581C15.5565 2.9855 15.6328 2.99867 15.7517 3.00842C15.8203 3.07704 15.8193 3.09126 15.8202 3.18448C15.8162 3.34431 15.7702 3.47879 15.7132 3.62688C15.7027 3.65461 15.6923 3.68235 15.6815 3.71093C15.3586 4.55195 14.9338 5.34915 14.3423 6.03282C14.3226 6.05576 14.3029 6.07869 14.2826 6.10233C14.2158 6.17841 14.1474 6.25264 14.078 6.32645C14.0626 6.34281 14.0473 6.35916 14.0315 6.37601C13.6371 6.79239 13.2017 7.13795 12.6979 7.41289C12.6703 7.42802 12.6703 7.42802 12.6421 7.44347C11.8483 7.8727 10.9791 8.07215 10.0791 8.06989C10.0432 8.06986 10.0432 8.06986 10.0065 8.06984C9.65019 8.06874 9.30954 8.05595 8.96881 7.94142C8.94943 7.93497 8.93005 7.92852 8.91008 7.92188C8.18516 7.6718 7.56796 7.2185 7.20702 6.53199C7.08256 6.25647 6.98853 5.98468 7.00148 5.68046C6.97303 5.67501 6.97303 5.67501 6.94401 5.66945C6.45651 5.56275 6.00752 5.33539 5.59205 5.06384C5.56984 5.04942 5.54763 5.03501 5.52475 5.02016C5.45766 4.97584 5.3917 4.93025 5.32594 4.88399C5.30546 4.87029 5.28498 4.8566 5.26387 4.84249C5.13012 4.74452 5.13012 4.74452 5.10769 4.65049C5.10584 4.58691 5.10584 4.58691 5.12224 4.47657C5.18096 4.41785 5.18096 4.41785 5.28006 4.39766C5.44518 4.40181 5.54689 4.50766 5.67085 4.60664C6.05957 4.91451 6.53184 5.12027 7.00148 5.26938C7.00367 5.24905 7.00587 5.22873 7.00813 5.20778C7.09295 4.57664 7.45099 4.03761 7.94565 3.64571C8.45906 3.25853 9.10832 3.00847 9.75473 3.00142ZM8.05855 4.06549C8.03724 4.08347 8.01593 4.10145 7.99397 4.11997C7.6624 4.42549 7.41104 4.88416 7.38446 5.33602C7.38384 5.36117 7.38384 5.36117 7.3832 5.38683C7.94244 5.54784 8.53387 5.63726 9.11562 5.6511C9.14616 5.652 9.14616 5.652 9.17732 5.65292C10.1903 5.68003 11.1958 5.51293 12.1502 5.1749C12.2602 5.14247 12.3493 5.1412 12.463 5.15192C12.4924 5.18129 12.4924 5.18129 12.4953 5.23554C12.4943 5.29576 12.4933 5.35598 12.4924 5.41619C11.6249 5.83732 10.5689 5.97243 9.6148 6.00346C9.58458 6.00448 9.58458 6.00448 9.55375 6.00553C8.96491 6.02272 8.37912 5.95891 7.80059 5.85377C7.66181 5.8287 7.52352 5.81185 7.3832 5.79791C7.46147 6.20492 7.63507 6.54715 7.91174 6.85499C7.92661 6.87259 7.94149 6.89019 7.95681 6.90832C8.43826 7.43902 9.20073 7.66131 9.89326 7.70352C11.2051 7.75672 12.4493 7.2641 13.432 6.41454C13.4608 6.3899 13.4896 6.36526 13.5193 6.33987C13.6474 6.22756 13.7664 6.11193 13.8759 5.98132C13.9167 5.9326 13.9587 5.88478 14.0011 5.83748C14.4443 5.3397 14.7841 4.75545 15.0727 4.15725C15.0835 4.13491 15.0944 4.11258 15.1056 4.08956C15.1811 3.92906 15.235 3.76668 15.2819 3.59568C15.1904 3.61274 15.1033 3.6334 15.0152 3.66335C13.9826 4.00658 12.9865 3.98125 11.9481 3.67918C11.5025 3.55033 11.0473 3.42801 10.5838 3.39014C10.5611 3.38821 10.5384 3.38629 10.5151 3.3843C9.60934 3.31146 8.76706 3.46745 8.05855 4.06549Z" fill="#484848"/>
<path d="M5.34271 14.4082C5.448 14.4828 5.52358 14.5563 5.59206 14.6656C5.6041 14.6838 5.61614 14.7021 5.62854 14.7209C5.74153 14.9258 5.74624 15.1724 5.70952 15.3996C5.63902 15.6221 5.52708 15.8033 5.3278 15.9282C5.30955 15.9402 5.29131 15.9523 5.27251 15.9647C5.06757 16.0776 4.82098 16.0824 4.59372 16.0456C4.37126 15.9751 4.19005 15.8632 4.06518 15.6639C4.05314 15.6457 4.04111 15.6274 4.02871 15.6086C3.91572 15.4037 3.91101 15.1571 3.94773 14.9298C4.01823 14.7074 4.13016 14.5262 4.32945 14.4013C4.34769 14.3893 4.36594 14.3772 4.38473 14.3648C4.68333 14.2002 5.05725 14.2426 5.34271 14.4082ZM4.35881 14.906C4.30542 15.0562 4.29891 15.2221 4.35078 15.3741C4.4271 15.5177 4.52821 15.6127 4.68181 15.6639C4.88397 15.6855 5.01668 15.668 5.18098 15.5465C5.31671 15.4 5.3368 15.2849 5.33399 15.0913C5.32156 14.9441 5.25972 14.8538 5.15162 14.7592C4.86029 14.5467 4.57775 14.6665 4.35881 14.906Z" fill="#484848"/>
<path d="M12.1549 12.9988C12.2602 13.0734 12.3358 13.1468 12.4043 13.2561C12.4163 13.2744 12.4284 13.2926 12.4408 13.3114C12.5538 13.5164 12.5585 13.763 12.5218 13.9902C12.4513 14.2127 12.3393 14.3939 12.14 14.5188C12.1218 14.5308 12.1035 14.5428 12.0848 14.5552C11.8798 14.6682 11.6332 14.6729 11.406 14.6362C11.1835 14.5657 11.0023 14.4538 10.8774 14.2545C10.8654 14.2362 10.8533 14.218 10.8409 14.1992C10.728 13.9943 10.7232 13.7477 10.76 13.5204C10.8305 13.298 10.9424 13.1167 11.1417 12.9919C11.1599 12.9798 11.1782 12.9678 11.197 12.9554C11.4956 12.7908 11.8695 12.8332 12.1549 12.9988ZM11.1711 13.4966C11.1177 13.6467 11.1112 13.8127 11.163 13.9646C11.2393 14.1083 11.3404 14.2033 11.494 14.2545C11.6962 14.2761 11.8289 14.2586 11.9932 14.137C12.1289 13.9906 12.149 13.8755 12.1462 13.6819C12.1338 13.5346 12.072 13.4444 11.9639 13.3497C11.6725 13.1373 11.39 13.2571 11.1711 13.4966Z" fill="#484848"/>
<path d="M14.546 14.7977C14.6806 14.9077 14.8149 15.0263 14.8708 15.1941C14.8902 15.4127 14.9049 15.6115 14.7679 15.7927C14.6449 15.9253 14.5216 16.035 14.3372 16.0566C14.1132 16.0607 13.9529 16.0551 13.7844 15.8988C13.6344 15.7481 13.5698 15.6238 13.5641 15.4107C13.5679 15.1995 13.6122 15.0575 13.755 14.9005C13.9577 14.7177 14.2994 14.6736 14.546 14.7977ZM13.9606 15.2822C13.94 15.3656 13.94 15.4337 13.9606 15.5171C14.019 15.6047 14.0599 15.6523 14.1643 15.6779C14.2795 15.6862 14.3326 15.6704 14.4304 15.6052C14.4955 15.5075 14.5114 15.4543 14.5031 15.3391C14.4774 15.2348 14.4299 15.1938 14.3423 15.1354C14.1715 15.0934 14.0601 15.1328 13.9606 15.2822Z" fill="#484848"/>
<path d="M9.41521 15.0097C9.55734 15.0863 9.65207 15.1885 9.70288 15.3409C9.7224 15.5598 9.7218 15.7219 9.58543 15.8988C9.42687 16.0458 9.29622 16.0559 9.08671 16.0539C8.92396 16.0387 8.83413 15.973 8.72288 15.8529C8.61837 15.6962 8.62882 15.523 8.64581 15.3409C8.69276 15.197 8.7852 15.1012 8.91007 15.0179C9.06729 14.9655 9.25645 14.9579 9.41521 15.0097ZM9.02753 15.429C9.01774 15.5171 9.01774 15.5171 9.02753 15.6052C9.08288 15.6732 9.08288 15.6732 9.17434 15.6712C9.26581 15.6732 9.26581 15.6732 9.32116 15.6052C9.33095 15.5171 9.33095 15.5171 9.32116 15.429C9.26581 15.361 9.26581 15.361 9.17434 15.3629C9.08288 15.361 9.08288 15.361 9.02753 15.429Z" fill="#484848"/>
<path d="M16.6973 13.6002C16.8394 13.6769 16.9341 13.7791 16.9849 13.9315C17.0045 14.1504 17.0039 14.3125 16.8675 14.4894C16.7089 14.6363 16.5783 14.6465 16.3688 14.6445C16.206 14.6293 16.1162 14.5635 16.0049 14.4435C15.9004 14.2867 15.9109 14.1136 15.9279 13.9315C15.9748 13.7876 16.0673 13.6917 16.1921 13.6085C16.3493 13.5561 16.5385 13.5484 16.6973 13.6002ZM16.3096 14.0196C16.2998 14.1077 16.2998 14.1077 16.3096 14.1958C16.3649 14.2638 16.3649 14.2638 16.4564 14.2618C16.5479 14.2638 16.5479 14.2638 16.6032 14.1958C16.613 14.1077 16.613 14.1077 16.6032 14.0196C16.5479 13.9516 16.5479 13.9516 16.4564 13.9535C16.3649 13.9516 16.3649 13.9516 16.3096 14.0196Z" fill="#484848"/>
<path d="M7.53597 13.3653C7.6781 13.4419 7.77283 13.5441 7.82364 13.6966C7.84316 13.9154 7.84256 14.0775 7.70618 14.2545C7.54762 14.4014 7.41698 14.4116 7.20747 14.4095C7.04472 14.3944 6.95489 14.3286 6.84364 14.2086C6.73913 14.0518 6.74958 13.8787 6.76656 13.6966C6.81352 13.5526 6.90596 13.4568 7.03083 13.3736C7.18804 13.3212 7.37721 13.3135 7.53597 13.3653ZM7.14828 13.7847C7.1385 13.8727 7.1385 13.8727 7.14828 13.9608C7.20363 14.0288 7.20363 14.0288 7.2951 14.0269C7.38657 14.0288 7.38657 14.0288 7.44192 13.9608C7.4517 13.8727 7.4517 13.8727 7.44192 13.7847C7.38657 13.7167 7.38657 13.7167 7.2951 13.7186C7.20363 13.7167 7.20363 13.7167 7.14828 13.7847Z" fill="#484848"/>
<path d="M15.9866 15.6933C16.1925 15.6704 16.1925 15.6704 16.2821 15.741C16.319 15.8344 16.3073 15.8912 16.2802 15.9869C16.212 16.0552 16.1967 16.0543 16.1041 16.0548C16.0835 16.0553 16.0629 16.0558 16.0417 16.0563C16.0235 16.0528 16.0053 16.0493 15.9866 16.0456C15.9187 15.9437 15.9179 15.901 15.9279 15.7814C15.9473 15.7523 15.9666 15.7232 15.9866 15.6933Z" fill="#484848"/>
<path d="M11.5234 15.6933C11.7293 15.6704 11.7293 15.6704 11.8189 15.741C11.8558 15.8344 11.8441 15.8912 11.817 15.9869C11.7488 16.0552 11.7335 16.0543 11.6409 16.0548C11.6203 16.0553 11.5997 16.0558 11.5785 16.0563C11.5603 16.0528 11.5421 16.0493 11.5234 16.0456C11.4555 15.9437 11.4547 15.901 11.4647 15.7814C11.4841 15.7523 11.5034 15.7232 11.5234 15.6933Z" fill="#484848"/>
<path d="M6.82531 15.4583C7.03118 15.4355 7.03118 15.4355 7.12077 15.5061C7.15765 15.5995 7.14597 15.6563 7.11894 15.752C7.05066 15.8203 7.03535 15.8194 6.94276 15.8199C6.92217 15.8204 6.90158 15.8209 6.88036 15.8214C6.86219 15.8179 6.84403 15.8143 6.82531 15.8107C6.75738 15.7088 6.75661 15.6661 6.76658 15.5464C6.78596 15.5174 6.80534 15.4883 6.82531 15.4583Z" fill="#484848"/>
<path d="M9.40926 13.8141C9.61513 13.7912 9.61513 13.7912 9.70473 13.8618C9.74161 13.9552 9.72993 14.012 9.70289 14.1077C9.63461 14.176 9.6193 14.1751 9.52671 14.1756C9.50612 14.1761 9.48553 14.1766 9.46432 14.1771C9.44615 14.1736 9.42798 14.17 9.40926 14.1664C9.34133 14.0645 9.34056 14.0218 9.35053 13.9022C9.36991 13.8731 9.38929 13.844 9.40926 13.8141Z" fill="#484848"/>
<path d="M14.5772 13.3442C14.783 13.3213 14.783 13.3213 14.8726 13.3919C14.9095 13.4854 14.8978 13.5422 14.8708 13.6378C14.8025 13.7061 14.7872 13.7052 14.6946 13.7057C14.674 13.7062 14.6534 13.7067 14.6322 13.7072C14.6141 13.7037 14.5959 13.7002 14.5772 13.6966C14.5092 13.5947 14.5085 13.552 14.5184 13.4323C14.5378 13.4032 14.5572 13.3742 14.5772 13.3442Z" fill="#484848"/>
<path d="M4.47626 13.3442C4.68213 13.3213 4.68213 13.3213 4.77173 13.3919C4.80861 13.4854 4.79693 13.5422 4.76989 13.6378C4.70162 13.7061 4.68631 13.7052 4.59371 13.7057C4.57312 13.7062 4.55253 13.7067 4.53132 13.7072C4.51315 13.7037 4.49498 13.7002 4.47626 13.6966C4.40833 13.5947 4.40756 13.552 4.41754 13.4323C4.43691 13.4032 4.45629 13.3742 4.47626 13.3442Z" fill="#484848"/>
</svg>
