<svg width="20" height="20" viewBox="0 0 20 20" fill="none" xmlns="http://www.w3.org/2000/svg">
<path d="M14.4557 9.31488H8.65929C8.27109 9.31488 7.89878 9.4714 7.62428 9.75C7.34977 10.0286 7.19556 10.4065 7.19556 10.8005V16" stroke="#484848" stroke-width="1.5" stroke-linecap="round" stroke-linejoin="round"/>
<path d="M12.3187 11.5135L14.4119 9.38916C14.4392 9.36014 14.4544 9.32157 14.4544 9.28145C14.4544 9.24134 14.4392 9.20277 14.4119 9.17375L12.3187 7.05679" stroke="#484848" stroke-width="1.5" stroke-linecap="round" stroke-linejoin="round"/>
<path d="M7.19556 10.8004V3.00113" stroke="#484848" stroke-width="1.5" stroke-linecap="round" stroke-linejoin="round"/>
<path d="M9.39121 5.16267L7.29807 3.04572C7.28504 3.03131 7.26921 3.0198 7.25157 3.01193C7.23393 3.00406 7.21487 3 7.1956 3C7.17634 3 7.15728 3.00406 7.13964 3.01193C7.122 3.0198 7.10617 3.03131 7.09314 3.04572L5 5.16267" stroke="#484848" stroke-width="1.5" stroke-linecap="round" stroke-linejoin="round"/>
</svg>
