<svg width="20" height="20" viewBox="0 0 20 20" fill="none" xmlns="http://www.w3.org/2000/svg">
<path d="M16.6667 7.04175H3.33333C2.41286 7.04175 1.66666 7.78794 1.66666 8.70841V15.3751C1.66666 16.2956 2.41286 17.0417 3.33333 17.0417H16.6667C17.5871 17.0417 18.3333 16.2956 18.3333 15.3751V8.70841C18.3333 7.78794 17.5871 7.04175 16.6667 7.04175Z" stroke="#484848" stroke-linecap="round" stroke-linejoin="round"/>
<path fill-rule="evenodd" clip-rule="evenodd" d="M5.61666 17.0417V11.375C5.61666 11.3308 5.63422 11.2884 5.66548 11.2572C5.69673 11.2259 5.73913 11.2084 5.78333 11.2084H14C14.0442 11.2084 14.0866 11.2259 14.1178 11.2572C14.1491 11.2884 14.1667 11.3308 14.1667 11.375V17.0417" fill="#484848"/>
<path d="M5.61666 17.0417V11.375C5.61666 11.3308 5.63422 11.2884 5.66548 11.2572C5.69673 11.2259 5.73913 11.2084 5.78333 11.2084H14C14.0442 11.2084 14.0866 11.2259 14.1178 11.2572C14.1491 11.2884 14.1667 11.3308 14.1667 11.375V17.0417" stroke="#484848" stroke-linecap="round" stroke-linejoin="round"/>
<path d="M10 11.2084V17.0417" stroke="#484848" stroke-linecap="round" stroke-linejoin="round"/>
<path d="M3.49166 7.04172V4.54172C5.51002 3.50962 7.74279 2.96658 10.0097 2.95644C12.2766 2.94631 14.5142 3.46937 16.5417 4.48339L16.6667 4.54172V7.04172" fill="#484848"/>
<path d="M3.49166 7.04172V4.54172C5.51002 3.50962 7.74279 2.96658 10.0097 2.95644C12.2766 2.94631 14.5142 3.46937 16.5417 4.48339L16.6667 4.54172V7.04172" stroke="#484848" stroke-linecap="round" stroke-linejoin="round"/>
</svg>
