<svg width="20" height="20" viewBox="0 0 20 20" fill="none" xmlns="http://www.w3.org/2000/svg">
<path d="M2.5 11.8168H11.9667C12.3904 11.8171 12.8022 11.6765 13.1372 11.417C13.4721 11.1574 13.7112 10.7938 13.8167 10.3834L15.3667 4.23342C15.4218 4.02569 15.544 3.84198 15.7143 3.71087C15.8846 3.57976 16.0934 3.50859 16.3083 3.50842H18.2333" stroke="#484848" stroke-width="1.3" stroke-linecap="round" stroke-linejoin="round"/>
<path d="M11.55 11.8167L13.1583 17.1583" stroke="#484848" stroke-width="1.3" stroke-linecap="round" stroke-linejoin="round"/>
<path d="M2.5 3.50837H11.6667C11.7916 3.50584 11.9156 3.53146 12.0293 3.58334C12.1431 3.63521 12.2437 3.71201 12.3237 3.80805C12.4038 3.90408 12.4611 4.01689 12.4917 4.13812C12.5222 4.25935 12.525 4.38589 12.5 4.50837L11.6083 8.8167C11.5694 9.00777 11.4646 9.17912 11.3124 9.30093C11.1601 9.42274 10.97 9.4873 10.775 9.48337H3.59167C3.39314 9.48626 3.2001 9.41817 3.04733 9.29136C2.89455 9.16455 2.79206 8.98737 2.75833 8.7917L1.925 4.1167C1.91164 4.03672 1.917 3.95473 1.94065 3.87716C1.9643 3.79959 2.00559 3.72855 2.06129 3.66962C2.117 3.61068 2.1856 3.56546 2.26171 3.53748C2.33783 3.5095 2.41939 3.49954 2.5 3.50837Z" stroke="#484848" stroke-width="1.3" stroke-linecap="round" stroke-linejoin="round"/>
<path d="M4.16667 17.3917C5.08714 17.3917 5.83333 16.6455 5.83333 15.725C5.83333 14.8045 5.08714 14.0583 4.16667 14.0583C3.24619 14.0583 2.5 14.8045 2.5 15.725C2.5 16.6455 3.24619 17.3917 4.16667 17.3917Z" stroke="#484848" stroke-width="1.3" stroke-linecap="round" stroke-linejoin="bevel"/>
</svg>
