<svg width="20" height="20" viewBox="0 0 20 20" fill="none" xmlns="http://www.w3.org/2000/svg">
<path d="M16.225 17.5H3.775C3.52398 17.4992 3.27639 17.4418 3.0507 17.3319C2.82502 17.222 2.62707 17.0625 2.47163 16.8654C2.31619 16.6683 2.20729 16.4387 2.15304 16.1936C2.09879 15.9485 2.1006 15.6943 2.15833 15.45L4.16667 7.11671C4.25175 6.7564 4.45439 6.43468 4.74259 6.2023C5.0308 5.96993 5.38817 5.84012 5.75833 5.83337H14.2417C14.6118 5.84012 14.9692 5.96993 15.2574 6.2023C15.5456 6.43468 15.7482 6.7564 15.8333 7.11671L17.8167 15.45C17.874 15.6923 17.8763 15.9443 17.8234 16.1876C17.7705 16.4308 17.6639 16.6591 17.5112 16.8558C17.3585 17.0524 17.1638 17.2123 16.9412 17.3238C16.7186 17.4353 16.4739 17.4955 16.225 17.5Z" fill="#484848" stroke="#484848" stroke-width="1.5" stroke-linecap="round" stroke-linejoin="round"/>
<path d="M6.3 5.83333L7.05 4.31667C7.32799 3.77258 7.75018 3.31536 8.27044 2.99497C8.7907 2.67459 9.38901 2.50336 10 2.5C10.611 2.50336 11.2093 2.67459 11.7296 2.99497C12.2498 3.31536 12.672 3.77258 12.95 4.31667L13.7 5.83333" stroke="#484848" stroke-width="1.5" stroke-linecap="round" stroke-linejoin="round"/>
</svg>
