<svg width="20" height="20" viewBox="0 0 20 20" fill="none" xmlns="http://www.w3.org/2000/svg">
<path d="M7 6.11121C8.06087 6.11121 9.07828 6.43898 9.82843 7.02243C10.5786 7.60588 11 8.3972 11 9.22232V10.6223C11 10.6636 10.9789 10.7031 10.9414 10.7323C10.9039 10.7615 10.853 10.7779 10.8 10.7779H3.2C3.14696 10.7779 3.09609 10.7615 3.05858 10.7323C3.02107 10.7031 3 10.6636 3 10.6223V9.22232C3 8.3972 3.42143 7.60588 4.17157 7.02243C4.92172 6.43898 5.93913 6.11121 7 6.11121Z" fill="#484848" stroke="#484848" stroke-linecap="round" stroke-linejoin="round"/>
<path d="M7 6.11111V4.55556C7 4.143 7.21071 3.74733 7.58579 3.45561C7.96086 3.16389 8.46957 3 9 3H15C15.5304 3 16.0391 3.16389 16.4142 3.45561C16.7893 3.74733 17 4.143 17 4.55556V17" stroke="#484848" stroke-linecap="round" stroke-linejoin="round"/>
<path d="M4 13.1112V14.2779" stroke="#484848" stroke-linecap="round" stroke-linejoin="round"/>
<path d="M7 13.1112V15.4445" stroke="#484848" stroke-linecap="round" stroke-linejoin="round"/>
<path d="M10 13.1112V14.2779" stroke="#484848" stroke-linecap="round" stroke-linejoin="round"/>
</svg>
