<svg width="20" height="20" viewBox="0 0 20 20" fill="none" xmlns="http://www.w3.org/2000/svg">
<g clip-path="url(#clip0_111_270)">
<path d="M5.34062 3.81211C5.14921 4.42188 4.69804 4.88398 4.07187 5.10547C3.97616 5.14102 3.91054 5.17656 3.92148 5.1875C3.93241 5.19844 4.01171 5.22852 4.09374 5.25586C4.66796 5.43633 5.17929 5.96406 5.35429 6.54648C5.37343 6.61211 5.39531 6.66406 5.40624 6.66406C5.41718 6.66406 5.44726 6.60117 5.4746 6.52188C5.66874 5.92578 6.10898 5.47188 6.68593 5.26953C6.79531 5.22852 6.88281 5.18477 6.87734 5.17109C6.8746 5.15742 6.79257 5.11914 6.69687 5.08633C6.11445 4.88125 5.66054 4.41094 5.47187 3.81211C5.44452 3.72734 5.41445 3.65625 5.40624 3.65625C5.39804 3.65625 5.36796 3.72734 5.34062 3.81211Z" fill="#484848"/>
<path d="M14.5281 3.81211C14.3367 4.42188 13.8855 4.88398 13.2594 5.10547C13.1637 5.14102 13.098 5.17656 13.109 5.1875C13.1199 5.19844 13.1992 5.22852 13.2812 5.25586C13.8555 5.43633 14.3668 5.96406 14.5418 6.54648C14.5609 6.61211 14.5828 6.66406 14.5937 6.66406C14.6047 6.66406 14.6348 6.60117 14.6621 6.52188C14.8562 5.92578 15.2965 5.47188 15.8734 5.26953C15.9828 5.22852 16.0703 5.18477 16.0648 5.17109C16.0621 5.15742 15.9801 5.11914 15.8844 5.08633C15.3019 4.88125 14.848 4.41094 14.6594 3.81211C14.632 3.72734 14.6019 3.65625 14.5937 3.65625C14.5855 3.65625 14.5555 3.72734 14.5281 3.81211Z" fill="#484848"/>
<path d="M9.93437 5.56211C9.74296 6.17188 9.29179 6.63398 8.66562 6.85547C8.56991 6.89102 8.50429 6.92656 8.51523 6.9375C8.52616 6.94844 8.60546 6.97852 8.68749 7.00586C9.26171 7.18633 9.77304 7.71406 9.94804 8.29648C9.96718 8.36211 9.98906 8.41406 9.99999 8.41406C10.0109 8.41406 10.041 8.35117 10.0684 8.27188C10.2625 7.67578 10.7027 7.22188 11.2797 7.01953C11.3891 6.97852 11.4766 6.93477 11.4711 6.92109C11.4684 6.90742 11.3863 6.86914 11.2906 6.83633C10.7082 6.63125 10.2543 6.16094 10.0656 5.56211C10.0383 5.47734 10.0082 5.40625 9.99999 5.40625C9.99179 5.40625 9.96171 5.47734 9.93437 5.56211Z" fill="#484848"/>
<path d="M3.86405 10.2324C3.71913 10.2844 3.63163 10.3527 3.53319 10.4895L3.45116 10.607L3.44296 11.0691L3.43475 11.5312H9.99999H16.5652L16.557 11.0691L16.5488 10.607L16.4668 10.4867C16.3711 10.3527 16.2426 10.2598 16.1004 10.2188C16.0348 10.2023 13.9348 10.1914 9.98632 10.1914C4.89218 10.1941 3.95428 10.1996 3.86405 10.2324Z" fill="#484848"/>
<path d="M3.4375 13.2949C3.4375 14.4543 3.44297 14.6758 3.48125 14.8262L3.525 15.0039H3.63164C3.7957 15.0039 4.09648 14.9328 4.47383 14.8016C5.28867 14.5227 5.83555 14.5227 6.69141 14.8125C7.19727 14.982 7.3668 15.0148 7.78516 15.0148C8.20625 15.0148 8.37305 14.982 8.87891 14.8098C9.7375 14.5199 10.2543 14.5199 11.1211 14.8125C11.6297 14.982 11.7965 15.0148 12.2148 15.0148C12.6359 15.0148 12.8027 14.982 13.3086 14.8098C14.1672 14.5199 14.684 14.5199 15.5508 14.8098C15.9473 14.9438 16.1523 14.9957 16.3574 15.0094L16.4668 15.0176L16.5133 14.8535C16.5516 14.7113 16.557 14.5172 16.5598 13.3141L16.5625 11.9414H10H3.4375V13.2949ZM5.94219 12.5047C6.01602 12.5484 6.11172 12.6387 6.1582 12.7043C6.23477 12.8109 6.24023 12.8383 6.24023 13.0488C6.24023 13.2594 6.23477 13.2867 6.1582 13.3934C6.11172 13.459 6.01328 13.5492 5.93945 13.5957C5.82734 13.6641 5.78086 13.6777 5.625 13.6777C5.46914 13.6777 5.42266 13.6641 5.31055 13.5957C5.10547 13.4699 5.0125 13.3195 5.00156 13.0953C4.99336 12.9723 5.0043 12.8766 5.02891 12.8164C5.18477 12.4473 5.61406 12.3023 5.94219 12.5047ZM9.00469 12.5047C9.07852 12.5484 9.17422 12.6387 9.2207 12.7043C9.29727 12.8109 9.30273 12.8383 9.30273 13.0488C9.30273 13.2594 9.29727 13.2867 9.2207 13.3934C9.17422 13.459 9.07578 13.5492 9.00195 13.5957C8.88984 13.6641 8.84336 13.6777 8.6875 13.6777C8.53164 13.6777 8.48516 13.6641 8.37305 13.5957C8.16797 13.4699 8.075 13.3195 8.06406 13.0953C8.05586 12.9723 8.0668 12.8766 8.09141 12.8164C8.24727 12.4473 8.67656 12.3023 9.00469 12.5047ZM12.7453 12.4637C12.8438 12.5402 12.8438 12.6824 12.7453 12.759C12.7043 12.7918 12.6523 12.8164 12.625 12.8164C12.532 12.8164 12.4336 12.7098 12.4336 12.6113C12.4336 12.5129 12.532 12.4062 12.625 12.4062C12.6523 12.4062 12.7043 12.4309 12.7453 12.4637ZM15.8078 12.4637C15.9062 12.5402 15.9062 12.6824 15.8078 12.759C15.7668 12.7918 15.7148 12.8164 15.6875 12.8164C15.5945 12.8164 15.4961 12.7098 15.4961 12.6113C15.4961 12.5129 15.5945 12.4062 15.6875 12.4062C15.7148 12.4062 15.7668 12.4309 15.8078 12.4637ZM11.6297 12.9422C11.7035 12.9859 11.7992 13.0762 11.8457 13.1418C11.9223 13.2484 11.9277 13.2758 11.9277 13.4863C11.9277 13.6969 11.9223 13.7242 11.8457 13.8309C11.7992 13.8965 11.7008 13.9867 11.627 14.0332C11.5148 14.1016 11.4684 14.1152 11.3125 14.1152C11.1566 14.1152 11.1102 14.1016 10.998 14.0332C10.793 13.9074 10.7 13.757 10.6891 13.5328C10.6809 13.4098 10.6918 13.3141 10.7164 13.2539C10.8723 12.8848 11.3016 12.7398 11.6297 12.9422ZM14.6922 12.9422C14.766 12.9859 14.8617 13.0762 14.9082 13.1418C14.9848 13.2484 14.9902 13.2758 14.9902 13.4863C14.9902 13.6969 14.9848 13.7242 14.9082 13.8309C14.8617 13.8965 14.7633 13.9867 14.6895 14.0332C14.5773 14.1016 14.5309 14.1152 14.375 14.1152C14.2191 14.1152 14.1727 14.1016 14.0605 14.0332C13.8555 13.9074 13.7625 13.757 13.7516 13.5328C13.7434 13.4098 13.7543 13.3141 13.7789 13.2539C13.9348 12.8848 14.3641 12.7398 14.6922 12.9422ZM4.43281 13.7762C4.53125 13.8527 4.53125 13.9949 4.43281 14.0715C4.3918 14.1043 4.33984 14.1289 4.3125 14.1289C4.21953 14.1289 4.12109 14.0223 4.12109 13.9238C4.12109 13.8254 4.21953 13.7188 4.3125 13.7188C4.33984 13.7188 4.3918 13.7434 4.43281 13.7762ZM7.49531 13.7762C7.54727 13.8172 7.56641 13.8582 7.56641 13.9238C7.56641 14.0223 7.46797 14.1289 7.375 14.1289C7.28203 14.1289 7.18359 14.0223 7.18359 13.9238C7.18359 13.8254 7.28203 13.7188 7.375 13.7188C7.40234 13.7188 7.4543 13.7434 7.49531 13.7762Z" fill="#484848"/>
<path d="M5.47734 12.8738C5.41992 12.9176 5.40625 12.9531 5.40625 13.0488C5.40625 13.1445 5.41992 13.1801 5.47734 13.2238C5.51836 13.2566 5.58398 13.2812 5.625 13.2812C5.66602 13.2812 5.73164 13.2566 5.77266 13.2238C5.83008 13.1801 5.84375 13.1445 5.84375 13.0488C5.84375 12.9531 5.83008 12.9176 5.77266 12.8738C5.73164 12.841 5.66602 12.8164 5.625 12.8164C5.58398 12.8164 5.51836 12.841 5.47734 12.8738Z" fill="#484848"/>
<path d="M8.53984 12.8738C8.48242 12.9176 8.46875 12.9531 8.46875 13.0488C8.46875 13.1445 8.48242 13.1801 8.53984 13.2238C8.58086 13.2566 8.64648 13.2812 8.6875 13.2812C8.72852 13.2812 8.79414 13.2566 8.83516 13.2238C8.89258 13.1801 8.90625 13.1445 8.90625 13.0488C8.90625 12.9531 8.89258 12.9176 8.83516 12.8738C8.79414 12.841 8.72852 12.8164 8.6875 12.8164C8.64648 12.8164 8.58086 12.841 8.53984 12.8738Z" fill="#484848"/>
<path d="M11.1648 13.3113C11.1074 13.3551 11.0938 13.3906 11.0938 13.4863C11.0938 13.582 11.1074 13.6176 11.1648 13.6613C11.2059 13.6941 11.2715 13.7188 11.3125 13.7188C11.3535 13.7188 11.4191 13.6941 11.4602 13.6613C11.5176 13.6176 11.5312 13.582 11.5312 13.4863C11.5312 13.3906 11.5176 13.3551 11.4602 13.3113C11.4191 13.2785 11.3535 13.2539 11.3125 13.2539C11.2715 13.2539 11.2059 13.2785 11.1648 13.3113Z" fill="#484848"/>
<path d="M14.2273 13.3113C14.1699 13.3551 14.1562 13.3906 14.1562 13.4863C14.1562 13.582 14.1699 13.6176 14.2273 13.6613C14.2684 13.6941 14.334 13.7188 14.375 13.7188C14.416 13.7188 14.4816 13.6941 14.5227 13.6613C14.5801 13.6176 14.5938 13.582 14.5938 13.4863C14.5938 13.3906 14.5801 13.3551 14.5227 13.3113C14.4816 13.2785 14.416 13.2539 14.375 13.2539C14.334 13.2539 14.2684 13.2785 14.2273 13.3113Z" fill="#484848"/>
<path d="M5.32422 15.0203C5.28594 15.0258 5.17109 15.0449 5.06445 15.0613C4.96055 15.0777 4.73359 15.1406 4.56133 15.2008C4.38633 15.2609 4.13477 15.332 3.99805 15.3566C3.85312 15.384 3.75195 15.4168 3.75195 15.4359C3.75195 15.4988 4.01719 15.7969 4.18398 15.9227C4.39453 16.0812 4.59688 16.1824 4.85938 16.2672L5.06445 16.3301H10H14.9355L15.1406 16.2672C15.5453 16.1387 15.8816 15.9199 16.1223 15.6273C16.1988 15.5316 16.2617 15.4469 16.2617 15.4359C16.2617 15.4141 16.2398 15.4086 15.9746 15.3566C15.8844 15.3402 15.6328 15.2664 15.4141 15.1953C14.6703 14.9465 14.1727 14.9465 13.4453 15.1926C13.273 15.2527 13.0543 15.3211 12.9641 15.343C12.5949 15.4387 11.9824 15.4441 11.5613 15.3566C11.4766 15.3402 11.2168 15.2664 10.9844 15.1898C10.2215 14.9465 9.75117 14.9492 8.97187 15.209C8.47695 15.3703 8.20625 15.4195 7.79883 15.4168C7.39414 15.4168 7.07148 15.3621 6.66406 15.2227C6.4918 15.1652 6.27305 15.0969 6.17734 15.0723C6.01055 15.0312 5.46094 14.9957 5.32422 15.0203Z" fill="#484848"/>
</g>
<defs>
<clipPath id="clip0_111_270">
<rect width="14" height="14" fill="white" transform="translate(3 3)"/>
</clipPath>
</defs>
</svg>
