<svg width="20" height="20" viewBox="0 0 20 20" fill="none" xmlns="http://www.w3.org/2000/svg">
<path d="M2.00009 4.33124C3.97837 4.33124 5.95664 4.33124 7.99487 4.33124C7.99487 4.67537 7.98975 5.0151 7.9721 5.35821C7.96964 5.40775 7.96719 5.45729 7.96476 5.50683C7.95819 5.63969 7.95147 5.77255 7.94471 5.90541C7.93761 6.04535 7.93065 6.1853 7.92367 6.32524C7.91193 6.55999 7.9001 6.79474 7.8882 7.02948C7.8745 7.29992 7.86094 7.57036 7.84747 7.84081C7.83443 8.10239 7.8213 8.36396 7.80813 8.62553C7.80255 8.73624 7.79701 8.84695 7.79148 8.95766C7.78497 9.0882 7.77837 9.21873 7.77171 9.34926C7.76816 9.41933 7.76468 9.48942 7.7612 9.5595C7.74804 9.8157 7.72978 10.0707 7.70421 10.326C7.6753 10.3267 7.64638 10.3275 7.61659 10.3282C7.48381 10.3317 7.35104 10.3357 7.21827 10.3396C7.15006 10.3413 7.15006 10.3413 7.08046 10.343C6.667 10.356 6.29234 10.3721 5.97844 10.668C5.79946 10.8673 5.72882 11.079 5.7278 11.343C5.72756 11.3673 5.72731 11.3915 5.72707 11.4165C5.72639 11.4971 5.72648 11.5776 5.72657 11.6582C5.72625 11.7162 5.72587 11.7742 5.72545 11.8322C5.72445 11.9893 5.72411 12.1463 5.7239 12.3033C5.72355 12.4676 5.7226 12.6319 5.72172 12.7961C5.72013 13.107 5.71909 13.4179 5.71825 13.7287C5.71709 14.149 5.71507 14.5692 5.7131 14.9894C5.71003 15.6512 5.70808 16.313 5.70595 16.9748C4.69883 16.9748 3.69171 16.9748 2.65406 16.9748C2.6323 16.8007 2.61255 16.6353 2.60362 16.4615C2.60139 16.4192 2.59917 16.3769 2.59688 16.3334C2.59343 16.2648 2.59343 16.2648 2.58991 16.1948C2.58734 16.1452 2.58477 16.0956 2.58218 16.0459C2.57512 15.9101 2.5682 15.7743 2.5613 15.6385C2.55382 15.4918 2.54622 15.3451 2.53864 15.1984C2.52381 14.9112 2.5091 14.6241 2.49443 14.3369C2.4825 14.1034 2.47053 13.87 2.45853 13.6366C2.45682 13.6033 2.45511 13.5701 2.45335 13.5358C2.44987 13.4683 2.4464 13.4008 2.44293 13.3332C2.41223 12.7362 2.38164 12.1392 2.3511 11.5421C2.32149 10.9631 2.29178 10.384 2.26198 9.80494C2.22951 9.17414 2.1971 8.54334 2.16478 7.91253C2.16133 7.84524 2.15788 7.77794 2.15443 7.71065C2.15189 7.66098 2.15189 7.66098 2.14929 7.61031C2.13734 7.37723 2.12536 7.14414 2.11336 6.91106C2.09874 6.6269 2.08417 6.34274 2.06969 6.05858C2.0623 5.91365 2.05488 5.76872 2.04739 5.6238C2.04053 5.49102 2.03375 5.35824 2.02702 5.22545C2.02343 5.15491 2.01976 5.08437 2.01608 5.01383C2.01395 4.97147 2.01183 4.92911 2.00963 4.88546C2.00778 4.84921 2.00592 4.81296 2.00401 4.77561C1.99906 4.62756 2.00009 4.47937 2.00009 4.33124Z" fill="#484848"/>
<path d="M12.6453 5.67542C14.4078 5.67542 16.1703 5.67542 17.9861 5.67542C17.9885 7.41726 17.9905 9.1591 17.9917 10.901C17.9918 11.1065 17.992 11.312 17.9921 11.5175C17.9921 11.5584 17.9922 11.5993 17.9922 11.6415C17.9927 12.3045 17.9935 12.9675 17.9945 13.6305C17.9956 14.3105 17.9962 14.9905 17.9964 15.6705C17.9965 16.0903 17.997 16.5101 17.9979 16.9299C17.9985 17.2175 17.9986 17.5052 17.9985 17.7928C17.9984 17.9589 17.9985 18.125 17.9991 18.2911C17.9997 18.4431 17.9997 18.595 17.9993 18.747C17.9993 18.8021 17.9994 18.8571 17.9997 18.9122C18.0002 18.9869 17.9999 19.0616 17.9995 19.1363C17.9996 19.1779 17.9996 19.2194 17.9997 19.2622C17.9802 19.4213 17.9162 19.5151 17.8045 19.6269C17.7102 19.6356 17.7102 19.6356 17.5894 19.6352C17.5443 19.6351 17.4993 19.6351 17.4528 19.6351C17.4034 19.6348 17.354 19.6344 17.3046 19.634C17.2542 19.6339 17.2038 19.6338 17.1534 19.6337C17.0207 19.6334 16.888 19.6327 16.7553 19.6319C16.6199 19.6311 16.4845 19.6308 16.3491 19.6304C16.0833 19.6297 15.8176 19.6284 15.5519 19.6269C15.5578 19.6038 15.5637 19.5807 15.5697 19.5569C15.5944 19.4078 15.5936 19.2623 15.5936 19.1114C15.5937 19.0776 15.5938 19.0439 15.594 19.0092C15.5944 18.8961 15.5945 18.783 15.5946 18.67C15.5949 18.5889 15.5951 18.5079 15.5954 18.4268C15.5961 18.1606 15.5965 17.8944 15.5969 17.6282C15.597 17.5365 15.5972 17.4448 15.5973 17.3532C15.5979 16.9718 15.5985 16.5904 15.5987 16.209C15.5988 16.1101 15.5989 16.0112 15.5989 15.9123C15.599 15.8755 15.599 15.8755 15.599 15.8378C15.5993 15.4399 15.6002 15.0419 15.6014 14.6439C15.6026 14.2349 15.6032 13.8259 15.6034 13.4169C15.6035 13.1875 15.6038 12.958 15.6047 12.7285C15.6055 12.5126 15.6057 12.2967 15.6053 12.0807C15.6053 12.0016 15.6055 11.9225 15.606 11.8434C15.6067 11.7351 15.6064 11.6268 15.6059 11.5185C15.6063 11.4874 15.6067 11.4564 15.6071 11.4244C15.6042 11.144 15.5165 10.9129 15.3657 10.6779C14.6969 10.0527 13.2985 10.3378 12.6453 10.3259C12.6453 8.79125 12.6453 7.25658 12.6453 5.67542Z" fill="#484848"/>
<path d="M6.32361 13.9591C9.18911 13.9591 12.0546 13.9591 15.007 13.9591C15.007 15.3979 15.007 16.8366 15.007 18.3189C12.1415 18.3189 9.27595 18.3189 6.32361 18.3189C6.32361 16.8802 6.32361 15.4415 6.32361 13.9591Z" fill="#484848"/>
<path d="M13.3022 1.00202C13.3511 1.00183 13.3999 1.00157 13.4487 1.00123C13.5811 1.00056 13.7134 1.00103 13.8457 1.00174C13.9843 1.00234 14.1229 1.00202 14.2614 1.00183C14.4941 1.00167 14.7267 1.00224 14.9593 1.00326C15.2283 1.00443 15.4972 1.00442 15.7661 1.0038C16.0249 1.00322 16.2837 1.00347 16.5425 1.00409C16.6527 1.00434 16.7628 1.0043 16.8729 1.00403C17.0025 1.00375 17.1321 1.00419 17.2618 1.00519C17.332 1.00556 17.4023 1.00521 17.4725 1.00485C17.5353 1.00554 17.5353 1.00554 17.5993 1.00625C17.6538 1.0064 17.6538 1.0064 17.7094 1.00656C17.8312 1.03011 17.8736 1.07421 17.9498 1.17028C17.9834 1.27111 17.9906 1.33049 17.9905 1.43445C17.9906 1.4818 17.9906 1.4818 17.9907 1.53012C17.9905 1.56478 17.9904 1.59945 17.9903 1.63517C17.9903 1.67227 17.9903 1.70938 17.9903 1.74761C17.9903 1.86792 17.99 1.98822 17.9897 2.10852C17.9896 2.18272 17.9896 2.25692 17.9896 2.33111C17.9894 2.60647 17.9889 2.88183 17.9884 3.15718C17.9877 3.7724 17.9869 4.38761 17.9861 5.02147C16.2237 5.02147 14.4612 5.02147 12.6453 5.02147C12.6416 4.39576 12.6379 3.77006 12.634 3.12539C12.6323 2.92788 12.6307 2.73037 12.629 2.52688C12.6282 2.28555 12.6282 2.28555 12.628 2.17254C12.6277 2.09367 12.6271 2.01481 12.6262 1.93595C12.6248 1.81643 12.6247 1.69695 12.6247 1.57742C12.6241 1.54234 12.6234 1.50725 12.6227 1.4711C12.6239 1.31994 12.6336 1.22781 12.7078 1.09403C12.8985 0.983526 13.0857 1 13.3022 1.00202Z" fill="#484848"/>
<path d="M6.86222 10.9743C6.89583 10.9742 6.92944 10.974 6.96407 10.9738C7.0774 10.9734 7.19072 10.9731 7.30405 10.9729C7.38502 10.9726 7.46599 10.9723 7.54696 10.972C7.81345 10.9711 8.07993 10.9705 8.34642 10.97C8.43803 10.9698 8.52965 10.9696 8.62126 10.9694C9.00221 10.9686 9.38317 10.9679 9.76412 10.9675C9.863 10.9674 9.96188 10.9673 10.0608 10.9672C10.0976 10.9672 10.0976 10.9672 10.1352 10.9671C10.5334 10.9667 10.9317 10.9654 11.3299 10.9639C11.7386 10.9624 12.1473 10.9616 12.556 10.9613C12.7855 10.9612 13.0151 10.9608 13.2446 10.9596C13.4605 10.9585 13.6763 10.9583 13.8922 10.9587C13.9715 10.9587 14.0508 10.9584 14.1301 10.9578C14.2383 10.957 14.3464 10.9572 14.4545 10.9578C14.5018 10.9571 14.5018 10.9571 14.55 10.9563C14.7078 10.9584 14.77 10.9651 14.8984 11.0653C15.3542 11.673 15.007 12.5819 15.007 13.3415C12.1415 13.3415 9.27595 13.3415 6.32361 13.3415C6.32361 11.1979 6.32361 11.1979 6.46894 11.0162C6.59076 10.9553 6.72823 10.9744 6.86222 10.9743Z" fill="#484848"/>
<path d="M2.65403 17.6287C3.66116 17.6287 4.66828 17.6287 5.70592 17.6287C5.71791 18.2881 5.7299 18.9475 5.74225 19.6269C5.03323 19.6342 5.03323 19.6342 4.73085 19.6358C4.52457 19.6369 4.3183 19.6382 4.11202 19.6406C3.94571 19.6426 3.77941 19.6437 3.61308 19.6442C3.54965 19.6445 3.48622 19.6451 3.42279 19.6461C3.33388 19.6474 3.24504 19.6476 3.15613 19.6475C3.12994 19.6482 3.10376 19.6489 3.07678 19.6495C2.93601 19.6481 2.8769 19.6308 2.76571 19.5416C2.66574 19.4138 2.64949 19.3246 2.64991 19.1671C2.64991 19.1325 2.64992 19.0978 2.64992 19.0621C2.65011 19.0258 2.6503 18.9895 2.65049 18.9521C2.65052 18.9186 2.65056 18.8852 2.6506 18.8507C2.65079 18.7257 2.6513 18.6007 2.65176 18.4757C2.65251 18.1961 2.65326 17.9166 2.65403 17.6287Z" fill="#484848"/>
<path d="M6.32359 18.9366C9.18909 18.9366 12.0546 18.9366 15.0069 18.9366C15.0069 19.3968 15.0069 19.3968 14.8979 19.5542C14.7539 19.6503 14.6296 19.6372 14.4623 19.6366C14.4285 19.6368 14.3947 19.6369 14.3599 19.6371C14.2461 19.6376 14.1323 19.6375 14.0185 19.6374C13.9371 19.6377 13.8557 19.6379 13.7743 19.6382C13.5528 19.6388 13.3314 19.639 13.11 19.639C12.9253 19.6391 12.7407 19.6394 12.556 19.6396C12.1454 19.6402 11.7348 19.6404 11.3242 19.6404C11.2872 19.6404 11.2872 19.6404 11.2495 19.6404C11.2249 19.6404 11.2002 19.6404 11.1748 19.6403C10.7748 19.6403 10.3748 19.641 9.97476 19.642C9.5642 19.6431 9.15364 19.6436 8.74308 19.6435C8.51251 19.6435 8.28195 19.6437 8.05139 19.6445C7.83462 19.6452 7.61786 19.6452 7.40109 19.6447C7.32141 19.6446 7.24173 19.6448 7.16206 19.6452C7.05352 19.6458 6.94501 19.6454 6.83647 19.6449C6.80474 19.6452 6.773 19.6456 6.74031 19.646C6.52715 19.6435 6.52715 19.6435 6.41415 19.5576C6.25556 19.3352 6.32359 19.3227 6.32359 18.9366Z" fill="#484848"/>
</svg>
