<svg width="20" height="20" viewBox="0 0 20 20" fill="none" xmlns="http://www.w3.org/2000/svg">
<path d="M12.9763 1.00088C13.0226 1.00069 13.0688 1.0005 13.1165 1.0003C13.2428 0.999806 13.3691 0.999996 13.4954 1.00034C13.6279 1.00062 13.7604 1.00036 13.8929 1.00019C14.1154 0.999993 14.3379 1.00025 14.5603 1.00077C14.8171 1.00137 15.0739 1.00117 15.3307 1.00057C15.5517 1.00008 15.7726 1.00001 15.9935 1.00029C16.1253 1.00046 16.257 1.00049 16.3888 1.00013C16.5357 0.999752 16.6826 1.00027 16.8296 1.00088C16.8946 1.00055 16.8946 1.00055 16.9611 1.00021C17.2558 1.00247 17.4648 1.03888 17.695 1.23764C17.7291 1.26589 17.7291 1.26589 17.7639 1.29472C18.0284 1.62011 17.9961 1.99749 17.9943 2.39667C17.9944 2.46776 17.9947 2.53886 17.995 2.60995C17.9957 2.80496 17.9955 2.99997 17.9951 3.19498C17.9948 3.40543 17.9954 3.61588 17.9959 3.82633C17.9966 4.23847 17.9966 4.65061 17.9963 5.06276C17.9961 5.39773 17.9962 5.73269 17.9964 6.06766C17.9964 6.11533 17.9965 6.163 17.9965 6.21212C17.9965 6.28468 17.9966 6.35725 17.9966 6.42981C17.9971 7.1043 17.9973 7.77879 17.9969 8.45328C17.9969 8.4914 17.9969 8.4914 17.9968 8.5303C17.9967 8.7367 17.9966 8.9431 17.9964 9.14949C17.9959 9.95461 17.9962 10.7597 17.9972 11.5648C17.9983 12.4697 17.9989 13.3745 17.9985 14.2794C17.9985 14.3759 17.9984 14.4724 17.9984 14.5689C17.9984 14.6164 17.9984 14.6639 17.9984 14.7128C17.9983 15.0473 17.9986 15.3819 17.9992 15.7164C17.9998 16.1241 17.9998 16.5319 17.999 16.9396C17.9986 17.1476 17.9984 17.3556 17.9991 17.5637C17.9997 17.7541 17.9995 17.9446 17.9986 18.1351C17.9984 18.2039 17.9986 18.2728 17.999 18.3417C18.0036 19.0735 18.0036 19.0735 17.733 19.3679C17.5345 19.56 17.3167 19.64 17.0446 19.6404C17.0208 19.6405 16.997 19.6407 16.9725 19.6409C16.8931 19.6414 16.8137 19.6411 16.7343 19.6408C16.6767 19.641 16.6191 19.6412 16.5614 19.6414C16.4033 19.642 16.2452 19.642 16.087 19.6418C15.9164 19.6417 15.7458 19.6422 15.5751 19.6426C15.2409 19.6434 14.9067 19.6436 14.5724 19.6435C14.3008 19.6435 14.0291 19.6436 13.7574 19.6439C13.6792 19.6439 13.6009 19.644 13.5226 19.6441C13.4642 19.6441 13.4642 19.6441 13.4046 19.6442C12.6679 19.6449 11.9313 19.6449 11.1946 19.6446C10.5208 19.6444 9.84694 19.6452 9.17311 19.6464C8.48115 19.6476 7.7892 19.6481 7.09724 19.648C6.70878 19.6479 6.32034 19.6481 5.93188 19.649C5.60116 19.6498 5.27045 19.6499 4.93973 19.6492C4.77103 19.6489 4.60235 19.6488 4.43365 19.6496C4.2791 19.6503 4.12458 19.6501 3.97003 19.6493C3.91424 19.6491 3.85844 19.6493 3.80265 19.6498C3.45423 19.6526 3.15214 19.6307 2.88475 19.3809C2.64026 19.1203 2.61416 18.8593 2.61576 18.5142C2.61516 18.4266 2.61456 18.3391 2.61395 18.2515C2.61381 18.2049 2.61367 18.1584 2.61353 18.1103C2.61274 17.855 2.60939 17.5997 2.60583 17.3443C2.60546 17.3174 2.6051 17.2905 2.60472 17.2628C2.5957 16.6314 2.56807 16.0012 2.5368 15.3705C2.53541 15.3423 2.53402 15.3142 2.53258 15.2851C2.51508 14.9306 2.49699 14.5761 2.47865 14.2216C2.46233 13.9059 2.44651 13.5902 2.43072 13.2745C2.40252 12.711 2.37401 12.1476 2.34527 11.5842C2.34357 11.5509 2.34187 11.5175 2.34012 11.4832C2.33757 11.4332 2.33757 11.4332 2.33496 11.3821C2.31067 10.9059 2.28646 10.4297 2.26234 9.95347C2.26063 9.91975 2.25892 9.88603 2.25716 9.85129C2.2286 9.28736 2.2002 8.72343 2.17187 8.15949C2.15452 7.81429 2.13702 7.46909 2.1193 7.1239C2.10721 6.88816 2.09525 6.65241 2.08338 6.41665C2.07657 6.2813 2.06969 6.14595 2.06264 6.0106C2.04599 5.69044 2.03108 5.37026 2.01863 5.04989C2.01696 5.01071 2.0153 4.97153 2.01358 4.93116C2.00938 4.82399 2.00649 4.71688 2.00413 4.60966C2.00282 4.57904 2.00152 4.54843 2.00017 4.51689C1.99855 4.36766 2.00726 4.30331 2.09293 4.17691C2.22531 4.08632 2.30232 4.08194 2.46159 4.0817C2.50082 4.08128 2.50082 4.08128 2.54083 4.08084C2.62828 4.08012 2.71567 4.08069 2.80312 4.08126C2.86588 4.08102 2.92864 4.08069 2.9914 4.0803C3.16175 4.07947 3.33207 4.07979 3.50242 4.08037C3.68067 4.08083 3.85892 4.0804 4.03717 4.08012C4.33652 4.07979 4.63586 4.08022 4.9352 4.08109C5.2813 4.08208 5.62739 4.08176 5.97349 4.08075C6.27062 4.07993 6.56775 4.07981 6.86489 4.08029C7.04237 4.08057 7.21983 4.08061 7.39731 4.08001C7.56416 4.07948 7.73099 4.07985 7.89784 4.0809C7.95908 4.08114 8.02032 4.08107 8.08156 4.08067C8.16517 4.08017 8.24869 4.0808 8.33229 4.0817C8.40245 4.08181 8.40245 4.08181 8.47404 4.08191C8.62787 4.11086 8.68127 4.162 8.77525 4.28653C8.7965 4.36175 8.7965 4.36175 8.79469 4.43752C8.79425 4.48151 8.79425 4.48151 8.79379 4.5264C8.79249 4.55848 8.79119 4.59056 8.78984 4.62361C8.78912 4.65831 8.7884 4.69301 8.78765 4.72876C8.7847 4.84799 8.78012 4.96708 8.77525 5.08625C8.7728 5.15107 8.7728 5.15107 8.77031 5.2172C8.75775 5.54165 8.74208 5.8659 8.72563 6.19017C8.71857 6.3302 8.71171 6.47024 8.70482 6.61028C8.69326 6.84449 8.68155 7.07868 8.66974 7.31287C8.6561 7.58333 8.64271 7.8538 8.62944 8.12427C8.61661 8.38595 8.60361 8.64762 8.59053 8.90929C8.58499 9.02016 8.5795 9.13103 8.57407 9.24191C8.56768 9.37195 8.56115 9.50198 8.55451 9.63201C8.55095 9.70239 8.54753 9.77277 8.54411 9.84315C8.54086 9.90594 8.54086 9.90594 8.53755 9.97001C8.53573 10.0064 8.5339 10.0427 8.53203 10.0802C8.52367 10.1753 8.52367 10.1753 8.48774 10.3207C9.59072 10.3207 10.6937 10.3207 11.8301 10.3207C11.8292 10.0616 11.8282 9.80257 11.8273 9.53565C11.8244 8.70602 11.8224 7.87639 11.8209 7.04675C11.8207 6.91781 11.8205 6.78887 11.8202 6.65993C11.8202 6.63426 11.8201 6.60859 11.8201 6.58215C11.8193 6.16692 11.8179 5.75169 11.8162 5.33647C11.8146 4.91018 11.8136 4.48389 11.8132 4.05759C11.813 3.81824 11.8124 3.5789 11.8111 3.33956C11.8099 3.11418 11.8095 2.88881 11.8098 2.66342C11.8097 2.5808 11.8094 2.49819 11.8087 2.41558C11.8078 2.30251 11.808 2.18949 11.8085 2.07642C11.808 2.04396 11.8075 2.0115 11.8069 1.97805C11.81 1.70978 11.8918 1.47286 12.0729 1.27224C12.3462 1.01372 12.6166 0.99905 12.9763 1.00088ZM12.541 1.7403C12.452 1.8944 12.4531 2.01642 12.4566 2.19202C12.4566 2.22664 12.4566 2.26125 12.4566 2.29691C12.4567 2.40868 12.4581 2.5204 12.4595 2.63216C12.4597 2.70127 12.4599 2.77038 12.46 2.83949C12.461 3.09541 12.4635 3.35132 12.4658 3.60723C12.4695 4.17928 12.4732 4.75132 12.477 5.3407C14.0781 5.3407 15.6792 5.3407 17.3288 5.3407C17.3333 4.47251 17.3333 4.47251 17.3378 3.58679C17.3391 3.40403 17.3404 3.22127 17.3418 3.03298C17.3423 2.86916 17.3423 2.86916 17.3426 2.70534C17.3428 2.63238 17.3433 2.55941 17.344 2.48644C17.3451 2.37591 17.3452 2.26542 17.3452 2.15488C17.3459 2.10612 17.3459 2.10612 17.3467 2.05637C17.3465 2.02656 17.3463 1.99676 17.3461 1.96605C17.3463 1.92725 17.3463 1.92725 17.3465 1.88766C17.3204 1.77973 17.2711 1.73643 17.1851 1.6693C17.0958 1.64753 17.0958 1.64753 16.9971 1.65059C16.94 1.6499 16.94 1.6499 16.8818 1.64919C16.8195 1.64955 16.8195 1.64955 16.7559 1.64991C16.6901 1.64944 16.6901 1.64944 16.6229 1.64896C16.5026 1.64828 16.3823 1.64825 16.262 1.64857C16.1615 1.64876 16.0611 1.64849 15.9606 1.64823C15.7235 1.64761 15.4865 1.64774 15.2494 1.64835C15.0049 1.64896 14.7605 1.64839 14.516 1.64721C14.306 1.64624 14.0961 1.64598 13.8861 1.64628C13.7607 1.64646 13.6353 1.64638 13.51 1.64564C13.3701 1.64485 13.2303 1.64553 13.0905 1.64636C13.0283 1.64572 13.0283 1.64572 12.9649 1.64507C12.7949 1.64712 12.6881 1.65001 12.541 1.7403ZM2.66554 4.75909C2.72373 6.12107 2.72373 6.12107 2.7879 7.48273C2.79246 7.57551 2.79701 7.66828 2.80156 7.76106C2.81238 7.9814 2.82325 8.20175 2.83415 8.4221C2.84691 8.68027 2.85961 8.93845 2.87232 9.19662C2.895 9.65738 2.91772 10.1181 2.94048 10.5789C2.96245 11.0237 2.98437 11.4684 3.00625 11.9132C3.0303 12.402 3.05437 12.8907 3.07848 13.3795C3.08105 13.4317 3.08362 13.4839 3.0862 13.536C3.08746 13.5617 3.08873 13.5873 3.09003 13.6138C3.09887 13.7929 3.10769 13.9721 3.1165 14.1513C3.12836 14.3922 3.14025 14.6331 3.15217 14.874C3.15651 14.9619 3.16085 15.0498 3.16516 15.1378C3.17109 15.2585 3.17707 15.3791 3.18306 15.4998C3.18472 15.5339 3.18638 15.568 3.1881 15.6031C3.20303 15.9024 3.22209 16.2011 3.24057 16.5003C4.15379 16.5003 5.06702 16.5003 6.00791 16.5003C6.00868 15.9123 6.00868 15.9123 6.00946 15.3124C6.01018 15.0639 6.01094 14.8154 6.01191 14.5669C6.01344 14.1726 6.01479 13.7783 6.01494 13.3839C6.01505 13.0967 6.01579 12.8095 6.01727 12.5223C6.01804 12.3703 6.0185 12.2183 6.0182 12.0663C6.01792 11.9231 6.0185 11.7798 6.0197 11.6365C6.02 11.5842 6.01999 11.5318 6.01965 11.4794C6.01766 11.1404 6.04561 10.8532 6.27412 10.5895C6.47948 10.401 6.69736 10.3439 6.96691 10.3385C6.99208 10.3378 7.01725 10.3372 7.04318 10.3365C7.12262 10.3345 7.20206 10.3333 7.28152 10.3321C7.33578 10.3309 7.39004 10.3296 7.4443 10.3283C7.57647 10.3252 7.70864 10.3228 7.84082 10.3207C7.86695 10.1749 7.88335 10.0328 7.89064 9.8849C7.8928 9.84214 7.89497 9.79939 7.8972 9.75534C7.89942 9.70894 7.90165 9.66254 7.90394 9.61473C7.90641 9.56497 7.9089 9.51521 7.91139 9.46546C7.91811 9.33073 7.92468 9.19599 7.93121 9.06125C7.93808 8.91999 7.94509 8.77874 7.95207 8.63749C7.96379 8.40028 7.97541 8.16307 7.98696 7.92585C8.0003 7.65197 8.01378 7.37809 8.02732 7.10421C8.04177 6.81216 8.05612 6.52011 8.07044 6.22805C8.07456 6.14412 8.0787 6.06019 8.08285 5.97626C8.08937 5.84411 8.09582 5.71197 8.10223 5.57982C8.1057 5.50846 8.10924 5.4371 8.11277 5.36574C8.11484 5.32289 8.1169 5.28003 8.11903 5.23588C8.12084 5.19887 8.12265 5.16186 8.12451 5.12372C8.12873 5.00225 8.12834 4.88064 8.12834 4.75909C6.32562 4.75909 4.52289 4.75909 2.66554 4.75909ZM12.477 5.99501C12.477 7.42249 12.477 8.84997 12.477 10.3207C13.1649 10.3327 13.8528 10.3447 14.5615 10.3571C14.8432 10.4995 15.0058 10.6103 15.15 10.8887C15.2035 11.0941 15.2136 11.2934 15.213 11.5049C15.213 11.5358 15.2131 11.5667 15.2132 11.5986C15.2133 11.7019 15.2132 11.8052 15.2131 11.9085C15.2131 11.9827 15.2132 12.0568 15.2133 12.131C15.2134 12.3323 15.2134 12.5335 15.2132 12.7348C15.2132 12.9455 15.2132 13.1561 15.2133 13.3668C15.2134 13.7205 15.2133 14.0742 15.2131 14.428C15.2129 14.8369 15.213 15.2459 15.2132 15.6549C15.2133 16.006 15.2134 16.3571 15.2133 16.7082C15.2132 16.918 15.2132 17.1277 15.2133 17.3374C15.2134 17.5345 15.2133 17.7317 15.2131 17.9289C15.2131 18.0012 15.2131 18.0736 15.2132 18.1459C15.2133 18.2447 15.2132 18.3435 15.213 18.4422C15.2131 18.4852 15.2131 18.4852 15.2132 18.529C15.2127 18.6805 15.2018 18.8235 15.1725 18.9721C15.4565 18.9758 15.7405 18.9784 16.0245 18.9801C16.1211 18.9808 16.2177 18.9818 16.3144 18.9831C16.4532 18.9849 16.592 18.9857 16.7308 18.9863C16.7741 18.9871 16.8174 18.9878 16.8619 18.9886C16.9224 18.9886 16.9224 18.9886 16.984 18.9886C17.0195 18.989 17.0549 18.9893 17.0914 18.9896C17.2148 18.9666 17.2512 18.9253 17.3288 18.8267C17.3502 18.724 17.3502 18.724 17.3465 18.6084C17.3468 18.5635 17.3471 18.5185 17.3474 18.4721C17.347 18.4221 17.3466 18.3721 17.3461 18.3221C17.3462 18.269 17.3463 18.216 17.3465 18.1629C17.3468 18.017 17.3463 17.871 17.3455 17.725C17.3449 17.5677 17.3451 17.4103 17.3452 17.253C17.3453 16.9803 17.3449 16.7076 17.344 16.435C17.3429 16.0407 17.3425 15.6465 17.3423 15.2523C17.342 14.6127 17.3411 13.9731 17.3397 13.3335C17.3384 12.7121 17.3374 12.0907 17.3367 11.4693C17.3367 11.431 17.3367 11.3927 17.3366 11.3533C17.3364 11.1612 17.3363 10.9691 17.3361 10.777C17.3346 9.18302 17.3319 7.58902 17.3288 5.99501C15.7277 5.99501 14.1266 5.99501 12.477 5.99501ZM6.65482 11.1204C6.65482 11.7682 6.65482 12.416 6.65482 13.0834C9.27589 13.0834 11.897 13.0834 14.5974 13.0834C14.7203 12.0001 14.7203 12.0001 14.486 11.0191C14.3724 10.9457 14.2471 10.96 14.1165 10.9609C14.0854 10.9607 14.0543 10.9605 14.0222 10.9603C13.9176 10.9598 13.813 10.9601 13.7084 10.9603C13.6335 10.9601 13.5587 10.9599 13.4838 10.9596C13.2802 10.9589 13.0766 10.959 12.873 10.9592C12.7032 10.9593 12.5334 10.9591 12.3636 10.9588C11.9632 10.9583 11.5627 10.9584 11.1623 10.9588C10.7487 10.9592 10.3352 10.9587 9.92162 10.9577C9.56692 10.9569 9.21223 10.9567 8.85753 10.9569C8.64552 10.957 8.43353 10.9569 8.22152 10.9563C8.0222 10.9558 7.82288 10.9559 7.62356 10.9566C7.55031 10.9567 7.47705 10.9566 7.4038 10.9562C7.30399 10.9557 7.20421 10.9562 7.10439 10.9568C7.07524 10.9565 7.04609 10.9561 7.01605 10.9557C6.82237 10.9583 6.80204 10.9715 6.65482 11.1204ZM6.65482 13.7377C6.65482 15.0572 6.65482 16.3767 6.65482 17.7362C9.27589 17.7362 11.897 17.7362 14.5974 17.7362C14.5974 16.4167 14.5974 15.0972 14.5974 13.7377C11.9764 13.7377 9.35531 13.7377 6.65482 13.7377ZM3.27651 17.1546C3.27281 17.4208 3.2691 17.6869 3.26528 17.9611C3.26364 18.0449 3.26201 18.1286 3.26032 18.2149C3.2598 18.2815 3.25934 18.3482 3.25896 18.4148C3.25804 18.4492 3.25712 18.4836 3.25618 18.519C3.25616 18.5522 3.25613 18.5854 3.25611 18.6196C3.25571 18.6482 3.25531 18.6769 3.2549 18.7064C3.28852 18.837 3.35171 18.8908 3.45621 18.9721C3.57841 18.9983 3.57841 18.9983 3.71415 18.9928C3.73941 18.9928 3.76468 18.9928 3.79071 18.9928C3.87377 18.9927 3.95676 18.9913 4.0398 18.9899C4.09756 18.9895 4.15532 18.9893 4.21308 18.9891C4.36476 18.9884 4.51641 18.9866 4.66808 18.9846C4.85024 18.9824 5.03241 18.9816 5.21458 18.9805C5.49102 18.9788 5.7674 18.9753 6.04385 18.9721C6.03199 18.3723 6.02013 17.7726 6.00791 17.1546C5.10655 17.1546 4.20519 17.1546 3.27651 17.1546ZM6.65482 18.3905C6.65482 18.5345 6.65482 18.6784 6.65482 18.8267C6.80197 18.9756 6.82232 18.9888 7.01588 18.9916C7.04501 18.9913 7.07414 18.9909 7.10415 18.9906C7.13529 18.9908 7.16642 18.991 7.1985 18.9913C7.30302 18.9919 7.40751 18.9914 7.51203 18.9909C7.58689 18.9911 7.66174 18.9914 7.73659 18.9917C7.94005 18.9924 8.1435 18.9921 8.34695 18.9917C8.55966 18.9913 8.77237 18.9916 8.98508 18.9919C9.34232 18.9921 9.69955 18.9918 10.0568 18.9911C10.4701 18.9903 10.8833 18.9906 11.2966 18.9914C11.6512 18.992 12.0057 18.9921 12.3603 18.9917C12.5721 18.9915 12.784 18.9915 12.9959 18.9919C13.1951 18.9924 13.3943 18.9921 13.5934 18.9912C13.6666 18.991 13.7398 18.9911 13.813 18.9914C13.9127 18.9918 14.0124 18.9913 14.1122 18.9906C14.1559 18.9911 14.1559 18.9911 14.2004 18.9916C14.3303 18.9897 14.4028 18.9838 14.507 18.9023C14.6296 18.7324 14.5974 18.6143 14.5974 18.3905C11.9764 18.3905 9.35531 18.3905 6.65482 18.3905Z" fill="#484848"/>
</svg>
