<svg width="20" height="20" viewBox="0 0 20 20" fill="none" xmlns="http://www.w3.org/2000/svg">
<path d="M5.24488 3.05202C5.21754 3.07939 5.12457 3.31751 5.03708 3.57753C4.85114 4.14136 4.74451 4.34664 4.52576 4.56287C4.32069 4.76541 4.09921 4.87489 3.54415 5.0528C3.30353 5.12944 3.08205 5.21702 3.05471 5.24439C2.98361 5.31556 2.98088 5.49894 3.05197 5.5701C3.07931 5.59747 3.3172 5.69053 3.57696 5.77812C4.15936 5.96971 4.32889 6.0573 4.5449 6.27352C4.76091 6.49249 4.87575 6.71419 5.05075 7.26434C5.12731 7.51067 5.21481 7.73511 5.24488 7.76521C5.31324 7.83364 5.49644 7.83638 5.56753 7.76521C5.59487 7.73784 5.68784 7.49972 5.77534 7.2397C5.96674 6.65671 6.05424 6.48701 6.27025 6.27352C6.48352 6.0573 6.65305 5.96971 7.23546 5.77812C7.49521 5.69053 7.7331 5.59747 7.76044 5.5701C7.83153 5.49894 7.8288 5.31556 7.76044 5.24713C7.7331 5.21976 7.49521 5.12396 7.23272 5.03911C6.6968 4.86121 6.57375 4.80373 6.37142 4.64224C6.12259 4.44518 5.98314 4.1961 5.78901 3.61585C5.69604 3.33393 5.59487 3.07939 5.56753 3.05202C5.49917 2.98359 5.31324 2.98359 5.24488 3.05202ZM5.45816 4.10031C5.52105 4.3138 5.70971 4.63677 5.87651 4.81741C6.06791 5.0309 6.38235 5.24439 6.62571 5.33198C6.72141 5.36756 6.8007 5.40041 6.8007 5.40862C6.8007 5.41683 6.71867 5.45241 6.6175 5.49073C6.11166 5.68232 5.64683 6.15583 5.47183 6.65945C5.44449 6.73882 5.41441 6.80451 5.40621 6.80451C5.398 6.80451 5.36246 6.72514 5.32691 6.6266C5.14918 6.12846 4.68982 5.67411 4.18397 5.49073C4.08827 5.45515 4.01171 5.4223 4.01171 5.41135C4.01171 5.40314 4.09101 5.36756 4.18671 5.33198C4.69255 5.15133 5.14918 4.6833 5.32965 4.16326C5.36519 4.06473 5.40074 3.98535 5.40894 3.98535C5.41714 3.98535 5.43902 4.03736 5.45816 4.10031Z" fill="#484848"/>
<path d="M14.4321 3.05204C14.4048 3.07941 14.3064 3.33122 14.2134 3.6104C14.0275 4.16876 13.9208 4.36309 13.6857 4.59026C13.4997 4.76817 13.2619 4.88313 12.7314 5.05282C12.4908 5.12946 12.2693 5.21705 12.242 5.24442C12.1709 5.31558 12.1681 5.49896 12.2392 5.57012C12.2666 5.5975 12.5045 5.69055 12.7642 5.77814C13.3494 5.97247 13.5161 6.05732 13.7349 6.27628C13.9509 6.49251 14.0575 6.70326 14.238 7.27257C14.3146 7.51343 14.4021 7.73513 14.4294 7.7625C14.5005 7.83366 14.6837 7.8364 14.7548 7.76524C14.7821 7.73787 14.8751 7.49974 14.9626 7.23972C15.154 6.65673 15.2415 6.48704 15.4575 6.27355C15.6708 6.05732 15.8403 5.96973 16.4227 5.77814C16.6825 5.69055 16.9204 5.5975 16.9477 5.57012C17.0188 5.49896 17.0161 5.31558 16.9477 5.24715C16.9176 5.21705 16.6825 5.12399 16.4254 5.04187C15.895 4.8667 15.761 4.80649 15.5587 4.64227C15.3099 4.4452 15.1704 4.19613 14.9763 3.61587C14.8833 3.33396 14.7821 3.07941 14.7548 3.05204C14.722 3.0192 14.6646 3.00004 14.5935 3.00004C14.5224 3.00004 14.465 3.0192 14.4321 3.05204ZM14.6454 4.10033C14.7083 4.31382 14.897 4.63679 15.0638 4.81744C15.2552 5.03093 15.5696 5.24442 15.813 5.332C15.9087 5.36758 15.988 5.40043 15.988 5.40864C15.988 5.41685 15.9059 5.45243 15.8048 5.49075C15.2989 5.68234 14.8341 6.15585 14.6591 6.65947C14.6317 6.73884 14.6017 6.80453 14.5935 6.80453C14.5853 6.80453 14.5497 6.72516 14.5142 6.62663C14.3364 6.12301 13.888 5.68234 13.3658 5.49075C13.2017 5.43054 13.1689 5.40864 13.2126 5.39222C13.6255 5.24168 13.888 5.07472 14.1259 4.81744C14.29 4.63679 14.4786 4.31382 14.5415 4.10033C14.5607 4.03738 14.5825 3.98537 14.5935 3.98537C14.6044 3.98537 14.6263 4.03738 14.6454 4.10033Z" fill="#484848"/>
<path d="M9.8385 4.80373C9.81116 4.8311 9.70999 5.08564 9.61702 5.36756C9.42289 5.94781 9.28344 6.19688 9.03462 6.39395C8.82954 6.55817 8.68736 6.62386 8.16237 6.79356C7.90808 6.87841 7.67567 6.96873 7.64559 6.99884C7.57723 7.06727 7.5745 7.25065 7.64559 7.32181C7.67293 7.34918 7.91082 7.44224 8.17058 7.52983C8.75572 7.72416 8.92251 7.80901 9.14399 8.03071C9.35726 8.2442 9.48031 8.49053 9.65804 9.0571C9.72913 9.28154 9.80842 9.48682 9.8385 9.51692C9.90686 9.58535 10.0901 9.58809 10.1612 9.51692C10.1885 9.48955 10.2815 9.25143 10.369 8.99141C10.5604 8.40842 10.6479 8.23872 10.8639 8.02523C11.0771 7.80901 11.2467 7.72142 11.8291 7.52983C12.0888 7.44224 12.3267 7.34918 12.3541 7.32181C12.4252 7.25065 12.4224 7.06727 12.3541 6.99884C12.324 6.96873 12.0888 6.87567 11.8263 6.79082C11.2631 6.60744 11.0853 6.51712 10.8748 6.3091C10.6615 6.09835 10.5549 5.89034 10.369 5.32924C10.2815 5.06922 10.1885 4.8311 10.1612 4.80373C10.0928 4.7353 9.90686 4.7353 9.8385 4.80373ZM10.0518 5.85202C10.1147 6.06551 10.3033 6.38848 10.4674 6.56912C10.667 6.78535 10.9678 6.99337 11.2139 7.08095C11.3123 7.11653 11.3943 7.15211 11.3943 7.16033C11.3943 7.16854 11.3068 7.20959 11.1975 7.25065C10.6861 7.44772 10.2404 7.90754 10.0654 8.41116C10.0381 8.49053 10.008 8.55622 9.99983 8.55622C9.99162 8.55622 9.95608 8.47685 9.92053 8.37831C9.7428 7.87469 9.29438 7.43403 8.77212 7.24244C8.60807 7.18222 8.57525 7.16033 8.619 7.1439C9.03188 6.99337 9.29438 6.82641 9.53226 6.56912C9.69632 6.38848 9.88499 6.06551 9.94787 5.85202C9.96701 5.78906 9.98889 5.73706 9.99983 5.73706C10.0108 5.73706 10.0326 5.78906 10.0518 5.85202Z" fill="#484848"/>
<path d="M3.71916 10.0588C3.43479 10.1629 3.22972 10.3517 3.08753 10.6364L3.01371 10.7869L3.0055 12.8397C2.9973 15.1169 2.99457 15.0676 3.17776 15.5275C3.39104 16.0585 3.80939 16.5128 4.32617 16.7728C4.40273 16.8111 4.56679 16.8796 4.6953 16.9206L4.92772 17H9.97251C14.8286 17 15.0255 16.9973 15.2087 16.948C15.7337 16.8057 16.1903 16.5019 16.5102 16.0749C16.7044 15.8176 16.8001 15.6315 16.9067 15.3167L16.986 15.0841V12.9355V10.7869L16.9067 10.6227C16.8028 10.4119 16.595 10.2039 16.3845 10.0999L16.2204 10.0205L10.0409 10.0151C4.06915 10.0096 3.85587 10.0096 3.71916 10.0588ZM16.1657 10.5159C16.3079 10.5926 16.4173 10.7021 16.4884 10.8416C16.5348 10.932 16.5458 11.0195 16.5567 11.3535L16.5704 11.7586H10.0163H3.46487V11.348C3.46487 10.9977 3.47307 10.921 3.51682 10.8334C3.61525 10.6391 3.79025 10.505 3.99806 10.4694C4.05821 10.4585 6.79525 10.453 10.0819 10.4557L16.0563 10.4585L16.1657 10.5159ZM16.554 13.5294C16.543 14.6735 16.5348 14.8925 16.4966 15.0485C16.4583 15.1935 16.4364 15.2346 16.3981 15.2346C16.2696 15.2346 15.9005 15.1443 15.5724 15.0293C15.0966 14.8678 14.856 14.824 14.4294 14.824C14.0275 14.824 13.7404 14.8706 13.3959 14.9937C12.9064 15.1662 12.7095 15.21 12.3514 15.2264C11.9221 15.2456 11.635 15.199 11.1729 15.0348C10.9869 14.9664 10.7655 14.8979 10.6834 14.8815C10.0928 14.7556 9.40651 14.8104 8.85144 15.0293C8.53427 15.1552 8.25537 15.2127 7.89991 15.2291C7.47062 15.2456 7.24367 15.21 6.74603 15.0403C6.22925 14.8651 6.0023 14.824 5.56481 14.824C5.15467 14.824 4.791 14.887 4.45742 15.0156C4.2168 15.1087 3.90236 15.1935 3.69181 15.2209L3.55236 15.2401L3.50862 15.0457C3.47307 14.8843 3.46487 14.6434 3.46487 13.5267V12.1965H10.0163H16.5677L16.554 13.5294ZM6.08433 15.3331C6.1937 15.3578 6.41518 15.4235 6.5765 15.4809C7.06321 15.6534 7.24914 15.6862 7.74405 15.6862C8.24716 15.6862 8.44403 15.6506 9.0155 15.4673C9.4694 15.3195 9.63619 15.2893 9.97524 15.2893C10.3116 15.2893 10.5795 15.3413 11.0416 15.4946C11.8811 15.7711 12.5209 15.7683 13.4041 15.4809C13.899 15.3195 14.0576 15.2893 14.4048 15.2893C14.7411 15.2893 15.0091 15.3413 15.4712 15.4919C15.6735 15.5603 15.9196 15.6287 16.0235 15.6479C16.1247 15.6671 16.2067 15.6917 16.2067 15.7026C16.2067 15.7136 16.1192 15.8149 16.0126 15.9298C15.6735 16.2938 15.2634 16.4936 14.7521 16.5484C14.4076 16.584 5.58942 16.584 5.2449 16.5484C4.73358 16.4936 4.31524 16.2856 3.97345 15.9134C3.87501 15.8066 3.79298 15.7109 3.79298 15.6999C3.79298 15.689 3.87501 15.6643 3.97892 15.6452C4.08008 15.626 4.33984 15.5521 4.55859 15.4782C5.19842 15.2647 5.57848 15.2291 6.08433 15.3331Z" fill="#484848"/>
<path d="M5.33785 12.6864C5.09997 12.7959 4.96872 13.0148 4.96872 13.2968C4.97145 13.6854 5.23395 13.9482 5.62495 13.9482C6.01869 13.9482 6.28119 13.6854 6.28119 13.2913C6.28119 13.0066 6.13627 12.7795 5.89291 12.6782C5.75073 12.618 5.47457 12.6235 5.33785 12.6864ZM5.76167 13.1544C5.79174 13.1845 5.81635 13.2448 5.81635 13.2913C5.81635 13.3378 5.79174 13.398 5.76167 13.4281C5.64409 13.5458 5.43355 13.4582 5.43355 13.2913C5.43355 13.1873 5.52105 13.0997 5.62495 13.0997C5.67144 13.0997 5.73159 13.1243 5.76167 13.1544Z" fill="#484848"/>
<path d="M8.40026 12.6864C8.16237 12.7959 8.03113 13.0148 8.03113 13.2968C8.03386 13.6854 8.29636 13.9482 8.68736 13.9482C9.0811 13.9482 9.34359 13.6854 9.34359 13.2913C9.34359 13.0066 9.19868 12.7795 8.95532 12.6782C8.81314 12.618 8.53697 12.6235 8.40026 12.6864ZM8.82408 13.1544C8.85415 13.1845 8.87876 13.2448 8.87876 13.2913C8.87876 13.3378 8.85415 13.398 8.82408 13.4281C8.794 13.4582 8.73384 13.4829 8.68736 13.4829C8.64088 13.4829 8.58072 13.4582 8.55065 13.4281C8.52057 13.398 8.49596 13.3378 8.49596 13.2913C8.49596 13.2448 8.52057 13.1845 8.55065 13.1544C8.58072 13.1243 8.64088 13.0997 8.68736 13.0997C8.73384 13.0997 8.794 13.1243 8.82408 13.1544Z" fill="#484848"/>
<path d="M12.4607 12.6891C12.4252 12.7247 12.406 12.7795 12.406 12.8534C12.406 12.9984 12.4799 13.0723 12.6248 13.0723C12.7697 13.0723 12.8435 12.9984 12.8435 12.8534C12.8435 12.7795 12.8244 12.7247 12.7888 12.6891C12.7533 12.6536 12.6986 12.6344 12.6248 12.6344C12.551 12.6344 12.4963 12.6536 12.4607 12.6891Z" fill="#484848"/>
<path d="M15.5231 12.6891C15.4876 12.7247 15.4684 12.7795 15.4684 12.8534C15.4684 12.9984 15.5423 13.0723 15.6872 13.0723C15.8321 13.0723 15.9059 12.9984 15.9059 12.8534C15.9059 12.7795 15.8868 12.7247 15.8512 12.6891C15.8157 12.6536 15.761 12.6344 15.6872 12.6344C15.6134 12.6344 15.5587 12.6536 15.5231 12.6891Z" fill="#484848"/>
<path d="M11.0252 13.1243C10.7873 13.2338 10.6561 13.4528 10.6561 13.7347C10.6588 14.1234 10.9213 14.3861 11.3123 14.3861C11.706 14.3861 11.9685 14.1234 11.9685 13.7292C11.9685 13.4446 11.8236 13.2174 11.5803 13.1161C11.4381 13.0559 11.1619 13.0614 11.0252 13.1243ZM11.449 13.5924C11.4791 13.6225 11.5037 13.6827 11.5037 13.7292C11.5037 13.7757 11.4791 13.836 11.449 13.8661C11.3314 13.9838 11.1209 13.8962 11.1209 13.7292C11.1209 13.6252 11.2084 13.5376 11.3123 13.5376C11.3588 13.5376 11.4189 13.5623 11.449 13.5924Z" fill="#484848"/>
<path d="M14.0876 13.1243C13.8498 13.2338 13.7185 13.4528 13.7185 13.7347C13.7212 14.1234 13.9837 14.3861 14.3747 14.3861C14.7685 14.3861 15.031 14.1234 15.031 13.7292C15.031 13.4446 14.8861 13.2174 14.6427 13.1161C14.5005 13.0559 14.2244 13.0614 14.0876 13.1243ZM14.5115 13.5924C14.5415 13.6225 14.5661 13.6827 14.5661 13.7292C14.5661 13.7757 14.5415 13.836 14.5115 13.8661C14.3939 13.9838 14.1833 13.8962 14.1833 13.7292C14.1833 13.6252 14.2708 13.5376 14.3747 13.5376C14.4212 13.5376 14.4814 13.5623 14.5115 13.5924Z" fill="#484848"/>
<path d="M4.14844 14.0029C4.11289 14.0385 4.09375 14.0932 4.09375 14.1671C4.09375 14.241 4.11289 14.2958 4.14844 14.3314C4.18398 14.3669 4.23867 14.3861 4.31249 14.3861C4.45741 14.3861 4.53124 14.3122 4.53124 14.1671C4.53124 14.0932 4.5121 14.0385 4.47655 14.0029C4.44101 13.9673 4.38632 13.9482 4.31249 13.9482C4.23867 13.9482 4.18398 13.9673 4.14844 14.0029Z" fill="#484848"/>
<path d="M7.21084 14.0029C7.1753 14.0385 7.15616 14.0932 7.15616 14.1671C7.15616 14.3122 7.22998 14.3861 7.3749 14.3861C7.44873 14.3861 7.50341 14.3669 7.53896 14.3314C7.57451 14.2958 7.59365 14.241 7.59365 14.1671C7.59365 14.0221 7.51982 13.9482 7.3749 13.9482C7.30108 13.9482 7.24639 13.9673 7.21084 14.0029Z" fill="#484848"/>
</svg>
