<svg width="20" height="20" viewBox="0 0 20 20" fill="none" xmlns="http://www.w3.org/2000/svg">
<path d="M13.8833 5.15002H6.66667C5.74619 5.15002 5 5.89622 5 6.81669V13.8167C5 14.7372 5.74619 15.4834 6.66667 15.4834H13.8833C14.8038 15.4834 15.55 14.7372 15.55 13.8167V6.81669C15.55 5.89622 14.8038 5.15002 13.8833 5.15002Z" stroke="#484848" stroke-linecap="round" stroke-linejoin="round"/>
<path d="M13.625 5.11667V4.14167C13.6797 3.63814 13.5364 3.13307 13.2253 2.73335C12.9143 2.33363 12.4599 2.07063 11.9583 2H8.58333C8.08179 2.07063 7.6274 2.33363 7.31633 2.73335C7.00527 3.13307 6.86194 3.63814 6.91667 4.14167V5.11667" stroke="#484848" stroke-linecap="round" stroke-linejoin="round"/>
<path d="M6.91667 15.5167V16.4834C6.86453 16.9837 7.00943 17.4846 7.32062 17.8798C7.6318 18.275 8.08476 18.5334 8.58333 18.6001H11.9583C12.4569 18.5334 12.9099 18.275 13.221 17.8798C13.5322 17.4846 13.6771 16.9837 13.625 16.4834V15.5167" stroke="#484848" stroke-linecap="round" stroke-linejoin="round"/>
</svg>
