<svg width="20" height="20" viewBox="0 0 20 20" fill="none" xmlns="http://www.w3.org/2000/svg">
<path d="M9.66666 16.3333C13.3486 16.3333 16.3333 13.3486 16.3333 9.66666C16.3333 5.98477 13.3486 3 9.66666 3C5.98477 3 3 5.98477 3 9.66666C3 13.3486 5.98477 16.3333 9.66666 16.3333Z" fill="#484848" stroke="#484848" stroke-linecap="round" stroke-linejoin="round"/>
<path d="M7.33334 9C7.88562 9 8.33334 8.55228 8.33334 8C8.33334 7.44772 7.88562 7 7.33334 7C6.78105 7 6.33334 7.44772 6.33334 8C6.33334 8.55228 6.78105 9 7.33334 9Z" fill="#F9F9FA" stroke="#F9F9FA" stroke-linecap="round" stroke-linejoin="round"/>
<path d="M12 9C12.5523 9 13 8.55228 13 8C13 7.44772 12.5523 7 12 7C11.4477 7 11 7.44772 11 8C11 8.55228 11.4477 9 12 9Z" fill="#F9F9FA" stroke="#F9F9FA" stroke-linecap="round" stroke-linejoin="round"/>
<path d="M7.66666 11.6199C7.69256 12.1251 7.91752 12.5996 8.29233 12.9394C8.66714 13.2792 9.16128 13.4568 9.66666 13.4332C10.172 13.4568 10.6662 13.2792 11.041 12.9394C11.4158 12.5996 11.6408 12.1251 11.6667 11.6199" stroke="#F9F9FA" stroke-linecap="round" stroke-linejoin="round"/>
</svg>
