<svg width="20" height="20" viewBox="0 0 20 20" fill="none" xmlns="http://www.w3.org/2000/svg">
<path fill-rule="evenodd" clip-rule="evenodd" d="M13.995 5.04289L11.67 7.36789C11.6423 7.39615 11.6046 7.41233 11.565 7.41289H7.50003C7.10221 7.41289 6.72067 7.57093 6.43937 7.85223C6.15807 8.13354 6.00003 8.51507 6.00003 8.91289V11.5679C6.00003 11.9657 6.15807 12.3472 6.43937 12.6286C6.72067 12.9099 7.10221 13.0679 7.50003 13.0679H11.1975C11.2264 13.0562 11.2587 13.0562 11.2875 13.0679L14.01 15.1079C14.0323 15.1246 14.0588 15.1348 14.0866 15.1373C14.1143 15.1398 14.1422 15.1345 14.1671 15.1221C14.192 15.1096 14.213 15.0904 14.2276 15.0668C14.2423 15.0431 14.25 15.0157 14.25 14.9879V5.14789C14.2496 5.11853 14.2406 5.08994 14.2241 5.06566C14.2076 5.04138 14.1843 5.02248 14.1572 5.0113C14.13 5.00012 14.1002 4.99715 14.0714 5.00277C14.0425 5.00839 14.016 5.02234 13.995 5.04289Z" stroke="#484848" stroke-width="1.2" stroke-linecap="round" stroke-linejoin="round"/>
<path d="M4.41504 17.0074L17.0074 4.41504" stroke="white" stroke-width="1.5" stroke-linecap="round"/>
<path d="M4.41504 17.0074L17.0074 4.41504" stroke="#484848" stroke-linecap="round"/>
</svg>
