<svg width="20" height="20" viewBox="0 0 20 20" fill="none" xmlns="http://www.w3.org/2000/svg">
<path fill-rule="evenodd" clip-rule="evenodd" d="M10.995 5.04289L8.67 7.36789C8.64231 7.39615 8.60457 7.41233 8.565 7.41289H4.5C4.10218 7.41289 3.72064 7.57093 3.43934 7.85223C3.15804 8.13354 3 8.51507 3 8.91289V11.5679C3 11.9657 3.15804 12.3472 3.43934 12.6286C3.72064 12.9099 4.10218 13.0679 4.5 13.0679H8.1975C8.22636 13.0562 8.25864 13.0562 8.2875 13.0679L11.01 15.1079C11.0323 15.1246 11.0588 15.1348 11.0865 15.1373C11.1143 15.1398 11.1422 15.1345 11.1671 15.1221C11.192 15.1096 11.213 15.0904 11.2276 15.0668C11.2422 15.0431 11.25 15.0157 11.25 14.9879V5.14789C11.2496 5.11853 11.2406 5.08994 11.2241 5.06566C11.2075 5.04138 11.1843 5.02248 11.1571 5.0113C11.13 5.00012 11.1001 4.99715 11.0713 5.00277C11.0425 5.00839 11.016 5.02234 10.995 5.04289Z" stroke="#484848" stroke-width="1.2" stroke-linecap="round" stroke-linejoin="round"/>
<path d="M13.125 6.31787C14.1196 6.31787 15.0734 6.71296 15.7767 7.41622C16.4799 8.11948 16.875 9.07331 16.875 10.0679C16.875 11.0624 16.4799 12.0163 15.7767 12.7195C15.0734 13.4228 14.1196 13.8179 13.125 13.8179" stroke="#484848" stroke-width="1.2" stroke-linecap="round" stroke-linejoin="round"/>
</svg>
