<svg width="20" height="20" viewBox="0 0 20 20" fill="none" xmlns="http://www.w3.org/2000/svg">
<path d="M17.8704 9.75464C17.3102 12.8611 14.6111 15 11.6065 15C11.1991 15 10.8426 14.9491 10.4352 14.8981C11.0972 14.2361 11.6065 13.4722 11.963 12.7083C11.963 12.6574 12.0139 12.6065 12.0139 12.5556C12.1667 12.25 12.2685 11.9444 12.3704 11.6389C12.4213 11.537 12.4213 11.3843 12.4722 11.2824C12.8796 10.9259 13.287 10.6204 13.7454 10.3657C15.0185 9.75463 16.4444 9.50001 17.8704 9.75464Z" stroke="#484848" stroke-miterlimit="10" stroke-linecap="round" stroke-linejoin="round"/>
<path d="M10.4352 14.8981C10.0278 14.9491 9.6713 15 9.2639 15C6.20834 15 3.56018 12.8611 3 9.75464C4.47685 9.50001 5.90278 9.75463 7.07407 10.3657C7.53241 10.6204 7.99074 10.9259 8.34722 11.2824C8.39815 11.3843 8.39815 11.537 8.44908 11.6389C8.55093 11.9444 8.65278 12.25 8.75464 12.5556C8.75464 12.6065 8.80557 12.6574 8.80557 12.7083C9.2639 13.4722 9.77315 14.2361 10.4352 14.8981Z" stroke="#484848" stroke-miterlimit="10" stroke-linecap="round" stroke-linejoin="round"/>
<path d="M12.6759 9.44908C12.6759 10.0602 12.625 10.6713 12.4722 11.2824C12.4213 11.3843 12.4213 11.537 12.3703 11.6389C12.2685 11.9444 12.1666 12.25 12.0139 12.5556C12.0139 12.6065 11.9629 12.6574 11.9629 12.7083C11.6064 13.5231 11.0463 14.2361 10.4352 14.8981C9.77311 14.2361 9.26386 13.4722 8.90737 12.7083C8.90737 12.6574 8.85645 12.6065 8.85645 12.5556C8.70367 12.25 8.60183 11.9444 8.5509 11.6389C8.49998 11.537 8.49997 11.3843 8.44904 11.2824C8.09256 9.85649 8.19441 8.32871 8.65275 6.95371C9.00923 5.88427 9.62034 4.86574 10.4861 4C11.3518 4.86574 11.9629 5.88427 12.3194 6.95371C12.574 7.76853 12.6759 8.58334 12.6759 9.44908Z" stroke="#484848" stroke-miterlimit="10" stroke-linecap="round" stroke-linejoin="round"/>
<path d="M15.3241 6.18994C15.3241 7.76864 14.7639 9.24549 13.7963 10.3659C13.338 10.6205 12.8796 10.9261 12.5232 11.2825C12.6759 10.6714 12.7269 10.0603 12.7269 9.4492C12.7269 8.58346 12.5741 7.76864 12.3195 6.95383C13.1852 6.44457 14.2037 6.18994 15.3241 6.18994Z" stroke="#484848" stroke-miterlimit="10" stroke-linecap="round" stroke-linejoin="round"/>
<path d="M8.39809 11.2825C7.99069 10.9261 7.58328 10.6205 7.12495 10.3659C6.15735 9.24549 5.59717 7.76864 5.59717 6.18994C6.66661 6.18994 7.73605 6.44457 8.60179 6.95383C8.09253 8.32883 8.04161 9.85661 8.39809 11.2825Z" stroke="#484848" stroke-miterlimit="10" stroke-linecap="round" stroke-linejoin="round"/>
</svg>
