<svg width="20" height="20" viewBox="0 0 20 20" fill="none" xmlns="http://www.w3.org/2000/svg">
<path d="M12.5 2.5H7.5C4.73858 2.5 2.5 4.73858 2.5 7.5V12.5C2.5 15.2614 4.73858 17.5 7.5 17.5H12.5C15.2614 17.5 17.5 15.2614 17.5 12.5V7.5C17.5 4.73858 15.2614 2.5 12.5 2.5Z" fill="#484848" stroke="#484848" stroke-linecap="round" stroke-linejoin="round"/>
<path d="M10 5C7.25 5 5 7.25 5 10C5 12.75 7.25 15 10 15C12.75 15 15 12.75 15 10C15 7.25 12.75 5 10 5ZM12.3125 12.1875C12.25 12.3125 12 12.375 11.875 12.3125C10.5625 11.5625 8.9375 11.375 7.5 11.8125C7.3125 11.8125 7.1875 11.75 7.125 11.5625C7.125 11.4375 7.1875 11.25 7.375 11.1875C9 10.6875 10.75 10.9375 12.25 11.75C12.3125 11.875 12.375 12.0625 12.3125 12.1875ZM12.9375 10.875C12.875 10.875 12.875 10.875 12.9375 10.875C12.8125 11.0625 12.5625 11.125 12.375 11C10.875 10.125 9.0625 9.9375 7.375 10.4375C7.1875 10.5 6.9375 10.375 6.875 10.1875C6.8125 9.9375 6.9375 9.75 7.125 9.625C9 9.0625 11.0625 9.3125 12.75 10.3125C12.9375 10.4375 13 10.6875 12.9375 10.875ZM12.9375 9.4375C11.3125 8.5 8.6875 8.375 7.125 8.875C6.875 8.9375 6.625 8.8125 6.5625 8.5625C6.5 8.3125 6.625 8.0625 6.875 7.9375C8.625 7.4375 11.5625 7.5 13.4375 8.625C13.6875 8.75 13.75 9.0625 13.625 9.25C13.4375 9.5 13.1875 9.5625 12.9375 9.4375Z" fill="#F9F9FA"/>
</svg>
