<svg width="20" height="20" viewBox="0 0 20 20" fill="none" xmlns="http://www.w3.org/2000/svg">
<path d="M11.593 17.7H3V7.65537C3 6.79264 3.75266 6.05316 4.63078 6.05316H9.96224C10.8404 6.05316 11.593 6.79264 11.593 7.65537V17.7Z" fill="#484848" stroke="#484848" stroke-miterlimit="10" stroke-linecap="round" stroke-linejoin="round"/>
<path d="M11.593 8.88782H8.14325V14.8037H11.593V8.88782Z" fill="white" stroke="#484848" stroke-miterlimit="10" stroke-linecap="round" stroke-linejoin="round"/>
<path d="M9.33499 6.05317H5.258V3.03361C6.6379 2.60224 7.95509 2.60224 9.33499 3.03361V6.05317Z" stroke="#484848" stroke-miterlimit="10" stroke-linecap="round" stroke-linejoin="round"/>
<path d="M11.7185 5.06716C12.1342 5.06716 12.4712 4.73608 12.4712 4.32768C12.4712 3.91927 12.1342 3.5882 11.7185 3.5882C11.3028 3.5882 10.9658 3.91927 10.9658 4.32768C10.9658 4.73608 11.3028 5.06716 11.7185 5.06716Z" fill="#484848"/>
<path d="M13.6629 3.6498C14.0786 3.6498 14.4156 3.31872 14.4156 2.91032C14.4156 2.50191 14.0786 2.17084 13.6629 2.17084C13.2472 2.17084 12.9102 2.50191 12.9102 2.91032C12.9102 3.31872 13.2472 3.6498 13.6629 3.6498Z" fill="#484848"/>
<path d="M13.6629 6.42287C14.0786 6.42287 14.4156 6.0918 14.4156 5.68339C14.4156 5.27498 14.0786 4.94391 13.6629 4.94391C13.2472 4.94391 12.9102 5.27498 12.9102 5.68339C12.9102 6.0918 13.2472 6.42287 13.6629 6.42287Z" fill="#484848"/>
<path d="M15.5446 5.06716C15.9603 5.06716 16.2973 4.73608 16.2973 4.32768C16.2973 3.91927 15.9603 3.5882 15.5446 3.5882C15.1289 3.5882 14.7919 3.91927 14.7919 4.32768C14.7919 4.73608 15.1289 5.06716 15.5446 5.06716Z" fill="#484848"/>
<path d="M15.6073 2.47897C16.023 2.47897 16.36 2.1479 16.36 1.73949C16.36 1.33109 16.023 1 15.6073 1C15.1916 1 14.8547 1.33109 14.8547 1.73949C14.8547 2.1479 15.1916 2.47897 15.6073 2.47897Z" fill="#484848"/>
<path d="M15.6073 7.65535C16.023 7.65535 16.36 7.32428 16.36 6.91587C16.36 6.50747 16.023 6.17639 15.6073 6.17639C15.1916 6.17639 14.8547 6.50747 14.8547 6.91587C14.8547 7.32428 15.1916 7.65535 15.6073 7.65535Z" fill="#484848"/>
</svg>
