<svg width="20" height="20" viewBox="0 0 20 20" fill="none" xmlns="http://www.w3.org/2000/svg">
<path d="M11.5941 9.02936H8.14392V15.0515H11.5941V9.02936Z" stroke="#484848" stroke-miterlimit="10" stroke-linecap="round" stroke-linejoin="round"/>
<path d="M11.5941 18H3V7.7748C3 6.89657 3.75276 6.1438 4.63099 6.1438H9.96313C10.8414 6.1438 11.5941 6.89657 11.5941 7.7748V18Z" stroke="#484848" stroke-miterlimit="10" stroke-linecap="round" stroke-linejoin="round"/>
<path d="M9.33582 6.14377H5.2583V3.06994C6.63838 2.63082 7.95574 2.63082 9.33582 3.06994V6.14377Z" stroke="#484848" stroke-miterlimit="10" stroke-linecap="round" stroke-linejoin="round"/>
<path d="M11.7196 5.14018C12.1353 5.14018 12.4723 4.80316 12.4723 4.38741C12.4723 3.97167 12.1353 3.63464 11.7196 3.63464C11.3038 3.63464 10.9668 3.97167 10.9668 4.38741C10.9668 4.80316 11.3038 5.14018 11.7196 5.14018Z" fill="#484848"/>
<path d="M13.6642 3.69737C14.08 3.69737 14.417 3.36035 14.417 2.9446C14.417 2.52886 14.08 2.19183 13.6642 2.19183C13.2485 2.19183 12.9114 2.52886 12.9114 2.9446C12.9114 3.36035 13.2485 3.69737 13.6642 3.69737Z" fill="#484848"/>
<path d="M13.6642 6.52031C14.08 6.52031 14.417 6.18329 14.417 5.76754C14.417 5.3518 14.08 5.01477 13.6642 5.01477C13.2485 5.01477 12.9114 5.3518 12.9114 5.76754C12.9114 6.18329 13.2485 6.52031 13.6642 6.52031Z" fill="#484848"/>
<path d="M15.5462 5.14018C15.9619 5.14018 16.2989 4.80316 16.2989 4.38741C16.2989 3.97167 15.9619 3.63464 15.5462 3.63464C15.1304 3.63464 14.7934 3.97167 14.7934 4.38741C14.7934 4.80316 15.1304 5.14018 15.5462 5.14018Z" fill="#484848"/>
<path d="M15.6089 2.50555C16.0246 2.50555 16.3617 2.16853 16.3617 1.75278C16.3617 1.33704 16.0246 1 15.6089 1C15.1932 1 14.8561 1.33704 14.8561 1.75278C14.8561 2.16853 15.1932 2.50555 15.6089 2.50555Z" fill="#484848"/>
<path d="M15.6089 7.77495C16.0246 7.77495 16.3617 7.43792 16.3617 7.02218C16.3617 6.60644 16.0246 6.26941 15.6089 6.26941C15.1932 6.26941 14.8561 6.60644 14.8561 7.02218C14.8561 7.43792 15.1932 7.77495 15.6089 7.77495Z" fill="#484848"/>
</svg>
