<svg width="20" height="20" viewBox="0 0 20 20" fill="none" xmlns="http://www.w3.org/2000/svg">
<path fill-rule="evenodd" clip-rule="evenodd" d="M9.13438 4.51239C9.18124 4.36377 9.27427 4.23397 9.39994 4.14182C9.52562 4.04968 9.67739 4 9.83323 4C9.98906 4 10.1408 4.04968 10.2665 4.14182C10.3922 4.23397 10.4852 4.36377 10.5321 4.51239L11.7941 8.39337H15.865C16.0264 8.38727 16.1854 8.43418 16.3176 8.52692C16.4499 8.61967 16.5481 8.75316 16.5973 8.907C16.6466 9.06084 16.6441 9.22656 16.5903 9.37885C16.5364 9.53114 16.4342 9.66162 16.2993 9.75036L12.995 12.1454L14.257 16.0332C14.3069 16.1813 14.3082 16.3415 14.2606 16.4903C14.213 16.6392 14.1191 16.7689 13.9925 16.8606C13.866 16.9523 13.7134 17.0011 13.5572 17C13.4009 16.9988 13.2491 16.9477 13.1239 16.8542L9.81287 14.432L6.50861 16.8338C6.38343 16.9274 6.23163 16.9785 6.07535 16.9796C5.91908 16.9808 5.76653 16.932 5.63998 16.8403C5.51343 16.7486 5.41951 16.6188 5.37194 16.47C5.32436 16.3211 5.32562 16.1609 5.37553 16.0128L6.63752 12.1251L3.33326 9.73C3.1983 9.64127 3.0961 9.51079 3.04227 9.3585C2.98845 9.20621 2.98596 9.04048 3.03519 8.88665C3.08441 8.73281 3.18265 8.59932 3.31489 8.50657C3.44713 8.41382 3.60609 8.36691 3.7675 8.37302H7.83846L9.13438 4.51239Z" fill="#484848" stroke="#484848" stroke-width="1.3" stroke-linecap="round" stroke-linejoin="round"/>
</svg>
