<svg width="20" height="20" viewBox="0 0 20 20" fill="none" xmlns="http://www.w3.org/2000/svg">
<path d="M10.1765 4H12.2353V6.7451C12.2353 7.83716 11.8015 8.8845 11.0293 9.65671C10.2571 10.4289 9.20971 10.8627 8.11765 10.8627C7.02558 10.8627 5.97824 10.4289 5.20603 9.65671C4.43382 8.8845 4 7.83716 4 6.7451V4H6.05882" stroke="#484848" stroke-linecap="round" stroke-linejoin="round"/>
<path d="M8.11768 10.8628V13.951C8.11678 14.3568 8.19604 14.7588 8.35092 15.1339C8.5058 15.509 8.73324 15.8498 9.02019 16.1368C9.30714 16.4237 9.64794 16.6511 10.023 16.806C10.3981 16.9609 10.8001 17.0402 11.2059 17.0393C11.6117 17.0402 12.0137 16.9609 12.3888 16.806C12.7639 16.6511 13.1047 16.4237 13.3916 16.1368C13.6786 15.8498 13.906 15.509 14.0609 15.1339C14.2158 14.7588 14.2951 14.3568 14.2942 13.951V12.2353" stroke="#484848" stroke-linecap="round" stroke-linejoin="round"/>
<path d="M14.2941 12.2352C15.0522 12.2352 15.6667 11.6207 15.6667 10.8627C15.6667 10.1046 15.0522 9.49011 14.2941 9.49011C13.5361 9.49011 12.9216 10.1046 12.9216 10.8627C12.9216 11.6207 13.5361 12.2352 14.2941 12.2352Z" fill="#484848" stroke="#484848" stroke-linecap="round" stroke-linejoin="round"/>
</svg>
