<svg width="20" height="20" viewBox="0 0 20 20" fill="none" xmlns="http://www.w3.org/2000/svg">
<path d="M15.1111 3H5.38889C4.62183 3 4 3.62183 4 4.38889V15.5C4 16.2671 4.62183 16.8889 5.38889 16.8889H15.1111C15.8782 16.8889 16.5 16.2671 16.5 15.5V4.38889C16.5 3.62183 15.8782 3 15.1111 3Z" stroke="#484848" stroke-linecap="round" stroke-linejoin="round"/>
<path fill-rule="evenodd" clip-rule="evenodd" d="M7.47223 16.8889V12.7222C7.47223 11.9855 7.76489 11.279 8.28582 10.7581C8.80676 10.2371 9.51329 9.94446 10.25 9.94446C10.9867 9.94446 11.6933 10.2371 12.2142 10.7581C12.7351 11.279 13.0278 11.9855 13.0278 12.7222V16.8889" fill="#484848"/>
<path d="M7.47223 16.8889V12.7222C7.47223 11.9855 7.76489 11.279 8.28582 10.7581C8.80676 10.2371 9.51329 9.94446 10.25 9.94446C10.9867 9.94446 11.6933 10.2371 12.2142 10.7581C12.7351 11.279 13.0278 11.9855 13.0278 12.7222V16.8889" stroke="#484848" stroke-linecap="round" stroke-linejoin="round"/>
<path d="M4 5.08333C4 5.63587 4.21949 6.16577 4.61019 6.55647C5.0009 6.94717 5.5308 7.16667 6.08333 7.16667C6.63587 7.16667 7.16577 6.94717 7.55647 6.55647C7.94717 6.16577 8.16667 5.63587 8.16667 5.08333V3" stroke="#484848" stroke-linecap="round" stroke-linejoin="round"/>
<path d="M8.16669 5.08333C8.16669 5.63587 8.38618 6.16577 8.77688 6.55647C9.16758 6.94717 9.69749 7.16667 10.25 7.16667C10.8026 7.16667 11.3325 6.94717 11.7232 6.55647C12.1139 6.16577 12.3334 5.63587 12.3334 5.08333V3" stroke="#484848" stroke-linecap="round" stroke-linejoin="round"/>
<path d="M16.5 5.08333C16.5 5.63587 16.2805 6.16577 15.8898 6.55647C15.4991 6.94717 14.9692 7.16667 14.4166 7.16667C13.8641 7.16667 13.3342 6.94717 12.9435 6.55647C12.5528 6.16577 12.3333 5.63587 12.3333 5.08333V3" stroke="#484848" stroke-linecap="round" stroke-linejoin="round"/>
</svg>
