<svg width="20" height="20" viewBox="0 0 20 20" fill="none" xmlns="http://www.w3.org/2000/svg">
<path d="M8.05688 3.03835C8.01086 3.06136 7.81361 3.32106 7.59007 3.64981C7.13969 4.32044 7.02792 4.44207 6.74849 4.58014C6.41646 4.74452 6.18963 4.74123 5.33819 4.57357C4.67084 4.43879 4.63797 4.4355 4.55579 4.4881C4.3947 4.5933 4.39141 4.65904 4.54264 5.3757C4.71029 6.19427 4.71029 6.4474 4.54592 6.78271C4.40785 7.06543 4.25006 7.20679 3.58271 7.65717L3.0107 8.04179L3.00084 8.18973C2.99755 8.27191 3.00413 8.3541 3.01727 8.37382C3.03371 8.39355 3.31314 8.5875 3.64188 8.81105C4.27307 9.23513 4.40456 9.35676 4.55579 9.6592C4.71029 9.97479 4.70701 10.2411 4.54264 11.0465C4.46703 11.4114 4.41443 11.7401 4.42429 11.7763C4.45716 11.8782 4.57551 11.9703 4.67084 11.9703C4.72016 11.9703 5.05219 11.9111 5.41051 11.8388C6.12059 11.6974 6.24552 11.6842 6.49536 11.7533C6.9293 11.8683 7.0871 12.013 7.57692 12.7559C7.80046 13.0978 8.00757 13.3838 8.04045 13.3937C8.11934 13.4266 8.25084 13.4233 8.31659 13.3871C8.34946 13.3674 8.48425 13.1899 8.61574 12.9894L8.85901 12.6245L8.96092 12.9302C9.16145 13.5153 9.385 13.9361 9.76963 14.4523C10.0096 14.7777 10.4929 15.261 10.8019 15.4878C11.1997 15.7804 13.1327 17 13.2017 17C13.2839 17 13.3628 16.954 14.5167 16.211C15.5621 15.5404 15.7987 15.3694 16.1604 15.0111C16.831 14.3438 17.3208 13.4923 17.5575 12.5784C17.712 11.9801 17.7219 11.819 17.7219 9.94849V8.19301L17.643 8.13384C17.5871 8.08782 17.4622 8.06152 17.1762 8.03193C16.0124 7.9103 14.6876 7.52238 13.583 6.97667C13.1885 6.78271 13.2116 6.78271 12.7579 7.00955C12.5869 7.09502 12.3864 7.18707 12.3174 7.21665L12.1859 7.26925L12.0774 7.16405C11.8308 6.92407 11.673 6.56246 11.673 6.237C11.673 6.14495 11.7355 5.76361 11.8078 5.38556C11.959 4.64589 11.9558 4.59987 11.7881 4.4881C11.7059 4.4355 11.673 4.43879 11.0057 4.57357C10.1806 4.73794 9.93728 4.74123 9.63156 4.59658C9.32911 4.45194 9.17789 4.28757 8.76039 3.65638C8.45795 3.19943 8.34618 3.05478 8.27385 3.02849C8.15551 2.98904 8.15551 2.98904 8.05688 3.03835ZM8.44809 4.20538C8.7571 4.66891 8.97736 4.89245 9.27323 5.04696C9.72689 5.28694 10.1345 5.31981 10.8315 5.17845C11.0616 5.13243 11.2588 5.09956 11.2654 5.10942C11.2753 5.11928 11.2457 5.31981 11.1997 5.55651C11.0386 6.37836 11.1142 6.85504 11.4889 7.34486L11.604 7.49608L11.3344 7.57827C11.0353 7.66703 10.677 7.76236 10.6309 7.76236C10.6145 7.76236 10.5849 7.67689 10.5586 7.57169C10.46 7.1509 10.1838 6.69067 9.83537 6.37836C8.71108 5.36255 6.92272 5.59596 6.10745 6.86161C5.82802 7.29555 5.70967 7.71305 5.71296 8.23904C5.71624 8.94254 5.99567 9.57044 6.50851 10.034C7.02463 10.5008 7.61637 10.7112 8.3133 10.675L8.68149 10.6586L8.68807 11.1254C8.70122 11.9012 8.72094 11.8092 8.43494 12.2431L8.17852 12.6277L7.90895 12.2267C7.48487 11.5889 7.12654 11.3128 6.58412 11.1977C6.26853 11.1287 6.06142 11.1385 5.53543 11.2437C5.27573 11.293 5.06533 11.3259 5.06533 11.3128C5.06533 11.2996 5.1015 11.109 5.14752 10.8854C5.38093 9.74467 5.1278 9.12007 4.16787 8.47902C3.95419 8.33437 3.78324 8.20945 3.7931 8.20288C3.79968 8.1963 3.99692 8.05823 4.23033 7.90043C4.52291 7.6999 4.69714 7.55526 4.80234 7.42376C5.22313 6.90763 5.31847 6.3685 5.14752 5.52692C5.1015 5.30338 5.07191 5.11599 5.07848 5.10942C5.08506 5.09956 5.28888 5.13572 5.53215 5.18174C6.26524 5.32968 6.73205 5.27379 7.19887 4.97792C7.452 4.81684 7.64267 4.60644 7.9221 4.18566C8.0536 3.98184 8.16865 3.81746 8.17523 3.81746C8.1818 3.81746 8.30344 3.9917 8.44809 4.20538ZM8.64533 6.36521C9.28309 6.51643 9.81565 7.03584 10.0096 7.69333C10.0622 7.87414 10.0491 7.92345 9.94715 7.92673C9.93071 7.92673 9.66443 7.9629 9.35541 8.00892C8.87874 8.07796 8.78669 8.09768 8.74067 8.16014C8.68807 8.2226 8.68149 8.32122 8.68149 9.14308V10.0603L8.49411 10.0997C8.08318 10.1819 7.52103 10.0636 7.13969 9.81371C6.33099 9.27457 6.04827 8.27191 6.46249 7.38431C6.83068 6.58547 7.75115 6.15482 8.64533 6.36521ZM13.7112 7.66045C14.7566 8.12398 16.0157 8.47573 16.9789 8.57107L17.2025 8.59408L17.186 10.126C17.1696 11.7697 17.1532 11.9505 16.9822 12.5456C16.7028 13.5153 16.0782 14.4227 15.2793 15.0243C15.1873 15.0966 14.681 15.4286 14.1583 15.7639C13.2806 16.3294 13.2017 16.3721 13.1392 16.3327C13.0998 16.3064 12.6626 16.0236 12.1596 15.7048C11.2227 15.1032 10.7624 14.7514 10.4666 14.4128C9.89784 13.7586 9.52307 13.0157 9.3324 12.1741C9.26665 11.8749 9.26008 11.7533 9.25021 10.2246L9.23707 8.59079L9.52636 8.55134C10.7559 8.38368 12.1333 7.97604 13.0044 7.52238C13.0965 7.47636 13.1754 7.43691 13.1853 7.43362C13.1951 7.43362 13.4318 7.53553 13.7112 7.66045Z" fill="#484848"/>
<path d="M10.8873 10.2969C10.815 10.366 10.815 10.366 10.8249 11.3719C10.8347 12.3516 10.838 12.3845 10.9103 12.5225C11.0221 12.7296 11.2259 12.9104 11.4363 12.9926C11.5875 13.0485 11.673 13.0584 11.8867 13.0485C12.3075 13.0255 12.6001 12.8348 12.7644 12.4798C12.8368 12.322 12.84 12.276 12.8499 11.3555L12.8598 10.3923L12.7776 10.3101C12.6757 10.2082 12.5047 10.2016 12.393 10.2904C12.3141 10.3528 12.3141 10.3561 12.2976 11.2865C12.2812 12.1511 12.2779 12.2234 12.2154 12.3056C12.1201 12.4305 11.9952 12.4962 11.8374 12.4962C11.6631 12.4962 11.5218 12.4239 11.4429 12.2891C11.3837 12.1938 11.3771 12.1182 11.3771 11.3621C11.3771 10.5106 11.3541 10.32 11.2456 10.2608C11.1404 10.2049 10.9695 10.2213 10.8873 10.2969Z" fill="#484848"/>
<path d="M13.5567 10.2937C13.5172 10.3266 13.4778 10.389 13.4646 10.4252C13.4318 10.5271 14.2569 12.9795 14.3358 13.0222C14.4377 13.0748 14.6481 13.0617 14.704 12.9959C14.7336 12.9663 14.9506 12.3943 15.1905 11.7303C15.6442 10.4679 15.6541 10.4285 15.5193 10.2937C15.4305 10.2049 15.2201 10.2049 15.1412 10.2937C15.1083 10.3298 14.9538 10.7112 14.7993 11.1451L14.5133 11.9341L14.2569 11.155C14.1123 10.7178 13.9709 10.343 13.9315 10.3003C13.846 10.2049 13.652 10.2016 13.5567 10.2937Z" fill="#484848"/>
</svg>
