<svg width="20" height="20" viewBox="0 0 20 20" fill="none" xmlns="http://www.w3.org/2000/svg">
<g clip-path="url(#clip0_111_688)">
<path d="M9.83203 0.863281C9.625 0.910156 9.5 1.00391 9.41016 1.17578C9.34766 1.30469 9.33594 1.40625 9.33594 1.92188C9.33594 2.46875 9.34375 2.53125 9.42578 2.67188C9.53516 2.86719 9.74609 2.97656 10 2.97656C10.2539 2.97656 10.4648 2.86719 10.5742 2.67188C10.6562 2.53125 10.6641 2.46875 10.6641 1.91406C10.6641 1.35938 10.6562 1.29688 10.5742 1.15625C10.4414 0.917969 10.1328 0.796875 9.83203 0.863281Z" fill="#484848"/>
<path d="M3.62889 3.40627C3.34764 3.56643 3.23045 4.00783 3.3828 4.30861C3.47264 4.48049 3.96483 4.9883 4.17577 5.12111C4.40623 5.26955 4.72655 5.28127 4.92577 5.14455C5.1992 4.96096 5.30858 4.58596 5.17577 4.27346C5.10545 4.10158 4.61327 3.58205 4.37889 3.43361C4.15623 3.28908 3.84373 3.27736 3.62889 3.40627Z" fill="#484848"/>
<path d="M14.8438 4.21874C14.7696 4.26562 14.336 4.67578 13.8789 5.12499L13.0547 5.94921L12.7461 5.7539C11.8086 5.15234 10.8282 4.88281 9.76566 4.93749C8.48831 4.99999 7.37112 5.48437 6.46878 6.35937C5.7305 7.07812 5.25784 7.93359 5.03519 8.94531C4.90237 9.53124 4.90237 10.4687 5.03519 11.0508C5.18362 11.7266 5.40237 12.2617 5.76175 12.8164L5.92972 13.0742L4.93753 14.0664C4.32034 14.6836 3.91409 15.1172 3.86722 15.2187C3.58597 15.793 4.15628 16.4102 4.73831 16.1562C4.81253 16.125 7.11331 13.8516 10.3399 10.6211C15.2657 5.68749 15.8164 5.12109 15.8438 4.98828C15.9297 4.50781 15.6836 4.17578 15.2227 4.14843C15.0274 4.14062 14.9532 4.15234 14.8438 4.21874ZM10.7813 6.39453C11.1016 6.45703 11.5508 6.6289 11.8555 6.80859C11.9649 6.87109 12.0547 6.92578 12.0586 6.92968C12.0625 6.93359 10.9102 8.09374 9.49612 9.50781L6.92191 12.082L6.70316 11.6367C6.45706 11.1289 6.37894 10.8555 6.33206 10.3437C6.14456 8.35546 7.59769 6.57031 9.6055 6.32812C9.92191 6.28906 10.3907 6.3164 10.7813 6.39453Z" fill="#484848"/>
<path d="M13.9844 8.48436C13.8867 8.53514 13.7696 8.6367 13.7188 8.71092C13.6289 8.83983 13.625 8.86717 13.6563 9.17967C13.7227 9.82811 13.6953 10.5351 13.6016 10.8945C13.2422 12.2265 12.1719 13.2773 10.836 13.5976C10.3946 13.7031 9.72268 13.7109 9.30471 13.6133C8.98049 13.539 8.79299 13.5547 8.60549 13.6836C8.20705 13.9531 8.2344 14.6015 8.65237 14.832C8.75002 14.8828 8.96877 14.9414 9.22268 14.9765C10.9141 15.2265 12.5039 14.6992 13.6641 13.5C14.4883 12.6445 14.9531 11.6445 15.0781 10.4492C15.1446 9.80467 15.0156 8.89842 14.8164 8.64061C14.6289 8.39061 14.293 8.32811 13.9844 8.48436Z" fill="#484848"/>
<path d="M1.15625 9.42578C0.746094 9.66016 0.746094 10.3398 1.15625 10.5742C1.29688 10.6562 1.35938 10.6641 1.91406 10.6641C2.46875 10.6641 2.53125 10.6562 2.67188 10.5742C3.08594 10.3398 3.08594 9.66016 2.67188 9.42578C2.53125 9.34375 2.46875 9.33594 1.91406 9.33594C1.35938 9.33594 1.29688 9.34375 1.15625 9.42578Z" fill="#484848"/>
<path d="M17.3281 9.42578C17.2383 9.47656 17.1406 9.57422 17.0937 9.66406C16.9297 9.98828 17.0352 10.4102 17.3281 10.5742C17.4687 10.6562 17.5312 10.6641 18.0859 10.6641C18.6406 10.6641 18.7031 10.6562 18.8437 10.5742C19.0391 10.4648 19.1484 10.2539 19.1484 10C19.1484 9.74609 19.0391 9.53516 18.8437 9.42578C18.7031 9.34375 18.6406 9.33594 18.0859 9.33594C17.5312 9.33594 17.4687 9.34375 17.3281 9.42578Z" fill="#484848"/>
<path d="M15.0977 14.8555C14.7656 15.043 14.6641 15.4883 14.875 15.8242C15.0469 16.0937 15.6406 16.6328 15.8164 16.6797C16.2031 16.7812 16.5898 16.5312 16.6602 16.1289C16.7109 15.8594 16.6211 15.6797 16.2578 15.2969C16.0742 15.1016 15.8516 14.9023 15.7656 14.8516C15.5625 14.7383 15.3047 14.7383 15.0977 14.8555Z" fill="#484848"/>
<path d="M9.83203 17.0351C9.625 17.082 9.5 17.1758 9.41016 17.3476C9.34766 17.4766 9.33594 17.5781 9.33594 18.0937C9.33594 18.6406 9.34375 18.7031 9.42578 18.8437C9.66016 19.2539 10.3281 19.2578 10.5664 18.8476C10.6602 18.6914 10.6641 18.6523 10.6641 18.082C10.6641 17.5312 10.6562 17.4687 10.5742 17.3281C10.4414 17.0898 10.1328 16.9687 9.83203 17.0351Z" fill="#484848"/>
</g>
<defs>
<clipPath id="clip0_111_688">
<rect width="20" height="20" fill="white"/>
</clipPath>
</defs>
</svg>
