<svg width="20" height="20" viewBox="0 0 20 20" fill="none" xmlns="http://www.w3.org/2000/svg">
<path d="M8.24292 3.03969C8.19521 3.06354 7.99075 3.33276 7.75902 3.67354C7.29215 4.36873 7.17628 4.49482 6.88662 4.63795C6.54243 4.80834 6.30389 4.80834 5.4349 4.63113C4.66474 4.47437 4.62044 4.47778 4.50798 4.64817C4.45005 4.73336 4.45346 4.76403 4.59658 5.45241C4.77379 6.3248 4.7772 6.57357 4.6034 6.92117C4.46027 7.21424 4.2967 7.36077 3.60492 7.82764L3.01196 8.22635L3.00174 8.37289C2.99492 8.46149 3.00855 8.54328 3.03581 8.57395C3.05967 8.60462 3.30844 8.78182 3.59129 8.96925C4.24558 9.40545 4.37508 9.51109 4.51139 9.72237C4.7772 10.1449 4.79083 10.4142 4.59318 11.3615C4.51821 11.7296 4.46709 12.0601 4.47731 12.0976C4.51139 12.2067 4.63748 12.2987 4.74653 12.2987C4.80446 12.2987 5.15205 12.2373 5.51669 12.1589C6.25618 12.0056 6.45042 11.9988 6.77757 12.1249C7.13198 12.2612 7.24785 12.3805 7.72494 13.0927C7.9703 13.4573 8.19521 13.764 8.22588 13.7776C8.29745 13.8049 8.42694 13.8049 8.49851 13.7776C8.52918 13.764 8.67571 13.5698 8.82906 13.3483L9.10169 12.9393L9.02672 12.5781C8.96878 12.3021 8.94493 12.0499 8.9313 11.5387C8.91767 10.9321 8.91085 10.8674 8.85973 10.8844C8.72683 10.939 8.15091 10.9424 7.91237 10.8912C6.36182 10.5607 5.46557 9.00674 5.99378 7.55842C6.13009 7.18357 6.3073 6.90413 6.59014 6.62128C7.60907 5.60235 9.22096 5.62961 10.2092 6.68603C10.5023 7.00295 10.717 7.40507 10.8328 7.85831L10.8669 7.99803L11.2384 7.8992C11.5655 7.81401 12.4993 7.5039 12.5333 7.47323C12.5402 7.46641 12.4652 7.3744 12.3664 7.26535C11.9506 6.81212 11.9131 6.51905 12.1312 5.47285C12.288 4.7061 12.288 4.65839 12.1108 4.54253C12.0256 4.488 11.9915 4.49141 11.2997 4.63113C10.4444 4.80152 10.1922 4.80493 9.87526 4.65498C9.56174 4.50504 9.40498 4.33465 8.97219 3.68036C8.65867 3.19986 8.54622 3.05673 8.46784 3.02947C8.34516 2.98857 8.34516 2.98857 8.24292 3.03969Z" fill="#484848"/>
<path d="M8.1134 6.4066C7.32961 6.50542 6.73665 6.9757 6.48107 7.70156C6.3652 8.03552 6.33453 8.56714 6.41632 8.89088C6.64805 9.81439 7.39435 10.4039 8.34513 10.4073C8.52233 10.4073 8.7268 10.3937 8.79837 10.3801L8.92445 10.3528V9.39864C8.92445 8.45468 8.92445 8.44446 9.00283 8.36949C9.06758 8.30474 9.163 8.28089 9.67758 8.21273C10.0081 8.17184 10.2978 8.12072 10.3216 8.10709C10.3591 8.08323 10.3591 8.04234 10.3114 7.86854C10.0388 6.89051 9.11529 6.2771 8.1134 6.4066Z" fill="#484848"/>
<path d="M13.3035 7.67089C12.4924 8.09005 11.2009 8.48535 10.0048 8.6796L9.42883 8.77161L9.44587 10.4925C9.4595 12.3532 9.46291 12.3736 9.67419 13.0654C9.78665 13.4267 10.1172 14.0844 10.3592 14.4251C10.6147 14.7795 11.0305 15.2123 11.3611 15.4645C11.7564 15.7644 13.5591 16.906 13.6102 16.889C13.692 16.8549 15.5833 15.6349 15.7741 15.4918C16.0672 15.2703 16.5273 14.7966 16.7556 14.4865C17.1543 13.948 17.4371 13.3312 17.6075 12.6395C17.6961 12.2816 17.6961 12.2782 17.7064 10.5164L17.72 8.75457H17.6178C17.4371 8.75457 16.5239 8.58759 16.0502 8.46831C15.4231 8.30815 14.6632 8.04234 14.0873 7.77994C13.8249 7.66067 13.5863 7.56184 13.5591 7.56184C13.5318 7.56525 13.416 7.61296 13.3035 7.67089ZM11.5144 10.5607C11.6303 10.622 11.6507 10.7822 11.6507 11.6819C11.6507 12.4861 11.6575 12.5611 11.7189 12.6633C11.8177 12.8235 11.9642 12.8882 12.1994 12.8712C12.3527 12.861 12.4209 12.8371 12.489 12.7724C12.6628 12.6156 12.6731 12.5406 12.6731 11.583V10.6936L12.7582 10.6118C12.8707 10.496 13.0206 10.4994 13.1161 10.6186C13.1876 10.7072 13.1876 10.7345 13.1774 11.6682C13.1672 12.5883 13.1638 12.6292 13.0854 12.803C12.748 13.5493 11.6541 13.5902 11.2554 12.8712L11.1566 12.6906L11.1464 11.6785C11.1361 10.697 11.1395 10.6629 11.2043 10.5982C11.2793 10.5232 11.4122 10.5062 11.5144 10.5607ZM14.2849 10.5675C14.319 10.5948 14.4621 10.9696 14.6257 11.4535C14.7791 11.9204 14.9222 12.2953 14.9392 12.2919C14.9597 12.2884 15.1028 11.9238 15.263 11.4774C15.4231 11.0344 15.5833 10.6391 15.6174 10.5982C15.706 10.4994 15.8593 10.5062 15.9616 10.6118C16.0093 10.6561 16.0468 10.714 16.0468 10.7379C16.0468 10.8231 15.1573 13.2699 15.1062 13.3244C15.0312 13.4062 14.9461 13.4198 14.8302 13.3721C14.728 13.3278 14.7109 13.2801 14.2986 12.0431C13.8896 10.8231 13.8726 10.7515 13.9169 10.6629C13.9442 10.6084 13.9851 10.5607 14.0089 10.5505C14.0907 10.5164 14.227 10.5266 14.2849 10.5675Z" fill="#484848"/>
</svg>
