<svg width="20" height="20" viewBox="0 0 20 20" fill="none" xmlns="http://www.w3.org/2000/svg">
<path d="M5.11227 4.18418C5.10494 4.18418 5.08542 4.14758 5.07566 4.15978L6.12506 14.5562H12.9096L13.959 4.15978C13.9492 4.14758 13.9273 4.18418 13.9224 4.18418H5.11227ZM9.57346 6.4343C9.65156 6.45138 9.73453 6.54656 9.75161 6.62222C9.7687 6.69787 9.77602 7.08591 9.76382 7.19817C9.72721 7.51055 9.33673 7.52031 9.2806 7.2665C9.22447 7.01269 9.26352 6.65394 9.30501 6.56853C9.3465 6.48311 9.46608 6.4099 9.57346 6.4343ZM11.2794 7.11763C11.4575 7.14692 11.538 7.32996 11.4404 7.48859C11.3428 7.64722 11.0353 7.91811 10.9889 7.94007C10.7669 8.05478 10.5497 7.84978 10.6497 7.62525C10.7498 7.40073 11.0719 7.18597 11.1134 7.16156C11.1549 7.13716 11.2183 7.10787 11.2794 7.11763ZM7.81388 7.11763C7.8578 7.12251 7.89441 7.14692 7.93102 7.17377C7.98227 7.21037 8.35322 7.58376 8.38006 7.62769C8.49477 7.82781 8.29221 8.04501 8.0628 7.94495C7.8334 7.8449 7.62352 7.54228 7.59179 7.48859C7.49661 7.32263 7.61132 7.09079 7.81388 7.11763ZM9.76626 7.80097C10.1689 7.85466 10.5716 8.2012 10.7327 8.56728C11.2525 9.73382 9.97126 10.9345 8.8584 10.2951C7.59667 9.56787 8.22632 7.59353 9.76626 7.80097ZM12.0115 8.85037C12.2604 8.8943 12.258 9.23597 12.0554 9.29698C11.9798 9.31894 11.4233 9.32382 11.3355 9.30674C11.1134 9.26525 11.1036 8.92115 11.3208 8.85525C11.538 8.78936 11.9114 8.83329 12.0115 8.85037ZM7.66745 8.85037C7.90905 8.8943 7.9237 9.23109 7.71137 9.29698C7.49905 9.36287 7.11102 9.32138 7.01584 9.30674C6.79864 9.27257 6.75715 8.94799 6.96459 8.86746C7.17203 8.78692 7.55518 8.83085 7.66745 8.85037ZM10.9401 10.217C11.0182 10.2341 11.4477 10.6734 11.477 10.7564C11.5478 10.9687 11.3135 11.1444 11.1061 11.0029C10.8986 10.8613 10.6741 10.5855 10.6595 10.5465C10.5716 10.3342 10.7205 10.1658 10.9401 10.217ZM8.2556 10.217C8.38983 10.2488 8.45816 10.4342 8.38251 10.5514C8.30685 10.6685 7.9481 11.0029 7.90661 11.0273C7.68697 11.1517 7.47709 10.9077 7.58935 10.71C7.70161 10.5123 8.04816 10.2366 8.07989 10.2244C8.13114 10.2024 8.20435 10.2048 8.25804 10.217H8.2556ZM9.59786 10.7539C9.66376 10.7686 9.74185 10.8467 9.7565 10.9126C9.77846 11.0126 9.77358 11.4055 9.76138 11.5178C9.72721 11.8278 9.35138 11.84 9.28548 11.5788C9.21959 11.3177 9.25864 10.9541 9.30501 10.8638C9.35138 10.7735 9.48804 10.7271 9.6003 10.7539H9.59786Z" fill="#484848"/>
<path d="M6.14947 14.9467V17.497C6.14947 17.7118 6.46673 17.9827 6.68394 17.9753C8.57287 17.9802 10.4594 17.9851 12.3483 17.99C12.4801 17.929 12.6021 17.9241 12.7119 17.8118C12.7705 17.7533 12.8852 17.5483 12.8852 17.4726V14.9467H6.14947Z" fill="#484848"/>
<path d="M5.00244 3.74494H13.9956C14.0029 3.74494 14.0151 3.77667 14.0322 3.76934V2.24405C14.0322 2.17327 13.9224 2.01464 13.837 2H5.19524C5.1147 2.01464 5 2.14643 5 2.21964V3.74494H5.00244Z" fill="#484848"/>
</svg>
