<svg width="20" height="20" viewBox="0 0 20 20" fill="none" xmlns="http://www.w3.org/2000/svg">
<mask id="path-1-inside-1_35_2122" fill="white">
<path d="M13.3245 17.9788C11.4383 17.9837 9.55458 17.9861 7.66841 17.991C7.42472 17.8838 7.2517 17.6937 7.2054 17.4256C7.16641 16.5118 7.25901 15.5541 7.2054 14.6476C7.15179 13.7313 6.98364 12.7443 6.8886 11.8207C6.64491 9.43988 6.40609 7.06146 6.15753 4.6806C6.12097 4.33212 6.03812 3.94953 6.01131 3.60836C5.9772 3.15997 6.03324 2.67259 6.01131 2.22176C6.03812 2.11453 6.10635 2.04386 6.20383 2H14.7842C14.9133 2.0463 14.967 2.13403 14.9791 2.26806C15.0425 2.92115 14.9475 3.62298 14.8817 4.26876C14.6453 6.56677 14.4089 8.86477 14.175 11.1652C14.0653 12.2472 13.8703 13.4047 13.8094 14.4794C13.7582 15.403 13.8971 16.4533 13.8094 17.355C13.7802 17.6376 13.6023 17.896 13.3269 17.9812L13.3245 17.9788ZM14.5161 2.45326H6.47432V3.33055H14.5161V2.45326ZM14.4674 3.79356H6.52306L7.61967 14.3697H13.3708L14.4674 3.79356ZM13.3464 14.8328H7.66841V17.3793C7.66841 17.45 7.8463 17.5597 7.92429 17.5377H13.0686C13.1856 17.5475 13.3488 17.4524 13.3488 17.3306V14.8328H13.3464Z"/>
</mask>
<path d="M13.3245 17.9788L14.3851 16.9181L13.9442 16.4772L13.3206 16.4788L13.3245 17.9788ZM7.66841 17.991L7.0643 19.364L7.35485 19.4918L7.67229 19.491L7.66841 17.991ZM7.2054 17.4256L5.70676 17.4896L5.71087 17.5859L5.72728 17.6809L7.2054 17.4256ZM7.2054 14.6476L5.70796 14.7352L5.70801 14.7361L7.2054 14.6476ZM6.8886 11.8207L5.39639 11.9735L5.39648 11.9743L6.8886 11.8207ZM6.15753 4.6806L7.64942 4.52484L7.64934 4.52411L6.15753 4.6806ZM6.01131 3.60836L4.51563 3.72216L4.51592 3.72585L6.01131 3.60836ZM6.01131 2.22176L4.5561 1.85795L4.50231 2.07312L4.51308 2.29465L6.01131 2.22176ZM6.20383 2V0.5H5.88188L5.58828 0.632118L6.20383 2ZM14.7842 2L15.2904 0.587991L15.0449 0.5H14.7842V2ZM14.9791 2.26806L13.4853 2.40387L13.4861 2.4129L14.9791 2.26806ZM14.8817 4.26876L16.3738 4.42225L16.3739 4.4208L14.8817 4.26876ZM14.175 11.1652L12.6827 11.0135L12.6826 11.014L14.175 11.1652ZM13.8094 14.4794L12.3118 14.3945L12.3117 14.3964L13.8094 14.4794ZM13.8094 17.355L15.3015 17.5093L15.3024 17.5002L13.8094 17.355ZM13.3269 17.9812L12.2663 19.0419L12.9062 19.6819L13.7707 19.4141L13.3269 17.9812ZM14.5161 2.45326H16.0161V0.953265H14.5161V2.45326ZM6.47432 2.45326V0.953265H4.97432V2.45326H6.47432ZM6.47432 3.33055H4.97432V4.83055H6.47432V3.33055ZM14.5161 3.33055V4.83055H16.0161V3.33055H14.5161ZM14.4674 3.79356L15.9594 3.94826L16.131 2.29356H14.4674V3.79356ZM6.52306 3.79356V2.29356H4.85949L5.03106 3.94826L6.52306 3.79356ZM7.61967 14.3697L6.12767 14.5244L6.26716 15.8697H7.61967V14.3697ZM13.3708 14.3697V15.8697H14.7233L14.8628 14.5244L13.3708 14.3697ZM7.66841 14.8328V13.3328H6.16841V14.8328H7.66841ZM7.92429 17.5377V16.0377H7.71736L7.51817 16.0938L7.92429 17.5377ZM13.0686 17.5377L13.1932 16.0429L13.131 16.0377H13.0686V17.5377ZM13.3488 14.8328H14.8488V13.3328H13.3488V14.8328ZM13.3245 17.9788L13.3206 16.4788C12.3781 16.4812 11.4361 16.4831 10.4935 16.4849C9.55114 16.4867 8.60818 16.4886 7.66453 16.491L7.66841 17.991L7.67229 19.491C8.61481 19.4886 9.5568 19.4867 10.4994 19.4849C11.4417 19.4831 12.3847 19.4812 13.3284 19.4788L13.3245 17.9788ZM7.66841 17.991L8.27252 16.618C8.32941 16.6431 8.42178 16.6973 8.51034 16.8025C8.60337 16.913 8.66173 17.0442 8.68351 17.1703L7.2054 17.4256L5.72728 17.6809C5.87266 18.5226 6.43793 19.0884 7.0643 19.364L7.66841 17.991ZM7.2054 17.4256L8.70403 17.3617C8.68714 16.9658 8.69847 16.5533 8.71042 16.071C8.72185 15.6101 8.73383 15.084 8.70278 14.559L7.2054 14.6476L5.70801 14.7361C5.73058 15.1177 5.72307 15.5237 5.71134 15.9967C5.70014 16.4484 5.68466 16.9716 5.70676 17.4896L7.2054 17.4256ZM7.2054 14.6476L8.70284 14.5599C8.64817 13.6256 8.45879 12.4258 8.38072 11.6672L6.8886 11.8207L5.39648 11.9743C5.50849 13.0628 5.6554 13.837 5.70796 14.7352L7.2054 14.6476ZM6.8886 11.8207L8.3808 11.668C8.13752 9.29118 7.89817 6.90751 7.64942 4.52484L6.15753 4.6806L4.66563 4.83635C4.91401 7.2154 5.15229 9.58859 5.3964 11.9735L6.8886 11.8207ZM6.15753 4.6806L7.64934 4.52411C7.62604 4.30196 7.58847 4.0733 7.56251 3.90843C7.53325 3.72262 7.51493 3.59562 7.5067 3.49086L6.01131 3.60836L4.51592 3.72585C4.5345 3.96226 4.57101 4.19714 4.59902 4.37504C4.63033 4.57388 4.65246 4.71076 4.66571 4.83708L6.15753 4.6806ZM6.01131 3.60836L7.50699 3.49456C7.49677 3.36022 7.49889 3.2011 7.50607 2.96082C7.51243 2.74826 7.52401 2.44639 7.50954 2.14887L6.01131 2.22176L4.51308 2.29465C4.52054 2.44796 4.51507 2.61519 4.50741 2.87113C4.50059 3.09934 4.49174 3.40811 4.51564 3.72216L6.01131 3.60836ZM6.01131 2.22176L7.46653 2.58556C7.42377 2.75656 7.33696 2.93252 7.20064 3.0854C7.06877 3.23329 6.92643 3.31971 6.81937 3.36788L6.20383 2L5.58828 0.632118C5.13836 0.834582 4.71085 1.23896 4.5561 1.85795L6.01131 2.22176ZM6.20383 2V3.5H14.7842V2V0.5H6.20383V2ZM14.7842 2L14.278 3.41201C14.1091 3.35148 13.8758 3.21765 13.6959 2.9602C13.5287 2.72082 13.4937 2.49623 13.4853 2.40386L14.9791 2.26806L16.473 2.13226C16.4524 1.90586 16.3845 1.57039 16.1552 1.24207C15.9132 0.895668 15.5884 0.694825 15.2904 0.587991L14.7842 2ZM14.9791 2.26806L13.4861 2.4129C13.5312 2.87738 13.4639 3.38494 13.3894 4.11672L14.8817 4.26876L16.3739 4.4208C16.431 3.86103 16.5538 2.96493 16.4721 2.12322L14.9791 2.26806ZM14.8817 4.26876L13.3895 4.11528C13.1532 6.41314 12.9167 8.71201 12.6827 11.0135L14.175 11.1652L15.6673 11.317C15.9011 9.01754 16.1374 6.72039 16.3738 4.42225L14.8817 4.26876ZM14.175 11.1652L12.6826 11.014C12.5895 11.9324 12.3738 13.3008 12.3118 14.3945L13.8094 14.4794L15.307 14.5643C15.3669 13.5087 15.5411 12.562 15.6673 11.3165L14.175 11.1652ZM13.8094 14.4794L12.3117 14.3964C12.2815 14.9425 12.3077 15.5169 12.3241 15.9784C12.3417 16.4777 12.3494 16.8714 12.3165 17.2097L13.8094 17.355L15.3024 17.5002C15.3572 16.9368 15.3393 16.3546 15.3222 15.8724C15.3038 15.3525 15.2862 14.9399 15.3071 14.5624L13.8094 14.4794ZM13.8094 17.355L12.3174 17.2006C12.3384 16.9977 12.4841 16.672 12.8831 16.5484L13.3269 17.9812L13.7707 19.4141C14.7205 19.1199 15.222 18.2776 15.3015 17.5093L13.8094 17.355ZM13.3269 17.9812L14.3876 16.9206L14.3851 16.9181L13.3245 17.9788L12.2638 19.0395L12.2663 19.0419L13.3269 17.9812ZM14.5161 2.45326V0.953265H6.47432V2.45326V3.95326H14.5161V2.45326ZM6.47432 2.45326H4.97432V3.33055H6.47432H7.97432V2.45326H6.47432ZM6.47432 3.33055V4.83055H14.5161V3.33055V1.83055H6.47432V3.33055ZM14.5161 3.33055H16.0161V2.45326H14.5161H13.0161V3.33055H14.5161ZM14.4674 3.79356V2.29356H6.52306V3.79356V5.29356H14.4674V3.79356ZM6.52306 3.79356L5.03106 3.94826L6.12767 14.5244L7.61967 14.3697L9.11167 14.215L8.01506 3.63886L6.52306 3.79356ZM7.61967 14.3697V15.8697H13.3708V14.3697V12.8697H7.61967V14.3697ZM13.3708 14.3697L14.8628 14.5244L15.9594 3.94826L14.4674 3.79356L12.9754 3.63886L11.8788 14.215L13.3708 14.3697ZM13.3464 14.8328V13.3328H7.66841V14.8328V16.3328H13.3464V14.8328ZM7.66841 14.8328H6.16841V17.3793H7.66841H9.16841V14.8328H7.66841ZM7.66841 17.3793H6.16841C6.16841 17.9691 6.49667 18.3451 6.58269 18.4407C6.71872 18.5917 6.86335 18.6981 6.97856 18.7693C7.09671 18.8423 7.24567 18.9164 7.42002 18.9688C7.55121 19.0082 7.90556 19.1012 8.3304 18.9817L7.92429 17.5377L7.51817 16.0938C7.90402 15.9852 8.20689 16.0727 8.28279 16.0955C8.40185 16.1313 8.49172 16.1777 8.55565 16.2172C8.61664 16.2549 8.71192 16.322 8.81215 16.4333C8.86312 16.4899 8.93972 16.5849 9.00912 16.7193C9.07625 16.8494 9.16841 17.0783 9.16841 17.3793H7.66841ZM7.92429 17.5377V19.0377H13.0686V17.5377V16.0377H7.92429V17.5377ZM13.0686 17.5377L12.944 19.0325C13.409 19.0713 13.8153 18.9152 14.0972 18.7231C14.3622 18.5425 14.8488 18.089 14.8488 17.3306H13.3488H11.8488C11.8488 16.6941 12.2538 16.3489 12.408 16.2439C12.579 16.1274 12.8451 16.0139 13.1932 16.0429L13.0686 17.5377ZM13.3488 17.3306H14.8488V14.8328H13.3488H11.8488V17.3306H13.3488ZM13.3488 14.8328V13.3328H13.3464V14.8328V16.3328H13.3488V14.8328Z" fill="#484848" mask="url(#path-1-inside-1_35_2122)"/>
<mask id="path-3-inside-2_35_2122" fill="white">
<path d="M9.55214 9.9492C8.81132 9.20351 9.20609 7.90951 10.2418 7.71943C11.2555 7.53423 12.0987 8.50412 11.738 9.48376C11.4066 10.3854 10.2272 10.6291 9.55214 9.9492ZM11.0947 9.65678C11.9525 8.84772 10.6877 7.57078 9.87137 8.39689C9.07694 9.20107 10.2759 10.4293 11.0947 9.65678Z"/>
</mask>
<path d="M9.55214 9.9492C8.81132 9.20351 9.20609 7.90951 10.2418 7.71943C11.2555 7.53423 12.0987 8.50412 11.738 9.48376C11.4066 10.3854 10.2272 10.6291 9.55214 9.9492ZM11.0947 9.65678C11.9525 8.84772 10.6877 7.57078 9.87137 8.39689C9.07694 9.20107 10.2759 10.4293 11.0947 9.65678Z" fill="#484848"/>
<path d="M9.55214 9.9492L10.2618 9.24465L10.2616 9.24442L9.55214 9.9492ZM10.2418 7.71943L10.0621 6.73571L10.0613 6.73586L10.2418 7.71943ZM11.738 9.48376L10.7996 9.13827L10.7994 9.13876L11.738 9.48376ZM11.0947 9.65678L10.4086 8.9293L10.4085 8.9294L11.0947 9.65678ZM9.87137 8.39689L9.16008 7.694L9.15997 7.69411L9.87137 8.39689ZM9.55214 9.9492L10.2616 9.24442C10.176 9.15825 10.1489 9.04225 10.1865 8.9201C10.2237 8.79934 10.3074 8.72408 10.4223 8.70301L10.2418 7.71943L10.0613 6.73586C8.22023 7.07374 7.54512 9.34785 8.84271 10.654L9.55214 9.9492ZM10.2418 7.71943L10.4215 8.70315C10.6959 8.65302 10.885 8.90624 10.7996 9.13827L11.738 9.48376L12.6765 9.82924C13.3124 8.102 11.8152 6.41543 10.0621 6.73571L10.2418 7.71943ZM11.738 9.48376L10.7994 9.13876C10.7634 9.23688 10.6835 9.30667 10.5678 9.33105C10.4503 9.3558 10.3403 9.32369 10.2618 9.24465L9.55214 9.9492L8.84249 10.6538C10.0206 11.8403 12.0867 11.4337 12.6766 9.82876L11.738 9.48376ZM11.0947 9.65678L11.7808 10.3842C12.1971 9.99164 12.4046 9.48096 12.3791 8.95398C12.3548 8.45476 12.1266 8.0212 11.8248 7.71343C11.523 7.40577 11.0956 7.17055 10.6009 7.13416C10.0786 7.09573 9.5626 7.28667 9.16008 7.694L9.87137 8.39689L10.5827 9.09979C10.5925 9.08985 10.5833 9.10221 10.5514 9.1144C10.5197 9.12657 10.485 9.13103 10.4542 9.12877C10.3994 9.12474 10.3877 9.10442 10.3969 9.11386C10.4061 9.1232 10.3842 9.10894 10.3814 9.05088C10.3798 9.01861 10.3856 8.98382 10.3982 8.95344C10.4107 8.92322 10.4219 8.91669 10.4086 8.9293L11.0947 9.65678ZM9.87137 8.39689L9.15997 7.69411C8.7678 8.09109 8.58239 8.59436 8.61416 9.10388C8.6444 9.58878 8.86571 10.0118 9.16155 10.3157C9.45732 10.6195 9.87423 10.8521 10.3581 10.895C10.8668 10.9401 11.3749 10.7672 11.7809 10.3841L11.0947 9.65678L10.4085 8.9294C10.4001 8.93729 10.4101 8.92559 10.4409 8.91468C10.4716 8.90383 10.5049 8.90017 10.5347 8.90281C10.5883 8.90756 10.6016 8.92773 10.5946 8.92052C10.5877 8.91339 10.607 8.92683 10.6103 8.97941C10.6121 9.00863 10.6077 9.04103 10.5964 9.07041C10.5852 9.09991 10.5739 9.10867 10.5828 9.09968L9.87137 8.39689Z" fill="#484848" mask="url(#path-3-inside-2_35_2122)"/>
<mask id="path-5-inside-3_35_2122" fill="white">
<path d="M7.9779 8.76963C8.06319 8.75013 8.64074 8.75257 8.71628 8.7745C8.92586 8.83786 8.91855 9.1839 8.65293 9.22533C8.3873 9.26676 8.08513 9.23995 7.98765 9.21071C7.76833 9.14248 7.78051 8.81349 7.9779 8.76963Z"/>
</mask>
<path d="M7.9779 8.76963C8.06319 8.75013 8.64074 8.75257 8.71628 8.7745C8.92586 8.83786 8.91855 9.1839 8.65293 9.22533C8.3873 9.26676 8.08513 9.23995 7.98765 9.21071C7.76833 9.14248 7.78051 8.81349 7.9779 8.76963Z" fill="#484848"/>
<path d="M7.9779 8.76963L8.19484 9.74583L8.20073 9.74449L7.9779 8.76963ZM8.71628 8.7745L9.00569 7.81723L8.9951 7.81416L8.71628 8.7745ZM7.98765 9.21071L7.69057 10.1656L7.7003 10.1685L7.98765 9.21071ZM7.9779 8.76963L8.20073 9.74449C8.15462 9.75503 8.1209 9.75884 8.1159 9.75942C8.10571 9.76062 8.10084 9.7609 8.10369 9.7607C8.10934 9.76028 8.12454 9.75941 8.15086 9.75856C8.2024 9.7569 8.27189 9.75611 8.34519 9.75651C8.41875 9.75692 8.48669 9.75849 8.53558 9.76071C8.5473 9.76125 8.55675 9.76176 8.56401 9.76223C8.56758 9.76245 8.57033 9.76265 8.5723 9.7628C8.5743 9.76295 8.57516 9.76303 8.575 9.76301C8.5749 9.763 8.57311 9.76284 8.56991 9.76248C8.56684 9.76213 8.561 9.76143 8.55301 9.76027C8.54541 9.75917 8.53249 9.75717 8.51591 9.75393C8.50076 9.75096 8.4727 9.74508 8.43747 9.73485L8.71628 8.7745L8.9951 7.81416C8.88152 7.78118 8.77408 7.77288 8.75773 7.77138C8.7133 7.7673 8.6674 7.76464 8.6265 7.76278C8.54318 7.75899 8.44724 7.75705 8.3563 7.75654C8.26512 7.75604 8.16951 7.75692 8.08641 7.7596C8.05102 7.76074 7.89073 7.76376 7.75508 7.79477L7.9779 8.76963ZM8.71628 8.7745L8.4269 9.73171C7.97728 9.59578 7.84377 9.17853 7.86671 8.9198C7.89429 8.60883 8.13241 8.29442 8.49882 8.23727L8.65293 9.22533L8.80703 10.2134C9.43906 10.1148 9.81365 9.60666 9.85889 9.09648C9.89951 8.63853 9.66486 8.01658 9.00567 7.81729L8.71628 8.7745ZM8.65293 9.22533L8.49882 8.23727C8.44776 8.24524 8.37441 8.24862 8.30001 8.24544C8.26504 8.24394 8.23857 8.24135 8.22373 8.23943C8.21642 8.23848 8.21559 8.23817 8.2205 8.2391C8.22305 8.23959 8.24353 8.24344 8.275 8.25288L7.98765 9.21071L7.7003 10.1685C7.87036 10.2196 8.07008 10.2374 8.21445 10.2436C8.38192 10.2508 8.59246 10.2468 8.80703 10.2134L8.65293 9.22533ZM7.98765 9.21071L8.28472 8.25585C8.68326 8.37984 8.82727 8.74234 8.8265 8.98419C8.82583 9.1971 8.69096 9.63556 8.19483 9.74582L7.9779 8.76963L7.76097 7.79344C7.06745 7.94756 6.8278 8.57245 6.82651 8.97786C6.82514 9.41223 7.07272 9.97334 7.69058 10.1656L7.98765 9.21071Z" fill="#484848" mask="url(#path-5-inside-3_35_2122)"/>
<mask id="path-7-inside-4_35_2122" fill="white">
<path d="M12.2912 8.76977C12.3643 8.75271 12.9492 8.75027 13.0125 8.76977C13.1978 8.82338 13.2246 9.18648 12.9419 9.22547C12.8273 9.24253 12.4009 9.24253 12.2985 9.21572C12.0768 9.15723 12.0719 8.8185 12.2912 8.76977Z"/>
</mask>
<path d="M12.2912 8.76977C12.3643 8.75271 12.9492 8.75027 13.0125 8.76977C13.1978 8.82338 13.2246 9.18648 12.9419 9.22547C12.8273 9.24253 12.4009 9.24253 12.2985 9.21572C12.0768 9.15723 12.0719 8.8185 12.2912 8.76977Z" fill="#484848"/>
<path d="M12.2912 8.76977L12.5082 9.74601L12.5185 9.74361L12.2912 8.76977ZM13.0125 8.76977L12.7185 9.72554L12.7265 9.728L12.7345 9.73033L13.0125 8.76977ZM12.9419 9.22547L12.8052 8.23479L12.7946 8.23638L12.9419 9.22547ZM12.2985 9.21572L12.0435 10.1827L12.0452 10.1831L12.2985 9.21572ZM12.2912 8.76977L12.5185 9.74361C12.4882 9.75067 12.4645 9.75458 12.4528 9.7564C12.4396 9.75845 12.4296 9.75966 12.4242 9.76027C12.4139 9.76145 12.409 9.76173 12.4123 9.7615C12.4185 9.76105 12.4342 9.76015 12.461 9.75921C12.5132 9.75738 12.5837 9.75619 12.6574 9.75606C12.7315 9.75592 12.7999 9.75685 12.8488 9.75854C12.8605 9.75895 12.8699 9.75936 12.877 9.75973C12.8844 9.76011 12.8875 9.76035 12.8871 9.76032C12.8867 9.76029 12.8845 9.76011 12.8808 9.75973C12.8772 9.75937 12.8704 9.75864 12.8612 9.7574C12.8526 9.75624 12.8373 9.75402 12.8175 9.75025C12.8004 9.74697 12.7641 9.73958 12.7185 9.72554L13.0125 8.76977L13.3066 7.81399C13.176 7.77379 13.0489 7.76688 13.0457 7.76662C13.0024 7.76318 12.9575 7.76111 12.918 7.75974C12.8371 7.75694 12.7428 7.75589 12.6537 7.75606C12.5641 7.75623 12.4707 7.75763 12.3907 7.76044C12.3514 7.76183 12.3089 7.76377 12.2689 7.76664C12.2538 7.76773 12.161 7.7733 12.064 7.79592L12.2912 8.76977ZM13.0125 8.76977L12.7345 9.73033C12.2301 9.58433 12.1442 9.13502 12.1541 8.9496C12.1613 8.81543 12.2087 8.64763 12.3366 8.49729C12.474 8.33581 12.6525 8.25591 12.8052 8.23485L12.9419 9.22547L13.0785 10.2161C13.3726 10.1755 13.6537 10.0356 13.8598 9.79342C14.0564 9.56235 14.1386 9.29312 14.1512 9.0566C14.1721 8.66648 13.9802 8.00881 13.2906 7.8092L13.0125 8.76977ZM12.9419 9.22547L12.7946 8.23638C12.818 8.23289 12.8285 8.2326 12.8165 8.23343C12.8082 8.234 12.7938 8.23479 12.7731 8.2355C12.7317 8.23692 12.6791 8.23758 12.6247 8.23708C12.5696 8.23658 12.5217 8.23497 12.4884 8.23289C12.4715 8.23184 12.465 8.23107 12.4669 8.23129C12.468 8.23142 12.4751 8.23225 12.4864 8.23415C12.4963 8.2358 12.52 8.24 12.5519 8.24835L12.2985 9.21572L12.0452 10.1831C12.1767 10.2175 12.3133 10.2259 12.3639 10.229C12.4429 10.2339 12.5279 10.2363 12.6065 10.237C12.7353 10.2382 12.9441 10.2362 13.0892 10.2146L12.9419 9.22547ZM12.2985 9.21572L12.5535 8.24878C12.9671 8.35786 13.1255 8.72506 13.1294 8.97356C13.1332 9.22381 12.9747 9.64228 12.5082 9.74595L12.2912 8.76977L12.0743 7.79358C11.3885 7.94599 11.1227 8.5582 11.1296 9.00462C11.1365 9.44929 11.4082 10.0151 12.0435 10.1827L12.2985 9.21572Z" fill="#484848" mask="url(#path-7-inside-4_35_2122)"/>
<mask id="path-9-inside-5_35_2122" fill="white">
<path d="M11.8014 10.0881C11.9574 10.0783 12.3473 10.4731 12.4155 10.6071C12.5276 10.824 12.3058 11.036 12.1036 10.9191C12.0573 10.8922 11.6869 10.5218 11.6528 10.4682C11.5455 10.3098 11.5967 10.1003 11.8014 10.0881Z"/>
</mask>
<path d="M11.8014 10.0881C11.9574 10.0783 12.3473 10.4731 12.4155 10.6071C12.5276 10.824 12.3058 11.036 12.1036 10.9191C12.0573 10.8922 11.6869 10.5218 11.6528 10.4682C11.5455 10.3098 11.5967 10.1003 11.8014 10.0881Z" fill="#484848"/>
<path d="M11.8014 10.0881L11.8608 11.0863L11.8638 11.0861L11.8014 10.0881ZM12.4155 10.6071L11.5243 11.0608L11.5272 11.0663L12.4155 10.6071ZM12.1036 10.9191L11.6025 11.7845L11.603 11.7847L12.1036 10.9191ZM11.6528 10.4682L12.4964 9.93135L12.4888 9.91939L12.4809 9.90766L11.6528 10.4682ZM11.8014 10.0881L11.8638 11.0861C11.7644 11.0923 11.6833 11.0811 11.6289 11.0697C11.5735 11.0581 11.5309 11.0434 11.5035 11.0326C11.4514 11.0121 11.4216 10.993 11.4183 10.9909C11.4116 10.9867 11.4298 10.9983 11.4682 11.0332C11.5032 11.065 11.5362 11.0992 11.5591 11.1254C11.5704 11.1383 11.5744 11.1438 11.5726 11.1415C11.5715 11.14 11.5668 11.1337 11.5598 11.1229C11.5535 11.1131 11.5401 11.0917 11.5243 11.0608L12.4155 10.6071L13.3067 10.1534C13.2303 10.0035 13.1234 9.87625 13.0663 9.81081C12.992 9.7256 12.905 9.63659 12.8145 9.55415C12.7274 9.47486 12.6146 9.38123 12.4888 9.30151C12.426 9.26172 12.3396 9.21232 12.236 9.17156C12.1441 9.13538 11.9646 9.07591 11.739 9.09002L11.8014 10.0881ZM12.4155 10.6071L11.5272 11.0663C11.3755 10.7728 11.4403 10.4069 11.6769 10.1747C11.9108 9.94506 12.2924 9.87307 12.6042 10.0534L12.1036 10.9191L11.603 11.7847C12.7292 12.436 13.8432 11.1914 13.3039 10.148L12.4155 10.6071ZM12.1036 10.9191L12.6046 10.0536C12.6437 10.0763 12.6722 10.0965 12.6841 10.1051C12.6984 10.1154 12.7091 10.1238 12.7148 10.1283C12.7209 10.1332 12.7252 10.1369 12.7274 10.1386C12.7296 10.1406 12.7308 10.1416 12.7308 10.1416C12.7309 10.1417 12.7302 10.1411 12.7288 10.1398C12.7274 10.1386 12.7255 10.1368 12.7231 10.1346C12.7181 10.1301 12.7117 10.1241 12.704 10.1168C12.6717 10.0864 12.6275 10.0433 12.5807 9.99658C12.534 9.9499 12.4903 9.90503 12.4587 9.87148C12.4424 9.85425 12.4335 9.84439 12.4305 9.84099C12.4289 9.83915 12.4326 9.84325 12.4393 9.85157C12.4428 9.85588 12.4492 9.86391 12.4574 9.87476C12.4645 9.88429 12.4792 9.90426 12.4964 9.93135L11.6528 10.4682L10.8091 11.0051C10.8616 11.0876 10.923 11.1553 10.9295 11.1628C10.9535 11.19 10.9795 11.2181 11.0035 11.2435C11.0524 11.2954 11.1105 11.3548 11.1665 11.4108C11.2224 11.4667 11.2816 11.5246 11.3329 11.5729C11.3579 11.5964 11.3862 11.6226 11.4138 11.6467C11.4273 11.6586 11.4462 11.6748 11.4678 11.692C11.4787 11.7007 11.5314 11.7433 11.6025 11.7845L12.1036 10.9191ZM11.6528 10.4682L12.4809 9.90766C12.5747 10.0462 12.6476 10.2775 12.5572 10.5442C12.5097 10.6843 12.4174 10.8252 12.2752 10.9315C12.1324 11.0381 11.9808 11.0792 11.8608 11.0863L11.8014 10.0881L11.742 9.08983C11.25 9.11912 10.8238 9.42797 10.663 9.9024C10.5227 10.3166 10.6236 10.7318 10.8246 11.0288L11.6528 10.4682Z" fill="#484848" mask="url(#path-9-inside-5_35_2122)"/>
<mask id="path-11-inside-6_35_2122" fill="white">
<path d="M9.34257 10.1611C9.42055 10.244 9.40593 10.3463 9.35475 10.4389C9.30358 10.5315 8.9746 10.8532 8.91124 10.8971C8.7041 11.0457 8.46772 10.8532 8.56276 10.6217C8.6578 10.3902 8.94048 10.1952 8.98191 10.1636C9.094 10.0807 9.23535 10.0442 9.34013 10.1587L9.34257 10.1611Z"/>
</mask>
<path d="M9.34257 10.1611C9.42055 10.244 9.40593 10.3463 9.35475 10.4389C9.30358 10.5315 8.9746 10.8532 8.91124 10.8971C8.7041 11.0457 8.46772 10.8532 8.56276 10.6217C8.6578 10.3902 8.94048 10.1952 8.98191 10.1636C9.094 10.0807 9.23535 10.0442 9.34013 10.1587L9.34257 10.1611Z" fill="#484848"/>
<path d="M9.34257 10.1611L10.0708 9.47576L10.0604 9.46479L10.0498 9.45413L9.34257 10.1611ZM8.91124 10.8971L8.34203 10.0749L8.33507 10.0797L8.32819 10.0846L8.91124 10.8971ZM8.98191 10.1636L8.38752 9.35939L8.38095 9.36424L8.37446 9.3692L8.98191 10.1636ZM9.34013 10.1587L8.60233 10.8337L8.61727 10.85L8.63292 10.8657L9.34013 10.1587ZM9.34257 10.1611L8.61437 10.8465C8.47277 10.696 8.39582 10.4928 8.39712 10.29C8.39823 10.1169 8.45497 9.99965 8.47951 9.95525L9.35475 10.4389L10.23 10.9226C10.3057 10.7856 10.3954 10.5709 10.3971 10.3028C10.399 10.0049 10.2904 9.70907 10.0708 9.47576L9.34257 10.1611ZM9.35475 10.4389L8.47951 9.95525C8.49951 9.91907 8.51677 9.89399 8.52377 9.88402C8.53202 9.87228 8.53766 9.8651 8.53891 9.86352C8.54106 9.8608 8.53749 9.86542 8.52569 9.87869C8.50246 9.9048 8.46785 9.94141 8.42713 9.98251C8.38715 10.0229 8.34812 10.0607 8.31849 10.0883C8.30346 10.1023 8.29417 10.1105 8.29042 10.1138C8.28855 10.1154 8.29074 10.1135 8.29611 10.1091C8.29915 10.1066 8.31625 10.0927 8.34203 10.0749L8.91124 10.8971L9.48045 11.7193C9.56652 11.6597 9.6524 11.579 9.68165 11.5517C9.73312 11.5038 9.79142 11.4472 9.84799 11.39C9.90384 11.3337 9.96503 11.2698 10.0199 11.2081C10.0503 11.174 10.1553 11.0579 10.23 10.9226L9.35475 10.4389ZM8.91124 10.8971L8.32819 10.0846C8.57394 9.90827 8.95741 9.8883 9.24838 10.1211C9.53358 10.3492 9.60317 10.7205 9.48784 11.0015L8.56276 10.6217L7.63768 10.2419C7.42731 10.7544 7.56757 11.3377 7.99898 11.6828C8.43617 12.0326 9.0414 12.0345 9.49428 11.7095L8.91124 10.8971ZM8.56276 10.6217L9.48784 11.0015C9.47627 11.0297 9.46524 11.0492 9.45866 11.0599C9.452 11.0708 9.44766 11.0762 9.44746 11.0765C9.44716 11.0769 9.44917 11.0743 9.45414 11.069C9.45903 11.0638 9.46552 11.0573 9.47367 11.0498C9.49042 11.0342 9.50898 11.0188 9.52698 11.0047C9.53567 10.998 9.54378 10.9919 9.55177 10.9859C9.55634 10.9825 9.55954 10.9802 9.56523 10.976C9.5684 10.9737 9.57884 10.966 9.58936 10.9579L8.98191 10.1636L8.37446 9.3692C8.38651 9.35999 8.24527 9.46087 8.11121 9.58563C7.98932 9.69905 7.76793 9.92466 7.63768 10.2419L8.56276 10.6217ZM8.98191 10.1636L9.5763 10.9677C9.54285 10.9925 9.43145 11.0683 9.24641 11.0837C9.14542 11.0921 9.02402 11.0816 8.89818 11.0334C8.77115 10.9847 8.67231 10.9102 8.60233 10.8337L9.34013 10.1587L10.0779 9.48367C9.80871 9.1894 9.44027 9.06074 9.08112 9.09053C8.77118 9.11623 8.53306 9.25181 8.38752 9.35939L8.98191 10.1636ZM9.34013 10.1587L8.63292 10.8657L8.63536 10.8681L9.34257 10.1611L10.0498 9.45413L10.0473 9.45169L9.34013 10.1587Z" fill="#484848" mask="url(#path-11-inside-6_35_2122)"/>
<mask id="path-13-inside-7_35_2122" fill="white">
<path d="M12.1694 7.03956C12.3619 7.00057 12.4984 7.19065 12.4253 7.37098C12.4131 7.40266 11.9964 7.84618 11.9647 7.8608C11.7868 7.95096 11.5602 7.84374 11.5943 7.63904C11.6284 7.43434 12.0865 7.05662 12.1694 7.03956Z"/>
</mask>
<path d="M12.1694 7.03956C12.3619 7.00057 12.4984 7.19065 12.4253 7.37098C12.4131 7.40266 11.9964 7.84618 11.9647 7.8608C11.7868 7.95096 11.5602 7.84374 11.5943 7.63904C11.6284 7.43434 12.0865 7.05662 12.1694 7.03956Z" fill="#484848"/>
<path d="M12.1694 7.03956L11.9709 6.05945L11.9677 6.0601L12.1694 7.03956ZM12.4253 7.37098L11.4985 6.99527L11.4951 7.00361L11.4919 7.012L12.4253 7.37098ZM11.9647 7.8608L11.5456 6.95284L11.529 6.96053L11.5126 6.96883L11.9647 7.8608ZM12.1694 7.03956L12.3679 8.01966C12.071 8.07979 11.7709 7.95429 11.5978 7.72422C11.4349 7.50762 11.4037 7.22922 11.4985 6.99527L12.4253 7.37098L13.352 7.74668C13.52 7.3324 13.4571 6.8688 13.196 6.52183C12.9249 6.16138 12.4603 5.96034 11.9709 6.05946L12.1694 7.03956ZM12.4253 7.37098L11.4919 7.012C11.5041 6.98039 11.5159 6.95442 11.5251 6.93548C11.5345 6.91612 11.5432 6.89981 11.5502 6.88716C11.5639 6.86251 11.5761 6.84319 11.5839 6.83111C11.5992 6.80743 11.612 6.79021 11.6173 6.78308C11.6236 6.77456 11.6284 6.76854 11.6305 6.7659C11.6317 6.76436 11.6327 6.76322 11.6332 6.76253C11.6338 6.76183 11.6341 6.76143 11.6342 6.76136C11.6343 6.76127 11.6336 6.76202 11.6322 6.76373C11.6308 6.76539 11.6288 6.76766 11.6263 6.77056C11.6212 6.77644 11.6146 6.78394 11.6064 6.79309C11.5728 6.8308 11.5248 6.88294 11.4736 6.9374C11.4224 6.99187 11.3734 7.04293 11.3378 7.07882C11.3292 7.08752 11.3221 7.09456 11.3166 7.10001C11.3139 7.1027 11.3118 7.10477 11.3102 7.10627C11.3086 7.10781 11.3079 7.10846 11.308 7.10836C11.308 7.10834 11.3096 7.10688 11.3124 7.10434C11.3149 7.10204 11.3207 7.09688 11.3288 7.08999C11.3357 7.08419 11.352 7.07052 11.3746 7.05384C11.3862 7.04532 11.4044 7.0322 11.4279 7.01724C11.4399 7.00956 11.4553 7.00008 11.4736 6.98974C11.4915 6.97961 11.5159 6.96656 11.5456 6.95284L11.9647 7.8608L12.3837 8.76876C12.4813 8.72371 12.5499 8.67215 12.5629 8.66255C12.5889 8.64333 12.6094 8.62634 12.6211 8.61648C12.645 8.59623 12.6654 8.5773 12.6781 8.56534C12.7052 8.53986 12.7337 8.5116 12.7588 8.48628C12.8106 8.43391 12.8725 8.36937 12.9309 8.30717C12.9894 8.24497 13.0499 8.17937 13.0988 8.12456C13.1224 8.09805 13.1488 8.06807 13.1723 8.03969C13.1834 8.02639 13.2009 8.00496 13.2196 7.98C13.2286 7.96788 13.2444 7.94637 13.262 7.91915C13.2703 7.90639 13.319 7.83288 13.3586 7.72996L12.4253 7.37098ZM11.9647 7.8608L11.5126 6.96883C11.7123 6.86763 11.9612 6.86268 12.1826 6.98465C12.2993 7.04898 12.4205 7.15671 12.5022 7.31577C12.587 7.48074 12.6054 7.6551 12.5807 7.80344L11.5943 7.63904L10.6079 7.47464C10.5148 8.03284 10.8054 8.50934 11.2174 8.73633C11.588 8.94055 12.0392 8.94413 12.4168 8.75277L11.9647 7.8608ZM11.5943 7.63904L12.5807 7.80344C12.5609 7.92222 12.5213 8.00029 12.508 8.02533C12.4917 8.0559 12.4802 8.07017 12.4827 8.06689C12.4884 8.05943 12.5106 8.03336 12.5507 7.99547C12.5889 7.95935 12.625 7.92981 12.6462 7.91403C12.6576 7.90552 12.6544 7.9087 12.6382 7.91845C12.6303 7.92323 12.6092 7.93567 12.5781 7.9504C12.5621 7.958 12.5382 7.96873 12.5078 7.97997C12.4792 7.99058 12.4319 8.0065 12.371 8.01902L12.1694 7.03956L11.9677 6.0601C11.7725 6.10029 11.6259 6.19342 11.6064 6.20519C11.5491 6.23966 11.4963 6.27675 11.4526 6.30925C11.3635 6.37548 11.2674 6.45636 11.1764 6.5424C11.0873 6.62666 10.9834 6.73446 10.891 6.85594C10.8226 6.94585 10.6585 7.17086 10.6079 7.47464L11.5943 7.63904Z" fill="#484848" mask="url(#path-13-inside-7_35_2122)"/>
<mask id="path-15-inside-8_35_2122" fill="white">
<path d="M8.96729 7.80469C8.90149 7.74864 8.63587 7.47327 8.592 7.41235C8.46528 7.23202 8.6115 6.99564 8.81864 7.0395C9.02577 7.08337 9.28652 7.45378 9.3377 7.52201C9.51803 7.7657 9.23535 8.04107 8.96729 7.80713V7.80469Z"/>
</mask>
<path d="M8.96729 7.80469C8.90149 7.74864 8.63587 7.47327 8.592 7.41235C8.46528 7.23202 8.6115 6.99564 8.81864 7.0395C9.02577 7.08337 9.28652 7.45378 9.3377 7.52201C9.51803 7.7657 9.23535 8.04107 8.96729 7.80713V7.80469Z" fill="#484848"/>
<path d="M8.96729 7.80469H9.96729V7.3429L9.61575 7.04345L8.96729 7.80469ZM8.592 7.41235L7.77376 7.98733L7.78047 7.99665L8.592 7.41235ZM9.3377 7.52201L10.1416 6.92716L10.1377 6.92201L9.3377 7.52201ZM8.96729 7.80713H7.96729V8.26167L8.30975 8.56055L8.96729 7.80713ZM8.96729 7.80469L9.61575 7.04345C9.62927 7.05496 9.63408 7.05997 9.62419 7.05055C9.61715 7.04383 9.60646 7.03342 9.59223 7.01927C9.56389 6.99109 9.52865 6.95516 9.49286 6.91787C9.45686 6.88036 9.42384 6.84517 9.39936 6.81828C9.38698 6.80467 9.37945 6.79613 9.37605 6.79218C9.36761 6.78237 9.38236 6.79863 9.40354 6.82804L8.592 7.41235L7.78047 7.99665C7.85351 8.0981 7.99081 8.24118 8.04998 8.30283C8.12168 8.37752 8.24044 8.49916 8.31882 8.56594L8.96729 7.80469ZM8.592 7.41235L9.4102 6.8374C9.58774 7.09006 9.58358 7.41792 9.43307 7.66386C9.28027 7.91352 8.96147 8.09193 8.61147 8.01781L8.81864 7.0395L9.02581 6.0612C7.80882 5.80348 7.19712 7.16662 7.77381 7.98729L8.592 7.41235ZM8.81864 7.0395L8.61147 8.01781C8.52189 7.99884 8.45897 7.96908 8.42693 7.95196C8.39352 7.9341 8.37401 7.91936 8.36899 7.91548C8.36313 7.91096 8.36372 7.9109 8.37068 7.91753C8.37729 7.92382 8.38669 7.93334 8.39862 7.94639C8.42313 7.97319 8.44901 8.00469 8.4737 8.03655C8.48562 8.05193 8.49645 8.06634 8.5063 8.07961C8.51135 8.0864 8.51587 8.09253 8.52082 8.09925C8.52486 8.10474 8.53153 8.11379 8.5377 8.12201L9.3377 7.52201L10.1377 6.92201C10.1401 6.92527 10.0947 6.86321 10.0546 6.81145C10.0095 6.7533 9.94765 6.67666 9.87468 6.59685C9.80434 6.51991 9.7075 6.42213 9.59087 6.33213C9.48821 6.25291 9.29207 6.11758 9.02581 6.0612L8.81864 7.0395ZM9.3377 7.52201L8.53386 8.11685C8.33189 7.84393 8.32844 7.37743 8.66938 7.08483C8.82438 6.9518 9.02207 6.88657 9.21689 6.89696C9.41294 6.90742 9.5513 6.98954 9.62482 7.0537L8.96729 7.80713L8.30975 8.56055C8.751 8.94564 9.44935 9.05099 9.9719 8.60254C10.4761 8.16981 10.5238 7.44379 10.1415 6.92717L9.3377 7.52201ZM8.96729 7.80713H9.96729V7.80469H8.96729H7.96729V7.80713H8.96729Z" fill="#484848" mask="url(#path-15-inside-8_35_2122)"/>
<mask id="path-17-inside-9_35_2122" fill="white">
<path d="M10.4635 6.35718C10.5854 6.345 10.6999 6.43516 10.7146 6.55944C10.7292 6.68373 10.7316 7.13456 10.7097 7.23691C10.6658 7.43673 10.3661 7.45135 10.2954 7.27346C10.2247 7.09557 10.2613 6.60818 10.2832 6.51802C10.3051 6.42785 10.388 6.36693 10.466 6.35962L10.4635 6.35718Z"/>
</mask>
<path d="M10.4635 6.35718C10.5854 6.345 10.6999 6.43516 10.7146 6.55944C10.7292 6.68373 10.7316 7.13456 10.7097 7.23691C10.6658 7.43673 10.3661 7.45135 10.2954 7.27346C10.2247 7.09557 10.2613 6.60818 10.2832 6.51802C10.3051 6.42785 10.388 6.36693 10.466 6.35962L10.4635 6.35718Z" fill="#484848"/>
<path d="M10.4635 6.35718L10.364 5.36214L8.26386 5.57216L9.75655 7.0644L10.4635 6.35718ZM10.7097 7.23691L11.6864 7.45132L11.6875 7.44643L10.7097 7.23691ZM10.466 6.35962L10.5593 7.35525L12.6777 7.15666L11.173 5.6524L10.466 6.35962ZM10.4635 6.35718L10.5631 7.35222C10.1464 7.39389 9.77101 7.09797 9.7214 6.67629L10.7146 6.55944L11.7077 6.4426C11.6288 5.77236 11.0244 5.29611 10.364 5.36214L10.4635 6.35718ZM10.7146 6.55944L9.7214 6.67629C9.71991 6.66365 9.72019 6.66214 9.72113 6.67821C9.72191 6.69156 9.72277 6.7106 9.72354 6.73498C9.72509 6.78376 9.72595 6.84362 9.72582 6.90424C9.72569 6.96561 9.72455 7.02045 9.72275 7.06056C9.72184 7.08082 9.72102 7.09152 9.72077 7.09427C9.7198 7.10514 9.72165 7.07507 9.73187 7.02738L10.7097 7.23691L11.6875 7.44643C11.7129 7.32783 11.7185 7.20063 11.7207 7.15014C11.7242 7.07305 11.7256 6.98823 11.7258 6.90856C11.7261 6.76971 11.7228 6.57109 11.7077 6.4426L10.7146 6.55944ZM10.7097 7.23691L9.73293 7.0225C9.82871 6.58617 10.2041 6.41638 10.4411 6.39939C10.6602 6.38369 11.0567 6.48129 11.2248 6.90426L10.2954 7.27346L9.36605 7.64265C9.60475 8.24353 10.1865 8.42276 10.5841 8.39427C10.9996 8.36449 11.5468 8.08746 11.6864 7.45131L10.7097 7.23691ZM10.2954 7.27346L11.2248 6.90426C11.2371 6.93537 11.2446 6.96027 11.2488 6.97593C11.2531 6.99202 11.2555 7.00361 11.2566 7.00943C11.2586 7.02006 11.258 7.02049 11.257 7.00783C11.2547 6.98161 11.2533 6.93832 11.2544 6.88244C11.2554 6.82849 11.2586 6.7764 11.262 6.73715C11.2638 6.71754 11.2652 6.70532 11.2659 6.70065C11.2662 6.69837 11.2659 6.70077 11.2648 6.70689C11.2641 6.71105 11.2611 6.72888 11.2549 6.75437L10.2832 6.51802L9.31155 6.28167C9.27276 6.44115 9.25798 6.67989 9.25478 6.84324C9.25283 6.94272 9.25414 7.06026 9.26424 7.17827C9.27256 7.27559 9.29281 7.45828 9.36605 7.64265L10.2954 7.27346ZM10.2832 6.51802L11.2549 6.75437C11.2089 6.9434 11.1031 7.08573 10.9903 7.17886C10.8819 7.26832 10.736 7.33869 10.5593 7.35525L10.466 6.35962L10.3726 5.36398C9.90736 5.4076 9.44293 5.74154 9.31155 6.28167L10.2832 6.51802ZM10.466 6.35962L11.173 5.6524L11.1705 5.64997L10.4635 6.35718L9.75655 7.0644L9.75899 7.06683L10.466 6.35962Z" fill="#484848" mask="url(#path-17-inside-9_35_2122)"/>
<path d="M10.5001 11.139C10.4904 11.1395 10.481 11.1395 10.4718 11.139C10.4747 11.1386 10.4773 11.1381 10.4796 11.138C10.4855 11.1377 10.4926 11.1386 10.5001 11.139Z" fill="#484848" stroke="#484848"/>
</svg>
