<svg width="20" height="20" viewBox="0 0 20 20" fill="none" xmlns="http://www.w3.org/2000/svg">
<path fill-rule="evenodd" clip-rule="evenodd" d="M12.2683 2C19.5942 7.02043 17.225 12.5562 17.225 12.5562C17.225 12.5562 19.3083 14.9268 18.4658 17C18.4658 17 17.6067 15.5482 16.1658 15.5482C14.7767 15.5482 13.9608 17 11.1658 17C4.94249 17 2 11.7603 2 11.7603C7.60667 15.4776 11.435 12.8451 11.435 12.8451C8.90916 11.3673 3.53582 4.2998 3.53582 4.2998C8.21499 8.3143 10.2375 9.37305 10.2375 9.37305C9.03084 8.36711 5.64499 3.45182 5.64499 3.45182C8.35333 6.21605 13.735 10.0725 13.735 10.0725C15.2633 5.80443 12.2683 2 12.2683 2Z" fill="#484848"/>
</svg>
