<svg width="20" height="20" viewBox="0 0 20 20" fill="none" xmlns="http://www.w3.org/2000/svg">
<path d="M14.8583 1.5083H5.13333C4.21286 1.5083 3.46667 2.25449 3.46667 3.17497V16.8166C3.46667 17.7371 4.21286 18.4833 5.13333 18.4833H14.8583C15.7788 18.4833 16.525 17.7371 16.525 16.8166V3.17497C16.525 2.25449 15.7788 1.5083 14.8583 1.5083Z" fill="#484848" stroke="#484848" stroke-linecap="round" stroke-linejoin="round"/>
<path d="M10.0083 14.325H10C9.70545 14.325 9.46667 14.5637 9.46667 14.8583V14.8666C9.46667 15.1612 9.70545 15.4 10 15.4H10.0083C10.3029 15.4 10.5417 15.1612 10.5417 14.8666V14.8583C10.5417 14.5637 10.3029 14.325 10.0083 14.325Z" fill="#484848" stroke="white" stroke-linecap="round" stroke-linejoin="round"/>
</svg>
