<svg width="20" height="20" viewBox="0 0 20 20" fill="none" xmlns="http://www.w3.org/2000/svg">
<path d="M9.45833 2.25836L4.45833 6.42502C4.43932 6.43967 4.42409 6.45867 4.41394 6.48042C4.40379 6.50217 4.39901 6.52604 4.4 6.55002V16.2584C4.4 16.7004 4.57559 17.1243 4.88815 17.4369C5.20071 17.7494 5.62464 17.925 6.06667 17.925H13.8833C14.3254 17.925 14.7493 17.7494 15.0618 17.4369C15.3744 17.1243 15.55 16.7004 15.55 16.2584V6.66669C15.551 6.6415 15.5463 6.61641 15.5362 6.59332C15.5261 6.57022 15.5108 6.54972 15.4917 6.53335L10.4917 2.29169C10.3483 2.17061 10.1683 2.10145 9.98079 2.0954C9.79326 2.08935 9.60918 2.14677 9.45833 2.25836Z" fill="#484848" stroke="#484848" stroke-linecap="round" stroke-linejoin="round"/>
<path d="M10 8.4833C10.718 8.4833 11.3 7.90127 11.3 7.1833C11.3 6.46533 10.718 5.8833 10 5.8833C9.28203 5.8833 8.7 6.46533 8.7 7.1833C8.7 7.90127 9.28203 8.4833 10 8.4833Z" stroke="#F9F9FA" stroke-linecap="round" stroke-linejoin="round"/>
</svg>
