<svg width="20" height="20" viewBox="0 0 20 20" fill="none" xmlns="http://www.w3.org/2000/svg">
<path d="M9.875 15.875C13.1887 15.875 15.875 13.1887 15.875 9.875C15.875 6.56129 13.1887 3.875 9.875 3.875C6.56129 3.875 3.875 6.56129 3.875 9.875C3.875 13.1887 6.56129 15.875 9.875 15.875Z" stroke="#484848" stroke-width="1.5" stroke-linecap="round" stroke-linejoin="round"/>
<path d="M15.875 9.875H17.75" stroke="#484848" stroke-width="1.5" stroke-linecap="round" stroke-linejoin="round"/>
<path d="M2 9.875H3.875" stroke="#484848" stroke-width="1.5" stroke-linecap="round" stroke-linejoin="round"/>
<path d="M9.875 3.875V2" stroke="#484848" stroke-width="1.5" stroke-linecap="round" stroke-linejoin="round"/>
<path d="M9.875 17.75V15.875" stroke="#484848" stroke-width="1.5" stroke-linecap="round" stroke-linejoin="round"/>
<path d="M9.875 12.875C11.5319 12.875 12.875 11.5319 12.875 9.875C12.875 8.21815 11.5319 6.875 9.875 6.875C8.21815 6.875 6.875 8.21815 6.875 9.875C6.875 11.5319 8.21815 12.875 9.875 12.875Z" stroke="#484848" stroke-width="1.5" stroke-linecap="round" stroke-linejoin="round"/>
</svg>
