<svg width="20" height="20" viewBox="0 0 20 20" fill="none" xmlns="http://www.w3.org/2000/svg">
<path fill-rule="evenodd" clip-rule="evenodd" d="M12.3667 10.65V4.11663C12.3667 3.46685 12.1086 2.84368 11.6491 2.38422C11.1896 1.92475 10.5665 1.66663 9.91669 1.66663C9.2669 1.66663 8.64374 1.92475 8.18427 2.38422C7.72481 2.84368 7.46668 3.46685 7.46668 4.11663V10.65C6.78106 11.1642 6.27462 11.8811 6.01908 12.6991C5.76354 13.5172 5.77187 14.3949 6.04289 15.2079C6.3139 16.021 6.83386 16.7281 7.52911 17.2292C8.22437 17.7303 9.05966 18 9.91669 18C10.7737 18 11.609 17.7303 12.3043 17.2292C12.9995 16.7281 13.5195 16.021 13.7905 15.2079C14.0615 14.3949 14.0698 13.5172 13.8143 12.6991C13.5588 11.8811 13.0523 11.1642 12.3667 10.65Z" stroke="#484848" stroke-linecap="round" stroke-linejoin="round"/>
<path d="M9.91666 15.55C10.8187 15.55 11.55 14.8187 11.55 13.9167C11.55 13.0146 10.8187 12.2833 9.91666 12.2833C9.0146 12.2833 8.28333 13.0146 8.28333 13.9167C8.28333 14.8187 9.0146 15.55 9.91666 15.55Z" stroke="#484848" stroke-linecap="round" stroke-linejoin="round"/>
<path d="M9.91669 7.3833V12.2833" stroke="#484848" stroke-linecap="round" stroke-linejoin="round"/>
</svg>
