<svg width="20" height="20" viewBox="0 0 20 20" fill="none" xmlns="http://www.w3.org/2000/svg">
<path d="M12.5 2.5H7.5C4.73858 2.5 2.5 4.73858 2.5 7.5V12.5C2.5 15.2614 4.73858 17.5 7.5 17.5H12.5C15.2614 17.5 17.5 15.2614 17.5 12.5V7.5C17.5 4.73858 15.2614 2.5 12.5 2.5Z" stroke="#484848" stroke-linecap="round" stroke-linejoin="round"/>
<path d="M10.252 4.00917C10.8803 4 11.5037 4.00458 12.1272 4C12.1656 4.70124 12.4294 5.41623 12.9665 5.91123C13.5037 6.41997 14.2614 6.65372 15 6.73163V8.57869C14.3094 8.55578 13.614 8.41828 12.9857 8.13412C12.7123 8.01495 12.4581 7.8637 12.2088 7.70787C12.204 9.04619 12.2135 10.3845 12.1992 11.7182C12.1608 12.3599 11.9402 12.997 11.5517 13.524C10.9234 14.404 9.83476 14.9769 8.7173 14.9953C8.03148 15.0319 7.34565 14.8532 6.76055 14.5232C5.79177 13.9778 5.11074 12.9786 5.01002 11.9062C5.00043 11.677 4.99564 11.4478 5.00523 11.2232C5.09156 10.3524 5.54238 9.51826 6.24258 8.94994C7.03871 8.28995 8.15137 7.9737 9.1921 8.16161C9.20169 8.83994 9.17291 9.51826 9.17291 10.1966C8.69811 10.0499 8.14178 10.0912 7.72454 10.3662C7.42239 10.5541 7.19218 10.8428 7.07229 11.1682C6.97157 11.402 7.00035 11.6587 7.00514 11.9062C7.12024 12.6578 7.87801 13.2903 8.68373 13.2216C9.22087 13.217 9.73404 12.9191 10.0122 12.4836C10.1033 12.3324 10.204 12.1766 10.2088 11.9978C10.2568 11.1774 10.2376 10.3616 10.2424 9.54118C10.2472 7.69412 10.2376 5.85164 10.252 4.00917Z" fill="#484848"/>
</svg>
