<svg width="20" height="20" viewBox="0 0 20 20" fill="none" xmlns="http://www.w3.org/2000/svg">
<path d="M13.9661 6.983C13.8922 6.34561 13.4821 5.77166 12.8964 5.43998C12.6867 5.31885 12.6867 5.14869 12.6929 4.92949C12.6929 4.23153 12.6898 2.68274 12.6898 2.13187C12.696 1.87807 12.6498 1.66752 12.474 1.44545C11.8667 0.66961 9.61004 1.16568 8.61428 1.06185C8.22892 1.05032 7.79115 1.09646 7.5291 1.38776C7.34722 1.58677 7.26706 1.78866 7.26398 2.03093C7.25781 2.64813 7.26398 4.29786 7.26089 4.99871C7.32255 5.40826 6.89403 5.49767 6.63507 5.75436C6.27438 6.06296 6.02466 6.59364 6 7.02915C6 7.87997 6 14.975 6 17.5563C6.00617 17.761 6.07399 17.9456 6.18189 18.1591C6.47476 18.7734 7.20232 18.9955 7.87439 18.9868C9.13836 19.0358 10.4763 18.932 11.765 18.9378C12.7361 19.0041 13.6363 18.8714 13.9168 17.862C14.071 16.7718 13.9631 9.22975 13.9661 6.98589V6.983ZM8.06552 1.85211C8.1426 1.79443 8.28441 1.77135 8.46013 1.75982C9.44049 1.76847 10.4578 1.68194 11.4289 1.72521C12.1195 1.79443 12.0024 1.97613 12.0116 2.53277C12.0116 3.25957 12.0116 4.13635 12.0116 4.84873C12.0085 5.02467 12.0208 5.07947 11.879 5.08523C11.4906 5.08812 11.0004 5.08523 10.5164 5.08523C9.95224 5.08523 9.35108 5.08523 8.79308 5.08523C8.58345 5.08523 8.39231 5.08523 8.19192 5.08523C8.05936 5.08523 7.97304 5.09677 7.97612 4.94391C7.96996 4.38727 7.97612 3.81621 7.97612 3.25092C7.97612 2.90771 7.97612 2.63371 7.97612 2.33088C7.98229 2.17513 7.94529 1.93575 8.06861 1.85211H8.06552ZM13.2725 8.0011C13.2602 11.191 13.2972 14.3866 13.2571 17.5736C13.2386 17.7236 13.1862 17.8678 13.0844 17.986C12.8686 18.2196 12.5943 18.3436 12.286 18.3235C11.3365 18.2744 8.67902 18.4129 7.33488 18.2744C6.84162 18.11 6.6474 17.6457 6.67823 17.1784C6.67207 13.4204 6.71214 10.0517 6.68748 7.32045C6.58883 6.63402 7.14991 6.08026 7.79115 5.84376C8.10252 5.73417 8.41389 5.75724 8.75301 5.76012C9.63779 5.76878 10.5503 5.69667 11.4166 5.7284C12.1257 5.72263 12.8964 6.02547 13.1738 6.6744C13.3403 7.0926 13.2602 7.55695 13.2787 7.99534V8.0011H13.2725Z" fill="#484848" stroke="#484848" stroke-width="0.1"/>
</svg>
