<svg width="20" height="20" viewBox="0 0 20 20" fill="none" xmlns="http://www.w3.org/2000/svg">
<path d="M8.10086 5.505C9.08233 5.48458 12.6453 5.49625 12.9092 5.49042C12.9642 5.49042 13.0605 5.51958 13.1264 5.54292C13.5883 5.6975 13.9127 6.14083 13.9897 6.64541C14.0062 6.83791 13.9952 7.46498 13.9979 8.59664C13.9924 11.7962 14.0089 17.7345 13.9924 18.0436C13.9704 18.1866 13.9127 18.4345 13.734 18.6707C13.3491 19.1753 12.747 19.1782 12.6591 19.1753C11.1965 19.1695 9.73665 19.1636 8.27406 19.1607C7.95515 19.0965 7.51253 18.9478 7.2541 18.5482C7.0864 18.2886 7.06166 18.0232 7.05066 17.9124C6.98743 17.1716 6.98193 13.5462 7.04241 8.60539C6.99018 7.77998 7.01217 7.20249 7.04241 6.82916C7.04791 6.75916 7.05616 6.69791 7.07265 6.61916C7.17437 6.05916 7.57026 5.61292 8.09811 5.505H8.10086Z" fill="#484848"/>
<path d="M12.934 5.03849C12.8817 5.11141 12.7855 5.10558 12.7058 5.11141C11.4191 5.09974 9.18129 5.14058 8.22456 5.09683C8.05136 5.06474 8.09809 4.75558 8.0871 4.601C8.0871 4.00017 8.0871 2.97935 8.0871 2.3056C8.0871 2.1656 8.09259 2.02561 8.11734 1.89436C8.19432 1.43936 8.60395 1.12728 9.02733 1.05145C9.19778 1.01645 9.37648 1.00478 9.55518 1.00186C10.2177 0.990198 10.9105 1.03686 11.5814 1.0427C12.0927 1.03686 12.6508 1.13603 12.8927 1.67561C12.989 1.90019 12.978 2.13935 12.9807 2.50393C12.9807 2.73435 12.9807 3.01435 12.9807 3.30309C12.9807 3.77559 12.9807 4.181 12.9807 4.59225C12.9807 4.75558 12.9807 4.98891 12.934 5.04141V5.03849Z" fill="#484848"/>
</svg>
