<svg width="20" height="20" viewBox="0 0 20 20" fill="none" xmlns="http://www.w3.org/2000/svg">
<path d="M3.99166 15H3.33333C2.8913 15 2.46738 14.8244 2.15482 14.5119C1.84226 14.1993 1.66666 13.7754 1.66666 13.3334V5.40837C1.66666 4.96634 1.84226 4.54242 2.15482 4.22985C2.46738 3.91729 2.8913 3.7417 3.33333 3.7417H11.4833C11.9254 3.7417 12.3493 3.91729 12.6618 4.22985C12.9744 4.54242 13.15 4.96634 13.15 5.40837V11.1667" stroke="#484848" stroke-width="1.5" stroke-linecap="round" stroke-linejoin="round"/>
<path d="M13.125 6.82508H15.4417C15.5908 6.82471 15.7381 6.85828 15.8724 6.92325C16.0067 6.98822 16.1244 7.08288 16.2167 7.20008L18.1 9.70008C18.2925 9.95771 18.3976 10.2701 18.4 10.5917V14.7584C18.4 14.8026 18.3824 14.845 18.3512 14.8763C18.3199 14.9075 18.2775 14.9251 18.2333 14.9251H15.6917" stroke="#484848" stroke-width="1.5" stroke-linecap="round" stroke-linejoin="round"/>
<path d="M13.7583 16.7167C14.7893 16.7167 15.625 15.881 15.625 14.8501C15.625 13.8191 14.7893 12.9834 13.7583 12.9834C12.7274 12.9834 11.8917 13.8191 11.8917 14.8501C11.8917 15.881 12.7274 16.7167 13.7583 16.7167Z" stroke="#484848" stroke-width="1.5" stroke-linecap="round" stroke-linejoin="round"/>
<path d="M5.85 16.7167C6.88093 16.7167 7.71666 15.881 7.71666 14.8501C7.71666 13.8191 6.88093 12.9834 5.85 12.9834C4.81906 12.9834 3.98333 13.8191 3.98333 14.8501C3.98333 15.881 4.81906 16.7167 5.85 16.7167Z" stroke="#484848" stroke-width="1.5" stroke-linecap="round" stroke-linejoin="round"/>
<path d="M11.9 14.9584H7.625" stroke="#484848" stroke-width="1.5" stroke-linecap="round" stroke-linejoin="round"/>
</svg>
