<svg width="20" height="20" viewBox="0 0 20 20" fill="none" xmlns="http://www.w3.org/2000/svg">
<path d="M9.51336 2H9.82003C11.8127 2 13.7237 2.79158 15.1328 4.20061C16.5418 5.60964 17.3334 7.52069 17.3334 9.51336C17.3334 9.55403 17.3172 9.59303 17.2885 9.62178C17.2597 9.65054 17.2207 9.66669 17.18 9.66669H2.15333C2.11267 9.66669 2.07367 9.65054 2.04491 9.62178C2.01615 9.59303 2 9.55403 2 9.51336C2 7.52069 2.79158 5.60964 4.20061 4.20061C5.60964 2.79158 7.52069 2 9.51336 2Z" stroke="#484848" stroke-width="1.5" stroke-linecap="round" stroke-linejoin="round"/>
<path d="M9.66671 9.66675V15.8001C9.66671 16.2068 9.50517 16.5968 9.21761 16.8843C8.93005 17.1719 8.54004 17.3334 8.13338 17.3334C7.72671 17.3334 7.3367 17.1719 7.04914 16.8843C6.76158 16.5968 6.60004 16.2068 6.60004 15.8001V15.0334" stroke="#484848" stroke-width="1.5" stroke-linecap="round" stroke-linejoin="round"/>
</svg>
