<svg width="20" height="20" viewBox="0 0 20 20" fill="none" xmlns="http://www.w3.org/2000/svg">
<path d="M9.5117 2H9.8183C11.8105 2 13.7212 2.79141 15.1299 4.20013C16.5386 5.60884 17.33 7.51947 17.33 9.5117C17.33 9.55236 17.3138 9.59135 17.2851 9.6201C17.2564 9.64885 17.2174 9.665 17.1767 9.665H2.1533C2.11264 9.665 2.07365 9.64885 2.0449 9.6201C2.01615 9.59135 2 9.55236 2 9.5117C2 7.51947 2.79141 5.60884 4.20013 4.20013C5.60884 2.79141 7.51947 2 9.5117 2Z" fill="#484848" stroke="#484848" stroke-width="1.5" stroke-linecap="round" stroke-linejoin="round"/>
<path d="M9.665 9.66504V15.797C9.665 16.2036 9.50349 16.5935 9.21599 16.881C8.9285 17.1685 8.53858 17.33 8.132 17.33C7.72542 17.33 7.3355 17.1685 7.048 16.881C6.76051 16.5935 6.599 16.2036 6.599 15.797V15.0305" stroke="#484848" stroke-width="1.5" stroke-linecap="round" stroke-linejoin="round"/>
</svg>
