<svg width="20" height="20" viewBox="0 0 20 20" fill="none" xmlns="http://www.w3.org/2000/svg">
<path d="M15.6895 7.69141H5.84571C5.16614 7.69141 4.61523 8.24231 4.61523 8.92188V15.0743C4.61523 15.7538 5.16614 16.3047 5.84571 16.3047H15.6895C16.3691 16.3047 16.92 15.7538 16.92 15.0743V8.92188C16.92 8.24231 16.3691 7.69141 15.6895 7.69141Z" fill="#484848" stroke="#484848" stroke-linecap="round" stroke-linejoin="round"/>
<path d="M4 4H6.46095C6.78729 4 7.10027 4.12964 7.33103 4.3604C7.56179 4.59116 7.69143 4.90413 7.69143 5.23048V7.69143" stroke="#484848" stroke-linecap="round" stroke-linejoin="round"/>
<path d="M10.7676 12.6134C11.6171 12.6134 12.3057 11.9248 12.3057 11.0753C12.3057 10.2259 11.6171 9.53723 10.7676 9.53723C9.91818 9.53723 9.22955 10.2259 9.22955 11.0753C9.22955 11.9248 9.91818 12.6134 10.7676 12.6134Z" fill="#F9F9FA"/>
<path d="M10.7676 12.6133V14.459" stroke="white" stroke-linecap="round" stroke-linejoin="round"/>
</svg>
