<svg width="20" height="20" viewBox="0 0 20 20" fill="none" xmlns="http://www.w3.org/2000/svg">
<path d="M2 14.8889L2.26307 13.9299C3.13221 10.7664 6.86183 10.7664 7.73097 13.9299L7.99404 14.8889" stroke="#484848" stroke-width="0.7" stroke-linecap="round" stroke-linejoin="round"/>
<path d="M4.99701 11.5522C5.91657 11.5522 6.66202 10.8067 6.66202 9.88718C6.66202 8.96762 5.91657 8.22217 4.99701 8.22217C4.07745 8.22217 3.332 8.96762 3.332 9.88718C3.332 10.8067 4.07745 11.5522 4.99701 11.5522Z" stroke="#484848" stroke-width="0.7" stroke-linecap="round" stroke-linejoin="bevel"/>
<path d="M7.55557 12.6666L7.81864 11.7076C8.68778 8.54408 12.4174 8.54408 13.2865 11.7076L13.5496 12.6666" stroke="#484848" stroke-width="0.7" stroke-linecap="round" stroke-linejoin="round"/>
<path d="M10.5526 9.33002C11.4721 9.33002 12.2176 8.58457 12.2176 7.66501C12.2176 6.74545 11.4721 6 10.5526 6C9.63302 6 8.88757 6.74545 8.88757 7.66501C8.88757 8.58457 9.63302 9.33002 10.5526 9.33002Z" stroke="#484848" stroke-width="0.7" stroke-linecap="round" stroke-linejoin="bevel"/>
<path d="M12 16L12.2631 15.041C13.1322 11.8775 16.8619 11.8775 17.731 15.041L17.9941 16" stroke="#484848" stroke-width="0.7" stroke-linecap="round" stroke-linejoin="round"/>
<path d="M14.997 12.6634C15.9166 12.6634 16.6621 11.9179 16.6621 10.9984C16.6621 10.0788 15.9166 9.33337 14.997 9.33337C14.0775 9.33337 13.332 10.0788 13.332 10.9984C13.332 11.9179 14.0775 12.6634 14.997 12.6634Z" stroke="#484848" stroke-width="0.7" stroke-linecap="round" stroke-linejoin="bevel"/>
</svg>
