<svg width="20" height="20" viewBox="0 0 20 20" fill="none" xmlns="http://www.w3.org/2000/svg">
<path d="M8.47702 6.45141C8.50419 6.46929 8.50419 6.46929 8.5319 6.48752C8.97309 6.78124 9.38165 7.12284 9.70577 7.53285C9.72753 7.55923 9.74929 7.58561 9.77171 7.61279C10.3698 8.34749 10.7386 9.20156 11.0043 10.0878C11.0177 10.1392 11.0177 10.1392 11.0515 10.1671C11.0665 10.1402 11.0814 10.1134 11.0968 10.0857C11.6981 9.02547 12.6485 8.36664 13.8546 8.01854C14.5261 7.83293 15.205 7.74435 15.9034 7.74593C15.9858 7.74602 16.0681 7.74536 16.1504 7.74466C16.2035 7.7446 16.2566 7.74458 16.3096 7.74461C16.3339 7.74435 16.3581 7.7441 16.3831 7.74383C16.5785 7.7453 16.7152 7.78143 16.868 7.90373C16.9969 8.05027 16.9995 8.18305 16.9993 8.36613C16.9995 8.3906 16.9996 8.41508 16.9998 8.4403C17.0002 8.51967 17 8.59903 16.9997 8.67841C16.9996 8.71894 16.9996 8.71894 16.9995 8.7603C16.9981 9.17037 16.983 9.56901 16.9027 9.97301C16.8977 9.99924 16.8927 10.0255 16.8875 10.0525C16.6618 11.2043 16.1118 12.3513 15.0684 13.0381C13.7849 13.8566 12.3096 13.9991 10.8008 13.9989C10.7212 13.9989 10.6416 13.9991 10.562 13.9994C9.82428 14.0029 9.07979 13.9938 8.35085 13.8759C8.3224 13.8714 8.3224 13.8714 8.29338 13.8669C7.41077 13.7288 6.53127 13.5135 5.72696 13.1341C5.70622 13.1245 5.68549 13.1148 5.66413 13.1048C5.35738 12.9603 5.06945 12.7959 4.79076 12.6073C4.77464 12.5964 4.75852 12.5855 4.74191 12.5743C4.17702 12.1881 3.71252 11.7138 3.32796 11.1654C3.31038 11.1403 3.31038 11.1403 3.29244 11.1147C2.67685 10.2227 2.33356 9.17751 2.14858 8.13422C2.14497 8.11405 2.14136 8.09387 2.13764 8.07309C2.03781 7.50789 2.00112 6.9496 2.00221 6.37659C2.0023 6.27342 2.00161 6.17027 2.00087 6.06711C2.00081 6.00089 2.00079 5.93467 2.00082 5.86845C2.00055 5.83792 2.00028 5.80739 2 5.77594C2.00133 5.5673 2.0229 5.4279 2.1687 5.26426C3.22481 4.4301 7.45667 5.77747 8.47702 6.45141ZM2.94764 6.00775C2.91158 7.62028 3.15611 9.40795 4.17639 10.7494C4.1876 10.7642 4.19882 10.7791 4.21037 10.7943C5.23859 12.1412 6.83808 12.7407 8.5226 12.998C8.91576 13.0542 9.30792 13.0899 9.70577 13.0787C9.55366 12.9037 9.38627 12.7453 9.21628 12.586C9.18469 12.5563 9.1531 12.5266 9.12152 12.4969C9.05384 12.4332 8.98612 12.3696 8.91837 12.3059C8.81116 12.2052 8.70413 12.1044 8.59713 12.0034C8.57903 11.9864 8.56092 11.9693 8.54227 11.9517C8.50527 11.9168 8.46826 11.8819 8.43126 11.847C8.1824 11.6123 7.93341 11.3778 7.684 11.1436C7.51539 10.9853 7.34704 10.8268 7.17899 10.6679C7.09018 10.584 7.00124 10.5003 6.91198 10.4168C6.82807 10.3383 6.74452 10.2595 6.66121 10.1804C6.63066 10.1516 6.59999 10.1228 6.56918 10.0942C6.23126 9.77999 6.23126 9.77999 6.22195 9.55586C6.23184 9.41941 6.27754 9.32681 6.37059 9.22432C6.49107 9.14466 6.59542 9.13111 6.738 9.12738C6.99551 9.17697 7.16958 9.3881 7.34631 9.55737C7.37947 9.58882 7.41265 9.62025 7.44585 9.65167C7.53555 9.73667 7.62498 9.82192 7.71436 9.90722C7.80795 9.99645 7.90179 10.0854 7.99561 10.1745C8.17306 10.3429 8.35029 10.5116 8.52743 10.6803C8.72919 10.8725 8.93119 11.0644 9.13321 11.2563C9.54864 11.6509 9.96375 12.0458 10.3787 12.4409C10.4029 12.3554 10.4094 12.2885 10.4021 12.1999C10.4 12.1741 10.3978 12.1483 10.3957 12.1217C10.3931 12.0938 10.3905 12.0659 10.3878 12.0371C10.3851 12.0077 10.3823 11.9783 10.3795 11.948C10.2154 10.2788 9.68439 8.5633 8.29788 7.4368C8.01108 7.21432 7.69094 7.03341 7.36529 6.86735C7.33497 6.85152 7.30465 6.83568 7.27341 6.81937C5.96196 6.16334 4.41127 5.99267 2.94764 6.00775ZM12.3461 9.91408C11.7386 10.5759 11.4328 11.5482 11.4026 12.4132C11.5409 12.3039 11.6712 12.1899 11.7975 12.0684C11.8153 12.0514 11.8331 12.0345 11.8514 12.017C11.8896 11.9805 11.9278 11.9439 11.9659 11.9074C12.0264 11.8495 12.0869 11.7917 12.1475 11.734C12.3196 11.5699 12.4916 11.4057 12.6633 11.2413C12.7686 11.1404 12.8742 11.0397 12.9798 10.9392C13.02 10.9009 13.06 10.8626 13.1 10.8242C13.1558 10.7705 13.2119 10.7172 13.268 10.6639C13.2844 10.648 13.3008 10.6321 13.3176 10.6158C13.4452 10.4955 13.5335 10.4492 13.712 10.4357C13.8285 10.4391 13.9079 10.4661 14.0064 10.5276C14.125 10.6491 14.1637 10.7442 14.1608 10.9112C14.1342 11.1087 13.9894 11.2527 13.8451 11.3858C13.8263 11.4037 13.8074 11.4215 13.788 11.4399C13.7262 11.4982 13.664 11.5562 13.6018 11.6141C13.5587 11.6547 13.5156 11.6954 13.4725 11.7361C13.3594 11.8426 13.246 11.9489 13.1325 12.0551C12.9504 12.2256 12.7688 12.3967 12.5871 12.5677C12.5236 12.6275 12.4599 12.6871 12.3962 12.7467C12.3575 12.783 12.3188 12.8193 12.2802 12.8556C12.2533 12.8806 12.2534 12.8806 12.226 12.9061C12.185 12.9446 12.1448 12.9838 12.1048 13.0232C12.1048 13.0324 12.1048 13.0415 12.1048 13.0509C12.724 13.0385 13.3955 12.8719 13.9479 12.6073C13.9646 12.5994 13.9813 12.5916 13.9985 12.5836C14.874 12.1713 15.4383 11.5082 15.7526 10.6385C15.9772 9.98814 16.0698 9.32403 16.0543 8.64201C14.6883 8.59393 13.3002 8.95861 12.3461 9.91408Z" fill="#484848"/>
</svg>
