<svg width="20" height="20" viewBox="0 0 20 20" fill="none" xmlns="http://www.w3.org/2000/svg">
<path d="M9.47702 6.53123C9.49529 6.54396 9.51356 6.55669 9.53238 6.5698C11.0729 7.65631 11.8591 9.39649 12.1923 11.2085C12.3413 12.0789 12.3563 12.9358 12.3441 13.816C12.2222 13.7681 12.1409 13.679 12.0507 13.5876C12.0244 13.5612 12.0244 13.5612 11.9975 13.5343C11.9387 13.4753 11.88 13.4162 11.8213 13.357C11.7792 13.3147 11.7371 13.2724 11.6949 13.2301C11.6041 13.139 11.5134 13.0479 11.4227 12.9566C11.2794 12.8124 11.1359 12.6684 10.9923 12.5245C10.6358 12.1669 10.2794 11.809 9.92329 11.4511C9.64651 11.1729 9.36965 10.8948 9.09247 10.617C8.94968 10.4738 8.8071 10.3305 8.66467 10.187C8.57607 10.0979 8.48729 10.0089 8.39845 9.91997C8.35725 9.87865 8.31612 9.83726 8.27508 9.79578C8.2191 9.73923 8.16285 9.68296 8.10653 9.62674C8.0903 9.61022 8.07407 9.5937 8.05735 9.57667C7.93702 9.45744 7.84778 9.40447 7.67961 9.38918C7.52992 9.40231 7.44088 9.44727 7.33219 9.55009C7.27089 9.65226 7.24231 9.74815 7.25357 9.86642C7.31272 10.0347 7.39096 10.1375 7.51738 10.2613C7.54419 10.2883 7.54419 10.2883 7.57155 10.3158C7.63124 10.3757 7.69134 10.4351 7.75145 10.4946C7.79444 10.5376 7.8374 10.5805 7.88033 10.6235C7.99679 10.74 8.11359 10.8562 8.23047 10.9722C8.35262 11.0936 8.47444 11.2154 8.59629 11.3371C8.82701 11.5674 9.05802 11.7975 9.28914 12.0274C9.55229 12.2893 9.8151 12.5514 10.0779 12.8136C10.6184 13.3529 11.1593 13.8918 11.7005 14.4304C11.6214 14.5094 11.5803 14.4964 11.4697 14.4966C11.4157 14.4968 11.4157 14.4968 11.3605 14.497C11.3208 14.4968 11.2812 14.4965 11.2415 14.4962C11.2213 14.4961 11.2012 14.496 11.1804 14.4959C9.66548 14.4871 8.09686 14.2636 6.72696 13.5819C6.70623 13.5717 6.68549 13.5615 6.66413 13.551C6.35738 13.3986 6.06945 13.2251 5.79077 13.0261C5.77464 13.0146 5.75852 13.0031 5.74191 12.9913C5.17702 12.5839 4.71252 12.0834 4.32797 11.5048C4.31038 11.4783 4.31038 11.4783 4.29244 11.4513C3.67685 10.5102 3.33356 9.40745 3.14858 8.30671C3.14497 8.28542 3.14136 8.26414 3.13764 8.2422C3.03781 7.64589 3.00112 7.05685 3.00221 6.45229C3.0023 6.34344 3.00161 6.23461 3.00087 6.12576C3.00081 6.0559 3.00079 5.98603 3.00082 5.91617C3.00055 5.88396 3.00028 5.85175 3 5.81856C3.00133 5.59843 3.0229 5.45136 3.1687 5.27871C4.22436 4.39899 8.45723 5.81979 9.47702 6.53123Z" fill="#484848"/>
<path d="M16.9034 7.89698C16.9858 7.89708 17.0681 7.89638 17.1504 7.89565C17.2035 7.89558 17.2566 7.89556 17.3096 7.89559C17.346 7.89519 17.346 7.89519 17.3831 7.89478C17.5785 7.89632 17.7152 7.93444 17.868 8.06347C17.9969 8.21809 17.9995 8.35818 17.9993 8.55134C17.9995 8.57716 17.9996 8.60298 17.9998 8.62959C18.0002 8.71333 18 8.79706 17.9997 8.88081C17.9996 8.90932 17.9995 8.93783 17.9995 8.96721C17.9981 9.39986 17.983 9.82046 17.9027 10.2467C17.8952 10.2882 17.8952 10.2882 17.8875 10.3306C17.6552 11.5814 17.0799 12.7916 16.0072 13.5323C15.3172 13.9863 14.534 14.245 13.7246 14.3828C13.6958 14.3877 13.6671 14.3926 13.6374 14.3976C13.4675 14.4246 13.3061 14.4349 13.134 14.4303C13.1381 14.4113 13.1421 14.3922 13.1463 14.3726C13.194 14.1328 13.204 13.8995 13.2091 13.6557C13.2104 13.6112 13.2104 13.6112 13.2117 13.5658C13.2123 13.5393 13.2128 13.5129 13.2134 13.4856C13.2335 13.2953 13.3086 13.1858 13.4435 13.0557C13.4685 13.0309 13.4685 13.0309 13.494 13.0056C13.5301 12.9699 13.5663 12.9343 13.6026 12.8988C13.6601 12.8426 13.7174 12.7861 13.7745 12.7294C13.8959 12.6091 14.0178 12.4894 14.1397 12.3696C14.2808 12.2308 14.4217 12.0919 14.5623 11.9526C14.6185 11.8971 14.675 11.8418 14.7315 11.7866C14.7662 11.7523 14.8009 11.718 14.8356 11.6836C14.8512 11.6685 14.8668 11.6534 14.883 11.6378C15.0111 11.51 15.1135 11.3804 15.1362 11.1957C15.1177 11.0499 15.0726 10.9598 14.9735 10.8519C14.8608 10.7858 14.7567 10.7575 14.6261 10.7733C14.4113 10.8606 14.2737 10.9932 14.1132 11.1578C14.0875 11.1836 14.0619 11.2094 14.0355 11.236C13.9679 11.304 13.9006 11.3724 13.8335 11.4408C13.7646 11.5109 13.6955 11.5806 13.6263 11.6503C13.4912 11.7868 13.3564 11.9235 13.2218 12.0606C13.2025 12.0509 13.1832 12.0413 13.1633 12.0313C13.1487 11.9609 13.1487 11.9609 13.1381 11.8663C13.134 11.8312 13.1298 11.796 13.1255 11.7598C13.1188 11.7023 13.1188 11.7023 13.1121 11.6437C13.0358 11.0239 12.9173 10.4155 12.7273 9.81982C12.7146 9.77945 12.7146 9.77945 12.7017 9.73826C12.6903 9.70316 12.6903 9.70316 12.6786 9.66734C12.6642 9.59435 12.6686 9.55517 12.6952 9.48604C12.7484 9.42323 12.8012 9.36614 12.8597 9.30868C12.8852 9.2836 12.8852 9.2836 12.9112 9.25802C13.9515 8.25766 15.4982 7.89363 16.9034 7.89698Z" fill="#484848"/>
</svg>
