<svg width="20" height="20" viewBox="0 0 20 20" fill="none" xmlns="http://www.w3.org/2000/svg">
<path d="M10 17C13.866 17 17 13.866 17 10C17 6.13401 13.866 3 10 3C6.13401 3 3 6.13401 3 10C3 13.866 6.13401 17 10 17Z" fill="#484848" stroke="#484848" stroke-width="1.5" stroke-linecap="round" stroke-linejoin="round"/>
<path fill-rule="evenodd" clip-rule="evenodd" d="M7.98401 6.68196V13.318C7.98401 13.451 8.09601 13.542 8.18701 13.479L13.339 10.161C13.3625 10.1413 13.3815 10.1166 13.3945 10.0888C13.4074 10.061 13.4142 10.0307 13.4142 9.99996C13.4142 9.96926 13.4074 9.93894 13.3945 9.91112C13.3815 9.8833 13.3625 9.85867 13.339 9.83896L8.18701 6.49996C8.09601 6.45796 7.98401 6.54896 7.98401 6.68196Z" fill="#F9F9FA" stroke="#F9F9FA" stroke-width="1.3" stroke-linecap="round" stroke-linejoin="round"/>
</svg>
