<svg width="20" height="20" viewBox="0 0 20 20" fill="none" xmlns="http://www.w3.org/2000/svg">
<path d="M17.9624 10.0884L15.8873 12.387C15.1392 13.21 14.2274 13.8676 13.2104 14.3176C12.1933 14.7676 11.0934 15 9.98121 15C8.86903 15 7.76913 14.7676 6.75206 14.3176C5.73498 13.8676 4.82317 13.21 4.07511 12.387L2 10.0884L3.85164 7.86964C4.60068 6.97143 5.53797 6.24881 6.59718 5.75293C7.6564 5.25704 8.81166 5 9.98121 5C11.1508 5 12.306 5.25704 13.3652 5.75293C14.4244 6.24881 15.3617 6.97143 16.1108 7.86964L17.9624 10.0884Z" fill="#484848" stroke="#484848" stroke-width="1.5" stroke-linecap="round" stroke-linejoin="round"/>
<path d="M10.053 11.7964C11.1991 11.7964 12.1281 10.9031 12.1281 9.80109C12.1281 8.69911 11.1991 7.80579 10.053 7.80579C8.90697 7.80579 7.97791 8.69911 7.97791 9.80109C7.97791 10.9031 8.90697 11.7964 10.053 11.7964Z" fill="white" stroke="#F9F9FA" stroke-width="1.5" stroke-linecap="round" stroke-linejoin="bevel"/>
</svg>
