<svg width="20" height="20" viewBox="0 0 20 20" fill="none" xmlns="http://www.w3.org/2000/svg">
<path d="M9.98119 3.00003C10.0225 3.00005 10.0225 3.00005 10.0647 3.00007C10.5156 3.00119 10.9503 3.02596 11.3928 3.11948C11.4212 3.12548 11.4497 3.13147 11.479 3.13765C11.948 3.23993 12.4036 3.38359 12.8402 3.58364C12.7998 3.69111 12.7492 3.78962 12.6951 3.89081C12.4049 4.45245 12.3265 5.14816 12.507 5.75599C12.7606 6.48257 13.1967 7.02244 13.8916 7.36008C14.5102 7.63293 15.1976 7.65473 15.8323 7.42663C15.993 7.36212 16.1423 7.28266 16.2926 7.19743C16.3632 7.16042 16.3632 7.16042 16.4178 7.16042C16.6618 7.73335 16.8433 8.31853 16.9367 8.93516C16.9415 8.96571 16.9463 8.99625 16.9513 9.02773C16.9973 9.34778 17.001 9.66512 16.9998 9.98805C16.9998 10.0159 16.9997 10.0438 16.9996 10.0725C16.9983 10.4719 16.9915 10.8637 16.9094 11.256C16.9012 11.2959 16.9012 11.2959 16.8929 11.3366C16.6165 12.6576 16.018 13.8587 15.0796 14.8327C15.0623 14.8507 15.0451 14.8688 15.0273 14.8873C14.7775 15.1464 14.5236 15.385 14.233 15.5972C14.2016 15.6207 14.1701 15.6441 14.1387 15.6675C13.915 15.8324 13.6828 15.9794 13.441 16.116C13.4217 16.127 13.4024 16.138 13.3825 16.1493C12.7507 16.5049 12.0632 16.7438 11.3535 16.8891C11.3339 16.8931 11.3142 16.8971 11.294 16.9012C10.87 16.9818 10.4494 17.0008 10.0187 17C9.97738 16.9999 9.97738 16.9999 9.93519 16.9999C9.48432 16.9988 9.04964 16.974 8.60716 16.8805C8.5787 16.8745 8.55025 16.8685 8.52094 16.8623C8.05192 16.7601 7.59631 16.6164 7.15974 16.4164C7.19055 16.3349 7.22514 16.2564 7.26364 16.1784C7.56142 15.5734 7.68914 14.9049 7.4929 14.244C7.2357 13.5069 6.78935 12.9679 6.08612 12.6263C5.52111 12.3697 4.85217 12.3365 4.26489 12.5392C4.21752 12.555 4.21752 12.555 4.1692 12.5711C3.99667 12.6329 3.84301 12.7087 3.68936 12.8085C3.63676 12.8396 3.63676 12.8396 3.58215 12.8396C3.37685 12.3576 3.21436 11.867 3.10934 11.3532C3.10532 11.3336 3.1013 11.314 3.09716 11.2938C3.01592 10.8666 2.99845 10.4441 3.0001 10.0102C3.00016 9.98245 3.00022 9.95465 3.00028 9.92602C3.00164 9.52714 3.00849 9.13582 3.09057 8.74403C3.09599 8.71742 3.10142 8.6908 3.10701 8.66337C3.3834 7.34237 3.98194 6.14133 4.92033 5.16726C4.93759 5.14925 4.95485 5.13125 4.97264 5.1127C5.22237 4.85364 5.47628 4.61501 5.76693 4.40275C5.79837 4.37932 5.8298 4.3559 5.86124 4.33247C6.0849 4.16762 6.3171 4.02065 6.55892 3.88398C6.57823 3.873 6.59755 3.86202 6.61745 3.85071C7.24927 3.49507 7.93669 3.25619 8.64642 3.11095C8.66605 3.10693 8.68568 3.1029 8.70591 3.09876C9.12994 3.01818 9.55053 2.99915 9.98119 3.00003ZM8.79833 8.471C8.43318 8.91466 8.35141 9.37164 8.35425 9.93123C8.35454 9.99988 8.35425 10.0685 8.3539 10.1372C8.35342 10.6371 8.42759 11.044 8.74371 11.4471C8.76479 11.4742 8.78588 11.5012 8.80761 11.5291C9.08073 11.8534 9.51871 12.0166 9.92945 12.0537C10.359 12.0706 10.7887 11.9031 11.1111 11.6229C11.2102 11.526 11.2959 11.4306 11.3655 11.3106C11.331 11.2073 11.2984 11.1971 11.206 11.143C11.1792 11.1273 11.1524 11.1115 11.1248 11.0953C11.0967 11.079 11.0685 11.0628 11.0394 11.0461C11.0114 11.0295 10.9833 11.013 10.9544 10.9959C10.8264 10.9099 10.8264 10.9099 10.6827 10.8737C10.6588 10.9018 10.6362 10.931 10.6144 10.9607C10.4861 11.1162 10.3063 11.1975 10.1092 11.2287C9.86226 11.2454 9.64281 11.1906 9.44886 11.032C9.25178 10.8375 9.17595 10.6155 9.17238 10.3428C9.1724 10.3221 9.17243 10.3014 9.17245 10.2801C9.17233 10.258 9.17222 10.2359 9.1721 10.2132C9.17194 10.1668 9.17193 10.1204 9.17204 10.074C9.17213 10.0038 9.17149 9.93359 9.1708 9.86338C9.1695 9.5336 9.18169 9.23766 9.42645 8.98977C9.61394 8.83356 9.80289 8.75635 10.051 8.76462C10.2671 8.78955 10.4424 8.86751 10.6008 9.01707C10.6289 9.05284 10.6564 9.08911 10.6827 9.12628C10.8466 9.08383 10.9759 8.99552 11.1163 8.90444C11.1403 8.88906 11.1643 8.87368 11.189 8.85783C11.2479 8.82006 11.3067 8.78212 11.3655 8.74403C11.2469 8.43084 10.9736 8.24633 10.6832 8.10325C10.0307 7.81291 9.30282 7.95885 8.79833 8.471Z" fill="#484848"/>
<path d="M15.9108 3.56314C16.3297 3.84437 16.5895 4.23905 16.6909 4.73037C16.7718 5.19792 16.6764 5.66775 16.4092 6.05972C16.1296 6.45387 15.7255 6.72044 15.2435 6.80545C14.6986 6.85409 14.2455 6.75663 13.8063 6.41979C13.563 6.21268 13.386 5.95872 13.2771 5.6587C13.2685 5.6348 13.2598 5.6109 13.2508 5.58628C13.1148 5.1396 13.1685 4.62956 13.3796 4.21673C13.6564 3.7509 14.0392 3.465 14.563 3.32726C15.0315 3.22918 15.5083 3.31041 15.9108 3.56314Z" fill="#484848"/>
<path d="M6.11162 13.517C6.44388 13.7678 6.69598 14.1415 6.79277 14.5498C6.86632 15.115 6.778 15.6035 6.43091 16.0648C6.1556 16.3925 5.78446 16.6259 5.35729 16.6894C4.82282 16.731 4.36487 16.6516 3.93302 16.3236C3.59676 16.0308 3.33904 15.6245 3.30351 15.1716C3.28341 14.6209 3.37311 14.1647 3.7426 13.7406C4.38127 13.0845 5.36297 12.9994 6.11162 13.517Z" fill="#484848"/>
</svg>
