<svg width="20" height="20" viewBox="0 0 20 20" fill="none" xmlns="http://www.w3.org/2000/svg">
<path d="M7.71022 1.00285H12.3485C12.5761 1.02561 12.7582 1.16789 12.8379 1.38131C12.9176 1.59472 12.8891 1.54635 12.8891 1.55773V3.19393H13.3587C13.4867 3.19393 13.6916 3.42158 13.7115 3.55247C13.7969 4.09882 13.6717 4.87566 13.7115 5.459C13.7144 5.50737 13.72 5.5529 13.7371 5.59843C13.8908 5.62404 14.0103 5.60697 14.1668 5.65819C14.5225 5.77486 14.8611 6.13055 14.9522 6.49479C15.0489 10.0774 14.9636 13.677 14.9949 17.2681C14.9522 17.8685 14.5367 18.2897 13.9505 18.3864H9.17284C7.46834 18.9384 5.66425 18.0535 5.14636 16.3262C4.55164 14.3315 5.82645 12.2656 7.93502 12.129V6.90739C7.92648 6.36389 8.24518 5.84315 8.77446 5.66957C9.30373 5.49599 9.07324 5.62404 9.23259 5.58705L9.24682 3.60938C9.25251 3.46426 9.49439 3.19393 9.62813 3.19393H10.0407V2.39717H8.11998C8.10575 2.39717 7.90941 2.31465 7.8781 2.29758C7.622 2.16668 7.50818 1.92196 7.48257 1.64025C7.45696 1.35854 7.43135 1.03699 7.71022 1V1.00285ZM12.3485 1.5435H8.03746C7.95209 1.5435 8.02038 1.84229 8.18543 1.87928C8.78584 1.93335 9.46593 1.82521 10.0578 1.88497C10.8005 1.95896 10.5017 2.6049 10.5558 3.09434C10.5615 3.13417 10.5558 3.17117 10.6013 3.18824L12.3485 3.16263V1.54066V1.5435ZM9.75902 3.73459V5.61266H13.2022V3.73459H9.75902ZM14.4542 7.80375V6.67975C14.4542 6.65698 14.3489 6.44641 14.3233 6.41226C14.1953 6.23015 14.0018 6.14478 13.7827 6.12771C12.2973 6.20454 10.7038 6.02242 9.22975 6.12771C8.98218 6.14478 8.73747 6.21592 8.59519 6.43218C8.45291 6.64845 8.47567 6.67406 8.47567 6.71105V7.80659H14.4514L14.4542 7.80375ZM8.50697 8.31595H8.47852V12.1575C10.9826 12.4136 12.0639 15.6234 10.4704 17.4929C10.3623 17.6209 10.2285 17.7262 10.109 17.8401C9.98951 17.9539 10.0578 17.8486 10.0749 17.9055C10.0834 17.9482 10.1403 17.934 10.1745 17.934C11.3497 18.0108 12.6074 17.8714 13.7912 17.934C13.8339 17.951 13.868 17.9083 13.8879 17.9027C14.1611 17.8258 14.4001 17.6352 14.4571 17.3478V8.3131H8.50982L8.50697 8.31595ZM9.80455 13.3384C8.75169 12.3595 6.99029 12.516 6.1167 13.6542C4.87034 15.279 5.70125 17.6779 7.75575 17.9909C10.3879 18.3892 11.7139 15.1168 9.80455 13.3412V13.3384Z" fill="#484848"/>
<path d="M9.69074 17.0376C8.64642 18.1104 6.87079 17.8571 6.17078 16.5425C5.50492 15.2961 6.01427 13.5603 7.41714 13.1193C9.73912 12.3879 11.3213 15.3672 9.69359 17.0404L9.69074 17.0376ZM7.92649 14.875C7.94357 14.8607 7.9521 14.8294 7.95495 14.7811C7.95495 14.727 7.95495 14.653 7.95495 14.562C7.95495 14.4311 7.95495 14.2689 7.95495 14.1095V13.7595C7.94357 13.6428 7.99194 13.4863 7.87812 13.4351C7.70454 13.3668 7.45413 13.4749 7.28909 13.5632C7.16957 13.6315 7.03299 13.6969 6.94193 13.7993C6.89355 13.8619 6.9277 13.9075 6.99315 13.9871C7.10697 14.1209 7.2464 14.2603 7.38014 14.3998C7.48543 14.5079 7.59356 14.616 7.68177 14.7042C7.73869 14.764 7.88096 14.9205 7.92649 14.875ZM8.26796 13.4579C8.21105 13.5262 8.21389 13.6172 8.2082 13.7026C8.19967 13.9075 8.20251 14.1294 8.2082 14.3372C8.21959 14.451 8.19113 14.912 8.34764 14.8721C8.39032 14.8579 8.43585 14.8152 8.47569 14.7811C8.71756 14.5477 8.98789 14.2632 9.20131 13.9957C9.2383 13.9445 9.27529 13.8876 9.26106 13.8306C9.21553 13.6912 9.01919 13.6002 8.88829 13.5404C8.74032 13.4835 8.39601 13.3298 8.27365 13.455H8.27081L8.26796 13.4579ZM9.00781 15.2506C9.17 15.2506 9.3322 15.242 9.4944 15.2449C9.70782 15.2563 10.0094 15.2591 9.97815 14.9632C9.95823 14.7697 9.8444 14.5079 9.73343 14.3286C9.61107 14.1152 9.48017 14.1579 9.3322 14.3229C9.15862 14.505 8.90821 14.764 8.73179 14.949C8.44439 15.2221 8.75455 15.2506 9.00212 15.2477H9.00781V15.2506ZM6.29598 15.1738C6.35574 15.2221 6.46672 15.2221 6.54924 15.2221C6.74274 15.2221 6.94193 15.2193 7.13543 15.2221C7.24071 15.2136 7.63625 15.2762 7.64763 15.1425C7.62486 15.0713 7.56511 15.0372 7.49397 14.9603C7.44275 14.9091 7.38584 14.8494 7.32323 14.7896C7.16957 14.6331 7.00738 14.4737 6.85371 14.3172C6.77404 14.2347 6.71144 14.1806 6.65453 14.1806C6.48379 14.2006 6.40696 14.505 6.35005 14.6473C6.31021 14.7896 6.18785 15.0656 6.29598 15.1681V15.1738ZM8.58951 15.5408C8.5326 15.5693 8.66349 15.7087 8.72041 15.7628C8.80577 15.8538 8.91106 15.9677 9.0135 16.0786C9.11594 16.1896 9.18423 16.2608 9.26106 16.3376C9.35497 16.423 9.41188 16.5112 9.51716 16.5567C9.66229 16.5766 9.79887 16.2351 9.85863 16.0957C9.92123 15.9193 10.0094 15.7429 9.94969 15.5835C9.88993 15.4896 9.77042 15.5209 9.66229 15.5152C9.56838 15.5152 9.45456 15.5152 9.33505 15.5152C9.15009 15.5152 8.9822 15.5152 8.81715 15.5152C8.70333 15.5152 8.62081 15.5152 8.58951 15.538V15.5408ZM7.65616 15.5551C7.64763 15.5351 7.56795 15.538 7.43421 15.538C7.28055 15.538 7.11551 15.538 6.93624 15.538C6.81388 15.538 6.69152 15.538 6.59192 15.538C6.47526 15.5465 6.33582 15.5124 6.27322 15.6063C6.21631 15.7599 6.31875 15.9876 6.37851 16.1526C6.43542 16.2835 6.5094 16.477 6.62607 16.5311C6.73989 16.5624 6.8338 16.4087 6.92201 16.3319C6.99599 16.2551 7.08705 16.164 7.17811 16.0701C7.30047 15.9449 7.40575 15.8368 7.51104 15.7286C7.6021 15.6319 7.66186 15.5778 7.65332 15.5579L7.65616 15.5551ZM7.94072 17.2624C8.0204 17.1656 8.00048 17.0376 8.00617 16.8953C8.00617 16.7673 8.00332 16.6108 8.00048 16.4571C7.99763 16.3063 7.99479 16.1583 7.99194 16.016C7.9834 15.9563 8.00048 15.8282 7.92934 15.8225C7.90373 15.8225 7.88665 15.8368 7.86389 15.851C7.77283 15.9136 7.69031 15.999 7.6021 16.0872C7.43706 16.2522 7.2777 16.4201 7.11266 16.5852C7.06144 16.6364 7.00738 16.6933 6.97038 16.753C6.84802 16.9608 7.09559 17.0575 7.28909 17.1628C7.47689 17.2425 7.76714 17.4047 7.94072 17.2652V17.2624ZM8.32203 17.2909C8.42162 17.3222 8.5326 17.2909 8.65496 17.2567C8.75171 17.2282 8.84277 17.1884 8.93951 17.1343C9.03626 17.0831 9.14155 17.012 9.20131 16.9522C9.28383 16.8782 9.26675 16.8185 9.19846 16.753C9.0135 16.5709 8.49845 16.0616 8.34195 15.9079C8.31064 15.8795 8.26796 15.8311 8.26796 15.9079C8.26512 16.2124 8.26796 16.6478 8.26796 16.9608C8.27365 17.0888 8.24235 17.2539 8.32203 17.288V17.2909Z" fill="#484848"/>
</svg>
