<svg width="20" height="20" viewBox="0 0 20 20" fill="none" xmlns="http://www.w3.org/2000/svg">
<path d="M11.4049 3.14589C11.4326 3.15158 11.4603 3.15728 11.4888 3.16315C12.046 3.28155 12.5952 3.46321 13.0995 3.73011C13.1642 3.76446 13.1642 3.76446 13.2585 3.80009C13.3454 3.76639 13.4129 3.713 13.4868 3.65698C13.9396 3.33827 14.5021 3.23862 15.0439 3.32733C15.4119 3.39915 15.7258 3.55638 16.0116 3.80009C16.0454 3.82607 16.0454 3.82607 16.0798 3.85258C16.4435 4.15475 16.662 4.64517 16.7203 5.10849C16.7565 5.62356 16.6792 6.17713 16.3408 6.58981C16.3255 6.60583 16.3102 6.62186 16.2944 6.63836C16.273 6.66423 16.2517 6.69009 16.2297 6.71673C16.2565 6.83509 16.3119 6.94191 16.3637 7.05105C16.5796 7.50843 16.744 7.98948 16.8532 8.48341C16.8581 8.50544 16.8629 8.52746 16.868 8.55016C16.8842 8.62934 16.8979 8.70862 16.9111 8.78837C16.9145 8.80876 16.9179 8.82916 16.9214 8.85018C16.9844 9.23933 17.0064 9.61942 17.0031 10.0133C17.0029 10.0544 17.0029 10.0544 17.0027 10.0964C17.0006 10.4922 16.9907 10.8799 16.9111 11.2689C16.9058 11.296 16.9006 11.3232 16.8951 11.3512C16.6738 12.4712 16.2004 13.4823 15.4937 14.3763C15.4715 14.4046 15.4494 14.4329 15.4266 14.462C15.0811 14.8866 14.6841 15.2827 14.2398 15.603C14.2101 15.6252 14.1805 15.6475 14.1509 15.6698C13.1958 16.3813 12.0656 16.8147 10.887 16.9659C10.8688 16.9683 10.8505 16.9706 10.8317 16.9731C10.6779 16.9918 10.5263 16.9979 10.3715 16.9987C10.3463 16.9989 10.3211 16.999 10.2951 16.9992C10.2142 16.9997 10.1332 16.9999 10.0522 16.9999C10.0246 17 9.997 17 9.96854 17C9.56907 16.9996 9.18089 16.9911 8.78813 16.9114C8.76359 16.9065 8.73904 16.9017 8.71376 16.8967C8.53727 16.8613 8.36266 16.8203 8.18845 16.7751C8.1658 16.7692 8.14316 16.7633 8.11983 16.7573C7.68998 16.6433 7.25782 16.4876 6.86769 16.2727C6.77814 16.2194 6.77814 16.2194 6.71401 16.2519C6.65426 16.2892 6.59888 16.3305 6.54272 16.373C6.08988 16.6917 5.52739 16.7914 4.98559 16.7027C4.61761 16.6308 4.30367 16.4736 4.01792 16.2299C3.98413 16.2039 3.98413 16.2039 3.94967 16.1774C3.58654 15.8756 3.36665 15.3846 3.3092 14.9215C3.2752 14.3608 3.37324 13.8514 3.72798 13.4007C3.7772 13.3408 3.7772 13.3408 3.79985 13.2587C3.76686 13.183 3.73188 13.1107 3.69423 13.0373C3.43968 12.5188 3.262 11.9704 3.14565 11.4052C3.13992 11.3779 3.13419 11.3506 3.12828 11.3225C2.96589 10.5115 2.95231 9.57243 3.11839 8.76111C3.1263 8.72036 3.1263 8.72036 3.13436 8.67879C3.39143 7.37779 3.99028 6.17036 4.91744 5.21752C4.93632 5.19794 4.9552 5.17836 4.97465 5.15819C5.24012 4.88376 5.50588 4.62194 5.81697 4.39977C5.83384 4.38757 5.85072 4.37538 5.86811 4.36281C6.73587 3.7389 7.70841 3.31232 8.76087 3.11863C8.7827 3.11425 8.80452 3.10986 8.82701 3.10535C9.64614 2.94512 10.5906 2.97484 11.4049 3.14589ZM8.2157 4.12719C8.18155 4.1372 8.1474 4.14722 8.11221 4.15753C6.58958 4.63295 5.31624 5.76124 4.56309 7.15287C4.5528 7.17186 4.54252 7.19086 4.53193 7.21043C4.13606 7.95773 3.88326 8.84472 3.87513 9.69204C3.87486 9.7152 3.8746 9.73835 3.87432 9.7622C3.86458 10.8263 4.03687 11.8057 4.50857 12.7681C4.52705 12.7628 4.54553 12.7575 4.56458 12.7521C4.58995 12.745 4.61532 12.7379 4.64145 12.7306C4.67845 12.7202 4.67845 12.7202 4.7162 12.7095C5.3385 12.5529 5.91587 12.6089 6.47635 12.9289C6.92534 13.2015 7.20234 13.6425 7.35707 14.1344C7.45704 14.5571 7.41325 14.974 7.28892 15.3849C7.27921 15.4302 7.26985 15.4756 7.26166 15.5212C8.68702 16.2029 10.2942 16.3732 11.8138 15.9028C11.8352 15.8962 11.8566 15.8897 11.8786 15.8829C12.7972 15.5955 13.6163 15.0892 14.3041 14.4197C14.3439 14.3811 14.3841 14.343 14.4244 14.305C14.6105 14.126 14.7669 13.9283 14.9213 13.7221C14.9329 13.7067 14.9446 13.6912 14.9566 13.6753C15.5432 12.8937 15.9499 11.9654 16.0934 10.9963C16.1004 10.9533 16.1004 10.9533 16.1076 10.9095C16.152 10.6171 16.1588 10.329 16.1581 10.0337C16.1581 10.0086 16.1581 9.98345 16.1581 9.95754C16.1555 9.01166 15.9376 8.11192 15.5209 7.2619C15.4932 7.2698 15.4932 7.2698 15.4649 7.27787C15.4396 7.28497 15.4142 7.29207 15.3881 7.29938C15.3511 7.30981 15.3511 7.30981 15.3133 7.32046C14.6932 7.47657 14.1087 7.42173 13.5527 7.10104C13.1044 6.82647 12.8275 6.38833 12.6724 5.89557C12.5725 5.47292 12.6163 5.05602 12.7406 4.6451C12.7503 4.5998 12.7597 4.55441 12.7678 4.50881C11.3347 3.82331 9.74337 3.66665 8.2157 4.12719ZM13.718 4.58132C13.4842 4.87606 13.425 5.20524 13.4493 5.57188C13.483 5.7783 13.5796 5.94492 13.6946 6.11705C13.7182 6.15331 13.7182 6.15331 13.7423 6.1903C13.9911 6.44596 14.297 6.5819 14.6504 6.58896C15.0122 6.58976 15.2902 6.44874 15.5533 6.20904C15.7984 5.95366 15.8905 5.62914 15.8837 5.28396C15.8505 4.9143 15.6756 4.62901 15.3953 4.39306C14.8533 3.99544 14.1735 4.10759 13.718 4.58132ZM4.42285 13.8765C4.19676 14.1612 4.12226 14.4838 4.15421 14.8397C4.22335 15.1974 4.40661 15.4699 4.69938 15.6847C4.9935 15.8642 5.29592 15.9256 5.63734 15.8568C5.95406 15.7679 6.23774 15.592 6.41016 15.3049C6.57293 14.9892 6.64351 14.6647 6.54954 14.3133C6.49846 14.1681 6.42011 14.0404 6.33488 13.9129C6.31914 13.8888 6.3034 13.8646 6.28718 13.8397C6.03843 13.584 5.73249 13.4481 5.37913 13.441C4.99478 13.4402 4.6857 13.6027 4.42285 13.8765Z" fill="#484848"/>
<path d="M11.0506 8.29773C11.0757 8.31613 11.0757 8.31613 11.1014 8.3349C11.2419 8.44553 11.3353 8.58488 11.4322 8.73387C11.315 8.85799 11.1795 8.93926 11.0352 9.0286C11.0091 9.04524 10.983 9.06187 10.9561 9.07902C10.931 9.0946 10.9059 9.11018 10.8801 9.12624C10.8573 9.14053 10.8344 9.15483 10.8108 9.16956C10.7507 9.19726 10.7507 9.19726 10.669 9.17C10.6393 9.13643 10.6111 9.1016 10.5838 9.06608C10.4392 8.89475 10.2463 8.82639 10.0267 8.80713C9.8019 8.81131 9.59619 8.90548 9.43478 9.05926C9.26306 9.26486 9.22025 9.48177 9.21874 9.74275C9.2185 9.77416 9.2185 9.77416 9.21826 9.80621C9.21801 9.85045 9.21783 9.89469 9.21772 9.93893C9.21746 10.0058 9.21661 10.0727 9.21575 10.1395C9.21363 10.4538 9.22338 10.7472 9.45778 10.9851C9.62376 11.137 9.79494 11.2006 10.0182 11.2229C10.2715 11.2025 10.4698 11.1002 10.6417 10.9145C10.6687 10.8741 10.6687 10.8741 10.6962 10.8328C10.8516 10.8907 10.9853 10.9772 11.1255 11.0645C11.152 11.0807 11.1785 11.0969 11.2057 11.1135C11.2308 11.1291 11.256 11.1447 11.2819 11.1607C11.3163 11.182 11.3163 11.182 11.3515 11.2038C11.4049 11.2416 11.4049 11.2416 11.4322 11.2962C11.1953 11.6727 10.8807 11.8961 10.4594 12.0389C10.0109 12.1405 9.54396 12.0898 9.14601 11.8483C9.07954 11.8023 9.01521 11.755 8.95169 11.705C8.9292 11.6882 8.90671 11.6714 8.88354 11.6541C8.55635 11.375 8.40392 10.9761 8.352 10.5602C8.34008 10.4023 8.34018 10.2442 8.34134 10.086C8.34178 10.0151 8.34135 9.94426 8.34082 9.8734C8.34007 9.32109 8.43761 8.81596 8.84266 8.40677C9.48359 7.84662 10.3615 7.77926 11.0506 8.29773Z" fill="#484848"/>
</svg>
