<svg width="20" height="20" viewBox="0 0 20 20" fill="none" xmlns="http://www.w3.org/2000/svg">
<path d="M13.76 9H9.24C9.01698 9 8.90547 9 8.81262 9.01771C8.4097 9.09457 8.09457 9.4097 8.01771 9.81262C8 9.90547 8 10.017 8 10.24V16.76C8 16.983 8 17.0945 8.01771 17.1874C8.09457 17.5903 8.4097 17.9054 8.81262 17.9823C8.90547 18 9.01698 18 9.24 18H13.76C13.983 18 14.0945 18 14.1874 17.9823C14.5903 17.9054 14.9054 17.5903 14.9823 17.1874C15 17.0945 15 16.983 15 16.76V10.24C15 10.017 15 9.90547 14.9823 9.81262C14.9054 9.4097 14.5903 9.09457 14.1874 9.01771C14.0945 9 13.983 9 13.76 9Z" fill="#484848"/>
<path d="M7.71022 1.00285H12.3485C12.5761 1.02561 12.7582 1.16789 12.8379 1.38131C12.9176 1.59472 12.8891 1.54635 12.8891 1.55773V3.19393H13.3587C13.4867 3.19393 13.6916 3.42158 13.7115 3.55247C13.7969 4.09882 13.6717 4.87566 13.7115 5.459C13.7144 5.50737 13.72 5.5529 13.7371 5.59843C13.8908 5.62404 14.0103 5.60697 14.1668 5.65819C14.5225 5.77486 14.8611 6.13055 14.9522 6.49479C15.0489 10.0774 14.9636 13.677 14.9949 17.2681C14.9522 17.8685 14.5367 18.2897 13.9505 18.3864H9.17284C7.46834 18.9384 5.66425 18.0535 5.14636 16.3262C4.55164 14.3315 5.82645 12.2656 7.93502 12.129V6.90739C7.92648 6.36389 8.24518 5.84315 8.77446 5.66957C9.30373 5.49599 9.07324 5.62404 9.23259 5.58705L9.24682 3.60938C9.25251 3.46426 9.49439 3.19393 9.62813 3.19393H10.0407V2.39717H8.11998C8.10575 2.39717 7.90941 2.31465 7.8781 2.29758C7.622 2.16668 7.50818 1.92196 7.48257 1.64025C7.45696 1.35854 7.43135 1.03699 7.71022 1V1.00285ZM12.3485 1.5435H8.03746C7.95209 1.5435 8.02038 1.84229 8.18543 1.87928C8.78584 1.93335 9.46593 1.82521 10.0578 1.88497C10.8005 1.95896 10.5017 2.6049 10.5558 3.09434C10.5615 3.13417 10.5558 3.17117 10.6013 3.18824L12.3485 3.16263V1.54066V1.5435ZM9.75902 3.73459V5.61266H13.2022V3.73459H9.75902ZM8.50697 8.31595H8.47852V12.1575C10.9826 12.4136 12.0639 15.6234 10.4704 17.4929C10.3623 17.6209 10.2285 17.7262 10.109 17.8401C9.98951 17.9539 10.0578 17.8486 10.0749 17.9055C10.0834 17.9482 10.1403 17.934 10.1745 17.934C11.3497 18.0108 12.6074 17.8714 13.7912 17.934C13.8339 17.951 13.868 17.9083 13.8879 17.9027C14.1611 17.8258 14.4001 17.6352 14.4571 17.3478V8.3131H8.50982L8.50697 8.31595ZM9.80455 13.3384C8.75169 12.3595 6.99029 12.516 6.1167 13.6542C4.87034 15.279 5.70125 17.6779 7.75575 17.9909C10.3879 18.3892 11.7139 15.1168 9.80455 13.3412V13.3384Z" fill="#484848"/>
<path d="M8.08299 18.0222C9.5194 18.0222 10.6838 16.8284 10.6838 15.3559C10.6838 13.8833 9.5194 12.6896 8.08299 12.6896C6.64659 12.6896 5.48215 13.8833 5.48215 15.3559C5.48215 16.8284 6.64659 18.0222 8.08299 18.0222Z" fill="white"/>
<path d="M9.65659 17.066C8.61227 18.1388 6.83664 17.8856 6.13663 16.5709C5.47077 15.3246 5.98012 13.5888 7.38299 13.1477C9.70497 12.4164 11.2871 15.3957 9.65944 17.0689L9.65659 17.066ZM7.89234 14.9034C7.90942 14.8892 7.91795 14.8579 7.9208 14.8095C7.9208 14.7554 7.9208 14.6815 7.9208 14.5904C7.9208 14.4595 7.9208 14.2973 7.9208 14.138V13.7879C7.90942 13.6713 7.95779 13.5148 7.84397 13.4636C7.67039 13.3953 7.41998 13.5034 7.25494 13.5916C7.13542 13.6599 6.99884 13.7253 6.90778 13.8278C6.8594 13.8904 6.89355 13.9359 6.959 14.0156C7.07282 14.1493 7.21225 14.2888 7.346 14.4282C7.45128 14.5363 7.55941 14.6445 7.64763 14.7327C7.70454 14.7924 7.84681 14.9489 7.89234 14.9034ZM8.23381 13.4863C8.1769 13.5546 8.17975 13.6457 8.17405 13.731C8.16552 13.9359 8.16836 14.1579 8.17405 14.3656C8.18544 14.4794 8.15698 14.9404 8.31349 14.9006C8.35617 14.8863 8.4017 14.8437 8.44154 14.8095C8.68341 14.5762 8.95374 14.2916 9.16716 14.0241C9.20415 13.9729 9.24114 13.916 9.22691 13.8591C9.18138 13.7197 8.98504 13.6286 8.85414 13.5688C8.70618 13.5119 8.36186 13.3583 8.2395 13.4835H8.23666L8.23381 13.4863ZM8.97366 15.279C9.13585 15.279 9.29805 15.2705 9.46025 15.2733C9.67367 15.2847 9.9753 15.2876 9.944 14.9916C9.92408 14.7981 9.81025 14.5363 9.69928 14.3571C9.57692 14.1436 9.44602 14.1863 9.29805 14.3514C9.12447 14.5335 8.87406 14.7924 8.69764 14.9774C8.41024 15.2506 8.7204 15.279 8.96797 15.2762H8.97366V15.279ZM6.26183 15.2022C6.32159 15.2506 6.43257 15.2506 6.51509 15.2506C6.70859 15.2506 6.90778 15.2477 7.10128 15.2506C7.20656 15.242 7.6021 15.3046 7.61348 15.1709C7.59071 15.0998 7.53096 15.0656 7.45982 14.9888C7.4086 14.9376 7.35169 14.8778 7.28908 14.818C7.13542 14.6615 6.97323 14.5022 6.81957 14.3457C6.73989 14.2632 6.67729 14.2091 6.62038 14.2091C6.44964 14.229 6.37281 14.5335 6.3159 14.6758C6.27606 14.818 6.1537 15.0941 6.26183 15.1965V15.2022ZM8.55536 15.5693C8.49845 15.5977 8.62934 15.7372 8.68626 15.7912C8.77162 15.8823 8.87691 15.9961 8.97935 16.1071C9.08179 16.2181 9.15008 16.2892 9.22691 16.366C9.32082 16.4514 9.37773 16.5396 9.48301 16.5851C9.62814 16.6051 9.76473 16.2636 9.82448 16.1242C9.88708 15.9477 9.9753 15.7713 9.91554 15.612C9.85578 15.5181 9.73627 15.5494 9.62814 15.5437C9.53423 15.5437 9.42041 15.5437 9.3009 15.5437C9.11594 15.5437 8.94805 15.5437 8.78301 15.5437C8.66918 15.5437 8.58666 15.5437 8.55536 15.5664V15.5693ZM7.62201 15.5835C7.61348 15.5636 7.5338 15.5664 7.40006 15.5664C7.2464 15.5664 7.08136 15.5664 6.90209 15.5664C6.77973 15.5664 6.65737 15.5664 6.55777 15.5664C6.44111 15.575 6.30167 15.5408 6.23907 15.6347C6.18216 15.7884 6.2846 16.016 6.34436 16.1811C6.40127 16.312 6.47525 16.5055 6.59192 16.5595C6.70574 16.5908 6.79965 16.4372 6.88786 16.3603C6.96184 16.2835 7.0529 16.1924 7.14396 16.0985C7.26632 15.9733 7.37161 15.8652 7.47689 15.7571C7.56795 15.6603 7.62771 15.6063 7.61917 15.5863L7.62201 15.5835ZM7.90373 17.2908C7.9834 17.1941 7.96348 17.066 7.96917 16.9238C7.96917 16.7957 7.96633 16.6392 7.96348 16.4855C7.96064 16.3347 7.95779 16.1868 7.95495 16.0445C7.94641 15.9847 7.96348 15.8567 7.89234 15.851C7.86673 15.851 7.84966 15.8652 7.8269 15.8794C7.73584 15.942 7.65332 16.0274 7.5651 16.1156C7.40006 16.2807 7.24071 16.4485 7.07567 16.6136C7.02445 16.6648 6.97038 16.7217 6.93339 16.7815C6.81103 16.9892 7.05859 17.086 7.25209 17.1912C7.4399 17.2709 7.73015 17.4331 7.90373 17.2937V17.2908ZM8.28788 17.3193C8.38747 17.3506 8.49845 17.3193 8.62081 17.2851C8.71756 17.2567 8.80861 17.2169 8.90536 17.1628C9.00211 17.1116 9.1074 17.0404 9.16716 16.9807C9.24968 16.9067 9.2326 16.8469 9.16431 16.7815C8.97935 16.5994 8.4643 16.09 8.3078 15.9363C8.27649 15.9079 8.23381 15.8595 8.23381 15.9363C8.23097 16.2408 8.23381 16.6762 8.23381 16.9892C8.2395 17.1173 8.2082 17.2823 8.28788 17.3164V17.3193Z" fill="#484848"/>
</svg>
