<svg width="20" height="20" viewBox="0 0 20 20" fill="none" xmlns="http://www.w3.org/2000/svg">
<path d="M15.9556 4.59509H3.55062C2.69424 4.59509 2 5.28933 2 6.14571V15.4494C2 16.3058 2.69424 17.0001 3.55062 17.0001H15.9556C16.812 17.0001 17.5062 16.3058 17.5062 15.4494V6.14571C17.5062 5.28933 16.812 4.59509 15.9556 4.59509Z" stroke="#484848" stroke-linecap="round" stroke-linejoin="round"/>
<path d="M14.405 4.59505V3.55614C14.4058 3.31563 14.3507 3.07821 14.244 2.86267C14.1373 2.64712 13.9819 2.45936 13.7901 2.31421C13.5984 2.16906 13.3755 2.07051 13.139 2.02636C12.9026 1.9822 12.6592 1.99365 12.4279 2.05979L2.68227 4.85866" stroke="#484848" stroke-linecap="round" stroke-linejoin="round"/>
<path d="M17.5062 8.96777H14.5445C14.0963 8.96777 13.6664 9.14584 13.3494 9.46281C13.0324 9.77978 12.8543 10.2097 12.8543 10.6579C12.8564 11.1056 13.0351 11.5343 13.3516 11.8508C13.6682 12.1674 14.0969 12.3461 14.5445 12.3481H17.5062" stroke="#484848" stroke-linecap="round" stroke-linejoin="round"/>
</svg>
