<svg width="20" height="20" viewBox="0 0 20 20" fill="none" xmlns="http://www.w3.org/2000/svg">
<path d="M9.60407 4.31736L4.0624 15.4007C4.01765 15.4895 3.99635 15.5883 4.00051 15.6876C4.00467 15.787 4.03416 15.8836 4.08618 15.9683C4.1382 16.0531 4.21101 16.1231 4.29772 16.1718C4.38442 16.2205 4.48213 16.2462 4.58157 16.2465H15.6649C15.7643 16.2462 15.862 16.2205 15.9488 16.1718C16.0355 16.1231 16.1083 16.0531 16.1603 15.9683C16.2123 15.8836 16.2418 15.787 16.246 15.6876C16.2501 15.5883 16.2288 15.4895 16.1841 15.4007L10.6424 4.31736C10.5934 4.22181 10.5191 4.14162 10.4275 4.08562C10.3359 4.02963 10.2306 4 10.1232 4C10.0159 4 9.9106 4.02963 9.81899 4.08562C9.72739 4.14162 9.65302 4.22181 9.60407 4.31736Z" stroke="#484848" stroke-width="1.5" stroke-linecap="round" stroke-linejoin="round"/>
<path d="M10.5899 7.88216C10.5899 7.65307 10.381 7.46735 10.1232 7.46735C9.8655 7.46735 9.65657 7.65307 9.65657 7.88216V10.7859C9.65657 11.015 9.8655 11.2007 10.1232 11.2007C10.381 11.2007 10.5899 11.015 10.5899 10.7859V7.88216Z" fill="#484848" stroke="#484848" stroke-width="0.8" stroke-linecap="round" stroke-linejoin="bevel"/>
<path d="M10.125 13.0674H10.1215C9.86472 13.0674 9.65657 13.2755 9.65657 13.5323V13.5358C9.65657 13.7926 9.86472 14.0007 10.1215 14.0007H10.125C10.3818 14.0007 10.5899 13.7926 10.5899 13.5358V13.5323C10.5899 13.2755 10.3818 13.0674 10.125 13.0674Z" fill="#484848" stroke="#484848" stroke-linecap="round" stroke-linejoin="bevel"/>
</svg>
