<svg width="19" height="19" viewBox="0 0 19 19" fill="none" xmlns="http://www.w3.org/2000/svg">
<path d="M9.11846 5.23323L5.04586 13.3784C5.01297 13.4437 4.99732 13.5163 5.00038 13.5893C5.00343 13.6623 5.02511 13.7333 5.06333 13.7956C5.10156 13.8579 5.15508 13.9094 5.21879 13.9451C5.28251 13.9809 5.35432 13.9998 5.4274 14H13.5726C13.6457 13.9998 13.7175 13.9809 13.7812 13.9451C13.8449 13.9094 13.8984 13.8579 13.9367 13.7956C13.9749 13.7333 13.9966 13.6623 13.9996 13.5893C14.0027 13.5163 13.987 13.4437 13.9541 13.3784L9.88154 5.23323C9.84556 5.16301 9.79091 5.10408 9.72359 5.06292C9.65627 5.02177 9.5789 5 9.5 5C9.4211 5 9.34373 5.02177 9.27641 5.06292C9.20909 5.10408 9.15444 5.16301 9.11846 5.23323Z" fill="#484848" stroke="#484848" stroke-linecap="round" stroke-linejoin="round"/>
<path d="M9.84296 7.85301C9.84296 7.68464 9.68941 7.54816 9.5 7.54816C9.31059 7.54816 9.15704 7.68464 9.15704 7.85301V9.98695C9.15704 10.1553 9.31059 10.2918 9.5 10.2918C9.68941 10.2918 9.84296 10.1553 9.84296 9.98695V7.85301Z" fill="#F9F9FA" stroke="#F9F9FA" stroke-width="0.5" stroke-linecap="round" stroke-linejoin="bevel"/>
<path d="M9.50128 11.6636H9.49871C9.31001 11.6636 9.15704 11.8166 9.15704 12.0053V12.0079C9.15704 12.1966 9.31001 12.3495 9.49871 12.3495H9.50128C9.68998 12.3495 9.84296 12.1966 9.84296 12.0079V12.0053C9.84296 11.8166 9.68998 11.6636 9.50128 11.6636Z" fill="#F9F9FA" stroke="#F9F9FA" stroke-width="0.8" stroke-linecap="round" stroke-linejoin="bevel"/>
</svg>
