<svg width="18" height="18" viewBox="0 0 18 18" fill="none" xmlns="http://www.w3.org/2000/svg">
<path d="M14.0475 7.96506H14.25H14.4525C15.75 7.82256 16.5 6.15006 15.87 4.84506L14.4525 1.92756C14.4365 1.88684 14.4087 1.85189 14.3726 1.82725C14.3364 1.80261 14.2937 1.78943 14.25 1.78943C14.2063 1.78943 14.1636 1.80261 14.1274 1.82725C14.0913 1.85189 14.0635 1.88684 14.0475 1.92756L12.63 4.84506C12 6.15006 12.75 7.82256 14.0475 7.96506Z" fill="#484848" stroke="#484848" stroke-linecap="round" stroke-linejoin="bevel"/>
<path d="M3.5475 7.96506H3.75H3.9525C5.25 7.82256 6 6.15006 5.37 4.84506L3.9525 1.92756C3.93654 1.88684 3.90868 1.85189 3.87256 1.82725C3.83643 1.80261 3.79372 1.78943 3.75 1.78943C3.70627 1.78943 3.66356 1.80261 3.62744 1.82725C3.59131 1.85189 3.56345 1.88684 3.5475 1.92756L2.13 4.84506C1.5 6.15006 2.25 7.82256 3.5475 7.96506Z" fill="#484848" stroke="#484848" stroke-linecap="round" stroke-linejoin="bevel"/>
<path d="M8.90997 16.1926H9.17997H9.45747C11.265 15.9976 12.2475 13.7176 11.385 11.9401L9.46497 7.98006C9.44088 7.92556 9.40147 7.87923 9.35154 7.84671C9.30161 7.81419 9.24331 7.79688 9.18372 7.79688C9.12413 7.79688 9.06583 7.81419 9.0159 7.84671C8.96597 7.87923 8.92656 7.92556 8.90247 7.98006L6.98247 11.9401C6.11997 13.7176 7.10247 15.9976 8.90997 16.1926Z" fill="#484848" stroke="#484848" stroke-linecap="round" stroke-linejoin="bevel"/>
</svg>
