<svg width="20" height="20" viewBox="0 0 20 20" fill="none" xmlns="http://www.w3.org/2000/svg">
<path d="M12.5 2.5H7.5C4.73858 2.5 2.5 4.73858 2.5 7.5V12.5C2.5 15.2614 4.73858 17.5 7.5 17.5H12.5C15.2614 17.5 17.5 15.2614 17.5 12.5V7.5C17.5 4.73858 15.2614 2.5 12.5 2.5Z" fill="#484848" stroke="#484848" stroke-linecap="round" stroke-linejoin="round"/>
<g clip-path="url(#clip0_168_2591)">
<path fill-rule="evenodd" clip-rule="evenodd" d="M6.45835 10C6.45835 8.04399 8.04401 6.45833 10 6.45833C11.956 6.45833 13.5417 8.04399 13.5417 10C13.5417 11.956 11.956 13.5417 10 13.5417C9.30326 13.5417 8.6547 13.3409 8.1075 12.9942C8.00566 12.9297 7.88087 12.9125 7.76536 12.9469L6.56571 13.305L7.01739 12.248C7.07078 12.1231 7.05992 11.98 6.98828 11.8646C6.65238 11.3233 6.45835 10.685 6.45835 10ZM10 5.625C7.58377 5.625 5.62501 7.58375 5.62501 10C5.62501 10.7659 5.82216 11.4868 6.16861 12.1136L5.4502 13.7946C5.38669 13.9432 5.41484 14.1151 5.52243 14.2357C5.63002 14.3563 5.79764 14.4038 5.9525 14.3576L7.82726 13.7981C8.46769 14.1652 9.20988 14.375 10 14.375C12.4163 14.375 14.375 12.4162 14.375 10C14.375 7.58375 12.4163 5.625 10 5.625ZM10.9552 10.9093L10.4076 11.295C10.1512 11.149 9.86763 10.945 9.58321 10.6606C9.28755 10.365 9.06835 10.0597 8.90672 9.77971L9.25471 9.48433C9.40405 9.35758 9.44492 9.14389 9.35292 8.97095L8.90952 8.13762C8.84981 8.0254 8.74216 7.94658 8.61715 7.92356C8.49214 7.90054 8.36347 7.93583 8.2677 8.01941L8.13624 8.13415C7.8201 8.41006 7.63313 8.86346 7.78809 9.32254C7.94875 9.79846 8.2916 10.5475 8.99397 11.2499C9.74963 12.0055 10.5172 12.3031 10.9661 12.4187C11.3278 12.5118 11.67 12.387 11.9112 12.1905L12.1576 11.9897C12.263 11.9038 12.3199 11.7718 12.31 11.6362C12.3 11.5006 12.2245 11.3783 12.1077 11.3087L11.4084 10.892C11.2672 10.8079 11.0897 10.8147 10.9552 10.9093Z" fill="#F9F9FA"/>
</g>
<defs>
<clipPath id="clip0_168_2591">
<rect width="10" height="10" fill="white" transform="translate(5 5)"/>
</clipPath>
</defs>
</svg>
