<svg width="20" height="20" viewBox="0 0 20 20" fill="none" xmlns="http://www.w3.org/2000/svg">
<path d="M11.3039 7H4.66079C3.74356 7 3 7.75466 3 8.68558V15.4279C3 16.3588 3.74356 17.1135 4.66079 17.1135H11.3039C12.2212 17.1135 12.9647 16.3588 12.9647 15.4279V8.68558C12.9647 7.75466 12.2212 7 11.3039 7Z" stroke="#484848" stroke-width="1.5" stroke-linecap="round" stroke-linejoin="round"/>
<path d="M16.3039 2H9.66079C8.74356 2 8 2.75466 8 3.68558V10.4279C8 11.3588 8.74356 12.1135 9.66079 12.1135H16.3039C17.2212 12.1135 17.9647 11.3588 17.9647 10.4279V3.68558C17.9647 2.75466 17.2212 2 16.3039 2Z" stroke="#484848" stroke-width="1.5" stroke-linecap="round" stroke-linejoin="round"/>
</svg>
