<svg width="20" height="20" viewBox="0 0 20 20" fill="none" xmlns="http://www.w3.org/2000/svg">
<path d="M12.5 2.5H7.5C4.73858 2.5 2.5 4.73858 2.5 7.5V12.5C2.5 15.2614 4.73858 17.5 7.5 17.5H12.5C15.2614 17.5 17.5 15.2614 17.5 12.5V7.5C17.5 4.73858 15.2614 2.5 12.5 2.5Z" fill="#484848" stroke="#484848" stroke-linecap="round" stroke-linejoin="round"/>
<g clip-path="url(#clip0_168_2593)">
<path d="M5 4.99989C5.38539 4.98813 5.77074 4.97916 6.15627 4.97368C6.33534 4.97105 6.51428 4.96748 6.69327 4.96173C6.86627 4.9562 7.03915 4.9532 7.21223 4.9519C7.278 4.95097 7.34376 4.94915 7.40948 4.94641C7.90964 4.92636 7.90964 4.92636 8.07337 5.04899C8.20823 5.18518 8.30272 5.34091 8.39844 5.50572C8.44121 5.56737 8.4844 5.62873 8.52844 5.68949C8.56663 5.74568 8.60467 5.80197 8.64258 5.85835C8.68583 5.92196 8.72911 5.98554 8.77243 6.0491C8.79435 6.0813 8.81628 6.11349 8.83886 6.14666C8.95194 6.31171 9.06696 6.47539 9.18213 6.63899C9.20503 6.67152 9.22793 6.70405 9.25152 6.73757C9.41515 6.96977 9.57925 7.20165 9.7438 7.4332C9.85273 7.58659 9.96092 7.74045 10.0685 7.89477C10.1056 7.94792 10.1056 7.94792 10.1435 8.00215C10.1917 8.07124 10.2398 8.14039 10.2879 8.20962C10.3097 8.24095 10.3316 8.27227 10.3542 8.30454C10.3735 8.33233 10.3928 8.36011 10.4127 8.38873C10.4658 8.45906 10.5218 8.51924 10.5859 8.57965C10.8332 8.30705 11.0791 8.03349 11.3184 7.75387C11.5363 7.49928 11.7566 7.24796 11.9835 7.00119C12.143 6.82724 12.2976 6.64925 12.451 6.46998C12.6688 6.21566 12.8888 5.9645 13.1155 5.71806C13.1938 5.63269 13.2708 5.54655 13.3472 5.45952C13.3676 5.4368 13.388 5.41409 13.409 5.39068C13.4775 5.31301 13.4775 5.31301 13.5319 5.22928C13.6274 5.09709 13.6967 5.01206 13.8599 4.97478C13.9866 4.96928 14.1093 4.97265 14.2358 4.98043C14.3011 4.98254 14.3011 4.98254 14.3676 4.98469C14.4744 4.98834 14.5809 4.99344 14.6875 4.99989C14.5762 5.17605 14.4532 5.32392 14.3091 5.47411C14.163 5.62877 14.0223 5.78473 13.8892 5.95076C13.7319 6.14613 13.5628 6.32768 13.3906 6.50985C13.2328 6.67766 13.0863 6.85197 12.942 7.03144C12.7984 7.20368 12.6444 7.36596 12.4911 7.52968C12.323 7.70936 12.1624 7.89513 12.0024 8.08203C11.9624 8.12874 11.9224 8.17546 11.8823 8.22216C11.8521 8.25742 11.8521 8.25742 11.8213 8.29338C11.6656 8.47456 11.5055 8.6508 11.3419 8.82497C11.2252 8.95812 11.1204 9.09865 11.0156 9.24113C11.0431 9.27985 11.0706 9.31858 11.0989 9.35847C11.3877 9.76539 11.675 10.1733 11.9616 10.5817C12.0759 10.7445 12.1903 10.9072 12.3047 11.0699C12.4424 11.2658 12.58 11.4617 12.7176 11.6577C12.9309 11.9615 13.1445 12.2652 13.3594 12.568C13.5276 12.8051 13.6952 13.0426 13.8623 13.2805C13.885 13.3128 13.9077 13.3451 13.9311 13.3784C14.0494 13.547 14.1677 13.7156 14.2859 13.8843C14.3335 13.9521 14.3811 14.02 14.4287 14.0879C14.4515 14.1204 14.4742 14.153 14.4977 14.1865C14.6447 14.396 14.7949 14.6024 14.9509 14.8055C15 14.8832 15 14.8832 15 14.9999C14.6174 15.018 14.2348 15.0318 13.8518 15.0402C13.6739 15.0443 13.4963 15.0497 13.3185 15.0586C12.1745 15.1143 12.1745 15.1143 11.8766 14.9274C11.6946 14.7504 11.5849 14.5458 11.4862 14.3144C11.4346 14.1974 11.3662 14.1002 11.2888 13.9987C11.2683 13.9695 11.2478 13.9403 11.2267 13.9102C11.0397 13.644 10.8523 13.378 10.6641 13.1127C10.4958 12.8756 10.3283 12.6381 10.1611 12.4002C10.1386 12.3682 10.1161 12.3361 10.0929 12.3032C9.97119 12.13 9.84996 11.9566 9.72931 11.7828C9.70433 11.7469 9.67935 11.711 9.65361 11.6741C9.60541 11.6049 9.55736 11.5355 9.50945 11.4661C9.48784 11.4351 9.46623 11.4042 9.44397 11.3722C9.42495 11.3448 9.40593 11.3174 9.38633 11.2891C9.33902 11.2202 9.33902 11.2202 9.25781 11.1867C9.12931 11.3318 9.0016 11.4776 8.87558 11.6249C8.69089 11.8407 8.50575 12.0552 8.31299 12.264C8.18913 12.3983 8.07108 12.5351 7.95654 12.6774C7.79736 12.8741 7.62686 13.0575 7.45312 13.2414C7.29535 13.4092 7.14885 13.5835 7.00455 13.763C6.86119 13.9349 6.70741 14.0969 6.55441 14.2603C6.4668 14.3539 6.38086 14.4487 6.29639 14.5451C6.27682 14.567 6.25726 14.5889 6.2371 14.6115C6.17075 14.6873 6.17075 14.6873 6.11629 14.77C6.02181 14.8996 5.9525 14.9871 5.79213 15.025C5.67074 15.0305 5.55338 15.0271 5.43213 15.0193C5.39051 15.0179 5.34889 15.0165 5.30602 15.0151C5.20386 15.0114 5.10201 15.0063 5 14.9999C5.046 14.8728 5.08982 14.7792 5.18448 14.6822C5.20533 14.6605 5.22617 14.6387 5.24765 14.6163C5.26986 14.5936 5.29206 14.5709 5.31494 14.5476C5.47041 14.385 5.62116 14.2223 5.76172 14.0466C5.89788 13.877 6.04211 13.7181 6.19141 13.5602C6.37199 13.3692 6.54164 13.1732 6.70639 12.9683C6.84999 12.7961 7.00407 12.6338 7.15729 12.4701C7.32543 12.2904 7.48606 12.1047 7.64603 11.9178C7.86381 11.6635 8.0839 11.4125 8.31039 11.1658C8.3907 11.0784 8.47067 10.9907 8.5498 10.9021C8.57987 10.8686 8.57987 10.8686 8.61053 10.8345C8.69027 10.7359 8.75878 10.6312 8.82812 10.5252C8.50318 10.0497 8.17465 9.57682 7.84277 9.10609C7.74979 8.97411 7.65706 8.84196 7.56431 8.70983C7.3742 8.43903 7.18367 8.16855 6.99219 7.89872C6.70701 7.49685 6.42408 7.09342 6.14098 6.6901C5.89712 6.34274 5.65309 5.9955 5.40771 5.64921C5.3798 5.60981 5.3798 5.60981 5.35131 5.56961C5.33362 5.54466 5.31593 5.51972 5.2977 5.49402C5.28082 5.47016 5.26395 5.44631 5.24656 5.42173C5.21105 5.37208 5.17507 5.32277 5.13872 5.27372C5 5.08568 5 5.08568 5 4.99989ZM6.25 5.66137C6.41309 5.92127 6.58071 6.17542 6.7627 6.42255C6.8071 6.48335 6.8515 6.54415 6.8959 6.60495C6.91832 6.63554 6.94073 6.66614 6.96383 6.69766C7.07214 6.84563 7.17991 6.99398 7.2876 7.1424C7.31914 7.18585 7.31914 7.18585 7.35132 7.23018C7.51297 7.45325 7.67242 7.6778 7.83128 7.90283C7.97323 8.10362 8.11706 8.30298 8.26172 8.50183C8.44578 8.75486 8.62759 9.00933 8.808 9.26495C8.9482 9.46327 9.0904 9.66008 9.2334 9.85641C9.43693 10.136 9.63632 10.4182 9.83456 10.7015C10.0076 10.9484 10.1837 11.1929 10.3612 11.4365C10.5027 11.6311 10.6425 11.8267 10.7812 12.0232C10.9633 12.2811 11.1479 12.537 11.3336 12.7922C11.4782 12.9912 11.6209 13.1914 11.7627 13.3924C11.9177 13.612 12.0746 13.8301 12.2339 14.0466C12.2522 14.0715 12.2706 14.0965 12.2895 14.1222C12.3699 14.2348 12.3699 14.2348 12.4609 14.3384C12.5566 14.3419 12.6511 14.3429 12.7467 14.3422C12.7753 14.3422 12.8038 14.3421 12.8333 14.342C12.9248 14.3418 13.0164 14.3413 13.1079 14.3408C13.1698 14.3406 13.2318 14.3405 13.2937 14.3403C13.4458 14.3399 13.5979 14.3392 13.75 14.3384C13.595 14.0903 13.4366 13.8494 13.2568 13.6186C13.0816 13.3899 12.9155 13.1566 12.7539 12.9182C12.5968 12.6865 12.4358 12.4595 12.2656 12.2372C12.0722 11.9846 11.8917 11.7248 11.7131 11.4616C11.577 11.2619 11.436 11.0673 11.2891 10.8754C11.0957 10.6227 10.9151 10.363 10.7365 10.0997C10.6004 9.90007 10.4594 9.70542 10.3125 9.51351C10.1191 9.26086 9.93854 9.00109 9.75998 8.73788C9.62385 8.5382 9.48286 8.34355 9.33594 8.15164C9.14253 7.899 8.96198 7.63922 8.78342 7.37601C8.62965 7.15047 8.46845 6.9321 8.3024 6.71543C8.11969 6.47532 7.94959 6.22714 7.78076 5.97721C7.7504 5.93237 7.7504 5.93237 7.71942 5.88662C7.6926 5.84672 7.6926 5.84672 7.66523 5.80601C7.61619 5.73396 7.61619 5.73396 7.53906 5.66137C7.44105 5.65456 7.34741 5.65235 7.24945 5.65377C7.2067 5.65393 7.2067 5.65393 7.16308 5.6541C7.07193 5.65454 6.9808 5.65551 6.88965 5.6565C6.8279 5.65689 6.76615 5.65725 6.70441 5.65757C6.55293 5.65842 6.40147 5.65977 6.25 5.66137Z" fill="#F9F9FA"/>
</g>
<defs>
<clipPath id="clip0_168_2593">
<rect width="10" height="10" fill="white" transform="translate(5 5)"/>
</clipPath>
</defs>
</svg>
