<svg width="20" height="20" viewBox="0 0 20 20" fill="none" xmlns="http://www.w3.org/2000/svg">
<path d="M10 16.0583C12.0514 16.1097 14.1035 15.9842 16.1333 15.6833C16.4617 15.6085 16.7689 15.4601 17.0316 15.2494C17.2943 15.0386 17.5058 14.771 17.65 14.4666C18.176 13.0389 18.4084 11.5197 18.3333 9.99995C18.4084 8.48026 18.176 6.96104 17.65 5.53329C17.494 5.23742 17.2789 4.97676 17.018 4.76747C16.7571 4.55818 16.456 4.40473 16.1333 4.31662C14.1035 4.0157 12.0514 3.89024 10 3.94162C7.94858 3.89024 5.89655 4.0157 3.86667 4.31662C3.53826 4.3914 3.23112 4.53976 2.9684 4.75052C2.70568 4.96127 2.49423 5.22892 2.35 5.53329C1.82404 6.96104 1.59163 8.48026 1.66667 9.99995C1.59163 11.5197 1.82404 13.0389 2.35 14.4666C2.50599 14.7625 2.72111 15.0231 2.982 15.2324C3.2429 15.4417 3.54401 15.5952 3.86667 15.6833C5.89655 15.9842 7.94858 16.1097 10 16.0583Z" stroke="#484848" stroke-linecap="round" stroke-linejoin="round"/>
<path d="M7.94167 12.0583V7.94166C7.93921 7.85193 7.96096 7.76319 8.00462 7.68476C8.04829 7.60633 8.11227 7.5411 8.18984 7.49592C8.26741 7.45074 8.35571 7.42728 8.44548 7.42799C8.53524 7.42871 8.62316 7.45358 8.7 7.5L12.1333 9.56666C12.2039 9.61089 12.2621 9.67232 12.3025 9.74521C12.3428 9.81809 12.364 9.90003 12.364 9.98333C12.364 10.0666 12.3428 10.1486 12.3025 10.2215C12.2621 10.2943 12.2039 10.3558 12.1333 10.4L8.7 12.5C8.62316 12.5464 8.53524 12.5713 8.44548 12.572C8.35571 12.5727 8.26741 12.5493 8.18984 12.5041C8.11227 12.4589 8.04829 12.3937 8.00462 12.3152C7.96096 12.2368 7.93921 12.1481 7.94167 12.0583Z" stroke="#484848" stroke-linecap="round" stroke-linejoin="round"/>
</svg>
